<?xml version="1.0" encoding="utf-8"?>
<!-- Generator: Adobe Illustrator 22.0.1, SVG Export Plug-In . SVG Version: 6.00 Build 0)  -->
<svg version="1.1" id="Layer_1" xmlns="http://www.w3.org/2000/svg" xmlns:xlink="http://www.w3.org/1999/xlink" x="0px" y="0px"
	 viewBox="0 0 15.7 40" style="enable-background:new 0 0 15.7 40;" xml:space="preserve">
<style type="text/css">
	.st0{fill:#FFFFFF;}
</style>
<g>
	<path class="st0" d="M-191.2,6c-0.2,0.9-0.4,26.9,0.6,27.8c0.6,0.5,7.1,1.2,7.7,0.8c0.6-0.3,0.9-1,1-1.6c0.6-1.9,0-26.5-0.7-27.5
		C-183.2,4.5-190.6,4.1-191.2,6z"/>
	<g>
		<path d="M-191.6,5.9c-1.2,7.4-0.3,15.9,0,23.3c0.1,1.8-0.2,4.1,1.3,5.2c1.7,1.2,7.2,1.5,8.5-0.2c1.5-1.9,0.7-6.4,0.7-8.6
			c0-5.3-0.1-10.6-0.4-15.8c-0.1-1.6,0.2-3.9-1.1-5c-1.8-1.4-7.6-1.2-8.9,0.9c-0.3,0.6,0.5,1.1,0.9,0.5c0.9-1.4,5.5-1.5,6.9-0.8
			c1.2,0.6,0.8,0.6,1.1,1.9c0.7,2.8,0.3,6.1,0.4,8.9c0.1,3.6,0.2,7.1,0.2,10.7c0,2.1,0.8,6.3-1.7,7.2c-0.9,0.4-5-0.2-5.6-0.6
			c-1-0.7-0.9-0.9-1-2.3c-0.3-2.9-0.3-5.9-0.3-8.9c-0.1-5.2-0.7-11.1,0.1-16.3C-190.6,5.5-191.5,5.2-191.6,5.9z"/>
	</g>
</g>
<g>
	<path class="st0" d="M-175.6,5.3c-1,0.8-0.4,27.6,0,28c0.3,0.3,8.8,0.4,9.3-0.1c0.5-0.6,0.2-27.6-0.4-28.1
		c-0.3-0.3-0.8-0.4-1.2-0.4C-169.4,4.4-174.6,4.5-175.6,5.3z"/>
	<g>
		<path d="M-176,5.1c-1.2,1.9-0.6,6-0.6,8.1c-0.1,5,0,10.1,0.2,15.1c0,1.2-0.5,4.5,0.6,5.5c1,1,8.4,0.9,9.5,0
			c1.3-1.1,0.7-4.2,0.8-5.7c0.1-4.8,0-9.6-0.1-14.4c0-1.9,0.7-7.1-0.5-8.8c-1.5-2-7.6-1-9.6-0.1c-0.6,0.3-0.1,1.2,0.5,0.9
			c1.4-0.7,5.9-1.4,7.5-0.5c1.1,0.7,0.9,1.3,1,2.7c0.2,3.2,0.2,6.4,0.3,9.6c0.1,3.5,0.1,7,0,10.4c0,1,0.2,2.7-0.1,3.6
			c-0.5,1.5-1.1,1.3-2.9,1.4c-1.4,0.1-3.4,0.3-4.8-0.1c-1.5-0.4-0.5,0.3-1-1.4c-0.7-2.6-0.2-6-0.3-8.7c-0.1-3.4-0.1-6.8-0.1-10.2
			c0-1.7-0.6-5.6,0.5-7.1C-174.8,5-175.7,4.5-176,5.1z"/>
	</g>
</g>
<g>
	<path class="st0" d="M-161.3,5.6c-0.8,0.4-0.2,27.6,0,27.9c0.3,0.4,8.6-0.5,9-0.8c0.6-0.4,0.8-18.6,0.4-26.6c0-0.5-0.1-1-0.4-1.4
		C-152.6,4.2-161,5.4-161.3,5.6z"/>
	<g>
		<path d="M-161.8,5.3c-1,1.4-0.4,5.4-0.5,7c0,4.5,0,9,0.1,13.6c0,1.5-0.7,6.4,0.3,7.7c1.2,1.5,6.1,0.1,7.7-0.1
			c2.2-0.3,2.2-0.4,2.5-2.6c0.6-5.1,0.4-10.4,0.3-15.5c0-2.2,1.1-9.8-0.9-11.3c-1.6-1.1-7.5,0.5-9.3,0.9c-0.6,0.2-0.4,1.1,0.3,1
			c1.3-0.3,2.6-0.4,3.9-0.6c0.8-0.1,2.1-0.4,2.9-0.3c1.4,0.2,0.9-0.5,1.7,0.9c0.8,1.3,0.4,4.3,0.4,5.8c0,2.3,0,4.5,0,6.8
			c0,3.6,0,7.3-0.2,10.9c0,0.5,0.1,2.4-0.2,2.8c-0.5,0.7-4.3,0.5-5.1,0.6c-2.8,0.2-3,0.8-3.1-2c-0.1-3-0.2-5.9-0.2-8.9
			c-0.1-3.2-0.1-6.5-0.1-9.7c0-1.4-0.6-5.2,0.3-6.5C-160.5,5.3-161.4,4.8-161.8,5.3z"/>
	</g>
</g>
<g>
	<path class="st0" d="M-145.7,6c-0.6,0.4-0.7,1.2-0.7,1.9c-0.1,8-0.2,16.1-0.1,24.1c0,0.6,0,1.2,0.5,1.5c0.4,0.3,0.8,0.3,1.3,0.3
		c1.8,0,6.5-0.1,6.9-0.3c1.2-0.5,1.4-2.2,1.4-3.5c-0.1-7-0.1-13.9-0.2-20.9c0-1.1,0-2.2-0.6-3.1S-145.3,5.8-145.7,6z"/>
	<g>
		<path d="M-146.1,5.8c-2,3-0.8,8.9-0.9,12.4c0,2.8,0,5.6,0,8.3c0,1.7-0.7,4.9,0.1,6.5c1.3,2.4,8.4,2.4,10.2,0.4
			c1.9-2.1,0.7-7.5,0.7-9.9c0-2.8-0.1-5.7-0.1-8.5c0-2.2,0.4-5.3-0.2-7.4c-1-3.6-6.7-2.8-9.6-1.9c-0.6,0.2-0.4,1.1,0.3,1
			c1.2-0.4,2.7-0.3,4-0.3c3.5-0.1,4,1.4,4.5,5c0.4,3,0.1,6.4,0.1,9.5c0,2.7,0.8,6.9,0.1,9.5c-0.8,3-4,4-6.8,3.3
			c-3.4-0.9-2.3-5.1-2.3-7.8c0-3.1,0-6.2,0-9.3c0-2.6-0.8-7.8,0.7-10C-144.9,5.7-145.8,5.2-146.1,5.8z"/>
	</g>
</g>
<g>
	<path class="st0" d="M-130.6,5.8c-0.4,0-0.8,0-1.1,0.3c-0.3,0.3-0.3,0.7-0.3,1.1c-0.1,8.4-0.2,16.8-0.2,25.2c0,0.4,0,0.8,0.2,1.1
		c0.3,0.3,8.5,0.9,9,0.6c0.9-0.5,1-1.8,1-2.9c-0.1-8.2-0.1-16.4-0.2-24.6c0-0.4,0-0.9-0.2-1.3C-122.9,4.5-129.4,5.7-130.6,5.8z"/>
	<g>
		<path d="M-130.7,5.3c-3,0.8-1.8,5.2-1.8,7.7c0,3.2-0.1,6.5-0.1,9.7c0,2.8-0.9,7.1-0.1,9.7c0.6,1.9,0.2,1.3,2,1.9
			c1.6,0.5,6,1.1,7.6,0.4c1.5-0.6,1.6-1.9,1.7-3.4c0.5-6.2-0.1-12.7-0.1-18.9c0-1.8,1-6.5-1-7.7c-1.8-1.1-6,0.4-8,0.6
			c-0.6,0-0.6,1.1,0,1c1.5-0.1,2.9-0.4,4.3-0.5c4.3-0.4,3.6,4.4,3.6,7.6c0,3.2,0,6.3,0.1,9.5c0,2.2,1.2,9.6-1.2,10.9
			c-0.8,0.5-3.4-0.1-4.3-0.2c-0.7-0.1-1.8,0.1-2.5-0.3c-1.6-0.8-1.1-3.1-1.1-4.8c-0.1-2.4-1.1-21.6,1.2-22.2
			C-129.8,6.1-130.1,5.1-130.7,5.3z"/>
	</g>
</g>
<g>
	<path class="st0" d="M-115.3,5.3c-1.3,0.4-1.5,2.1-1.5,3.5c0.1,7.7,0.3,15.4,0.4,23.1c0,0.5,0,1,0.4,1.2c0.3,0.2,0.6,0.2,0.9,0.2
		c2.1,0,4.2,0,6.3,0c0.4,0,0.8,0,1.1-0.3c0.3-0.3,0.3-0.7,0.3-1c0-4.7,0.1-9.5,0.1-14.2c0-2.7,0-5.4,0.1-8.1c0-1.3,0-2.7-0.7-3.7
		C-108.8,5-114.1,5-115.3,5.3z"/>
	<g>
		<path d="M-115.6,4.9c-2.1,1.4-1.8,3.6-1.7,5.9c0.1,5.8,0.2,11.6,0.3,17.4c0,1.4-0.6,4.5,0.9,5.6c1.2,0.9,7.5,0.9,8.7-0.2
			c1.5-1.4,0.5-7.7,0.5-9.4c0-4.9,0.4-10,0.1-14.9c-0.3-4.9-4.4-5.1-8.7-4.3c-0.6,0.1-0.4,1.1,0.3,1c1.3-0.3,3.8-0.6,5.1,0
			c2.6,1.3,2.3,5.2,2.3,8c0,2.5,0,5.1-0.1,7.6c0,2.4,0.5,5.7-0.1,8c-0.8,3-3.8,4.6-6.8,3c-1.8-1-1.2-2.2-1.3-4.3
			c0-1.3,0-2.6-0.1-3.9c0-2.6-0.1-5.1-0.1-7.7c0-2.3-1.1-9.3,1.1-10.8C-114.5,5.4-115,4.5-115.6,4.9z"/>
	</g>
</g>
<g>
	<path class="st0" d="M-100.4,6c-1.6,0.5-1.9,2.7-1.9,4.4c0.1,7.2,0.2,14.3,0.4,21.5c0,0.6,0.1,1.4,0.5,1.8c0.5,0.5,1.3,0.4,1.9,0.3
		c1.9-0.2,3.8-0.4,5.6-0.7c0.3,0,0.7-0.1,1-0.3c0.4-0.3,0.4-1,0.4-1.5c-0.4-7.8-0.1-15.6,0.8-23.3c0.1-0.8,0.1-1.8-0.6-2.2
		c-0.3-0.2-0.7-0.2-1.1-0.2C-94.6,5.7-99.5,5.7-100.4,6z"/>
	<g>
		<path d="M-100.7,5.5c-1.8,1.1-2,2.8-2.1,4.9c-0.2,5.8,0.2,11.8,0.3,17.6c0,1.7-0.7,5,1,6.2c1.4,1.1,7.6,0.5,8.9-0.7
			c1.5-1.4,0.5-5.1,0.5-6.8c-0.1-5.9,0.4-11.6,0.8-17.5c0.2-2.3,0.3-3.4-2-3.9c-2-0.5-5.2-0.2-7.2,0.2c-0.6,0.1-0.4,1.1,0.3,1
			c1.5-0.3,3.4-0.5,4.9-0.2c3.4,0.6,3.1,2.6,2.8,5.8c-0.5,5.7,0.4,11.9-0.5,17.5c-0.3,2-0.2,2.7-2.6,3.5c-0.7,0.2-3,0.7-3.8,0.4
			c-3.1-0.9-2-6-2.1-8.5c0-2.9-0.1-5.9-0.1-8.8c0-2.5-1.2-8.2,1.5-9.8C-99.6,6.1-100.1,5.2-100.7,5.5z"/>
	</g>
</g>
<g>
	<path class="st0" d="M-86.6,6.9c-0.7,0.7-0.7,1.7-0.8,2.7c-0.1,3.2-0.2,6.4-0.3,9.6c-0.1,4.4-0.2,8.8-0.4,13.2c0,0.8,0,1.7,0.7,2.1
		c0.3,0.2,7.9,0.2,8.1,0.1c0.2-0.2,0.3-0.5,0.3-0.8c0.2-1.7,0.3-3.5,0.3-5.2c0.1-6.2,0.2-12.3,0.3-18.5c0-1.1,0-2.2-0.6-3.2
		C-79.3,6-85.7,6-86.6,6.9z"/>
	<g>
		<path d="M-87,6.7c-1.9,3.8-1,9.3-1.1,13.5c-0.1,2.8-0.2,5.6-0.2,8.5c0,1.2-0.6,4,0.1,5.2c0.9,1.6,2,1.3,3.7,1.3
			c1.1,0,4.7,0.7,5.7-0.1c1.8-1.4,0.9-6.4,0.9-8.3c0.1-5.7,0.9-11.8,0.3-17.5c-0.5-4.3-5.7-4.7-9.1-2.7c-0.6,0.3-0.1,1.2,0.5,0.9
			c1.1-0.7,5.3-1.2,6.5-0.4c2.2,1.5,1,8.2,1,10.5c-0.1,3.1-0.1,6.2-0.2,9.3c0,1.7,0.1,3.7-0.2,5.3c-0.3,1.7-0.4,1.7-1.7,2.2
			c-1,0.3-3.6,0.2-4.6,0c-2.8-0.8-2-3.9-1.9-6.5c0.1-3.1,0.2-6.3,0.3-9.4c0.1-3.2-0.5-8.2,0.9-11.1C-85.8,6.6-86.7,6.1-87,6.7z"/>
	</g>
</g>
<g>
	<path class="st0" d="M-72.3,5.9c-0.4,0-0.7,0.1-1.1,0.3c-0.6,0.4-0.9,26.8-0.4,27.2c0.4,0.3,8.2,0.2,8.5-0.1
		c0.3-0.3,0.4-0.7,0.5-1.1c0.3-2.1,0-18.9-0.2-25.1c0-0.5,0-0.9-0.3-1.3C-65.4,5.3-70.9,5.8-72.3,5.9z"/>
	<g>
		<path d="M-72.4,5.4c-2,0.5-1.6,1.7-1.8,3.7c-0.2,4.2-0.3,8.4-0.3,12.7c0,3-0.9,7.8,0.1,10.8c0.6,1.9,1,1.5,3.4,1.5
			c2.5,0,5.8,1,6.7-1.8c1.1-3.3,0.1-8.4,0.1-11.7c0-2.8-0.1-5.6-0.1-8.4c0-1.6,0.5-4.5-0.3-5.9c-1.3-2.4-5.3-1.1-7.8-0.9
			c-0.6,0.1-0.6,1.1,0,1c1.4-0.1,3.1-0.4,4.5-0.3c2.2,0.2,2.2,0.7,2.5,3c0.4,3.5,0.1,7.3,0.2,10.8c0,3.4,0.4,6.9,0,10.3
			c-0.3,3.5-2.8,2.8-5.9,2.8c-2.8,0-2.4-0.7-2.5-3.3c-0.1-2.8,0-5.7,0-8.5c0-2.2-0.9-14.3,1.3-14.9C-71.5,6.2-71.8,5.2-72.4,5.4z"/>
	</g>
</g>
<g>
	<path class="st0" d="M-57.5,7.2c-0.3,0.5-0.3,1-0.3,1.6c0.1,7.7,0.2,15.4,0.4,23.1c0,0.2,0,0.5,0.2,0.7c0.2,0.2,0.5,0.3,0.8,0.3
		c2.1,0.3,4.3,0.5,6.4,0.6c0.4,0,0.8,0,1.1-0.2c0.8-0.4,0.9-1.5,0.8-2.3c-0.2-7.9-0.3-15.8-0.5-23.7c0-0.4,0-0.9-0.4-1.1
		C-49.1,6-49.5,6-49.8,6C-50.8,6-56.7,5.9-57.5,7.2z"/>
	<g>
		<path d="M-58,7c-0.8,4.6-0.2,9.6-0.1,14.2c0,2.9,0.1,5.8,0.2,8.7c0,0.5-0.2,2.3,0.3,2.9c1.2,1.3,5.3,1.1,6.8,1.1
			c2.1,0,2.7-0.2,3.2-2.3c0.5-2.3,0-5.3-0.1-7.6c-0.1-3-0.1-5.9-0.2-8.9c0-2,1-7.8-0.6-9.3c-1.6-1.5-7.8-0.4-9.4,0.9
			c-0.5,0.4,0.2,1.1,0.7,0.7c1.2-1,3.9-1.1,5.4-1c2.3,0.2,2.4,0.4,2.7,2.7c0.8,5.4,0.2,11.3,0.3,16.8c0.1,3.1,0.6,6.9-3.8,6.8
			c-1.9-0.1-4-2.3-4.5-3.9c-0.3-1.1,0-2.7-0.1-3.9c-0.1-5.7-1-12.2,0-17.8C-56.9,6.7-57.9,6.4-58,7z"/>
	</g>
</g>
<g>
	<path class="st0" d="M-41.4,6c-0.5,0.6-0.5,1.3-0.6,2.1c-0.2,4.5,0,20.5,0.1,25c2.5,0.5,5.1,0.5,7.5-0.1c0.4-0.1,0.7-0.2,1-0.5
		C-33,32.3-32.8,13-32.8,6C-32.8,5.3-40.2,4.7-41.4,6z"/>
	<g>
		<path d="M-41.8,5.7c-1.6,3.4-0.7,8.6-0.7,12.3c0,5,0.1,10,0.2,15c0,0.2,0.2,0.5,0.4,0.5c2.8,0.4,8,1.4,9.2-1.7
			c0.6-1.6,0.2-4.4,0.2-6.2c0.1-2.9,0.1-5.9,0.1-8.8c0-2.2,1.4-9.8-0.3-11.5c-1.5-1.5-7.4-1-9,0.1c-0.5,0.4,0,1.2,0.5,0.9
			c1.6-1.1,6.9-1.2,7.8,0.3c0.7,1.2,0,5.8,0,7.2c-0.1,5.4-0.1,10.9-0.3,16.3c0,0.5,0.1,1.6-0.1,2c-2,0.8-4,0.9-5.9,0.5
			c-1.3,0.4-1.9,0-1.7-1c-1-1.7-0.1-6.6-0.1-8.6c0-2.9,0-5.8,0-8.7c0-2.5-0.5-5.8,0.6-8.1C-40.7,5.7-41.5,5.1-41.8,5.7z"/>
	</g>
</g>
<g>
	<path class="st0" d="M-26.7,6.2c-0.4,1.1-0.8,26.8-0.1,27.2c0.3,0.1,0.5,0.1,0.8,0.1c1.8-0.2,5.2,0.1,7-0.1c0.4,0,0.9-0.1,1.2-0.3
		c0.6-0.4,0.4-26.5,0-27.3C-18.2,5-26.3,5.1-26.7,6.2z"/>
	<g>
		<path d="M-27.2,6.1c-0.6,3-0.4,6.4-0.4,9.5c-0.1,4.7-0.2,9.4,0,14.1c0,1.4-0.2,3.3,0.9,4.2c1.1,0.9,8.6,0.5,9.6-1
			c1.2-1.8,0.3-7.4,0.3-9.5c0-4.6,0-9.3-0.1-13.9c0-1.4,0.4-3.5-0.8-4.4c-1.6-1.1-7.8-0.8-9.2,0.7c-0.4,0.5,0.3,1.2,0.7,0.7
			c1.1-1.2,4.6-0.9,6-0.8c2.2,0.1,1.7-0.1,2.2,1.3c0.7,2.1,0.2,5.3,0.2,7.5c0,3.6,0.1,7.2,0,10.7c0,1.4,0.7,5.9-0.2,7.1
			c-0.8,1.1-4.8,0.4-6.2,0.5c-2.3,0.1-1.6,0.3-2.2-1.3c-0.9-2.2-0.1-6.2-0.1-8.5c0-5.3-0.7-11.5,0.5-16.8
			C-26.1,5.7-27.1,5.5-27.2,6.1z"/>
	</g>
</g>
<g>
	<path class="st0" d="M-12.3,6c-0.4,0.5,0.1,18.4,0.7,27.4c1.9-0.4,8.3-0.1,8.9-0.8C-2,31.7-1.7,13.3-2,5.7C-2,5.2-11.5,4.8-12.3,6z
		"/>
	<g>
		<path d="M-12.8,5.9c-0.9,2.9-0.1,7-0.1,10c0.1,5.8,0.3,11.7,0.7,17.5c0,0.4,0.3,0.5,0.6,0.5c2.7-0.4,8.1,1,9.4-1.8
			c0.7-1.4,0.3-3.9,0.4-5.3c0.1-3.3,0.2-6.7,0.2-10c0-2.3,1.3-10-0.6-11.6c-1.6-1.3-8.9-0.9-10.6,0.4c-0.5,0.4,0,1.3,0.5,0.9
			c1.6-1.2,6.1-1,8-0.6c1.9,0.4,1.6,0.7,1.6,2.7c0.1,1.5,0,3,0,4.5c0,3.5,0,7-0.1,10.5C-2.6,25.3-2,30-3,31.6
			c-0.5,0.8-7.1,2.1-8.1,1.2c-1.1-0.9-0.5-8.4-0.5-9.7c-0.1-3.6-0.2-7.1-0.3-10.7c0-1.9-0.5-4.4,0.1-6.3
			C-11.6,5.5-12.6,5.2-12.8,5.9z"/>
	</g>
</g>
<g>
	<path class="st0" d="M3,6.1C2.8,6.4,2.7,6.8,2.7,7.2C2.3,11,2,30,2.5,32.9c0.1,0.3,0.1,0.6,0.4,0.9c0.3,0.3,8.8,0.1,8.8-0.9
		c0.6-7.5,1-18.2,0.4-25.7c0-0.6-0.1-1.2-0.4-1.8S3.9,4.8,3,6.1z"/>
	<g>
		<path d="M2.5,5.9c-1.9,6.9-0.9,15.4-0.7,22.5c0,1.3-0.4,4.7,0.9,5.7c1.2,1,6.3,0.2,7.6-0.2c3-0.8,2.1-3.1,2.3-6.1
			c0.4-6.2,0.5-12.5,0.2-18.7c-0.1-2.5,0.2-3.9-2.1-4.6C8.7,4,4.3,4.3,2.7,5.7C2.2,6.1,2.9,6.8,3.4,6.4c1.8-1.5,7.3-1.7,8.3,0.7
			c1.1,2.5,0.3,7.8,0.3,10.4c0,4,0.3,8.6-0.5,12.5c-0.4,2.1-0.4,2.4-2.6,3.1C8,33.4,5.9,33.6,5,33.4c-1.6-0.4-1.5,0.1-2.1-1.8
			c-0.2-0.6-0.1-1.6-0.1-2.2c-0.1-2.8-0.1-5.6,0-8.3c0-4.7-0.5-10.2,0.7-14.8C3.7,5.6,2.7,5.3,2.5,5.9z"/>
	</g>
</g>
<g>
	<path class="st0" d="M18.7,6c-0.2,0.9-0.4,26.9,0.6,27.8c0.6,0.5,7.1,1.2,7.7,0.8c0.6-0.3,0.9-1,1-1.6c0.6-1.9,0-26.5-0.7-27.5
		S19.3,4.1,18.7,6z"/>
	<g>
		<path d="M18.3,5.9c-1.2,7.4-0.3,15.9,0,23.3c0.1,1.8-0.2,4.1,1.3,5.2c1.7,1.2,7.2,1.5,8.5-0.2c1.5-1.9,0.7-6.4,0.7-8.6
			c0-5.3-0.1-10.6-0.4-15.8c-0.1-1.6,0.2-3.9-1.1-5c-1.8-1.4-7.6-1.2-8.9,0.9c-0.3,0.6,0.5,1.1,0.9,0.5c0.9-1.4,5.5-1.5,6.9-0.8
			c1.2,0.6,0.8,0.6,1.1,1.9c0.7,2.8,0.3,6.1,0.4,8.9c0.1,3.6,0.2,7.1,0.2,10.7c0,2.1,0.8,6.3-1.7,7.2c-0.9,0.4-5-0.2-5.6-0.6
			c-1-0.7-0.9-0.9-1-2.3c-0.3-2.9-0.3-5.9-0.3-8.9c-0.1-5.2-0.7-11.1,0.1-16.3C19.3,5.5,18.4,5.2,18.3,5.9z"/>
	</g>
</g>
<g>
	<path class="st0" d="M34.3,5.3c-1,0.8-0.4,27.6,0,28c0.3,0.3,8.8,0.4,9.3-0.1c0.5-0.6,0.2-27.6-0.4-28.1c-0.3-0.3-0.8-0.4-1.2-0.4
		C40.5,4.4,35.3,4.5,34.3,5.3z"/>
	<g>
		<path d="M33.9,5.1c-1.2,1.9-0.6,6-0.6,8.1c-0.1,5,0,10.1,0.2,15.1c0,1.2-0.5,4.5,0.6,5.5c1,1,8.4,0.9,9.5,0
			c1.3-1.1,0.7-4.2,0.8-5.7c0.1-4.8,0-9.6-0.1-14.4c0-1.9,0.7-7.1-0.5-8.8c-1.5-2-7.6-1-9.6-0.1c-0.6,0.3-0.1,1.2,0.5,0.9
			C36,5.1,40.5,4.4,42,5.3C43.1,6,42.9,6.7,43,8c0.2,3.2,0.2,6.4,0.3,9.6c0.1,3.5,0.1,7,0,10.4c0,1,0.2,2.7-0.1,3.6
			c-0.5,1.5-1.1,1.3-2.9,1.4c-1.4,0.1-3.4,0.3-4.8-0.1c-1.5-0.4-0.5,0.3-1-1.4c-0.7-2.6-0.2-6-0.3-8.7c-0.1-3.4-0.1-6.8-0.1-10.2
			c0-1.7-0.6-5.6,0.5-7.1C35.1,5,34.2,4.5,33.9,5.1z"/>
	</g>
</g>
<g>
	<path class="st0" d="M48.6,5.6c-0.8,0.4-0.2,27.6,0,27.9c0.3,0.4,8.6-0.5,9-0.8c0.6-0.4,0.8-18.6,0.4-26.6c0-0.5-0.1-1-0.4-1.4
		C57.3,4.2,48.9,5.4,48.6,5.6z"/>
	<g>
		<path d="M48.1,5.3c-1,1.4-0.4,5.4-0.5,7c0,4.5,0,9,0.1,13.6c0,1.5-0.7,6.4,0.3,7.7c1.2,1.5,6.1,0.1,7.7-0.1
			c2.2-0.3,2.2-0.4,2.5-2.6c0.6-5.1,0.4-10.4,0.3-15.5c0-2.2,1.1-9.8-0.9-11.3c-1.6-1.1-7.5,0.5-9.3,0.9c-0.6,0.2-0.4,1.1,0.3,1
			c1.3-0.3,2.6-0.4,3.9-0.6c0.8-0.1,2.1-0.4,2.9-0.3c1.4,0.2,0.9-0.5,1.7,0.9c0.8,1.3,0.4,4.3,0.4,5.8c0,2.3,0,4.5,0,6.8
			c0,3.6,0,7.3-0.2,10.9c0,0.5,0.1,2.4-0.2,2.8c-0.5,0.7-4.3,0.5-5.1,0.6c-2.8,0.2-3,0.8-3.1-2c-0.1-3-0.2-5.9-0.2-8.9
			c-0.1-3.2-0.1-6.5-0.1-9.7c0-1.4-0.6-5.2,0.3-6.5C49.4,5.3,48.5,4.8,48.1,5.3z"/>
	</g>
</g>
<g>
	<path class="st0" d="M64.2,6c-0.6,0.4-0.7,1.2-0.7,1.9C63.4,16,63.4,24,63.5,32c0,0.6,0,1.2,0.5,1.5c0.4,0.3,0.8,0.3,1.3,0.3
		c1.8,0,6.5-0.1,6.9-0.3c1.2-0.5,1.4-2.2,1.4-3.5c-0.1-7-0.1-13.9-0.2-20.9c0-1.1,0-2.2-0.6-3.1S64.6,5.8,64.2,6z"/>
	<g>
		<path d="M63.8,5.8c-2,3-0.8,8.9-0.9,12.4c0,2.8,0,5.6,0,8.3c0,1.7-0.7,4.9,0.1,6.5c1.3,2.4,8.4,2.4,10.2,0.4
			c1.9-2.1,0.7-7.5,0.7-9.9c0-2.8-0.1-5.7-0.1-8.5c0-2.2,0.4-5.3-0.2-7.4c-1-3.6-6.7-2.8-9.6-1.9c-0.6,0.2-0.4,1.1,0.3,1
			c1.2-0.4,2.7-0.3,4-0.3c3.5-0.1,4,1.4,4.5,5c0.4,3,0.1,6.4,0.1,9.5c0,2.7,0.8,6.9,0.1,9.5c-0.8,3-4,4-6.8,3.3
			c-3.4-0.9-2.3-5.1-2.3-7.8c0-3.1,0-6.2,0-9.3c0-2.6-0.8-7.8,0.7-10C65,5.7,64.1,5.2,63.8,5.8z"/>
	</g>
</g>
<g>
	<path class="st0" d="M79.3,5.8c-0.4,0-0.8,0-1.1,0.3c-0.3,0.3-0.3,0.7-0.3,1.1c-0.1,8.4-0.2,16.8-0.2,25.2c0,0.4,0,0.8,0.2,1.1
		c0.3,0.3,8.5,0.9,9,0.6c0.9-0.5,1-1.8,1-2.9c-0.1-8.2-0.1-16.4-0.2-24.6c0-0.4,0-0.9-0.2-1.3C87,4.5,80.5,5.7,79.3,5.8z"/>
	<g>
		<path d="M79.2,5.3c-3,0.8-1.8,5.2-1.8,7.7c0,3.2-0.1,6.5-0.1,9.7c0,2.8-0.9,7.1-0.1,9.7c0.6,1.9,0.2,1.3,2,1.9
			c1.6,0.5,6,1.1,7.6,0.4c1.5-0.6,1.6-1.9,1.7-3.4c0.5-6.2-0.1-12.7-0.1-18.9c0-1.8,1-6.5-1-7.7c-1.8-1.1-6,0.4-8,0.6
			c-0.6,0-0.6,1.1,0,1c1.5-0.1,2.9-0.4,4.3-0.5c4.3-0.4,3.6,4.4,3.6,7.6c0,3.2,0,6.3,0.1,9.5c0,2.2,1.2,9.6-1.2,10.9
			c-0.8,0.5-3.4-0.1-4.3-0.2c-0.7-0.1-1.8,0.1-2.5-0.3c-1.6-0.8-1.1-3.1-1.1-4.8C78.2,26,77.1,6.9,79.4,6.2
			C80.1,6.1,79.8,5.1,79.2,5.3z"/>
	</g>
</g>
<g>
	<path class="st0" d="M95.7,6c-1.6,0.5-1.9,2.7-1.9,4.4c0.1,7.2,0.2,14.3,0.4,21.5c0,0.6,0.1,1.4,0.5,1.8c0.5,0.5,1.3,0.4,1.9,0.3
		c1.9-0.2,3.8-0.4,5.6-0.7c0.3,0,0.7-0.1,1-0.3c0.4-0.3,0.4-1,0.4-1.5c-0.4-7.8-0.1-15.6,0.8-23.3c0.1-0.8,0.1-1.8-0.6-2.2
		c-0.3-0.2-0.7-0.2-1.1-0.2C101.5,5.7,96.6,5.7,95.7,6z"/>
	<g>
		<path d="M95.4,5.5c-1.8,1.1-2,2.8-2.1,4.9c-0.2,5.8,0.2,11.8,0.3,17.6c0,1.7-0.7,5,1,6.2c1.4,1.1,7.6,0.5,8.9-0.7
			c1.5-1.4,0.5-5.1,0.5-6.8c-0.1-5.9,0.4-11.6,0.8-17.5c0.2-2.3,0.3-3.4-2-3.9c-2-0.5-5.2-0.2-7.2,0.2c-0.6,0.1-0.4,1.1,0.3,1
			c1.5-0.3,3.4-0.5,4.9-0.2c3.4,0.6,3.1,2.6,2.8,5.8c-0.5,5.7,0.4,11.9-0.5,17.5c-0.3,2-0.2,2.7-2.6,3.5c-0.7,0.2-3,0.7-3.8,0.4
			c-3.1-0.9-2-6-2.1-8.5c0-2.9-0.1-5.9-0.1-8.8c0-2.5-1.2-8.2,1.5-9.8C96.5,6.1,96,5.2,95.4,5.5z"/>
	</g>
</g>
</svg>
