<?xml version="1.0" encoding="utf-8"?>
<!-- Generator: Adobe Illustrator 22.0.1, SVG Export Plug-In . SVG Version: 6.00 Build 0)  -->
<svg version="1.1" id="Layer_1" xmlns="http://www.w3.org/2000/svg" xmlns:xlink="http://www.w3.org/1999/xlink" x="0px" y="0px"
	 viewBox="0 0 16.2 40" style="enable-background:new 0 0 16.2 40;" xml:space="preserve">
<style type="text/css">
	.st0{fill:#FFFFFF;}
</style>
<g>
	<path class="st0" d="M-56,6c-0.2,0.9-0.4,26.9,0.6,27.8c0.6,0.5,7.1,1.2,7.7,0.8c0.6-0.3,0.9-1,1-1.6c0.6-1.9,0-26.5-0.7-27.5
		S-55.4,4.1-56,6z"/>
	<g>
		<path d="M-56.4,5.9c-1.2,7.4-0.3,15.9,0,23.3c0.1,1.8-0.2,4.1,1.3,5.2c1.7,1.2,7.2,1.5,8.5-0.2c1.5-1.9,0.7-6.4,0.7-8.6
			c0-5.3-0.1-10.6-0.4-15.8c-0.1-1.6,0.2-3.9-1.1-5c-1.8-1.4-7.6-1.2-8.9,0.9c-0.3,0.6,0.5,1.1,0.9,0.5c0.9-1.4,5.5-1.5,6.9-0.8
			c1.2,0.6,0.8,0.6,1.1,1.9c0.7,2.8,0.3,6.1,0.4,8.9c0.1,3.6,0.2,7.1,0.2,10.7c0,2.1,0.8,6.3-1.7,7.2c-0.9,0.4-5-0.2-5.6-0.6
			c-1-0.7-0.9-0.9-1-2.3c-0.3-2.9-0.3-5.9-0.3-8.9c-0.1-5.2-0.7-11.1,0.1-16.3C-55.4,5.5-56.3,5.2-56.4,5.9z"/>
	</g>
</g>
<g>
	<path class="st0" d="M-40.4,5.3c-1,0.8-0.4,27.6,0,28c0.3,0.3,8.8,0.4,9.3-0.1c0.5-0.6,0.2-27.6-0.4-28.1c-0.3-0.3-0.8-0.4-1.2-0.4
		C-34.2,4.4-39.4,4.5-40.4,5.3z"/>
	<g>
		<path d="M-40.8,5.1c-1.2,1.9-0.6,6-0.6,8.1c-0.1,5,0,10.1,0.2,15.1c0,1.2-0.5,4.5,0.6,5.5c1,1,8.4,0.9,9.5,0
			c1.3-1.1,0.7-4.2,0.8-5.7c0.1-4.8,0-9.6-0.1-14.4c0-1.9,0.7-7.1-0.5-8.8c-1.5-2-7.6-1-9.6-0.1c-0.6,0.3-0.1,1.2,0.5,0.9
			c1.4-0.7,5.9-1.4,7.5-0.5c1.1,0.7,0.9,1.3,1,2.7c0.2,3.2,0.2,6.4,0.3,9.6c0.1,3.5,0.1,7,0,10.4c0,1,0.2,2.7-0.1,3.6
			c-0.5,1.5-1.1,1.3-2.9,1.4c-1.4,0.1-3.4,0.3-4.8-0.1c-1.5-0.4-0.5,0.3-1-1.4c-0.7-2.6-0.2-6-0.3-8.7c-0.1-3.4-0.1-6.8-0.1-10.2
			c0-1.7-0.6-5.6,0.5-7.1C-39.6,5-40.5,4.5-40.8,5.1z"/>
	</g>
</g>
<g>
	<path class="st0" d="M-26.1,5.6c-0.8,0.4-0.2,27.6,0,27.9c0.3,0.4,8.6-0.5,9-0.8c0.6-0.4,0.8-18.6,0.4-26.6c0-0.5-0.1-1-0.4-1.4
		C-17.4,4.2-25.8,5.4-26.1,5.6z"/>
	<g>
		<path d="M-26.6,5.3c-1,1.4-0.4,5.4-0.5,7c0,4.5,0,9,0.1,13.6c0,1.5-0.7,6.4,0.3,7.7c1.2,1.5,6.1,0.1,7.7-0.1
			c2.2-0.3,2.2-0.4,2.5-2.6c0.6-5.1,0.4-10.4,0.3-15.5c0-2.2,1.1-9.8-0.9-11.3c-1.6-1.1-7.5,0.5-9.3,0.9c-0.6,0.2-0.4,1.1,0.3,1
			c1.3-0.3,2.6-0.4,3.9-0.6c0.8-0.1,2.1-0.4,2.9-0.3c1.4,0.2,0.9-0.5,1.7,0.9c0.8,1.3,0.4,4.3,0.4,5.8c0,2.3,0,4.5,0,6.8
			c0,3.6,0,7.3-0.2,10.9c0,0.5,0.1,2.4-0.2,2.8c-0.5,0.7-4.3,0.5-5.1,0.6c-2.8,0.2-3,0.8-3.1-2c-0.1-3-0.2-5.9-0.2-8.9
			c-0.1-3.2-0.1-6.5-0.1-9.7c0-1.4-0.6-5.2,0.3-6.5C-25.3,5.3-26.2,4.8-26.6,5.3z"/>
	</g>
</g>
<g>
	<path class="st0" d="M-10.5,6c-0.6,0.4-0.7,1.2-0.7,1.9c-0.1,8-0.2,16.1-0.1,24.1c0,0.6,0,1.2,0.5,1.5c0.4,0.3,0.8,0.3,1.3,0.3
		c1.8,0,6.5-0.1,6.9-0.3c1.2-0.5,1.4-2.2,1.4-3.5c-0.1-7-0.1-13.9-0.2-20.9c0-1.1,0-2.2-0.6-3.1S-10.1,5.8-10.5,6z"/>
	<g>
		<path d="M-10.9,5.8c-2,3-0.8,8.9-0.9,12.4c0,2.8,0,5.6,0,8.3c0,1.7-0.7,4.9,0.1,6.5c1.3,2.4,8.4,2.4,10.2,0.4
			c1.9-2.1,0.7-7.5,0.7-9.9c0-2.8-0.1-5.7-0.1-8.5c0-2.2,0.4-5.3-0.2-7.4c-1-3.6-6.7-2.8-9.6-1.9c-0.6,0.2-0.4,1.1,0.3,1
			c1.2-0.4,2.7-0.3,4-0.3c3.5-0.1,4,1.4,4.5,5c0.4,3,0.1,6.4,0.1,9.5c0,2.7,0.8,6.9,0.1,9.5c-0.8,3-4,4-6.8,3.3
			c-3.4-0.9-2.3-5.1-2.3-7.8c0-3.1,0-6.2,0-9.3c0-2.6-0.8-7.8,0.7-10C-9.7,5.7-10.6,5.2-10.9,5.8z"/>
	</g>
</g>
<g>
	<path class="st0" d="M4.6,5.8c-0.4,0-0.8,0-1.1,0.3C3.3,6.3,3.2,6.7,3.2,7.1C3.2,15.5,3.1,24,3,32.4c0,0.4,0,0.8,0.2,1.1
		c0.3,0.3,8.5,0.9,9,0.6c0.9-0.5,1-1.8,1-2.9c-0.1-8.2-0.1-16.4-0.2-24.6c0-0.4,0-0.9-0.2-1.3C12.3,4.5,5.8,5.7,4.6,5.8z"/>
	<g>
		<path d="M4.5,5.3c-3,0.8-1.8,5.2-1.8,7.7c0,3.2-0.1,6.5-0.1,9.7c0,2.8-0.9,7.1-0.1,9.7c0.6,1.9,0.2,1.3,2,1.9
			c1.6,0.5,6,1.1,7.6,0.4c1.5-0.6,1.6-1.9,1.7-3.4c0.5-6.2-0.1-12.7-0.1-18.9c0-1.8,1-6.5-1-7.7c-1.8-1.1-6,0.4-8,0.6
			c-0.6,0-0.6,1.1,0,1C6.1,6.2,7.5,5.9,9,5.7c4.3-0.4,3.6,4.4,3.6,7.6c0,3.2,0,6.3,0.1,9.5c0,2.2,1.2,9.6-1.2,10.9
			c-0.8,0.5-3.4-0.1-4.3-0.2c-0.7-0.1-1.8,0.1-2.5-0.3c-1.6-0.8-1.1-3.1-1.1-4.8C3.5,26,2.4,6.9,4.7,6.2C5.4,6.1,5.1,5.1,4.5,5.3z"
			/>
	</g>
</g>
<g>
	<path class="st0" d="M19.9,5.3c-1.3,0.4-1.5,2.1-1.5,3.5c0.1,7.7,0.3,15.4,0.4,23.1c0,0.5,0,1,0.4,1.2c0.3,0.2,0.6,0.2,0.9,0.2
		c2.1,0,4.2,0,6.3,0c0.4,0,0.8,0,1.1-0.3c0.3-0.3,0.3-0.7,0.3-1c0-4.7,0.1-9.5,0.1-14.2c0-2.7,0-5.4,0.1-8.1c0-1.3,0-2.7-0.7-3.7
		C26.4,5,21.1,5,19.9,5.3z"/>
	<g>
		<path d="M19.6,4.9c-2.1,1.4-1.8,3.6-1.7,5.9c0.1,5.8,0.2,11.6,0.3,17.4c0,1.4-0.6,4.5,0.9,5.6c1.2,0.9,7.5,0.9,8.7-0.2
			c1.5-1.4,0.5-7.7,0.5-9.4c0-4.9,0.4-10,0.1-14.9C28.1,4.3,24,4,19.8,4.9c-0.6,0.1-0.4,1.1,0.3,1c1.3-0.3,3.8-0.6,5.1,0
			c2.6,1.3,2.3,5.2,2.3,8c0,2.5,0,5.1-0.1,7.6c0,2.4,0.5,5.7-0.1,8c-0.8,3-3.8,4.6-6.8,3c-1.8-1-1.2-2.2-1.3-4.3
			c0-1.3,0-2.6-0.1-3.9c0-2.6-0.1-5.1-0.1-7.7c0-2.3-1.1-9.3,1.1-10.8C20.7,5.4,20.2,4.5,19.6,4.9z"/>
	</g>
</g>
<g>
	<path class="st0" d="M34.8,6c-1.6,0.5-1.9,2.7-1.9,4.4c0.1,7.2,0.2,14.3,0.4,21.5c0,0.6,0.1,1.4,0.5,1.8c0.5,0.5,1.3,0.4,1.9,0.3
		c1.9-0.2,3.8-0.4,5.6-0.7c0.3,0,0.7-0.1,1-0.3c0.4-0.3,0.4-1,0.4-1.5c-0.4-7.8-0.1-15.6,0.8-23.3c0.1-0.8,0.1-1.8-0.6-2.2
		c-0.3-0.2-0.7-0.2-1.1-0.2C40.6,5.7,35.7,5.7,34.8,6z"/>
	<g>
		<path d="M34.5,5.5c-1.8,1.1-2,2.8-2.1,4.9c-0.2,5.8,0.2,11.8,0.3,17.6c0,1.7-0.7,5,1,6.2c1.4,1.1,7.6,0.5,8.9-0.7
			c1.5-1.4,0.5-5.1,0.5-6.8C43,20.8,43.5,15,43.9,9.2c0.2-2.3,0.3-3.4-2-3.9c-2-0.5-5.2-0.2-7.2,0.2c-0.6,0.1-0.4,1.1,0.3,1
			c1.5-0.3,3.4-0.5,4.9-0.2c3.4,0.6,3.1,2.6,2.8,5.8C42.1,17.8,43,24,42.2,29.5c-0.3,2-0.2,2.7-2.6,3.5c-0.7,0.2-3,0.7-3.8,0.4
			c-3.1-0.9-2-6-2.1-8.5c0-2.9-0.1-5.9-0.1-8.8c0-2.5-1.2-8.2,1.5-9.8C35.6,6.1,35.1,5.2,34.5,5.5z"/>
	</g>
</g>
<g>
	<path class="st0" d="M48.6,6.9c-0.7,0.7-0.7,1.7-0.8,2.7c-0.1,3.2-0.2,6.4-0.3,9.6c-0.1,4.4-0.2,8.8-0.4,13.2c0,0.8,0,1.7,0.7,2.1
		c0.3,0.2,7.9,0.2,8.1,0.1c0.2-0.2,0.3-0.5,0.3-0.8c0.2-1.7,0.3-3.5,0.3-5.2c0.1-6.2,0.2-12.3,0.3-18.5c0-1.1,0-2.2-0.6-3.2
		C55.9,6,49.5,6,48.6,6.9z"/>
	<g>
		<path d="M48.2,6.7c-1.9,3.8-1,9.3-1.1,13.5c-0.1,2.8-0.2,5.6-0.2,8.5c0,1.2-0.6,4,0.1,5.2c0.9,1.6,2,1.3,3.7,1.3
			c1.1,0,4.7,0.7,5.7-0.1c1.8-1.4,0.9-6.4,0.9-8.3c0.1-5.7,0.9-11.8,0.3-17.5C57,5,51.8,4.5,48.4,6.5c-0.6,0.3-0.1,1.2,0.5,0.9
			C50,6.7,54.2,6.1,55.4,7c2.2,1.5,1,8.2,1,10.5c-0.1,3.1-0.1,6.2-0.2,9.3c0,1.7,0.1,3.7-0.2,5.3c-0.3,1.7-0.4,1.7-1.7,2.2
			c-1,0.3-3.6,0.2-4.6,0c-2.8-0.8-2-3.9-1.9-6.5c0.1-3.1,0.2-6.3,0.3-9.4c0.1-3.2-0.5-8.2,0.9-11.1C49.4,6.6,48.5,6.1,48.2,6.7z"/>
	</g>
</g>
<g>
	<path class="st0" d="M62.9,5.9c-0.4,0-0.7,0.1-1.1,0.3c-0.6,0.4-0.9,26.8-0.4,27.2c0.4,0.3,8.2,0.2,8.5-0.1
		c0.3-0.3,0.4-0.7,0.5-1.1c0.3-2.1,0-18.9-0.2-25.1c0-0.5,0-0.9-0.3-1.3C69.8,5.3,64.3,5.8,62.9,5.9z"/>
	<g>
		<path d="M62.8,5.4c-2,0.5-1.6,1.7-1.8,3.7c-0.2,4.2-0.3,8.4-0.3,12.7c0,3-0.9,7.8,0.1,10.8c0.6,1.9,1,1.5,3.4,1.5
			c2.5,0,5.8,1,6.7-1.8c1.1-3.3,0.1-8.4,0.1-11.7c0-2.8-0.1-5.6-0.1-8.4c0-1.6,0.5-4.5-0.3-5.9c-1.3-2.4-5.3-1.1-7.8-0.9
			c-0.6,0.1-0.6,1.1,0,1c1.4-0.1,3.1-0.4,4.5-0.3c2.2,0.2,2.2,0.7,2.5,3c0.4,3.5,0.1,7.3,0.2,10.8c0,3.4,0.4,6.9,0,10.3
			c-0.3,3.5-2.8,2.8-5.9,2.8c-2.8,0-2.4-0.7-2.5-3.3c-0.1-2.8,0-5.7,0-8.5c0-2.2-0.9-14.3,1.3-14.9C63.7,6.2,63.4,5.2,62.8,5.4z"/>
	</g>
</g>
<g>
	<path class="st0" d="M77.7,7.2c-0.3,0.5-0.3,1-0.3,1.6c0.1,7.7,0.2,15.4,0.4,23.1c0,0.2,0,0.5,0.2,0.7c0.2,0.2,0.5,0.3,0.8,0.3
		c2.1,0.3,4.3,0.5,6.4,0.6c0.4,0,0.8,0,1.1-0.2c0.8-0.4,0.9-1.5,0.8-2.3c-0.2-7.9-0.3-15.8-0.5-23.7c0-0.4,0-0.9-0.4-1.1
		C86.1,6,85.7,6,85.4,6C84.4,6,78.5,5.9,77.7,7.2z"/>
	<g>
		<path d="M77.2,7c-0.8,4.6-0.2,9.6-0.1,14.2c0,2.9,0.1,5.8,0.2,8.7c0,0.5-0.2,2.3,0.3,2.9c1.2,1.3,5.3,1.1,6.8,1.1
			c2.1,0,2.7-0.2,3.2-2.3c0.5-2.3,0-5.3-0.1-7.6c-0.1-3-0.1-5.9-0.2-8.9c0-2,1-7.8-0.6-9.3c-1.6-1.5-7.8-0.4-9.4,0.9
			C76.8,7.2,77.5,8,78,7.5c1.2-1,3.9-1.1,5.4-1c2.3,0.2,2.4,0.4,2.7,2.7c0.8,5.4,0.2,11.3,0.3,16.8c0.1,3.1,0.6,6.9-3.8,6.8
			c-1.9-0.1-4-2.3-4.5-3.9c-0.3-1.1,0-2.7-0.1-3.9c-0.1-5.7-1-12.2,0-17.8C78.3,6.7,77.3,6.4,77.2,7z"/>
	</g>
</g>
<g>
	<path class="st0" d="M93.8,6c-0.5,0.6-0.5,1.3-0.6,2.1c-0.2,4.5,0,20.5,0.1,25c2.5,0.5,5.1,0.5,7.5-0.1c0.4-0.1,0.7-0.2,1-0.5
		c0.3-0.3,0.5-19.6,0.5-26.6C102.4,5.3,95,4.7,93.8,6z"/>
	<g>
		<path d="M93.4,5.7c-1.6,3.4-0.7,8.6-0.7,12.3c0,5,0.1,10,0.2,15c0,0.2,0.2,0.5,0.4,0.5c2.8,0.4,8,1.4,9.2-1.7
			c0.6-1.6,0.2-4.4,0.2-6.2c0.1-2.9,0.1-5.9,0.1-8.8c0-2.2,1.4-9.8-0.3-11.5c-1.5-1.5-7.4-1-9,0.1c-0.5,0.4,0,1.2,0.5,0.9
			c1.6-1.1,6.9-1.2,7.8,0.3c0.7,1.2,0,5.8,0,7.2c-0.1,5.4-0.1,10.9-0.3,16.3c0,0.5,0.1,1.6-0.1,2c-2,0.8-4,0.9-5.9,0.5
			c-1.3,0.4-1.9,0-1.7-1c-1-1.7-0.1-6.6-0.1-8.6c0-2.9,0-5.8,0-8.7c0-2.5-0.5-5.8,0.6-8.1C94.5,5.7,93.7,5.1,93.4,5.7z"/>
	</g>
</g>
<g>
	<path class="st0" d="M108.5,6.2c-0.4,1.1-0.8,26.8-0.1,27.2c0.3,0.1,0.5,0.1,0.8,0.1c1.8-0.2,5.2,0.1,7-0.1c0.4,0,0.9-0.1,1.2-0.3
		c0.6-0.4,0.4-26.5,0-27.3C117,5,108.9,5.1,108.5,6.2z"/>
	<g>
		<path d="M108,6.1c-0.6,3-0.4,6.4-0.4,9.5c-0.1,4.7-0.2,9.4,0,14.1c0,1.4-0.2,3.3,0.9,4.2c1.1,0.9,8.6,0.5,9.6-1
			c1.2-1.8,0.3-7.4,0.3-9.5c0-4.6,0-9.3-0.1-13.9c0-1.4,0.4-3.5-0.8-4.4c-1.6-1.1-7.8-0.8-9.2,0.7c-0.4,0.5,0.3,1.2,0.7,0.7
			c1.1-1.2,4.6-0.9,6-0.8c2.2,0.1,1.7-0.1,2.2,1.3c0.7,2.1,0.2,5.3,0.2,7.5c0,3.6,0.1,7.2,0,10.7c0,1.4,0.7,5.9-0.2,7.1
			c-0.8,1.1-4.8,0.4-6.2,0.5c-2.3,0.1-1.6,0.3-2.2-1.3c-0.9-2.2-0.1-6.2-0.1-8.5c0-5.3-0.7-11.5,0.5-16.8
			C109.1,5.7,108.1,5.5,108,6.1z"/>
	</g>
</g>
<g>
	<path class="st0" d="M122.9,6c-0.4,0.5,0.1,18.4,0.7,27.4c1.9-0.4,8.3-0.1,8.9-0.8c0.7-0.8,1-19.3,0.7-26.8
		C133.2,5.2,123.7,4.8,122.9,6z"/>
	<g>
		<path d="M122.4,5.9c-0.9,2.9-0.1,7-0.1,10c0.1,5.8,0.3,11.7,0.7,17.5c0,0.4,0.3,0.5,0.6,0.5c2.7-0.4,8.1,1,9.4-1.8
			c0.7-1.4,0.3-3.9,0.4-5.3c0.1-3.3,0.2-6.7,0.2-10c0-2.3,1.3-10-0.6-11.6c-1.6-1.3-8.9-0.9-10.6,0.4c-0.5,0.4,0,1.3,0.5,0.9
			c1.6-1.2,6.1-1,8-0.6c1.9,0.4,1.6,0.7,1.6,2.7c0.1,1.5,0,3,0,4.5c0,3.5,0,7-0.1,10.5c-0.1,1.8,0.6,6.5-0.5,8.2
			c-0.5,0.8-7.1,2.1-8.1,1.2c-1.1-0.9-0.5-8.4-0.5-9.7c-0.1-3.6-0.2-7.1-0.3-10.7c0-1.9-0.5-4.4,0.1-6.3
			C123.6,5.5,122.6,5.2,122.4,5.9z"/>
	</g>
</g>
<g>
	<path class="st0" d="M138.2,6.1c-0.2,0.3-0.3,0.8-0.3,1.2c-0.4,3.8-0.7,22.8-0.2,25.6c0.1,0.3,0.1,0.6,0.4,0.9
		c0.3,0.3,8.8,0.1,8.8-0.9c0.6-7.5,1-18.2,0.4-25.7c0-0.6-0.1-1.2-0.4-1.8C146.6,4.8,139.1,4.8,138.2,6.1z"/>
	<g>
		<path d="M137.7,5.9c-1.9,6.9-0.9,15.4-0.7,22.5c0,1.3-0.4,4.7,0.9,5.7c1.2,1,6.3,0.2,7.6-0.2c3-0.8,2.1-3.1,2.3-6.1
			c0.4-6.2,0.5-12.5,0.2-18.7c-0.1-2.5,0.2-3.9-2.1-4.6c-2-0.6-6.4-0.3-8.1,1.1c-0.5,0.4,0.2,1.1,0.7,0.7c1.8-1.5,7.3-1.7,8.3,0.7
			c1.1,2.5,0.3,7.8,0.3,10.4c0,4,0.3,8.6-0.5,12.5c-0.4,2.1-0.4,2.4-2.6,3.1c-0.9,0.3-2.9,0.4-3.9,0.2c-1.6-0.4-1.5,0.1-2.1-1.8
			c-0.2-0.6-0.1-1.6-0.1-2.2c-0.1-2.8-0.1-5.6,0-8.3c0-4.7-0.5-10.2,0.7-14.8C138.9,5.6,137.9,5.3,137.7,5.9z"/>
	</g>
</g>
<g>
	<path class="st0" d="M153.9,6c-0.2,0.9-0.4,26.9,0.6,27.8c0.6,0.5,7.1,1.2,7.7,0.8c0.6-0.3,0.9-1,1-1.6c0.6-1.9,0-26.5-0.7-27.5
		C161.9,4.5,154.5,4.1,153.9,6z"/>
	<g>
		<path d="M153.5,5.9c-1.2,7.4-0.3,15.9,0,23.3c0.1,1.8-0.2,4.1,1.3,5.2c1.7,1.2,7.2,1.5,8.5-0.2c1.5-1.9,0.7-6.4,0.7-8.6
			c0-5.3-0.1-10.6-0.4-15.8c-0.1-1.6,0.2-3.9-1.1-5c-1.8-1.4-7.6-1.2-8.9,0.9c-0.3,0.6,0.5,1.1,0.9,0.5c0.9-1.4,5.5-1.5,6.9-0.8
			c1.2,0.6,0.8,0.6,1.1,1.9c0.7,2.8,0.3,6.1,0.4,8.9c0.1,3.6,0.2,7.1,0.2,10.7c0,2.1,0.8,6.3-1.7,7.2c-0.9,0.4-5-0.2-5.6-0.6
			c-1-0.7-0.9-0.9-1-2.3c-0.3-2.9-0.3-5.9-0.3-8.9c-0.1-5.2-0.7-11.1,0.1-16.3C154.5,5.5,153.6,5.2,153.5,5.9z"/>
	</g>
</g>
<g>
	<path class="st0" d="M169.5,5.3c-1,0.8-0.4,27.6,0,28c0.3,0.3,8.8,0.4,9.3-0.1c0.5-0.6,0.2-27.6-0.4-28.1c-0.3-0.3-0.8-0.4-1.2-0.4
		C175.7,4.4,170.5,4.5,169.5,5.3z"/>
	<g>
		<path d="M169.1,5.1c-1.2,1.9-0.6,6-0.6,8.1c-0.1,5,0,10.1,0.2,15.1c0,1.2-0.5,4.5,0.6,5.5c1,1,8.4,0.9,9.5,0
			c1.3-1.1,0.7-4.2,0.8-5.7c0.1-4.8,0-9.6-0.1-14.4c0-1.9,0.7-7.1-0.5-8.8c-1.5-2-7.6-1-9.6-0.1c-0.6,0.3-0.1,1.2,0.5,0.9
			c1.4-0.7,5.9-1.4,7.5-0.5c1.1,0.7,0.9,1.3,1,2.7c0.2,3.2,0.2,6.4,0.3,9.6c0.1,3.5,0.1,7,0,10.4c0,1,0.2,2.7-0.1,3.6
			c-0.5,1.5-1.1,1.3-2.9,1.4c-1.4,0.1-3.4,0.3-4.8-0.1c-1.5-0.4-0.5,0.3-1-1.4c-0.7-2.6-0.2-6-0.3-8.7c-0.1-3.4-0.1-6.8-0.1-10.2
			c0-1.7-0.6-5.6,0.5-7.1C170.3,5,169.4,4.5,169.1,5.1z"/>
	</g>
</g>
<g>
	<path class="st0" d="M183.8,5.6c-0.8,0.4-0.2,27.6,0,27.9c0.3,0.4,8.6-0.5,9-0.8c0.6-0.4,0.8-18.6,0.4-26.6c0-0.5-0.1-1-0.4-1.4
		C192.5,4.2,184.1,5.4,183.8,5.6z"/>
	<g>
		<path d="M183.3,5.3c-1,1.4-0.4,5.4-0.5,7c0,4.5,0,9,0.1,13.6c0,1.5-0.7,6.4,0.3,7.7c1.2,1.5,6.1,0.1,7.7-0.1
			c2.2-0.3,2.2-0.4,2.5-2.6c0.6-5.1,0.4-10.4,0.3-15.5c0-2.2,1.1-9.8-0.9-11.3c-1.6-1.1-7.5,0.5-9.3,0.9c-0.6,0.2-0.4,1.1,0.3,1
			c1.3-0.3,2.6-0.4,3.9-0.6c0.8-0.1,2.1-0.4,2.9-0.3c1.4,0.2,0.9-0.5,1.7,0.9c0.8,1.3,0.4,4.3,0.4,5.8c0,2.3,0,4.5,0,6.8
			c0,3.6,0,7.3-0.2,10.9c0,0.5,0.1,2.4-0.2,2.8c-0.5,0.7-4.3,0.5-5.1,0.6c-2.8,0.2-3,0.8-3.1-2c-0.1-3-0.2-5.9-0.2-8.9
			c-0.1-3.2-0.1-6.5-0.1-9.7c0-1.4-0.6-5.2,0.3-6.5C184.6,5.3,183.7,4.8,183.3,5.3z"/>
	</g>
</g>
<g>
	<path class="st0" d="M199.4,6c-0.6,0.4-0.7,1.2-0.7,1.9c-0.1,8-0.2,16.1-0.1,24.1c0,0.6,0,1.2,0.5,1.5c0.4,0.3,0.8,0.3,1.3,0.3
		c1.8,0,6.5-0.1,6.9-0.3c1.2-0.5,1.4-2.2,1.4-3.5c-0.1-7-0.1-13.9-0.2-20.9c0-1.1,0-2.2-0.6-3.1S199.8,5.8,199.4,6z"/>
	<g>
		<path d="M199,5.8c-2,3-0.8,8.9-0.9,12.4c0,2.8,0,5.6,0,8.3c0,1.7-0.7,4.9,0.1,6.5c1.3,2.4,8.4,2.4,10.2,0.4
			c1.9-2.1,0.7-7.5,0.7-9.9c0-2.8-0.1-5.7-0.1-8.5c0-2.2,0.4-5.3-0.2-7.4c-1-3.6-6.7-2.8-9.6-1.9c-0.6,0.2-0.4,1.1,0.3,1
			c1.2-0.4,2.7-0.3,4-0.3c3.5-0.1,4,1.4,4.5,5c0.4,3,0.1,6.4,0.1,9.5c0,2.7,0.8,6.9,0.1,9.5c-0.8,3-4,4-6.8,3.3
			c-3.4-0.9-2.3-5.1-2.3-7.8c0-3.1,0-6.2,0-9.3c0-2.6-0.8-7.8,0.7-10C200.2,5.7,199.3,5.2,199,5.8z"/>
	</g>
</g>
<g>
	<path class="st0" d="M214.5,5.8c-0.4,0-0.8,0-1.1,0.3c-0.3,0.3-0.3,0.7-0.3,1.1c-0.1,8.4-0.2,16.8-0.2,25.2c0,0.4,0,0.8,0.2,1.1
		c0.3,0.3,8.5,0.9,9,0.6c0.9-0.5,1-1.8,1-2.9c-0.1-8.2-0.1-16.4-0.2-24.6c0-0.4,0-0.9-0.2-1.3C222.2,4.5,215.7,5.7,214.5,5.8z"/>
	<g>
		<path d="M214.4,5.3c-3,0.8-1.8,5.2-1.8,7.7c0,3.2-0.1,6.5-0.1,9.7c0,2.8-0.9,7.1-0.1,9.7c0.6,1.9,0.2,1.3,2,1.9
			c1.6,0.5,6,1.1,7.6,0.4c1.5-0.6,1.6-1.9,1.7-3.4c0.5-6.2-0.1-12.7-0.1-18.9c0-1.8,1-6.5-1-7.7c-1.8-1.1-6,0.4-8,0.6
			c-0.6,0-0.6,1.1,0,1c1.5-0.1,2.9-0.4,4.3-0.5c4.3-0.4,3.6,4.4,3.6,7.6c0,3.2,0,6.3,0.1,9.5c0,2.2,1.2,9.6-1.2,10.9
			c-0.8,0.5-3.4-0.1-4.3-0.2c-0.7-0.1-1.8,0.1-2.5-0.3c-1.6-0.8-1.1-3.1-1.1-4.8c-0.1-2.4-1.1-21.6,1.2-22.2
			C215.3,6.1,215,5.1,214.4,5.3z"/>
	</g>
</g>
<g>
	<path class="st0" d="M230.9,6c-1.6,0.5-1.9,2.7-1.9,4.4c0.1,7.2,0.2,14.3,0.4,21.5c0,0.6,0.1,1.4,0.5,1.8c0.5,0.5,1.3,0.4,1.9,0.3
		c1.9-0.2,3.8-0.4,5.6-0.7c0.3,0,0.7-0.1,1-0.3c0.4-0.3,0.4-1,0.4-1.5c-0.4-7.8-0.1-15.6,0.8-23.3c0.1-0.8,0.1-1.8-0.6-2.2
		c-0.3-0.2-0.7-0.2-1.1-0.2C236.7,5.7,231.8,5.7,230.9,6z"/>
	<g>
		<path d="M230.6,5.5c-1.8,1.1-2,2.8-2.1,4.9c-0.2,5.8,0.2,11.8,0.3,17.6c0,1.7-0.7,5,1,6.2c1.4,1.1,7.6,0.5,8.9-0.7
			c1.5-1.4,0.5-5.1,0.5-6.8c-0.1-5.9,0.4-11.6,0.8-17.5c0.2-2.3,0.3-3.4-2-3.9c-2-0.5-5.2-0.2-7.2,0.2c-0.6,0.1-0.4,1.1,0.3,1
			c1.5-0.3,3.4-0.5,4.9-0.2c3.4,0.6,3.1,2.6,2.8,5.8c-0.5,5.7,0.4,11.9-0.5,17.5c-0.3,2-0.2,2.7-2.6,3.5c-0.7,0.2-3,0.7-3.8,0.4
			c-3.1-0.9-2-6-2.1-8.5c0-2.9-0.1-5.9-0.1-8.8c0-2.5-1.2-8.2,1.5-9.8C231.7,6.1,231.2,5.2,230.6,5.5z"/>
	</g>
</g>
</svg>
