<?xml version="1.0" encoding="utf-8"?>
<!-- Generator: Adobe Illustrator 22.0.1, SVG Export Plug-In . SVG Version: 6.00 Build 0)  -->
<svg version="1.1" id="Layer_1" xmlns="http://www.w3.org/2000/svg" xmlns:xlink="http://www.w3.org/1999/xlink" x="0px" y="0px"
	 viewBox="0 0 16.4 40" style="enable-background:new 0 0 16.4 40;" xml:space="preserve">
<style type="text/css">
	.st0{fill:#FFFFFF;}
</style>
<g>
	<path class="st0" d="M3.3,6C3,6.9,2.9,32.9,3.9,33.8c0.6,0.5,7.1,1.2,7.7,0.8c0.6-0.3,0.9-1,1-1.6c0.6-1.9,0-26.5-0.7-27.5
		C11.2,4.5,3.8,4.1,3.3,6z"/>
	<g>
		<path d="M2.8,5.9c-1.2,7.4-0.3,15.9,0,23.3c0.1,1.8-0.2,4.1,1.3,5.2c1.7,1.2,7.2,1.5,8.5-0.2c1.5-1.9,0.7-6.4,0.7-8.6
			c0-5.3-0.1-10.6-0.4-15.8c-0.1-1.6,0.2-3.9-1.1-5C9.9,3.4,4.2,3.7,2.9,5.7C2.5,6.3,3.4,6.8,3.7,6.3c0.9-1.4,5.5-1.5,6.9-0.8
			c1.2,0.6,0.8,0.6,1.1,1.9c0.7,2.8,0.3,6.1,0.4,8.9c0.1,3.6,0.2,7.1,0.2,10.7c0,2.1,0.8,6.3-1.7,7.2c-0.9,0.4-5-0.2-5.6-0.6
			c-1-0.7-0.9-0.9-1-2.3c-0.3-2.9-0.3-5.9-0.3-8.9C3.6,17.2,2.9,11.3,3.8,6.1C3.9,5.5,2.9,5.2,2.8,5.9z"/>
	</g>
</g>
<g>
	<path class="st0" d="M18.9,5.3c-1,0.8-0.4,27.6,0,28c0.3,0.3,8.8,0.4,9.3-0.1c0.5-0.6,0.2-27.6-0.4-28.1c-0.3-0.3-0.8-0.4-1.2-0.4
		C25,4.4,19.9,4.5,18.9,5.3z"/>
	<g>
		<path d="M18.4,5.1c-1.2,1.9-0.6,6-0.6,8.1c-0.1,5,0,10.1,0.2,15.1c0,1.2-0.5,4.5,0.6,5.5c1,1,8.4,0.9,9.5,0
			c1.3-1.1,0.7-4.2,0.8-5.7c0.1-4.8,0-9.6-0.1-14.4c0-1.9,0.7-7.1-0.5-8.8c-1.5-2-7.6-1-9.6-0.1c-0.6,0.3-0.1,1.2,0.5,0.9
			c1.4-0.7,5.9-1.4,7.5-0.5c1.1,0.7,0.9,1.3,1,2.7c0.2,3.2,0.2,6.4,0.3,9.6c0.1,3.5,0.1,7,0,10.4c0,1,0.2,2.7-0.1,3.6
			c-0.5,1.5-1.1,1.3-2.9,1.4c-1.4,0.1-3.4,0.3-4.8-0.1c-1.5-0.4-0.5,0.3-1-1.4c-0.7-2.6-0.2-6-0.3-8.7c-0.1-3.4-0.1-6.8-0.1-10.2
			c0-1.7-0.6-5.6,0.5-7.1C19.7,5,18.8,4.5,18.4,5.1z"/>
	</g>
</g>
<g>
	<path class="st0" d="M33.1,5.6c-0.8,0.4-0.2,27.6,0,27.9c0.3,0.4,8.6-0.5,9-0.8c0.6-0.4,0.8-18.6,0.4-26.6c0-0.5-0.1-1-0.4-1.4
		C41.8,4.2,33.4,5.4,33.1,5.6z"/>
	<g>
		<path d="M32.7,5.3c-1,1.4-0.4,5.4-0.5,7c0,4.5,0,9,0.1,13.6c0,1.5-0.7,6.4,0.3,7.7c1.2,1.5,6.1,0.1,7.7-0.1
			c2.2-0.3,2.2-0.4,2.5-2.6c0.6-5.1,0.4-10.4,0.3-15.5c0-2.2,1.1-9.8-0.9-11.3C40.7,3,34.8,4.6,33,5.1c-0.6,0.2-0.4,1.1,0.3,1
			c1.3-0.3,2.6-0.4,3.9-0.6C37.9,5.3,39.3,5,40,5.1c1.4,0.2,0.9-0.5,1.7,0.9c0.8,1.3,0.4,4.3,0.4,5.8c0,2.3,0,4.5,0,6.8
			c0,3.6,0,7.3-0.2,10.9c0,0.5,0.1,2.4-0.2,2.8c-0.5,0.7-4.3,0.5-5.1,0.6c-2.8,0.2-3,0.8-3.1-2c-0.1-3-0.2-5.9-0.2-8.9
			c-0.1-3.2-0.1-6.5-0.1-9.7c0-1.4-0.6-5.2,0.3-6.5C33.9,5.3,33,4.8,32.7,5.3z"/>
	</g>
</g>
<g>
	<path class="st0" d="M48.7,6c-0.6,0.4-0.7,1.2-0.7,1.9C47.9,16,47.9,24,48,32c0,0.6,0,1.2,0.5,1.5c0.4,0.3,0.8,0.3,1.3,0.3
		c1.8,0,6.5-0.1,6.9-0.3c1.2-0.5,1.4-2.2,1.4-3.5c-0.1-7-0.1-13.9-0.2-20.9c0-1.1,0-2.2-0.6-3.1C56.6,5.3,49.1,5.8,48.7,6z"/>
	<g>
		<path d="M48.3,5.8c-2,3-0.8,8.9-0.9,12.4c0,2.8,0,5.6,0,8.3c0,1.7-0.7,4.9,0.1,6.5c1.3,2.4,8.4,2.4,10.2,0.4
			c1.9-2.1,0.7-7.5,0.7-9.9c0-2.8-0.1-5.7-0.1-8.5c0-2.2,0.4-5.3-0.2-7.4c-1-3.6-6.7-2.8-9.6-1.9c-0.6,0.2-0.4,1.1,0.3,1
			c1.2-0.4,2.7-0.3,4-0.3c3.5-0.1,4,1.4,4.5,5c0.4,3,0.1,6.4,0.1,9.5c0,2.7,0.8,6.9,0.1,9.5c-0.8,3-4,4-6.8,3.3
			c-3.4-0.9-2.3-5.1-2.3-7.8c0-3.1,0-6.2,0-9.3c0-2.6-0.8-7.8,0.7-10C49.5,5.7,48.7,5.2,48.3,5.8z"/>
	</g>
</g>
<g>
	<path class="st0" d="M63.9,5.8c-0.4,0-0.8,0-1.1,0.3c-0.3,0.3-0.3,0.7-0.3,1.1c-0.1,8.4-0.2,16.8-0.2,25.2c0,0.4,0,0.8,0.2,1.1
		c0.3,0.3,8.5,0.9,9,0.6c0.9-0.5,1-1.8,1-2.9c-0.1-8.2-0.1-16.4-0.2-24.6c0-0.4,0-0.9-0.2-1.3C71.5,4.5,65,5.7,63.9,5.8z"/>
	<g>
		<path d="M63.7,5.3c-3,0.8-1.8,5.2-1.8,7.7c0,3.2-0.1,6.5-0.1,9.7c0,2.8-0.9,7.1-0.1,9.7c0.6,1.9,0.2,1.3,2,1.9
			c1.6,0.5,6,1.1,7.6,0.4c1.5-0.6,1.6-1.9,1.7-3.4c0.5-6.2-0.1-12.7-0.1-18.9c0-1.8,1-6.5-1-7.7c-1.8-1.1-6,0.4-8,0.6
			c-0.6,0-0.6,1.1,0,1c1.5-0.1,2.9-0.4,4.3-0.5c4.3-0.4,3.6,4.4,3.6,7.6c0,3.2,0,6.3,0.1,9.5c0,2.2,1.2,9.6-1.2,10.9
			c-0.8,0.5-3.4-0.1-4.3-0.2c-0.7-0.1-1.8,0.1-2.5-0.3c-1.6-0.8-1.1-3.1-1.1-4.8C62.7,26,61.7,6.9,64,6.2
			C64.6,6.1,64.4,5.1,63.7,5.3z"/>
	</g>
</g>
<g>
	<path class="st0" d="M79.1,5.3c-1.3,0.4-1.5,2.1-1.5,3.5c0.1,7.7,0.3,15.4,0.4,23.1c0,0.5,0,1,0.4,1.2c0.3,0.2,0.6,0.2,0.9,0.2
		c2.1,0,4.2,0,6.3,0c0.4,0,0.8,0,1.1-0.3c0.3-0.3,0.3-0.7,0.3-1c0-4.7,0.1-9.5,0.1-14.2c0-2.7,0-5.4,0.1-8.1c0-1.3,0-2.7-0.7-3.7
		C85.7,5,80.4,5,79.1,5.3z"/>
	<g>
		<path d="M78.9,4.9c-2.1,1.4-1.8,3.6-1.7,5.9c0.1,5.8,0.2,11.6,0.3,17.4c0,1.4-0.6,4.5,0.9,5.6c1.2,0.9,7.5,0.9,8.7-0.2
			c1.5-1.4,0.5-7.7,0.5-9.4c0-4.9,0.4-10,0.1-14.9C87.4,4.3,83.3,4,79,4.9c-0.6,0.1-0.4,1.1,0.3,1c1.3-0.3,3.8-0.6,5.1,0
			c2.6,1.3,2.3,5.2,2.3,8c0,2.5,0,5.1-0.1,7.6c0,2.4,0.5,5.7-0.1,8c-0.8,3-3.8,4.6-6.8,3c-1.8-1-1.2-2.2-1.3-4.3
			c0-1.3,0-2.6-0.1-3.9c0-2.6-0.1-5.1-0.1-7.7c0-2.3-1.1-9.3,1.1-10.8C79.9,5.4,79.4,4.5,78.9,4.9z"/>
	</g>
</g>
<g>
	<path class="st0" d="M94,6c-1.6,0.5-1.9,2.7-1.9,4.4c0.1,7.2,0.2,14.3,0.4,21.5c0,0.6,0.1,1.4,0.5,1.8c0.5,0.5,1.3,0.4,1.9,0.3
		c1.9-0.2,3.8-0.4,5.6-0.7c0.3,0,0.7-0.1,1-0.3c0.4-0.3,0.4-1,0.4-1.5c-0.4-7.8-0.1-15.6,0.8-23.3c0.1-0.8,0.1-1.8-0.6-2.2
		c-0.3-0.2-0.7-0.2-1.1-0.2C99.8,5.7,94.9,5.7,94,6z"/>
	<g>
		<path d="M93.8,5.5c-1.8,1.1-2,2.8-2.1,4.9C91.4,16.2,91.9,22.1,92,28c0,1.7-0.7,5,1,6.2c1.4,1.1,7.6,0.5,8.9-0.7
			c1.5-1.4,0.5-5.1,0.5-6.8c-0.1-5.9,0.4-11.6,0.8-17.5c0.2-2.3,0.3-3.4-2-3.9c-2-0.5-5.2-0.2-7.2,0.2c-0.6,0.1-0.4,1.1,0.3,1
			c1.5-0.3,3.4-0.5,4.9-0.2c3.4,0.6,3.1,2.6,2.8,5.8c-0.5,5.7,0.4,11.9-0.5,17.5c-0.3,2-0.2,2.7-2.6,3.5c-0.7,0.2-3,0.7-3.8,0.4
			c-3.1-0.9-2-6-2.1-8.5c0-2.9-0.1-5.9-0.1-8.8c0-2.5-1.2-8.2,1.5-9.8C94.8,6.1,94.3,5.2,93.8,5.5z"/>
	</g>
</g>
<g>
	<path class="st0" d="M107.9,6.9c-0.7,0.7-0.7,1.7-0.8,2.7c-0.1,3.2-0.2,6.4-0.3,9.6c-0.1,4.4-0.2,8.8-0.4,13.2c0,0.8,0,1.7,0.7,2.1
		c0.3,0.2,7.9,0.2,8.1,0.1c0.2-0.2,0.3-0.5,0.3-0.8c0.2-1.7,0.3-3.5,0.3-5.2c0.1-6.2,0.2-12.3,0.3-18.5c0-1.1,0-2.2-0.6-3.2
		C115.2,6,108.8,6,107.9,6.9z"/>
	<g>
		<path d="M107.4,6.7c-1.9,3.8-1,9.3-1.1,13.5c-0.1,2.8-0.2,5.6-0.2,8.5c0,1.2-0.6,4,0.1,5.2c0.9,1.6,2,1.3,3.7,1.3
			c1.1,0,4.7,0.7,5.7-0.1c1.8-1.4,0.9-6.4,0.9-8.3c0.1-5.7,0.9-11.8,0.3-17.5c-0.5-4.3-5.7-4.7-9.1-2.7c-0.6,0.3-0.1,1.2,0.5,0.9
			c1.1-0.7,5.3-1.2,6.5-0.4c2.2,1.5,1,8.2,1,10.5c-0.1,3.1-0.1,6.2-0.2,9.3c0,1.7,0.1,3.7-0.2,5.3c-0.3,1.7-0.4,1.7-1.7,2.2
			c-1,0.3-3.6,0.2-4.6,0c-2.8-0.8-2-3.9-1.9-6.5c0.1-3.1,0.2-6.3,0.3-9.4c0.1-3.2-0.5-8.2,0.9-11.1C108.6,6.6,107.7,6.1,107.4,6.7z"
			/>
	</g>
</g>
<g>
	<path class="st0" d="M122.1,5.9c-0.4,0-0.7,0.1-1.1,0.3c-0.6,0.4-0.9,26.8-0.4,27.2c0.4,0.3,8.2,0.2,8.5-0.1
		c0.3-0.3,0.4-0.7,0.5-1.1c0.3-2.1,0-18.9-0.2-25.1c0-0.5,0-0.9-0.3-1.3C129,5.3,123.5,5.8,122.1,5.9z"/>
	<g>
		<path d="M122,5.4c-2,0.5-1.6,1.7-1.8,3.7c-0.2,4.2-0.3,8.4-0.3,12.7c0,3-0.9,7.8,0.1,10.8c0.6,1.9,1,1.5,3.4,1.5
			c2.5,0,5.8,1,6.7-1.8c1.1-3.3,0.1-8.4,0.1-11.7c0-2.8-0.1-5.6-0.1-8.4c0-1.6,0.5-4.5-0.3-5.9c-1.3-2.4-5.3-1.1-7.8-0.9
			c-0.6,0.1-0.6,1.1,0,1c1.4-0.1,3.1-0.4,4.5-0.3c2.2,0.2,2.2,0.7,2.5,3c0.4,3.5,0.1,7.3,0.2,10.8c0,3.4,0.4,6.9,0,10.3
			c-0.3,3.5-2.8,2.8-5.9,2.8c-2.8,0-2.4-0.7-2.5-3.3c-0.1-2.8,0-5.7,0-8.5c0-2.2-0.9-14.3,1.3-14.9C122.9,6.2,122.6,5.2,122,5.4z"/>
	</g>
</g>
<g>
	<path class="st0" d="M136.9,7.2c-0.3,0.5-0.3,1-0.3,1.6c0.1,7.7,0.2,15.4,0.4,23.1c0,0.2,0,0.5,0.2,0.7c0.2,0.2,0.5,0.3,0.8,0.3
		c2.1,0.3,4.3,0.5,6.4,0.6c0.4,0,0.8,0,1.1-0.2c0.8-0.4,0.9-1.5,0.8-2.3c-0.2-7.9-0.3-15.8-0.5-23.7c0-0.4,0-0.9-0.4-1.1
		C145.3,6,145,6,144.7,6C143.6,6,137.7,5.9,136.9,7.2z"/>
	<g>
		<path d="M136.4,7c-0.8,4.6-0.2,9.6-0.1,14.2c0,2.9,0.1,5.8,0.2,8.7c0,0.5-0.2,2.3,0.3,2.9c1.2,1.3,5.3,1.1,6.8,1.1
			c2.1,0,2.7-0.2,3.2-2.3c0.5-2.3,0-5.3-0.1-7.6c-0.1-3-0.1-5.9-0.2-8.9c0-2,1-7.8-0.6-9.3c-1.6-1.5-7.8-0.4-9.4,0.9
			c-0.5,0.4,0.2,1.1,0.7,0.7c1.2-1,3.9-1.1,5.4-1c2.3,0.2,2.4,0.4,2.7,2.7c0.8,5.4,0.2,11.3,0.3,16.8c0.1,3.1,0.6,6.9-3.8,6.8
			c-1.9-0.1-4-2.3-4.5-3.9c-0.3-1.1,0-2.7-0.1-3.9c-0.1-5.7-1-12.2,0-17.8C137.5,6.7,136.6,6.4,136.4,7z"/>
	</g>
</g>
<g>
	<path class="st0" d="M153.1,6c-0.5,0.6-0.5,1.3-0.6,2.1c-0.2,4.5,0,20.5,0.1,25c2.5,0.5,5.1,0.5,7.5-0.1c0.4-0.1,0.7-0.2,1-0.5
		c0.3-0.3,0.5-19.6,0.5-26.6C161.7,5.3,154.2,4.7,153.1,6z"/>
	<g>
		<path d="M152.6,5.7c-1.6,3.4-0.7,8.6-0.7,12.3c0,5,0.1,10,0.2,15c0,0.2,0.2,0.5,0.4,0.5c2.8,0.4,8,1.4,9.2-1.7
			c0.6-1.6,0.2-4.4,0.2-6.2c0.1-2.9,0.1-5.9,0.1-8.8c0-2.2,1.4-9.8-0.3-11.5c-1.5-1.5-7.4-1-9,0.1c-0.5,0.4,0,1.2,0.5,0.9
			c1.6-1.1,6.9-1.2,7.8,0.3c0.7,1.2,0,5.8,0,7.2c-0.1,5.4-0.1,10.9-0.3,16.3c0,0.5,0.1,1.6-0.1,2c-2,0.8-4,0.9-5.9,0.5
			c-1.3,0.4-1.9,0-1.7-1c-1-1.7-0.1-6.6-0.1-8.6c0-2.9,0-5.8,0-8.7c0-2.5-0.5-5.8,0.6-8.1C153.8,5.7,152.9,5.1,152.6,5.7z"/>
	</g>
</g>
<g>
	<path class="st0" d="M167.7,6.2c-0.4,1.1-0.8,26.8-0.1,27.2c0.3,0.1,0.5,0.1,0.8,0.1c1.8-0.2,5.2,0.1,7-0.1c0.4,0,0.9-0.1,1.2-0.3
		c0.6-0.4,0.4-26.5,0-27.3S168.1,5.1,167.7,6.2z"/>
	<g>
		<path d="M167.2,6.1c-0.6,3-0.4,6.4-0.4,9.5c-0.1,4.7-0.2,9.4,0,14.1c0,1.4-0.2,3.3,0.9,4.2c1.1,0.9,8.6,0.5,9.6-1
			c1.2-1.8,0.3-7.4,0.3-9.5c0-4.6,0-9.3-0.1-13.9c0-1.4,0.4-3.5-0.8-4.4c-1.6-1.1-7.8-0.8-9.2,0.7c-0.4,0.5,0.3,1.2,0.7,0.7
			c1.1-1.2,4.6-0.9,6-0.8c2.2,0.1,1.7-0.1,2.2,1.3c0.7,2.1,0.2,5.3,0.2,7.5c0,3.6,0.1,7.2,0,10.7c0,1.4,0.7,5.9-0.2,7.1
			c-0.8,1.1-4.8,0.4-6.2,0.5c-2.3,0.1-1.6,0.3-2.2-1.3c-0.9-2.2-0.1-6.2-0.1-8.5c0-5.3-0.7-11.5,0.5-16.8
			C168.3,5.7,167.4,5.5,167.2,6.1z"/>
	</g>
</g>
<g>
	<path class="st0" d="M182.1,6c-0.4,0.5,0.1,18.4,0.7,27.4c1.9-0.4,8.3-0.1,8.9-0.8c0.7-0.8,1-19.3,0.7-26.8
		C192.4,5.2,183,4.8,182.1,6z"/>
	<g>
		<path d="M181.7,5.9c-0.9,2.9-0.1,7-0.1,10c0.1,5.8,0.3,11.7,0.7,17.5c0,0.4,0.3,0.5,0.6,0.5c2.7-0.4,8.1,1,9.4-1.8
			c0.7-1.4,0.3-3.9,0.4-5.3c0.1-3.3,0.2-6.7,0.2-10c0-2.3,1.3-10-0.6-11.6c-1.6-1.3-8.9-0.9-10.6,0.4c-0.5,0.4,0,1.3,0.5,0.9
			c1.6-1.2,6.1-1,8-0.6c1.9,0.4,1.6,0.7,1.6,2.7c0.1,1.5,0,3,0,4.5c0,3.5,0,7-0.1,10.5c-0.1,1.8,0.6,6.5-0.5,8.2
			c-0.5,0.8-7.1,2.1-8.1,1.2c-1.1-0.9-0.5-8.4-0.5-9.7c-0.1-3.6-0.2-7.1-0.3-10.7c0-1.9-0.5-4.4,0.1-6.3
			C182.8,5.5,181.8,5.2,181.7,5.9z"/>
	</g>
</g>
<g>
	<path class="st0" d="M197.5,6.1c-0.2,0.3-0.3,0.8-0.3,1.2c-0.4,3.8-0.7,22.8-0.2,25.6c0.1,0.3,0.1,0.6,0.4,0.9
		c0.3,0.3,8.8,0.1,8.8-0.9c0.6-7.5,1-18.2,0.4-25.7c0-0.6-0.1-1.2-0.4-1.8C205.9,4.8,198.3,4.8,197.5,6.1z"/>
	<g>
		<path d="M197,5.9c-1.9,6.9-0.9,15.4-0.7,22.5c0,1.3-0.4,4.7,0.9,5.7c1.2,1,6.3,0.2,7.6-0.2c3-0.8,2.1-3.1,2.3-6.1
			c0.4-6.2,0.5-12.5,0.2-18.7c-0.1-2.5,0.2-3.9-2.1-4.6c-2-0.6-6.4-0.3-8.1,1.1c-0.5,0.4,0.2,1.1,0.7,0.7c1.8-1.5,7.3-1.7,8.3,0.7
			c1.1,2.5,0.3,7.8,0.3,10.4c0,4,0.3,8.6-0.5,12.5c-0.4,2.1-0.4,2.4-2.6,3.1c-0.9,0.3-2.9,0.4-3.9,0.2c-1.6-0.4-1.5,0.1-2.1-1.8
			c-0.2-0.6-0.1-1.6-0.1-2.2c-0.1-2.8-0.1-5.6,0-8.3c0-4.7-0.5-10.2,0.7-14.8C198.1,5.6,197.2,5.3,197,5.9z"/>
	</g>
</g>
<g>
	<path class="st0" d="M213.2,6c-0.2,0.9-0.4,26.9,0.6,27.8c0.6,0.5,7.1,1.2,7.7,0.8c0.6-0.3,0.9-1,1-1.6c0.6-1.9,0-26.5-0.7-27.5
		C221.1,4.5,213.7,4.1,213.2,6z"/>
	<g>
		<path d="M212.7,5.9c-1.2,7.4-0.3,15.9,0,23.3c0.1,1.8-0.2,4.1,1.3,5.2c1.7,1.2,7.2,1.5,8.5-0.2c1.5-1.9,0.7-6.4,0.7-8.6
			c0-5.3-0.1-10.6-0.4-15.8c-0.1-1.6,0.2-3.9-1.1-5c-1.8-1.4-7.6-1.2-8.9,0.9c-0.3,0.6,0.5,1.1,0.9,0.5c0.9-1.4,5.5-1.5,6.9-0.8
			c1.2,0.6,0.8,0.6,1.1,1.9c0.7,2.8,0.3,6.1,0.4,8.9c0.1,3.6,0.2,7.1,0.2,10.7c0,2.1,0.8,6.3-1.7,7.2c-0.9,0.4-5-0.2-5.6-0.6
			c-1-0.7-0.9-0.9-1-2.3c-0.3-2.9-0.3-5.9-0.3-8.9c-0.1-5.2-0.7-11.1,0.1-16.3C213.8,5.5,212.8,5.2,212.7,5.9z"/>
	</g>
</g>
<g>
	<path class="st0" d="M228.8,5.3c-1,0.8-0.4,27.6,0,28c0.3,0.3,8.8,0.4,9.3-0.1c0.5-0.6,0.2-27.6-0.4-28.1c-0.3-0.3-0.8-0.4-1.2-0.4
		C234.9,4.4,229.8,4.5,228.8,5.3z"/>
	<g>
		<path d="M228.3,5.1c-1.2,1.9-0.6,6-0.6,8.1c-0.1,5,0,10.1,0.2,15.1c0,1.2-0.5,4.5,0.6,5.5c1,1,8.4,0.9,9.5,0
			c1.3-1.1,0.7-4.2,0.8-5.7c0.1-4.8,0-9.6-0.1-14.4c0-1.9,0.7-7.1-0.5-8.8c-1.5-2-7.6-1-9.6-0.1c-0.6,0.3-0.1,1.2,0.5,0.9
			c1.4-0.7,5.9-1.4,7.5-0.5c1.1,0.7,0.9,1.3,1,2.7c0.2,3.2,0.2,6.4,0.3,9.6c0.1,3.5,0.1,7,0,10.4c0,1,0.2,2.7-0.1,3.6
			c-0.5,1.5-1.1,1.3-2.9,1.4c-1.4,0.1-3.4,0.3-4.8-0.1c-1.5-0.4-0.5,0.3-1-1.4c-0.7-2.6-0.2-6-0.3-8.7c-0.1-3.4-0.1-6.8-0.1-10.2
			c0-1.7-0.6-5.6,0.5-7.1C229.6,5,228.7,4.5,228.3,5.1z"/>
	</g>
</g>
<g>
	<path class="st0" d="M243,5.6c-0.8,0.4-0.2,27.6,0,27.9c0.3,0.4,8.6-0.5,9-0.8c0.6-0.4,0.8-18.6,0.4-26.6c0-0.5-0.1-1-0.4-1.4
		C251.7,4.2,243.3,5.4,243,5.6z"/>
	<g>
		<path d="M242.6,5.3c-1,1.4-0.4,5.4-0.5,7c0,4.5,0,9,0.1,13.6c0,1.5-0.7,6.4,0.3,7.7c1.2,1.5,6.1,0.1,7.7-0.1
			c2.2-0.3,2.2-0.4,2.5-2.6c0.6-5.1,0.4-10.4,0.3-15.5c0-2.2,1.1-9.8-0.9-11.3c-1.6-1.1-7.5,0.5-9.3,0.9c-0.6,0.2-0.4,1.1,0.3,1
			c1.3-0.3,2.6-0.4,3.9-0.6c0.8-0.1,2.1-0.4,2.9-0.3c1.4,0.2,0.9-0.5,1.7,0.9c0.8,1.3,0.4,4.3,0.4,5.8c0,2.3,0,4.5,0,6.8
			c0,3.6,0,7.3-0.2,10.9c0,0.5,0.1,2.4-0.2,2.8c-0.5,0.7-4.3,0.5-5.1,0.6c-2.8,0.2-3,0.8-3.1-2c-0.1-3-0.2-5.9-0.2-8.9
			c-0.1-3.2-0.1-6.5-0.1-9.7c0-1.4-0.6-5.2,0.3-6.5C243.8,5.3,242.9,4.8,242.6,5.3z"/>
	</g>
</g>
<g>
	<path class="st0" d="M258.6,6C258,6.4,258,7.3,258,8c-0.1,8-0.2,16.1-0.1,24.1c0,0.6,0,1.2,0.5,1.5c0.4,0.3,0.8,0.3,1.3,0.3
		c1.8,0,6.5-0.1,6.9-0.3c1.2-0.5,1.4-2.2,1.4-3.5c-0.1-7-0.1-13.9-0.2-20.9c0-1.1,0-2.2-0.6-3.1C266.5,5.3,259,5.8,258.6,6z"/>
	<g>
		<path d="M258.2,5.8c-2,3-0.8,8.9-0.9,12.4c0,2.8,0,5.6,0,8.3c0,1.7-0.7,4.9,0.1,6.5c1.3,2.4,8.4,2.4,10.2,0.4
			c1.9-2.1,0.7-7.5,0.7-9.9c0-2.8-0.1-5.7-0.1-8.5c0-2.2,0.4-5.3-0.2-7.4c-1-3.6-6.7-2.8-9.6-1.9c-0.6,0.2-0.4,1.1,0.3,1
			c1.2-0.4,2.7-0.3,4-0.3c3.5-0.1,4,1.4,4.5,5c0.4,3,0.1,6.4,0.1,9.5c0,2.7,0.8,6.9,0.1,9.5c-0.8,3-4,4-6.8,3.3
			c-3.4-0.9-2.3-5.1-2.3-7.8c0-3.1,0-6.2,0-9.3c0-2.6-0.8-7.8,0.7-10C259.4,5.7,258.6,5.2,258.2,5.8z"/>
	</g>
</g>
<g>
	<path class="st0" d="M273.8,5.8c-0.4,0-0.8,0-1.1,0.3c-0.3,0.3-0.3,0.7-0.3,1.1c-0.1,8.4-0.2,16.8-0.2,25.2c0,0.4,0,0.8,0.2,1.1
		c0.3,0.3,8.5,0.9,9,0.6c0.9-0.5,1-1.8,1-2.9c-0.1-8.2-0.1-16.4-0.2-24.6c0-0.4,0-0.9-0.2-1.3C281.4,4.5,274.9,5.7,273.8,5.8z"/>
	<g>
		<path d="M273.6,5.3c-3,0.8-1.8,5.2-1.8,7.7c0,3.2-0.1,6.5-0.1,9.7c0,2.8-0.9,7.1-0.1,9.7c0.6,1.9,0.2,1.3,2,1.9
			c1.6,0.5,6,1.1,7.6,0.4c1.5-0.6,1.6-1.9,1.7-3.4c0.5-6.2-0.1-12.7-0.1-18.9c0-1.8,1-6.5-1-7.7c-1.8-1.1-6,0.4-8,0.6
			c-0.6,0-0.6,1.1,0,1c1.5-0.1,2.9-0.4,4.3-0.5c4.3-0.4,3.6,4.4,3.6,7.6c0,3.2,0,6.3,0.1,9.5c0,2.2,1.2,9.6-1.2,10.9
			c-0.8,0.5-3.4-0.1-4.3-0.2c-0.7-0.1-1.8,0.1-2.5-0.3c-1.6-0.8-1.1-3.1-1.1-4.8c-0.1-2.4-1.1-21.6,1.2-22.2
			C274.5,6.1,274.3,5.1,273.6,5.3z"/>
	</g>
</g>
<g>
	<path class="st0" d="M290.1,6c-1.6,0.5-1.9,2.7-1.9,4.4c0.1,7.2,0.2,14.3,0.4,21.5c0,0.6,0.1,1.4,0.5,1.8c0.5,0.5,1.3,0.4,1.9,0.3
		c1.9-0.2,3.8-0.4,5.6-0.7c0.3,0,0.7-0.1,1-0.3c0.4-0.3,0.4-1,0.4-1.5c-0.4-7.8-0.1-15.6,0.8-23.3c0.1-0.8,0.1-1.8-0.6-2.2
		c-0.3-0.2-0.7-0.2-1.1-0.2C295.9,5.7,291,5.7,290.1,6z"/>
	<g>
		<path d="M289.9,5.5c-1.8,1.1-2,2.8-2.1,4.9c-0.2,5.8,0.2,11.8,0.3,17.6c0,1.7-0.7,5,1,6.2c1.4,1.1,7.6,0.5,8.9-0.7
			c1.5-1.4,0.5-5.1,0.5-6.8c-0.1-5.9,0.4-11.6,0.8-17.5c0.2-2.3,0.3-3.4-2-3.9c-2-0.5-5.2-0.2-7.2,0.2c-0.6,0.1-0.4,1.1,0.3,1
			c1.5-0.3,3.4-0.5,4.9-0.2c3.4,0.6,3.1,2.6,2.8,5.8c-0.5,5.7,0.4,11.9-0.5,17.5c-0.3,2-0.2,2.7-2.6,3.5c-0.7,0.2-3,0.7-3.8,0.4
			c-3.1-0.9-2-6-2.1-8.5c0-2.9-0.1-5.9-0.1-8.8c0-2.5-1.2-8.2,1.5-9.8C290.9,6.1,290.4,5.2,289.9,5.5z"/>
	</g>
</g>
</svg>
