<?xml version="1.0" encoding="utf-8"?>
<!-- Generator: Adobe Illustrator 22.0.1, SVG Export Plug-In . SVG Version: 6.00 Build 0)  -->
<svg version="1.1" id="Layer_1" xmlns="http://www.w3.org/2000/svg" xmlns:xlink="http://www.w3.org/1999/xlink" x="0px" y="0px"
	 viewBox="0 0 326.5 53.6" style="enable-background:new 0 0 326.5 53.6;" xml:space="preserve">
<style type="text/css">
	.st0{fill:#E4E4E4;}
</style>
<g>
	<path class="st0" d="M21.8,9.2c-5.8,0.2-11.5,2.7-14,7.9S5.3,28.3,5.7,34c0.2,2.8,0.5,5.6,1.8,8.1c3.9,7.6,14.2,8.4,22.7,8.3
		c91.6-1.6,282.3-0.7,285.2-2.4c2.7-1.6,3.8-4.9,4.5-8c2.1-9,2-18.6-0.2-27.6c-0.4-1.5-0.9-3.1-2.1-4c-1-0.7-2.3-0.9-3.6-1
		C310.9,7.2,95.4,6,21.8,9.2z"/>
	<g>
		<path d="M22.5,8.5c-5.6,0.4-11.5,2.2-15,6.9c-4.7,6.6-5,20-1.4,27c5.8,11.3,23.6,8.5,34,8.4c28-0.4,56-0.6,84-0.7
			c53.6-0.2,107.2-0.1,160.9-0.7c7.1-0.1,14.3-0.1,21.4-0.3c2.9-0.1,6.7,0.4,9.5-0.7c5.4-2.1,6.1-10.4,6.7-15.2
			c0.6-5.2,0.6-10.5-0.2-15.7c-0.5-3.4-0.7-8.6-4.4-10.2c-2.5-1.1-6.5-0.6-9.2-0.6C268.2,6.4,227.6,6.4,187,6.4
			C136.4,6.5,85.7,6.5,35.2,8.1C30.9,8.2,26.7,8.4,22.5,8.5c-0.8,0-3.1,1.3-1.2,1.2c44.8-1.9,89.7-1.9,134.5-2
			c44.5-0.2,89-0.1,133.4,0.1c5.7,0,11.5,0.1,17.2,0.1c2.7,0,5.8-0.4,8.4,0.5c4.5,1.5,4.6,8.5,5,12.6c0.6,5.8,0.3,11.7-0.8,17.4
			c-0.7,3.6-1.6,8.5-4.8,9.2c-4.2,0.8-9.1,0.3-13.3,0.4c-45.8,0.8-91.6,0.6-137.4,0.7c-27.6,0.1-55.3,0.2-82.9,0.4
			c-12,0.1-24,0.2-36,0.4c-12.3,0.2-34,3.8-36.9-12.6c-2-11.3-0.6-26.2,13.7-27.2C22,9.7,24.4,8.4,22.5,8.5z"/>
	</g>
</g>
</svg>
