<?xml version="1.0" encoding="utf-8"?>
<!-- Generator: Adobe Illustrator 22.0.1, SVG Export Plug-In . SVG Version: 6.00 Build 0)  -->
<svg version="1.1" id="Layer_1" xmlns="http://www.w3.org/2000/svg" xmlns:xlink="http://www.w3.org/1999/xlink" x="0px" y="0px"
	 viewBox="0 0 148.2 121.7" style="enable-background:new 0 0 148.2 121.7;" xml:space="preserve">
<g>
	<path d="M77.4,75c-1.2,0.3-2.2,0.5-3.3,0.7c-0.4,1-0.9,2.2-1.2,3.4c-0.6,2-1,4.1-1.5,6.1c-0.6,2.3-1.2,4.6-1.9,6.9
		c-1,3.3-1.7,6.5-2.1,9.9c0,0.3-0.1,0.6-0.1,1c-0.3,1.8-0.6,3.6-0.9,5.5c-0.1,0.4-0.3,0.7-0.4,1c-0.6-0.1-0.7-0.3-0.6-0.7
		c0.3-1.6,0.6-3.2,0.9-4.9c0.3-1.7,0.5-3.5,0.9-5.2c0.7-3.2,1.6-6.3,2.4-9.5c0.6-2.5,1.2-5,1.8-7.5c0.5-2.1,1.1-4.2,2-6.2
		c0.3-0.6,0.2-1,0.1-1.6c-0.3-0.9-0.4-1.8-0.5-2.7c0-0.6-0.2-1-0.6-1.3c-1-0.8-1.9-1.6-2.8-2.4c-1,0.8-1.3,2-2.4,2.6
		c-0.4-0.7-0.9-1.3-1.2-1.9c-1.2-2.4-2.3-4.9-3.4-7.3c-0.4-0.8-0.5-1.8-0.7-2.7c0-0.2,0-0.3,0-0.5c-0.2-1.7-1.2-2.7-3-3.2
		c0.3,3,0.5,5.9,0.9,8.8c0.4,2.9,1.3,5.8,1.6,8.8c0.3,2,0.1,4.1,0,6.1c-0.1,2-0.3,4.1-0.4,6.1c-0.2,2.4-0.3,4.8-0.5,7.2
		c-0.2,2.2-0.4,4.3-0.6,6.4c-0.1,0.8-0.1,1.6-0.2,2.4c-0.3,2.5,0.1,5.1-0.1,7.6c-0.1,1.3-0.2,2.7-0.3,4c0,0.6-0.1,0.6-0.8,0.8
		c0-0.7,0-1.4,0-2c0-2.4,0.1-4.7,0.2-7.1c0.1-1.6,0.2-3.2,0.3-4.8c0.1-1.8,0.3-3.5,0.4-5.3c0.2-2,0.3-4.1,0.5-6.1
		c0.2-2.5,0.4-5.1,0.5-7.6c0.1-1.2,0.1-2.3,0.2-3.5c0.1-2.3-0.2-4.6-0.7-6.8c-0.9-4-1.5-8.1-1.7-12.2c0-0.8-0.2-1.7-0.2-2.5
		c0-1-0.5-1.6-1.4-2.3c-0.1,0.5-0.3,1-0.3,1.4c0,1.1-0.6,1.5-1.6,1.8c-1.2,0.3-2.5,0.7-3.7,1.2c-4,1.6-8.1,2.5-12.2,3.6
		c-0.5,0.1-1,0.2-1.4,0.6c-0.3,0.3-0.9,0.2-1.3,0.3c-2,0.8-4,1.6-5.9,2.3c-0.7,0.3-1.4,0.5-2,0.7c-0.7,0.2-1.3,0.4-1.5,1.2
		c0,0.1-0.2,0.1-0.3,0.1c-0.6-1.2-0.4-1.6,0.7-1.9c0.8-0.2,1.5-0.5,2.3-0.8c2-0.7,4-1.4,6-2.2c0.4-0.2,0.9-0.4,1.4-0.7
		c-0.1-3.1,0-6.1,0.8-9.3c-1.1,0.1-1.9-0.3-2.6-1c-0.7-0.7-0.7-1-0.3-1.8c0.4-0.7,0.9-1.1,1.7-1.4c2.3-0.9,4.8-0.7,7.1-1
		c1.9-0.2,3.8-0.2,5.7-0.3c0.8,0,1.5-0.2,2.3-0.3c0.4-0.1,0.9-0.1,1.3,0.4c-0.2,0.1-0.3,0.2-0.4,0.2c-1.4,0.1-2.8,0.3-4.2,0.4
		c-2.9,0.2-5.8,0.3-8.7,0.5c-0.6,0-1.2,0.4-1.7,0.6c0,0.2,0,0.3,0,0.3c1.3,1.2,0.8,2.7,0.6,4c-0.4,2.7-0.8,5.3-0.5,8.1
		c0.7-0.1,1.4-0.1,2.1-0.3c2.8-0.8,5.7-1.5,8.5-2.3c2.1-0.6,4.1-1.4,6.1-2.1c0.6-0.2,1-0.6,1.2-1.2c0.2-0.7,0.4-1.5,0.7-2.4
		c-2.4-2.8-2.6-6.6-3.4-10.1c-0.7,0.1-1.3,0.3-1.9,0.2c-1-0.1-1.4-0.7-1.2-1.7c0.1-0.5,0.3-0.9,0.5-1.5c-0.3-0.1-0.7-0.2-1-0.3
		c-0.6-0.2-1.2-0.2-1.7-0.5c-1-0.5-1.7-1.3-1.7-2.4c0-0.7,0-1.5,0.1-2.2c0.3-2,1.8-3.3,4.1-2.5c0.5,0.2,1,0.5,1.4,0.8
		c-0.1,0.6-0.4,0.7-0.8,0.5c-0.4-0.2-0.9-0.4-1.3-0.6c-1.2-0.4-2,0-2.3,1.2c-0.2,0.8-0.3,1.7-0.3,2.6c0,0.9,0.5,1.6,1.5,1.8
		c0.5,0.1,1,0.2,1.5,0.4c0.6,0.2,1.2,0.2,1.6,0.9c-0.1,0.4-0.3,0.8-0.4,1.2c-0.1,0.4-0.2,0.7-0.3,1.1c0.7,0.6,1.3,0.3,1.9-0.2
		c-0.4-2-0.9-4-0.9-6c0.1,0,0.2-0.1,0.3-0.1c0.2,0.3,0.4,0.7,0.4,1c0.3,1.1,0.5,2.3,0.7,3.4c0.5,2.4,0.8,4.8,1.4,7.2
		c0.6,2.6,1.8,4.8,3.5,6.8c0.8,0.9,1.9,1.6,3,2.2c2.4,1.4,4.9,2.7,7.3,4.1c1.7,1,3.6,1.1,5.5,0.9c0.8-0.1,1.7-0.6,2.3-1.2
		c1.8-1.5,3.7-2.9,5.3-4.7c1.2-1.4,2.7-2.6,4-3.8c0.1-0.1,0.3-0.3,0.4-0.4c1-1.3,2.1-2.6,3-4c0.4-0.5,0.6-1.2,0.7-1.9
		c0.2-2.3,0.4-4.5,0.6-6.9c0.5,0.5,0.6,1,0.6,1.6c0,1.2,0,2.5,0,3.7c0,0.6,0.2,0.8,0.8,0.8c0.3-0.7,0.2-1.3,0-2
		c-0.2-1-0.3-2,0.4-2.9c0.5-0.7,1.1-1.5,1.6-2.2c0.2-0.2,0.3-0.5,0.4-0.8c0.3-1.2-0.1-1.8-1.4-1.9c-0.8,0-1.7,0-2.6,0.1
		c-0.6-0.6,0.3-0.7,0.6-1.1c-0.1-0.6-0.1-1.3-0.2-1.9c0-0.2,0-0.5-0.1-0.6c-0.7-0.4-0.6-1-0.6-1.7c0-2.5-0.2-5.1-1-7.5
		c-0.8-2.5-2.3-4.6-4.8-5.8c-1-0.5-2-1-3.1-1.4c-1.6-0.7-2.9-1.6-3.9-3.1c-1.1,0.3-2.1,0.5-3.2,0.1c-0.5-0.2-1.1-0.4-1.5-0.7
		c-0.8-0.7-1.7-1-2.8-1c-3.4,0-6.8,0.4-10,1.9c-3.2,1.4-5.4,3.7-6.3,7.1c-0.3,1.3-0.7,2.5-1.2,3.8c-0.6,1.5-0.6,3-0.6,4.6
		c0,1.2,0.1,2.4,0.1,3.6c0,0.7,0,0.7-0.9,0.7c0-0.6,0-1.2,0-1.8c0-1.5,0.1-3.1,0.1-4.6c0-0.2,0-0.4,0-0.6c-1-3.5-0.9-6.9,0.2-10.3
		c0.7-2.2,1.8-4.1,3.7-5.5c1-0.7,2.2-1.2,3.4-1.5c1.9-0.6,3.9-1.1,5.9-1.7c2-0.6,3.9-1.3,5.8-1.9c2.3-0.7,4.7-0.6,7.1-0.2
		c0.6,0.1,1.1,0.6,1.7,1c0.4-0.2,0.9-0.4,1.4-0.7c0.9-0.6,1.6-0.3,2.3,0.2c1,0.8,1.9,1.6,2.8,2.5c2.4,2.3,4.1,5,5.7,7.9
		c0.4,0.7,0.7,1.6,0.8,2.5c0.3,3.5,0.6,7,0.9,10.5c0,0.5,0,1,0,1.4c0,0.7-0.2,1.2-0.7,1.7c-0.9,0.9-0.5,2-0.4,3.1
		c0.5,0,1,0.1,1.4,0.1c2.4-0.1,3.1,2,2,3.8c-0.5,0.7-0.9,1.4-1.4,2.1c-0.6,0.8-0.7,1.6-0.5,2.5c0.1,0.4,0.2,0.8,0.2,1.2
		c0.2,1.6-0.5,2.3-2.2,2c-0.1,0.5-0.2,1-0.4,1.7c0.6,0,1,0.1,1.5,0.1c1.8,0,3.6,0,5.4,0c1.6,0,3.1-0.2,4.7-0.2c1.3,0,2.6,0,3.8,0.6
		c0.4,0.2,0.8,0.3,1.3,0.3c0.9,0,1.7,0.4,2.4,1c0.8,0.7,0.9,1.4,0.1,2c-0.9,0.6-1,1.4-1.1,2.3c-0.1,1.5-0.2,3-0.3,4.5
		c-0.1,1.4-0.2,2.8-0.2,4.4c1.3,0.6,2.7,1.3,4,1.9c0.9,0.4,1.8,0.8,2.7,1.2c0.2,0.1,0.6,0.3,0.7,0.5c0.4,0.8,1,1.5,1.7,2.1
		c0.5,0.4,0.7,0.8,0.6,1.5c-0.1,0.7,0.1,1.3,0.9,1.5c0.4,0.1,0.6,0.5,0.6,0.9c0,0.5,0.1,1,0.2,1.4c0.1,0.6,0.2,1.1,0.8,1.4
		c0.3,0.2,0.6,0.6,0.7,1c0.3,1,0.9,1.6,1.6,2.3c2.5,2.5,4.9,5,7.4,7.5c1.2,1.2,2.5,2.4,3.8,3.5c2.8,2.5,5.3,5.3,7.6,8.3
		c0.2,0.3,0.5,0.6,0.8,0.9c0.6,0.8,1.4,1.5,1.7,2.5c0.1,0.5,0.6,0.9,1,1.4c-0.1,0.2-0.2,0.4-0.3,0.5c0.4,0.7,0.7,1.3,1,2
		c0.1,0.2,0,0.5-0.1,0.7c-0.8,1.6-1,3.3-1.3,5c0,0.2,0,0.4-0.1,0.6c-0.1,0.1-0.3,0.2-0.5,0.2c-0.1,0-0.2-0.2-0.3-0.3
		c-0.1-0.1-0.1-0.2,0-0.4c0.3-1.6,0.5-3.2,1-4.7c0.3-0.8,0.3-1.4-0.1-2c-0.6-0.9-1-1.7-1.2-2.7c-0.1-0.5-0.4-1.1-0.7-1.5
		c-2.1-2.7-4.1-5.5-6.6-7.8c-3.2-3.1-6.4-6.2-9.7-9.3c-1.6-1.5-3.2-3-4.8-4.5c-0.2-0.2-0.5-0.5-0.6-0.7c-0.3-0.8-0.5-1.7-1.5-2.2
		c-0.2-0.1-0.3-0.7-0.4-1.1c-0.1-0.4-0.2-0.9-0.2-1.3c-1-0.3-1-0.3-1.2-1.4c-0.1-0.8-0.3-1.6-0.4-2.5c-0.2,0.1-0.4,0.1-0.6,0.2
		c-0.4,0.1-0.7,0-0.8-0.4c-0.1-1.7-1.3-2.4-2.7-3c-2.5-1.2-5-2.6-7.5-3.8c-2.7-1.3-5.5-2.5-8.2-3.7c-1.7-0.8-3.3-1.6-5-2.3
		c-0.8-0.3-1.7-0.5-2.6-0.7c-0.1,0.5-0.2,0.8-0.2,1.2c-0.1,0.3-0.2,0.7-0.6,0.5c-0.2-0.1-0.3-0.4-0.3-0.7c0.1-1.2,0.2-2.4,0.3-3.6
		c0-0.2,0-0.5-0.1-0.9c-0.2,0.3-0.4,0.4-0.4,0.6c-0.8,6.3-1.7,12.5-2.3,18.8c-0.2,1.9-0.1,3.9,0.2,5.8c0.4,3.2,0.8,6.5,1.4,9.7
		c0.6,3.3,1.3,6.5,1.8,9.8c0.4,2.3,0.6,4.6,0.9,6.9c0.4,3.4,0.8,6.7,1.3,10.1c0.1,0.8,0.4,1.5,0.6,2.3c0.1,0.7,0.2,1.4,0.3,2.1
		c0,0.4,0,0.4-0.7,0.7c-0.4-0.5-0.3-1-0.4-1.6c-0.2-1-0.4-2-0.5-3c-0.2-1.5-0.5-3-0.7-4.5c-0.5-4.2-1-8.5-1.5-12.7
		c-0.3-2.1-0.9-4.3-1.2-6.4c-0.6-3.5-1.1-7.1-1.6-10.6c-0.1-0.5-0.1-1-0.2-1.5c-0.8-3.8-0.5-7.5,0.1-11.3c0.5-3.4,1-6.8,1.5-10.3
		c0.2-1.2,0.3-2.5,0.4-3.7c0-0.2-0.1-0.4-0.1-0.7c-0.4,0.4-0.6,0.7-0.7,0.8c-0.1,1.5-0.2,2.8-0.3,4c-0.4,2.7-0.8,5.4-1.3,8.1
		c-0.2,1.3-0.6,2.7-0.8,4c-0.1,0.6-0.1,1.2-0.2,1.8c-0.1,0.3-0.3,0.5-0.5,0.9c-1.1-0.9-2.1-1.7-3.2-2.6c-0.7,1-1.3,1.8-1.8,2.7
		c-0.1,0.1-0.1,0.3-0.1,0.4c0.1,1.2,0.2,2.3,0.3,3.5c0,0.1,0,0.3,0,0.3c0.9,0.9,0.9,2.1,1.2,3.2c0.7,2.1,1.2,4.3,1.9,6.5
		c0.8,2.6,1.5,5.3,1.8,8c0.2,2.1,0.6,4.1,1.3,6.1c0.7,2.1,1.1,4.3,1.5,6.4c0.3,1.3,0.5,2.5,0.7,3.8c0.1,0.4,0.1,0.8-0.6,0.9
		c-0.2-0.4-0.4-0.9-0.5-1.3c-0.5-2.6-1-5.2-1.6-7.8c-0.4-2-1-4-1.4-6c-0.3-1.3-0.3-2.6-0.5-3.9c-0.4-2.4-1.1-4.7-1.9-7
		c-0.6-1.7-0.9-3.4-1.4-5.1C77.8,76.7,77.6,75.9,77.4,75z M50.6,20.1c0.1,0,0.2,0,0.4,0c0.3-1.1,0.7-2.1,1-3.2
		c0.4-1.2,0.7-2.4,1.5-3.4c1.3-1.8,3-3.1,5-4.1c2.3-1.1,4.8-1.6,7.3-1.9c1-0.1,1.9-0.3,2.9-0.2c1.4,0.1,2.8,0.2,4,1.3
		c1.1,1,2.5,1,3.6,0.1c0.6-0.4,0.9-0.4,1.1,0.3c0.4,1.3,1.3,2.1,2.5,2.6c1.1,0.5,2.2,1.1,3.4,1.6c2.9,1.2,4.8,3.5,5.8,6.4
		c0.7,1.9,0.9,3.9,1,5.9c0,0.7,0,1.5,0.3,2.4c0.2-0.4,0.4-0.6,0.4-0.7c0.1-1.5,0.3-2.9,0.1-4.4c-0.3-1.9-0.5-3.8-0.6-5.7
		c-0.1-1.7-0.5-3.3-1.4-4.8c-0.3-0.5-0.7-1-1-1.5c-1.6-2.9-4-5.1-6.3-7.3c-0.9-0.8-2-0.7-2.9,0.2c-0.2,0.2-0.5,0.5-0.8,0.7
		c-0.4-0.4-0.6-0.8-0.9-1c-0.5-0.3-1.1-0.7-1.7-0.8c-2.3-0.4-4.5-0.2-6.8,0.6c-1.8,0.6-3.7,1.2-5.5,1.7c-1.9,0.6-3.9,1.1-5.8,1.7
		c-2.7,0.9-4.6,2.7-5.6,5.4c-0.7,2-1.2,4-1.1,6.1C50.5,18.8,50.5,19.5,50.6,20.1z M88.5,51.7c6,2.7,11.8,5.3,17.9,8
		c0.2-3.4,0.4-6.6,0.6-9.9c-1.5-0.2-1.8-0.7-1.1-2.3c0.5-0.1,1-0.1,1.6-0.2c-0.2-0.3-0.4-0.4-0.7-0.4c-0.7-0.2-1.4-0.3-2.1-0.5
		c-0.7-0.2-1.5-0.4-2.2-0.5c-1.8,0-3.5,0-5.3,0c-2.1,0-4.3,0.1-6.4,0.2c-0.5,0-0.9-0.1-1.5-0.2c-0.3,0.4-0.7,0.8-1.1,1.3
		c-0.3,0.3-0.4,0.7-0.2,1.1C88.7,49.4,88.7,50.5,88.5,51.7z M62.3,56.4c-0.1,0.1-0.2,0.1-0.2,0.2c0.7,4.3,3.1,8,5.2,12
		c0.6-1,1-1.7,1.5-2.4c0.2-0.1,0.6-0.2,0.8-0.5c0.8-0.9,1.7-1.7,2.4-2.7c0.3-0.3,0.6-0.4,0.9-0.6c0.8-0.5,1.6-0.3,2.4-0.3
		c0.3,0,0.7,0.3,1,0.5c0.8,0.8,1.6,1.7,2.5,2.6c0.3,0.3,0.7,0.4,1,0.6c0.7,0.6,1.3,1.2,2.1,2c0.5-2,0.9-3.8,1.3-5.6
		c0.5-2.7,0.8-5.5,1.3-8.2c0.1-0.8,0-1.5,0-2.3c-1,0.8-2,1.6-2.9,2.6c-1.9,2.1-4.1,3.8-6.4,5.4c-0.4,0.3-0.9,0.5-1.4,0.6
		c-2,0.2-4,0.1-5.8-1c-1.4-0.8-2.7-1.6-4.1-2.3C63.3,56.9,62.8,56.7,62.3,56.4z M69.7,66.7c1.8,1.5,3.5,2.8,5.3,4.3
		c1.2-1.5,2.3-3,3.5-4.5c-1.1-1.1-2.1-2.2-3.1-3.3c-0.2-0.2-0.7-0.3-0.8-0.1c-0.4,0.3-0.9,0.4-1.4,0.4c-0.2,0-0.5,0.1-0.6,0.3
		C71.6,64.6,70.8,65.6,69.7,66.7z M76.4,71c-0.1,0-0.2-0.1-0.2-0.1c-0.4,0.5-0.8,1-1.2,1.5c-0.5-0.4-0.9-0.8-1.3-1.1
		c-0.1,0-0.1,0.1-0.2,0.1c0.3,1.1,0.6,2.3,0.9,3.5c1-0.1,2-0.1,2.6-0.6C76.7,73,76.5,72,76.4,71z M35.1,49c0.1,0.1,0.2,0.2,0.2,0.2
		c0.4,0,0.8,0.1,1.2-0.6c-0.2-0.2-0.4-0.4-0.8-0.7C35.5,48.4,35.3,48.7,35.1,49z M36.4,50.4c0.7,0,0.9-0.2,0.9-0.9
		C36.9,49.8,36.7,50.1,36.4,50.4z"/>
	<path d="M71,53.4c-2.1,0.2-3.8-0.9-5.5-1.9c-0.9-0.5-1.2-1.3-1.5-2.3c-0.1-0.2,0-0.6,0.1-0.7c0.9-0.4,1.3-1.3,2.3-1.6
		c1-0.3,1.9-0.7,2.9-1.1c1-0.4,2.1-0.3,3,0.2c0.6,0.3,1.1,0.3,1.7,0.1c1-0.3,2-0.5,3.1-0.6c0.4-0.1,0.8,0,1.2,0.1
		c0.9,0.3,1.8,0.7,2.6,1.2c0.9,0.4,0.9,0.9,0.3,1.6c-0.4,0.5-0.8,1.1-1.2,1.6c-0.5,0.7-1.2,1.3-2.1,1.5c-1.5,0.5-3,1.1-4.6,1.5
		C72.7,53.4,71.8,53.3,71,53.4z M79,47.2c-0.9-0.6-1.6-0.8-2.4-0.6c-0.9,0.2-1.9,0.4-2.8,0.7c-0.6,0.2-1.1,0.2-1.6-0.1
		c-1.6-1-3.1-0.3-4.6,0.4C71.4,48,75.1,47.9,79,47.2z M66.7,50.8c1.7,1.5,4.4,2.1,6.5,1.5c1-0.3,2-0.6,3-1c0.3-0.1,0.5-0.3,0.8-0.4
		c-0.4-0.1-0.7-0.1-1,0c-2.4,0.9-4.8,0.8-7.2,0.2C68,51,67.3,50.9,66.7,50.8z M72.3,50.1c-0.3,0.2-0.5,0.4-0.9,0.7
		c0.6,0,0.9,0,1.3,0C72.6,50.6,72.5,50.4,72.3,50.1z M69.2,50.1c0.4,0.6,0.9,0.6,1.7,0.4C70.2,50.3,69.7,50.2,69.2,50.1z M75.2,48.5
		c0.6,0.4,0.6,0.4,0.9,0C75.9,48.5,75.7,48.5,75.2,48.5z"/>
	<path d="M10.7,92.2c1.7-2.8,3.3-5.6,5-8.4c1.5-2.3,2.7-4.8,4.4-7c1.2-1.7,2.1-3.6,3.1-5.4c0.4-0.7,0.6-1.7,1.7-1.9
		c0.2,0,0.2-0.6,0.3-0.9c0-0.5-0.1-1-0.1-1.4c0-0.3,0.3-0.7,0.6-0.8c0.4-0.2,0.7,0.1,0.9,0.4c-0.1,0.1-0.1,0.3-0.1,0.3
		c-0.8,0.2-0.8,0.6-0.5,1.2c0.3,0.8,0,1.5-0.4,2.2c-0.1,0.1-0.2,0.2-0.2,0.2c-0.9,0-1.1,0.8-1.3,1.4c-1.2,2.5-2.8,4.8-4.3,7.1
		c-1.7,2.6-3.3,5.4-4.9,8c-1.2,2-2.4,4-3.6,6c-0.4-0.1-0.8-0.1-1.3-0.2c-0.2,0.6-0.4,1.1-0.7,1.6c-0.3,0.7-0.6,1.4-1,2.1
		c-1.4,2.2-2.8,4.3-4.3,6.4c-1.1,1.5-0.8,3.1-0.6,4.8c0,0.4,0.2,0.8,0.3,1.2c-0.5,0.3-0.8,0.1-1-0.3c-0.1-0.4-0.3-0.8-0.3-1.2
		c-0.1-1-0.2-2.1-0.1-3.1c0-0.4,0.3-0.9,0.6-1.3c1.6-2.5,3.3-4.9,4.9-7.4c0.4-0.7,0.6-1.5,0.9-2.2C9.1,92.2,9.1,92.2,10.7,92.2z"/>
	<path d="M55.8,15.6c1.9-0.2,3.6,0,5.3,0.4c0.9,0.3,1.8,0.8,2.6,1.4c1.8,1.4,3.7,2.9,5.1,4.8c1.1,1.5,1.6,3.1,1.7,4.9
		c0.1,2.2,0.2,4.5,0.2,6.7c0,1.6-0.2,3.1-0.5,4.7c-0.4,1.7,0.1,2.6,1.7,3.7c0.5,0.3,0.9,0.3,1.2-0.3c0.3-0.6,0.7-1.3,1.1-2
		c0.3,0.1,0.7,0.2,1.1,0.3c0.4-1.2-0.8-1.6-1.4-2.4c0.7-0.5,1.2,0,1.6,0.4c0.9,0.8,1,1.6,0.4,3.2c-0.4-0.2-0.7-0.4-1.1-0.6
		c-0.3,0.5-0.5,1-0.8,1.5c-0.6,1.1-1.3,1.3-2.4,0.7c-0.7-0.4-1.4-1-1.9-1.6c-0.7-0.7-0.6-1.5-0.5-2.4c0.1-0.9,0.4-1.7,0.4-2.6
		c0.1-1.4,0.2-2.8,0.2-4.2c0-1.7-0.2-3.4-0.2-5.1c0-2.2-0.9-4.1-2.4-5.6c-1.4-1.4-3-2.7-4.6-3.9c-1.6-1.1-3.5-1.4-5.4-1.4
		C56.7,16.3,56.1,16.5,55.8,15.6z"/>
	<path d="M57.9,22.3c0.8-0.2,1.5-0.4,2.1-0.6c1.3-0.4,2.6-0.4,3.9,0.1c1.8,0.7,2.6,2,3.2,3.7c0.3,1-0.2,2.3-1.2,2.9
		c-1.8,1.1-3.8,1.6-5.9,1.4c-1.5-0.1-2.7-0.8-3.3-2.3c-0.6-1.6-0.5-3.1,0.6-4.4C57.5,22.9,57.7,22.5,57.9,22.3z M57.2,25.7
		c0.1,1.8,0.9,2.9,2.6,3.2c1.4,0.3,2.9,0,4.2-0.5c0.5-0.2,1-0.4,1.4-0.7c0.6-0.4,1-1,0.9-1.7c-0.1-0.8-0.5-1.2-1.3-1.4
		c-1.7-0.5-3.4-1-5.1-1.5c-1-0.3-1.7,0-2.2,0.9C57.5,24.6,57.4,25.2,57.2,25.7z M63.5,23.1c-0.5-1.1-1.4-0.8-2.2-0.5
		C62,22.7,62.7,22.9,63.5,23.1z"/>
	<path d="M80.4,29.9c-1.6,0.2-3.1-0.5-4.3-2c-0.6-0.8-0.7-1.8-0.2-2.6c0.9-1.5,2.1-2.7,4-3c1.5-0.2,2.8,0,4.1,0.4
		c1.3,0.4,2.7,2.9,2.5,4.3c-0.2,1-0.8,1.7-1.8,2.1c-0.6,0.3-1.3,0.5-1.9,0.7C82.1,29.8,81.4,29.8,80.4,29.9z M76.6,26.4
		c0.2,1.2,1.4,2.4,2.6,2.5c1.4,0,2.8,0,4.2-0.2c2.3-0.4,3.1-2.1,1.5-4.1c-0.7-0.9-0.7-0.9-1.8-0.5C80.9,24.8,78.7,25.6,76.6,26.4z
		 M82.2,23.4c-2.2-0.6-4.6,0.2-5,1.9C78.9,24.6,80.5,24,82.2,23.4z"/>
	<path d="M113.4,88.6c0.7-0.1,0.8,0.3,0.8,0.8c0,0.9-0.1,1.8-0.1,2.6c-0.1,2.3-0.2,4.7-0.3,7c-0.2,3.5,0,7,0.2,10.5
		c0.1,3.1,0.2,6.3,0.3,9.4c0,0.2-0.2,0.4-0.3,0.7c-0.2-0.2-0.4-0.4-0.5-0.6c-0.1-1.1-0.2-2.2-0.3-3.4c-0.1-4.2-0.3-8.4-0.3-12.7
		c0-2.6,0.1-5.1,0.2-7.7C113.1,93,113.3,90.8,113.4,88.6z"/>
	<path d="M85.4,20.9c-1,0-2.1-0.1-3.2,0c-1.4,0.1-2.9,0.2-4.3,0.4c-1.3,0.2-2.5,0.5-3.1,1.9c-0.5,0-0.8-0.2-0.6-0.6
		c0.3-0.7,0.6-1.5,1.4-1.6c1.4-0.3,2.8-0.5,4.1-0.7c1.7-0.2,3.4-0.3,5-0.4C85.4,19.9,85.6,20.1,85.4,20.9z"/>
	<path d="M78.9,41.5c1.1,0.7,2.2,1.4,3.3,2.2c0.3,0.2,0.5,0.5,0.1,1c-1.3-0.4-2.4-1.3-3.4-2.1C78.5,42.3,78.5,41.9,78.9,41.5z"/>
	<path d="M66.3,42.1c-0.4,0.6-0.7,1-1,1.4c-0.4,0.5-0.8,1.1-1.3,1.6c-0.1,0.1-0.4,0.2-0.5,0.2c-0.1-0.2-0.3-0.5-0.3-0.6
		c0.8-0.9,1.5-1.8,2.3-2.7C65.7,41.9,66,42,66.3,42.1z"/>
	<path d="M67.9,38.6c0.1,0.7,0.2,1.3,0.3,2c-0.3,0.3-0.6,0.1-0.8-0.3C67,39.5,67.2,39,67.9,38.6z"/>
	<path d="M61.4,27.4c-0.6,0-1.2-0.6-1.2-1.2c0-0.5,0.5-1,1.2-1c0.6,0,1.4,0.6,1.4,1.1C62.8,26.9,62.1,27.4,61.4,27.4z"/>
	<path d="M82.8,26.4c0,0.5-0.4,0.8-0.9,0.9c-0.6,0-1-0.4-1.1-1c0-0.6,0.4-1,1-1C82.5,25.2,82.8,25.6,82.8,26.4z"/>
</g>
</svg>
