<?xml version="1.0" encoding="utf-8"?>
<!-- Generator: Adobe Illustrator 22.0.1, SVG Export Plug-In . SVG Version: 6.00 Build 0)  -->
<svg version="1.1" id="Layer_1" xmlns="http://www.w3.org/2000/svg" xmlns:xlink="http://www.w3.org/1999/xlink" x="0px" y="0px"
	 viewBox="0 0 270 181.4" style="enable-background:new 0 0 270 181.4;" xml:space="preserve">
<style type="text/css">
	.st0{fill:#E4E4E4;}
</style>
<g>
	<path class="st0" d="M7.2,155.1v19.7c0,0,19.2-1.1,26,0c6.9,1.1,30.5,0.7,38.8,0s26-3.6,38.4-4s43.3,0.1,48,0.1s33.1-0.6,41.6-0.2
		s36.5,2.2,36.5,2.2l27.3-0.7l-1.8-14.5l0.2-9.7l-3,0.5h-20l-60.8,1.7l-66.3,1.5l-35.6,0.5l-37.4,0L7.2,155.1z"/>
	<path class="st0" d="M6.4,5.6h258.9c0,0,2.2,2.4,1.2,5.6s0.2,9,0.2,9s-83.2-0.6-92.5,0c-9.3,0.6-100,0-100,0L35,20.5L6.4,22.5
		L4.2,8.6C4.2,8.6,2.2,5.1,6.4,5.6z"/>
	<path class="st0" d="M194,132.3c0,0-2.1,0.1-2,2.1c0.2,2,0.4,31.2,0.4,31.2l28.4-1.4l31.9,0.4v-26.1v-6.2c0,0-20.3-0.2-25-0.7
		C223,131.2,194,132.3,194,132.3z"/>
	<path class="st0" d="M131.8,159.2c-0.1,0.6-1.1,6.2,0.8,6.9c1.9,0.7,7.2,1.9,7.2,1.9s4-0.1,4.5-3.8c0.5-3.7-0.2-5.6-1.6-6.4
		c-1.3-0.8-3.1-2.1-5.6-1.9C134.6,156.1,132.1,157.8,131.8,159.2z"/>
	<path class="st0" d="M110.8,160.5c-0.5,1.5-0.8,5.6,3.2,7.2c4,1.6,8-1.7,8-1.7s1.4-4.1,1.1-5.5c-0.3-1.3-4.7-3.7-6.2-3.8
		S111.5,158.3,110.8,160.5z"/>
	<path class="st0" d="M92.1,158c-0.6,1.5-2.9,4,0,7.5s9,0.9,9.9-1s0.5-5.6,0-6.5C101.4,157.1,93.6,154.2,92.1,158z"/>
	<path class="st0" d="M69.9,157.4c-1.4,2.3-2.3,5.1-0.4,8.5c2,3.4,6.3,3.2,7.7,2.8c1.4-0.5,4.8-2.5,5.4-5.1s-2-6.4-3.6-7.1
		S70.7,156.1,69.9,157.4z"/>
	<path d="M4,6.6c1.8,0.2,2,1.2,2.1,2.1c0.3,3.1,0.7,6.2,0.8,9.3c0.1,2.9,0.4,3.3,3.3,3.6c1.5,0.1,3,0,4.5-0.1
		c2.1-0.2,4.2-0.7,6.4-0.8c5.3-0.3,10.7-0.4,16-0.5c5.1-0.2,10.2-0.5,15.3-0.5c5.7-0.1,11.5,0,17.2,0c7.8,0,15.7-0.2,23.5,0.1
		c4.9,0.2,9.7,0.4,14.6,0.3c6.1-0.2,12.1-0.2,18.2-0.3c3.8,0,7.6,0.1,11.5,0.1c5.2-0.1,10.4-0.5,15.6-0.5c12.8,0,25.5-0.4,38.3,0.2
		c3.8,0.2,7.7-0.1,11.5-0.1c4.2,0,8.5,0,12.7,0.1c6.6,0,13.3,0.3,19.9,0.1c7.7-0.2,15.5-0.6,23.2-0.9c2.3-0.1,4.6-0.3,7-0.4
		c0-4,0-7.7,0-11.8c-1.2,0-2.3,0.1-3.4,0c-8.3-1.1-16.6-0.5-24.9,0c-4.3,0.3-8.6,0.1-13,0.2c-4.9,0.1-9.7,0.3-14.6,0.6
		c-5,0.4-10,0.5-15.1,0.1c-3.1-0.3-6.2-0.2-9.3-0.2c-3.1-0.1-6.2,0-9.3-0.2c-10.8-0.7-21.7-0.7-32.5-0.6c-9.8,0.1-19.7,0-29.5-0.2
		c-7.7-0.1-15.3-0.6-23-0.8C87.7,5.1,84.3,5.5,81,5.7c-2.8,0.1-5.6,0.2-8.4,0.3c-3.2,0.1-6.4,0.4-9.6,0.4c-3.4,0-6.7-0.2-10.1-0.3
		c-7.4-0.2-14.9-0.5-22.3-0.4c-5.7,0-11.3,0.4-17,0.8c-2.5,0.1-4.9,0-7.3-0.8C7.6,5,8.9,5,10.2,4.9c3.3-0.1,6.7-0.2,10-0.3
		c5.1-0.1,10.2-0.5,15.3-0.4C43.8,4.3,52,4.7,60.3,4.8c4.3,0.1,8.6-0.3,12.9-0.4c2-0.1,4,0,6-0.1c4.1-0.2,8.1-0.7,12.2-0.7
		c4.5,0,8.9,0.3,13.4,0.4c5.2,0.1,10.4,0.2,15.6,0.3c5.3,0.1,10.5,0.3,15.8,0.3c6.6,0,13.3,0,19.9-0.1c4.2-0.1,8.4-0.1,12.7,0.3
		c2.9,0.3,5.9,0.3,8.9,0.4c7.4,0.3,14.8,0.6,22.3,0.7c4.1,0.1,8.1-0.3,12.2-0.5c4.6-0.2,9.3-0.6,13.9-0.6c5.3,0.1,10.5-0.1,15.8-0.4
		c7.3-0.4,14.5-0.1,21.8,0c2.9,0,3.7,1.2,3.7,4.1c0,4.3,0.3,8.6,0.3,12.9c0.2,8.3,0.3,16.6,0.4,24.9c0.1,7.3,0.1,14.5-0.1,21.8
		c-0.3,10.9-0.8,21.9-1.3,32.8c-0.5,11.2-1.2,22.3-1.8,33.5c-0.3,6-0.9,11.9-0.9,17.9c0,6.2,0.1,12.4,1.2,18.6
		c0.4,2.1,0,2.5-2.1,2.7c-0.1,0-0.2,0-0.2,0c-7.8,0.1-15.5,0.3-23.3,0.2c-7-0.1-14.1-0.4-21.1-0.7c-5.8-0.2-11.6-0.7-17.5-0.9
		c-6.1-0.2-12.3-0.2-18.5-0.3c-6.1-0.1-12.3-0.2-18.4-0.3c-3.6,0-7.2,0.1-10.8-0.1c-8.8-0.5-17.6,0.1-26.3,0.2
		c-7.3,0.1-14.5,0.3-21.8,0.8c-5.9,0.4-11.8,1.2-17.6,1.9c-2,0.2-4,0.4-6,0.5c-4.7,0.2-9.4,0.3-14.1,0.5c-4.7,0.2-9.4,0.6-14.1,0.6
		c-4.3,0.1-8.6,0.1-12.9-0.2c-7.7-0.5-15.4-1.4-23.2-0.6c-2.8,0.3-5.6,0.1-8.4,0.2c-1.2,0-1.9-0.2-1.9-1.7
		c-0.1-3.6-0.5-7.1-0.7-10.7c-0.3-7.1-0.7-14.2-0.7-21.3c0-8.9,0.4-17.9,0.7-26.8c0.3-8.2,0.8-16.4,1-24.7C7.1,80.2,7,70.1,6.9,60
		C6.7,52,6.4,43.9,6.1,35.8c-0.2-5.7-0.3-11.5-0.7-17.2c-0.2-3.3-0.8-6.6-1.2-10C4.1,8,4,7.4,4,6.6z M7.3,23.5c0,1.1,0,2.2,0,3.3
		c0.3,5.7,0.7,11.3,0.8,17c0.2,7,0.1,14,0.2,21c0.1,7.3,0.3,14.7,0.2,22C8.4,93.4,8,99.9,7.8,106.4c-0.3,7.4-0.6,14.8-0.8,22.3
		c-0.2,5.8-0.2,11.7-0.1,17.5c0,2.3,0.3,4.6,0.4,6.9c0.6,0.1,1,0.3,1.4,0.3c1.8-0.1,3.7-0.2,5.5-0.3c3.3-0.2,6.5-0.5,9.8-0.8
		c2.9-0.2,5.9-0.6,8.8-0.6c3.8-0.1,7.7,0,11.5,0c5.6,0.1,11.2,0.2,16.8,0.2c5.2,0,10.5,0.6,15.7,0.4c8.3-0.4,16.6-0.4,24.9-0.5
		c6.5-0.1,13.1,0,19.6-0.2c9.9-0.3,19.8-0.8,29.7-1.1c7.9-0.2,15.8-0.2,23.7-0.2c4.5,0,9-0.1,13.4,0c0.9,0,2.5-0.5,2.5,1
		c0,1.3-1.5,0.7-2.4,0.7c-4.8,0-9.6,0-14.4,0c-7.5,0-15-0.1-22.5,0.1c-9.5,0.3-19,0.9-28.5,1.2c-4.3,0.1-8.6-0.3-12.9-0.2
		c-6.4,0.1-12.8,0.3-19.2,0.4c-5,0.1-9.9,0.4-14.9,0.4c-4.3,0-8.6-0.3-12.9-0.4c-6.9-0.2-13.9-0.3-20.8-0.4c-5.5,0-11,0.1-16.5,0.4
		c-3.9,0.2-7.8,0.7-11.7,1.1c-2.1,0.2-4.2,0.4-6.5,0.6c0.3,6.3,0.7,12.4,1,18.4c4.7,0,9.1,0,13.5,0c3.7,0,7.4-0.1,11,0.4
		c9.2,1.2,18.5,0.9,27.7,0.6c4.4-0.2,8.8-0.5,13.2-0.8c6.4-0.4,12.7-0.9,19.1-1.4c4.7-0.4,9.4-1.1,14.1-1.3c7.5-0.4,15-0.5,22.5-0.7
		c4.9-0.1,9.7-0.3,14.6-0.4c2.6,0,5.1,0.2,7.7,0.2c3.4,0,6.9-0.1,10.3,0c9.6,0.2,19.2,0.4,28.8,0.6c3.9,0.1,7.8,0,11.7,0.2
		c5.3,0.2,10.5,0.6,15.8,0.8c6.5,0.3,13.1,0.6,19.6,0.7c7.7,0.1,15.3-0.2,23-0.3c0.8,0,1.5-0.2,2.4-0.3c0.1-0.4,0.1-0.7,0.2-1
		c0-0.3,0.1-0.7,0-1c-1.3-3.9-0.9-7.9-1-11.9c-0.1-2.5,0-5,0-7.5c-3.1,0-5.8,0-8.8,0c0,5.2,0,10.2,0,15.3c-0.7,0.1-1.1,0.2-1.6,0.2
		c-8.5-1.4-17.1-0.8-25.6-0.7c-8.2,0-16.4,0.4-24.6,0.7c-3.1,0.1-6.2,0.1-9.1,1.3c-0.7-0.9-1-1.8-0.9-3c0.1-4.6,0.2-9.1-0.1-13.7
		c-0.4-5.4-0.4-10.8,0.2-16.3c0.2-1.7,0.7-2.1,2.5-2.2c5.1-0.1,10.2-0.3,15.3-0.4c5.6-0.1,11.2-0.4,16.8-0.3c4.5,0,8.9,0.4,13.4,0.6
		c4.5,0.2,9,0.4,13.7-1.2c0.2,1.3,0.6,2.6,0.6,3.8c0,2.1-0.1,4.1-0.2,6.2c-0.1,2.5-0.2,5-0.4,7.9c1.7,0.1,3.2,0.3,4.6,0.2
		c1.4-0.1,2.8-0.4,4.5-0.6c0-1.6-0.1-3.2,0-4.8c0.4-6.9,0.9-13.9,1.3-20.8c0.5-8.9,1.1-17.7,1.5-26.6c0.5-10.8,1-21.6,1.2-32.3
		c0.2-5.9-0.1-11.8-0.2-17.7c-0.1-7.8-0.1-15.7-0.2-23.5c0-0.6-0.2-1.2-0.2-2c-0.7-0.1-1.3-0.2-2-0.2c-3.4,0.1-6.9,0.2-10.3,0.2
		c-10.9,0-21.9,0.8-32.8,0.6c-17.4-0.4-34.9-0.2-52.3-0.2c-7.6,0-15.2,0.1-22.8,0.2c-7,0.1-13.9,0.3-20.9,0.3
		c-2.2,0-4.5-0.2-6.7-0.2c-7.8,0-15.7,0.1-23.5,0.2c-1.8,0-3.7-0.1-5.5-0.1c-6.9,0-13.7,0-20.6,0c-3.6,0-7.2-0.2-10.8-0.2
		c-6.2,0.1-12.3,0.4-18.5,0.5c-3.4,0.1-6.9-0.2-10.3,0C21.9,22,14.8,22.8,7.3,23.5z M251.4,163.7c0-5.3-0.1-10.3,0-15.3
		c0.1-5,1-10,0.7-15c-19.7-1-39.3-1.6-59-0.1c-0.8,10.5,0.8,20.8,0.3,31.4C212.8,164,231.9,162.9,251.4,163.7z"/>
	<path d="M74.7,169.7c-3.7,0.1-5.3-0.9-6.6-3.7c-0.3-0.7-0.6-1.3-0.7-2c-1.1-3.9,0.6-6.8,4.5-8.2c3.3-1.2,6.4-1.1,9.1,1.5
		c2.1,2,2.9,4.4,2.2,7.1c-0.7,2.7-2.5,4.4-5.3,4.8C76.6,169.4,75.4,169.6,74.7,169.7z M74.1,168c1-0.2,2-0.4,3.1-0.5
		c2.3-0.2,3.6-1.5,4.2-3.6c0.6-2.1-0.1-4-1.5-5.5c-2.1-2.2-7-2.3-9.3-0.2c-0.7,0.6-1.1,1.5-1.4,2.4c-0.6,1.7,0.2,3.3,0.8,4.8
		C70.7,167.3,72.1,168,74.1,168z"/>
	<path d="M139.3,168.7c-1.2-0.1-2.7-0.2-4.2-0.5c-2.7-0.5-4.4-2.2-4.7-4.4c-0.5-3.8,0.5-6.4,3.2-7.9c3.3-1.8,6.6-1.3,9.4,1.3
		c0.2,0.2,0.4,0.3,0.6,0.4c2.7,2,3.2,3.6,2.2,7c-0.8,2.7-2.5,3.9-5.5,4C139.9,168.6,139.7,168.6,139.3,168.7z M138.9,167
		c2.4,0,3.4-0.4,4.3-1.6c1.8-2.7,1.2-5.6-1.7-7.3c-0.3-0.2-0.5-0.4-0.8-0.5c-2.2-1.4-4.4-1.4-6.5,0c-2,1.3-2.2,3.4-2,5.6
		c0.1,1.6,0.9,2.7,2.5,3.1C136.1,166.5,137.5,166.7,138.9,167z"/>
	<path d="M117.5,168.9c-2.3,0-4.4-0.4-6.2-2.1c-3.2-3-2.6-7.6,1.2-9.6c2.2-1.2,4.3-1.7,6.8-1c3.6,1,5.1,3.9,4.9,7
		c-0.3,3.8-2.5,5.7-6.3,5.7C117.8,168.9,117.6,168.9,117.5,168.9z M117,167.3c2.9,0,4.7-1.1,5.2-3c0.7-2.6-0.2-4.5-2.2-5.9
		c-2-1.5-3.8-1-5.8-0.2c-1.7,0.7-2.7,1.8-2.8,3.8c0,2,0.6,3.7,2.5,4.5C115.1,166.9,116.3,167.1,117,167.3z"/>
	<path d="M97,168.8c-3.4-0.3-5.8-1.7-7.1-5c-1.2-3.1,0.1-5.7,3.1-7.3c3-1.6,5.7-0.7,8.4,0.5c1.9,0.9,2.8,2.9,2.4,5
		c-0.4,2.4-1.8,4.3-3.7,5.6C99.2,168.3,98,168.4,97,168.8z M96.9,166.8c2.3,0.1,5-2.8,5.1-5.4c0-2.5-1.9-3.7-5.2-4.2
		c-2.7-0.3-5.1,1.8-5.3,4.3C91.3,164.2,93.8,166.7,96.9,166.8z"/>
</g>
</svg>
