<?xml version="1.0" encoding="utf-8"?>
<!-- Generator: Adobe Illustrator 22.0.1, SVG Export Plug-In . SVG Version: 6.00 Build 0)  -->
<svg version="1.1" id="Layer_1" xmlns="http://www.w3.org/2000/svg" xmlns:xlink="http://www.w3.org/1999/xlink" x="0px" y="0px"
	 viewBox="0 0 452.8 230.6" style="enable-background:new 0 0 452.8 230.6;" xml:space="preserve">
<style type="text/css">
	.st0{fill:#E4E4E4;}
</style>
<g>
	<path d="M36.1,185.1c-1.8,0.1-3.5,0.2-5.1,0.2c-1.4,0.1-2.9,0.3-4.3,0.2c-5-0.4-9.9,0-14.8,0.4c-1,0.1-2,0-3.1,0
		c-1,0-1.4-0.5-1.1-1.6c1.1-3.6,0.7-7.3,0.9-10.9c0.3-5.2,0.6-10.4,0.9-15.6c0.2-3,0.3-6,0.4-9.2c-1.9,0-3.6,0-5.4,0
		c-1.3-2.9-1-5.9-0.9-8.8c0.3-6.7,0.6-13.4,0.9-20.1c0.3-7.1,0.5-14.2,1-21.3c0.2-3,1-6,1.5-9c0.3-1.6,0.5-3.3,0.8-5
		c0.4-1.9,1.2-2.6,3.1-2.7c6.2-0.4,12.4-1,18.6-1.3c3.6-0.2,7.2,0,10.8,0c0.9,0,1.9,0,3.1,0c0-2.4-0.1-4.7,0-7
		c0.4-9.1,0.9-18.2,1.2-27.3c0.4-9.2,0.6-18.3,0.9-27.5c0.1-2.8-0.2-5.6-0.4-8.6c1-0.4,1.9-1,2.9-1.1c3.1-0.3,6.2-0.5,9.3-0.6
		c2.3-0.1,4.6,0.1,6.9,0.1c3.5,0.1,7,0.3,10.5,0.3c3.4,0,6.9-0.1,10.3-0.3c4.5-0.3,9-1,13.6-1.4c5.5-0.4,11-0.9,16.5-1
		c6.7-0.1,13.4,0.3,20.1,0.3c5.3,0,10.7-0.5,16-0.7c1.4-0.1,2.7,0,4.1-0.1c6.7,0,13.4-0.1,20.1-0.1c7.3,0,14.5,0.2,21.8,0.2
		c8.7,0,17.4-0.1,26.1-0.2c8.3-0.1,16.6-0.3,24.9-0.3c5.7,0,11.3,0.4,17,0.2c7.3-0.2,14.7-0.9,22-1.1c7.3-0.2,14.7,0,22,0.1
		c4.4,0.1,8.7,0.5,13.1,0.3c5.7-0.2,11.5,0.1,17.3,0.4c8.1,0.5,16.3,0.9,24.4,1c9.6,0.1,19.2,0.7,28.8,0.9c4.4,0.1,8.8-0.4,13.1-0.7
		c5.2-0.4,10.4-0.8,15.5-1.3c1.2-0.1,2.4-0.2,3.5-0.6c1-0.3,1.9-0.8,1.8-2.2c0-0.4,0.4-1.1,0.8-1.2c0.3-0.1,0.9,0.4,1.2,0.7
		c0.5,0.6,0.9,1.3,1.3,2c-1.4,1.6-1,3.6-0.7,5.4c0.4,2.5,1,5,1.2,7.6c0.3,3.8,0.4,7.7,0.4,11.5c0,10.5,0.6,20.9,1.7,31.3
		c0.6,5.2,0.9,10.3,1.5,15.5c0.7,6.2,1.5,12.4,2.3,18.5c0.9,7.1,1.8,14.1,2.8,21.1c0.8,5.5,2,11,2.9,16.5c1.1,6.4,2.2,12.7,3.1,19.1
		c0.7,4.7,1.1,9.3,1.5,14c0.1,1.2-0.3,2.5-0.4,3.7c-0.2,1.7-0.5,3.3-0.6,5c-0.2,7.6-0.3,15.2-0.5,22.8c-0.1,2.7-0.3,5.4-0.5,8.1
		c-0.2,2.6-0.4,5.2,0.8,7.7c0.4,0.8-0.3,1.7-1.2,2.1c-0.7,0.3-1.6,0.4-2.3,0.4c-7.1-0.6-14.2-0.9-21.3-0.6c-6.2,0.3-12.4,1-18.6,1.4
		c-9.9,0.6-19.8,1.2-29.7,0.5c-6.6-0.5-13.2-0.9-19.9-0.3c-5.2,0.5-10.5,0.5-15.8,0.7c-6.7,0.2-13.4,0.4-20.1,0.6
		c-5.9,0.2-11.8,0.3-17.7,0.4c-8.5,0.3-16.9,0.6-25.4,0.8c-6,0.1-12,0-18,0.2c-6.7,0.1-13.4,0.6-20.1,0.6
		c-6.1,0.1-12.3-0.3-18.4-0.2c-5.9,0-11.8,0.3-17.7,0.5c-8.1,0.2-16.1,0.2-24.2,0.5c-5.6,0.2-11.2,0.8-16.7,1
		c-5.4,0.2-10.9,0.3-16.3,0.4c-6,0-12,0.6-17.8,2.2c-2.1,0.6-4.2,1.1-6.3,1.6c-1,0.2-2,0.1-3,0.1c-1.9,0-3.8,0-5.8,0
		c-10.5,0.2-20.9,0.3-31.4,0.5c-5.4,0.1-10.9,0.5-16.3,0.6c-3.8,0.1-7.7-0.2-11.5-0.2c-3.5-0.1-7-0.3-10.5-0.2
		c-1.2,0-1.6-0.3-1.8-1.4c-0.3-2.8-0.8-5.6-0.8-8.3c-0.3-8.4-0.4-16.8-0.6-25.1C36.6,188.8,36.3,187.2,36.1,185.1z M445.4,165.9
		c-0.3-2.7-0.4-4.9-0.7-7.1c-1.2-8.9-2.5-17.9-3.8-26.8c-1.6-10.4-3.4-20.8-5-31.2c-0.8-5-1.2-10-1.8-15c-0.4-3.5-1-7-1.4-10.5
		c-0.9-8.8-1.7-17.7-2.4-26.5c-0.5-6.4-0.8-12.9-0.9-19.4c-0.1-5.8-0.1-11.5-1.2-17.2c-0.4-2-0.7-4-1-6.1c-2.7,0.3-5.1,0.6-7.6,0.8
		c-4.4,0.4-8.8,0.6-13.1,1.2c-5.1,0.7-10.2,0.8-15.3,0.7c-7.9-0.2-15.8-0.6-23.7-0.8c-3.7-0.1-7.4,0-11-0.2
		c-7.7-0.3-15.5-0.9-23.2-1.2c-10.8-0.4-21.6-0.6-32.3-0.7c-6.1-0.1-12.1,0-18.2,0.2c-7,0.2-14,0.7-21.1,0.9
		c-8.5,0.1-16.9-0.1-25.4,0c-7.8,0-15.5,0.4-23.2,0.4c-7.8,0-15.5-0.3-23.3-0.2c-9.5,0-19,0.2-28.5,0.4c-5.5,0.1-11,0.1-16.5,0.1
		c-6.2,0.1-12.5,0.2-18.7,0.2c-1.7,0-3.4-0.2-5-0.2c-3.2,0.1-6.4,0.2-9.6,0.3c-2.3,0.1-4.6,0.1-6.9,0.4C99.3,8.8,94,9.5,88.8,9.9
		c-6.4,0.5-12.7,0.7-19.1,1c-1.7,0.1-3.3-0.2-5-0.4c-3.2-0.3-6.3-0.7-9.5,0c-1.1,0.2-2.2,0.4-3.3,0.4c-4.2,0-4.8-0.6-4.4,4.7
		c0.6,8.2,0.1,16.5-0.4,24.7c-0.4,6.3-0.9,12.6-1.2,18.9c-0.2,4.1-0.2,8.3-0.4,12.4c-0.2,5.9-0.4,11.8-0.7,17.7
		c-0.1,3.7-0.3,7.5-0.5,11.2c-0.2,3.9-0.6,7.8-0.8,11.7c-0.4,6.1-0.8,12.2-1.2,18.3c-0.5,6.7-1.2,13.3-1.7,20
		c-0.5,5.8-0.9,11.6-1.3,17.4c-0.2,2.7,0,5.4,0,8.3c0.8,0.1,1.6,0.2,2.4,0.2c5-0.1,9.9-0.1,14.8-0.3c9.2-0.2,18.4-0.5,27.5-0.8
		c0.3,0,0.6-0.1,1-0.1c5.7-0.4,11.5-1,17.2-1.2c9.2-0.3,18.4-0.6,27.5-0.4c8.7,0.2,17.2-0.8,25.8-1.3c6.8-0.4,13.5-1.2,20.3-0.8
		c1,0.1,2.1-0.1,3.1-0.2c3.5-0.2,7-0.6,10.5-0.7c3.7,0,7.5,0.2,11.3,0.4c1.8,0.1,3.7,0.1,5.5,0.3c7,0.8,14,0.8,21.1,0.6
		c7.7-0.2,15.5-0.6,23.2-0.9c2.2-0.1,4.3,0,6.5-0.1c6.8-0.4,13.6-0.9,20.3-1.1c9.2-0.3,18.4-0.4,27.6-0.6c4.4-0.1,8.8,0.1,13.2-0.2
		c6.1-0.3,12.3-1,18.4-1.4c6.3-0.4,12.6-0.9,18.9-0.8c9.7,0.1,19.3,0.7,29,0.8c8.2,0.1,16.5-0.1,24.7-0.3c8.4-0.2,16.8-0.6,25.1-0.9
		C437.8,166.3,441.4,166.1,445.4,165.9z M38.1,178.4c0,1.1-0.1,2.3,0,3.5c0.2,2.6,0.4,5.2,0.5,7.8c0.2,6.4,0.4,12.8,0.6,19.1
		c0.1,4,0.3,8,0.5,12c0.1,2.2,0.6,2.6,2.9,2.7c4.4,0.2,8.8,0.4,13.2,0.4c4.3,0,8.6-0.2,12.9-0.3c6.4-0.1,12.8-0.1,19.1-0.2
		c5.6-0.1,11.2-0.3,16.8-0.3c6.6-0.1,13.2-0.3,19.7-2c7.3-1.9,14.8-2.3,22.3-2.2c0.9,0,1.9,0.2,2.8,0.1c4.5-0.2,9.1-0.5,13.6-0.7
		c7-0.3,14-0.7,21-0.9c8.2-0.2,16.5-0.2,24.7-0.3c5.6-0.1,11.2-0.2,16.7-0.3c9.7-0.1,19.3-0.3,29-0.4c3.4,0,6.9-0.1,10.3-0.2
		c5.4-0.1,10.8-0.3,16.3-0.4c3.2-0.1,6.4,0.1,9.6,0c8.9-0.3,17.7-0.6,26.6-0.9c6.5-0.2,12.9-0.3,19.4-0.6c4.4-0.2,8.8-0.8,13.1-0.8
		c8.1,0,16.3,0.2,24.4,0.3c6.8,0.1,13.6,0.3,20.4,0c5.8-0.2,11.6-0.9,17.4-1.4c3.2-0.3,6.4-0.6,9.5-0.8c2.6-0.1,5.2-0.1,7.8,0
		c2.3,0,4.6,0.2,6.9,0.3c2.1,0.1,4.3,0,6.5,0c0-0.6,0-1.2,0-1.7c0-2.4,0-4.8,0.1-7.2c0.2-2.9,0.6-5.9,0.7-8.8
		c0.3-6.7,0.7-13.4,0.8-20.1c0-1.9,0.6-4-0.3-6.1c-0.8,0-1.7,0-2.6,0c-3.2,0.1-6.4,0.3-9.6,0.4c-7.4,0.3-14.9,0.6-22.3,0.7
		c-9.3,0.2-18.5,0.3-27.8,0.2c-10.5-0.1-21.1-1.1-31.6-0.5c-8.7,0.4-17.4,0.7-26.1,1.5c-7.4,0.6-14.8,0.8-22.2,1
		c-8.9,0.3-17.7,0.4-26.6,0.6c-1.3,0-2.6,0.1-3.8,0.2c-6.5,0.3-12.9,0.6-19.4,0.9c-4,0.2-8,0.1-12,0.3c-6.1,0.2-12.1,0.6-18.2,0.8
		c-5.3,0.2-10.5-0.1-15.8-0.6c-5.9-0.5-11.8-0.5-17.7-0.7c-1.7,0-3.4,0.1-5,0.2c-2.7,0.1-5.4,0.3-8.1,0.4c-2.2,0.1-4.3,0.1-6.5,0.2
		c-5.6,0.2-11.2,0.5-16.8,0.8c-1.5,0.1-3,0.2-4.5,0.2c-5.7,0.3-11.3,0.5-17,0.7c-4.7,0.2-9.4,0.3-14.1,0.4
		c-6.9,0.2-13.7,0.3-20.6,0.6c-4.9,0.2-9.7,0.7-14.6,1c-1.8,0.1-3.5,0-5.3,0.1c-4.1,0.2-8.1,0.5-12.2,0.7c-4.4,0.2-8.8,0.4-13.2,0.5
		C46.6,178.5,42.5,178.4,38.1,178.4z M5.8,146.7c2.3-0.2,4.2-0.4,6.1-0.4c2.8-0.1,5.6-0.1,8.4,0c3.3,0.1,6.7,0.5,10,0.8
		c2.1,0.2,4.1,0.6,6.2,0.7c2.1,0.2,2.3-0.1,2.6-2.1c0.1-1,0.3-1.9,0.4-2.8c0.7-8.7,1.4-17.3,2-26c0.7-10.5,1.2-21.1,1.8-31.6
		c0-0.7-0.1-1.4-0.1-2.2c-6.3-1-12.4-0.7-18.5-0.3c-4.3,0.3-8.6,0.8-12.8,1.2c-0.4,0-0.8,0.1-1.3,0.2c-0.2,0.9-0.5,1.8-0.7,2.8
		c-0.4,2.3-0.4,4.7-1.1,6.8C7.2,98.1,7.2,102.5,7,107c-0.3,6-0.6,12-0.8,17.9c-0.3,6.2-0.5,12.4-0.7,18.7
		C5.4,144.5,5.7,145.4,5.8,146.7z M26,182.4c1.6,0.4,2.7,1,4,1.1c2,0.2,3.9,0,6,0c0-1.5,0-2.9,0-4.3c0-0.9,0-1.9,0.1-2.8
		c0.1-0.8,0.6-1.6,0.7-2.4c0.5-6.5,0.9-13,1.4-19.6c0.1-1.5,0.2-3,0.4-4.4c-9.8-1.7-21.8-2.3-26.3-1.2c-1.1,11.7-1.5,23.5-1.8,35.5
		c0.4,0,0.7,0,1,0c3.8-0.2,7.6-0.5,11.5-0.6C24.1,183.6,25.3,183.4,26,182.4z"/>
	<path class="st0" d="M445.4,165.9c-4.1,0.2-7.6,0.4-11.2,0.5c-8.4,0.3-16.8,0.7-25.1,0.9c-8.2,0.2-16.5,0.4-24.7,0.3
		c-9.7-0.1-19.3-0.7-29-0.8c-6.3,0-12.6,0.4-18.9,0.8c-6.1,0.4-12.3,1.1-18.4,1.4c-4.4,0.2-8.8,0.1-13.2,0.2
		c-9.2,0.2-18.4,0.3-27.6,0.6c-6.8,0.2-13.6,0.8-20.3,1.1c-2.2,0.1-4.3,0-6.5,0.1c-7.7,0.3-15.5,0.7-23.2,0.9
		c-7,0.2-14.1,0.2-21.1-0.6c-1.8-0.2-3.7-0.2-5.5-0.3c-3.8-0.2-7.5-0.4-11.3-0.4c-3.5,0-7,0.4-10.5,0.7c-1,0.1-2.1,0.2-3.1,0.2
		c-6.8-0.4-13.5,0.4-20.3,0.8c-8.6,0.5-17.2,1.5-25.8,1.3c-9.2-0.2-18.4,0.1-27.5,0.4c-5.7,0.2-11.5,0.8-17.2,1.2
		c-0.3,0-0.6,0.1-1,0.1c-9.2,0.3-18.4,0.6-27.5,0.8c-4.9,0.1-9.9,0.2-14.8,0.3c-0.8,0-1.5-0.1-2.4-0.2c0-2.9-0.1-5.6,0-8.3
		c0.3-5.8,0.8-11.6,1.3-17.4c0.5-6.7,1.2-13.3,1.7-20c0.5-6.1,0.8-12.2,1.2-18.3c0.3-3.9,0.6-7.8,0.8-11.7c0.2-3.7,0.4-7.5,0.5-11.2
		c0.2-5.9,0.5-11.8,0.7-17.7c0.1-4.1,0.1-8.3,0.4-12.4c0.3-6.3,0.8-12.6,1.2-18.9c0.5-8.2,1-16.4,0.4-24.7c-0.4-5.2,0.1-4.6,4.4-4.7
		c1.1,0,2.2-0.1,3.3-0.4c3.2-0.6,6.3-0.3,9.5,0c1.7,0.2,3.3,0.4,5,0.4c6.4-0.3,12.8-0.5,19.1-1c5.2-0.4,10.5-1.1,15.7-1.5
		c2.3-0.2,4.6-0.3,6.9-0.4c3.2-0.1,6.4-0.3,9.6-0.3c1.7,0,3.3,0.2,5,0.2c6.2,0,12.5-0.1,18.7-0.2c5.5-0.1,11-0.1,16.5-0.1
		c9.5-0.1,19-0.3,28.5-0.4c7.8,0,15.5,0.3,23.3,0.2c7.7,0,15.5-0.3,23.2-0.4c8.5-0.1,16.9,0.2,25.4,0c7-0.1,14-0.6,21.1-0.9
		c6.1-0.2,12.1-0.3,18.2-0.2c10.8,0.1,21.6,0.4,32.3,0.7c7.7,0.3,15.5,0.8,23.2,1.2c3.7,0.2,7.4,0.1,11,0.2
		c7.9,0.2,15.8,0.6,23.7,0.8c5.1,0.2,10.2,0,15.3-0.7c4.3-0.6,8.7-0.8,13.1-1.2c2.5-0.2,4.9-0.5,7.6-0.8c0.3,2,0.6,4.1,1,6.1
		c1.1,5.7,1.1,11.4,1.2,17.2c0.1,6.5,0.4,12.9,0.9,19.4c0.7,8.8,1.5,17.7,2.4,26.5c0.3,3.5,0.9,7,1.4,10.5c0.6,5,1.1,10,1.8,15
		c1.6,10.4,3.4,20.8,5,31.2c1.4,8.9,2.6,17.9,3.8,26.8C445,161,445.2,163.2,445.4,165.9z M337.1,45.5c-0.8-0.2-1.2,0.1-1.2,1.1
		c0.5,0.4,1.1,0.8,1.7,1.1c1.2,0.5,2.7,0.3,3.2-0.7c0.7-1.3,1.1-2.8,0.6-4.3c-0.5-1.5-1.7-1.8-3-0.9
		C336.7,42.8,336.5,43.4,337.1,45.5L337.1,45.5z M440.2,157.4c-0.5,0.2-0.8,0.3-1.1,0.5c-1.8,1.5-3.7,1.7-6,1.5
		c-4.1-0.3-8.3-0.2-12.5-0.1c-3,0.1-6,0.8-9,0.8c-5.6,0.1-11.2,0.1-16.8,0c-4.7-0.1-9.4-0.3-14.1-0.4c-2.2,0-4.5,0.3-6.7,0.2
		c-4.7-0.1-9.4-0.6-14.1-0.6c-3.6,0-7.2,0.5-10.7,0.7c-6.6,0.4-13.2,0.7-19.8,1c-3.5,0.2-7,0.2-10.5,0.3c-4.5,0.2-8.9,0.5-13.4,0.7
		c-5.1,0.2-10.2,0.3-15.3,0.4c-5.6,0.1-11.1,1.2-16.6,2.1c-3.7,0.6-7.4,1.2-11.2,1.2c-3.7,0-7.5-0.7-11.2-0.9c-2.5-0.2-4.9,0-7.4,0
		c-1.6,0-3.2-0.3-4.8-0.2c-5.1,0.2-10.2,0.5-15.3,0.8c-3.5,0.2-7,0.4-10.5,0.7c-3.2,0.2-6.4,0.5-9.5,0.7c-4.6,0.3-9.2,0.5-13.9,0.7
		c-6.6,0.3-13.2,0.7-19.8,0.9c-6.8,0.2-13.6,0.2-20.4,0.3c-3.3,0-6.6,0.1-9.8,0.2c-3.9,0.2-7.8,0.6-11.7,0.7c-6.5,0.2-13,0-19.4,0.2
		c-7.3,0.2-14.7,0.6-22,0.4c-2.6-0.1-5.3,0.3-7.9,0.3c-10.8,0.2-21.6,0.4-32.3,0.5c-0.8,0-1.6,0-2,1c0.9,0.7,1.8,0.9,2.9,0.8
		c4.1-0.3,8.1-0.6,12.2-0.7c11.1-0.1,22.2-0.1,33.3-0.2c0.7,0,1.4,0,2.2,0c7-0.3,14-0.6,21.1-0.8c6-0.2,12-0.2,18-0.4
		c4.1-0.1,8.3-0.5,12.4-0.7c1.6-0.1,3.2-0.1,4.8-0.1c4.2-0.1,8.5-0.4,12.7-0.1c7.1,0.5,14.2-0.3,21.3-0.5c5.3-0.2,10.5-0.7,15.8-1.1
		c6.2-0.4,12.4-0.7,18.6-1.1c6-0.3,12-0.8,17.9-0.9c6-0.1,12-0.1,17.9,0.6c5.7,0.7,11.2,0.2,16.7-0.6c6.6-1,13.2-2.4,19.9-2.5
		c4.4-0.1,8.8-0.2,13.2-0.3c8.1-0.3,16.3-0.5,24.4-0.9c6.2-0.3,12.4-0.8,18.7-1.1c5.1-0.2,10.2-0.5,15.3-0.5c4.3,0,8.6,0.3,12.9,0.5
		c2.5,0.1,5-0.1,7.4,0c5.4,0.1,10.9,0.3,16.3,0.4c3.1,0.1,6.2,0.1,9.3,0c1.8,0,3.7-0.2,5.5-0.2c5.8-0.2,11.6-1.3,17.5-0.3
		c0.7,0.1,1.4,0.1,2.2,0.1C437.1,161.5,439.5,159.7,440.2,157.4z M192.2,155.7c-0.2-1.9-0.5-3.6-0.4-5.4c0.1-5.1,0.3-10.2,0.6-15.3
		c0.6-10.1,1.3-20.2,1.8-30.3c0.3-6.2,0.2-12.5,0.5-18.7c0.2-5.8,0.6-11.6,1-17.5c0.3-4.7,0.7-9.4,1.2-14.1c0.1-1.3-0.4-1.8-1.8-1.7
		c-0.1,0.8-0.3,1.6-0.4,2.5c-0.2,2.8-0.2,5.6-0.4,8.3c-0.5,6.8-1.1,13.5-1.4,20.3c-0.3,7.4-0.2,14.8-0.4,22.3c-0.1,4-0.4,8-0.6,12
		c-0.3,5.3-0.8,10.5-1.1,15.8c-0.3,5.6-0.6,11.2-0.8,16.7c-0.1,1.4,0.3,2.8,0.6,4.3C190.5,155.9,191.2,156.1,192.2,155.7z
		 M203.2,52.2c-1.9,0.2-2,0.3-2,1.9c0,1.5,0.1,3,0.1,4.5c-0.1,2.2-0.5,4.4-0.6,6.7c-0.4,6.5-0.7,12.9-1,19.4
		c-0.4,7.6-0.6,15.1-1,22.7c-0.2,3.7-0.2,7.4-0.9,11c-1.3,6.7-1.7,13.5-2.2,20.2c-0.4,5.4-0.5,10.8-0.7,16.3c0,0.3-0.1,0.7,0,0.9
		c0.2,0.3,0.5,0.6,0.9,0.6c0.2,0,0.6-0.3,0.7-0.5c0.2-0.4,0.2-0.9,0.2-1.4c0.1-2.3,0.3-4.6,0.4-6.9c0.2-8.4,0.8-16.7,1.9-25.1
		c0.3-2.6,0.9-5.2,1-7.8c0.4-7,0.6-14,1-21c0.3-5.6,0.5-11.3,0.9-16.9c0.4-5.8,1-11.6,1.4-17.4C203.4,57,203.2,54.7,203.2,52.2z
		 M262.9,43c0.5-0.7,0.6-1.2,1-1.4c1.4-0.6,2.8-1,4.2-1.5c0.7-0.2,1.5-0.3,1.3-1.3c-0.2-0.8-0.9-1.2-1.7-0.9
		c-1.9,0.7-3.9,1.4-5.8,2.2c-0.4,0.2-0.9,0.7-0.9,1c-0.1,2.2-0.1,4.4,0.1,6.7c0,0.3,0.8,0.6,1.2,0.9c0.3-0.4,0.7-0.8,0.8-1.3
		c0.1-0.7,0-1.5,0-2.4c1.2-0.2,2.3-0.4,3.6-0.7c0.1,1.6,0.3,2.8,0.2,4.1c-0.2,2.7-1.9,3.9-4.5,3.2c-1.2-0.3-2.4-0.8-3.5-1.5
		c-2.8-1.6-5-3.7-3.7-7.8c0.2-0.8,0.2-1.6-0.7-1.7c-0.4,0-1.1,0.6-1.3,1.1c-1,2.8-0.7,5.4,1.5,7.5c2.6,2.4,5.5,4.3,9.2,4.5
		c1.9,0.1,3-0.5,4-2c1.5-2.4,1.4-5,1.1-7.6c-0.2-1.8-0.5-2-2.4-1.8C265.4,42.6,264.3,42.8,262.9,43z M307.8,23.6
		c-0.1,0.8-0.3,1.8-0.3,2.7c0,3.3,0.1,6.6,0,9.8c-0.1,6.2,0.4,12.4,0,18.7c-0.4,5.7-0.4,11.5-0.5,17.2c0,1,0.1,2.1,0.2,3.1
		c0.1,0.7,0.4,1.4,1.2,1.2c0.4-0.1,0.7-0.8,0.8-1.2c0.1-0.6,0-1.3,0-1.9c0-4.4,0-8.8,0-13.2c0.1-8.2,0.1-16.4,0.2-24.7
		c0-3.4,0-6.7,0-10.1C309.4,24.4,309.4,23.4,307.8,23.6z M241.2,83.9c-0.8-1.2-1.5-1.3-2.3-0.5c-0.7,0.7-1.2,1.5-1.9,2.2
		c-1.6,1.7-3.3,3.4-5.2,5.3c-0.4-1.3-0.7-2.1-1-2.9c-1.1-3.2-3.9-4.1-6.6-2.1c-2.7,1.9-3.8,5.2-2.9,9.1c0.9,0.1,1.9,0.4,2.9,0.4
		c5.3,0.1,10.7,0.1,16,0.1c0.6,0,1.3,0.1,1.9-0.1c0.3-0.1,0.7-0.6,0.8-1c0-0.2-0.4-0.7-0.7-0.8c-0.5-0.1-1.1-0.1-1.7-0.1
		c-2.5-0.1-5.1-0.1-8-0.2C235.6,89.9,238.4,86.8,241.2,83.9z M251.4,58.7c0.2,0.9,0.8,1.1,1.6,1.1c3.1-0.1,6.2-0.3,9.3-0.4
		c0.6,0,1.2,0.1,1.7,0.1c0,0.2,0.1,0.4,0.1,0.5c-2.2,1-4.4,2.1-6.7,3.1c-2.4,1-4.9,1.7-6.6,3.9c0.6,1,1.2,1.3,2.4,1.1
		c4.8-0.6,9.5-2.1,14.4-1.8c0.3,0,0.9-0.6,0.9-0.8c0-0.5-0.3-1-0.7-1.3c-0.3-0.2-0.9-0.1-1.4-0.1c-2.6,0.4-5.2,0.8-7.8,1.2
		c-0.5,0.1-1,0-1.9,0c3.7-1.6,6.8-3,10-4.2c1.4-0.5,1.1-1.3,0.6-2.2c0.6-0.3,1.3-0.5,1.9-0.7c-0.1-1.4-1-1.5-1.9-1.5
		c-1.8,0.1-3.6,0.4-5.5,0.4c-2.5,0.1-5,0-7.4,0.1C253.4,57.5,252,57.2,251.4,58.7z M302.7,23.5c-0.2,0-0.3,0-0.5,0
		c-0.2,0.5-0.5,0.9-0.5,1.4c-0.1,1.3-0.2,2.7-0.2,4.1c-0.1,6.9-0.1,13.7-0.1,20.6c-0.1,9.3-0.2,18.7-0.2,28c0,0.4,0.1,0.9,0.2,1.3
		c1.6-0.1,1.6-0.1,1.8-1c0.1-0.8,0.2-1.6,0.1-2.4c-0.6-5.7-0.3-11.3-0.2-17c0.1-10.6,0.1-21.2,0.1-31.9
		C303.1,25.6,302.9,24.6,302.7,23.5z M241,136.4c-0.5-0.1-0.9-0.2-1.4-0.3c-3.2-0.3-6.3-0.6-9.5-0.9c-1.9-0.2-3.8-0.4-5.7-0.5
		c-1-0.1-1.9,0-2.2,1.6c2.1,0.7,4.4,0.1,6.5,0.6c2.2,0.5,4.6,0.2,7.2,1.5c-1.3,0.6-2.3,1-3.3,1.5c-2.5,1.2-5.1,2.3-7.5,3.6
		c-1.1,0.6-2.1,1.4-2.6,3.1c1,0.1,2,0.5,2.8,0.3c3.7-0.5,7.5-0.5,11.2-0.1c0.8,0.1,1.6,0.1,2.4,0.1c0.8,0,1.5-0.3,1.3-1.2
		c-0.2-0.8-0.7-1.5-1.7-1.2c-3.7,1.1-7.4,0-11.1,0.3c1.3-1,2.6-1.9,4-2.4c2.4-1,4.9-1.8,7.4-2.7C240.3,138.9,241.3,138.2,241,136.4z
		 M247.9,114.5c0.8,0.1,1.4,0.3,2.1,0.3c1,0,1.9-0.2,2.9-0.2c4.4,0.1,8.8,0.3,13.1,0.3c0.8,0,1.6-0.2,2.5-0.4
		c-0.2-0.8-0.4-1.2-0.4-1.7c0-2.8-0.9-5.3-2-7.8c-0.7-1.7-3-3.2-4.6-2.9c-1.6,0.2-3.2,0.4-4.6,1.1c-3.8,1.6-7.1,3.7-7.6,8.4
		C249.1,112.4,248.5,113.1,247.9,114.5z M228,75.1c1.4-0.9,2.3-1.4,3.1-2c1.1-0.8,1.2-1.4,0.4-2.5c-0.2-0.3-0.7-0.3-1.1-0.5
		c3.6-1.5,6.8-1.6,10.1-1.5c1,0,2.7,0.4,2.6-1.1c-0.1-1.5-1.7-0.9-2.8-0.9c-4.1-0.3-8.1,0.8-12.1,1.3c-1.1,0.1-2.2,0.4-3.3,0.7
		c-0.3,0.1-0.7,0.7-0.7,1c0,0.3,0.5,0.7,0.9,0.8c0.5,0.2,1.1,0,1.7,0.1c0.9,0.1,1.9,0.1,2.5,1.2c-1.4,2.1-4.7,2.3-5.7,5.4
		c1.6,0,2.7,0.1,3.9,0c4.9-0.3,9.8-0.4,14.5,2c0.8-0.9,1-1.8-0.4-2.2c-2.3-0.7-4.6-1.4-6.9-1.7C232.8,74.8,230.7,75.1,228,75.1z
		 M230.5,110.9c-1.2,0.1-2.3,0.3-3.5,0.3c-2.2,0-2.3-0.1-2.6-2.2c-0.4-2.2-0.6-4.4,0-6.7c0.2-0.6,0.2-1.6-0.9-1.6
		c-0.9-0.1-1,0.8-1,1.4c-0.1,1.9-0.1,3.8-0.1,5.7c0,1.6,0.9,3.4-1.4,5.1c1.5,0.1,2.4,0.3,3.3,0.3c3.1,0,6.2,0,9.3-0.2
		c1.9-0.1,3.8-0.3,5.7-0.7c1.6-0.3,1.8-0.7,1.7-2.3c0-1.1-0.1-2.2,0-3.3c0.1-2,0.3-4,0.5-5.9c0.1-0.7-0.1-1.4-0.9-1.4
		c-0.4,0-0.7,0.7-1,1.1c-0.1,0.2-0.1,0.6-0.1,0.9c-0.2,2.5-0.4,5.1-0.5,7.6c0,1.1-0.5,1.6-1.6,1.6c-1.4,0-2.8,0.2-4.5,0.3
		c-0.2-0.6-0.5-1.2-0.6-1.8c-0.1-1.3-0.1-2.7-0.1-4c0-0.9,0.2-2-1-2.1c-1.3-0.1-1,1.2-1.1,2C230.4,106.9,230.5,108.7,230.5,110.9z
		 M237.5,50.9c0-0.1,0-0.2,0-0.3c1.7,0,3.4,0,5,0c3,0,3.3-0.3,3.5-3.3c0-0.6,0-1.3-0.1-1.9c-0.3-2-1-2.9-3-3.1
		c-5-0.5-9.9,0.1-14.7,1.4c-1.9,0.5-2.7,2.1-3,4c-0.2,1.8,0.3,2.5,2.2,2.6C230.8,50.5,234.1,50.7,237.5,50.9z M246.9,139.5
		c0,0.2,0.1,0.5,0.1,0.7c1.1,0.5,2.1,1.2,3.2,1.5c3.6,0.8,7,2.4,10.7,2.5c1.5,0,3,0.6,4.5,0.7c0.4,0,1.2-0.3,1.3-0.6
		c0.3-0.7-0.3-1.2-1-1.3c-0.5-0.1-1.1-0.1-1.7-0.2c-1.3-0.2-2.6-0.4-4.1-0.6c0.2-1.9,0.4-3.7,0.5-5.4c1.4-0.6,2.6-1,3.7-1.5
		c0.6-0.3,1.1-0.6,1.6-1c0.2-0.1,0.3-0.7,0.2-0.8c-0.2-0.3-0.6-0.5-0.9-0.6c-0.3-0.1-0.6,0.2-0.9,0.3c-5.1,1.7-10.1,3.3-15.2,5.1
		C248.2,138.5,247.6,139.1,246.9,139.5z M238,28.5c2.5-0.4,4.7-0.8,7-1.2c0.4-0.1,0.6-0.6,1-0.9c-0.4-0.4-0.7-0.9-1.1-1
		c-0.4-0.2-0.9,0-1.4,0.1c-2.2,0.2-4.4,0.4-6.6,0.7c-3.3,0.5-6.6,1.2-9.8,1.8c-0.5,0.1-1,0.6-1.9,1.1c1.8,1.1,3.2,2,4.8,2.3
		c1.9,0.4,3.7,0.8,5.6,1.2c2,0.4,4,0.8,6.1,1.2c0.8,0.1,1.5-0.1,1.6-1c0.1-0.9-0.7-1.2-1.4-1.3c-0.8-0.1-1.6-0.1-2.4-0.1
		c-1.5-0.1-1.7-0.4-1.6-2C237.9,29.1,237.9,28.8,238,28.5z M227.6,60.2c-0.1-1.4-0.1-2.6-0.3-3.9c-0.1-0.9,0.3-2.3-1.1-2.2
		c-1.2,0.1-0.9,1.3-0.8,2.1c0,1.1,0,2.2,0.1,3.3c0.1,2,0.6,2.5,2.6,2.6c4.6,0.1,9.2,0.2,13.8,0.3c1.8,0,2.2-0.4,2.1-2.3
		c-0.1-1.4-0.2-2.9-0.2-4.3c0-0.8-0.2-1.3-1-1.3c-0.9,0-1,0.6-1,1.3c0,1.4,0,2.8,0,4.3c-2.3,0-4.2,0-6.4,0c0-1,0-1.9,0-2.7
		c0-0.7,0-1.5-0.8-1.4c-0.4,0-1,0.7-1.1,1.2c-0.2,0.9-0.2,1.8-0.3,2.8C231.3,60.2,229.6,60.2,227.6,60.2z M248.8,120
		c0.1,0.2,0.2,0.5,0.3,0.7c0.8-0.1,1.5-0.1,2.3-0.2c2.5-0.3,5.1-0.5,7.6,0.4c1.2,0.4,2.5,1.1,3.4,2c1.5,1.5,1.1,3.4-0.9,4.2
		c-1.1,0.5-2.3,0.6-3.4,0.9c-2.8,0.6-5.5,0.3-8.3-0.1c-0.4-0.1-0.9,0.4-1.3,0.6c0.4,0.4,0.7,1,1.1,1c1.9,0.2,3.8,0.3,5.7,0.4
		c2.7,0.2,5.2-0.5,7.7-1.4c1.6-0.6,2.3-1.8,2.4-3.5c0.1-2.1-1-3.5-2.6-4.5c-4-2.5-8.3-2.5-12.7-1.6C249.6,119,249.2,119.7,248.8,120
		z M324.2,37.6c-0.1,0-0.2,0-0.4,0c0-3.9,0-7.8,0-11.7c0-0.5,0-1-0.1-1.4c-0.1-0.3-0.6-0.6-0.9-0.6c-0.3,0-0.7,0.3-0.9,0.6
		c-0.2,0.3-0.1,0.8-0.1,1.2c0,3.6,0,7.2,0.1,10.8c0.2,5,0.2,9.9-0.4,14.8c-0.1,0.9-0.3,1.8-0.2,2.6c0,0.5,0.4,1.4,0.7,1.5
		c0.9,0.2,1.2-0.5,1.2-1.3C323.6,48.6,323.9,43.1,324.2,37.6z M253.7,84.1c0-1.1,0-2.1,0-3.1c0-0.8,0.4-2-0.9-2.1
		c-1.3-0.1-1,1.1-1.1,1.9c0,0.8-0.1,1.6-0.3,2.3c-0.8,2.5-0.5,5-0.5,7.5c0,0.6,0.5,1.6,0.9,1.7c0.6,0.1,1.3-0.4,2.1-0.7
		c-1.3-1.8-1.2-3.5-0.8-5.2c0.3-0.1,0.6-0.3,0.8-0.3c4.2-0.2,8.4-0.7,12.6,0c0.5,0.1,1.1,0.1,1.7,0c0.7-0.1,1-1,0.5-1.5
		c-0.3-0.3-0.8-0.5-1.2-0.5c-3.4-0.1-6.8-0.1-10.2-0.2C256.1,84.1,255,84.1,253.7,84.1z M328.7,39.9c-0.1,0-0.2,0-0.2,0
		c0,4.4,0,8.8,0,13.2c0,0.9-0.5,2.3,0.9,2.2c1.3,0,1-1.5,1-2.3c0.1-3.4,0-6.8,0-10.3c0-5.3,0.1-10.7,0.1-16c0-0.6,0-1.1-0.2-1.6
		c-0.1-0.3-0.6-0.6-0.9-0.6c-0.3,0-0.6,0.4-0.8,0.7c-0.1,0.3-0.1,0.8-0.1,1.2C328.7,30.8,328.7,35.4,328.7,39.9z M314.7,24.6
		c0,0.6-0.1,1.3-0.1,2c-0.2,8.1-0.4,16.1-0.6,24.2c0,1.1-0.3,2.2-0.3,3.3c0,0.7,0.2,1.5,1.1,1.6c1,0,1.1-0.8,1.1-1.5
		c0-2,0.1-3.9,0.1-5.9c0.2-6.6,0.3-13.2,0.5-19.8c0-1,0-1.9,0-2.9C316.4,24.5,315.9,24.1,314.7,24.6z M223.1,124.4
		c0.4-0.1,0.6-0.2,0.9-0.2c4.3,0.1,8.6,0.2,12.9,0.3c1,0,2.1,0.1,3.1,0c0.3,0,0.7-0.5,0.7-0.8c0-0.3-0.2-0.8-0.5-1
		c-0.4-0.2-0.9-0.3-1.4-0.3c-2.9-0.1-5.7-0.3-8.6-0.3c-2.4-0.1-4.7,0-7.4,0c0.2-1.1,0.5-1.9,0.5-2.6c0-0.3-0.4-0.9-0.7-1
		c-0.3-0.1-1,0.2-1.1,0.5c-0.3,0.5-0.3,1.1-0.3,1.6c-0.1,2.6-0.1,5.1-0.2,7.7c0,0.8,0.2,1.6,1.1,1.5c0.4,0,0.9-0.9,0.9-1.4
		C223.2,127.1,223.1,125.8,223.1,124.4z M231.1,12.2c0-0.7,0-1.3,0-1.8c0-0.8,0.6-2-0.8-2.1c-1.3-0.1-0.9,1.2-1.1,2
		c-0.1,0.5-0.2,1.1-0.3,1.7c-0.3,2.1,0.2,2.6,2.4,2.5c2.1-0.1,4.1,0,6.2,0.2c2.3,0.3,4.5,0.8,6.8,1.3c1.6,0.3,2-0.1,1.9-1.7
		c-0.1-1.1,0-2.2,0-3.3c0-1,0-2,0-3.1c-0.4,0-0.8,0-0.8,0.1c-0.5,1.9-1,3.7-1.6,5.8c-0.7-0.1-1.5-0.2-2.3-0.4
		c-0.8-0.2-1.8-0.3-2.5-0.7c-0.5-0.4-0.6-1.3-1.1-2.4c-0.7,1-1.1,1.7-1.7,2.6C234.7,12.6,233,12.4,231.1,12.2z M230.3,18.9
		c0-0.7,0-1.4-0.2-2.1c-0.1-0.4-0.6-0.7-0.9-1.1c-0.3,0.4-0.9,0.8-0.9,1.1c0.1,1.7,0.2,3.3,0.5,5c0.1,0.4,0.7,0.9,1.1,1
		c0.3,0.1,1-0.4,1.1-0.7c0.4-1.3,1.5-1.6,2.6-1.5c1.7,0.1,3.3,0.2,5,0.3c2,0.1,4,0.3,5.9,0.5c0.9,0.1,1.5-0.3,1.5-1.1
		c0-0.4-0.8-0.7-1.3-1.1c-0.1,0-0.2,0-0.2,0C239.8,19.2,235.1,18.3,230.3,18.9z M269.4,74.5c-0.9-0.7-1.3-1.1-1.8-1.2
		c-0.7-0.1-1.4-0.1-2.1,0c-3.7,0.5-7.4,0.4-11.1,0.1c-0.9-0.1-1.8-0.1-2.6,0c-0.8,0.1-1.5,0.5-1.3,1.7c0.3,0.1,0.7,0.4,1,0.4
		c4.8,0.1,9.5,0.2,14.3,0.2C266.8,75.5,267.8,75,269.4,74.5z M222.7,155.9c0.6,0.1,0.9,0.1,1.2,0.1c5.1-0.5,10.3-1.1,15.4-1.6
		c0.3,0,0.7-0.1,0.9-0.3c0.3-0.2,0.6-0.6,0.6-0.9c0-0.3-0.4-0.7-0.7-0.8c-0.5-0.1-1.1-0.1-1.6,0c-1.3,0.2-2.7,0.4-4,0.6
		c-3.1,0.5-6.3,0.9-9.4,1.5C224.3,154.6,223.3,154.6,222.7,155.9z M264,98.3c0,0,0-0.1,0-0.1c0.9,0,1.8,0.1,2.6,0
		c0.4-0.1,1.1-0.6,1.1-1c0-0.4-0.5-0.9-0.9-1.2c-0.2-0.2-0.6-0.1-0.9-0.1c-4.4,0.5-8.7,0.1-13-1c-0.4-0.1-0.8-0.2-1.2,0
		c-0.3,0.1-0.7,0.5-0.7,0.8c0,0.3,0.3,0.7,0.6,0.9c0.3,0.2,0.7,0.2,1.1,0.3C256.5,97.4,260.2,97.8,264,98.3z M239.2,39.2
		c0.8,0,1.8,0,2.7,0c0.9,0,1.6-0.3,1.5-1.4c-0.1-1-0.9-0.8-1.7-0.8c-2.7,0-5.4-0.2-8.1-0.3c-1.7-0.1-3.5-0.2-5.2-0.1
		c-0.4,0-0.8,0.6-1.2,0.9c0.4,0.4,0.7,0.7,1.1,1.1c0.1,0.1,0.3,0,0.5,0.1C232.2,38.8,235.6,39,239.2,39.2z M423.1,82.3
		c-1.7,0-3,1.1-3.4,2.8c-0.4,1.6,0,2.9,1.2,3.5c1.2,0.7,3,0.1,4.2-1.3c0.2-0.2,0.3-0.4,0.4-0.6c0.6-0.9,1.1-1.7,0.5-2.9
		C425.4,82.7,424.4,82.3,423.1,82.3z M337.7,56.6c0.6-1.3,1-2.2,1.5-3.5c0.7,1,1.2,1.8,1.7,2.4c0.9,1.1,1.9,1,2.3-0.3
		c0.4-1.3,0.7-2.6,0.8-3.9c0.1-0.4-0.4-0.9-0.6-1.3c-0.4,0.3-0.9,0.6-1.1,1c-0.3,0.7-0.4,1.5-0.6,2.4c-0.7-0.8-1.2-1.5-1.8-1.9
		c-0.4-0.2-1.3-0.3-1.7,0C336.7,52.7,336.5,54.1,337.7,56.6z M337.2,34.7c-0.1,1.6,1.5,3.2,3.3,3.1c1.3,0,2.2-1.1,2.2-2.9
		c0-1.7-1.1-3.4-2.3-3.5C338.9,31.3,337.2,33,337.2,34.7z M343.5,28.8c0.1-0.1,0.2-0.3,0.2-0.5c0.3-1.1-0.1-2-1-2.4
		c-0.8-0.4-1.5,0.1-2.1,0.7c-0.3,0.3-0.7,0.4-1.5,0.9c-0.1-1.7-0.2-3-0.4-4.5c-0.4,0.1-0.8,0-1.1,0.2c-0.7,0.7-0.9,3.5-0.4,4.6
		c0.5,1.1,1.9,1.7,3.5,1.5C341.6,29,342.4,28.9,343.5,28.8z"/>
	<path class="st0" d="M38.1,178.4c4.5,0,8.5,0.1,12.6,0c4.4-0.1,8.8-0.3,13.2-0.5c4.1-0.2,8.1-0.5,12.2-0.7c1.8-0.1,3.5,0,5.3-0.1
		c4.9-0.3,9.7-0.8,14.6-1c6.9-0.3,13.7-0.4,20.6-0.6c4.7-0.1,9.4-0.2,14.1-0.4c5.7-0.2,11.3-0.5,17-0.7c1.5-0.1,3-0.2,4.5-0.2
		c5.6-0.3,11.2-0.5,16.8-0.8c2.2-0.1,4.3-0.1,6.5-0.2c2.7-0.1,5.4-0.3,8.1-0.4c1.7-0.1,3.4-0.2,5-0.2c5.9,0.2,11.8,0.2,17.7,0.7
		c5.3,0.4,10.5,0.7,15.8,0.6c6.1-0.2,12.1-0.6,18.2-0.8c4-0.1,8-0.1,12-0.3c6.5-0.2,12.9-0.6,19.4-0.9c1.3-0.1,2.6-0.1,3.8-0.2
		c8.9-0.2,17.7-0.3,26.6-0.6c7.4-0.2,14.9-0.4,22.2-1c8.7-0.8,17.4-1,26.1-1.5c10.6-0.5,21.1,0.4,31.6,0.5c9.3,0.1,18.5,0,27.8-0.2
		c7.4-0.1,14.9-0.5,22.3-0.7c3.2-0.1,6.4-0.3,9.6-0.4c0.9,0,1.7,0,2.6,0c0.9,2.2,0.4,4.2,0.3,6.1c-0.2,6.7-0.5,13.4-0.8,20.1
		c-0.2,2.9-0.6,5.9-0.7,8.8c-0.1,2.4-0.1,4.8-0.1,7.2c0,0.5,0,1.1,0,1.7c-2.2,0-4.3,0-6.5,0c-2.3-0.1-4.6-0.2-6.9-0.3
		c-2.6,0-5.2-0.1-7.8,0c-3.2,0.2-6.4,0.5-9.5,0.8c-5.8,0.5-11.6,1.2-17.4,1.4c-6.8,0.2-13.6,0.1-20.4,0c-8.1-0.1-16.3-0.4-24.4-0.3
		c-4.4,0-8.8,0.6-13.1,0.8c-6.5,0.3-12.9,0.4-19.4,0.6c-8.9,0.3-17.7,0.6-26.6,0.9c-3.2,0.1-6.4,0-9.6,0c-5.4,0.1-10.8,0.3-16.3,0.4
		c-3.4,0.1-6.9,0.1-10.3,0.2c-9.7,0.1-19.3,0.3-29,0.4c-5.6,0.1-11.2,0.2-16.7,0.3c-8.2,0.1-16.5,0.1-24.7,0.3c-7,0.2-14,0.6-21,0.9
		c-4.5,0.2-9.1,0.5-13.6,0.7c-0.9,0-1.9-0.1-2.8-0.1c-7.5,0-15,0.4-22.3,2.2c-6.5,1.6-13.1,1.9-19.7,2c-5.6,0-11.2,0.2-16.8,0.3
		c-6.4,0.1-12.8,0.1-19.1,0.2c-4.3,0.1-8.6,0.3-12.9,0.3c-4.4,0-8.8-0.2-13.2-0.4c-2.3-0.1-2.7-0.5-2.9-2.7c-0.3-4-0.4-8-0.5-12
		c-0.2-6.4-0.3-12.8-0.6-19.1c-0.1-2.6-0.4-5.2-0.5-7.8C38,180.7,38.1,179.5,38.1,178.4z M302.5,207.2c0.5-0.2,1-0.3,1.5-0.5
		c0.3-0.1,0.7-0.4,0.9-0.6c0.4-1-1.1-3.7-2.1-3.8c-1.5-0.2-3.1,1.3-3.2,3.1c-0.1,1.5,0.4,1.8,2.5,1.8
		C302.3,207.2,302.4,207.2,302.5,207.2c-0.2,1.2-0.4,2.4-0.6,3.6c-1-0.4-0.3-2.6-2.3-2c0.1,1.3,0.1,2.6,0.2,4c1.6,0.2,3,0.4,4.5,0.5
		c1,0.1,1.8-0.4,2-1.3c0.2-1,0-1.9-1.1-2.3c-0.4,0.5-0.7,0.9-1.3,1.7c-0.2-1.1-0.3-1.8-0.4-2.5C303.6,208.1,303.3,207.5,302.5,207.2
		z M375,192C375,192,375,192,375,192c-0.1-4.1-0.1-8.3,0-12.4c0-1.4,0-2.7,0-4.1c0-0.7-0.2-1.4-1-1.3c-0.8,0.1-1,0.7-0.9,1.4
		c0,0.2,0.1,0.3,0.1,0.5c0,4.5,0.1,8.9,0,13.4c-0.1,5.3-0.4,10.5-0.6,15.8c0,1.2,0.2,2.4,0.4,3.5c0,0.3,0.6,0.6,0.9,0.6
		c0.3,0,0.6-0.4,0.8-0.7c0.1-0.3,0.1-0.6,0.1-0.9C374.8,202.5,374.9,197.2,375,192z M377,209c2,0.2,2.3-0.7,2.3-1.9
		c-0.1-1.8-0.3-3.7-0.3-5.5c0.1-8.2,0.3-16.4,0.4-24.7c0-0.6,0.2-1.2,0-1.7c-0.2-0.4-0.7-0.7-1.1-1c-0.3,0.4-0.7,0.7-0.8,1.1
		c-0.1,1.1-0.2,2.2-0.2,3.3c-0.1,7.1-0.2,14.2-0.3,21.3C377,203,377,205.9,377,209z M85.5,195.8c0.4,7.9,0.8,13.9,1.1,20
		c0,0.4,0,0.9,0.2,1.2c0.2,0.3,0.7,0.7,1.1,0.7c0.3,0,0.7-0.6,0.8-0.9c0.1-0.4,0-0.9,0-1.4c-0.3-7.6-0.7-15.1-1-22.7
		c-0.1-2.6,0-5.3,0-7.9c0-0.7,0.1-1.6-0.9-1.7c-1.2-0.1-1.1,0.9-1.2,1.7c0,0.4,0,0.8,0,1.2C85.5,189.7,85.5,193.7,85.5,195.8z
		 M80.9,182.3c-1.5-0.3-1.9,0-1.9,1.7c0.3,6.8,0.5,13.6,0.8,20.3c0.2,4,0.5,8,0.8,11.9c0.1,0.9,0.1,1.8,1.4,1.8
		c0.8-0.7,0.8-1.7,0.7-2.6c-0.3-3.3-0.6-6.5-0.8-9.8c-0.3-4.3-0.4-8.6-0.6-12.9C81.1,189.4,81,186,80.9,182.3z M94.3,216.7
		c0-0.7,0.2-1.4,0.1-2c-0.2-3.3-0.5-6.7-0.6-10c-0.2-5.7-0.3-11.5-0.4-17.2c0-0.9,0.1-1.8-0.1-2.6c-0.1-0.4-0.5-0.9-0.8-0.9
		c-0.3,0-0.9,0.4-0.9,0.8c-0.2,0.8-0.2,1.7-0.1,2.6c0.1,5.1,0.2,10.2,0.4,15.3c0.1,4.1,0.4,8.3,0.6,12.4
		C92.5,216,92.7,216.9,94.3,216.7z M212.3,200.9c-2.3-2.9-4.4-3.1-6.4-1c-0.5,0.5-1,1-1.5,1.6c-2.1,2.4-0.7,7.6,2.2,8.8
		c0.3,0.1,0.6,0.3,0.9,0.2c1.8-0.1,3.5,0,4.8,1.3c0.1,0.1,0.4-0.1,0.8-0.2c0-2,0.1-4,0-5.9c-0.1-1.6-0.9-2-2.5-1.8
		c-1,0.1-2.1,0.1-3.1,0.3c-0.4,0.1-0.7,0.4-1.2,0.7c1.3,1.6,3.1,0.1,4.4,1.2c0,0.7,0,1.5,0,2.2c-3.3,1.2-4.2,0.8-5.1-2.2
		c0-0.2-0.1-0.3-0.1-0.5c-0.6-1.7,0.2-2.9,1.3-4.1c1-1.1,2.1-1.3,3.4-0.5C210.7,201.4,211.4,201.1,212.3,200.9z M76.1,217.8
		c0.2-0.5,0.6-0.9,0.6-1.4c0-2.5-0.1-4.9-0.3-7.4c-0.3-3.6-0.7-7.1-0.9-10.7c-0.3-4.4-0.5-8.9-0.8-13.4c-0.1-0.8-0.3-1.4-1.6-1.2
		c-0.1,0.7-0.2,1.4-0.2,2c0.4,6.5,0.8,13,1.2,19.6c0.2,3.4,0.4,6.8,0.6,10.3C74.7,216.5,74.6,217.5,76.1,217.8z M192.2,192.3
		c0.2-1.9,0.4-3.7,0.5-5.3c0.7,0.5,1.2,1.3,1.9,1.4c1.1,0.1,1.2-1.1,1.6-1.8c0.5-1.1,1-2.3,1.7-3.6c1.3,1.2,1.4,2.6,1.6,3.9
		c0.1,0.5-0.1,1,0.1,1.4c0.3,0.5,0.8,1.1,1.3,1.1c0.8,0.1,1-0.8,0.8-1.4c-0.6-2.1-1-4.2-1.9-6.1c-0.9-2-2.1-1.9-3.4-0.2
		c-0.6,0.9-1.2,1.8-1.9,2.8c-0.6-1-0.9-1.7-1.4-2.3c-0.3-0.3-0.9-0.6-1.4-0.6c-0.3,0-0.7,0.7-0.7,1c-0.3,2.8-0.5,5.6-0.6,8.4
		C190.3,191.9,190.8,192.6,192.2,192.3z M197.4,205.9c-2.2-2.1-3.9-3.8-5.6-5.3c-1-0.9-1.9-0.6-2.3,0.7c-0.1,0.4-0.2,1-0.1,1.4
		c0.1,2.1,0.3,4.1,0.5,6.2c0.1,1.3,0.6,1.4,2.2,0.7c-0.2-2-0.3-4-0.5-6.2c2,1,3.1,2.4,4.3,3.8c0.6,0.7,1.3,1.4,2,1.9
		c0.4,0.3,1.1,0.5,1.4,0.3c0.3-0.2,0.5-0.9,0.5-1.4c0-2.6-0.1-5.3-0.1-7.9c0-0.4,0.1-0.8-0.1-1.2c-0.1-0.3-0.6-0.7-0.8-0.7
		c-0.4,0-0.9,0.3-1.1,0.7c-0.2,0.4-0.1,0.9-0.1,1.4C197.4,202,197.4,203.7,197.4,205.9z M136.3,186.7c0.2,0,0.3-0.1,0.5-0.1
		c0.2,0.3,0.4,0.6,0.7,0.9c0.8,1.1,1.6,2.2,2.5,3.2c0.5,0.6,1.3,1.1,2.1,0.5c0.5-0.3,1.1-0.9,1.1-1.3c0.1-2.9,0-5.7-0.1-8.6
		c0-0.3-0.6-0.8-0.9-0.9c-0.3,0-0.9,0.4-1,0.7c-0.2,0.8-0.1,1.6-0.1,2.4c0,1.6,0,3.2,0,5.2c-1.8-1.8-2.8-3.6-3.8-5.5
		c-0.3-0.6-0.6-1.3-1.1-1.8c-0.3-0.3-1-0.5-1.5-0.4c-0.2,0-0.6,0.8-0.5,1.2c0.2,2.7,0.4,5.4,0.6,8.1c0.1,0.8,0.6,1.4,1.4,1.2
		c0.8-0.2,0.8-0.8,0.6-1.5C136.6,188.9,136.5,187.8,136.3,186.7z M216.7,179.6c-0.1,0.8-0.4,1.6-0.3,2.3c0.2,2.8,0.5,5.5,0.7,8.3
		c0.1,1.9,0.2,2.1,2.2,2.2c0.3,0,0.6,0,1,0.1c2.8,0.4,5.5-2.5,6-4.6c0.2-0.6,0.1-1.5-0.2-2.1C224.1,182.3,221.3,179.9,216.7,179.6z
		 M163.8,192.5c1.7-0.3,2.9-0.5,4.1-0.6c1-0.1,2.1,0,3.1-0.2c0.4-0.1,0.6-0.6,1-0.9c-0.4-0.3-0.7-0.8-1.1-0.9c-0.5-0.1-1.1,0-1.7,0
		c-1,0-2.1,0-3.1-0.1c-0.8,0-1.2-0.4-0.9-1.3c3.8-0.7,3.8-0.7,4.1-2c-1.4-0.1-2.8-0.2-4.2-0.4c0-1.5,0-2.7,0-4.1
		c2.1-0.5,4-0.9,5.9-1.4c0-0.2,0-0.4,0-0.5c-0.4-0.3-0.9-0.8-1.3-0.8c-2.4,0-4.7,0.5-6.9,1.2c0,3.3,0,6.4,0,9.5
		C162.9,191.2,162.9,192.2,163.8,192.5z M177.1,180.8c-0.9,2-0.1,3.7,0,5.5c0.2,1.9,0.3,3.8,0.6,5.7c0.1,0.5,0.7,0.9,1.1,1.3
		c0.3-0.4,0.7-0.8,0.7-1.3c0.2-1,0.1-2,0.2-3c1.8-0.2,3.2,0.3,4.5,1.2c0.5,0.3,0.9,0.6,1.5,0.8c0.3,0.1,0.8-0.2,1-0.5
		c0.1-0.3,0.1-0.8-0.1-1.1c-0.4-0.4-0.9-0.6-1.4-0.9c-1-0.5-2-1-2.9-1.5c0.4-0.9,0.7-1.7,0.9-2.4c0.3-1,0-1.8-0.9-2.2
		c-1.4-0.6-2.9-1.1-4.4-1.6C177.7,180.6,177.5,180.7,177.1,180.8z M267.2,180.2c-0.9-2.2-4.7-2.2-7.4-0.2c0.2,1.2,0.5,2.2,0.6,3.3
		c0.1,1.6,0,3.2,0.1,4.8c0.1,2,0.4,2.4,2.4,2.4c1.4,0,2.7-0.1,4.1-0.1c0.7,0,1.4-0.1,1.4-0.9c0-1-0.8-1-1.6-1
		c-0.8,0-1.6,0.1-2.4,0.1c-2,0.1-2.1-0.1-1.6-2.3c1.6-0.3,3.3-0.5,4.9-0.8c0-0.2,0-0.4,0-0.6c-1.4-1.4-3.5-0.5-5.3-1
		c0-0.9,0-1.8,0-2.9c0.9-0.2,1.6-0.4,2.4-0.5C265.6,180.2,266.4,180.2,267.2,180.2z M146.6,204c0-0.2,0-0.3,0-0.5
		c0-1.9-0.3-2.5-1.2-2.3c-1.4,0.3-1.1,1.4-1,2.3c0.2,2-0.2,3.8-1,5.6c-0.3,0.7-0.7,1.7-1.6,1.3c-0.6-0.2-1.1-1-1.6-1.6
		c-0.2-0.3-0.2-0.8-0.3-1.2c-0.4-1.9-0.6-3.8-0.2-5.7c0.1-0.4-0.4-0.9-0.7-1.3c-0.5,0.3-1,0.6-1.4,1c-0.1,0.1-0.1,0.5-0.1,0.7
		c-0.4,2.8,0.2,5.4,1,8c0.5,1.5,1.8,2.1,3.4,2.2c1.5,0.1,2.4-0.6,3-1.8C146.1,208.6,146.6,206.4,146.6,204z M149.6,200.5
		c0.1,1.3,0.2,2.1,0.3,3c0.1,2.1,0.2,4.3,0.4,6.4c0.1,1.5,0.8,1.9,2.2,1.5c0.8-0.2,1.5-0.5,2.2-0.8c3-1.2,3.8-4.5,3.2-6.9
		c-0.4-1.9-1.7-2.9-3.5-3.1C152.9,200.3,151.3,200.5,149.6,200.5z M212.7,180.1c-3-0.3-6,0.1-8.9,0.9c-0.8,0.2-0.9,1.2-0.3,1.5
		c1.3,0.7,0.9,1.6,0.8,2.6c-0.1,1.4-0.2,2.7-0.2,4.1c0,0.7,0.4,1.3,1.1,1.3c1.8-0.1,3.6-0.3,5.4-0.5c0.3,0,0.7-0.5,0.7-0.8
		c0-0.3-0.3-0.8-0.5-0.9c-0.5-0.2-1.1-0.2-1.6-0.2c-1,0-2,0-3,0c-0.4-1.2,0-1.6,1-1.8c1-0.1,2.1-0.4,3.3-0.6c-1-1.9-2.8-1.2-3.9-1.9
		c-0.4-1.6,0.6-1.9,1.7-2C210,181.6,211.6,181.7,212.7,180.1z M131.6,208.4c0.3,0,0.5-0.1,0.8-0.1c0.3,0.5,0.5,1,0.8,1.6
		c0.2,0.5,0.2,1.2,0.5,1.6c0.3,0.4,0.9,0.6,1.3,0.8c0.2-0.4,0.7-0.9,0.6-1.3c-0.1-0.9-0.6-1.8-0.7-2.8c-0.2-2.4-1.2-4.5-2.2-6.5
		c-0.2-0.4-0.6-0.8-0.9-0.8c-0.4,0-0.7,0.5-1,0.8c-0.2,0.2-0.2,0.4-0.3,0.7c-0.5,2.3-1.1,4.7-1.5,7c-0.2,1.2,0,2.5,0,3.7
		c1.7,0.3,2.2-0.4,2.3-1.6C131.3,210.3,131.5,209.4,131.6,208.4z M242.8,186.8c0.3,0.8,0.5,1.5,0.8,2.1c0.4,0.7,0.9,1.1,1.8,0.7
		c0.7-0.4,0.6-1,0.4-1.7c-0.9-1.9-1.7-3.8-2.7-5.6c-1.3-2.4-3.7-2.5-5.3-0.2c-0.2,0.3-0.3,0.6-0.4,0.9c-0.4,1.8-0.9,3.6-1.3,5.3
		c-0.2,0.9,0.1,1.5,1.2,2.1c0.4-1.2,0.8-2.2,1.3-3.2C239.9,187.2,241.3,187,242.8,186.8z M173.9,212.4c0-0.5,0.1-0.9,0.1-1.4
		c-0.1-2-0.3-4-0.5-5.9c-0.2-2.4-0.1-2.5,2.4-2.7c1.1-0.1,2.3-0.1,3.3-0.8c-0.6-0.4-1.3-0.7-1.9-0.7c-3,0.2-6,0.4-9,0.7
		c-0.3,0-0.6,0.6-0.9,0.9c0.3,0.3,0.6,0.8,1,0.8c0.9,0.2,1.9,0.1,3,0.2c0.1,1.5,0.1,3,0.2,4.4c0.1,1.1,0.2,2.2,0.4,3.3
		C172.1,212.2,172.6,212.7,173.9,212.4z M148.5,181.2c1.1,2.6,3.1,0.4,4.6,1.5c0.1,0.7,0.2,1.6,0.3,2.6c0.2,1.7,0.2,3.5,0.5,5.2
		c0.1,0.4,0.8,0.8,1.2,1.2c0.3-0.4,0.8-0.8,0.8-1.3c0.1-0.8-0.1-1.6-0.2-2.4c-0.3-1.9-0.4-3.8-0.1-5.5c1-0.4,2.1,0,2.6-1.4
		C154.8,178.9,151.8,180.4,148.5,181.2z M256.6,181c-2.5-1.7-6.6-1.7-9.7-0.2c0.6,2.1,2.5,0.5,3.9,1.4c0.1,1.8,0.2,3.9,0.3,5.9
		c0,0.6-0.1,1.2,0.1,1.7c0.1,0.4,0.7,0.8,1,0.8c0.3,0,0.8-0.5,0.9-0.9c0.1-1.2,0-2.4,0-3.6c0-1.4,0-2.8,0-4.2
		C254.2,181.6,255.2,181.4,256.6,181z M296.2,190.7c-1-1.1-0.8-1.9,0-2.8c0.8-0.9,1.6-1.9,2.3-3c0.3-0.4,0.3-1.1,0.4-1.6
		c-0.2-0.1-0.4-0.2-0.5-0.3c-2.1,0.9-2.2,3.7-4.3,4.5c-1-1.5-1.6-1.9-2.5-1.5c-1.1,0.4-1.4,1.4-1.4,2.5c-0.1,1.1,0.2,2.3,1.3,2.5
		C292.8,191.5,294.4,191.7,296.2,190.7z M302.7,176.6c1,0.4,2,0.8,3,1.2c-1.1,1.2-3.5,1.4-2.5,3.9c1.5,0,2.9,0.7,4.6-0.4
		c-0.5-0.6-1-1-1.6-1.6c0.8-0.5,1.5-0.9,2.2-1.3c0.6-0.4,0.8-1,0.2-1.6C307.9,176,304.3,175.5,302.7,176.6z M290.9,183.3
		c1.4-0.2,2.7-0.3,4-0.6c1.3-0.3,2-1.5,1.5-2.5c-0.6-1.4-1.6-2.6-3.3-2.8c-1.4-0.2-2.2,0.2-2.8,1.6
		C289.7,180.3,290,181.7,290.9,183.3z M128.4,181c-0.1,0.3-0.2,0.7-0.2,1c0,1.8,0.1,3.6,0.2,5.5c0.1,1.3,0.1,2.7,0.2,4
		c0.1,0.7,0.5,1.3,1.2,1.1c0.3-0.1,0.7-0.8,0.7-1.3c0-2.5-0.2-4.9-0.3-7.4c0-0.7-0.1-1.4-0.3-2.1C129.7,181.1,129.4,180.7,128.4,181
		z M184.7,206.1c0.1,0,0.1,0,0.2,0c0-0.2,0-0.5,0-0.7c-0.2-1.2-0.4-2.4-0.8-3.5c-0.2-0.4-0.9-1-1.4-0.9c-0.9,0.1-0.7,0.8-0.5,1.5
		c0.2,1.2,0.3,2.5,0.5,3.8c0.1,1.2,0.1,2.4,0.3,3.6c0.1,0.8,0.5,1.4,1.4,1.2c0.8-0.2,1.1-0.7,0.9-1.6
		C185,208.3,184.9,207.2,184.7,206.1z M230.1,180.6c0.1,3.2,0.1,6.3,0.2,9.4c0,0.9,0.7,1.4,1.7,1.2c0.2-0.2,0.4-0.4,0.4-0.6
		c-0.1-3-0.2-6-0.4-9C231.9,180.6,231.1,180.4,230.1,180.6z M163.2,205.7c-0.1,0-0.1,0-0.2,0c0-1.3,0.1-2.7-0.1-4
		c0-0.4-0.7-0.8-1.1-1c-0.1-0.1-0.8,0.6-0.8,0.9c0,2.5,0.1,5.1,0.2,7.6c0,0.7,0.4,1.2,1.2,1.1c0.9-0.1,1.1-0.7,1-1.5
		C163.4,207.8,163.3,206.8,163.2,205.7z M293.6,200.3c0.9-0.9,1.6-1.7,2.4-2.5c-0.1-0.2-0.2-0.4-0.3-0.5c-1.8,0.5-3.8,0-5.6,1.4
		c0.4,0.4,0.7,0.6,1,0.8c0.3,0.2,0.7,0.4,1.3,0.8c-0.6,0.3-1,0.5-1.3,0.7c-0.3,0.2-0.7,0.5-1,0.8c2.2,1.2,4,1.1,5.3-0.1
		C294.8,201.2,294.3,200.8,293.6,200.3z M305.6,187.6c1.7,0,2.4-0.6,2.4-1.9c0-1.4-1.5-2.9-2.9-3c-1.3-0.1-2.3,1.1-2.3,2.7
		C302.8,186.8,303.8,187.6,305.6,187.6z M289.2,209.2c1.5-0.6,2.8-1.1,4.1-1.6c0.4-0.2,0.6-0.6,0.9-1c-0.4-0.3-0.8-0.7-1.3-0.8
		c-0.6-0.1-1.2,0.2-1.8,0.3c-0.3-0.9-0.6-1.6-0.9-2.4c-0.2,0-0.5,0.1-0.7,0.1C289.3,205.6,287.8,207.3,289.2,209.2z M302.9,194.1
		c-0.5-0.7-0.9-1.2-1.3-1.8c-0.2,0.1-0.4,0.1-0.6,0.2c-0.4,1.9,0.1,3.8,0.3,5.7c0,0.1,0.5,0.3,0.8,0.3c0.3-0.1,0.6-0.3,0.6-0.6
		c0.1-0.6,0.1-1.2,0.2-1.8c0.6-0.1,1.1-0.2,1.5-0.3c0.5-0.1,1-0.3,1.5-0.5C305.3,193.6,304,194.5,302.9,194.1z M306,199.7
		c-2.1-1-3.7-0.9-4.9,0.4C302.4,201,304.3,200.9,306,199.7z M301.5,191.7c2,0.2,3.5,0.1,5.2-0.7C304.7,189.5,303,189.7,301.5,191.7z
		 M295.3,194.5c0-0.2,0-0.4,0-0.6c-1.5-1.1-2.7-1-4.5,0.5c0.2,0.2,0.5,0.6,0.6,0.6C292.8,194.8,294.1,194.6,295.3,194.5z
		 M300.7,188.6c-1-0.4-1.6-0.3-1.8,0.6c0,0.2,0.1,0.5,0.3,0.6C300,190,300.5,189.6,300.7,188.6z M299.4,198.2
		c-0.3,0.3-0.5,0.5-0.7,0.7c0.3,0.2,0.5,0.5,0.8,0.6c0.2,0,0.4-0.3,0.7-0.5C299.9,198.8,299.7,198.6,299.4,198.2z"/>
	<path class="st0" d="M5.8,146.7c-0.2-1.3-0.4-2.2-0.4-3.1c0.2-6.2,0.4-12.4,0.7-18.7c0.2-6,0.6-12,0.8-17.9
		c0.2-4.4,0.2-8.9,1.7-13.2c0.7-2.2,0.7-4.6,1.1-6.8c0.2-0.9,0.4-1.8,0.7-2.8c0.5-0.1,0.9-0.2,1.3-0.2c4.3-0.4,8.5-1,12.8-1.2
		c6.1-0.4,12.3-0.7,18.5,0.3c0,0.8,0.1,1.5,0.1,2.2c-0.6,10.5-1.1,21.1-1.8,31.6c-0.6,8.7-1.3,17.4-2,26c-0.1,1-0.3,1.9-0.4,2.8
		c-0.2,2-0.5,2.3-2.6,2.1c-2.1-0.2-4.1-0.5-6.2-0.7c-3.3-0.3-6.7-0.6-10-0.8c-2.8-0.1-5.6-0.1-8.4,0C10,146.3,8.1,146.5,5.8,146.7z"
		/>
	<path class="st0" d="M26,182.4c-0.7,1-1.9,1.2-3.3,1.2c-3.8,0.1-7.6,0.4-11.5,0.6c-0.3,0-0.6,0-1,0c0.3-12,0.8-23.8,1.8-35.5
		c4.5-1.1,16.5-0.5,26.3,1.2c-0.1,1.5-0.2,2.9-0.4,4.4c-0.4,6.5-0.9,13-1.4,19.6c-0.1,0.8-0.5,1.6-0.7,2.4c-0.1,0.9-0.1,1.9-0.1,2.8
		c0,1.4,0,2.8,0,4.3c-2.1,0-4.1,0.1-6,0C28.7,183.3,27.5,182.8,26,182.4z"/>
	<path d="M440.2,157.4c-0.7,2.3-3.1,4.1-5.6,4.2c-0.7,0-1.4,0-2.2-0.1c-5.8-1-11.6,0.2-17.5,0.3c-1.8,0.1-3.7,0.2-5.5,0.2
		c-3.1,0-6.2,0-9.3,0c-5.4-0.1-10.9-0.3-16.3-0.4c-2.5,0-5,0.1-7.4,0c-4.3-0.1-8.6-0.5-12.9-0.5c-5.1,0-10.2,0.2-15.3,0.5
		c-6.2,0.3-12.4,0.8-18.7,1.1c-8.1,0.4-16.3,0.6-24.4,0.9c-4.4,0.1-8.8,0.2-13.2,0.3c-6.7,0.1-13.3,1.5-19.9,2.5
		c-5.5,0.8-11,1.3-16.7,0.6c-5.9-0.7-12-0.7-17.9-0.6c-6,0.1-12,0.5-17.9,0.9c-6.2,0.3-12.4,0.7-18.6,1.1
		c-5.3,0.3-10.5,0.9-15.8,1.1c-7.1,0.3-14.1,1-21.3,0.5c-4.2-0.3-8.5,0.1-12.7,0.1c-1.6,0-3.2,0-4.8,0.1c-4.1,0.2-8.3,0.5-12.4,0.7
		c-6,0.2-12,0.2-18,0.4c-7,0.2-14,0.5-21.1,0.8c-0.7,0-1.4,0-2.2,0c-11.1,0-22.2,0-33.3,0.2c-4.1,0-8.1,0.4-12.2,0.7
		c-1.1,0.1-2-0.1-2.9-0.8c0.4-1,1.2-1,2-1c10.8-0.2,21.6-0.3,32.3-0.5c2.6,0,5.3-0.4,7.9-0.3c7.4,0.2,14.7-0.2,22-0.4
		c6.5-0.2,13-0.1,19.4-0.2c3.9-0.1,7.8-0.6,11.7-0.7c3.3-0.2,6.5-0.2,9.8-0.2c6.8-0.1,13.6-0.1,20.4-0.3c6.6-0.2,13.2-0.6,19.8-0.9
		c4.6-0.2,9.3-0.4,13.9-0.7c3.2-0.2,6.4-0.5,9.5-0.7c3.5-0.2,7-0.5,10.5-0.7c5.1-0.3,10.2-0.6,15.3-0.8c1.6-0.1,3.2,0.2,4.8,0.2
		c2.5,0,4.9-0.1,7.4,0c3.7,0.2,7.5,0.9,11.2,0.9c3.7,0,7.5-0.6,11.2-1.2c5.5-0.9,11-2.1,16.6-2.1c5.1-0.1,10.2-0.2,15.3-0.4
		c4.5-0.2,8.9-0.5,13.4-0.7c3.5-0.1,7-0.2,10.5-0.3c6.6-0.3,13.2-0.7,19.8-1c3.6-0.2,7.2-0.7,10.7-0.7c4.7,0,9.4,0.5,14.1,0.6
		c2.2,0.1,4.5-0.2,6.7-0.2c4.7,0.1,9.4,0.3,14.1,0.4c5.6,0.1,11.2,0.2,16.8,0c3-0.1,6-0.7,9-0.8c4.1-0.1,8.3-0.3,12.5,0.1
		c2.3,0.2,4.2,0,6-1.5C439.4,157.7,439.7,157.6,440.2,157.4z"/>
	<path d="M192.2,155.7c-1.1,0.4-1.8,0.2-1.9-0.8c-0.2-1.4-0.6-2.9-0.6-4.3c0.2-5.6,0.5-11.2,0.8-16.7c0.3-5.3,0.8-10.5,1.1-15.8
		c0.3-4,0.5-8,0.6-12c0.2-7.4,0.1-14.9,0.4-22.3c0.3-6.8,1-13.5,1.4-20.3c0.2-2.8,0.3-5.6,0.4-8.3c0.1-0.8,0.2-1.7,0.4-2.5
		c1.5,0,2,0.5,1.8,1.7c-0.4,4.7-0.9,9.4-1.2,14.1c-0.4,5.8-0.8,11.6-1,17.5c-0.2,6.2-0.2,12.5-0.5,18.7c-0.5,10.1-1.2,20.2-1.8,30.3
		c-0.3,5.1-0.5,10.2-0.6,15.3C191.8,152,192.1,153.8,192.2,155.7z"/>
	<path d="M203.2,52.2c0,2.5,0.1,4.8,0,7.1c-0.4,5.8-1,11.6-1.4,17.4c-0.4,5.6-0.6,11.3-0.9,16.9c-0.3,7-0.6,14-1,21
		c-0.2,2.6-0.7,5.2-1,7.8c-1.1,8.3-1.7,16.7-1.9,25.1c-0.1,2.3-0.3,4.6-0.4,6.9c0,0.5-0.1,1-0.2,1.4c-0.1,0.2-0.5,0.5-0.7,0.5
		c-0.3-0.1-0.7-0.3-0.9-0.6c-0.1-0.2-0.1-0.6,0-0.9c0.2-5.4,0.3-10.9,0.7-16.3c0.5-6.8,1-13.5,2.2-20.2c0.7-3.6,0.7-7.3,0.9-11
		c0.4-7.6,0.6-15.1,1-22.7c0.3-6.5,0.7-12.9,1-19.4c0.1-2.2,0.5-4.4,0.6-6.7c0.1-1.5,0-3-0.1-4.5C201.2,52.5,201.4,52.4,203.2,52.2z
		"/>
	<path d="M262.9,43c1.5-0.2,2.6-0.4,3.6-0.5c1.9-0.2,2.2,0,2.4,1.8c0.3,2.6,0.5,5.3-1.1,7.6c-0.9,1.5-2.1,2.1-4,2
		c-3.8-0.3-6.7-2.1-9.2-4.5c-2.2-2.1-2.5-4.7-1.5-7.5c0.2-0.5,0.9-1.1,1.3-1.1c0.9,0.1,0.9,0.9,0.7,1.7c-1.2,4.2,0.9,6.2,3.7,7.8
		c1.1,0.6,2.3,1.1,3.5,1.5c2.6,0.7,4.3-0.5,4.5-3.2c0.1-1.2-0.1-2.5-0.2-4.1c-1.3,0.2-2.4,0.4-3.6,0.7c0,0.9,0.1,1.6,0,2.4
		c-0.1,0.4-0.5,0.8-0.8,1.3c-0.4-0.3-1.2-0.6-1.2-0.9c-0.1-2.2-0.1-4.4-0.1-6.7c0-0.4,0.5-0.9,0.9-1c1.9-0.8,3.8-1.5,5.8-2.2
		c0.8-0.3,1.5,0,1.7,0.9c0.3,1-0.6,1.1-1.3,1.3c-1.4,0.5-2.8,0.9-4.2,1.5C263.5,41.8,263.3,42.3,262.9,43z"/>
	<path d="M307.8,23.6c1.7-0.2,1.6,0.7,1.6,1.6c0,3.4,0,6.7,0,10.1c-0.1,8.2-0.1,16.4-0.2,24.7c0,4.4,0,8.8,0,13.2
		c0,0.6,0.1,1.3,0,1.9c-0.1,0.5-0.4,1.2-0.8,1.2c-0.8,0.2-1.1-0.5-1.2-1.2c-0.1-1-0.3-2.1-0.2-3.1c0.1-5.7,0.1-11.5,0.5-17.2
		c0.4-6.2-0.1-12.4,0-18.7c0.1-3.3,0-6.6,0-9.8C307.5,25.4,307.7,24.5,307.8,23.6z"/>
	<path d="M241.2,83.9c-2.8,3-5.6,6-8.7,9.4c2.9,0.1,5.5,0.1,8,0.2c0.6,0,1.1-0.1,1.7,0.1c0.3,0.1,0.8,0.6,0.7,0.8
		c-0.1,0.4-0.4,0.9-0.8,1c-0.6,0.2-1.3,0.1-1.9,0.1c-5.3,0-10.7,0-16-0.1c-1,0-2-0.3-2.9-0.4c-0.9-3.9,0.2-7.2,2.9-9.1
		c2.8-1.9,5.5-1,6.6,2.1c0.3,0.8,0.6,1.6,1,2.9c1.9-1.9,3.6-3.6,5.2-5.3c0.7-0.7,1.2-1.5,1.9-2.2C239.7,82.6,240.4,82.7,241.2,83.9z
		 M223.1,93.2c2.5,0,4.8,0,7.2,0c-0.4-1.6-0.7-3.1-1.2-4.5c-0.8-2.4-2.3-2.8-4.3-1.1C223.1,89,223.1,91,223.1,93.2z"/>
	<path d="M251.4,58.7c0.6-1.4,2-1.2,3.1-1.2c2.5-0.1,5,0,7.4-0.1c1.8-0.1,3.6-0.3,5.5-0.4c0.9-0.1,1.8,0,1.9,1.5
		c-0.6,0.2-1.2,0.5-1.9,0.7c0.5,0.9,0.8,1.6-0.6,2.2c-3.2,1.2-6.3,2.6-10,4.2c1,0,1.5,0.1,1.9,0c2.6-0.4,5.2-0.8,7.8-1.2
		c0.5-0.1,1.1-0.2,1.4,0.1c0.4,0.2,0.7,0.8,0.7,1.3c0,0.3-0.6,0.9-0.9,0.8c-4.9-0.3-9.6,1.2-14.4,1.8c-1.2,0.1-1.8-0.1-2.4-1.1
		c1.6-2.2,4.2-2.9,6.6-3.9c2.2-1,4.5-2,6.7-3.1c0-0.2-0.1-0.4-0.1-0.5c-0.6,0-1.2-0.1-1.7-0.1c-3.1,0.1-6.2,0.3-9.3,0.4
		C252.2,59.8,251.6,59.6,251.4,58.7z"/>
	<path d="M302.7,23.5c0.1,1.1,0.4,2.1,0.4,3.2c0,10.6,0,21.2-0.1,31.9c0,5.7-0.3,11.3,0.2,17c0.1,0.8,0,1.6-0.1,2.4
		c-0.1,0.9-0.2,0.9-1.8,1c-0.1-0.4-0.2-0.9-0.2-1.3c0.1-9.3,0.2-18.7,0.2-28c0-6.9,0.1-13.7,0.1-20.6c0-1.4,0.1-2.7,0.2-4.1
		c0-0.5,0.3-1,0.5-1.4C302.4,23.5,302.6,23.5,302.7,23.5z"/>
	<path d="M241,136.4c0.3,1.8-0.7,2.5-2.1,3c-2.5,0.9-5,1.7-7.4,2.7c-1.4,0.6-2.8,1.4-4,2.4c3.7-0.2,7.4,0.8,11.1-0.3
		c1-0.3,1.5,0.4,1.7,1.2c0.2,1-0.5,1.2-1.3,1.2c-0.8,0-1.6,0-2.4-0.1c-3.7-0.4-7.5-0.4-11.2,0.1c-0.9,0.1-1.8-0.2-2.8-0.3
		c0.5-1.6,1.5-2.5,2.6-3.1c2.5-1.3,5-2.4,7.5-3.6c1-0.5,2-0.9,3.3-1.5c-2.6-1.2-4.9-1-7.2-1.5c-2.1-0.5-4.4,0.2-6.5-0.6
		c0.3-1.6,1.2-1.6,2.2-1.6c1.9,0.1,3.8,0.3,5.7,0.5c3.2,0.3,6.3,0.6,9.5,0.9C240.1,136.1,240.6,136.3,241,136.4z"/>
	<path d="M247.9,114.5c0.6-1.3,1.2-2.1,1.3-2.9c0.6-4.6,3.9-6.8,7.6-8.4c1.4-0.6,3.1-0.8,4.6-1.1c1.6-0.2,3.9,1.2,4.6,2.9
		c1.1,2.5,2,5,2,7.8c0,0.5,0.2,0.9,0.4,1.7c-0.9,0.1-1.7,0.4-2.5,0.4c-4.4-0.1-8.8-0.2-13.1-0.3c-0.9,0-1.9,0.2-2.9,0.2
		C249.4,114.8,248.7,114.6,247.9,114.5z M251.3,112.5c5,0.8,9.9,0.7,14.9,0.3c-0.6-2.2-1.1-4.3-1.7-6.3c-0.7-2-2-2.8-4.1-2.3
		c-2.3,0.5-4.6,1.2-6.5,2.7C252,108.3,251.3,110.1,251.3,112.5z"/>
	<path d="M228,75.1c2.6,0,4.7-0.2,6.7,0.1c2.3,0.3,4.6,1,6.9,1.7c1.4,0.4,1.2,1.3,0.4,2.2c-4.6-2.5-9.5-2.3-14.5-2
		c-1.2,0.1-2.4,0-3.9,0c1-3,4.3-3.3,5.7-5.4c-0.6-1.1-1.6-1.1-2.5-1.2c-0.6-0.1-1.1,0.1-1.7-0.1c-0.4-0.1-0.9-0.5-0.9-0.8
		c0-0.3,0.4-0.9,0.7-1c1.1-0.3,2.2-0.6,3.3-0.7c4-0.5,8-1.6,12.1-1.3c1,0.1,2.7-0.6,2.8,0.9c0.1,1.6-1.6,1.1-2.6,1.1
		c-3.3-0.1-6.5,0.1-10.1,1.5c0.4,0.2,0.9,0.2,1.1,0.5c0.9,1.1,0.8,1.7-0.4,2.5C230.3,73.7,229.4,74.2,228,75.1z"/>
	<path d="M230.5,110.9c0-2.2,0-4,0-5.8c0-0.8-0.3-2,1.1-2c1.2,0.1,1,1.2,1,2.1c0,1.3,0,2.7,0.1,4c0,0.6,0.4,1.2,0.6,1.8
		c1.6-0.1,3-0.3,4.5-0.3c1.1,0,1.5-0.5,1.6-1.6c0.1-2.6,0.3-5.1,0.5-7.6c0-0.3-0.1-0.7,0.1-0.9c0.3-0.4,0.6-1.1,1-1.1
		c0.8,0,0.9,0.7,0.9,1.4c-0.2,2-0.4,4-0.5,5.9c-0.1,1.1,0,2.2,0,3.3c0,1.6-0.2,2-1.7,2.3c-1.9,0.4-3.8,0.6-5.7,0.7
		c-3.1,0.2-6.2,0.2-9.3,0.2c-0.9,0-1.8-0.2-3.3-0.3c2.2-1.7,1.4-3.4,1.4-5.1c0-1.9,0-3.8,0.1-5.7c0-0.6,0.1-1.4,1-1.4
		c1.1,0.1,1,1,0.9,1.6c-0.6,2.2-0.4,4.4,0,6.7c0.3,2.1,0.4,2.2,2.6,2.2C228.1,111.1,229.3,111,230.5,110.9z"/>
	<path d="M237.5,50.9c-3.3-0.2-6.7-0.3-10-0.6c-1.8-0.1-2.4-0.8-2.2-2.6c0.2-1.9,1.1-3.5,3-4c4.8-1.3,9.7-1.9,14.7-1.4
		c2,0.2,2.7,1.1,3,3.1c0.1,0.6,0.1,1.3,0.1,1.9c-0.2,3-0.6,3.3-3.5,3.3c-1.7,0-3.4,0-5,0C237.5,50.6,237.5,50.7,237.5,50.9z
		 M227.5,48.3c0.8,0.1,1.7,0.4,2.6,0.4c4,0,8,0,12,0c1.9,0,2.7-1.3,2-3c-0.5-1.2-1.4-1.7-2.6-1.6c-3,0.2-6,0.3-9,0.6
		c-1.1,0.1-2.2,0.5-3.2,0.8C228,45.9,227.3,46.7,227.5,48.3z"/>
	<path d="M246.9,139.5c0.7-0.4,1.4-1,2.1-1.2c5-1.7,10.1-3.4,15.2-5.1c0.3-0.1,0.6-0.3,0.9-0.3c0.3,0.1,0.7,0.3,0.9,0.6
		c0.1,0.2,0,0.7-0.2,0.8c-0.5,0.4-1,0.7-1.6,1c-1.2,0.5-2.4,1-3.7,1.5c-0.2,1.7-0.3,3.4-0.5,5.4c1.5,0.2,2.8,0.4,4.1,0.6
		c0.6,0.1,1.1,0.1,1.7,0.2c0.7,0.1,1.3,0.5,1,1.3c-0.1,0.3-0.9,0.7-1.3,0.6c-1.5-0.2-3-0.7-4.5-0.7c-3.8-0.1-7.1-1.7-10.7-2.5
		c-1.1-0.2-2.1-1-3.2-1.5C247,140,246.9,139.7,246.9,139.5z M258.6,137.4c-2.9,0.3-5.1,1.3-7.4,2.8c2.2,0.5,4.3,1.1,6.7,1.7
		C258.1,140.2,258.3,138.9,258.6,137.4z"/>
	<path d="M238,28.5c-0.1,0.3-0.1,0.6-0.2,0.9c-0.1,1.6,0.1,1.8,1.6,2c0.8,0.1,1.6,0,2.4,0.1c0.7,0.1,1.5,0.4,1.4,1.3
		c-0.1,0.9-0.9,1.1-1.6,1c-2-0.4-4-0.8-6.1-1.2c-1.9-0.4-3.7-0.8-5.6-1.2c-1.7-0.3-3-1.2-4.8-2.3c0.9-0.5,1.4-1,1.9-1.1
		c3.3-0.7,6.6-1.3,9.8-1.8c2.2-0.3,4.4-0.5,6.6-0.7c0.5,0,1-0.3,1.4-0.1c0.4,0.2,0.7,0.7,1.1,1c-0.3,0.3-0.6,0.8-1,0.9
		C242.7,27.8,240.5,28.1,238,28.5z M235.6,28.7c-1.8,0-3.5-0.2-5.4,0.7c1.7,0.5,2.9,0.9,4.3,1.1C235.6,30.7,236.1,30.1,235.6,28.7z"
		/>
	<path d="M227.6,60.2c2,0,3.7,0,5.6,0c0.1-1,0-1.9,0.3-2.8c0.1-0.5,0.7-1.2,1.1-1.2c0.8-0.1,0.9,0.7,0.8,1.4c0,0.8,0,1.7,0,2.7
		c2.1,0,4.1,0,6.4,0c0-1.5,0-2.9,0-4.3c0-0.7,0.1-1.3,1-1.3c0.8,0,1,0.5,1,1.3c0,1.4,0.2,2.9,0.2,4.3c0.1,1.9-0.3,2.3-2.1,2.3
		c-4.6-0.1-9.2-0.2-13.8-0.3c-2-0.1-2.5-0.6-2.6-2.6c-0.1-1.1,0-2.2-0.1-3.3c0-0.8-0.3-2.1,0.8-2.1c1.4-0.1,1,1.3,1.1,2.2
		C227.5,57.5,227.5,58.8,227.6,60.2z"/>
	<path d="M248.8,120c0.4-0.4,0.8-1,1.2-1.1c4.4-0.9,8.7-0.9,12.7,1.6c1.6,1,2.7,2.5,2.6,4.5c-0.1,1.7-0.8,2.9-2.4,3.5
		c-2.5,0.9-5,1.6-7.7,1.4c-1.9-0.1-3.8-0.2-5.7-0.4c-0.4,0-0.7-0.7-1.1-1c0.4-0.2,0.9-0.7,1.3-0.6c2.8,0.4,5.5,0.7,8.3,0.1
		c1.2-0.3,2.4-0.4,3.4-0.9c2-0.8,2.4-2.7,0.9-4.2c-0.9-0.9-2.2-1.6-3.4-2c-2.5-0.8-5-0.7-7.6-0.4c-0.8,0.1-1.5,0.2-2.3,0.2
		C249,120.5,248.9,120.3,248.8,120z"/>
	<path d="M324.2,37.6c-0.3,5.5-0.6,11-0.9,16.5c0,0.8-0.3,1.5-1.2,1.3c-0.4-0.1-0.7-0.9-0.7-1.5c-0.1-0.9,0.1-1.8,0.2-2.6
		c0.6-4.9,0.6-9.9,0.4-14.8c-0.1-3.6-0.1-7.2-0.1-10.8c0-0.4-0.1-0.8,0.1-1.2c0.1-0.3,0.6-0.6,0.9-0.6c0.3,0,0.8,0.3,0.9,0.6
		c0.2,0.4,0.1,0.9,0.1,1.4c0,3.9,0,7.8,0,11.7C323.9,37.6,324,37.6,324.2,37.6z"/>
	<path d="M253.7,84.1c1.4,0,2.4,0,3.4,0c3.4,0,6.8,0.1,10.2,0.2c0.4,0,0.9,0.2,1.2,0.5c0.5,0.5,0.2,1.3-0.5,1.5
		c-0.5,0.1-1.1,0.1-1.7,0c-4.2-0.7-8.4-0.3-12.6,0c-0.2,0-0.4,0.1-0.8,0.3c-0.4,1.7-0.5,3.4,0.8,5.2c-0.8,0.3-1.5,0.8-2.1,0.7
		c-0.4-0.1-0.9-1.1-0.9-1.7c0-2.5-0.3-5.1,0.5-7.5c0.2-0.7,0.3-1.6,0.3-2.3c0-0.9-0.2-2,1.1-1.9c1.3,0.1,0.9,1.3,0.9,2.1
		C253.7,82,253.7,83,253.7,84.1z"/>
	<path d="M328.7,39.9c0-4.5,0-9.1,0-13.6c0-0.4-0.1-0.8,0.1-1.2c0.1-0.3,0.5-0.7,0.8-0.7c0.3,0,0.8,0.3,0.9,0.6
		c0.2,0.5,0.2,1.1,0.2,1.6c0,5.3-0.1,10.7-0.1,16c0,3.4,0,6.8,0,10.3c0,0.9,0.3,2.3-1,2.3c-1.4,0-0.9-1.4-0.9-2.2
		c0-4.4,0-8.8,0-13.2C328.5,39.9,328.6,39.9,328.7,39.9z"/>
	<path d="M314.7,24.6c1.2-0.5,1.7-0.1,1.8,0.9c0.1,1,0,1.9,0,2.9c-0.2,6.6-0.3,13.2-0.5,19.8c0,2-0.1,3.9-0.1,5.9
		c0,0.8-0.1,1.6-1.1,1.5c-0.9,0-1.1-0.8-1.1-1.6c0-1.1,0.3-2.2,0.3-3.3c0.2-8.1,0.4-16.1,0.6-24.2C314.6,25.9,314.7,25.2,314.7,24.6
		z"/>
	<path d="M223.1,124.4c0,1.4,0.1,2.7,0,4c-0.1,0.5-0.6,1.3-0.9,1.4c-0.9,0.1-1.1-0.6-1.1-1.5c0.1-2.6,0.1-5.1,0.2-7.7
		c0-0.6,0-1.2,0.3-1.6c0.2-0.3,0.8-0.6,1.1-0.5c0.3,0.1,0.7,0.7,0.7,1c0,0.8-0.3,1.5-0.5,2.6c2.6,0,5,0,7.4,0
		c2.9,0.1,5.7,0.2,8.6,0.3c0.5,0,1,0.1,1.4,0.3c0.3,0.2,0.5,0.7,0.5,1c0,0.3-0.4,0.8-0.7,0.8c-1,0.1-2.1,0-3.1,0
		c-4.3-0.1-8.6-0.2-12.9-0.3C223.8,124.2,223.5,124.3,223.1,124.4z"/>
	<path d="M231.1,12.2c1.8,0.2,3.6,0.4,5.3,0.6c0.6-0.9,1-1.5,1.7-2.6c0.5,1.1,0.6,2,1.1,2.4c0.7,0.5,1.6,0.5,2.5,0.7
		c0.8,0.2,1.5,0.2,2.3,0.4c0.5-2,1-3.9,1.6-5.8c0-0.1,0.4,0,0.8-0.1c0,1.1,0,2.1,0,3.1c0,1.1-0.1,2.2,0,3.3c0.1,1.6-0.3,2-1.9,1.7
		c-2.3-0.4-4.5-1-6.8-1.3c-2-0.2-4.1-0.3-6.2-0.2c-2.2,0.1-2.8-0.4-2.4-2.5c0.1-0.6,0.1-1.1,0.3-1.7c0.2-0.8-0.3-2.1,1.1-2
		c1.4,0.1,0.8,1.3,0.8,2.1C231.1,10.9,231.1,11.5,231.1,12.2z"/>
	<path d="M230.3,18.9c4.8-0.6,9.5,0.2,14.2,0.3c0.1,0,0.2,0,0.2,0c0.5,0.3,1.3,0.7,1.3,1.1c0.1,0.8-0.6,1.2-1.5,1.1
		c-2-0.2-4-0.4-5.9-0.5c-1.7-0.1-3.3-0.2-5-0.3c-1.2,0-2.2,0.2-2.6,1.5c-0.1,0.3-0.8,0.8-1.1,0.7c-0.4-0.1-1.1-0.6-1.1-1
		c-0.3-1.6-0.4-3.3-0.5-5c0-0.4,0.6-0.7,0.9-1.1c0.3,0.4,0.8,0.7,0.9,1.1C230.3,17.5,230.3,18.2,230.3,18.9z"/>
	<path d="M269.4,74.5c-1.6,0.5-2.6,1.1-3.6,1.1c-4.8,0-9.5-0.1-14.3-0.2c-0.4,0-0.7-0.2-1-0.4c-0.2-1.2,0.5-1.6,1.3-1.7
		c0.9-0.1,1.8-0.1,2.6,0c3.7,0.3,7.4,0.4,11.1-0.1c0.7-0.1,1.4-0.1,2.1,0C268.1,73.4,268.4,73.8,269.4,74.5z"/>
	<path d="M222.7,155.9c0.6-1.3,1.6-1.3,2.3-1.4c3.1-0.6,6.3-1,9.4-1.5c1.3-0.2,2.7-0.4,4-0.6c0.5-0.1,1.1-0.1,1.6,0
		c0.3,0.1,0.7,0.5,0.7,0.8c0,0.3-0.3,0.7-0.6,0.9c-0.2,0.2-0.6,0.3-0.9,0.3c-5.1,0.5-10.3,1.1-15.4,1.6
		C223.6,156,223.3,155.9,222.7,155.9z"/>
	<path d="M264,98.3c-3.8-0.5-7.5-0.9-11.3-1.4c-0.4,0-0.8-0.1-1.1-0.3c-0.3-0.2-0.6-0.6-0.6-0.9c0-0.3,0.4-0.7,0.7-0.8
		c0.3-0.1,0.8-0.1,1.2,0c4.3,1.1,8.6,1.5,13,1c0.3,0,0.7-0.1,0.9,0.1c0.4,0.3,0.9,0.8,0.9,1.2c0,0.4-0.7,0.9-1.1,1
		c-0.8,0.2-1.7,0-2.6,0C264,98.2,264,98.3,264,98.3z"/>
	<path d="M239.2,39.2c-3.5-0.2-7-0.4-10.4-0.6c-0.2,0-0.4,0-0.5-0.1c-0.4-0.3-0.7-0.7-1.1-1.1c0.4-0.3,0.8-0.9,1.2-0.9
		c1.7,0,3.5,0.1,5.2,0.1c2.7,0.1,5.4,0.2,8.1,0.3c0.7,0,1.5-0.2,1.7,0.8c0.1,1-0.6,1.4-1.5,1.4C240.9,39.2,240,39.2,239.2,39.2z"/>
	<path d="M423.1,82.3c1.3,0,2.3,0.4,3,1.6c0.6,1.1,0.1,2-0.5,2.9c-0.1,0.2-0.3,0.4-0.4,0.6c-1.2,1.4-3,2-4.2,1.3
		c-1.2-0.7-1.6-2-1.2-3.5C420.2,83.4,421.5,82.4,423.1,82.3z M421.3,86.6c1.3,0.9,2,0.2,2.6-0.5c0.4-0.5,0.8-1.2,0-1.6
		c-0.5-0.2-1.4,0-1.8,0.3C421.7,85.2,421.6,85.9,421.3,86.6z"/>
	<path d="M337.7,56.6c-1.2-2.4-1-3.8,0.5-5c0.4-0.3,1.2-0.3,1.7,0c0.6,0.4,1.1,1.1,1.8,1.9c0.2-1,0.3-1.8,0.6-2.4
		c0.2-0.4,0.7-0.7,1.1-1c0.2,0.4,0.7,0.9,0.6,1.3c-0.2,1.3-0.4,2.7-0.8,3.9c-0.4,1.3-1.4,1.4-2.3,0.3c-0.5-0.7-1-1.4-1.7-2.4
		C338.7,54.3,338.3,55.2,337.7,56.6z"/>
	<path d="M337.1,45.5c-0.5-2.1-0.3-2.7,1.3-3.8c1.3-0.9,2.5-0.6,3,0.9c0.6,1.5,0.1,3-0.6,4.3c-0.5,1-2,1.3-3.2,0.7
		c-0.6-0.3-1.2-0.8-1.7-1.1C335.9,45.6,336.3,45.3,337.1,45.5c0.7,0.3,1.4,0.6,2.1,0.9c0.8-1.3,1.1-2.2,0-3.7
		c-0.3,0.8-0.6,1.3-0.7,1.8C338.3,45.5,337.8,45.6,337.1,45.5z"/>
	<path d="M337.2,34.7c0.1-1.7,1.7-3.4,3.2-3.3c1.2,0.1,2.3,1.8,2.3,3.5c0,1.7-0.9,2.9-2.2,2.9C338.7,37.9,337.1,36.3,337.2,34.7z
		 M340.7,36.1c0.4-1.3,0.2-2.1-0.9-2.9c-0.3,0.8-0.6,1.5-1,2.2C339.5,35.7,340,35.9,340.7,36.1z"/>
	<path d="M343.5,28.8c-1.1,0.1-1.9,0.2-2.7,0.3c-1.6,0.2-3-0.3-3.5-1.5c-0.5-1.1-0.3-3.9,0.4-4.6c0.2-0.2,0.7-0.2,1.1-0.2
		c0.1,1.5,0.2,2.8,0.4,4.5c0.8-0.4,1.2-0.6,1.5-0.9c0.6-0.6,1.3-1.1,2.1-0.7c0.9,0.5,1.3,1.4,1,2.4
		C343.7,28.5,343.6,28.7,343.5,28.8z"/>
	<path d="M375,192c-0.1,5.3-0.2,10.5-0.3,15.8c0,0.3,0,0.7-0.1,0.9c-0.2,0.3-0.5,0.7-0.8,0.7c-0.3,0-0.8-0.3-0.9-0.6
		c-0.2-1.2-0.4-2.4-0.4-3.5c0.2-5.3,0.5-10.5,0.6-15.8c0.1-4.5,0-8.9,0-13.4c0-0.2,0-0.3-0.1-0.5c-0.1-0.7,0.2-1.3,0.9-1.4
		c0.8-0.1,1,0.6,1,1.3c0,1.4,0,2.7,0,4.1C375,183.7,375,187.8,375,192C375,192,375,192,375,192z"/>
	<path d="M377,209c0-3.1,0-6,0-9c0.1-7.1,0.2-14.2,0.3-21.3c0-1.1,0-2.2,0.2-3.3c0.1-0.4,0.5-0.7,0.8-1.1c0.4,0.3,1,0.6,1.1,1
		c0.2,0.5,0.1,1.1,0,1.7c-0.1,8.2-0.3,16.4-0.4,24.7c0,1.8,0.2,3.7,0.3,5.5C379.3,208.3,379,209.2,377,209z"/>
	<path d="M85.5,195.8c0-2.1,0-6,0-9.9c0-0.4,0-0.8,0-1.2c0-0.8,0-1.8,1.2-1.7c1,0.1,0.9,0.9,0.9,1.7c0,2.6-0.1,5.3,0,7.9
		c0.3,7.6,0.7,15.1,1,22.7c0,0.5,0.2,1,0,1.4c-0.1,0.4-0.5,0.9-0.8,0.9c-0.3,0-0.8-0.4-1.1-0.7c-0.2-0.3-0.2-0.8-0.2-1.2
		C86.3,209.7,86,203.6,85.5,195.8z"/>
	<path d="M80.9,182.3c0.1,3.7,0.2,7.1,0.4,10.5c0.2,4.3,0.3,8.6,0.6,12.9c0.2,3.3,0.6,6.5,0.8,9.8c0.1,0.9,0.2,1.9-0.7,2.6
		c-1.3,0-1.3-1-1.4-1.8c-0.3-4-0.6-8-0.8-11.9c-0.3-6.8-0.5-13.6-0.8-20.3C79,182.3,79.4,182,80.9,182.3z"/>
	<path d="M94.3,216.7c-1.6,0.2-1.8-0.6-1.9-1.7c-0.2-4.1-0.5-8.3-0.6-12.4c-0.2-5.1-0.3-10.2-0.4-15.3c0-0.9,0-1.8,0.1-2.6
		c0.1-0.3,0.6-0.8,0.9-0.8c0.3,0,0.8,0.6,0.8,0.9c0.1,0.9,0,1.8,0.1,2.6c0.1,5.7,0.2,11.5,0.4,17.2c0.1,3.3,0.4,6.7,0.6,10
		C94.5,215.3,94.4,216,94.3,216.7z"/>
	<path d="M212.3,200.9c-0.9,0.1-1.6,0.4-2,0.2c-1.3-0.9-2.4-0.6-3.4,0.5c-1.1,1.2-1.9,2.4-1.3,4.1c0.1,0.1,0.1,0.3,0.1,0.5
		c1,3,1.9,3.4,5.1,2.2c0-0.7,0-1.5,0-2.2c-1.3-1.1-3.1,0.4-4.4-1.2c0.5-0.3,0.8-0.6,1.2-0.7c1-0.2,2.1-0.2,3.1-0.3
		c1.6-0.2,2.3,0.3,2.5,1.8c0.2,2,0,4,0,5.9c-0.4,0.1-0.7,0.2-0.8,0.2c-1.4-1.4-3.1-1.4-4.8-1.3c-0.3,0-0.6-0.1-0.9-0.2
		c-3-1.2-4.3-6.3-2.2-8.8c0.5-0.6,1-1.1,1.5-1.6C207.9,197.9,210,198,212.3,200.9z"/>
	<path d="M76.1,217.8c-1.5-0.3-1.4-1.2-1.4-2.1c-0.2-3.4-0.4-6.8-0.6-10.3c-0.4-6.5-0.8-13-1.2-19.6c0-0.7,0.1-1.4,0.2-2
		c1.2-0.2,1.5,0.4,1.6,1.2c0.3,4.4,0.5,8.9,0.8,13.4c0.3,3.6,0.7,7.1,0.9,10.7c0.2,2.5,0.2,4.9,0.3,7.4
		C76.7,216.8,76.3,217.3,76.1,217.8z"/>
	<path d="M192.2,192.3c-1.4,0.3-1.9-0.4-1.8-1.4c0.1-2.8,0.4-5.6,0.6-8.4c0-0.4,0.4-1,0.7-1c0.5,0,1.1,0.2,1.4,0.6
		c0.5,0.6,0.9,1.3,1.4,2.3c0.7-1,1.3-1.9,1.9-2.8c1.3-1.8,2.5-1.8,3.4,0.2c0.9,1.9,1.3,4.1,1.9,6.1c0.2,0.6,0.1,1.5-0.8,1.4
		c-0.5,0-1-0.6-1.3-1.1c-0.2-0.4,0-0.9-0.1-1.4c-0.2-1.3-0.3-2.7-1.6-3.9c-0.6,1.3-1.1,2.5-1.7,3.6c-0.4,0.8-0.5,1.9-1.6,1.8
		c-0.6-0.1-1.2-0.8-1.9-1.4C192.5,188.6,192.4,190.4,192.2,192.3z"/>
	<path d="M197.4,205.9c0-2.2,0-3.9,0-5.5c0-0.5-0.1-1,0.1-1.4c0.2-0.3,0.7-0.6,1.1-0.7c0.3,0,0.7,0.4,0.8,0.7
		c0.2,0.3,0.1,0.8,0.1,1.2c0.1,2.6,0.1,5.3,0.1,7.9c0,0.5-0.2,1.2-0.5,1.4c-0.3,0.2-1,0-1.4-0.3c-0.7-0.6-1.4-1.2-2-1.9
		c-1.2-1.4-2.3-2.9-4.3-3.8c0.2,2.2,0.4,4.2,0.5,6.2c-1.6,0.7-2,0.6-2.2-0.7c-0.2-2.1-0.4-4.1-0.5-6.2c0-0.5,0-1,0.1-1.4
		c0.4-1.3,1.3-1.6,2.3-0.7C193.6,202.2,195.3,203.9,197.4,205.9z"/>
	<path d="M136.3,186.7c0.2,1.1,0.3,2.2,0.5,3.2c0.1,0.7,0.1,1.4-0.6,1.5c-0.8,0.2-1.4-0.4-1.4-1.2c-0.2-2.7-0.4-5.4-0.6-8.1
		c0-0.4,0.3-1.1,0.5-1.2c0.5-0.1,1.1,0.1,1.5,0.4c0.5,0.5,0.8,1.2,1.1,1.8c1,1.9,2,3.7,3.8,5.5c0-2,0-3.6,0-5.2
		c0-0.8-0.1-1.6,0.1-2.4c0.1-0.3,0.7-0.7,1-0.7c0.3,0,0.9,0.5,0.9,0.9c0.1,2.9,0.2,5.7,0.1,8.6c0,0.4-0.7,1-1.1,1.3
		c-0.8,0.6-1.6,0.1-2.1-0.5c-0.9-1-1.6-2.1-2.5-3.2c-0.2-0.3-0.4-0.6-0.7-0.9C136.6,186.6,136.4,186.6,136.3,186.7z"/>
	<path d="M216.7,179.6c4.5,0.2,7.4,2.6,9.4,6.3c0.3,0.6,0.3,1.4,0.2,2.1c-0.5,2-3.2,5-6,4.6c-0.3,0-0.6,0-1-0.1
		c-2-0.1-2.1-0.2-2.2-2.2c-0.2-2.8-0.5-5.5-0.7-8.3C216.4,181.2,216.6,180.5,216.7,179.6z M219.3,190.6c1.8,0.6,3-0.2,4-1.4
		c0.7-0.8,1.5-1.7,1-2.8c-1.1-2.2-2.6-3.9-5.3-4.5C218.5,185,218.9,187.8,219.3,190.6z"/>
	<path d="M163.8,192.5c-0.8-0.4-0.9-1.3-0.9-2.3c0-3.1,0-6.2,0-9.5c2.2-0.7,4.5-1.2,6.9-1.2c0.4,0,0.8,0.5,1.3,0.8
		c0,0.2,0,0.4,0,0.5c-1.9,0.4-3.9,0.9-5.9,1.4c0,1.4,0,2.6,0,4.1c1.4,0.1,2.8,0.2,4.2,0.4c-0.3,1.3-0.3,1.3-4.1,2
		c-0.3,0.8,0.1,1.2,0.9,1.3c1,0.1,2.1,0.1,3.1,0.1c0.6,0,1.2-0.2,1.7,0c0.4,0.1,0.8,0.6,1.1,0.9c-0.3,0.3-0.6,0.8-1,0.9
		c-1,0.2-2.1,0.1-3.1,0.2C166.7,192,165.4,192.3,163.8,192.5z"/>
	<path d="M177.1,180.8c0.3,0,0.6-0.1,0.8-0.1c1.5,0.5,2.9,1,4.4,1.6c0.9,0.4,1.2,1.3,0.9,2.2c-0.2,0.8-0.6,1.5-0.9,2.4
		c0.9,0.5,1.9,1,2.9,1.5c0.5,0.3,1,0.5,1.4,0.9c0.2,0.2,0.3,0.8,0.1,1.1c-0.1,0.3-0.7,0.5-1,0.5c-0.5-0.1-1-0.5-1.5-0.8
		c-1.3-0.9-2.7-1.3-4.5-1.2c-0.1,1,0,2-0.2,3c-0.1,0.5-0.5,0.9-0.7,1.3c-0.4-0.4-1-0.8-1.1-1.3c-0.3-1.9-0.4-3.8-0.6-5.7
		C177,184.5,176.2,182.7,177.1,180.8z M179.4,186.3c1.3-0.5,1.8-1.2,1.7-2.4C179,183.5,178.8,183.8,179.4,186.3z"/>
	<path d="M267.2,180.2c-0.8,0.1-1.6,0.1-2.4,0.2c-0.8,0.1-1.5,0.3-2.4,0.5c0,1,0,1.9,0,2.9c1.8,0.5,3.8-0.4,5.3,1c0,0.2,0,0.4,0,0.6
		c-1.7,0.3-3.3,0.6-4.9,0.8c-0.5,2.2-0.4,2.4,1.6,2.3c0.8,0,1.6-0.1,2.4-0.1c0.7,0,1.6,0,1.6,1c0,0.8-0.7,0.9-1.4,0.9
		c-1.4,0-2.7,0.1-4.1,0.1c-2,0-2.3-0.4-2.4-2.4c-0.1-1.6,0-3.2-0.1-4.8c-0.1-1.1-0.4-2.1-0.6-3.3C262.6,178,266.3,177.9,267.2,180.2
		z"/>
	<path d="M146.6,204c0,2.3-0.5,4.6-1.6,6.6c-0.7,1.2-1.5,2-3,1.8c-1.6-0.1-2.9-0.6-3.4-2.2c-0.8-2.6-1.4-5.2-1-8
		c0-0.2,0-0.6,0.1-0.7c0.4-0.4,0.9-0.7,1.4-1c0.2,0.4,0.8,1,0.7,1.3c-0.4,1.9-0.2,3.8,0.2,5.7c0.1,0.4,0,0.9,0.3,1.2
		c0.4,0.6,0.9,1.3,1.6,1.6c1,0.4,1.3-0.6,1.6-1.3c0.8-1.8,1.2-3.6,1-5.6c-0.1-0.9-0.4-2,1-2.3c0.9-0.2,1.2,0.5,1.2,2.3
		C146.6,203.7,146.6,203.9,146.6,204z"/>
	<path d="M149.6,200.5c1.7,0,3.3-0.2,4.9,0c1.8,0.2,3,1.3,3.5,3.1c0.6,2.4-0.2,5.7-3.2,6.9c-0.7,0.3-1.5,0.6-2.2,0.8
		c-1.4,0.4-2,0-2.2-1.5c-0.2-2.1-0.3-4.3-0.4-6.4C149.7,202.6,149.7,201.8,149.6,200.5z M152.3,202.3c-0.6,2.3-0.4,5.4,0.4,7.1
		c2.6-0.5,3.8-2.3,3.4-5C155.9,202.7,154.7,202.1,152.3,202.3z"/>
	<path d="M212.7,180.1c-1.1,1.6-2.7,1.5-4.3,1.7c-1.1,0.1-2.1,0.4-1.7,2c1.1,0.7,2.9,0,3.9,1.9c-1.2,0.2-2.2,0.5-3.3,0.6
		c-1.1,0.1-1.4,0.6-1,1.8c1,0,2,0,3,0c0.5,0,1.1,0,1.6,0.2c0.3,0.1,0.6,0.6,0.5,0.9c0,0.3-0.4,0.7-0.7,0.8c-1.8,0.2-3.6,0.4-5.4,0.5
		c-0.8,0-1.1-0.5-1.1-1.3c0-1.4,0.1-2.7,0.2-4.1c0.1-1,0.5-2-0.8-2.6c-0.6-0.3-0.5-1.3,0.3-1.5C206.7,180.2,209.7,179.9,212.7,180.1
		z"/>
	<path d="M131.6,208.4c-0.1,1-0.3,2-0.4,3c-0.1,1.3-0.6,1.9-2.3,1.6c0-1.3-0.2-2.5,0-3.7c0.4-2.4,1-4.7,1.5-7c0-0.2,0.1-0.5,0.3-0.7
		c0.3-0.3,0.7-0.8,1-0.8c0.3,0,0.8,0.5,0.9,0.8c1,2.1,2,4.1,2.2,6.5c0.1,0.9,0.6,1.8,0.7,2.8c0,0.4-0.4,0.9-0.6,1.3
		c-0.4-0.3-1-0.4-1.3-0.8c-0.3-0.4-0.3-1.1-0.5-1.6c-0.2-0.5-0.5-1.1-0.8-1.6C132.1,208.3,131.9,208.3,131.6,208.4z"/>
	<path d="M242.8,186.8c-1.6,0.2-2.9,0.3-4.3,0.5c-0.4,1-0.8,2.1-1.3,3.2c-1.1-0.6-1.4-1.3-1.2-2.1c0.4-1.8,0.8-3.6,1.3-5.3
		c0.1-0.3,0.2-0.6,0.4-0.9c1.6-2.3,4-2.2,5.3,0.2c1,1.8,1.8,3.7,2.7,5.6c0.3,0.6,0.4,1.3-0.4,1.7c-0.8,0.4-1.4,0-1.8-0.7
		C243.3,188.3,243.1,187.6,242.8,186.8z M238.5,185.1c1.5,0.2,2.5,0.3,3.9,0.5c-0.8-1.2-1.3-2-2.1-3.2
		C239.7,183.4,239.2,184,238.5,185.1z"/>
	<path d="M173.9,212.4c-1.2,0.3-1.8-0.2-2-1.2c-0.2-1.1-0.3-2.2-0.4-3.3c-0.1-1.4-0.1-2.8-0.2-4.4c-1.1-0.1-2.1,0-3-0.2
		c-0.4-0.1-0.7-0.5-1-0.8c0.3-0.3,0.6-0.9,0.9-0.9c3-0.3,6-0.5,9-0.7c0.6,0,1.3,0.3,1.9,0.7c-1.1,0.7-2.2,0.7-3.3,0.8
		c-2.5,0.2-2.6,0.3-2.4,2.7c0.1,2,0.3,4,0.5,5.9C174,211.5,173.9,211.9,173.9,212.4z"/>
	<path d="M148.5,181.2c3.4-0.8,6.4-2.3,9.6,0c-0.5,1.4-1.7,0.9-2.6,1.4c-0.3,1.8-0.2,3.7,0.1,5.5c0.1,0.8,0.3,1.6,0.2,2.4
		c0,0.4-0.5,0.9-0.8,1.3c-0.4-0.4-1.1-0.8-1.2-1.2c-0.3-1.7-0.3-3.5-0.5-5.2c-0.1-0.9-0.2-1.9-0.3-2.6
		C151.5,181.7,149.6,183.9,148.5,181.2z"/>
	<path d="M256.6,181c-1.4,0.4-2.4,0.6-3.5,0.9c0,1.4,0,2.8,0,4.2c0,1.2,0.1,2.4,0,3.6c0,0.3-0.6,0.9-0.9,0.9c-0.3,0-0.9-0.4-1-0.8
		c-0.2-0.5-0.1-1.1-0.1-1.7c-0.1-2-0.2-4.1-0.3-5.9c-1.4-0.9-3.3,0.7-3.9-1.4C250.1,179.3,254.1,179.3,256.6,181z"/>
	<path d="M296.2,190.7c-1.8,1-3.3,0.8-4.8,0.5c-1.1-0.3-1.4-1.4-1.3-2.5c0.1-1.1,0.3-2.1,1.4-2.5c0.9-0.4,1.5,0,2.5,1.5
		c2.1-0.8,2.3-3.7,4.3-4.5c0.2,0.1,0.4,0.2,0.5,0.3c-0.1,0.5-0.2,1.2-0.4,1.6c-0.7,1-1.5,2.1-2.3,3
		C295.3,188.8,295.2,189.7,296.2,190.7z"/>
	<path d="M302.5,207.2c0.7,0.3,1.1,0.8,1.1,1.7c0,0.7,0.2,1.4,0.4,2.5c0.6-0.7,0.9-1.2,1.3-1.7c1.1,0.5,1.3,1.4,1.1,2.3
		c-0.2,1-1.1,1.4-2,1.3c-1.5-0.1-3-0.4-4.5-0.5c-0.1-1.4-0.1-2.7-0.2-4c2-0.6,1.4,1.6,2.3,2C302.2,209.6,302.4,208.4,302.5,207.2
		L302.5,207.2z"/>
	<path d="M302.7,176.6c1.5-1.1,5.1-0.6,6,0.2c0.6,0.6,0.4,1.2-0.2,1.6c-0.7,0.5-1.5,0.9-2.2,1.3c0.6,0.6,1,1,1.6,1.6
		c-1.7,1.1-3.1,0.4-4.6,0.4c-1-2.5,1.4-2.7,2.5-3.9C304.7,177.4,303.7,177,302.7,176.6z"/>
	<path d="M290.9,183.3c-0.9-1.7-1.3-3-0.6-4.4c0.6-1.3,1.4-1.8,2.8-1.6c1.7,0.3,2.6,1.4,3.3,2.8c0.5,1-0.2,2.2-1.5,2.5
		C293.6,183,292.3,183.1,290.9,183.3z M291.5,181.5c1.3-0.2,2.1-0.3,2.8-0.5c0.1-1.5-0.7-2-2.1-2.1
		C292,179.7,291.8,180.4,291.5,181.5z"/>
	<path d="M128.4,181c1-0.3,1.3,0.1,1.5,0.8c0.2,0.7,0.3,1.4,0.3,2.1c0.1,2.5,0.3,4.9,0.3,7.4c0,0.4-0.3,1.2-0.7,1.3
		c-0.8,0.3-1.2-0.4-1.2-1.1c-0.1-1.3-0.2-2.7-0.2-4c-0.1-1.8-0.1-3.6-0.2-5.5C128.2,181.7,128.3,181.3,128.4,181z"/>
	<path d="M184.7,206.1c0.2,1.1,0.3,2.2,0.5,3.3c0.2,0.9-0.1,1.4-0.9,1.6c-0.9,0.2-1.3-0.4-1.4-1.2c-0.1-1.2-0.1-2.4-0.3-3.6
		c-0.1-1.3-0.3-2.5-0.5-3.8c-0.1-0.7-0.3-1.4,0.5-1.5c0.5,0,1.2,0.5,1.4,0.9c0.4,1.1,0.5,2.3,0.8,3.5c0,0.2,0,0.5,0,0.7
		C184.9,206.1,184.8,206.1,184.7,206.1z"/>
	<path d="M230.1,180.6c1-0.3,1.8,0,1.9,1c0.2,3,0.3,6,0.4,9c0,0.2-0.3,0.4-0.4,0.6c-1,0.2-1.6-0.3-1.7-1.2
		C230.2,186.9,230.2,183.9,230.1,180.6z"/>
	<path d="M163.2,205.7c0.1,1,0.2,2,0.3,3.1c0.1,0.8-0.1,1.4-1,1.5c-0.8,0.1-1.2-0.5-1.2-1.1c-0.1-2.5-0.2-5.1-0.2-7.6
		c0-0.3,0.7-0.9,0.8-0.9c0.4,0.2,1.1,0.6,1.1,1c0.1,1.3,0.1,2.7,0.1,4C163,205.7,163.1,205.7,163.2,205.7z"/>
	<path d="M293.6,200.3c0.7,0.6,1.2,0.9,1.7,1.3c-1.3,1.3-3.1,1.3-5.3,0.1c0.4-0.3,0.7-0.6,1-0.8c0.3-0.2,0.6-0.3,1.3-0.7
		c-0.6-0.4-1-0.6-1.3-0.8c-0.3-0.2-0.6-0.5-1-0.8c1.8-1.4,3.8-0.9,5.6-1.4c0.1,0.2,0.2,0.4,0.3,0.5
		C295.2,198.6,294.5,199.4,293.6,200.3z"/>
	<path d="M302.6,207.2c-0.2,0-0.3,0-0.5,0c-2.1,0-2.6-0.3-2.5-1.8c0.1-1.8,1.7-3.4,3.2-3.1c1,0.2,2.6,2.8,2.1,3.8
		c-0.1,0.3-0.5,0.5-0.9,0.6C303.6,206.9,303,207.1,302.6,207.2C302.5,207.2,302.6,207.2,302.6,207.2z M303.1,205
		c-0.4-0.4-0.5-0.6-0.7-0.8c-0.2,0.2-0.4,0.4-0.6,0.6c0,0.1,0.2,0.4,0.3,0.4C302.4,205.2,302.7,205.1,303.1,205z"/>
	<path d="M305.6,187.6c-1.8,0-2.8-0.8-2.8-2.2c0-1.6,1-2.8,2.3-2.7c1.4,0.1,2.8,1.6,2.9,3C308,187,307.2,187.6,305.6,187.6z
		 M305,184c-0.6,1.2-0.8,1.8,0.3,2c0.3,0,0.5-0.1,1.1-0.3C305.9,185.1,305.6,184.7,305,184z"/>
	<path d="M289.2,209.2c-1.4-1.9,0.1-3.6,0.3-5.3c0.2,0,0.5-0.1,0.7-0.1c0.3,0.7,0.6,1.5,0.9,2.4c0.6-0.1,1.2-0.4,1.8-0.3
		c0.4,0,0.8,0.5,1.3,0.8c-0.3,0.3-0.5,0.8-0.9,1C292,208.1,290.7,208.6,289.2,209.2z"/>
	<path d="M302.9,194.1c1,0.5,2.4-0.5,3.1,1.2c-0.6,0.2-1,0.4-1.5,0.5c-0.5,0.1-0.9,0.2-1.5,0.3c0,0.6,0,1.2-0.2,1.8
		c-0.1,0.2-0.4,0.5-0.6,0.6c-0.2,0-0.8-0.2-0.8-0.3c-0.3-1.9-0.7-3.8-0.3-5.7c0.2-0.1,0.4-0.1,0.6-0.2
		C302.1,192.9,302.5,193.4,302.9,194.1z"/>
	<path d="M306,199.7c-1.8,1.2-3.6,1.3-4.9,0.4C302.4,198.8,303.9,198.6,306,199.7z"/>
	<path d="M301.5,191.7c1.5-2,3.2-2.1,5.2-0.7C305,191.8,303.4,191.9,301.5,191.7z"/>
	<path d="M295.3,194.5c-1.3,0.2-2.6,0.4-3.8,0.5c-0.2,0-0.4-0.4-0.6-0.6c1.8-1.5,3-1.7,4.5-0.5C295.3,194.1,295.3,194.3,295.3,194.5
		z"/>
	<path d="M300.7,188.6c-0.2,1-0.6,1.5-1.5,1.2c-0.2-0.1-0.3-0.4-0.3-0.6C299.1,188.3,299.7,188.2,300.7,188.6z"/>
	<path d="M299.4,198.2c0.3,0.4,0.5,0.6,0.8,0.9c-0.2,0.2-0.5,0.5-0.7,0.5c-0.3-0.1-0.5-0.4-0.8-0.6
		C298.9,198.8,299.1,198.6,299.4,198.2z"/>
	<path class="st0" d="M223.1,93.2c0-2.2,0.1-4.2,1.8-5.6c2-1.7,3.5-1.3,4.3,1.1c0.5,1.4,0.8,2.9,1.2,4.5
		C227.9,93.2,225.6,93.2,223.1,93.2z"/>
	<path class="st0" d="M251.3,112.5c0-2.4,0.7-4.2,2.6-5.7c2-1.5,4.2-2.2,6.5-2.7c2.1-0.4,3.4,0.3,4.1,2.3c0.7,2,1.1,4.1,1.7,6.3
		C261.2,113.1,256.3,113.3,251.3,112.5z"/>
	<path class="st0" d="M227.5,48.3c-0.2-1.6,0.5-2.4,1.7-2.8c1.1-0.3,2.1-0.7,3.2-0.8c3-0.3,6-0.4,9-0.6c1.2-0.1,2.2,0.4,2.6,1.6
		c0.7,1.7-0.1,3-2,3c-4,0-8,0.1-12,0C229.2,48.7,228.3,48.4,227.5,48.3z"/>
	<path class="st0" d="M258.6,137.4c-0.2,1.5-0.4,2.8-0.7,4.5c-2.4-0.6-4.5-1.2-6.7-1.7C253.4,138.7,255.7,137.7,258.6,137.4z"/>
	<path class="st0" d="M235.6,28.7c0.4,1.5,0,2-1.2,1.8c-1.3-0.3-2.6-0.7-4.3-1.1C232.1,28.4,233.8,28.7,235.6,28.7z"/>
	<path class="st0" d="M421.3,86.6c0.3-0.7,0.4-1.5,0.8-1.8c0.5-0.3,1.3-0.5,1.8-0.3c0.7,0.3,0.4,1.1,0,1.6
		C423.3,86.9,422.6,87.5,421.3,86.6z"/>
	<path class="st0" d="M337.1,45.5c0.7,0.1,1.2,0,1.4-0.9c0.1-0.5,0.4-1,0.7-1.8c1.1,1.4,0.7,2.4,0,3.7
		C338.4,46.1,337.8,45.8,337.1,45.5C337.1,45.5,337.1,45.5,337.1,45.5z"/>
	<path class="st0" d="M340.7,36.1c-0.7-0.2-1.2-0.4-1.9-0.7c0.3-0.8,0.6-1.4,1-2.2C340.9,34.1,341,34.9,340.7,36.1z"/>
	<path class="st0" d="M219.3,190.6c-0.4-2.8-0.8-5.6-0.3-8.6c2.8,0.6,4.3,2.3,5.3,4.5c0.5,1.1-0.3,2-1,2.8
		C222.3,190.4,221.1,191.2,219.3,190.6z"/>
	<path class="st0" d="M179.4,186.3c-0.6-2.5-0.4-2.8,1.7-2.4C181.2,185.1,180.7,185.8,179.4,186.3z"/>
	<path class="st0" d="M152.3,202.3c2.4-0.2,3.6,0.5,3.8,2.1c0.4,2.7-0.8,4.5-3.4,5C151.8,207.6,151.7,204.6,152.3,202.3z"/>
	<path class="st0" d="M238.5,185.1c0.8-1.1,1.2-1.7,1.8-2.7c0.7,1.1,1.3,1.9,2.1,3.2C240.9,185.4,240,185.3,238.5,185.1z"/>
	<path class="st0" d="M291.5,181.5c0.3-1.2,0.5-1.9,0.7-2.6c1.5,0.1,2.2,0.6,2.1,2.1C293.5,181.2,292.8,181.3,291.5,181.5z"/>
	<path class="st0" d="M303.1,205c-0.5,0.1-0.7,0.2-1,0.2c-0.1,0-0.4-0.4-0.3-0.4c0.1-0.2,0.4-0.4,0.6-0.6
		C302.6,204.4,302.8,204.6,303.1,205z"/>
	<path class="st0" d="M305,184c0.5,0.7,0.9,1.1,1.4,1.7c-0.5,0.1-0.8,0.3-1.1,0.3C304.2,185.8,304.4,185.2,305,184z"/>
</g>
</svg>
