<?xml version="1.0" encoding="utf-8"?>
<!-- Generator: Adobe Illustrator 22.0.1, SVG Export Plug-In . SVG Version: 6.00 Build 0)  -->
<svg version="1.1" id="Layer_1" xmlns="http://www.w3.org/2000/svg" xmlns:xlink="http://www.w3.org/1999/xlink" x="0px" y="0px"
	 viewBox="0 0 382.4 198.5" style="enable-background:new 0 0 382.4 198.5;" xml:space="preserve">
<style type="text/css">
	.st0{fill:#E4E4E4;}
</style>
<g>
	<path d="M6.5,180.3c-1.1,0.2-1.9,0.5-2.6,0.6c-1,0.1-2.2,0.4-2.8-0.7c-0.5-1-0.9-2.1-0.5-3.4c0.4-1,0.6-2.1,0.7-3.2
		c0.4-5.3,0.8-10.6,1.1-16c0.3-4,0.4-8,0.7-11.9c0.1-1.1,0.1-2.3,0.4-3.3c2.6-10.1,3.2-20.5,4.2-30.8c0.4-4.8,1-9.7,1.6-14.5
		c0.3-2.5,0.4-2.6,3-2.5c0.6,0,1.1,0.1,1.7,0.1c0.5,0,0.9,0.1,1.7,0.2c0.2-0.8,0.4-1.5,0.5-2.3c0.9-7.3,1.8-14.6,2.8-21.9
		c0.8-5.8,1.8-11.7,2.8-17.5c1.3-7.2,3-14.4,4.2-21.6c0.6-3.8,0.5-7.8,0.7-11.6c0-0.3,0-0.7,0.1-0.9c2.2-2.9,2-6.6,3-9.9
		c0.5-1.6,0.3-3.5,1.5-5.1c1.1,1.1,2.3,1.1,3.7,0.7c0.7-0.2,1.4-0.1,2.1,0c8,0.9,16,0.3,24,0.3c4.7,0,9.4-0.2,14.1-0.3
		c0.7,0,1.4,0,2.2,0c4.1,0,8.1,0,12.2,0.1c1.8,0,3.5,0.2,5.3,0.3c7.9,0.3,15.8,0.7,23.7,0.1c6-0.4,12-0.5,18-0.6
		c9.2-0.2,18.4-0.3,27.6-0.5c4.1-0.1,8.1-0.3,12.2-0.4c2.5,0,5.1,0.3,7.6,0.4c8.2,0.2,16.5,0.3,24.7,0.5c6.9,0.2,13.9,0.4,20.8,0.6
		c5,0.1,10.1,0.3,15.1,0.3c5.1,0,10.2,0,15.3,0c2.1,0,4.1-0.3,6.2-0.4c10.1-0.4,20.3-1,30.4-1.2c6.9-0.1,13.9,0.5,20.8,0.7
		c5.2,0.1,10.4,0.1,15.6,0.1c4.5,0.1,8.9,0.3,13.4,0.4c4.9,0.1,9.9,0.2,14.8,0.4c0.8,0,1.6,0.3,2.4,0.4c0.4,4,0.9,7.8,1.2,11.7
		c0.6,8.4,1.2,16.7,1.7,25.1c0.3,4.5,0.2,9.1,0.4,13.6c0.2,4.5,0.6,9.1,0.9,13.6c0.7,8.7,2.5,17.2,2.7,25.9
		c0.1,4.3,0.9,8.6,1.2,12.9c0.3,3.7,0.3,7.5,0.6,11.2c0.4,5.5,0.9,11,1.4,16.4c0.5,4.8,0.9,9.5,1.7,14.2c0.4,2.3,1.4,4.6,2.6,6.7
		c1.1,1.9,1.1,3.9,1,5.9c0,0.9-0.3,1.7-0.4,2.6c-1.2,7.6-1.9,15.3-2.3,23.1c0,0.5,0,1-0.1,1.4c-0.3,1.7-1.4,2.6-3.1,2.4
		c-4.4-0.5-8.7-0.4-13.1-0.2c-6.2,0.2-12.5,0.2-18.7-0.4c-9.3-0.9-18.6-1.2-28-1.4c-8.6-0.2-17.2-0.6-25.9-1
		c-7.9-0.3-15.8-0.8-23.7-1.1c-3.4-0.2-6.9-0.2-10.3-0.3c-4.5-0.2-8.9-0.6-13.4-0.7c-2.9-0.1-5.7,0.2-8.6,0.2
		c-8.9,0-17.9,0.1-26.8,0c-3.7,0-7.5-0.6-11.2-0.6c-4.7-0.1-9.4,0-14.1,0.1c-4.5,0.2-8.9,0.5-13.4,1c-4.9,0.5-9.8,1.1-14.7,1.7
		c-2.5,0.3-5.1,0.5-7.6,0.7c-3.2,0.4-6.3,0.8-9.5,1.2c-3.8,0.4-7.6,0.9-11.4,1.1c-4,0.3-8,0.4-12,0.5c-10.9,0.5-21.7,0.7-32.6,0.5
		c-7.4-0.1-14.7,0-22.1-0.1c-4.2-0.1-8.3-0.4-12.5-0.4c-2.4,0-4.8,0.5-7.2,0.4c-6-0.1-12-0.3-18-0.4c-2.1,0-4.2,0.2-6.2,0
		c-1.3-0.1-2.6-0.6-3.8-1.2c-1.1-0.6-1.5-1.8-1.5-3.2C7.1,186.4,6.7,183.5,6.5,180.3z M7.2,157.9c0.6,0.2,1.2,0.4,1.9,0.5
		c3.8,0.4,7.6,0.7,11.4,1c1.7,0.1,3.5,0.4,5.2,0.4c3.3,0,6.5-0.2,9.8-0.2c6.2,0.1,12.3,0.4,18.4,0.3c10.8-0.1,21.6-0.5,32.3-0.5
		c8.9,0,17.7-0.7,26.5-1.3c7.4-0.5,14.8-0.8,22.2-1.1c4.8-0.2,9.6-0.3,14.4-0.4c1.5,0,3,0,4.6,0c6.5,0.1,12.9,0.4,19.4,0.2
		c6-0.2,11.9-1,17.9-1.3c4.8-0.3,9.6-0.2,14.4-0.5c4.1-0.2,8.2-0.6,12.5-0.9c0.2-1.9,0.5-3.6,0.6-5.2c0.4-5.4,0.8-10.8,1.2-16.2
		c0.4-6.1,1-12.1,1-18.2c0-5.5,0.9-11,1.5-16.4c0.6-5.2,1.6-10.4,2.1-15.7c0.5-5.9,1.3-11.7,2.7-17.5c0.3-1.1,0.2-2.4,0.8-3.1
		c0.9-1.1,2.2,0.2,3.4,0.2c1.7,0,3.3,0.1,5,0.3c4.1,0.5,8.1,0.7,12.2,0.5c4.1-0.2,8.1-0.4,12.2-0.3c6.1,0.1,12.3,0.6,18.4,0.8
		c6.9,0.2,13.9,0.4,20.8,0.6c0.8,0,1.7,0,2.8,0c0-1.2-0.1-2.2,0-3.2c0.1-1.5,0.2-3,0.5-4.5c0.2-1.3,1.1-1.6,2-0.8
		c2.1,1.6,4.1,3.3,6.1,5c1.5,1.2,2.9,2.5,4.3,3.8c1,1,2.2,1.1,3.5,1.1c2.8,0,5.5,0.1,8.5,0.1c0.3-0.5,0.6-1.2,1-1.9
		c2.6-5.3,5.1-10.6,7.8-15.9c0.4-0.8,0.7-1.9,2-1.7c0.6,7,2.4,13.8,3.3,20.8c2.7,0,5.4,0.3,8-0.1c2.3-0.4,4,0.4,5.7,1.4
		c-0.9,4.3-1,5.6-0.4,8c2.6-0.5,5.2-1.1,7.8-1.7c0.5,0.9,1,1.6,1.5,2.6c-4.8,4-9.6,7.9-15,11.6c5.4,6.1,10.7,12.1,16.1,18.1
		c-0.2,0.4-0.6,0.8-0.8,1.3c0.2,0.3,0.4,0.5,0.5,0.8c0.1,0.2-0.1,0.4-0.1,0.6c-2.7,0.4-2.7,0.4-4,1.6c-0.8-0.5-1.7-1.2-2.6-1.6
		c-0.9-0.5-2-0.8-3.1-1.3c-0.2,0.7-0.3,1.1-0.3,1.5c-0.4,4.3-0.9,8.6-1.1,12.9c-0.3,5.4-0.4,10.9-0.5,16.3c0,2.5,0.2,4.9,0.2,7.4
		c0,2.3-0.3,4.6-0.5,6.9c-0.1,0.9,0,1.9-0.2,2.8c-0.6,2.2,0.4,3.6,2.6,3.6c0.9,0,1.9-0.1,2.8-0.1c5,0.4,10,1,14.8,2.4
		c1.7,0.5,3.4,0.8,4.6-1.1c-1.2-1.4-3.2-5.9-3.5-8.5c-0.7-5.2-2.1-10.3-1.9-15.7c0-0.4-0.1-0.8-0.2-1.2c-0.4-4.1-0.9-8.1-1.2-12.2
		c-0.5-7-1-14-1.5-21c-0.2-2.3-0.4-4.6-0.6-6.9c-0.4-3.9-0.4-7.8-1.1-11.7c-1.4-7.9-1.9-15.9-2.5-23.8c-0.2-3.3-0.1-6.6-0.2-9.8
		c-0.3-6.9-0.7-13.7-1.2-20.6c-0.3-5.3-0.8-10.5-1.2-15.7c-2.3-0.6-3.1-1.3-3.3-3.3c1.1,0.7,1.9,1.3,2.8,1.9
		c-0.1-1.8-0.4-2.3-2.5-2.3c-1.6,0-2.1-0.7-2-2.1c-5.2-0.2-10.2-0.6-15.2-0.7c-6-0.1-12-0.1-18-0.2c-4.7-0.1-9.4-0.5-14.1-0.6
		c-7.3-0.2-14.7-0.2-22.1-0.3c-2.7,0-5.4,0-8.1,0.2c-6.1,0.4-12.1,1-18.2,1.2c-5.6,0.2-11.2,0.2-16.8,0.1C235.9,7,226.4,6.8,217,6.6
		c-2.5-0.1-4.9-0.4-7.4-0.4c-8-0.1-16-0.2-24-0.3c-4.8-0.1-9.6-0.5-14.4-0.6c-4.8,0-9.6,0.5-14.4,0.4c-11-0.4-22,0.4-33,0.7
		c-8.5,0.2-16.9,0.8-25.4,0.4c-6.9-0.3-13.9-0.5-20.8-0.5c-7,0-14,0.3-21,0.4c-6,0.1-12,0.1-18-0.1c-2.4-0.1-4.7-0.1-7.3,0.9
		c-0.4,1.8-0.9,3.7-1.3,5.6c-0.7,3.7-1.3,7.5-2,11.4c1.3,0.7,1.1,2.1,0.8,3.6c-1.3,6.1-2.8,12.1-4,18.2C23.8,51.5,23,56.8,22,62.1
		c-0.5,2.9-1.1,5.8-1.5,8.7c-1,7.5-1.9,15.1-2.8,22.6c-0.2,1.3-0.3,2.5,1.3,3.6c-1.8,0.3-1.9,1.4-2.1,2.5c-0.8,5-1.6,9.9-2.3,14.9
		c-0.7,4.9-1.1,9.8-1.8,14.7c-0.5,3.3-1.1,6.6-1.7,9.9c-0.7,3.5-1.4,7-2.2,10.6C8.4,152.4,7.8,155.2,7.2,157.9
		C6,157.6,5.6,157,6,155.6c0.6-2.1,0.9-4.2,1.3-6.3c0.9-4,1.9-7.9,2.6-11.9c1.1-6.9,2-13.9,3-20.9c0.7-5.1,1.5-10.1,2.2-15.2
		c0.2-1.4,0.3-2.8,0.5-4.2c-1.5,0-2.6,0-3.9,0c-0.4,2.3-1,4.5-1.2,6.7c-0.8,7.9-1.5,15.9-2.4,23.8c-0.2,2.4-0.4,4.8-1,7.1
		c-1.6,6.3-2.1,12.7-2.5,19.2c-0.4,5.4-0.8,10.8-1.1,16.3c-0.1,2.7,0,5.4,0,8.4c1.1-0.2,2-0.4,2.9-0.5c0.1-0.7,0.2-1.2,0.2-1.6
		c-0.3-3.4-0.8-6.8-1.1-10.2C5.1,163.3,4.7,160.3,7.2,157.9z M220,153.6c6.1-0.3,11.9-0.8,17.7-0.8c9.6,0.1,19.2,0.5,28.7,0.8
		c4.4,0.1,8.8,0.4,13.2,0.5c2.6,0.1,5.2,0,7.9,0c3.7,0,7.4-0.2,11,0.2c7.4,0.9,14.7,2,22.1,2.4c4.2,0.2,8.4,0.9,12.6,1.2
		c5,0.4,10,0.6,15,0.9c0.9,0,1.9,0,2.5,0c0.2-2.9,0.4-5.5,0.5-8.1c0.2-4.1,0.3-8.1,0.4-12.2c0-1.7-0.4-3.5-0.2-5.2
		c0.5-7.4,1.1-14.8,1.7-22.2c0.1-1.2,0.1-2.3,0.2-3.6c-2.6-0.4-5.1-0.7-7.6-1.1c-3.1,8.8-6.2,17.4-9.1,25.6c-1.8,0.7-2.8,0.2-3.7-1
		c-1.1-1.5-2.2-2.9-3.4-4.3c-3-3.5-6.1-7-9.2-10.4c-1-1.1-2.1-1.1-3.1,0c-1.5,1.6-2.9,3.2-4.3,4.8c-3.2,3.6-6.4,7.1-9.6,10.7
		c-0.6,0.6-1.2,1.4-2.2,0.8c-0.6-1.4-0.7-2.8-0.6-4.4c0.6-6.3,1.9-12.5,1.7-18.8c-0.1-2.5,0.3-5,0.6-7.9c-0.2-0.2-0.6-0.7-1.2-1
		c-3.2-1.9-6.4-3.9-9.7-5.6c-4.3-2.2-8.7-4.2-13.1-6.4c-1.7-0.8-1.7-0.9-1.4-3c0.3-0.1,0.7-0.4,1.1-0.4c3.8-0.3,7.6-0.4,11.4-0.8
		c3.1-0.3,6.2-0.8,9.2-1.2c1.7-0.3,2.6-1.2,2.7-3.1c0.2-3.8,0.4-7.6,0.7-11.5c0-0.8,0-1.7,0-2.6c-0.6-0.2-0.9-0.3-1.2-0.3
		c-6.9-0.4-13.7-0.7-20.6-1.1c-1.4-0.1-2.9,0-4.3-0.1c-7.2-0.6-14.3-0.4-21.5-0.4c-8.5,0-17.1-0.2-25.8-0.4c0,0.1-0.4,0.4-0.4,0.7
		c-0.8,4.1-1.6,8.1-2.3,12.2c-0.7,4.7-1.2,9.5-1.8,14.3c-0.8,6.3-1.7,12.7-2.3,19c-0.5,6.3-0.7,12.6-1,18.9
		c-0.4,7.2-0.8,14.3-1.2,21.5C220.2,151.5,220,152.6,220,153.6z M377.3,163.8c-2.1-0.4-3.8-0.8-5.5-1.1c-4.1-0.7-8.2-1.5-12.3-1.9
		c-3.7-0.4-7.5-0.2-11.3-0.4c-5.6-0.3-11.2-0.6-16.7-1c-3.3-0.2-6.5-0.9-9.8-1c-8.9-0.5-17.7-1.3-26.5-2.6c-2-0.3-4.1-0.1-6.2-0.1
		c-3.3,0-6.7,0.3-10,0.2c-4.5-0.1-9.1-0.6-13.6-0.7c-9.1-0.3-18.2-0.5-27.3-0.6c-5.9-0.1-11.8,0.2-17.7,0.9
		c-6.1,0.7-12.3,0.9-18.4,1.3c-4.1,0.2-8.2,0.1-12.2,0.4c-9.5,0.7-18.9,1.3-28.5,1.2c-4.1,0-8.1-0.4-12.2-0.3
		c-8.2,0.2-16.5,0.5-24.7,0.8c-6.5,0.3-12.9,0.8-19.4,1.2c-6.1,0.3-12.3,0.6-18.4,0.8c-2.6,0.1-5.1-0.1-7.7,0
		c-10.9,0.2-21.9,0.4-32.8,0.5c-7,0.1-14.1,0.2-21.1,0c-4.9-0.1-9.7-0.6-14.6-0.9c-1.2-0.1-2.5,0-3.8,0c0,1-0.1,1.7,0,2.4
		c0.4,3.3,0.8,6.7,1.1,10c0.6,5.6,1.1,11.3,1.5,16.9c0.1,1.4,0.7,1.9,1.7,2.1c0.6,0.2,1.3,0.1,1.9,0.1c3.9,0.2,7.8,0.5,11.7,0.6
		c4.5,0.1,9.1,0.6,13.6,0.2c5.7-0.5,11.3-0.2,17,0c4.9,0.2,9.7,0.3,14.6,0.3c2.8,0,5.6-0.1,8.3-0.1c3.8,0,7.5,0.1,11.3,0
		c4.5-0.1,8.9-0.4,13.4-0.5c2.6-0.1,5.1-0.1,7.7-0.2c4.1-0.2,8.3-0.5,12.4-0.8c4.2-0.3,8.4-0.8,12.6-1.2c2.4-0.2,4.8-0.5,7.1-0.7
		c2.5-0.2,5.1-0.4,7.6-0.7c5-0.6,10-1.2,15-1.7c4.9-0.5,9.9-0.9,14.8-1.1c5-0.2,10.1-0.4,15.1,0c6.6,0.5,13.2,0.7,19.9,0.7
		c10.5,0,21.1-0.1,31.6,0c6.3,0,12.6,0.3,18.9,0.6c7.3,0.3,14.5,0.8,21.8,1.1c6.4,0.3,12.8,0.3,19.2,0.6c3,0.1,6.1,0.3,9.1,0.5
		c7.8,0.4,15.6,0.7,23.4,1.1c1.8,0.1,3.5,0.5,5.2,0.5c9.6,0,19.1,0,29,0c0.4-1.8,1-3.6,1.1-5.3c0.4-6.1,1.1-12.2,2.1-18.3
		C376.8,166.3,377,165.2,377.3,163.8z M302.4,130.1c0.1,0.1,0.3,0.2,0.4,0.3c1.4-1.5,2.9-3,4.3-4.6c3.2-3.7,6.4-7.4,9.6-11
		c1.1-1.3,2.7-1.5,3.8-0.4c3.9,3.8,7.6,7.7,10.9,12.1c1.1,1.4,2.3,2.8,3.7,4.4c0.9-1.7,1.8-3,2.3-4.3c2-5.7,4-11.5,5.9-17.2
		c0.4-1.3,1.5-2.6,0.2-4c2.1-1,2.3-3,2.6-4.7c0.4-2.1,0.8-2.3,2.4-1.1c3.1,2.3,6.2,4.7,9.4,7c1.5,1.1,3.1,1.3,4.9,0.9
		c-1.6-2-3-3.8-4.4-5.6c-1.8-2.1-3.6-4.3-5.4-6.4c-1-1.2-2.3-2.3-3.2-3.5c-0.9-1.3-1.8-2.4-3.6-2.2c-0.1,0-0.3-0.3-0.6-0.7
		c0.6-0.6,1.1-1.4,1.8-1.8c5-2.5,9.2-6.2,13.5-9.8c0.3-0.2,0.4-0.6,0.8-1.2c-2.3,0.4-4.3,0.8-6.2,1.2c-4.2,0.9-8.4,1.9-12.5,3
		c-1.1,0.3-1.7-0.1-1.8-1.2c0-0.3-0.1-0.6-0.2-0.9c-0.6-5.5-1.2-10.9-1.9-16.4c-0.5-3.7-1.3-7.4-2.1-11.2c-0.4,0.2-0.6,0.3-0.7,0.4
		c-0.2,0.3-0.3,0.6-0.5,0.8c-3.9,7.6-8,15.1-10.2,23.4c-0.2,0.9-0.9,0.7-1.7,0.4c0.5-1.9-0.6-3.1-2-4.1c-2.3-1.5-4.1-3.5-6.4-4.9
		c-2.6-1.7-4.7-4.2-6.9-6.5c-1.1-1.1-2.4-1.8-3.8-2.6c-0.1,0.6-0.2,1-0.2,1.4c0,2.5,0.1,4.9,0,7.4c-0.3,5.2-0.6,10.4-0.9,15.5
		c-0.1,2-0.3,2.3-2.3,2.5c-6.2,0.7-12.4,1.4-18.5,2.1c-0.9,0.1-1.7,0.3-2.6,0.5c0,0.2,0,0.4-0.1,0.6c8,4.5,16.9,7.3,24.5,13.2
		C304,110.4,303.2,120.3,302.4,130.1z M342.2,68.7c0.2,3.4,0.4,6.5,0.6,9.9c3-0.6,5.9-1.3,8.8-1.8c0.8-0.2,1.3-0.6,1.3-1.4
		c0-2.3,0-4.7,0-7.3C349.4,68.3,345.9,68.5,342.2,68.7z M325.3,71.4c0.5-1.5,0.9-2.8,1.5-4.5c-2.5,0-4.6,0-6.9,0
		C321,68.6,322.5,69.9,325.3,71.4z M346.5,104.8c1.4,0.3,2.6,0.5,3.7,0.9c1.1,0.4,2.2,0.4,3.9,0.1c-2.3-1.7-4.2-3.2-6.4-4.8
		C347.2,102.4,346.9,103.6,346.5,104.8z"/>
	<path class="st0" d="M7.2,158c0.6-2.8,1.2-5.6,1.8-8.4c0.7-3.5,1.5-7,2.2-10.6c0.6-3.3,1.3-6.6,1.7-9.9c0.7-4.9,1.1-9.8,1.8-14.7
		c0.7-5,1.5-9.9,2.3-14.9c0.2-1.1,0.3-2.2,2.1-2.5c-1.6-1.1-1.4-2.3-1.3-3.6c1-7.5,1.8-15.1,2.8-22.6c0.4-2.9,1-5.8,1.5-8.7
		c0.9-5.3,1.8-10.5,2.9-15.8c1.2-6.1,2.7-12.2,4-18.2c0.3-1.4,0.6-2.8-0.8-3.6c0.7-4,1.3-7.7,2-11.4c0.4-1.9,0.9-3.9,1.3-5.6
		c2.6-0.9,4.9-1,7.3-0.9c6,0.3,12,0.2,18,0.1c7-0.1,14-0.4,21-0.4c6.9,0,13.9,0.2,20.8,0.5c8.5,0.3,16.9-0.2,25.4-0.4
		c11-0.3,22-1.1,33-0.7c4.8,0.2,9.6-0.4,14.4-0.4c4.8,0,9.6,0.5,14.4,0.6c8,0.2,16,0.2,24,0.3c2.5,0,4.9,0.4,7.4,0.4
		c9.4,0.2,18.9,0.4,28.3,0.6c5.6,0.1,11.2,0.1,16.8-0.1c6.1-0.2,12.1-0.8,18.2-1.2c2.7-0.2,5.4-0.2,8.1-0.2
		c7.4,0.1,14.7,0.1,22.1,0.3c4.7,0.1,9.4,0.5,14.1,0.6c6,0.1,12,0,18,0.2c5,0.1,10,0.5,15.2,0.7c-0.1,1.4,0.3,2.2,2,2.1
		c2-0.1,2.4,0.5,2.5,2.3c-0.9-0.6-1.8-1.1-2.8-1.9c0.2,2,1,2.8,3.3,3.3c0.4,5.2,0.9,10.5,1.2,15.7c0.5,6.9,0.9,13.7,1.2,20.6
		c0.2,3.3,0,6.6,0.2,9.8c0.6,8,1.1,15.9,2.5,23.8c0.7,3.8,0.8,7.8,1.1,11.7c0.2,2.3,0.4,4.6,0.6,6.9c0.5,7,0.9,14,1.5,21
		c0.3,4.1,0.8,8.1,1.2,12.2c0,0.4,0.2,0.8,0.2,1.2c-0.2,5.3,1.2,10.5,1.9,15.7c0.4,2.6,2.3,7.1,3.5,8.5c-1.1,1.9-2.9,1.6-4.6,1.1
		c-4.9-1.4-9.8-2-14.8-2.4c-0.9-0.1-1.9,0-2.8,0.1c-2.2,0-3.2-1.4-2.6-3.6c0.2-0.9,0.1-1.9,0.2-2.8c0.2-2.3,0.5-4.6,0.5-6.9
		c0.1-2.5-0.2-4.9-0.2-7.4c0.1-5.4,0.2-10.9,0.5-16.3c0.2-4.3,0.7-8.6,1.1-12.9c0-0.4,0.2-0.8,0.3-1.5c1.1,0.4,2.1,0.8,3.1,1.3
		c0.9,0.5,1.7,1.1,2.6,1.6c1.3-1.2,1.3-1.2,4-1.6c0.1-0.2,0.2-0.5,0.1-0.6c-0.1-0.3-0.3-0.5-0.5-0.8c0.3-0.4,0.6-0.9,0.8-1.3
		c-5.4-6.1-10.6-12-16.1-18.1c5.4-3.6,10.2-7.6,15-11.6c-0.6-0.9-1-1.7-1.5-2.6c-2.6,0.5-5.2,1.1-7.8,1.7c-0.6-2.4-0.5-3.7,0.4-8
		c-1.7-1.1-3.4-1.8-5.7-1.4c-2.5,0.4-5.2,0.1-8,0.1c-0.9-7-2.8-13.8-3.3-20.8c-1.3-0.2-1.6,0.9-2,1.7c-2.6,5.3-5.2,10.6-7.8,15.9
		c-0.3,0.7-0.7,1.4-1,1.9c-2.9,0-5.7-0.1-8.5-0.1c-1.3,0-2.5-0.1-3.5-1.1c-1.4-1.3-2.8-2.6-4.3-3.8c-2-1.7-4-3.4-6.1-5
		c-0.9-0.8-1.8-0.5-2,0.8c-0.3,1.5-0.4,3-0.5,4.5c-0.1,1,0,2.1,0,3.2c-1.1,0-1.9,0-2.8,0c-6.9-0.2-13.9-0.3-20.8-0.6
		c-6.1-0.2-12.3-0.6-18.4-0.8c-4.1-0.1-8.1,0.1-12.2,0.3c-4.1,0.2-8.1-0.1-12.2-0.5c-1.7-0.2-3.3-0.3-5-0.3c-1.2,0-2.5-1.3-3.4-0.2
		c-0.6,0.7-0.6,2.1-0.8,3.1c-1.4,5.7-2.2,11.6-2.7,17.5c-0.4,5.2-1.5,10.4-2.1,15.7c-0.6,5.5-1.5,10.9-1.5,16.4
		c0,6.1-0.6,12.1-1,18.2c-0.4,5.4-0.7,10.8-1.2,16.2c-0.1,1.7-0.4,3.3-0.6,5.2c-4.3,0.3-8.4,0.7-12.5,0.9c-4.8,0.2-9.6,0.2-14.4,0.5
		c-6,0.4-11.9,1.2-17.9,1.3c-6.5,0.2-12.9-0.1-19.4-0.2c-1.5,0-3-0.1-4.6,0c-4.8,0.1-9.6,0.2-14.4,0.4c-7.4,0.3-14.8,0.6-22.2,1.1
		c-8.8,0.6-17.7,1.3-26.5,1.3c-10.8,0-21.6,0.4-32.3,0.5c-6.1,0.1-12.3-0.3-18.4-0.3c-3.3,0-6.5,0.2-9.8,0.2c-1.7,0-3.5-0.2-5.2-0.4
		c-3.8-0.3-7.6-0.7-11.4-1C8.4,158.3,7.8,158.1,7.2,158L7.2,158z M112.9,30.4c-0.1,0-0.2,0-0.2,0c0.1-1.4,0.1-2.9,0.2-4.3
		c0-0.7-0.2-1.4-1-1.2c-0.4,0.1-0.8,0.8-0.8,1.2c-0.1,2.5,0,4.9-0.2,7.4c-0.5,5.6-1.1,11.1-1.8,16.6c-0.4,3.6-1,7.1-1.5,10.7
		c-0.6,5.3-1.3,10.6-1.7,15.9c-0.5,6-0.9,11.9-1.2,17.9c-0.2,4.7-0.3,9.4-0.5,14.1c-0.1,3.1-0.4,6.2-0.6,9.3c-0.3,3.7-0.6,7.3-1,11
		c-0.2,1.9-0.3,3.8-0.5,5.7c-0.4,2.8-0.8,5.7-1.2,8.5c0,0.3,0.3,1,0.6,1.1c0.4,0.1,1-0.2,1.2-0.5c0.3-0.3,0.3-0.9,0.4-1.3
		c0.5-4.5,1-9,1.4-13.6c0.4-5.1,0.8-10.2,1.1-15.3c0.4-7.3,0.6-14.7,1.1-22c0.6-8.5,1.3-17,2.2-25.5c0.8-7.7,1.8-15.4,2.7-23.1
		C112,38.8,112.4,34.6,112.9,30.4z M128.2,26.2c-0.9-0.6-1.6-0.6-1.8,0.5c-0.1,0.8-0.1,1.6-0.1,2.4c-0.1,5.3,0,10.6-0.5,15.8
		c-1,10.5-2.4,20.9-3.5,31.4c-0.8,7.7-1.6,15.4-2.3,23.1c-0.3,3.5-0.4,7-0.7,10.5c-0.5,6-1.1,12.1-1.7,18.1c-0.5,5-0.9,10-1.4,15
		c-0.1,0.8,0,1.5,1,1.6c0.9,0.1,1.3-0.3,1.4-1.2c0.1-1.9,0.2-3.8,0.4-5.7c0.6-7.9,1.1-15.8,1.8-23.6c0.5-6.7,1.1-13.4,1.7-20
		c0.5-5.5,0.8-11,1.5-16.5c0.7-5.9,1.6-11.9,2.4-17.8c1-7.3,1.4-14.6,1.6-22C127.8,33.8,128,29.9,128.2,26.2z M159,138.8
		c0,0,0.1,0,0.1,0c-0.1,0.6-0.2,1.3-0.1,1.9c0,0.4,0.2,1,0.5,1.1c0.3,0.1,1,0,1.2-0.3c0.3-0.4,0.4-1,0.5-1.5
		c0.1-0.9,0.1-1.9,0.1-2.9c0.4-5.5,1-11,1.3-16.5c0.4-5.3,0.6-10.5,0.8-15.8c0.2-6.8,0.3-13.6,0.6-20.3c0.4-8.4,0.9-16.7,1.3-25.1
		c0.6-11.2,0.8-22.5,2.2-33.7c0-0.4-0.3-0.8-0.5-1.1c-0.4,0.3-1,0.5-1.1,0.8c-0.3,0.7-0.5,1.5-0.5,2.3c-0.2,3.2-0.4,6.4-0.6,9.6
		c-0.4,6.8-0.9,13.7-1.3,20.5c-0.3,4.5-0.3,9.1-0.6,13.6c-0.4,8-0.9,16.1-1.2,24.1c-0.3,7.5-0.4,15-0.9,22.5
		c-0.3,5.8-0.4,11.6-1.6,17.4C159.1,136.6,159.1,137.7,159,138.8z M58.9,134.5c0.2-0.1,0.4-0.2,0.6-0.3c0.3-2.4,0.6-4.9,0.8-7.3
		c0.6-6.5,1-13.1,1.6-19.6c0.6-6,1.4-12.1,2.1-18.1c0.6-5.2,1.4-10.4,2-15.7c0.4-2.9,0.5-5.7,0.9-8.6c0.8-6,1.7-12,2.6-18
		c0.5-3.5,1.3-7.1,1.9-10.6c0-0.2,0.2-0.5,0.1-0.7c-0.2-0.4-0.4-0.9-0.8-1c-0.4-0.1-1,0.2-1.2,0.5c-0.3,0.5-0.4,1.2-0.5,1.8
		c-1,6.9-2,13.7-3,20.6c-0.4,3.1-1,6.1-1.4,9.2c-0.4,3.7-0.7,7.5-1,11.2c-0.1,1.2-0.2,2.4-0.4,3.6c-0.3,2-0.9,4.1-1.1,6.1
		c-0.6,4.7-1.2,9.5-1.7,14.2c-0.5,4.4-0.9,8.7-1.3,13.1c-0.4,5.1-0.8,10.2-1.2,15.3c-0.1,1-0.1,2.1,0,3.1
		C58.2,133.8,58.7,134.1,58.9,134.5z M170.8,118.4c0,0.6-0.1,1.2,0,1.8c0.1,0.4,0.6,1,0.9,0.9c0.5-0.1,0.9-0.4,1.2-0.8
		c0.2-0.3,0.1-0.8,0.1-1.2c0.5-7.7,1.1-15.3,1.6-23c0.3-4.8,0.6-9.6,1-14.3c0.5-5.7,1-11.5,1.5-17.2c0.3-3.8,0.5-7.6,0.8-11.5
		c0.1-1.3,0.5-2.5,0.8-3.7c0.2-0.7,0.1-1.4-0.7-1.5c-0.5,0-1,0.5-1.4,0.9c-0.1,0.1-0.1,0.5-0.1,0.7c-0.3,3.3-0.7,6.7-1,10
		c-0.3,3.5-0.3,7-0.6,10.5c-0.6,6.8-1.3,13.7-1.8,20.5c-0.5,6.1-0.8,12.3-1.3,18.4C171.6,112.2,171.2,115.3,170.8,118.4z
		 M145.1,77.2c-2.6-0.1-5.4,2.1-6.5,4.6c-0.6,1.5-0.4,2.7,0.6,4c1.3,1.5,3,2.1,4.8,2.4c2.9,0.4,5.3-0.6,7-3.1c1.3-1.9,1-4.6-0.8-5.8
		C148.6,78.2,146.9,77.1,145.1,77.2z"/>
	<path class="st0" d="M220,153.6c0.1-1,0.2-2.1,0.3-3.2c0.4-7.2,0.8-14.3,1.2-21.5c0.3-6.3,0.5-12.6,1-18.9c0.6-6.4,1.5-12.7,2.3-19
		c0.6-4.8,1.1-9.5,1.8-14.3c0.6-4.1,1.5-8.2,2.3-12.2c0.1-0.4,0.4-0.7,0.4-0.7c8.8,0.1,17.3,0.4,25.8,0.4c7.2,0,14.3-0.2,21.5,0.4
		c1.4,0.1,2.9,0.1,4.3,0.1c6.9,0.3,13.7,0.7,20.6,1.1c0.3,0,0.6,0.1,1.2,0.3c0,0.9,0,1.7,0,2.6c-0.2,3.8-0.5,7.6-0.7,11.5
		c-0.1,1.8-1,2.8-2.7,3.1c-3.1,0.5-6.2,0.9-9.2,1.2c-3.8,0.4-7.6,0.5-11.4,0.8c-0.4,0-0.7,0.3-1.1,0.4c-0.3,2.1-0.3,2.2,1.4,3
		c4.4,2.1,8.8,4.1,13.1,6.4c3.3,1.7,6.5,3.7,9.7,5.6c0.5,0.3,1,0.8,1.2,1c-0.2,2.9-0.6,5.4-0.6,7.9c0.2,6.4-1.1,12.6-1.7,18.8
		c-0.1,1.6,0,3,0.6,4.4c1.1,0.6,1.7-0.2,2.2-0.8c3.2-3.6,6.4-7.1,9.6-10.7c1.4-1.6,2.8-3.3,4.3-4.8c1-1,2.1-1.1,3.1,0
		c3.1,3.4,6.2,6.9,9.2,10.4c1.2,1.4,2.3,2.9,3.4,4.3c0.9,1.2,1.9,1.7,3.7,1c2.9-8.3,6-16.8,9.1-25.6c2.5,0.4,4.9,0.7,7.6,1.1
		c-0.1,1.2-0.1,2.4-0.2,3.6c-0.6,7.4-1.2,14.8-1.7,22.2c-0.1,1.7,0.3,3.5,0.2,5.2c-0.1,4.1-0.2,8.1-0.4,12.2
		c-0.1,2.6-0.3,5.2-0.5,8.1c-0.7,0-1.6,0-2.5,0c-5-0.3-10-0.5-15-0.9c-4.2-0.3-8.4-1-12.6-1.2c-7.4-0.4-14.8-1.5-22.1-2.4
		c-3.6-0.5-7.3-0.2-11-0.2c-2.6,0-5.2,0-7.9,0c-4.4-0.1-8.8-0.4-13.2-0.5c-9.6-0.3-19.2-0.7-28.7-0.8
		C231.8,152.8,226,153.3,220,153.6z"/>
	<path class="st0" d="M377.3,163.8c-0.2,1.4-0.4,2.5-0.6,3.6c-1,6.1-1.7,12.1-2.1,18.3c-0.1,1.8-0.7,3.5-1.1,5.3c-9.9,0-19.5,0-29,0
		c-1.7,0-3.5-0.4-5.2-0.5c-7.8-0.4-15.6-0.7-23.4-1.1c-3-0.1-6.1-0.4-9.1-0.5c-6.4-0.2-12.8-0.3-19.2-0.6
		c-7.3-0.3-14.5-0.8-21.8-1.1c-6.3-0.3-12.6-0.5-18.9-0.6c-10.5-0.1-21.1,0-31.6,0c-6.6,0-13.2-0.3-19.9-0.7c-5-0.4-10.1-0.2-15.1,0
		c-4.9,0.2-9.9,0.6-14.8,1.1c-5,0.5-10,1.2-15,1.7c-2.5,0.3-5.1,0.4-7.6,0.7c-2.4,0.2-4.8,0.5-7.1,0.7c-4.2,0.4-8.4,0.9-12.6,1.2
		c-4.1,0.3-8.3,0.6-12.4,0.8c-2.6,0.1-5.1,0.1-7.7,0.2c-4.5,0.2-8.9,0.4-13.4,0.5c-3.8,0.1-7.5-0.1-11.3,0c-2.8,0-5.6,0.2-8.3,0.1
		c-4.9-0.1-9.7-0.1-14.6-0.3c-5.7-0.2-11.3-0.5-17,0c-4.5,0.4-9.1,0-13.6-0.2c-3.9-0.1-7.8-0.4-11.7-0.6c-0.6,0-1.3,0.1-1.9-0.1
		c-1-0.3-1.7-0.8-1.7-2.1c-0.4-5.7-0.9-11.3-1.5-16.9c-0.3-3.3-0.8-6.7-1.1-10c-0.1-0.7,0-1.4,0-2.4c1.4,0,2.6-0.1,3.8,0
		c4.9,0.3,9.7,0.8,14.6,0.9c7,0.1,14.1,0.1,21.1,0c10.9-0.1,21.9-0.4,32.8-0.5c2.6,0,5.1,0.1,7.7,0c6.1-0.2,12.3-0.5,18.4-0.8
		c6.5-0.3,12.9-0.9,19.4-1.2c8.2-0.4,16.5-0.7,24.7-0.8c4.1-0.1,8.1,0.3,12.2,0.3c9.5,0.1,19-0.5,28.5-1.2c4.1-0.3,8.2-0.2,12.2-0.4
		c6.1-0.3,12.3-0.5,18.4-1.3c5.9-0.7,11.8-1,17.7-0.9c9.1,0.1,18.2,0.3,27.3,0.6c4.5,0.1,9.1,0.6,13.6,0.7c3.3,0.1,6.7-0.2,10-0.2
		c2.1,0,4.2-0.2,6.2,0.1c8.8,1.3,17.6,2.1,26.5,2.6c3.3,0.2,6.5,0.8,9.8,1c5.6,0.4,11.2,0.7,16.7,1c3.8,0.2,7.5,0,11.3,0.4
		c4.1,0.4,8.2,1.2,12.3,1.9C373.5,163,375.2,163.4,377.3,163.8z M149.3,178.1L149.3,178.1c0.1-1.1,0.3-2.3,0.2-3.5
		c0-0.5-0.2-0.7,0.2-1.2c1.7-2.5,0.3-5.3-2.8-5.5c-0.2,0-0.3,0-0.5,0c-2.3-0.3-4.7,0.6-7,0c-0.3-0.1-0.9,0.4-1,0.8
		c-0.2,0.6-0.3,1.2-0.3,1.9c0.1,2.8,0.3,5.6,0.5,8.3c0.1,1.7,0.2,3.3,0.4,5c0.3,2.1,1.3,2.7,3.3,2.2c1.7-0.4,3.4-0.8,5.1-1.2
		c4-0.8,4.2-1.2,3.9-5.3C151.1,178.4,150.5,178,149.3,178.1z M307.2,171.9L307.2,171.9c2.2-1.6,1.9-3.8,1.6-6.2
		c-1-0.3-2.1-1-3.1-0.9c-2.2,0.2-4.4,0.7-6.5,1.3c-0.5,0.1-1,0.8-1.2,1.4c-2.4,4.6-2.5,9.4-1,14.3c0.2,0.6,0.9,1.3,1.4,1.4
		c1.7,0.5,3.4,0.6,5.1,1.1c1.9,0.5,3.9-0.3,5.9,0.3c1.7,0.6,3.1-0.7,3-2.1c-0.1-2.6-0.4-5.2-0.4-7.9c0-1.3-0.6-1.9-1.8-2.1
		C309.2,172.2,308.2,172,307.2,171.9z M225.5,177.2c-0.1,0.8-0.2,1.2-0.2,1.6c-0.3,1.8,0.1,2.3,1.8,2.5c0.3,0,0.6,0,1,0
		c2.1,0.1,2.6-0.4,2.2-2.5c-0.9-4.6-1.1-9.2-0.8-13.8c0-0.5,0-1.1,0-1.9c-1.4,0.1-2.7,0.4-3.9,0.4c-1.4,0-2,0.7-2.4,1.9
		c-0.5,1.3-1.1,2.6-1.6,4c-1.6-0.5-1.9-1.8-2.5-2.9c-0.7-1.3-1.5-2-3.1-2.1c-3.6-0.2-3.8,0-3.9,3.7c0,2.8,0.2,5.6,0.1,8.3
		c0,1.7-0.3,3.4-0.5,5.3c1.9,0.3,3.6,1.6,5.7,0.1c0-1.3,0-2.7,0-4.1c0-1.4,0-2.8,0-4.7c1.7,1.3,3,2.3,4.2,3.4
		C222.7,177.3,223.7,178.1,225.5,177.2z M277.6,169.8c0.9-0.2,1.5-0.3,2.1-0.4c1.5-0.1,3,0,4.5-0.1c1.9-0.1,2.1-0.4,1.8-2.3
		c0-0.3,0-0.6-0.1-1c-0.2-1.5-1-2-2.6-1.9c-3.2,0.1-6.3,0.1-9.5,0.1c-1.3,0-1.8,0.2-1.9,1.7c-0.1,1.8-0.2,3.6-0.4,5.5
		c-0.3,3.3-0.6,6.6-0.8,10c-0.1,1.8,0.3,2.1,2,2c3.5-0.1,7-0.2,10.5-0.4c0.4,0,1.2-0.2,1.2-0.5c0.3-1.3,0.6-2.7,0.4-3.9
		c-0.2-1.1-1.5-1-2.4-0.9c-1.7,0-3.5,0.2-5.2,0.3c-0.2,0-0.4-0.2-0.7-0.3c0.1-0.6,0.1-1.2,0.2-1.8c1.3,0,2.5,0.1,3.7,0
		c1.2-0.1,2.8,1,3.5-0.5c0.5-1,0.1-2.5,0.1-3.8c0-0.2-0.2-0.4-0.3-0.6C281.8,170.3,279.6,172,277.6,169.8z M125.4,167.3
		c0,0.7,0,1.3,0,1.9c0.4,4.4,0.7,8.7,1.1,13.1c0.1,1.8,0.7,2.1,2.5,1.5c0.2-0.1,0.4-0.2,0.7-0.3c1.8-0.6,1.8-0.6,1.3-2.3
		c-0.2-0.9-0.5-1.9,0.3-2.9c1.2,1.9-0.1,4.4,2,5.9c0.3-0.1,0.7-0.2,1.1-0.2c0.4-0.1,0.8-0.1,1.2-0.1c1.5-0.2,2.1-0.9,1.8-2.5
		c-0.7-3.9-1.2-7.9-1.1-11.9c0-0.5-0.1-0.9-0.2-1.4c-0.3-1.2-1-1.9-2.2-1.4c-2.4,1.1-4.9,0.2-7.4,0.4
		C126.1,167.1,125.8,167.2,125.4,167.3z M361.5,179.1c0.6,0,0.8,0,1,0c3.9,0.6,4.2,0.3,3.5-3.6c0-0.1-0.1-0.1-0.3-0.4
		c-1,0.2-2.2,0.5-3.4,0.7c-0.2-0.9-0.2-1.3,0.7-1.3c1.3,0,2.5-0.2,3.8-0.3c0.8-0.1,1.4-0.6,1.3-1.4c-0.1-1.2,0.8-2.5-0.3-3.6
		c-0.2-0.2-0.6-0.2-0.9-0.2c-2.4,0-4.8-0.1-7.2-0.1c-2,0-2.4,0.3-2.6,2.3c-0.4,4.3-0.8,8.6-1,12.9c-0.1,2.2,0.7,3,2.9,2.6
		c2.2-0.3,4.4-0.6,6.6,0c1.1,0.3,1.6-0.3,1.7-1.5c0-1,0-1.9,0-2.9c0-1.4-0.3-1.5-1.7-1.5c-1.3,0.1-2.6,0-4,0
		C361.5,180.2,361.5,179.7,361.5,179.1z M322.4,178.7c-1.4-1.6-1.8-2.3-1.8-4.2c0-1.4,0.2-2.9,0.3-4.3c0-0.8,0-1.6,0-2.5
		c-1.2,0-2.1,0-2.7,0c-0.3-0.5-0.5-1.1-0.8-1.1c-0.4-0.1-0.9,0.2-1.2,0.5c-0.3,0.2-0.3,0.7-0.4,1.1c-0.8,4.3-0.7,8.6-0.3,12.8
		c0.1,0.9,0.7,1.9,1.3,2.4c3.3,2.7,7.9,1.5,9.8-2.3c1.4-2.7,1.3-5.7,1.6-8.6c0.1-1.3,0.1-2.7-0.1-4.1c-0.1-1.2-1.4-2-2.9-1.9
		c-1.2,0.1-1.4,0.9-1.5,2c-0.2,2.9-0.5,5.7-0.8,8.5C322.9,177.7,322.6,178.1,322.4,178.7z M243.9,176.4c0.1,0.2,0.2,0.3,0.2,0.5
		c0.2,1,0.3,2,0.4,3.1c0.1,1.5,0.4,1.8,1.8,1.7c0.6,0,1.3-0.1,1.9-0.2c1.5-0.2,1.8-0.4,1.6-2c-0.3-2.1-0.8-4.2-1.2-6.3
		c-0.5-2.2-1-4.3-1.4-6.5c-0.2-1.2-0.4-2.4-0.6-3.7c-1.3,0-2.6,0-3.9,0.1c-3.9,0.3-4.8,1-5.9,4.7c-0.1,0.2-0.1,0.5-0.2,0.7
		c-0.8,2.7-1.5,5.3-2.3,8c-0.5,1.8-1.3,3.6-1,5.4c0.2,0.2,0.2,0.3,0.3,0.3c4,1.4,5.1,0.9,6-3.2c0.6-3,0.7-3,3.8-2.7
		C243.5,176.2,243.7,176.4,243.9,176.4z M268.4,169.5c-0.1-1.6-0.2-3.1-0.4-4.5c-0.2-1.6-1-2-2.5-1.4c-2.1,0.8-4.1,1.1-6.3,0.7
		c-2-0.4-4.1-0.7-6.1-1.1c-1.4-0.2-2.4,0.1-2.6,1c-0.3,2.2-0.6,4.4,0.3,6.7c1.6-0.1,3.1-0.2,4.5-0.2c0,3.3,0,6.2,0,9.2
		c0,1.1,0.5,1.7,1.4,1.9c0.6,0.2,1.3,0.2,1.9,0.2c2.7-0.1,2.9-0.4,2.9-3.1c0-2.4,0.3-4.8,0.4-7.2c0.1-1.3,0.8-1.8,2-1.8
		C265.4,169.9,266.7,169.7,268.4,169.5z M159.8,169c1.7,1,1.8,2.4,1.8,3.8c0.1,1.3,0.2,2.5,0.5,3.8c0.3,1.3,2.3,2.5,3.5,2.4
		c1.4-0.2,2.4-1.4,2.5-3.1c0.1-1.5-0.1-3-0.1-4.5c0-0.7,0.1-1.5,0.1-2.2c0.2,0,0.3,0,0.5,0c0.7,3.1,0.4,6.1-0.4,9.1
		c-0.2,0.7-0.6,1.4-1.2,1.8c-0.7,0.4-1.7,0.9-2.3,0.7c-2.2-0.8-4.2-2-4.6-4.7c-0.2-1.3-0.3-2.7-0.4-4.1c-0.1-1.3,0-2.6-0.1-3.8
		c0-0.7-0.2-1.3-1.1-1.3c-0.9,0-1,0.7-1,1.3c0.1,1.9,0.2,3.8,0.2,5.7c0.1,3.5,1.2,6.3,4.7,7.9c3,1.4,5.3,1.2,6.9-1.8
		c2.1-3.9,1.8-8.2,1.3-12.4c0-0.3-0.6-0.8-1-0.9c-1.2-0.1-2.5,0-3.9,0c0,1,0,1.7,0,2.4c0,2,0,4-0.1,6c0,0.4-0.5,0.8-0.8,1.2
		c-0.4-0.4-1-0.7-1.3-1.1c-0.2-0.5-0.1-1.1-0.1-1.7c0-1.5,0-3,0-4.6c-0.1-1.5-0.9-2-2.2-1.4C161,168,160.5,168.5,159.8,169z
		 M114.6,167.5C114.6,167.5,114.6,167.5,114.6,167.5c-0.2,0-0.3,0.1-0.5,0.1c-2.9,0-3.2,0.3-2.7,3.3c0.1,0.5,0.1,0.9,0.2,1.4
		c0.3,1.5,0.8,1.7,2,0.6c1.1-0.9,1.7-0.8,1.8,0.5c0.3,2.8,0.5,5.5,0.6,8.3c0,1.1,0.4,1.9,1.4,2.3c0.6,0.2,1.2,0.4,1.8,0.5
		c2,0.5,2.2,0.3,2.1-1.7c0-1.2-0.2-2.4-0.3-3.6c-0.2-1.6-0.5-3.1-0.6-4.7c-0.1-1.6,0.1-1.9,1.6-2c1.4-0.1,1.8-0.7,1.6-2
		c-0.1-0.4-0.1-0.8-0.1-1.2c0.2-2.1,0.2-2.2-1.9-2.1C119.4,167.1,117,167.3,114.6,167.5z M188.9,170.9c0,1,0,1.7,0,2.3
		c0.2,2.9,0.3,5.7,0.6,8.6c0.1,1.5,0.8,1.7,2.1,1.2c0.7-0.3,1.5-0.6,2.3-0.9c1-3.4-0.6-6.9,0.3-10.4c0.7-0.2,1.3-0.3,1.9-0.4
		c4-0.8,4.1-0.9,3.2-5c-0.3-1.1-0.8-1.3-1.9-1.2c-3.1,0.4-6.1,0.8-9.2,1.1c-0.8,0.1-1.6,0.2-2.3,0.4c-1.5,0.5-1,1.8-1.1,2.8
		c-0.1,1,0.6,1.4,1.5,1.5C187,170.9,187.8,170.9,188.9,170.9z M341.3,168.6c0,1.2,0,2.3,0,3.4c-0.2,4.3-0.4,8.6-0.6,12.9
		c-0.1,1.7,0.4,2.1,2,2.2c1.3,0.1,2.6,0.1,3.8,0.2c3.1,0.3,6.4-1.8,7.6-4.7c1.4-3.2,0.8-6.4-0.2-9.6c-0.7-2.3-2.1-3.7-4.5-4.1
		c-2.3-0.4-4.7-0.7-7-0.9C342.2,168,341.7,168.4,341.3,168.6z M178.4,167.4c-0.7,0-1.3,0-1.9,0c-0.4,0-1.1,0-1.3-0.2
		c-0.5-0.5-1-1.1-1.5-0.6c-0.4,0.4-0.6,1.3-0.5,1.9c0.1,2.9,0.4,5.9,0.5,8.8c0.1,1.4,0,2.9,0,4.3c0,0.9,0.6,1.6,1.3,1.3
		c2.4-0.9,4.7,0.1,7.1-0.3c0.5-0.1,1.1-0.1,1.6-0.3c1.6-0.4,2.1-1.1,2-2.7c0-0.4-0.1-0.8-0.1-1.2c-0.1-1.2-0.6-1.8-1.8-1.7
		c-1.1,0.1-2.2,0.2-3.3,0.2c-0.6,0-1.2,0-2,0C178.4,173.7,178.4,170.8,178.4,167.4z M336.4,186.3c0.2-1.2,0.3-2.2,0.5-3.3
		c0.5-3.4,0.8-6.8,1.4-10.2c0.8-4.2,0.9-4.2-3.4-4.4c-2.7-0.2-2.7-0.2-3,2.4c-0.1,0.6-0.1,1.1-0.1,1.7c0,3.7,0.2,7.3-0.5,11
		c-0.3,1.7,0.2,2.3,1.9,2.7C334.2,186.3,335.2,186.2,336.4,186.3z M201.8,175.5C201.8,175.5,201.8,175.5,201.8,175.5
		c0.1,2.1,0.1,4.3,0.1,6.4c0,1,0.5,1.5,1.5,1.5c1.2-0.1,2.4-0.3,3.5-0.5c1-0.1,1.3-0.7,1.2-1.7c-0.1-1.2-0.3-2.4-0.3-3.6
		c0-3.3,0.1-6.5,0.1-9.8c0-1.8-0.3-2.1-2.2-2.5c-1.3-0.3-2.4,0.2-2.9,1.4c-0.3,0.8-0.5,1.7-0.6,2.5
		C201.9,171.4,201.8,173.4,201.8,175.5z M91.9,179.8c1.1,0.4,1.7,0.5,2.2,0.8c0.9,0.5,1.7,1.1,2.5,1.8c0.7,0.6,1.3,0.7,1.9,0
		c0.6-0.7,0.1-1.4-0.5-1.8c-0.4-0.3-0.8-0.5-1.2-0.7c-0.7-0.5-1.5-0.9-2.2-1.4c0.4-0.7,0.9-1.3,1.2-2c1-2.1,0.7-3.7-0.9-5.4
		c-1-1.1-2.1-1.3-3.4-0.8c-1.4,0.5-2,1.2-1.9,2.9c0.2,3.7,0.6,7.3,0.8,10.9c0.1,0.9,0.6,1.3,1.4,1.2c0.8-0.1,1-0.7,0.9-1.4
		C92.5,182.7,92.3,181.5,91.9,179.8z M70,178.5c0.1-2.1-0.5-4.3-2.7-6c-1.7-1.3-3.1-0.6-4.7-0.1c-1.5,0.5-2.1,1.6-2.2,3.1
		c-0.2,2.8,0.3,5.4,1.3,7.9c0.3,0.9,1,1.3,2,1.5C67.4,185.5,70,183.2,70,178.5z M50.6,178.9c0.1,2.1,0.7,3.8,2.7,5
		c2.1,1.2,3.6,0.1,5.2-1c1.1-0.8,1.5-1.9,1.4-3.1c-0.1-1.6-0.5-3.1-0.9-4.7c-0.3-1.3-1.3-2.2-2.6-2.2c-3.5,0-5.1,0-5.7,4.4
		C50.7,177.8,50.7,178.4,50.6,178.9z M27.1,173.5c1.1,0.5,1.8,0.8,2.5,1c0.4,0.1,0.8-0.2,1.2-0.3c-0.1-0.4-0.1-1.1-0.4-1.2
		c-0.8-0.4-1.7-0.9-2.6-1c-1.1-0.1-2,0.5-2.6,1.5c-0.6,0.9-0.5,1.9,0.3,2.7c1,1.1,2.2,2,3.4,3c0.7,0.6,1.6,1.1,2.3,1.7
		c0.8,0.8,0.6,1.8-0.4,2.1c-0.7,0.3-1.5,0.1-2.3,0.1c-0.7,0-1.6-0.4-1.7,0.6c-0.2,1,0.7,1.4,1.5,1.4c0.9,0,1.8-0.1,2.6-0.2
		c1.3-0.2,2.3-0.8,2.6-2.1c0.3-1.4,0.3-2.7-1.1-3.6c-1-0.7-2-1.3-3-2C28.3,176.3,27.2,175.6,27.1,173.5z M80,172.3
		c0.1,1.2,0.3,1.9,0.3,2.6c0.1,1.7,0,3.3,0.1,5c0.3,3.4,1.5,4.3,4.7,3.5c0.6-0.2,1.3-0.2,1.8-0.5c0.5-0.2,0.9-0.7,1.5-1.2
		c-1.8-1.2-3.3,0.2-4.8-0.1c-1.5-0.9-1.3-2.3-1.2-3.8c1.2-0.4,2.3-0.7,3.4-1.1c-0.9-1.6-2.3-0.6-3.3-1.1c-0.4-1.6-0.4-1.7,0.8-2.1
		c0.3-0.1,0.7-0.1,0.9-0.3c0.3-0.2,0.7-0.7,0.6-0.8c-0.2-0.4-0.6-0.8-0.9-0.8C82.7,171.7,81.5,172,80,172.3z M74.6,183.6
		c0.1-0.5,0.3-0.9,0.2-1.2c-0.4-1.8,0.5-3,1.8-4c0.2-0.1,0.3-0.3,0.5-0.5c1.2-1,1.5-2.3,1-3.7c-0.5-1.5-1.6-2.4-3.2-2.5
		c-0.8,0-1.7,0.1-2.4,0.1c-0.2,0.4-0.3,0.5-0.3,0.7c0.2,3.2,0.4,6.5,0.6,9.7C72.9,183,73.4,183.6,74.6,183.6z M47.2,173
		c-3.2-1.7-5.8-0.6-6.3,2.8c-0.2,1.3-0.1,2.7,0.3,4c0.8,3.1,4,4.9,7,4c0.4-0.1,0.8-0.6,0.8-0.9c0-0.3-0.4-0.9-0.8-1
		c-0.5-0.2-1.1,0.1-1.6,0c-0.7-0.1-1.5-0.2-1.9-0.7c-1.5-1.5-2-3.4-1.6-5.5c0.2-1.2,0.9-1.8,2.1-1.7C46,174.1,46.8,174.2,47.2,173z
		 M36.6,183.6c0.4,0.7,0.8,1.4,1.7,0.7c0.2-0.2,0.3-0.8,0.2-0.9C37.9,182.5,37.2,182.7,36.6,183.6z"/>
	<path class="st0" d="M302.4,130.1c0.8-9.9,1.5-19.8,2.3-29.4c-7.6-5.8-16.5-8.7-24.5-13.2c0-0.2,0-0.4,0.1-0.6
		c0.9-0.2,1.7-0.4,2.6-0.5c6.2-0.7,12.4-1.4,18.5-2.1c2-0.2,2.2-0.6,2.3-2.5c0.3-5.2,0.7-10.4,0.9-15.5c0.1-2.4,0-4.9,0-7.4
		c0-0.4,0.1-0.7,0.2-1.4c1.5,0.8,2.7,1.5,3.8,2.6c2.2,2.2,4.3,4.8,6.9,6.5c2.3,1.5,4.1,3.5,6.4,4.9c1.4,0.9,2.4,2.2,2,4.1
		c0.8,0.3,1.4,0.5,1.7-0.4c2.2-8.3,6.4-15.8,10.2-23.4c0.1-0.3,0.3-0.6,0.5-0.8c0.1-0.1,0.3-0.1,0.7-0.4c0.7,3.8,1.5,7.5,2.1,11.2
		c0.8,5.4,1.3,10.9,1.9,16.4c0,0.3,0.2,0.6,0.2,0.9c0.1,1.2,0.6,1.5,1.8,1.2c4.2-1,8.4-2,12.5-3c1.9-0.4,3.9-0.7,6.2-1.2
		c-0.4,0.6-0.6,1-0.8,1.2c-4.3,3.6-8.5,7.2-13.5,9.8c-0.7,0.4-1.2,1.2-1.8,1.8c0.3,0.3,0.4,0.7,0.6,0.7c1.8-0.2,2.7,0.9,3.6,2.2
		c0.9,1.3,2.1,2.3,3.2,3.5c1.8,2.1,3.6,4.2,5.4,6.4c1.5,1.8,2.8,3.6,4.4,5.6c-1.8,0.4-3.4,0.2-4.9-0.9c-3.1-2.3-6.3-4.6-9.4-7
		c-1.7-1.3-2-1.1-2.4,1.1c-0.3,1.8-0.5,3.7-2.6,4.7c1.3,1.5,0.2,2.7-0.2,4c-1.9,5.7-3.9,11.5-5.9,17.2c-0.5,1.4-1.4,2.6-2.3,4.3
		c-1.4-1.7-2.7-3-3.7-4.4c-3.3-4.4-7-8.3-10.9-12.1c-1.1-1-2.7-0.8-3.8,0.4c-3.2,3.7-6.4,7.4-9.6,11c-1.4,1.6-2.9,3.1-4.3,4.6
		C302.7,130.3,302.6,130.2,302.4,130.1z"/>
	<path class="st0" d="M7.2,157.9c-2.5,2.4-2,5.4-1.8,8.3c0.3,3.4,0.7,6.8,1.1,10.2c0,0.5-0.1,0.9-0.2,1.6c-0.9,0.2-1.8,0.3-2.9,0.5
		c0-3-0.1-5.7,0-8.4c0.3-5.4,0.8-10.8,1.1-16.3c0.4-6.5,0.9-12.9,2.5-19.2c0.6-2.3,0.8-4.7,1-7.1c0.8-7.9,1.5-15.9,2.4-23.8
		c0.2-2.2,0.8-4.4,1.2-6.7c1.3,0,2.5,0,3.9,0c-0.2,1.4-0.3,2.8-0.5,4.2c-0.7,5.1-1.5,10.1-2.2,15.2c-1,7-1.8,13.9-3,20.9
		c-0.6,4-1.7,7.9-2.6,11.9c-0.5,2.1-0.7,4.3-1.3,6.3C5.6,157,6,157.6,7.2,157.9C7.2,158,7.2,157.9,7.2,157.9z"/>
	<path class="st0" d="M342.2,68.7c3.7-0.2,7.2-0.4,10.7-0.6c0,2.6,0,5,0,7.3c0,0.8-0.5,1.2-1.3,1.4c-2.9,0.6-5.7,1.2-8.8,1.8
		C342.6,75.3,342.4,72.1,342.2,68.7z"/>
	<path class="st0" d="M325.3,71.4c-2.8-1.6-4.3-2.8-5.4-4.5c2.2,0,4.4,0,6.9,0C326.2,68.6,325.8,70,325.3,71.4z"/>
	<path class="st0" d="M346.5,104.8c0.4-1.2,0.7-2.4,1.2-3.8c2.2,1.6,4.1,3,6.4,4.8c-1.7,0.4-2.8,0.3-3.9-0.1
		C349,105.3,347.9,105.1,346.5,104.8z"/>
	<path d="M112.9,30.4c-0.4,4.2-0.9,8.4-1.3,12.6c-0.9,7.7-1.9,15.4-2.7,23.1c-0.9,8.5-1.6,17-2.2,25.5c-0.5,7.3-0.7,14.7-1.1,22
		c-0.3,5.1-0.7,10.2-1.1,15.3c-0.4,4.5-0.9,9.1-1.4,13.6c0,0.5-0.1,1-0.4,1.3c-0.3,0.3-0.9,0.6-1.2,0.5c-0.3-0.1-0.7-0.7-0.6-1.1
		c0.3-2.8,0.8-5.7,1.2-8.5c0.2-1.9,0.3-3.8,0.5-5.7c0.3-3.7,0.7-7.3,1-11c0.2-3.1,0.5-6.2,0.6-9.3c0.2-4.7,0.2-9.4,0.5-14.1
		c0.3-6,0.7-11.9,1.2-17.9c0.5-5.3,1.1-10.6,1.7-15.9c0.4-3.6,1-7.1,1.5-10.7c0.6-5.5,1.2-11.1,1.8-16.6c0.2-2.4,0.1-4.9,0.2-7.4
		c0-0.4,0.4-1.1,0.8-1.2c0.9-0.2,1.1,0.5,1,1.2c0,1.4-0.1,2.9-0.2,4.3C112.7,30.4,112.8,30.4,112.9,30.4z"/>
	<path d="M128.2,26.2c-0.1,3.8-0.4,7.6-0.4,11.4c-0.1,7.4-0.6,14.7-1.6,22c-0.8,5.9-1.7,11.8-2.4,17.8c-0.6,5.5-1,11-1.5,16.5
		c-0.6,6.7-1.2,13.4-1.7,20c-0.6,7.9-1.2,15.8-1.8,23.6c-0.1,1.9-0.3,3.8-0.4,5.7c0,0.9-0.5,1.3-1.4,1.2c-1-0.1-1-0.8-1-1.6
		c0.4-5,0.9-10,1.4-15c0.6-6,1.2-12.1,1.7-18.1c0.3-3.5,0.3-7,0.7-10.5c0.7-7.7,1.5-15.4,2.3-23.1c1.1-10.5,2.5-20.9,3.5-31.4
		c0.5-5.2,0.3-10.5,0.5-15.8c0-0.8,0-1.6,0.1-2.4C126.5,25.5,127.2,25.5,128.2,26.2z"/>
	<path d="M159,138.8c0.1-1.1,0.1-2.2,0.3-3.3c1.2-5.7,1.3-11.6,1.6-17.4c0.4-7.5,0.5-15,0.9-22.5c0.4-8,0.8-16.1,1.2-24.1
		c0.2-4.5,0.3-9.1,0.6-13.6c0.4-6.8,0.9-13.7,1.3-20.5c0.2-3.2,0.4-6.4,0.6-9.6c0.1-0.8,0.2-1.6,0.5-2.3c0.2-0.4,0.7-0.6,1.1-0.8
		c0.2,0.4,0.6,0.8,0.5,1.1c-1.4,11.2-1.6,22.4-2.2,33.7c-0.5,8.4-1,16.7-1.3,25.1c-0.3,6.8-0.4,13.6-0.6,20.3
		c-0.2,5.3-0.5,10.5-0.8,15.8c-0.4,5.5-0.9,11-1.3,16.5c-0.1,1,0,1.9-0.1,2.9c-0.1,0.5-0.2,1.1-0.5,1.5c-0.2,0.3-0.9,0.5-1.2,0.3
		c-0.3-0.1-0.5-0.7-0.5-1.1c0-0.6,0.1-1.3,0.1-1.9C159.1,138.8,159.1,138.8,159,138.8z"/>
	<path d="M58.9,134.5c-0.3-0.4-0.8-0.7-0.8-1.1c-0.1-1-0.1-2.1,0-3.1c0.4-5.1,0.8-10.2,1.2-15.3c0.4-4.4,0.8-8.7,1.3-13.1
		c0.5-4.8,1-9.5,1.7-14.2c0.3-2,0.8-4.1,1.1-6.1c0.2-1.2,0.3-2.4,0.4-3.6c0.3-3.7,0.6-7.5,1-11.2c0.4-3.1,0.9-6.2,1.4-9.2
		c1-6.9,2-13.7,3-20.6c0.1-0.6,0.2-1.3,0.5-1.8c0.2-0.3,0.8-0.6,1.2-0.5c0.3,0.1,0.6,0.6,0.8,1c0.1,0.2,0,0.5-0.1,0.7
		c-0.6,3.5-1.4,7-1.9,10.6c-0.9,6-1.8,12-2.6,18c-0.4,2.8-0.6,5.7-0.9,8.6c-0.6,5.2-1.4,10.4-2,15.7c-0.7,6-1.5,12-2.1,18.1
		c-0.6,6.5-1.1,13-1.6,19.6c-0.2,2.4-0.5,4.9-0.8,7.3C59.3,134.3,59.1,134.4,58.9,134.5z"/>
	<path d="M170.8,118.4c0.3-3.2,0.7-6.3,1-9.4c0.5-6.1,0.8-12.3,1.3-18.4c0.6-6.8,1.3-13.7,1.8-20.5c0.3-3.5,0.4-7,0.6-10.5
		c0.3-3.3,0.6-6.7,1-10c0-0.2,0-0.6,0.1-0.7c0.4-0.4,1-0.9,1.4-0.9c0.8,0,0.9,0.8,0.7,1.5c-0.3,1.2-0.7,2.5-0.8,3.7
		c-0.3,3.8-0.5,7.6-0.8,11.5c-0.5,5.7-1,11.5-1.5,17.2c-0.4,4.8-0.7,9.6-1,14.3c-0.5,7.7-1.1,15.3-1.6,23c0,0.4,0.1,0.9-0.1,1.2
		c-0.3,0.4-0.8,0.8-1.2,0.8c-0.3,0-0.8-0.6-0.9-0.9C170.7,119.7,170.8,119,170.8,118.4z"/>
	<path d="M145.1,77.2c1.8-0.1,3.5,1,5.2,2c1.8,1.2,2.1,3.9,0.8,5.8c-1.7,2.5-4.1,3.6-7,3.1c-1.8-0.3-3.6-0.8-4.8-2.4
		c-1-1.2-1.3-2.5-0.6-4C139.7,79.3,142.5,77.1,145.1,77.2z M147.4,79.8c-0.7-0.2-1.2-0.3-1.9-0.5C145.8,80.5,145.8,80.5,147.4,79.8z
		 M147.6,85.8c-0.1-0.2-0.1-0.3-0.2-0.5c-0.7,0.3-1.3,0.5-2,0.8c0,0.1,0.1,0.2,0.1,0.3C146.3,86.2,147,86,147.6,85.8z"/>
	<path d="M225.5,177.2c-1.8,0.9-2.8,0.1-3.8-0.9c-1.2-1.1-2.5-2-4.2-3.4c0,1.9,0,3.3,0,4.7c0,1.4,0,2.8,0,4.1
		c-2.1,1.6-3.8,0.2-5.7-0.1c0.2-1.8,0.4-3.5,0.5-5.3c0-2.8-0.2-5.6-0.1-8.3c0-3.8,0.3-3.9,3.9-3.7c1.6,0.1,2.4,0.8,3.1,2.1
		c0.6,1.1,0.9,2.4,2.5,2.9c0.6-1.4,1.1-2.7,1.6-4c0.4-1.2,1-1.9,2.4-1.9c1.2,0,2.5-0.2,3.9-0.4c0,0.9,0,1.4,0,1.9
		c-0.3,4.6-0.1,9.2,0.8,13.8c0.4,2.1,0,2.6-2.2,2.5c-0.3,0-0.6,0-1,0c-1.8-0.2-2.1-0.7-1.8-2.5C225.3,178.4,225.4,178,225.5,177.2z
		 M227.1,165.6c-1.6,0.2-1.6,0.2-2.1,1.2c-0.7,1.5-1.3,3.1-2,4.6c-0.6,1.2-1.2,1.3-2.3,0.6c-0.6-0.4-1.1-0.8-1.6-1.2
		c0.7,2.4,2.7,3.2,4.3,4.2c1.3-0.9,2.5-1.7,3.6-2.5C227.1,170.1,227.1,167.8,227.1,165.6z M218.2,169.5c-0.5-0.8-1-1.7-1.6-2.4
		c-0.3-0.3-1-0.6-1.4-0.5c-0.4,0.1-0.8,0.7-1,1.1c-0.2,0.4-0.1,0.9-0.1,1.4c0,3.4,0,6.8,0,10.3c0,0.3,0.2,0.6,0.4,0.9
		c0.2,0,0.3,0,0.5,0c0.1-1.1,0.4-2.3,0.4-3.4c0.1-1.7,0-3.3,0.2-5C215.7,169.8,215.9,169.6,218.2,169.5z"/>
	<path d="M277.6,169.8c2,2.1,4.2,0.5,6.1,1.1c0.1,0.2,0.3,0.4,0.3,0.6c0,1.3,0.4,2.7-0.1,3.8c-0.7,1.4-2.3,0.3-3.5,0.5
		c-1.2,0.1-2.3,0-3.7,0c-0.1,0.6-0.1,1.2-0.2,1.8c0.3,0.1,0.5,0.3,0.7,0.3c1.7-0.1,3.5-0.2,5.2-0.3c0.9,0,2.3-0.2,2.4,0.9
		c0.2,1.3-0.2,2.6-0.4,3.9c0,0.2-0.8,0.5-1.2,0.5c-3.5,0.1-7,0.2-10.5,0.4c-1.7,0.1-2.1-0.2-2-2c0.2-3.3,0.6-6.7,0.8-10
		c0.2-1.8,0.2-3.6,0.4-5.5c0.1-1.4,0.6-1.7,1.9-1.7c3.2,0.1,6.3,0,9.5-0.1c1.6-0.1,2.4,0.4,2.6,1.9c0,0.3,0,0.6,0.1,1
		c0.3,1.9,0.1,2.2-1.8,2.3c-1.5,0.1-3,0-4.5,0.1C279.1,169.5,278.6,169.7,277.6,169.8z M276.3,172.8c2.6,1.7,3.3,1.7,5,0.5
		C279.6,173.1,277.9,173,276.3,172.8c-0.2-0.2-0.4-0.5-0.5-0.8c-0.6-1.3-0.7-2.7-0.1-3.9c0.6-1.1,1.9-0.6,2.9-0.6
		c1.5-0.1,3,0,4.5-0.1c0.4,0,0.7-0.5,1-0.7c-3.5-0.2-6.8-1.1-10.1,0.1c0,4.8-1.6,9.5-0.7,14.2c2.9,0.7,7.9,0.3,9.6-0.7
		c-1.2-1.2-2.7-0.7-4-0.6c-1,0.1-2,0.2-3.1,0.2c-1-0.1-1.6-0.7-1.5-1.8c0.1-1.5,0.2-3,0.3-4.6C275.2,173.3,275.8,173,276.3,172.8z"
		/>
	<path d="M307.2,171.9c1,0.2,2,0.4,3,0.6c1.2,0.2,1.7,0.8,1.8,2.1c0,2.6,0.3,5.2,0.4,7.9c0.1,1.5-1.3,2.7-3,2.1
		c-2-0.6-3.9,0.2-5.9-0.3c-1.7-0.4-3.4-0.6-5.1-1.1c-0.6-0.2-1.3-0.8-1.4-1.4c-1.4-4.9-1.4-9.7,1-14.3c0.3-0.5,0.7-1.2,1.2-1.4
		c2.1-0.6,4.3-1.1,6.5-1.3c1-0.1,2,0.6,3.1,0.9C309.1,168.1,309.4,170.3,307.2,171.9c-0.7-0.1-1.4-0.3-2.1-0.3
		c-2.5-0.1-4.3,2.1-3.6,4.4c0.4,1.4,1.2,1.7,2.5,1.2c1.2-0.5,2-1.2,1.9-2.6C305.9,173.4,306.1,172.4,307.2,171.9z M305,166.6
		c-0.8,0.1-1.4,0.4-2,0.4c-2.4,0-3.5,1.4-4.2,3.5c-1,3.2-0.7,6.3-0.3,9.5c0.1,1,0.9,1.6,1.8,1.7c1.7,0.3,3.4,0.5,5.2,0.6
		c0.9,0.1,1.4-0.4,1.3-1.5c0-1.5,1-2.1,2.1-1.4c0.3,0.2,0.6,0.6,0.9,1c0.3-5.5,0.3-5.5-1.6-6c-0.1,0.2-0.2,0.4-0.2,0.7
		c-0.2,1-0.2,2.1-0.5,3c-0.5,1.2-1.9,0.6-2.7,1c-0.2,0.1-0.4,0.2-0.6,0.3c-1.2,0.6-2.2,0.2-3.1-0.5c-3-2.3-2.2-7.6,1.3-9
		c1-0.4,2-0.4,3-0.6c0.4-0.1,0.8-0.3,1.4-0.5C306.2,168,305.6,167.4,305,166.6z"/>
	<path d="M125.4,167.3c0.4-0.1,0.7-0.2,1-0.2c2.4-0.2,4.9,0.7,7.4-0.4c1.2-0.5,2,0.2,2.2,1.4c0.1,0.5,0.2,0.9,0.2,1.4
		c-0.1,4,0.4,7.9,1.1,11.9c0.3,1.5-0.3,2.2-1.8,2.5c-0.4,0.1-0.8,0.1-1.2,0.1c-0.4,0.1-0.8,0.2-1.1,0.2c-2.1-1.5-0.8-4-2-5.9
		c-0.8,1-0.6,1.9-0.3,2.9c0.5,1.8,0.5,1.8-1.3,2.3c-0.2,0.1-0.4,0.2-0.7,0.3c-1.8,0.7-2.3,0.3-2.5-1.5c-0.3-4.4-0.7-8.7-1.1-13.1
		C125.3,168.6,125.4,167.9,125.4,167.3z M132.4,175.8c-0.1-0.1-0.3-0.3-0.5-0.4c-2-0.3-2.7-1.6-2.9-3.5c-0.1-0.6-0.2-1.3-0.4-1.9
		c-0.1-0.4-0.4-0.7-0.6-1c-0.2,0.1-0.4,0.1-0.5,0.2c0.3,2.8,0.6,5.7,0.8,8.4C129.8,177,131.1,176.4,132.4,175.8z M134.4,181.6
		c0.8-1.9,0.4-4.7-0.8-6.2C134.3,177.3,133.5,179.4,134.4,181.6z"/>
	<path d="M149.3,178.1c1.2-0.1,1.8,0.4,2,1.7c0.3,4.1,0.1,4.5-3.9,5.3c-1.7,0.3-3.4,0.8-5.1,1.2c-2,0.5-3-0.1-3.3-2.2
		c-0.2-1.7-0.3-3.3-0.4-5c-0.2-2.8-0.3-5.6-0.5-8.3c0-0.6,0-1.3,0.3-1.9c0.1-0.4,0.8-0.8,1-0.8c2.4,0.5,4.7-0.3,7,0
		c0.2,0,0.3,0,0.5,0c3,0.2,4.5,2.9,2.8,5.5c-0.3,0.5-0.2,0.7-0.2,1.2C149.6,175.8,149.4,177,149.3,178.1c-1.5-0.2-3.1-0.5-4.4,0.9
		C146.4,178.7,147.8,178.4,149.3,178.1z M148.3,171.3c-0.3-0.7-0.5-1.2-0.6-1.2c-2.5,0.1-5,0.2-7.8,0.4c0.5,4.8,0.9,9.2,1.4,13.7
		c2.4-0.4,4.5-0.8,6.6-1.2c0.8-0.1,1.3-0.5,1.3-1.4c-0.1-1-0.8-1.2-1.6-1c-1.1,0.2-2.2,0.5-3.3,0.7c-1.5,0.4-2.3-0.1-2.4-1.7
		c-0.1-1.3,0.3-2.4,1.6-3.1c-1.9-2.2-1.4-4.2,1.2-4.7C145.8,171.5,146.9,171.4,148.3,171.3z"/>
	<path d="M361.5,179.1c0,0.6,0,1,0,1.8c1.3,0,2.7,0.1,4,0c1.5-0.1,1.7,0.1,1.7,1.5c0,1,0.1,1.9,0,2.9c0,1.2-0.6,1.7-1.7,1.5
		c-2.2-0.6-4.4-0.3-6.6,0c-2.2,0.3-3-0.4-2.9-2.6c0.2-4.3,0.6-8.6,1-12.9c0.2-2,0.6-2.3,2.6-2.3c2.4,0,4.8,0,7.2,0.1
		c0.3,0,0.7,0,0.9,0.2c1.1,1.1,0.3,2.4,0.3,3.6c0,0.8-0.5,1.3-1.3,1.4c-1.3,0.1-2.5,0.3-3.8,0.3c-0.9,0-0.9,0.4-0.7,1.3
		c1.2-0.3,2.4-0.5,3.4-0.7c0.2,0.3,0.3,0.3,0.3,0.4c0.8,3.8,0.4,4.2-3.5,3.6C362.3,179.1,362.1,179.1,361.5,179.1z M358.9,177
		c0.4-0.9,0.9-1.8,1.1-2.7c0.5-2,0.7-2.1,2.7-1.8c0.9,0.1,1.9,0,2.8-0.2c0.3-0.1,0.5-0.7,0.8-1.4c-2.5,0-4.5,0-6.6,0
		C358.6,172.9,359,175,358.9,177c-0.6,2.5-0.5,4.9-0.4,7.2c2.4,0,4.3,0,6.3,0c0-0.2,0.1-0.4,0.1-0.6c-0.6-0.2-1.2-0.5-1.8-0.6
		c-0.7-0.1-1.4-0.1-2.1-0.2c-1.5-0.2-1.8-0.6-1.8-2.2C359.1,179.4,359,178.2,358.9,177z"/>
	<path d="M322.4,178.7c0.2-0.6,0.5-1,0.6-1.5c0.3-2.8,0.7-5.7,0.8-8.5c0.1-1.1,0.2-1.9,1.5-2c1.5-0.1,2.8,0.7,2.9,1.9
		c0.1,1.3,0.2,2.7,0.1,4.1c-0.3,2.9-0.2,5.9-1.6,8.6c-1.9,3.8-6.5,4.9-9.8,2.3c-0.7-0.5-1.2-1.6-1.3-2.4c-0.5-4.3-0.5-8.6,0.3-12.8
		c0.1-0.4,0.2-0.8,0.4-1.1c0.3-0.3,0.9-0.6,1.2-0.5c0.3,0.1,0.5,0.7,0.8,1.1c0.7,0,1.5,0,2.7,0c0,0.8,0,1.7,0,2.5
		c-0.1,1.4-0.3,2.9-0.3,4.3C320.6,176.4,320.9,177.1,322.4,178.7z M318,169.6c-0.2,0.1-0.5,0.1-0.7,0.2c-0.1,3.7-0.4,7.4,0.3,11
		c0.2,1.1,1,1.6,2,1.9c2.6,0.9,4.3,0,5-2.9c-0.3,0.2-0.5,0.4-0.8,0.6c-1.8,0.9-3.1,0.5-4.1-1.4c-0.9-1.6-1.2-3.3-1.1-5.1
		c0-1.1,0.1-2.2,0.1-3.3C318.6,170.3,318.2,169.9,318,169.6z M325,178.2c1.1-2.4,1.4-5.6,0.7-7.5C325.4,173.5,325.2,175.9,325,178.2
		z"/>
	<path d="M243.9,176.4c-0.2-0.1-0.4-0.2-0.6-0.2c-3.1-0.3-3.2-0.3-3.8,2.7c-0.9,4.1-1.9,4.7-6,3.2c-0.1,0-0.1-0.1-0.3-0.3
		c-0.3-1.8,0.5-3.6,1-5.4c0.8-2.7,1.5-5.3,2.3-8c0.1-0.2,0.1-0.5,0.2-0.7c1.1-3.7,2-4.4,5.9-4.7c1.3-0.1,2.6,0,3.9-0.1
		c0.2,1.2,0.3,2.5,0.6,3.7c0.4,2.2,1,4.3,1.4,6.5c0.4,2.1,0.9,4.2,1.2,6.3c0.2,1.5,0,1.8-1.6,2c-0.6,0.1-1.3,0.2-1.9,0.2
		c-1.4,0.1-1.6-0.2-1.8-1.7c-0.1-1-0.3-2.1-0.4-3.1C244.2,176.7,244,176.6,243.9,176.4z M235.2,180.3c1.4,0.6,1.8,0,2-0.9
		c0.5-1.7,0.9-3.4,1.4-5.2c2.5,0,4.9,0,7.5,0c0.3,1.6,0.5,3.1,0.8,4.6c0-4.8-1.3-9.3-2.3-13.8c-4.4-0.3-5.1,0.3-6,4.2
		c-0.6,2.6-1.6,5.2-2.4,7.7C235.8,178.2,235.5,179.2,235.2,180.3z"/>
	<path d="M268.4,169.5c-1.7,0.2-3.1,0.4-4.4,0.4c-1.3,0-2,0.5-2,1.8c-0.2,2.4-0.4,4.8-0.4,7.2c-0.1,2.7-0.2,3-2.9,3.1
		c-0.6,0-1.3-0.1-1.9-0.2c-0.9-0.2-1.5-0.8-1.4-1.9c0-2.9,0-5.9,0-9.2c-1.4,0.1-2.9,0.1-4.5,0.2c-0.9-2.3-0.6-4.5-0.3-6.7
		c0.1-1,1.1-1.3,2.6-1c2,0.4,4.1,0.6,6.1,1.1c2.2,0.5,4.3,0.2,6.3-0.7c1.5-0.6,2.3-0.2,2.5,1.4C268.2,166.4,268.3,167.9,268.4,169.5
		z M265.8,165.8c-1.9,0.2-3.4,0.6-5,0.6c-2.1-0.1-4.3-0.5-6.4-0.8c-0.6-0.1-1.2,0.1-1.9,0.1c0,1.1,0,2,0,3.1
		c1.3-0.2,2.4-0.4,3.5-0.4c0.6,0,1.4,0.3,1.9,0.7c0.6,0.5,0.3,1.1-0.2,1.7c-0.2,0.2-0.4,0.6-0.4,0.8c0,2.4,0.1,4.8,0.2,7.2
		c0,0.3,0.5,0.7,0.8,1c0.3-0.4,1-0.7,1-1.1c0.2-2.6,0.4-5.2,0.5-7.9c0-2.2,0.4-2.7,2.7-2.9c1.1-0.1,2.2-0.2,3.3-0.3
		C265.9,167,265.8,166.5,265.8,165.8z"/>
	<path d="M159.8,169c0.7-0.5,1.1-1,1.7-1.2c1.3-0.6,2.1-0.1,2.2,1.4c0.1,1.5,0,3,0,4.6c0,0.6-0.1,1.2,0.1,1.7
		c0.2,0.5,0.8,0.8,1.3,1.1c0.3-0.4,0.8-0.8,0.8-1.2c0.1-2,0.1-4,0.1-6c0-0.7,0-1.4,0-2.4c1.4,0,2.7-0.1,3.9,0c0.4,0,0.9,0.5,1,0.9
		c0.5,4.2,0.7,8.5-1.3,12.4c-1.6,3-3.9,3.2-6.9,1.8c-3.5-1.6-4.6-4.4-4.7-7.9c-0.1-1.9-0.2-3.8-0.2-5.7c0-0.7,0.1-1.3,1-1.3
		c0.9,0,1.1,0.6,1.1,1.3c0,1.3,0,2.6,0.1,3.8c0.1,1.4,0.2,2.7,0.4,4.1c0.4,2.7,2.4,3.9,4.6,4.7c0.6,0.2,1.7-0.3,2.3-0.7
		c0.6-0.4,1-1.1,1.2-1.8c0.8-3,1.1-6.1,0.4-9.1c-0.2,0-0.3,0-0.5,0c0,0.7-0.1,1.5-0.1,2.2c0,1.5,0.1,3,0.1,4.5
		c-0.1,1.7-1.1,2.9-2.5,3.1c-1.2,0.1-3.2-1.1-3.5-2.4c-0.3-1.2-0.4-2.5-0.5-3.8C161.6,171.4,161.6,170,159.8,169z"/>
	<path d="M114.6,167.5c2.4-0.1,4.8-0.3,7.1-0.4c2,0,2.1,0.1,1.9,2.1c0,0.4,0,0.8,0.1,1.2c0.2,1.3-0.3,1.9-1.6,2
		c-1.5,0.1-1.7,0.5-1.6,2c0.1,1.6,0.4,3.1,0.6,4.7c0.1,1.2,0.3,2.4,0.3,3.6c0.1,2-0.2,2.2-2.1,1.7c-0.6-0.1-1.2-0.3-1.8-0.5
		c-1-0.4-1.3-1.2-1.4-2.3c-0.1-2.8-0.3-5.5-0.6-8.3c-0.1-1.3-0.7-1.5-1.8-0.5c-1.2,1-1.7,0.9-2-0.6c-0.1-0.5-0.2-0.9-0.2-1.4
		c-0.4-2.9-0.2-3.3,2.7-3.3C114.3,167.5,114.5,167.5,114.6,167.5C114.6,167.5,114.6,167.5,114.6,167.5z M114.4,169.4
		c0,0.1-0.1,0.3-0.1,0.4c0.3,0.1,0.7,0.4,1,0.3c2-0.1,1.9-0.1,2.1,1.6c0.4,3.1,0.8,6.3,1.2,9.4c0.1,0,0.3,0,0.4,0
		c-0.3-3.7-0.6-7.3-1-11c1.1-0.4,1.9-0.6,2.5,0.4c0.1,0.1,0.4,0.1,0.7,0.2c0-0.6,0-1.2,0-2C118.9,169,116.6,169.2,114.4,169.4z"/>
	<path d="M188.9,170.9c-1.1,0-1.9,0-2.8,0c-0.9,0-1.6-0.5-1.5-1.5c0.1-1-0.4-2.4,1.1-2.8c0.8-0.2,1.6-0.3,2.3-0.4
		c3.1-0.4,6.2-0.7,9.2-1.1c1.1-0.2,1.6,0,1.9,1.2c0.9,4.1,0.9,4.2-3.2,5c-0.6,0.1-1.2,0.3-1.9,0.4c-0.8,3.5,0.7,7-0.3,10.4
		c-0.8,0.3-1.5,0.7-2.3,0.9c-1.3,0.5-2,0.2-2.1-1.2c-0.3-2.9-0.4-5.7-0.6-8.6C188.9,172.5,188.9,171.9,188.9,170.9z M191,169
		c-0.1,3.8-0.4,7.4,0.9,10.8c0-3.2,0-6.4,0-9.7c1.1-0.3,2.2-0.4,3.1-0.7c0.8-0.3,2.3,0.1,2-1.6c-3-0.5-8.5,0-9.8,1
		C188.4,168.9,189.5,168.9,191,169z"/>
	<path d="M341.3,168.6c0.4-0.2,0.9-0.6,1.3-0.6c2.3,0.3,4.7,0.6,7,0.9c2.4,0.4,3.8,1.8,4.5,4.1c1,3.2,1.5,6.3,0.2,9.6
		c-1.3,2.9-4.5,5-7.6,4.7c-1.3-0.1-2.6-0.1-3.8-0.2c-1.7-0.1-2.1-0.5-2-2.2c0.2-4.3,0.4-8.6,0.6-12.9
		C341.3,170.9,341.3,169.8,341.3,168.6z M343.2,185c1,0.1,1.9,0.3,2.7,0.4c3.4,0.3,6.1-1.7,6.8-5c0.5-2.7-0.2-5.2-1.1-7.7
		c-0.3-0.7-1.2-1.4-1.9-1.6c-1.2-0.4-2.5-0.7-3.7-0.7c-1.6-0.1-2.6,1.1-2.6,2.7c-0.1,1.7-0.1,3.5-0.1,5.2
		C343.2,180.5,343.2,182.7,343.2,185z"/>
	<path d="M178.4,167.4c0,3.4,0,6.3,0,9.5c0.8,0,1.4,0,2,0c1.1-0.1,2.2-0.1,3.3-0.2c1.2-0.1,1.8,0.5,1.8,1.7c0,0.4,0.1,0.8,0.1,1.2
		c0.1,1.6-0.4,2.3-2,2.7c-0.5,0.1-1.1,0.2-1.6,0.3c-2.3,0.4-4.7-0.6-7.1,0.3c-0.7,0.3-1.3-0.4-1.3-1.3c0-1.4,0.1-2.9,0-4.3
		c-0.1-2.9-0.4-5.9-0.5-8.8c0-0.6,0.1-1.5,0.5-1.9c0.6-0.5,1.1,0.1,1.5,0.6c0.2,0.3,0.9,0.2,1.3,0.2
		C177.1,167.4,177.7,167.4,178.4,167.4z M176.1,169.5c-0.3,0-0.6,0-0.9,0c-0.5,1.8,0.1,3.6,0.2,5.4c0.1,1.9,0.2,3.7,0.4,5.6
		c6.2,0.6,6.8,0.5,7.2-1.2c-0.1-0.1-0.2-0.3-0.4-0.3c-1.3,0-2.6,0-3.8-0.1c-2-0.1-2.8-1-2.7-3C176.1,173.8,176.1,171.7,176.1,169.5z
		"/>
	<path d="M336.4,186.3c-1.2-0.1-2.2,0-3.2-0.2c-1.7-0.3-2.2-1-1.9-2.7c0.7-3.6,0.5-7.3,0.5-11c0-0.6,0-1.1,0.1-1.7
		c0.3-2.6,0.3-2.6,3-2.4c4.2,0.3,4.1,0.3,3.4,4.4c-0.6,3.4-0.9,6.8-1.4,10.2C336.7,184,336.6,185,336.4,186.3z M333.9,183.6
		c0.2,0.1,0.3,0.1,0.5,0.2c0.2-0.5,0.5-0.9,0.5-1.4c0.5-3.9,0.9-7.7,1.3-11.6c0,0-0.1-0.1-0.3-0.3c-0.5,0-1.2,0.1-2,0.2
		C333.9,175.1,333.9,179.3,333.9,183.6z"/>
	<path d="M201.8,175.5c0.1-2.1,0.1-4.1,0.3-6.2c0.1-0.9,0.2-1.7,0.6-2.5c0.5-1.2,1.7-1.7,2.9-1.4c1.9,0.4,2.2,0.7,2.2,2.5
		c0,3.3-0.1,6.5-0.1,9.8c0,1.2,0.2,2.4,0.3,3.6c0.1,1-0.2,1.6-1.2,1.7c-1.2,0.2-2.4,0.4-3.5,0.5c-1,0.1-1.5-0.5-1.5-1.5
		C201.8,179.8,201.8,177.6,201.8,175.5C201.8,175.5,201.8,175.5,201.8,175.5z M205.7,167.9c-2.5,1.7-1.7,4.3-1.9,6.5
		c-0.1,2.3,0.1,4.6,0.2,7c0.7-0.1,1.1-0.1,1.7-0.2C205.7,176.7,205.7,172.3,205.7,167.9z"/>
	<path d="M91.9,179.8c0.4,1.8,0.6,2.9,0.8,4.1c0.1,0.7-0.1,1.4-0.9,1.4c-0.8,0.1-1.4-0.3-1.4-1.2c-0.3-3.6-0.6-7.3-0.8-10.9
		c-0.1-1.7,0.5-2.4,1.9-2.9c1.3-0.5,2.4-0.2,3.4,0.8c1.6,1.7,1.9,3.4,0.9,5.4c-0.3,0.6-0.7,1.2-1.2,2c0.7,0.5,1.5,0.9,2.2,1.4
		c0.4,0.2,0.9,0.4,1.2,0.7c0.6,0.5,1.1,1.1,0.5,1.8c-0.5,0.7-1.2,0.6-1.9,0c-0.8-0.7-1.7-1.2-2.5-1.8
		C93.6,180.3,93,180.1,91.9,179.8z M92,177.3c2.1-1,2.6-2.3,2-4.1c-0.4-1.1-1.1-1.7-2.5-1C91.6,173.9,91.8,175.5,92,177.3z"/>
	<path d="M70,178.5c0,4.7-2.6,7-6.4,6.4c-1-0.2-1.7-0.6-2-1.5c-1-2.6-1.5-5.2-1.3-7.9c0.1-1.5,0.7-2.6,2.2-3.1
		c1.6-0.5,3.1-1.2,4.7,0.1C69.5,174.1,70.1,176.4,70,178.5z M68,178.4c-0.1-0.7-0.2-1.8-0.5-2.8c-0.4-1.3-1.7-2.1-2.9-1.9
		c-1.6,0.2-2.3,0.9-2.2,2.6c0.1,1.9,0.6,3.8,1,5.6c0.2,1,0.9,1.2,1.8,1C67.3,182.6,68.1,181.4,68,178.4z"/>
	<path d="M50.6,178.9c0-0.6,0.1-1.1,0.1-1.7c0.6-4.3,2.2-4.3,5.7-4.4c1.3,0,2.3,0.8,2.6,2.2c0.4,1.5,0.7,3.1,0.9,4.7
		c0.1,1.2-0.3,2.3-1.4,3.1c-1.6,1.1-3,2.3-5.2,1C51.3,182.8,50.7,181.1,50.6,178.9z M56.4,174.7c-1,0.3-1.9,0.5-2.8,0.8
		c-1,1.4-1,3-0.7,4.6c0.3,1.4,1.3,2.3,2.4,2.3c1.2-0.1,2.3-1.4,2.4-2.8C57.7,177.8,57.2,176.2,56.4,174.7z"/>
	<path d="M27.1,173.5c0.1,2.1,1.2,2.9,2.3,3.6c1,0.7,2,1.3,3,2c1.4,0.9,1.4,2.3,1.1,3.6c-0.3,1.3-1.4,1.9-2.6,2.1
		c-0.9,0.1-1.7,0.3-2.6,0.2c-0.8,0-1.7-0.4-1.5-1.4c0.2-1,1-0.7,1.7-0.6c0.8,0,1.6,0.2,2.3-0.1c1-0.4,1.2-1.4,0.4-2.1
		c-0.7-0.7-1.5-1.1-2.3-1.7c-1.2-1-2.3-1.9-3.4-3c-0.7-0.7-0.8-1.7-0.3-2.7c0.6-1,1.5-1.6,2.6-1.5c0.9,0.1,1.8,0.5,2.6,1
		c0.3,0.2,0.3,0.8,0.4,1.2c-0.4,0.1-0.9,0.4-1.2,0.3C28.9,174.3,28.2,173.9,27.1,173.5z"/>
	<path d="M80,172.3c1.4-0.3,2.7-0.6,4-0.7c0.3,0,0.7,0.5,0.9,0.8c0.1,0.1-0.3,0.6-0.6,0.8c-0.2,0.2-0.6,0.2-0.9,0.3
		c-1.2,0.5-1.2,0.5-0.8,2.1c1,0.5,2.4-0.4,3.3,1.1c-1.2,0.4-2.2,0.7-3.4,1.1c-0.1,1.5-0.3,2.9,1.2,3.8c1.5,0.3,3-1.1,4.8,0.1
		c-0.6,0.5-1,1-1.5,1.2c-0.6,0.3-1.2,0.3-1.8,0.5c-3.2,0.8-4.5-0.1-4.7-3.5c-0.1-1.7-0.1-3.3-0.1-5C80.3,174.2,80.2,173.5,80,172.3z
		"/>
	<path d="M74.6,183.6c-1.2,0-1.7-0.6-1.7-1.3c-0.3-3.2-0.4-6.5-0.6-9.7c0-0.1,0.1-0.3,0.3-0.7c0.7,0,1.6-0.2,2.4-0.1
		c1.6,0.1,2.7,1,3.2,2.5c0.5,1.4,0.2,2.7-1,3.7c-0.2,0.2-0.3,0.3-0.5,0.5c-1.4,1-2.3,2.2-1.8,4C74.9,182.7,74.7,183.1,74.6,183.6z
		 M74.6,177.4c1.2-0.5,1.8-1.2,1.6-2.3c-0.1-0.8-0.5-1.5-1.8-1.3C74.4,175,74.5,176.1,74.6,177.4z"/>
	<path d="M47.2,173c-0.4,1.2-1.2,1.1-2,1c-1.3-0.2-1.9,0.5-2.1,1.7c-0.4,2.1,0.1,4,1.6,5.5c0.4,0.4,1.3,0.5,1.9,0.7
		c0.5,0.1,1.1-0.1,1.6,0c0.4,0.1,0.8,0.6,0.8,1c0,0.3-0.5,0.8-0.8,0.9c-3.1,0.9-6.2-0.9-7-4c-0.3-1.3-0.5-2.7-0.3-4
		C41.4,172.4,44,171.3,47.2,173z"/>
	<path d="M36.6,183.6c0.6-0.9,1.3-1,1.9-0.3c0.1,0.2,0,0.8-0.2,0.9C37.4,185,37,184.3,36.6,183.6z"/>
	<path class="st0" d="M147.4,79.8c-1.6,0.7-1.6,0.7-1.9-0.5C146.1,79.5,146.7,79.6,147.4,79.8z"/>
	<path class="st0" d="M147.6,85.8c-0.7,0.2-1.3,0.4-2,0.7c0-0.1-0.1-0.2-0.1-0.3c0.7-0.3,1.3-0.5,2-0.8
		C147.5,85.5,147.6,85.6,147.6,85.8z"/>
	<path class="st0" d="M227.1,165.6c0,2.3,0,4.5,0,6.9c-1.1,0.7-2.2,1.5-3.6,2.5c-1.7-1-3.6-1.8-4.3-4.2c0.5,0.4,1,0.9,1.6,1.2
		c1.1,0.7,1.7,0.6,2.3-0.6c0.7-1.5,1.3-3,2-4.6C225.5,165.8,225.5,165.8,227.1,165.6z"/>
	<path class="st0" d="M218.2,169.5c-2.3,0.1-2.5,0.3-2.7,2.4c-0.1,1.6-0.1,3.3-0.2,5c-0.1,1.1-0.3,2.3-0.4,3.4c-0.2,0-0.3,0-0.5,0
		c-0.1-0.3-0.4-0.6-0.4-0.9c0-3.4,0-6.8,0-10.3c0-0.5-0.1-1,0.1-1.4c0.2-0.5,0.6-1,1-1.1c0.4-0.1,1.1,0.1,1.4,0.5
		C217.2,167.8,217.6,168.7,218.2,169.5z"/>
	<path class="st0" d="M276.3,172.8c-0.6,0.2-1.2,0.5-1.8,0.7c-0.1,1.6-0.2,3.1-0.3,4.6c-0.1,1.1,0.5,1.7,1.5,1.8
		c1,0.1,2-0.1,3.1-0.2c1.4-0.1,2.8-0.6,4,0.6c-1.7,1.1-6.8,1.5-9.6,0.7c-0.8-4.8,0.7-9.4,0.7-14.2c3.3-1.2,6.6-0.3,10.1-0.1
		c-0.3,0.3-0.7,0.7-1,0.7c-1.5,0.1-3,0-4.5,0.1c-1,0.1-2.3-0.5-2.9,0.6c-0.6,1.2-0.5,2.6,0.1,3.9
		C275.9,172.3,276.1,172.6,276.3,172.8L276.3,172.8z"/>
	<path class="st0" d="M276.3,172.8c1.6,0.1,3.3,0.3,5,0.4C279.6,174.5,279,174.5,276.3,172.8C276.3,172.8,276.3,172.8,276.3,172.8z"
		/>
	<path class="st0" d="M305,166.6c0.6,0.8,1.2,1.4,1.9,2.2c-0.6,0.2-1,0.4-1.4,0.5c-1,0.2-2.1,0.3-3,0.6c-3.5,1.3-4.3,6.7-1.3,9
		c0.9,0.7,1.9,1.1,3.1,0.5c0.2-0.1,0.4-0.2,0.6-0.3c0.9-0.5,2.3,0.2,2.7-1c0.4-0.9,0.4-2,0.5-3c0-0.2,0.1-0.5,0.2-0.7
		c1.9,0.5,1.9,0.5,1.6,6c-0.4-0.4-0.6-0.8-0.9-1c-1.1-0.7-2.1-0.1-2.1,1.4c0,1.1-0.4,1.6-1.3,1.5c-1.7-0.1-3.5-0.3-5.2-0.6
		c-0.9-0.1-1.6-0.7-1.8-1.7c-0.4-3.2-0.7-6.3,0.3-9.5c0.7-2.2,1.7-3.6,4.2-3.5C303.6,167,304.2,166.8,305,166.6z"/>
	<path class="st0" d="M307.2,171.9c-1.1,0.5-1.3,1.6-1.2,2.6c0.1,1.4-0.7,2.1-1.9,2.6c-1.3,0.5-2.1,0.2-2.5-1.2
		c-0.7-2.3,1.1-4.5,3.6-4.4C305.8,171.5,306.5,171.8,307.2,171.9C307.2,171.9,307.2,171.9,307.2,171.9z"/>
	<path class="st0" d="M132.4,175.8c-1.3,0.6-2.6,1.2-4.1,1.9c-0.3-2.8-0.6-5.6-0.8-8.4c0.2-0.1,0.4-0.1,0.5-0.2
		c0.2,0.3,0.5,0.6,0.6,1c0.2,0.6,0.3,1.2,0.4,1.9c0.2,1.8,0.9,3.2,2.9,3.5C132.1,175.5,132.3,175.7,132.4,175.8z"/>
	<path class="st0" d="M134.4,181.6c-1-2.2-0.1-4.3-0.8-6.2C134.8,176.8,135.2,179.7,134.4,181.6z"/>
	<path class="st0" d="M148.3,171.3c-1.4,0.2-2.5,0.3-3.6,0.5c-2.5,0.5-3.1,2.5-1.2,4.7c-1.3,0.6-1.7,1.7-1.6,3.1
		c0.1,1.6,0.9,2.1,2.4,1.7c1.1-0.3,2.2-0.6,3.3-0.7c0.7-0.1,1.5,0.1,1.6,1c0.1,0.9-0.5,1.3-1.3,1.4c-2.1,0.4-4.2,0.8-6.6,1.2
		c-0.5-4.5-0.9-8.9-1.4-13.7c2.8-0.1,5.3-0.3,7.8-0.4C147.8,170,148,170.6,148.3,171.3z"/>
	<path class="st0" d="M149.3,178.1c-1.5,0.3-2.9,0.6-4.4,0.9C146.2,177.6,147.8,177.9,149.3,178.1
		C149.3,178.1,149.3,178.1,149.3,178.1z"/>
	<path class="st0" d="M358.9,177.1c0-2-0.4-4.1,0.7-6.2c2.1,0,4.1,0,6.6,0c-0.4,0.6-0.5,1.3-0.8,1.4c-0.9,0.2-1.9,0.4-2.8,0.2
		c-2-0.3-2.3-0.2-2.7,1.8C359.8,175.2,359.3,176.1,358.9,177.1L358.9,177.1z"/>
	<path class="st0" d="M358.9,177c0.1,1.2,0.2,2.4,0.2,3.5c0,1.6,0.3,2,1.8,2.2c0.7,0.1,1.4,0,2.1,0.2c0.6,0.1,1.2,0.4,1.8,0.6
		c0,0.2-0.1,0.4-0.1,0.6c-2,0-4,0-6.3,0C358.4,182,358.3,179.5,358.9,177C358.9,177.1,358.9,177,358.9,177z"/>
	<path class="st0" d="M318,169.6c0.2,0.4,0.6,0.7,0.6,1.1c0.1,1.1,0,2.2-0.1,3.3c-0.1,1.8,0.2,3.5,1.1,5.1c1,1.8,2.3,2.3,4.1,1.4
		c0.3-0.1,0.5-0.4,0.8-0.6c-0.8,2.8-2.4,3.8-5,2.9c-0.9-0.3-1.8-0.8-2-1.9c-0.7-3.7-0.4-7.4-0.3-11
		C317.5,169.7,317.8,169.6,318,169.6z"/>
	<path class="st0" d="M325,178.2c0.2-2.3,0.4-4.7,0.7-7.5C326.4,172.6,326.1,175.8,325,178.2z"/>
	<path class="st0" d="M235.2,180.3c0.3-1.1,0.6-2.2,1-3.2c0.8-2.6,1.7-5.1,2.4-7.7c0.9-3.9,1.6-4.5,6-4.2c1.1,4.5,2.3,9,2.3,13.8
		c-0.2-1.5-0.5-3-0.8-4.6c-2.6,0-5,0-7.5,0c-0.5,1.8-0.9,3.5-1.4,5.2C237,180.3,236.6,180.9,235.2,180.3z M242.3,172.7
		c3,0,3.5-0.7,2.5-3c-0.2-0.5-0.3-1.1-0.6-1.5c-0.5-0.9-2.2-1.1-2.6-0.3c-0.6,1.1-0.9,2.3-1.2,3.6c-0.1,0.3,0.6,0.9,1,1.1
		C241.8,172.9,242.3,172.7,242.3,172.7z"/>
	<path class="st0" d="M265.8,165.8c0,0.7,0.1,1.2,0.1,2c-1.2,0.1-2.3,0.2-3.3,0.3c-2.2,0.1-2.6,0.7-2.7,2.9
		c-0.1,2.6-0.2,5.2-0.5,7.9c0,0.4-0.7,0.7-1,1.1c-0.3-0.3-0.8-0.7-0.8-1c-0.1-2.4-0.2-4.8-0.2-7.2c0-0.3,0.2-0.6,0.4-0.8
		c0.5-0.5,0.8-1.2,0.2-1.7c-0.5-0.4-1.3-0.7-1.9-0.7c-1.1,0-2.2,0.3-3.5,0.4c0-1.1,0-2,0-3.1c0.7-0.1,1.3-0.2,1.9-0.1
		c2.1,0.2,4.2,0.7,6.4,0.8C262.4,166.4,264,166,265.8,165.8z"/>
	<path class="st0" d="M114.4,169.4c2.3-0.2,4.5-0.4,6.9-0.6c0,0.8,0,1.4,0,2c-0.3-0.1-0.6-0.1-0.7-0.2c-0.6-1-1.4-0.9-2.5-0.4
		c0.3,3.7,0.6,7.3,1,11c-0.1,0-0.3,0-0.4,0c-0.4-3.1-0.8-6.3-1.2-9.4c-0.2-1.8-0.1-1.8-2.1-1.6c-0.3,0-0.7-0.2-1-0.3
		C114.3,169.7,114.3,169.6,114.4,169.4z"/>
	<path class="st0" d="M191,169c-1.5-0.1-2.6-0.2-3.8-0.3c1.3-1,6.8-1.6,9.8-1c0.2,1.7-1.2,1.3-2,1.6c-1,0.3-2,0.5-3.1,0.7
		c0,3.3,0,6.5,0,9.7C190.6,176.4,190.9,172.8,191,169z"/>
	<path class="st0" d="M343.2,185c0-2.3,0-4.5,0-6.7c0-1.7,0-3.5,0.1-5.2c0.1-1.6,1.1-2.7,2.6-2.7c1.3,0.1,2.6,0.3,3.7,0.7
		c0.8,0.3,1.7,0.9,1.9,1.6c0.9,2.4,1.7,5,1.1,7.7c-0.7,3.3-3.4,5.3-6.8,5C345,185.3,344.2,185.1,343.2,185z M346.1,174.4
		c-0.2,1.9-0.4,3.6-0.5,5.3c-0.1,1.4,0.6,2,2,1.8c1.2-0.2,2.1-0.8,2.6-1.9C351.6,176.8,349.8,174.3,346.1,174.4z"/>
	<path class="st0" d="M176.1,169.5c0,2.1,0,4.2,0,6.3c0,2,0.8,3,2.7,3c1.3,0.1,2.5,0.1,3.8,0.1c0.1,0,0.2,0.2,0.4,0.3
		c-0.4,1.7-1,1.8-7.2,1.2c-0.1-1.8-0.3-3.7-0.4-5.6c-0.1-1.8-0.7-3.6-0.2-5.4C175.5,169.5,175.8,169.5,176.1,169.5z"/>
	<path class="st0" d="M333.9,183.6c0-4.3,0-8.5,0-13c0.8-0.1,1.5-0.1,2-0.2c0.2,0.2,0.3,0.3,0.3,0.3c-0.4,3.9-0.8,7.7-1.3,11.6
		c-0.1,0.5-0.4,0.9-0.5,1.4C334.2,183.7,334,183.7,333.9,183.6z"/>
	<path class="st0" d="M205.7,167.9c0,4.4,0,8.8,0,13.2c-0.5,0.1-1,0.1-1.7,0.2c-0.1-2.4-0.4-4.7-0.2-7
		C203.9,172.1,203.2,169.6,205.7,167.9z"/>
	<path class="st0" d="M92,177.3c-0.2-1.8-0.3-3.4-0.5-5.1c1.5-0.7,2.1-0.1,2.5,1C94.6,175,94.1,176.3,92,177.3z"/>
	<path class="st0" d="M68,178.4c0,3-0.8,4.2-2.8,4.6c-0.9,0.2-1.6-0.1-1.8-1c-0.4-1.9-0.9-3.7-1-5.6c-0.1-1.7,0.6-2.3,2.2-2.6
		c1.3-0.2,2.5,0.5,2.9,1.9C67.8,176.6,67.9,177.7,68,178.4z"/>
	<path class="st0" d="M56.4,174.7c0.8,1.5,1.3,3.1,1.3,4.8c0,1.4-1.2,2.8-2.4,2.8c-1,0.1-2.1-0.9-2.4-2.3c-0.4-1.6-0.3-3.1,0.7-4.6
		C54.5,175.2,55.4,175,56.4,174.7z"/>
	<path class="st0" d="M74.6,177.4c-0.1-1.3-0.2-2.4-0.2-3.5c1.3-0.2,1.7,0.5,1.8,1.3C76.4,176.2,75.8,176.9,74.6,177.4z"/>
	<path d="M242.3,172.7c0,0-0.5,0.1-0.9-0.1c-0.4-0.2-1.1-0.8-1-1.1c0.2-1.2,0.6-2.5,1.2-3.6c0.5-0.9,2.1-0.6,2.6,0.3
		c0.3,0.5,0.4,1,0.6,1.5C245.8,172,245.3,172.7,242.3,172.7z"/>
	<path d="M346.1,174.4c3.7-0.1,5.5,2.4,4.1,5.3c-0.5,1.1-1.4,1.7-2.6,1.9c-1.4,0.2-2.1-0.5-2-1.8C345.7,178,345.9,176.3,346.1,174.4
		z"/>
</g>
</svg>
