<?xml version="1.0" encoding="utf-8"?>
<!-- Generator: Adobe Illustrator 22.0.1, SVG Export Plug-In . SVG Version: 6.00 Build 0)  -->
<svg version="1.1" id="Layer_1" xmlns="http://www.w3.org/2000/svg" xmlns:xlink="http://www.w3.org/1999/xlink" x="0px" y="0px"
	 viewBox="0 0 407.5 314.4" style="enable-background:new 0 0 407.5 314.4;" xml:space="preserve">
<style type="text/css">
	.st0{fill:#E4E4E4;}
</style>
<g>
	<path d="M47.8,308c-1.4-4.5,0-8.7-0.1-12.9c-0.1-2.6,0-5.1,0-7.7c0.1-2.5,0.3-4.9,0.3-7.4c0-2.2-0.1-4.5-0.1-6.7
		c-0.1-3.8-0.1-7.7-0.1-11.5c0-3.3-0.1-6.6-0.1-9.8c0-4.2,0-8.3-0.1-12.5c-0.1-2.4-0.3-4.8-0.4-7.1c-0.2-0.2-0.4-0.3-0.5-0.3
		c-3.7,0.5-7.3-0.2-10.9-0.7c-5.5-0.6-11-0.8-16.5-0.5c-2.9,0.2-5.8,0.2-8.6,0.2c-0.6,0-1.3-0.1-1.9-0.2c-2.7-0.6-2.6-0.7-2.1-3.5
		c0.6-3.7,0.9-7.5,1.1-11.2c0.1-4.2-0.3-8.5-0.2-12.7c0.1-2.9,0.5-5.7,0.9-8.6c0.1-1.1,0.8-1.6,1.9-1.3c3.9,1.1,7.9,0.5,11.9,0.7
		c4.6,0.3,9.2,1.1,13.8,1.5c5,0.5,10,1.4,15.2,0.7c0.8-2.6,1.2-5.2,1.1-7.9c0-0.7-0.7-1.6-1.3-2.1c-2-1.7-4-3.4-6.1-5
		c-6.9-5.7-13.9-11.3-20.7-17.1c-3.3-2.8-6.4-6-9.6-9c-0.5-0.5-1-1.1-1.3-1.7c-0.3-0.5-0.6-1.2-0.5-1.7c0.2-0.9,1.1-0.3,1.6-0.5
		c0.7-0.2,1.5-0.5,2-1c2.8-2.9,5.6-5.9,8.3-8.9c4.7-5.2,9.4-10.4,14.2-15.5c5.9-6.2,11.8-12.4,17.1-19.1c1.9-2.4,4.1-4.7,6.1-7.1
		c0.5-0.6,0.9-1.4,0.9-2.1c0.6-5.5,1.2-11,1.8-16.4c0.5-4.5,1-9.1,1.3-13.6c0.3-3.9,0.7-7.8,0.6-11.7c-0.1-6.8,0.7-13.6,1.3-20.3
		c0.4-4.3,0.8-8.6,1.2-12.9c0.3-2.4,0.7-4.7,1-7.1c0.2-1.4,0.3-2.9,0.3-4.3c0-2.6,1.3-3.8,3.9-3.9c4-0.1,8-0.5,12-0.5
		c5.7-0.1,11.5,0,17.3,0.1c8.6,0,17.1,0,25.7,0.1c5.7,0.1,11.5,0.3,17.2,0.3c2.4,0,4.8-0.3,7.2-0.3c2.6,0,5.3,0,7.9,0.1
		c5.3,0.1,10.5,0.2,15.8,0.3c5.7,0.1,11.3,0.4,17,0.4c6.4,0.1,12.8,0.2,19.2-0.1c6.6-0.2,13.2-0.8,19.8-1.3
		c11.4-0.9,22.8-1.3,34.2-0.7c5.7,0.3,11.5-0.2,17.2-0.3c5.2-0.1,10.4-0.4,15.6-0.5c5.5-0.1,11-0.1,16.6,0
		c7.3,0.2,14.5,0.6,21.8,0.8c7.6,0.2,15.2,0.4,22.8,0.6c5.1,0.1,10.2,0.3,15.3,0.4c1.6,0,3.2-0.1,4.8-0.3c2.4-0.2,4.5,0.4,6.7,1.2
		c-0.5,3-0.2,5.8,0,8.6c0.2,2.7,0,5.4,0.1,8.2c0.1,4.4,0.2,8.8,0.5,13.2c0.4,8.9,0.9,17.8,1.4,26.8c0.6,9.6,1.4,19.3,2.1,28.9
		c0.4,6.1,0.8,12.1,1.3,18.2c0.6,7.8,1.4,15.6,2.1,23.4c0.5,6,1.2,11.9,1.6,17.9c0.5,6.2,0.8,12.4,1.1,18.7
		c0.3,4.9,0.5,9.7,0.9,14.6c0.1,1.7-0.2,3.7,1.9,5c-1.2,1.2-1.1,2.5-1,4c0.5,9.5,1.8,18.9,3.4,28.3c0.1,0.8,0.5,1.7,0.5,2.4
		c-0.3,1.7-0.8,3.4-0.9,5.1c-0.5,8.5-1,17.1-1.5,25.6c-0.6,9.8-1.2,19.6-1.7,29.4c-0.1,2.6,0.2,5.3,0.4,8c0.5,0,1,0,1.6,0
		c-0.2,2.7-0.4,5.2-0.6,7.7c-0.1,1.5-1.5,1.7-2.3,2.7c-1.5-1.7-3.4-1.3-5.2-1.4c-6.5-0.5-13.1-1-19.6-1.4c-4.5-0.2-9.1-0.2-13.7-0.3
		c-7.9-0.2-15.8-0.4-23.7-0.5c-5.6-0.1-11.2-0.2-16.8,0.3c-13.4,1.2-26.8,0.6-40.3,0.9c-5.8,0.1-11.7,0.6-17.5,0.7
		c-7.8,0.2-15.7,0.2-23.5,0.2c-8,0-16,0-24,0.1c-1.1,0-2.2,0.3-3.3,0.3c-7.4,0.4-14.8,0.7-22.3,1.1c-5.5,0.3-11,1-16.5,1.3
		c-9.9,0.5-19.8,0.7-29.7,1c-3.9,0.1-7.8-0.1-11.8,0.1c-6.4,0.3-12.7,0.8-19.1,1.1c-6.3,0.3-12.6,0.5-18.9,0.8
		c-7,0.4-13.9-0.1-20.8-0.3c-6-0.2-12,0.1-18,0.2C52.6,308.8,50.1,308.8,47.8,308z M97.8,192.9c0.3-4.4,0.5-8.4,0.7-12.5
		c0.4-6.7,1-13.4,2.5-19.9c0.2-0.9,0.4-1.7,1.5-2c1.5-0.4,3.1-1,4.6-1.3c5.9-0.9,11.9-1.5,17.9-1.2c4.6,0.2,9.2,0.8,13.9,0.9
		c5.9,0.1,11.8-0.2,17.7-0.3c1.4,0,2.7,0,4.1-0.1c1.1,0,1.8,0.5,2,1.6c0.1,1.4,0.3,2.9,0.4,4.3c0.1,2.2,0.2,4.3,0.3,6.5
		c0.1,2,0.2,4,0.3,6c0.2,4.6,0.3,9.3,0.5,13.9c0.1,2.2,0.2,2.3,2.4,2.3c5,0,10,0,15,0c2.2,0,4.3-0.3,6.4-0.3
		c5-0.1,10.1-0.1,15.1-0.1c4.4,0,8.8,0.1,13.2,0.2c5.7,0.1,11.5,0.4,17.2,0.4c4.7,0,9.4-0.2,14.1-0.3c6.3-0.1,12.6-0.3,18.9-0.3
		c6.8,0,13.6,0,20.4,0.1c5.3,0.1,10.5,0.3,15.8,0.3c4.8,0,9.6-0.2,14.4-0.3c9.5-0.2,19-0.3,28.5-0.5c13.2-0.2,26.4-0.4,39.6-0.7
		c3.8-0.1,7.5-0.3,11.2,0.7c0.5,0.1,1,0.1,1.7,0.2c0-0.8,0-1.4,0-2.1c-0.4-7.7-0.8-15.5-1.3-23.2c-0.6-9.1-1.4-18.2-2.2-27.2
		c-0.9-10.4-1.8-20.9-2.7-31.3c-0.6-7.4-1.1-14.8-1.7-22.2c-0.7-9.4-1.4-18.8-2.1-28.2c-0.4-5.7-0.7-11.5-1.1-17.2
		c-0.1-1.8-0.5-3.6-0.5-5.5c-0.1-3.8,0-7.7,0-11.5c0-2.3,0-4.7-0.5-6.9c-0.4-1.7-1.2-3.4-0.5-5.5c-1.1-0.1-2-0.1-2.8-0.1
		c-8-0.1-16-0.3-24-0.8c-7.3-0.4-14.5-0.2-21.8-0.4c-4.4-0.1-8.8-0.6-13.1-0.7c-6.4-0.2-12.8-0.2-19.2-0.2c-5.8,0-11.5-0.2-17.3,0.3
		c-6.3,0.5-12.6,0.8-18.9,0.5c-12-0.7-24,0-35.9,0.8c-8.1,0.5-16.3,1.2-24.4,1.3c-8.1,0.2-16.1-0.2-24.2-0.4
		c-8.1-0.2-16.1-0.3-24.2-0.4c-2.9,0-5.7,0.2-8.6,0.2c-3.1,0-6.2-0.2-9.3-0.3c-9.9-0.1-19.8-0.2-29.7-0.1
		c-11.8,0.1-23.7-0.5-35.5,0.4C74,9.9,73.8,9.9,73,12.2c-0.1,0.4-0.2,0.9-0.2,1.4c-0.7,6.4-1.6,12.8-2.2,19.3
		c-0.7,7.5-1.2,15-1.8,22.5c-0.3,3.9-0.4,7.8-0.7,11.7c-0.4,5.1-0.8,10.2-1.3,15.3c-0.4,3.9-0.9,7.8-1.3,11.7
		c-0.1,1.4-0.4,2.9-0.2,4.2c0.2,0.8,0.2,1.2-0.2,1.9c-0.4,0.6-0.5,1.3-0.6,2c-0.5,3.6-1,7.3-1.4,10.9c-0.9,7.6-1.8,15.2-2.7,22.8
		c-0.7,6.4-1.5,12.9-2.1,19.3c-1.2,12-2.2,24-4.2,35.9c-0.1,0.5,0,1,0,1.7c5.1,0.3,10,0.6,15,0c0.9-0.1,1.7-0.2,2.6-0.2
		c3.9,0,7.8-0.5,11.7-0.1c3.3,0.3,6.6,0.1,9.8,0.2C94.8,192.7,96.2,192.8,97.8,192.9z M398.9,300.9c0-0.8,0.1-1.6-0.2-2
		c-0.8-1.1-0.6-2.2-0.5-3.4c0.1-1,0.1-2.1,0-3.1c-0.5-6.5,0.4-12.9,0.6-19.4c0.1-2,0.1-4,0.3-6c0.4-5.6,0.9-11.1,1.3-16.7
		c0.4-6.1,0.7-12.3,1-18.4c0.1-1.7,0.2-3.3,0.2-5.1c-3.1-0.5-6-1.1-8.9-1.4c-3-0.3-6.1-0.5-9.1-0.5c-3.3,0-6.7,0.3-10,0.3
		c-10.5-0.1-21.1-0.2-31.6-0.4c-6.5-0.1-12.9-0.3-19.4-0.6c-6.9-0.3-13.7-0.9-20.6-1.2c-5.4-0.2-10.9-0.2-16.3-0.4
		c-8.1-0.2-16.1-0.5-24.2-0.7c-5.8-0.1-11.6-0.1-17.5-0.2c-6-0.1-12-0.2-17.9-0.2c-1.8,0-3.5,0.2-5.3,0.2
		c-6.9-0.1-13.7-0.2-20.6-0.3c-12.2-0.2-24.4-0.4-36.7-0.5c-6.2-0.1-12.5-0.1-18.7,0.1c-6.9,0.3-13.9,0.9-20.8,1.4
		c-1.7,0.1-3.3,0.1-5,0.2c-7.5,0.5-15,1.3-22.5,1.5c-7.5,0.2-15-0.2-22.5-0.4c-2.4-0.1-4.8-0.1-7.2-0.2c-4.3-0.1-8.6-0.1-12.9-0.2
		c-2.8,0-5.1,2.4-4.8,5.2c0.3,2.4,0.1,4.8,0.2,7.2c0.2,7.9,0.5,15.8,0.6,23.7c0.1,5.3,0.2,10.5,0.2,15.8c0,4.2-0.3,8.4-0.4,12.7
		c-0.1,4.9-0.2,9.9-0.2,14.8c0,1.1,0.2,2.2,0.3,3.3c1.8,0.1,3.3,0.3,4.8,0.3c5.4,0,10.9-0.1,16.3-0.2c0.5,0,1,0.1,1.4,0.1
		c4.5,0.3,8.9,0.7,13.4,0.7c6-0.1,11.9-0.5,17.9-0.8c7.3-0.3,14.5-0.8,21.8-1c12.9-0.3,25.7-0.5,38.6-0.8c5.6-0.1,11.2-0.6,16.7-0.9
		c2.9-0.2,5.9-0.5,8.8-0.7c6.9-0.4,13.7-0.6,20.6-1c1.4-0.1,2.9-0.4,4.3-0.4c5.5,0,11-0.2,16.5-0.1c15.3,0.2,30.7,0.1,46-0.7
		c7.7-0.4,15.3-0.4,23-0.6c4.1-0.1,8.2,0,12.2-0.2c4.1-0.2,8.1-0.6,12.2-0.8c4.5-0.1,9-0.1,13.4,0c10.3,0.1,20.6,0.3,30.9,0.5
		c4.5,0.1,8.9,0.3,13.4,0.5c4.7,0.2,9.4,0.6,14.1,0.9C397.1,301.1,397.9,301,398.9,300.9z M398,192.7c-2.6-0.3-5.3-0.9-8-1
		c-4.1-0.2-8.2-0.1-12.2,0c-7.7,0.1-15.3,0.4-23,0.5c-12.1,0.1-24.3,0.2-36.4,0.3c-5.2,0-10.4,0.1-15.6,0.1
		c-7-0.1-14.1-0.5-21.1-0.4c-12.8,0-25.5,0.3-38.3,0.5c-3.2,0-6.4,0.4-9.6,0.4c-4.3,0.1-8.6,0.1-13-0.1c-4-0.1-8-0.7-12-0.7
		c-6.5-0.1-13.1,0.1-19.6,0.2c-14.6,0.2-29.3,0.4-43.9,0.6c-2.1,0-4.2,0-6.2,0.1c-4.4,0.2-8.8,0.6-13.2,0.8
		c-4.4,0.2-8.8,0.3-13.2,0.3c-7.6,0.1-15.2,0.2-22.8-0.1c-8.6-0.4-17.3-0.5-25.8,1.1c-0.5,0.1-0.9-0.1-1.4-0.1c-3,0-6,0-9,0
		c-0.1,0.3-0.2,0.5-0.3,0.7c-2.1,7.8-2.5,15.8-3.2,23.7c-0.1,0.8,0.2,1.7,0.3,2.3c3.9-0.1,7.5-0.3,11-0.3c6.8,0.1,13.6,0.4,20.4,0.5
		c11.7,0.2,23.3,0.4,35-0.9c2.4-0.3,4.8-0.3,7.2-0.4c1.1-0.1,2.2-0.1,3.4-0.1c6.3-0.4,12.6-1.1,18.9-1.2c9.3-0.2,18.7,0.1,28,0.1
		c1.7,0,3.3-0.1,5-0.1c3,0,5.9,0.2,8.9,0.2c1.3,0,2.5-0.2,3.8-0.2c6.1,0.2,12.1,0.6,18.2,0.7c11.3,0.1,22.5-0.1,33.8,0
		c12,0.1,24,0.4,36,0.6c8.2,0.2,16.3,0.4,24.5,0.6c0.4,0,0.8,0,1.2,0c6.9,0.4,13.7,0.9,20.6,1.2c5.5,0.3,11,0.3,16.5,0.4
		c12.9,0.1,25.7,0.2,38.6,0.2c6.4,0,12.8,0.1,19.1,1.4c0.3,0.1,0.6-0.1,0.8-0.1C400.3,213.9,399.2,203.5,398,192.7z M100,192.9
		c20.8-0.7,41.2-1.4,61.7-2c-0.1-1.9-0.2-3.7-0.3-5.5c-0.2-7.9-0.3-15.8-0.6-23.7c-0.1-2.9-0.4-3.1-3.3-3c-5.7,0.1-11.3,0.3-17,0.4
		c-1,0-1.9-0.1-2.9-0.2c-4.9-0.4-9.9-0.9-14.8-1.1c-3.1-0.1-6.2,0.1-9.3,0.4c-2.8,0.3-5.5,0.9-8.2,1.5c-0.9,0.2-1.9,0.5-2.2,1.6
		c-0.5,2.2-1.3,4.3-1.6,6.5c-0.7,5.7-1.2,11.4-1.6,17.2C99.8,187.5,100,190.1,100,192.9z M61.8,104.1c-2.1,2.3-3.9,4.5-5.9,6.6
		c-5.1,5.6-10.2,11.2-15.3,16.8c-4.6,5.1-9.2,10.2-13.9,15.2c-3.3,3.6-6.7,7.3-10.2,11.1c0.2,0.3,0.5,0.9,1,1.4
		c3.5,3.3,6.8,6.8,10.4,9.9c7.4,6.3,14.9,12.3,22.4,18.4c0.7,0.6,1.5,1,2.4,1.6c0.2-0.6,0.4-1,0.4-1.4c3-24.8,5-49.7,8.6-74.5
		c0.2-1.5,0.3-3,0.4-4.5C62.2,104.7,62.1,104.6,61.8,104.1z M50.6,199.5c-1.1-0.1-1.8-0.2-2.5-0.3c-5-0.5-10-0.9-15-1.6
		c-4.4-0.5-8.8-1.3-13.3-1.1c-2.4,0.1-4.9-0.1-7.4-0.3c-1.5-0.1-1.9,0-2.1,1.5c-0.3,2.7-0.5,5.4-0.6,8.1c-0.2,5.1-0.2,10.2-0.4,15.3
		c-0.1,2.2-0.4,4.5-0.6,6.7c-0.1,0.7,0.2,1,1,0.8c0-2.2,0.1-2.4,2.2-2c0.8,0.1,1.6,0.2,2.4,0.2c3.7,0.2,7.5,0.2,11.2,0.6
		c4.3,0.5,8.5,1.6,12.7,2.2c2.9,0.5,5.8,0.6,8.7,0c0.4-2.6,0.9-5,1.1-7.4c0.5-4.9,0.8-9.9,1.3-14.8C49.6,205,50.2,202.4,50.6,199.5z
		 M16.2,228.7c0,0.1-0.1,0.1-0.1,0.2c1.2,0,2.4,0,3.6,0c0-0.1,0-0.1,0-0.2C18.5,228.7,17.4,228.7,16.2,228.7z"/>
	<path class="st0" d="M97.8,192.9c-1.6-0.1-3.1-0.2-4.5-0.2c-3.3-0.1-6.6,0.1-9.8-0.2c-3.9-0.4-7.8,0.1-11.7,0.1
		c-0.9,0-1.7,0.1-2.6,0.2c-4.9,0.7-9.8,0.3-15,0c0-0.7-0.1-1.2,0-1.7c2-11.9,3-23.9,4.2-35.9c0.7-6.4,1.4-12.9,2.1-19.3
		c0.9-7.6,1.8-15.2,2.7-22.8c0.4-3.6,0.9-7.3,1.4-10.9c0.1-0.7,0.3-1.5,0.6-2c0.4-0.7,0.4-1.1,0.2-1.9c-0.3-1.3,0-2.8,0.2-4.2
		c0.4-3.9,0.9-7.8,1.3-11.7c0.5-5.1,0.9-10.2,1.3-15.3c0.3-3.9,0.4-7.8,0.7-11.7c0.5-7.5,1.1-15,1.8-22.5c0.6-6.4,1.4-12.9,2.2-19.3
		c0.1-0.5,0.1-1,0.2-1.4c0.8-2.3,0.9-2.3,3.4-2.5c11.8-0.9,23.7-0.3,35.5-0.4c9.9-0.1,19.8,0,29.7,0.1c3.1,0,6.2,0.2,9.3,0.3
		c2.9,0,5.7-0.3,8.6-0.2c8.1,0.1,16.1,0.3,24.2,0.4c8.1,0.2,16.1,0.5,24.2,0.4c8.1-0.2,16.3-0.8,24.4-1.3c12-0.8,23.9-1.5,35.9-0.8
		c6.3,0.4,12.6,0,18.9-0.5c5.7-0.5,11.5-0.3,17.3-0.3c6.4,0,12.8,0,19.2,0.2c4.4,0.1,8.8,0.6,13.1,0.7c7.3,0.2,14.6-0.1,21.8,0.4
		c8,0.5,16,0.6,24,0.8c0.8,0,1.7,0.1,2.8,0.1c-0.7,2.1,0.1,3.7,0.5,5.5c0.5,2.2,0.5,4.6,0.5,6.9c0.1,3.8-0.1,7.7,0,11.5
		c0,1.8,0.4,3.6,0.5,5.5c0.4,5.7,0.7,11.5,1.1,17.2c0.7,9.4,1.4,18.8,2.1,28.2c0.5,7.4,1.1,14.8,1.7,22.2
		c0.9,10.4,1.8,20.9,2.7,31.3c0.8,9.1,1.5,18.2,2.2,27.2c0.5,7.7,0.9,15.5,1.3,23.2c0,0.6,0,1.3,0,2.1c-0.7-0.1-1.2,0-1.7-0.2
		c-3.7-0.9-7.4-0.7-11.2-0.7c-13.2,0.3-26.4,0.5-39.6,0.7c-9.5,0.2-19,0.3-28.5,0.5c-4.8,0.1-9.6,0.3-14.4,0.3
		c-5.3,0-10.5-0.3-15.8-0.3c-6.8-0.1-13.6-0.2-20.4-0.1c-6.3,0-12.6,0.2-18.9,0.3c-4.7,0.1-9.4,0.3-14.1,0.3
		c-5.7,0-11.5-0.3-17.2-0.4c-4.4-0.1-8.8-0.2-13.2-0.2c-5,0-10.1,0.1-15.1,0.1c-2.2,0-4.3,0.3-6.4,0.3c-5,0.1-10,0.1-15,0
		c-2.2,0-2.3-0.2-2.4-2.3c-0.2-4.6-0.3-9.3-0.5-13.9c-0.1-2-0.2-4-0.3-6c-0.1-2.2-0.2-4.3-0.3-6.5c-0.1-1.4-0.2-2.9-0.4-4.3
		c-0.1-1.2-0.8-1.7-2-1.6c-1.4,0-2.7,0-4.1,0.1c-5.9,0.1-11.8,0.4-17.7,0.3c-4.6-0.1-9.2-0.7-13.9-0.9c-6-0.3-12,0.4-17.9,1.2
		c-1.6,0.2-3.1,0.9-4.6,1.3c-1,0.3-1.3,1.1-1.5,2c-1.5,6.6-2.1,13.2-2.5,19.9C98.3,184.4,98.1,188.5,97.8,192.9z M215.6,132.1
		c0.5,0,1,0,1.4,0c4.2,0.1,8.5,0,12.7,0.3c6.1,0.5,12.1,1,18.2,0.7c3.1-0.1,6.2-0.6,9.3-1c4-0.5,8.1-1,12.1-1.7
		c4.2-0.8,8.4-1.8,12.6-2.7c7.3-1.6,13.8-4.9,19.1-10.3c1.2-1.2,2.2-2.7,3.3-4.1c4.1-5.3,5.3-11.2,3.9-17.6c-1-4.9-3.1-9.4-5.8-13.6
		c-2.4-3.6-5.6-6-9.5-7.7c-6.9-2.8-13.9-5.1-21.1-6.9c-4-1-8.1-2.2-12.2-2.5c-6.2-0.5-12.4-0.6-18.7-0.6c-3.7,0-7.5,0.2-11,2.1
		c-0.5,0.3-1.2,0.3-1.9,0.3c-6,0.1-12,0.3-18,0.4c-6.2,0-12.3,0.1-18.3,1.8c-2.1,0.6-4.2,0.8-6.4,1.1c-6.2,0.7-12,2.2-17.4,5.5
		c-3.8,2.3-6.5,5.4-8.6,9.2c-3.1,5.8-3.3,12.1-2.6,18.4c0.5,4.3,1.9,8.4,3.8,12.3c1.3,2.6,2.9,5.2,4.8,7.4c3.5,4,8.4,5.8,13.5,6.8
		c3.3,0.7,6.6,0.9,10,1.2c5.5,0.5,11,0.9,16.5,1.2C208.8,132.3,212.2,132.1,215.6,132.1z M359.8,20.4c-0.1,1.3-0.2,2.5-0.2,3.7
		c0,6.1,0,12.1,0.1,18.2c0,11.2-0.1,22.4,0,33.6c0.1,6.1,0.4,12.1,0.6,18.2c0.2,4.3,0.5,8.6,0.6,12.9c0.2,7,0.2,14.1,0.4,21.1
		c0.2,7.7,0.5,15.5,0.7,23.2c0,1.7,0,3.5,0,5.2c1.8,0.4,2.1,0.3,2.4-1c0.1-0.5,0.1-1,0.1-1.4c-0.2-7.1-0.4-14.2-0.6-21.3
		c-0.2-5.9-0.6-11.8-0.8-17.7c-0.1-6.6,0.2-13.3-0.2-19.9c-0.3-6.4-0.8-12.7-0.8-19.1c0-7.7-0.2-15.5-0.2-23.2
		c0-10.2,0.1-20.5,0.2-30.7C362.2,20.5,362.1,20.4,359.8,20.4z M353.6,158.9c2-0.6,2-0.6,1.9-2.6c-0.3-7.2-0.7-14.4-0.8-21.5
		c-0.1-6.8-0.1-13.6-0.1-20.3c0.1-9.8,0.3-19.6,0.4-29.5c0-3,0.1-6.1,0-9.1c-0.2-5.3-0.5-10.5-0.7-15.8c-0.2-5.8-0.3-11.7-0.4-17.5
		c-0.1-2.3-0.2-4.6-0.1-6.9c0.1-4.3,0.5-8.6,0.6-12.9c0-0.4-0.5-1.2-0.8-1.2c-0.5,0-1.3,0.4-1.4,0.8c-0.3,1-0.4,2-0.4,3.1
		c0.1,9.7,0.1,19.3,0.2,29c0.1,6.1,0.3,12.3,0.5,18.4c0.1,2.9,0.3,5.8,0.3,8.6c-0.1,6.5-0.4,12.9-0.5,19.4
		c-0.1,4.9,0.1,9.9,0.2,14.9c0.2,9.2,0.3,18.4,0.5,27.5c0.1,4.8,0.2,9.6,0.3,14.4C353.2,158,353.4,158.4,353.6,158.9z M371.8,26
		C371.8,26,371.8,26,371.8,26c-0.1-1.4-0.1-2.9-0.1-4.3c0-0.8-0.2-1.4-1.1-1.5c-1-0.1-1.2,0.6-1.3,1.4c-0.1,1.1-0.1,2.2-0.1,3.3
		c0.2,8,0.4,16,0.6,23.9c0,1.3-0.1,2.6-0.1,3.8c0.1,8.2,0.3,16.5,0.4,24.7c0.2,16.2,0.3,32.4,0.5,48.7c0.1,4.5,0.6,8.9,0.5,13.4
		c0,4.8-0.5,9.6-0.7,14.4c0,0.9,0,1.8,0.1,2.6c0,0.3,0.5,0.6,0.8,0.7c0.3,0,0.8-0.2,1-0.5c0.2-0.3,0.3-0.7,0.3-1.1
		c0.3-6.9,1.1-13.8,0.6-20.8c-0.7-9.9-1.2-19.9-0.8-29.9c0.2-5.9-0.1-11.8-0.2-17.7c-0.1-8.1-0.2-16.1-0.2-24.2
		c0-6.4,0.1-12.8,0-19.2C372.2,37.8,372,31.9,371.8,26z M326.1,22.4c-1.9-0.5-2.3-0.4-2.4,1.1c-0.1,1.4-0.1,2.9-0.1,4.3
		c0.1,7.5,0.3,15,0.5,22.5c0.1,5.3,0.2,10.5,0.4,15.8c0.1,2.4,0.5,4.8,0.5,7.2c0.1,12.8,0.1,25.6,0.1,38.3c0,0.9-0.3,2,1.1,2.2
		c0.9,0.1,1.2-0.4,1.3-2.1c0-0.2,0-0.5,0-0.7c0-4.8,0-9.6,0-14.4c0-6.5,0.2-13.1,0-19.6c-0.1-5.3-0.7-10.7-0.9-16
		c-0.2-4.1-0.2-8.1-0.2-12.2c-0.1-5-0.2-10.1-0.3-15.1C326.1,30,326.1,26.2,326.1,22.4z M332.7,68.7c0,0-0.1,0-0.1,0
		c0,5.4,0,10.9,0,16.3c0,1.2-0.1,2.4,0.1,3.6c0.1,0.5,0.7,1.2,1.1,1.2c0.4,0.1,1.1-0.5,1.3-1c0.3-0.6,0.2-1.4,0.2-2.1
		c0-2.1-0.1-4.2-0.1-6.2c0-7.2,0.1-14.4,0-21.6c0-5.4-0.3-10.9-0.3-16.3c0-5.4,0.3-10.9,0.5-16.3c0-1,0.3-2.1,0.3-3.1
		c0-0.5-0.6-1.1-1-1.3c-0.2-0.1-1,0.4-1.2,0.8c-0.3,0.4-0.3,1.1-0.3,1.6c-0.3,9-1,18-0.5,27C333,57.2,332.7,63,332.7,68.7z
		 M316.5,75.4c0.1,0,0.3,0,0.4,0c0,4.3,0,8.6,0,12.9c0,0.9,0,1.6,1,1.9c0.7,0.2,1.4-0.6,1.5-1.7c0.1-0.7,0.1-1.4,0.1-2.2
		c-0.2-5.2-0.3-10.4-0.5-15.6c-0.1-2,0-4-0.1-6c-0.3-5.6-0.9-11.1-1.1-16.7c-0.3-6.4-0.3-12.8-0.4-19.2c0-1.6,0-3.2,0-4.8
		c0-0.8-0.5-1.4-1.3-1.4c-0.9-0.1-1,0.6-1.1,1.3c-0.1,0.6-0.1,1.3-0.1,1.9c0.1,6,0.1,12,0.3,18c0.3,8.2,0.9,16.4,1.3,24.6
		C316.6,70.8,316.5,73.1,316.5,75.4z M341.9,68.2c0,5.6,0,10.8,0,16c0,0.6-0.1,1.3,0.1,1.9c0.2,0.4,0.8,0.9,1.2,0.9
		c0.4,0,1-0.6,1.1-1c0.2-0.9,0.2-1.9,0.2-2.9c-0.2-13.9-0.3-27.8-0.5-41.7c-0.1-4.8-0.1-9.6-0.2-14.4c0-1.7-0.1-3.3,0-5
		c0-0.9-0.3-1.4-1.2-1.5c-1-0.1-1.2,0.5-1.3,1.3c0,0.6-0.1,1.3-0.1,1.9c0.2,6.1,0.4,12.3,0.5,18.4c0.1,4.5,0.4,8.9,0.4,13.4
		C342.3,60,342,64.3,341.9,68.2z"/>
	<path class="st0" d="M398.9,300.9c-1,0-1.8,0.2-2.6,0.1c-4.7-0.3-9.4-0.7-14.1-0.9c-4.5-0.2-8.9-0.4-13.4-0.5
		c-10.3-0.2-20.6-0.4-30.9-0.5c-4.5-0.1-9-0.1-13.4,0c-4.1,0.1-8.1,0.6-12.2,0.8c-4.1,0.2-8.2,0.1-12.2,0.2
		c-7.7,0.2-15.3,0.2-23,0.6c-15.3,0.8-30.7,1-46,0.7c-5.5-0.1-11,0.1-16.5,0.1c-1.4,0-2.9,0.4-4.3,0.4c-6.9,0.4-13.7,0.6-20.6,1
		c-2.9,0.2-5.9,0.5-8.8,0.7c-5.6,0.3-11.2,0.8-16.7,0.9c-12.9,0.3-25.7,0.5-38.6,0.8c-7.3,0.2-14.5,0.6-21.8,1
		c-6,0.3-11.9,0.7-17.9,0.8c-4.5,0-8.9-0.5-13.4-0.7c-0.5,0-1-0.1-1.4-0.1c-5.4,0.1-10.9,0.2-16.3,0.2c-1.5,0-3-0.2-4.8-0.3
		c-0.1-1.2-0.3-2.2-0.3-3.3c0-5,0.1-9.9,0.2-14.8c0.1-4.2,0.3-8.4,0.4-12.7c0-5.3-0.1-10.5-0.2-15.8c-0.2-7.9-0.4-15.8-0.6-23.7
		c-0.1-2.4,0.1-4.8-0.2-7.2c-0.3-2.8,2-5.2,4.8-5.2c4.3,0,8.6,0.1,12.9,0.2c2.4,0,4.8,0.1,7.2,0.2c7.5,0.2,15,0.6,22.5,0.4
		c7.5-0.2,15-1,22.5-1.5c1.7-0.1,3.3-0.1,5-0.2c6.9-0.5,13.8-1.1,20.8-1.4c6.2-0.3,12.5-0.2,18.7-0.1c12.2,0.1,24.5,0.3,36.7,0.5
		c6.9,0.1,13.7,0.3,20.6,0.3c1.8,0,3.5-0.2,5.3-0.2c6,0,12,0.1,17.9,0.2c5.8,0.1,11.6,0.1,17.5,0.2c8.1,0.2,16.1,0.5,24.2,0.7
		c5.4,0.1,10.9,0.1,16.3,0.4c6.9,0.3,13.7,0.9,20.6,1.2c6.5,0.3,12.9,0.5,19.4,0.6c10.5,0.2,21.1,0.3,31.6,0.4c3.3,0,6.7-0.3,10-0.3
		c3,0,6.1,0.2,9.1,0.5c2.9,0.3,5.8,0.9,8.9,1.4c-0.1,1.8-0.1,3.5-0.2,5.1c-0.3,6.1-0.6,12.3-1,18.4c-0.4,5.6-0.9,11.1-1.3,16.7
		c-0.1,2-0.2,4-0.3,6c-0.2,6.5-1.2,12.9-0.6,19.4c0.1,1,0.1,2.1,0,3.1c-0.1,1.2-0.3,2.3,0.5,3.4
		C399.1,299.4,398.9,300.1,398.9,300.9z M89.1,271.3c0.5-3.5-1.3-6.4-4-8.5c-3.9-3-6.5-3.5-10.7,0.1c-2.7,2.2-3.2,5.4-3.1,8.7
		c0.2,4.1,3,6.9,5.8,9.6c0.6,0.5,1.8,0.6,2.7,0.6C84.2,281.8,89.9,276.3,89.1,271.3z M346.6,268.3c0.1-0.3,0.1-0.6,0.2-0.9
		c0.4-1.9-0.1-3.4-1.7-4.7c-1.6-1.3-3.4-1.2-5.2-0.5c-0.7,0.3-1.1,0.7-1,1.7c0.2,1.8,0.4,3.6,0.4,5.4c0,3-0.2,6-0.3,9.1
		c0,0.5,0.3,1.2,0.7,1.4c0.4,0.2,1.4,0,1.5-0.3c0.6-1.8,2-1.5,3.3-1.5c2.2,0,4.3-0.2,5.9-2.6c0.5,3.2,2.7,3.6,5,3.7
		c2.7,0.1,4.7-1.5,4.8-4.2c0.1-2.6,0.1-5.3,0-7.9c0-0.6-0.3-1.3-0.7-1.7c-1-0.9-2.1-1.7-3.3-2.3c-0.9-0.5-1.8-0.3-2.9,0.3
		c-1.7,1.1-2.3,2.5-2.7,4.3c-0.2,0.9-0.4,1.8-0.6,3C348.7,269.8,347.7,269.1,346.6,268.3z M372.3,271.4c0.2-3,0.1-3.7-1-5.8
		c-0.6-1.2-1.7-2.1-2.4-3.2c-0.7-1.2-1.7-1.6-3-1.4c-1.5,0.2-2.9,0.6-3.2,2.3c-0.4,1.9-0.8,3.9-1,5.9c-0.2,1.7-0.2,3.5-0.4,5.2
		c-0.1,1-0.1,2.1,0.9,2.5c1.5,0.8,3.2,1.7,4.8,1.8c2.7,0.3,5.1-2,5.3-4.7C372.3,273.1,372.3,272.3,372.3,271.4z M337.5,248.7
		c0.2-0.1,0.4-0.1,0.6-0.2c0.2,0.3,0.4,0.6,0.6,0.9c1.3,1.9,2.5,3.9,3.8,5.8c0.4,0.5,1.2,1,1.7,0.9c0.5-0.2,0.7-1.1,1.1-1.6
		c0-0.1,0-0.2,0-0.2c0.6-3.9,1.2-7.9,1.8-11.8c0.2-0.9-0.2-1.3-1-1.6c-0.8-0.2-1.3,0.1-1.4,0.8c-0.2,0.7-0.2,1.4-0.3,2.1
		c-0.4,2.6-0.7,5.1-1.1,7.7c-0.2,0-0.4,0.1-0.5,0.1c-0.5-0.7-1-1.3-1.4-2.1c-1.2-2.3-2.2-4.6-3.4-6.8c-0.2-0.5-1-0.7-1.4-1
		c-0.3,0.5-0.8,1-0.8,1.5c-0.2,1.7-0.1,3.5-0.2,5.3c-0.1,2-0.2,4-0.3,6c0,0.8,0.4,1.4,1.3,1.4c0.9,0,1.1-0.7,1.1-1.5
		C337.5,252.5,337.5,250.6,337.5,248.7z M350.7,252.5c0.1,0,0.1,0,0.2,0c0,0.3-0.1,0.6-0.1,0.9c0,0.4-0.1,0.8,0,1.2
		c0.2,1.3,1.3,1.8,2.2,0.8c0.6-0.7,1.3-0.8,2-1c3.4-0.8,5.6-2.7,6.3-6.3c0.7-3.9-1.6-7.2-5.6-7.6c-0.7-0.1-1.4,0-2.1,0
		c-0.8,0-2.1-0.3-2.4,0.1c-0.5,0.6-0.5,1.7-0.5,2.7c0,1.6,0.1,3.2,0.1,4.8C350.7,249.5,350.7,251,350.7,252.5z M376.6,271.9
		c1.5,1,2.5,1.8,3.7,2.4c1.3,0.7,2.1,1.7,2.7,2.9c0.2,0.4,0.2,0.9,0.5,1.1c0.5,0.3,1.1,0.7,1.6,0.6c0.3,0,0.7-0.8,0.8-1.2
		c0.1-0.7-0.1-1.4-0.1-1.9c-1.9-2.3-5-3-6.7-5.5c0.6-0.7,1.2-1.3,1.6-1.9c0.7-1,1.3-2,1.9-3c0.4-0.7,0.3-1.5-0.7-1.7
		c-0.7-0.2-1.3,0.1-1.5,0.8c-0.1,0.3-0.1,0.7-0.3,0.9c-0.8,1.3-1.5,2.7-3.5,3.4c0.1-1.6,0.2-2.9,0.3-4.3c0-1-1-1.8-1.7-1.2
		c-0.4,0.3-0.5,1.1-0.6,1.7c-0.3,4-0.6,7.9-0.8,11.9c0,0.3-0.2,0.7-0.1,0.9c0.3,0.5,0.8,1,1.3,1.2c0.2,0.1,0.9-0.6,1.1-1
		c0.2-0.5,0-1.1,0.1-1.7C376.2,274.8,376.4,273.5,376.6,271.9z M366.8,247.2c-1.2-4.4,0.2-4.9,3.3-5.1c0.6,0,1.1,0,1.7-0.1
		c0.3-0.1,0.7-0.5,0.7-0.8c0-0.3-0.3-0.7-0.6-0.9c-0.3-0.2-0.8-0.2-1.1-0.2c-1.9,0.3-3.8,0.5-5.6,0.9c-0.9,0.2-1.3,0.9-1.2,1.8
		c0.1,0.8,0.2,1.6,0.1,2.4c-0.3,2.5-0.6,4.9-0.9,7.3c-0.3,1.8,0,2.3,1.8,2.6c1.6,0.2,3.2,0.4,4.7,0.6c1,0.1,2.1,0,2.4-1.1
		c0.2-1.3-1.1-1.1-1.9-1.3c-1.5-0.3-3-0.3-4.4-0.5c-0.2-2.7,0.2-3.2,2.5-3.4c0.7-0.1,1.4,0,2.2-0.1c0.7,0,1.7,0.1,1.6-0.9
		c0-0.5-0.8-1.1-1.3-1.4c-0.4-0.2-1.1-0.1-1.6,0C368.3,247,367.6,247.1,366.8,247.2z M376.5,240.9c0.2,0.6,0.3,1.2,0.6,1.6
		c0.5,0.7,1.1,1.4,1.6,2.1c1.3,1.6,1.3,1.7,0.2,3.3c-0.9,1.4-1.8,2.8-2.6,4.3c-0.2,0.4,0,1,0.1,1.5c0.6-0.1,1.2,0,1.7-0.3
		c0.4-0.2,0.5-0.8,0.8-1.2c0.8-1.1,1.6-2.3,2.6-3.7c1,1.6,1.8,2.8,2.6,3.9c0.8,1.2,1.6,1.5,2.3,0.9c0.9-0.8,0.3-1.5-0.3-2.2
		c-1-1.2-1.8-2.4-2.6-3.7c-0.5-0.7-0.7-1.4-0.1-2.2c0.8-1.1,1.6-2.2,2.4-3.3c0.7-1,0.4-2.1-0.7-2.1c-0.5,0-1.2,0.4-1.5,0.8
		c-0.7,1-1.3,2.1-2,3.2C379.6,243,379.4,239.9,376.5,240.9z M97.3,266.9c0,1.8,0,3.6,0,5.4c0,1,0.5,1.6,1.6,1.7
		c0.4,0,0.7,0.2,1.1,0.3c1.3,0.6,2.2,0.1,2.2-1.3c0-2.2-0.2-4.4-0.5-6.6c-0.1-1-1-1.3-2-0.8C99.1,266,98.3,266.4,97.3,266.9z
		 M333.3,245.7c0,0,0.1,0,0.1,0c0-1,0-2.1,0-3.1c0-0.9,0.5-2.4-1.1-2.4c-1.4,0-1,1.4-1.1,2.3c-0.3,4-0.5,8.1-0.8,12.1
		c0,0.3-0.2,0.7,0,0.9c0.3,0.5,0.8,1,1.3,1.1c0.3,0.1,0.8-0.6,1.1-1c0.2-0.2,0.1-0.6,0.1-0.9C333.1,251.7,333.2,248.7,333.3,245.7z
		 M114.6,268.1c0,0-0.1,0-0.1,0c0.1,1.7,0.2,3.3,0.3,5c0.1,0.8,0.4,1.6,1.4,1.6c1.1-0.1,1.2-0.8,1.1-1.7c-0.2-2.5-0.3-4.9-0.5-7.4
		c0-0.8-0.1-1.5-1.1-1.5c-1.1,0-1.3,0.8-1.3,1.6C114.5,266.5,114.6,267.3,114.6,268.1z M120.8,269.8c0,0-0.1,0-0.1,0
		c0-1.2,0-2.4,0-3.6c0-0.8-0.2-1.5-1.1-1.5c-1.1-0.1-1.3,0.7-1.3,1.6c0,2.4,0.1,4.8,0.2,7.2c0,0.7,0.3,1.6,1.2,1.5
		c1-0.1,1.2-0.9,1.2-1.8C120.8,272,120.8,270.9,120.8,269.8z M110.6,266.6c0.1,2,0.3,4,0.5,6.1c0.1,0.5,0.4,1.1,0.8,1.3
		c0.3,0.2,1.1-0.1,1.2-0.3c0.3-0.5,0.4-1.2,0.3-1.8c-0.1-1.6-0.4-3.1-0.5-4.7c-0.1-0.7,0.1-1.5-0.1-2.1c-0.2-0.5-0.7-1.1-1.2-1.2
		c-0.7-0.1-1.1,0.5-1.1,1.2C110.6,265.5,110.6,266,110.6,266.6z M107.1,264.8c-0.6,1.9-0.7,7.4-0.3,8.8c0.2,0.7,0.6,1.4,1.5,1.2
		c0.8-0.1,1.3-0.9,1-1.6c-0.8-2.2-0.5-4.5-0.5-6.8C108.7,265.3,108.3,264.8,107.1,264.8z M96.2,271.2c0.1-1.6,0.1-2.9,0.2-4.2
		c0.1-0.9-0.3-1.6-1.3-1.5c-1,0-1.2,0.7-1.1,1.6c0.1,2-0.1,3.9-0.1,5.9c0,0.7,0,1.5,0.3,2c0.2,0.4,1,0.7,1.5,0.7
		c0.2,0,0.6-0.9,0.6-1.3C96.4,273.3,96.3,272.1,96.2,271.2z M131.5,264.8c-0.1,0.4-0.3,0.8-0.2,1.1c0.3,2.3,0.6,4.5,1,6.8
		c0.1,0.7,0.4,1.5,1.3,1.3c1-0.1,1.2-0.8,1-1.8c-0.3-2-0.5-4.1-0.8-6.1C133.5,264.9,132.8,264.4,131.5,264.8z M144.7,268.5
		c0,0,0.1,0,0.1,0c0.1-0.8,0.3-1.6,0.1-2.4c-0.1-0.5-0.7-1.1-1.2-1.2c-0.8-0.2-1.1,0.4-1.1,1.1c0,2.2,0,4.4,0.1,6.6
		c0,0.9,0.3,1.6,1.4,1.5c0.9,0,1.3-0.7,1.1-2C145.1,271,144.9,269.8,144.7,268.5z M102.9,269.7C102.9,269.7,102.9,269.7,102.9,269.7
		c0.1,1,0.1,2.1,0.1,3.1c0,1,0.3,1.9,1.5,1.8c0.9-0.1,1.1-1,1-1.9c-0.2-1.9-0.3-3.8-0.5-5.7c0-0.3,0-0.7-0.2-0.9
		c-0.3-0.3-0.7-0.7-1.1-0.7c-0.3,0-0.7,0.6-0.7,1C102.8,267.5,102.9,268.6,102.9,269.7z M138,272.7c-0.2-2.3-0.3-4.1-0.5-5.9
		c-0.1-0.8-0.6-1.3-1.5-1.1c-0.8,0.1-1,0.7-0.9,1.4c0.2,1.8,0.3,3.6,0.5,5.5c0.1,0.8,0.7,1.4,1.5,1.1
		C137.5,273.5,137.8,272.8,138,272.7z M122.4,268.6C122.4,268.6,122.4,268.6,122.4,268.6c0.1,1.3,0.3,2.5,0.6,3.8
		c0.1,0.3,0.8,0.8,1,0.7c0.4-0.2,0.8-0.6,1-1.1c0.2-0.4,0-0.9,0-1.4c-0.1-1.3-0.2-2.7-0.1-4c0-0.9-0.3-1.4-1.1-1.5
		c-1-0.1-1.5,0.5-1.5,1.4C122.2,267.1,122.3,267.8,122.4,268.6z M146.4,269.2c0.1,0.9,0.2,2.3,0.5,3.7c0.1,0.3,0.6,0.8,0.9,0.8
		c0.4,0,0.8-0.4,1.1-0.7c0.2-0.3,0.2-0.8,0.2-1.2c0-1.7-0.1-3.3-0.1-5c0-0.7-0.3-1.2-1.1-1.3c-0.9-0.1-1.4,0.3-1.4,1.2
		C146.5,267.4,146.5,268,146.4,269.2z M138.4,270c0.2,0.9,0.3,2,0.6,2.9c0.1,0.3,0.9,0.6,1.4,0.6c0.3,0,0.8-0.6,0.8-1
		c0.1-1.8,0.1-3.6-0.1-5.5c0-0.4-0.7-0.9-1.2-1.2c-0.2-0.1-0.9,0.5-1,1C138.6,267.8,138.6,268.9,138.4,270z"/>
	<path class="st0" d="M398,192.7c1.1,10.7,2.3,21.2,3.4,31.8c-0.2,0-0.5,0.1-0.8,0.1c-6.3-1.2-12.7-1.4-19.1-1.4
		c-12.9,0-25.7-0.1-38.6-0.2c-5.5,0-11-0.1-16.5-0.4c-6.9-0.3-13.7-0.8-20.6-1.2c-0.4,0-0.8,0-1.2,0c-8.2-0.2-16.3-0.4-24.5-0.6
		c-12-0.2-24-0.5-36-0.6c-11.3-0.1-22.5,0.1-33.8,0c-6.1,0-12.1-0.5-18.2-0.7c-1.3,0-2.5,0.2-3.8,0.2c-3,0-5.9-0.2-8.9-0.2
		c-1.7,0-3.3,0.1-5,0.1c-9.3-0.1-18.7-0.3-28-0.1c-6.3,0.1-12.6,0.8-18.9,1.2c-1.1,0.1-2.2,0.1-3.4,0.1c-2.4,0.1-4.8,0.1-7.2,0.4
		c-11.6,1.4-23.3,1.2-35,0.9c-6.8-0.1-13.6-0.4-20.4-0.5c-3.6,0-7.2,0.2-11,0.3c-0.1-0.7-0.4-1.5-0.3-2.3c0.7-8,1.1-15.9,3.2-23.7
		c0.1-0.2,0.2-0.4,0.3-0.7c3,0,6,0,9,0c0.5,0,1,0.1,1.4,0.1c8.6-1.5,17.2-1.4,25.8-1.1c7.6,0.3,15.2,0.2,22.8,0.1
		c4.4,0,8.8-0.1,13.2-0.3c4.4-0.2,8.8-0.5,13.2-0.8c2.1-0.1,4.2-0.1,6.2-0.1c14.6-0.2,29.3-0.4,43.9-0.6c6.5-0.1,13.1-0.3,19.6-0.2
		c4,0,8,0.6,12,0.7c4.3,0.1,8.6,0.1,13,0.1c3.2,0,6.4-0.4,9.6-0.4c12.8-0.2,25.5-0.4,38.3-0.5c7,0,14.1,0.4,21.1,0.4
		c5.2,0.1,10.4,0,15.6-0.1c12.1-0.1,24.3-0.1,36.4-0.3c7.7-0.1,15.3-0.4,23-0.5c4.1-0.1,8.2-0.2,12.2,0
		C392.7,191.9,395.4,192.4,398,192.7z M392.9,213.3c-0.5-0.1-0.8-0.2-1.1-0.2c-2,0.2-4,0.5-5.9,0.5c-5.1,0-10.2-0.2-15.3-0.4
		c-2.8-0.1-5.6-0.5-8.4-0.5c-14.7-0.1-29.4,0-44.1-1.2c-8.4-0.7-16.9-0.6-25.4-0.6c-7.7,0-15.5,0.3-23.2,0.4c-5.1,0.1-10.2,0-15.3,0
		c-4.6,0-9.3,0.2-13.9-0.1c-9.7-0.6-19.3-0.3-29,0.1c-2.9,0.1-5.7,0.3-8.6,0.4c-6.5,0.1-12.9,0.2-19.4,0.3c-2.4,0-4.8-0.1-7.2-0.1
		c-4.9,0.1-9.9,0.4-14.8,0.5c-10.6,0.2-21.2,0.2-31.8,0.3c-10.4,0.1-20.8,0.1-31.1,0.3c-4.3,0.1-8.6,0.4-12.9,0.6
		c-2.7,0.1-5.4,0.4-8.1,0.5c-2.3,0-4.6-0.4-6.9-0.4c-5,0.1-10.1,0.3-15.1,0.5c-0.8,0-1.6,0.1-1.5,1.1c0.1,1,0.9,0.9,1.6,0.9
		c1.6-0.1,3.2-0.3,4.7-0.4c3.9-0.1,7.8-0.3,11.7-0.2c5.5,0.3,11,0.1,16.5-0.1c4.9-0.2,9.7-0.5,14.6-0.7c2-0.1,4,0,6-0.1
		c6.2-0.1,12.5-0.3,18.7-0.4c5.4-0.1,10.9,0,16.3-0.1c11.5-0.1,23-0.3,34.4-0.5c8.1-0.1,16.3-0.2,24.4-0.3c3.9-0.1,7.8-0.6,11.7-0.6
		c10.5,0,20.9,0.3,31.4,0.3c9.2,0,18.4-0.3,27.6-0.4c4.8-0.1,9.6-0.1,14.4,0c9.1,0.1,18.2,0.3,27.3,0.5c6.2,0.2,12.4,0.7,18.7,0.9
		c4.1,0.2,8.3,0.2,12.4,0.2c2.8,0,5.6-0.1,8.4,0c3.8,0.1,7.7,0.2,11.5,0.5c4.9,0.3,9.9,0.9,14.8,1.2c1.7,0.1,3.3-0.2,5-0.3
		c1.5-0.1,3-0.2,4.5-0.2C392,215.5,392.1,215.4,392.9,213.3z"/>
	<path class="st0" d="M100,192.9c0-2.9-0.2-5.4,0-7.9c0.4-5.7,0.9-11.5,1.6-17.2c0.3-2.2,1.1-4.3,1.6-6.5c0.3-1.1,1.3-1.5,2.2-1.6
		c2.7-0.6,5.5-1.2,8.2-1.5c3.1-0.3,6.2-0.5,9.3-0.4c4.9,0.2,9.9,0.7,14.8,1.1c1,0.1,1.9,0.2,2.9,0.2c5.7-0.1,11.3-0.3,17-0.4
		c2.9-0.1,3.2,0.2,3.3,3c0.2,7.9,0.4,15.8,0.6,23.7c0,1.8,0.2,3.6,0.3,5.5C141.1,191.6,120.7,192.3,100,192.9z M125.5,189.1
		c1.5,0.9,1.9,0.8,2-1c0.1-1.9,0.1-3.8,0-5.7c-0.1-3.4-0.4-6.9-0.6-10.3c-0.1-2.3,0-4.6,0-6.9c0-0.9-0.2-1.7-1.2-1.7
		c-0.9,0-1.1,0.8-1.1,1.6c0,2.2,0,4.5,0.1,6.7C124.9,177.4,125.2,183.2,125.5,189.1z M129.7,178.4
		C129.8,178.4,129.8,178.4,129.7,178.4c0.1,3.5,0.1,7,0.1,10.5c0,0.3,0,0.8,0.2,0.9c0.4,0.4,1,0.6,1.5,1c0.2-0.4,0.6-0.9,0.7-1.3
		c0.1-1.3,0-2.6-0.1-3.8c-0.3-6.2-0.6-12.5,0.1-18.7c0-0.2,0.1-0.5,0-0.7c-0.3-0.4-0.5-1-0.9-1.1c-0.3-0.1-1,0.5-1.1,0.8
		c-0.3,1.1-0.4,2.2-0.4,3.3C129.7,172.3,129.7,175.4,129.7,178.4z M120.8,162.9c-0.1,0.5-0.4,1.1-0.4,1.6c-0.1,3.7,0,7.5-0.1,11.2
		c0,3.6-0.1,7.2-0.2,10.8c0,1.2,0,2.2,1.8,2.5c0.2-1,0.4-1.9,0.4-2.8c0.1-7,0.2-14,0.3-21c0-0.4,0-0.8,0-1.2
		C122.4,163.3,122,162.8,120.8,162.9z M105.5,178.7c-0.6,0.6-1.2,1.2-1.6,1.5c0.1,1.2,0.2,2.2,0.2,3.1c0.1,2,1,3.1,2.9,3
		c1.2-0.1,2.5-0.6,3.5-1.3c0.5-0.4,0.6-1.5,0.7-2.4c0.1-0.7,0-1.4,0-2.1c0-1-0.6-1.6-1.5-1.3C108.2,179.7,106.9,179.5,105.5,178.7z
		 M107.2,171.5c1.4,1.6,1.4,1.6,1.2,2.9c-0.1,0.5-0.3,1.1-0.4,1.6c-0.3,0.8,0.1,1.3,0.8,1.4c0.4,0.1,1.1-0.2,1.4-0.6
		c1.4-2.1,0.5-5.9-1.6-7.2c-1-0.6-2.1-0.8-2.8,0.1c-0.7,0.9-1.2,2-1.6,3.1c-0.1,0.3,0.5,1,0.8,1.2c0.4,0.1,1.1-0.1,1.4-0.4
		C106.7,173.1,106.8,172.4,107.2,171.5z M143.3,164.1c1.4-0.3,2.3-0.6,3.4-0.7c2.4-0.3,4.9-0.5,7.3-0.8c0.7-0.1,1.5-0.5,1.2-1.4
		c-0.2-0.4-1-0.9-1.5-0.8c-3.5,0.4-6.9,0.9-10.3,1.5c-0.5,0.1-0.9,0.7-1.4,1C142.5,163.3,142.9,163.8,143.3,164.1z M142.8,168.6
		c0.6,0.8,0.8,1.1,1,1.2c3.6,1.4,7,0.1,10.5-0.4c0.2,0,0.5-0.6,0.5-1c0-0.3-0.4-0.8-0.7-0.8c-0.7-0.1-1.4-0.1-2.1,0.1
		c-2.3,0.6-4.5,1-6.8,0.4C144.6,168.1,143.9,168.4,142.8,168.6z M143.2,166.3c0.9,1.4,2.1,1,3.1,0.9c2.5-0.3,5-0.7,7.5-1.1
		c0.1,0,0.2-0.2,0.4-0.3c0.1-1.2-0.6-1.8-1.7-1.7c-2.9,0.4-5.8,1-8.6,1.5C143.6,165.7,143.5,166,143.2,166.3z M153.7,172.9
		c-0.8-1.7-1.7-1.9-2.8-1.9c-2.3,0.1-4.6,0.2-6.9,0.3c-0.8,0-1.6-0.1-1.8,1.2c0.3,0.2,0.7,0.7,1.1,0.7
		C146.6,173.2,150,173.2,153.7,172.9z"/>
	<path class="st0" d="M61.8,104.1c0.2,0.4,0.4,0.6,0.4,0.7c-0.1,1.5-0.1,3-0.4,4.5c-3.7,24.7-5.7,49.7-8.6,74.5
		c0,0.4-0.2,0.8-0.4,1.4c-0.9-0.6-1.7-1-2.4-1.6c-7.5-6.1-15-12.2-22.4-18.4c-3.6-3.1-7-6.5-10.4-9.9c-0.5-0.5-0.8-1.1-1-1.4
		c3.5-3.9,6.9-7.5,10.2-11.1c4.6-5.1,9.2-10.2,13.9-15.2c5.1-5.6,10.2-11.2,15.3-16.8C57.9,108.6,59.8,106.5,61.8,104.1z"/>
	<path class="st0" d="M50.6,199.5c-0.5,2.9-1,5.5-1.3,8.1c-0.5,4.9-0.8,9.9-1.3,14.8c-0.2,2.4-0.7,4.8-1.1,7.4
		c-2.9,0.6-5.8,0.4-8.7,0c-4.2-0.7-8.4-1.7-12.7-2.2c-3.7-0.5-7.5-0.4-11.2-0.6c-0.8,0-1.6-0.1-2.4-0.2c-2-0.4-2.2-0.2-2.2,2
		c-0.7,0.2-1-0.1-1-0.8c0.2-2.2,0.5-4.4,0.6-6.7c0.2-5.1,0.2-10.2,0.4-15.3c0.1-2.7,0.3-5.4,0.6-8.1c0.2-1.5,0.6-1.6,2.1-1.5
		c2.4,0.2,4.9,0.4,7.4,0.3c4.5-0.2,8.9,0.6,13.3,1.1c5,0.6,10,1,15,1.6C48.9,199.3,49.6,199.4,50.6,199.5z"/>
	<path class="st0" d="M16.2,228.7c1.2,0,2.3,0,3.5,0c0,0.1,0,0.1,0,0.2c-1.2,0-2.4,0-3.6,0C16.1,228.8,16.2,228.7,16.2,228.7z"/>
	<path d="M215.6,132.1c-3.4,0-6.9,0.1-10.3,0c-5.5-0.3-11-0.7-16.5-1.2c-3.3-0.3-6.7-0.5-10-1.2c-5.1-1-9.9-2.8-13.5-6.8
		c-1.9-2.2-3.5-4.8-4.8-7.4c-1.9-3.9-3.3-8-3.8-12.3c-0.7-6.4-0.5-12.6,2.6-18.4c2-3.8,4.8-6.8,8.6-9.2c5.4-3.3,11.2-4.8,17.4-5.5
		c2.1-0.2,4.3-0.5,6.4-1.1c6-1.6,12.1-1.7,18.3-1.8c6,0,12-0.2,18-0.4c0.6,0,1.3,0,1.9-0.3c3.4-1.9,7.2-2.1,11-2.1
		c6.2-0.1,12.5,0,18.7,0.6c4.1,0.4,8.1,1.5,12.2,2.5c7.2,1.9,14.3,4.1,21.1,6.9c3.9,1.6,7.2,4.1,9.5,7.7c2.8,4.2,4.8,8.7,5.8,13.6
		c1.4,6.4,0.2,12.4-3.9,17.6c-1.1,1.4-2.1,2.9-3.3,4.1c-5.3,5.4-11.8,8.7-19.1,10.3c-4.2,0.9-8.4,2-12.6,2.7c-4,0.7-8,1.2-12.1,1.7
		c-3.1,0.4-6.2,0.8-9.3,1c-6.1,0.3-12.1-0.2-18.2-0.7c-4.2-0.3-8.5-0.2-12.7-0.3C216.6,132.1,216.1,132.1,215.6,132.1z M243.2,131.5
		c0-0.1,0-0.2,0-0.3c1.4,0,2.9,0.1,4.3,0c5.5-0.6,11.1-1.2,16.6-2c7.4-1.1,14.8-2.4,22-4.7c7.4-2.4,13.3-6.8,17.5-13.4
		c2.1-3.3,3.2-6.8,2.9-10.9c-0.3-6.2-2.7-11.6-5.8-16.8c-1.6-2.6-3.7-4.6-6.5-5.8c-2.6-1.2-5.2-2.4-7.9-3.4
		c-3.8-1.3-7.6-2.6-11.4-3.6c-4.3-1.2-8.6-2.5-13-3.1c-5.4-0.7-11-0.8-16.5-1c-2.6-0.1-5.3,0.1-7.9,0.3c-1.1,0.1-2.6-0.6-3,1.2
		c0,0.2-0.6,0.2-0.9,0.3c-1.7,0.2-3.3,0.4-5,0.4c-7.2,0.2-14.4,0.5-21.6,0.5c-5.1,0-10.2,0.3-15.2,1.5c-2.7,0.7-5.5,1.1-8.2,1.5
		c-4.6,0.7-9.2,1.8-13.2,4c-7.3,4.1-11.1,10.6-11.7,18.9c-0.5,7.2,1.1,13.9,4.2,20.4c3.2,6.7,8.8,10.3,15.6,11.9
		c7.6,1.9,15.5,2,23.3,2.4c5.7,0.3,11.5,0.1,17.3,0.1c3.5,0,7,0,10.5,0.2C234.2,130.6,238.7,131.1,243.2,131.5z"/>
	<path d="M359.8,20.4c2.2,0,2.4,0.1,2.4,1.6c-0.1,10.2-0.2,20.5-0.2,30.7c0,7.7,0.2,15.5,0.2,23.2c0,6.4,0.5,12.8,0.8,19.1
		c0.3,6.6,0,13.3,0.2,19.9c0.1,5.9,0.5,11.8,0.8,17.7c0.3,7.1,0.4,14.2,0.6,21.3c0,0.5,0,1-0.1,1.4c-0.3,1.3-0.5,1.4-2.4,1
		c0-1.7,0-3.4,0-5.2c-0.2-7.7-0.5-15.5-0.7-23.2c-0.2-7-0.2-14.1-0.4-21.1c-0.1-4.3-0.4-8.6-0.6-12.9c-0.2-6.1-0.6-12.1-0.6-18.2
		c-0.1-11.2,0-22.4,0-33.6c0-6.1,0-12.1-0.1-18.2C359.7,22.9,359.8,21.7,359.8,20.4z"/>
	<path d="M353.6,158.9c-0.2-0.5-0.4-0.9-0.4-1.3c-0.1-4.8-0.2-9.6-0.3-14.4c-0.2-9.2-0.3-18.4-0.5-27.5c-0.1-5-0.3-9.9-0.2-14.9
		c0.1-6.5,0.4-12.9,0.5-19.4c0-2.9-0.2-5.7-0.3-8.6c-0.2-6.1-0.4-12.3-0.5-18.4c-0.1-9.7-0.2-19.3-0.2-29c0-1,0.1-2.1,0.4-3.1
		c0.1-0.4,0.9-0.8,1.4-0.8c0.3,0,0.8,0.8,0.8,1.2c-0.2,4.3-0.5,8.6-0.6,12.9c-0.1,2.3,0.1,4.6,0.1,6.9c0.1,5.8,0.2,11.7,0.4,17.5
		c0.2,5.3,0.5,10.5,0.7,15.8c0.1,3,0,6.1,0,9.1c-0.1,9.8-0.3,19.6-0.4,29.5c-0.1,6.8-0.1,13.6,0.1,20.3c0.2,7.2,0.6,14.4,0.8,21.5
		C355.6,158.3,355.5,158.3,353.6,158.9z"/>
	<path d="M371.8,26c0.1,5.9,0.3,11.8,0.4,17.7c0.1,6.4-0.1,12.8,0,19.2c0,8.1,0.1,16.1,0.2,24.2c0.1,5.9,0.4,11.8,0.2,17.7
		c-0.3,10,0.2,20,0.8,29.9c0.5,7-0.3,13.9-0.6,20.8c0,0.4-0.1,0.8-0.3,1.1c-0.2,0.3-0.7,0.5-1,0.5c-0.3,0-0.8-0.4-0.8-0.7
		c-0.1-0.9-0.2-1.7-0.1-2.6c0.2-4.8,0.7-9.6,0.7-14.4c0-4.5-0.5-8.9-0.5-13.4c-0.2-16.2-0.4-32.4-0.5-48.7
		c-0.1-8.2-0.3-16.5-0.4-24.7c0-1.3,0.1-2.6,0.1-3.8c-0.2-8-0.4-16-0.6-23.9c0-1.1,0-2.2,0.1-3.3c0-0.8,0.3-1.4,1.3-1.4
		c0.9,0.1,1.2,0.7,1.1,1.5C371.7,23.1,371.8,24.6,371.8,26C371.8,26,371.8,26,371.8,26z"/>
	<path d="M326.1,22.4c0,3.8,0,7.6,0,11.4c0.1,5,0.2,10.1,0.3,15.1c0.1,4.1,0,8.1,0.2,12.2c0.2,5.3,0.8,10.7,0.9,16
		c0.2,6.5,0,13.1,0,19.6c0,4.8,0,9.6,0,14.4c0,0.2,0,0.5,0,0.7c0,1.6-0.4,2.2-1.3,2.1c-1.4-0.2-1.1-1.3-1.1-2.2
		c0-12.8,0-25.6-0.1-38.3c0-2.4-0.4-4.8-0.5-7.2c-0.2-5.3-0.3-10.5-0.4-15.8c-0.2-7.5-0.3-15-0.5-22.5c0-1.4-0.1-2.9,0.1-4.3
		C323.9,22,324.2,21.9,326.1,22.4z"/>
	<path d="M332.7,68.7c0-5.8,0.3-11.5-0.1-17.3c-0.5-9,0.2-18,0.5-27c0-0.6,0-1.2,0.3-1.6c0.2-0.4,1-1,1.2-0.8c0.5,0.2,1,0.8,1,1.3
		c0.1,1-0.2,2.1-0.3,3.1c-0.2,5.4-0.5,10.9-0.5,16.3c0,5.4,0.3,10.9,0.3,16.3c0.1,7.2,0,14.4,0,21.6c0,2.1,0.1,4.2,0.1,6.2
		c0,0.7,0.1,1.5-0.2,2.1c-0.2,0.5-0.9,1-1.3,1c-0.4-0.1-1.1-0.8-1.1-1.2c-0.2-1.2-0.1-2.4-0.1-3.6c0-5.4,0-10.9,0-16.3
		C332.6,68.7,332.7,68.7,332.7,68.7z"/>
	<path d="M316.5,75.4c0-2.3,0.1-4.6,0-7c-0.4-8.2-0.9-16.4-1.3-24.6c-0.2-6-0.2-12-0.3-18c0-0.6,0-1.3,0.1-1.9
		c0.1-0.7,0.2-1.3,1.1-1.3c0.8,0.1,1.3,0.6,1.3,1.4c0,1.6,0,3.2,0,4.8c0.1,6.4,0.1,12.8,0.4,19.2c0.2,5.6,0.7,11.1,1.1,16.7
		c0.1,2,0.1,4,0.1,6c0.2,5.2,0.3,10.4,0.5,15.6c0,0.7,0,1.4-0.1,2.2c-0.1,1.1-0.8,1.9-1.5,1.7c-1-0.2-1-1-1-1.9
		c0.1-4.3,0-8.6,0-12.9C316.8,75.4,316.6,75.4,316.5,75.4z"/>
	<path d="M341.9,68.2c0.1-3.9,0.4-8.2,0.3-12.5c0-4.5-0.3-8.9-0.4-13.4c-0.2-6.1-0.4-12.3-0.5-18.4c0-0.6,0.1-1.3,0.1-1.9
		c0-0.8,0.3-1.4,1.3-1.3c0.9,0.1,1.2,0.6,1.2,1.5c0,1.7,0,3.3,0,5c0.1,4.8,0.1,9.6,0.2,14.4c0.2,13.9,0.3,27.8,0.5,41.7
		c0,1,0,1.9-0.2,2.9c-0.1,0.4-0.7,1-1.1,1c-0.4,0-1-0.5-1.2-0.9c-0.2-0.6-0.1-1.3-0.1-1.9C341.9,79,341.9,73.8,341.9,68.2z"/>
	<path d="M89.1,271.3c0.8,5-4.9,10.5-9.3,10.4c-0.9,0-2.1,0-2.7-0.6c-2.8-2.6-5.5-5.4-5.8-9.6c-0.2-3.3,0.4-6.5,3.1-8.7
		c4.2-3.5,6.7-3.1,10.7-0.1C87.8,264.9,89.6,267.7,89.1,271.3z M82.7,268.8c-3.6-0.6-3.6-0.6-4,0.7C80.1,270.2,81.3,270,82.7,268.8z
		 M82.4,273.2c-1.5,0.4-2.4,0.6-3.5,0.9c0.3,0.5,0.5,1.2,0.7,1.3C80.7,275.4,81.8,275.1,82.4,273.2z"/>
	<path d="M346.6,268.3c1.1,0.8,2.1,1.5,3.4,2.4c0.2-1.2,0.4-2.1,0.6-3c0.4-1.7,1.1-3.2,2.7-4.3c1-0.7,1.9-0.8,2.9-0.3
		c1.2,0.6,2.3,1.4,3.3,2.3c0.4,0.4,0.7,1.1,0.7,1.7c0.1,2.6,0.1,5.3,0,7.9c-0.1,2.7-2.1,4.3-4.8,4.2c-2.4-0.1-4.5-0.6-5-3.7
		c-1.6,2.3-3.7,2.6-5.9,2.6c-1.3,0-2.7-0.3-3.3,1.5c-0.1,0.3-1.1,0.5-1.5,0.3c-0.4-0.2-0.7-0.9-0.7-1.4c0-3,0.2-6,0.3-9.1
		c0-1.8-0.2-3.6-0.4-5.4c-0.1-0.9,0.2-1.4,1-1.7c1.8-0.7,3.6-0.8,5.2,0.5c1.6,1.2,2.1,2.8,1.7,4.7
		C346.8,267.7,346.7,268,346.6,268.3z M356,265.4c-2.3,0.4-3.3,1.9-3.3,3.9c0,2.1,0.2,4.3,0.5,6.4c0.1,0.9,0.8,1.3,1.7,1.3
		c1.8,0,3-0.8,3.1-2.6c0.1-2.1-0.2-4.1-0.2-6.2C357.8,266.8,357.3,265.9,356,265.4z M341.6,275.9c1.7,0.1,3.1,0.3,4.5,0.2
		c1.7-0.1,2.6-1.7,2-3.3c-0.5-1.4-1.5-2.2-3-2.3c-1.2-0.1-2.3,0-3.6,0C341.6,272.3,341.6,273.9,341.6,275.9z M341.6,268.2
		c0.8-0.1,1.3-0.1,1.8-0.3c1.6-0.7,1.7-2.6,0.3-3.6c-1-0.8-2-0.4-2.1,0.9C341.5,266.1,341.6,267.1,341.6,268.2z"/>
	<path d="M372.3,271.4c0,0.9,0.1,1.8,0,2.6c-0.3,2.7-2.7,5-5.3,4.7c-1.7-0.2-3.3-1.1-4.8-1.8c-0.9-0.5-1-1.5-0.9-2.5
		c0.2-1.7,0.2-3.5,0.4-5.2c0.3-2,0.6-3.9,1-5.9c0.4-1.7,1.7-2.1,3.2-2.3c1.3-0.2,2.3,0.2,3,1.4c0.7,1.1,1.8,2.1,2.4,3.2
		C372.4,267.7,372.4,268.4,372.3,271.4z M365,264c-0.3,0.9-0.6,1.6-0.7,2.3c-0.2,2.6-0.4,5.2-0.5,7.9c-0.1,1.3,0.9,1.8,1.8,2.2
		c2,0.8,4.2-0.6,4.4-3c0.1-1.6,0.1-3.4-0.2-5c-0.4-2-1.2-4-3.9-4C365.6,264.3,365.4,264.2,365,264z"/>
	<path d="M337.5,248.7c0,1.9,0,3.8,0,5.7c0,0.9-0.2,1.5-1.1,1.5c-0.9,0-1.3-0.6-1.3-1.4c0.1-2,0.2-4,0.3-6c0.1-1.8,0-3.5,0.2-5.3
		c0-0.5,0.6-1,0.8-1.5c0.5,0.3,1.2,0.5,1.4,1c1.2,2.2,2.3,4.6,3.4,6.8c0.4,0.7,0.9,1.4,1.4,2.1c0.2,0,0.4-0.1,0.5-0.1
		c0.4-2.6,0.7-5.1,1.1-7.7c0.1-0.7,0.2-1.4,0.3-2.1c0.2-0.7,0.7-1.1,1.4-0.8c0.8,0.2,1.2,0.6,1,1.6c-0.7,3.9-1.2,7.9-1.8,11.8
		c0,0.1,0,0.2,0,0.2c-0.3,0.6-0.6,1.5-1.1,1.6c-0.4,0.1-1.3-0.4-1.7-0.9c-1.4-1.9-2.6-3.8-3.8-5.8c-0.2-0.3-0.4-0.6-0.6-0.9
		C337.9,248.6,337.7,248.6,337.5,248.7z"/>
	<path d="M350.7,252.5c0-1.5,0-3,0-4.5c0-1.6-0.2-3.2-0.1-4.8c0-0.9,0-2,0.5-2.7c0.3-0.4,1.6-0.1,2.4-0.1c0.7,0,1.4,0,2.1,0
		c3.9,0.4,6.3,3.7,5.6,7.6c-0.7,3.6-2.9,5.5-6.3,6.3c-0.8,0.2-1.4,0.3-2,1c-0.9,1-2,0.6-2.2-0.8c-0.1-0.4,0-0.8,0-1.2
		c0-0.3,0.1-0.6,0.1-0.9C350.8,252.5,350.7,252.5,350.7,252.5z M354.9,242.6c-1.6,0-2.1,0.5-2.1,2.1c0.1,2,0.2,4,0.3,5.9
		c0.1,1.6,0.7,1.9,2.2,1.3c1.9-0.6,2.9-2,3.5-3.9C359.6,245.3,357.7,242.7,354.9,242.6z"/>
	<path d="M376.6,271.9c-0.2,1.7-0.4,3-0.5,4.3c-0.1,0.6,0.1,1.2-0.1,1.7c-0.2,0.4-0.8,1.1-1.1,1c-0.5-0.2-0.9-0.7-1.3-1.2
		c-0.1-0.2,0-0.6,0.1-0.9c0.3-4,0.5-7.9,0.8-11.9c0-0.6,0.2-1.3,0.6-1.7c0.7-0.6,1.7,0.2,1.7,1.2c0,1.3-0.2,2.7-0.3,4.3
		c2-0.6,2.6-2.1,3.5-3.4c0.2-0.3,0.2-0.6,0.3-0.9c0.2-0.8,0.8-1,1.5-0.8c0.9,0.2,1,1,0.7,1.7c-0.5,1.1-1.2,2.1-1.9,3
		c-0.4,0.6-1,1.2-1.6,1.9c1.7,2.5,4.8,3.2,6.7,5.5c0,0.5,0.2,1.2,0.1,1.9c-0.1,0.5-0.5,1.2-0.8,1.2c-0.5,0-1.1-0.3-1.6-0.6
		c-0.3-0.2-0.3-0.7-0.5-1.1c-0.6-1.3-1.4-2.2-2.7-2.9C379.1,273.7,378,272.8,376.6,271.9z"/>
	<path d="M366.8,247.2c0.7-0.1,1.5-0.1,2.3-0.2c0.6,0,1.2-0.2,1.6,0c0.6,0.3,1.3,0.9,1.3,1.4c0.1,1-0.9,0.9-1.6,0.9
		c-0.7,0-1.4,0-2.2,0.1c-2.3,0.2-2.7,0.7-2.5,3.4c1.5,0.2,3,0.2,4.4,0.5c0.8,0.1,2.1,0,1.9,1.3c-0.2,1.1-1.3,1.2-2.4,1.1
		c-1.6-0.2-3.2-0.3-4.7-0.6c-1.7-0.3-2-0.8-1.8-2.6c0.3-2.4,0.7-4.9,0.9-7.3c0.1-0.8-0.1-1.6-0.1-2.4c-0.1-0.9,0.3-1.6,1.2-1.8
		c1.9-0.4,3.8-0.6,5.6-0.9c0.4-0.1,0.8,0,1.1,0.2c0.3,0.2,0.6,0.6,0.6,0.9c0,0.3-0.4,0.7-0.7,0.8c-0.5,0.2-1.1,0.1-1.7,0.1
		C367.1,242.3,365.6,242.8,366.8,247.2z"/>
	<path d="M376.5,240.9c2.9-1,3.1,2.1,5,2.9c0.6-1.1,1.2-2.2,2-3.2c0.3-0.4,1-0.8,1.5-0.8c1.1,0,1.4,1.1,0.7,2.1
		c-0.8,1.1-1.5,2.2-2.4,3.3c-0.6,0.8-0.4,1.5,0.1,2.2c0.9,1.2,1.7,2.5,2.6,3.7c0.6,0.7,1.2,1.4,0.3,2.2c-0.7,0.7-1.5,0.3-2.3-0.9
		c-0.8-1.2-1.6-2.4-2.6-3.9c-1,1.4-1.8,2.5-2.6,3.7c-0.3,0.4-0.4,1-0.8,1.2c-0.5,0.3-1.1,0.2-1.7,0.3c0-0.5-0.3-1.1-0.1-1.5
		c0.8-1.5,1.7-2.9,2.6-4.3c1-1.7,1-1.8-0.2-3.3c-0.5-0.7-1.1-1.3-1.6-2.1C376.8,242,376.7,241.5,376.5,240.9z"/>
	<path d="M97.3,266.9c1-0.5,1.7-0.9,2.5-1.3c1-0.5,1.9-0.3,2,0.8c0.2,2.2,0.4,4.4,0.5,6.6c0,1.4-0.9,1.9-2.2,1.3
		c-0.3-0.1-0.7-0.3-1.1-0.3c-1.1-0.1-1.6-0.7-1.6-1.7C97.3,270.5,97.3,268.6,97.3,266.9z"/>
	<path d="M333.3,245.7c-0.1,3-0.2,6.1-0.4,9.1c0,0.3,0.1,0.7-0.1,0.9c-0.3,0.4-0.9,1.1-1.1,1c-0.5-0.1-0.9-0.7-1.3-1.1
		c-0.1-0.2,0-0.6,0-0.9c0.3-4.1,0.5-8.1,0.8-12.1c0.1-0.9-0.3-2.3,1.1-2.3c1.6,0,1.1,1.4,1.1,2.4c0,1,0,2.1,0,3.1
		C333.4,245.7,333.3,245.7,333.3,245.7z"/>
	<path d="M114.6,268.1c0-0.8-0.1-1.6-0.1-2.4c0-0.9,0.2-1.6,1.3-1.6c1,0,1.1,0.7,1.1,1.5c0.1,2.5,0.3,4.9,0.5,7.4
		c0.1,0.9,0,1.7-1.1,1.7c-1,0.1-1.3-0.7-1.4-1.6c-0.1-1.7-0.2-3.3-0.3-5C114.6,268.1,114.6,268.1,114.6,268.1z"/>
	<path d="M120.8,269.8c0,1.1,0,2.2,0,3.4c0,0.9-0.2,1.7-1.2,1.8c-0.9,0.1-1.2-0.8-1.2-1.5c-0.1-2.4-0.2-4.8-0.2-7.2
		c0-0.9,0.2-1.7,1.3-1.6c0.9,0.1,1.1,0.8,1.1,1.5c0,1.2,0,2.4,0,3.6C120.7,269.8,120.8,269.8,120.8,269.8z"/>
	<path d="M110.6,266.6c0-0.6,0-1.1,0-1.5c0-0.7,0.3-1.4,1.1-1.2c0.5,0.1,1,0.7,1.2,1.2c0.2,0.7,0,1.4,0.1,2.1
		c0.2,1.6,0.4,3.1,0.5,4.7c0,0.6,0,1.3-0.3,1.8c-0.2,0.3-1,0.5-1.2,0.3c-0.4-0.3-0.8-0.8-0.8-1.3
		C110.9,270.6,110.8,268.6,110.6,266.6z"/>
	<path d="M107.1,264.8c1.3-0.1,1.7,0.5,1.7,1.6c0,2.3-0.3,4.6,0.5,6.8c0.3,0.7-0.2,1.5-1,1.6c-0.9,0.2-1.3-0.5-1.5-1.2
		C106.3,272.2,106.5,266.7,107.1,264.8z"/>
	<path d="M96.2,271.2c0.1,0.8,0.2,2,0.2,3.2c0,0.5-0.4,1.3-0.6,1.3c-0.5,0-1.3-0.3-1.5-0.7c-0.3-0.5-0.3-1.3-0.3-2
		c0-2,0.2-4,0.1-5.9c0-1,0.1-1.6,1.1-1.6c1,0,1.4,0.6,1.3,1.5C96.4,268.3,96.3,269.6,96.2,271.2z"/>
	<path d="M131.5,264.8c1.3-0.3,2.1,0.1,2.2,1.4c0.3,2,0.5,4.1,0.8,6.1c0.2,0.9,0,1.6-1,1.8c-0.9,0.1-1.2-0.6-1.3-1.3
		c-0.3-2.3-0.7-4.5-1-6.8C131.2,265.6,131.4,265.2,131.5,264.8z"/>
	<path d="M144.7,268.5c0.2,1.2,0.3,2.5,0.5,3.7c0.2,1.3-0.2,1.9-1.1,2c-1.1,0.1-1.4-0.7-1.4-1.5c-0.1-2.2-0.1-4.4-0.1-6.6
		c0-0.7,0.3-1.4,1.1-1.1c0.5,0.1,1.1,0.7,1.2,1.2c0.2,0.7,0,1.6-0.1,2.4C144.8,268.5,144.8,268.5,144.7,268.5z"/>
	<path d="M102.9,269.7c0-1.1-0.1-2.2,0-3.3c0-0.4,0.5-1,0.7-1c0.4,0,0.8,0.4,1.1,0.7c0.2,0.2,0.2,0.6,0.2,0.9
		c0.2,1.9,0.3,3.8,0.5,5.7c0.1,0.9-0.1,1.8-1,1.9c-1.1,0.1-1.4-0.8-1.5-1.8C103,271.8,103,270.7,102.9,269.7
		C102.9,269.7,102.9,269.7,102.9,269.7z"/>
	<path d="M138,272.7c-0.2,0.2-0.5,0.8-0.9,0.9c-0.8,0.3-1.4-0.4-1.5-1.1c-0.2-1.8-0.4-3.6-0.5-5.5c-0.1-0.7,0.1-1.3,0.9-1.4
		c0.9-0.1,1.4,0.3,1.5,1.1C137.7,268.6,137.8,270.4,138,272.7z"/>
	<path d="M122.4,268.6c-0.1-0.7-0.2-1.4-0.2-2.1c0-0.9,0.5-1.5,1.5-1.4c0.8,0.1,1.2,0.6,1.1,1.5c0,1.3,0.1,2.7,0.1,4
		c0,0.5,0.2,1,0,1.4c-0.2,0.4-0.6,0.9-1,1.1c-0.2,0.1-1-0.4-1-0.7C122.7,271.1,122.5,269.8,122.4,268.6
		C122.4,268.6,122.4,268.6,122.4,268.6z"/>
	<path d="M146.4,269.2c0.1-1.2,0.1-1.8,0.1-2.4c0.1-0.9,0.5-1.3,1.4-1.2c0.8,0.1,1.1,0.6,1.1,1.3c0,1.7,0.1,3.3,0.1,5
		c0,0.4,0,0.9-0.2,1.2c-0.2,0.3-0.7,0.7-1.1,0.7c-0.3,0-0.9-0.5-0.9-0.8C146.6,271.5,146.5,270.1,146.4,269.2z"/>
	<path d="M138.4,270c0.2-1.2,0.2-2.2,0.5-3.2c0.1-0.4,0.8-1,1-1c0.5,0.2,1.2,0.7,1.2,1.2c0.1,1.8,0.1,3.6,0.1,5.5c0,0.4-0.5,1-0.8,1
		c-0.5,0-1.2-0.3-1.4-0.6C138.7,272,138.6,270.9,138.4,270z"/>
	<path d="M392.9,213.3c-0.7,2.1-0.9,2.2-2.5,2.2c-1.5,0-3,0.2-4.5,0.2c-1.7,0.1-3.4,0.4-5,0.3c-4.9-0.3-9.9-0.9-14.8-1.2
		c-3.8-0.3-7.7-0.4-11.5-0.5c-2.8-0.1-5.6,0.1-8.4,0c-4.1,0-8.3,0-12.4-0.2c-6.2-0.2-12.4-0.8-18.7-0.9c-9.1-0.3-18.2-0.4-27.3-0.5
		c-4.8-0.1-9.6,0-14.4,0c-9.2,0.1-18.4,0.4-27.6,0.4c-10.5,0-20.9-0.3-31.4-0.3c-3.9,0-7.8,0.5-11.7,0.6c-8.1,0.2-16.3,0.2-24.4,0.3
		c-11.5,0.1-23,0.3-34.4,0.5c-5.4,0.1-10.9,0-16.3,0.1c-6.2,0.1-12.5,0.2-18.7,0.4c-2,0-4,0-6,0.1c-4.9,0.2-9.7,0.5-14.6,0.7
		c-5.5,0.3-11,0.4-16.5,0.1c-3.9-0.2-7.8,0.1-11.7,0.2c-1.6,0-3.2,0.3-4.7,0.4c-0.7,0-1.6,0.1-1.6-0.9c-0.1-1,0.8-1.1,1.5-1.1
		c5-0.2,10.1-0.4,15.1-0.5c2.3,0,4.6,0.4,6.9,0.4c2.7,0,5.4-0.3,8.1-0.5c4.3-0.2,8.6-0.6,12.9-0.6c10.4-0.2,20.8-0.2,31.1-0.3
		c10.6-0.1,21.2-0.2,31.8-0.3c4.9-0.1,9.9-0.3,14.8-0.5c2.4-0.1,4.8,0.1,7.2,0.1c6.5-0.1,12.9-0.2,19.4-0.3c2.9-0.1,5.7-0.3,8.6-0.4
		c9.6-0.4,19.3-0.6,29-0.1c4.6,0.3,9.3,0.1,13.9,0.1c5.1,0,10.2,0,15.3,0c7.7-0.1,15.5-0.4,23.2-0.4c8.5,0,17-0.1,25.4,0.6
		c14.7,1.2,29.4,1.1,44.1,1.2c2.8,0,5.6,0.4,8.4,0.5c5.1,0.2,10.2,0.3,15.3,0.4c2,0,4-0.3,5.9-0.5
		C392.1,213.1,392.4,213.2,392.9,213.3z"/>
	<path d="M125.5,189.1c-0.3-5.9-0.6-11.6-0.8-17.3c-0.1-2.2-0.1-4.5-0.1-6.7c0-0.8,0.2-1.6,1.1-1.6c1,0,1.2,0.8,1.2,1.7
		c0,2.3-0.1,4.6,0,6.9c0.1,3.4,0.4,6.9,0.6,10.3c0.1,1.9,0.1,3.8,0,5.7C127.4,189.8,127,189.9,125.5,189.1z"/>
	<path d="M129.7,178.4c0-3,0-6.1,0-9.1c0-1.1,0.2-2.2,0.4-3.3c0.1-0.4,0.8-0.9,1.1-0.8c0.4,0.1,0.7,0.7,0.9,1.1c0.1,0.2,0,0.5,0,0.7
		c-0.8,6.2-0.4,12.4-0.1,18.7c0.1,1.3,0.1,2.6,0.1,3.8c0,0.5-0.4,0.9-0.7,1.3c-0.5-0.3-1.1-0.6-1.5-1c-0.2-0.2-0.2-0.6-0.2-0.9
		C129.8,185.4,129.8,181.9,129.7,178.4C129.8,178.4,129.8,178.4,129.7,178.4z"/>
	<path d="M120.8,162.9c1.1-0.1,1.6,0.4,1.7,1.2c0.1,0.4,0,0.8,0,1.2c-0.1,7-0.1,14-0.3,21c0,0.9-0.3,1.8-0.4,2.8
		c-1.8-0.3-1.8-1.4-1.8-2.5c0.1-3.6,0.1-7.2,0.2-10.8c0-3.7,0-7.5,0.1-11.2C120.4,164,120.7,163.4,120.8,162.9z"/>
	<path d="M105.5,178.7c1.4,0.9,2.7,1,4.2,0.6c1-0.3,1.5,0.3,1.5,1.3c0,0.7,0.1,1.4,0,2.1c-0.1,0.8-0.2,2-0.7,2.4
		c-1,0.7-2.3,1.2-3.5,1.3c-1.9,0.1-2.8-1-2.9-3c0-0.9-0.1-1.9-0.2-3.1C104.3,179.8,104.9,179.3,105.5,178.7z M106.6,184.4
		c2.5-0.9,2.5-0.9,2-2.8c-0.6,0.1-1.3,0.1-2.2,0.2C106.5,182.7,106.5,183.4,106.6,184.4z"/>
	<path d="M107.2,171.5c-0.4,0.9-0.5,1.6-0.9,2.2c-0.3,0.3-1,0.5-1.4,0.4c-0.4-0.1-0.9-0.9-0.8-1.2c0.4-1.1,0.9-2.2,1.6-3.1
		c0.7-0.9,1.8-0.8,2.8-0.1c2.1,1.4,3,5.2,1.6,7.2c-0.2,0.4-0.9,0.7-1.4,0.6c-0.7-0.1-1.1-0.6-0.8-1.4c0.2-0.5,0.3-1.1,0.4-1.6
		C108.6,173.1,108.6,173.1,107.2,171.5z"/>
	<path d="M143.3,164.1c-0.4-0.3-0.8-0.7-1.3-1.2c0.5-0.4,0.9-1,1.4-1c3.4-0.6,6.9-1.1,10.3-1.5c0.5-0.1,1.3,0.4,1.5,0.8
		c0.3,0.9-0.4,1.3-1.2,1.4c-2.4,0.3-4.9,0.5-7.3,0.8C145.7,163.5,144.7,163.8,143.3,164.1z"/>
	<path d="M142.8,168.6c1.1-0.2,1.8-0.5,2.4-0.4c2.3,0.5,4.6,0.1,6.8-0.4c0.7-0.2,1.4-0.2,2.1-0.1c0.3,0,0.7,0.5,0.7,0.8
		c0,0.3-0.3,0.9-0.5,1c-3.5,0.5-7,1.8-10.5,0.4C143.5,169.7,143.4,169.4,142.8,168.6z"/>
	<path d="M143.2,166.3c0.3-0.3,0.4-0.6,0.6-0.6c2.9-0.5,5.7-1.1,8.6-1.5c1.1-0.2,1.8,0.4,1.7,1.7c-0.1,0.1-0.2,0.3-0.4,0.3
		c-2.5,0.4-5,0.8-7.5,1.1C145.3,167.3,144.1,167.7,143.2,166.3z"/>
	<path d="M153.7,172.9c-3.7,0.3-7,0.3-10.4,0.3c-0.4,0-0.8-0.4-1.1-0.7c0.2-1.3,1-1.2,1.8-1.2c2.3-0.1,4.6-0.2,6.9-0.3
		C151.9,171,152.9,171.2,153.7,172.9z"/>
	<path class="st0" d="M243.2,131.5c-4.5-0.4-9.1-0.9-13.6-1.1c-3.5-0.2-7-0.2-10.5-0.2c-5.8,0-11.5,0.2-17.3-0.1
		c-7.8-0.4-15.7-0.5-23.3-2.4c-6.8-1.7-12.4-5.2-15.6-11.9c-3.1-6.5-4.7-13.2-4.2-20.4c0.6-8.4,4.4-14.9,11.7-18.9
		c4-2.2,8.6-3.3,13.2-4c2.8-0.4,5.5-0.9,8.2-1.5c5-1.3,10.1-1.5,15.2-1.5c7.2,0,14.4-0.3,21.6-0.5c1.7,0,3.3-0.3,5-0.4
		c0.3,0,0.8-0.1,0.9-0.3c0.4-1.9,1.9-1.2,3-1.2c2.6-0.2,5.3-0.4,7.9-0.3c5.5,0.2,11,0.2,16.5,1c4.4,0.6,8.7,1.9,13,3.1
		c3.8,1.1,7.6,2.3,11.4,3.6c2.7,1,5.3,2.2,7.9,3.4c2.8,1.2,5,3.3,6.5,5.8c3.1,5.2,5.5,10.6,5.8,16.8c0.2,4-0.9,7.6-2.9,10.9
		c-4.2,6.6-10,11-17.5,13.4c-7.2,2.3-14.5,3.6-22,4.7c-5.5,0.8-11.1,1.4-16.6,2c-1.4,0.2-2.9,0-4.3,0
		C243.2,131.3,243.2,131.4,243.2,131.5z"/>
	<path class="st0" d="M82.7,268.8c-1.4,1.2-2.6,1.4-4,0.7C79.2,268.2,79.2,268.2,82.7,268.8z"/>
	<path class="st0" d="M82.4,273.2c-0.7,1.9-1.7,2.2-2.9,2.1c-0.2,0-0.4-0.7-0.7-1.3C80.1,273.8,81,273.6,82.4,273.2z"/>
	<path class="st0" d="M356,265.4c1.3,0.5,1.8,1.4,1.8,2.8c0,2.1,0.3,4.1,0.2,6.2c-0.1,1.8-1.3,2.6-3.1,2.6c-0.9,0-1.6-0.4-1.7-1.3
		c-0.2-2.1-0.5-4.3-0.5-6.4C352.7,267.3,353.6,265.8,356,265.4z"/>
	<path class="st0" d="M341.6,275.9c0-2,0-3.6,0-5.4c1.2,0,2.4-0.1,3.6,0c1.5,0.1,2.5,0.9,3,2.3c0.5,1.6-0.3,3.1-2,3.3
		C344.8,276.2,343.3,276,341.6,275.9z"/>
	<path class="st0" d="M341.6,268.2c0-1.1-0.1-2,0-3c0.1-1.3,1.1-1.7,2.1-0.9c1.4,1,1.3,2.9-0.3,3.6
		C342.9,268.1,342.4,268,341.6,268.2z"/>
	<path class="st0" d="M365,264c0.4,0.2,0.7,0.3,0.9,0.3c2.7,0,3.5,1.9,3.9,4c0.3,1.6,0.4,3.3,0.2,5c-0.2,2.4-2.4,3.9-4.4,3
		c-1-0.4-1.9-0.9-1.8-2.2c0.2-2.6,0.3-5.2,0.5-7.9C364.4,265.6,364.7,264.9,365,264z"/>
	<path class="st0" d="M354.9,242.6c2.9,0.1,4.7,2.7,3.9,5.5c-0.5,1.9-1.5,3.3-3.5,3.9c-1.5,0.5-2.1,0.2-2.2-1.3
		c-0.1-2-0.2-4-0.3-5.9C352.7,243.1,353.2,242.6,354.9,242.6z"/>
	<path class="st0" d="M106.6,184.4c-0.1-1-0.1-1.7-0.2-2.6c0.9-0.1,1.6-0.1,2.2-0.2C109,183.5,109,183.5,106.6,184.4z"/>
</g>
</svg>
