<?xml version="1.0" encoding="utf-8"?>
<!-- Generator: Adobe Illustrator 22.0.1, SVG Export Plug-In . SVG Version: 6.00 Build 0)  -->
<svg version="1.1" id="Layer_1" xmlns="http://www.w3.org/2000/svg" xmlns:xlink="http://www.w3.org/1999/xlink" x="0px" y="0px"
	 viewBox="0 0 453.9 186.5" style="enable-background:new 0 0 453.9 186.5;" xml:space="preserve">
<style type="text/css">
	.st0{fill:#E4E4E4;}
</style>
<g>
	<path d="M28.8,129.4c-6.3-0.8-12.3,0.6-18.3-0.3c-0.1,0-0.2-0.4-0.4-0.7c1.4-1,1.3-2.6,1.4-4.1c0.2-3.3,0.4-6.5,0.5-9.8
		c0.1-1.1,0.3-2.1,1.3-2.7c0.3-0.2,0.7-0.4,1.1-0.4c3.3,0,6.7-0.1,10,0c2.2,0,4.4,0.3,7,0.5c0.8-5.5,0.5-11.2,1.2-16.9
		c-1.3-0.9-2.7-0.8-4.1-0.8c-3.3-0.1-6.5-0.1-9.8-0.2c-2.3-0.1-2.5-0.4-2.4-2.8c0.1-2.6,0.5-5.2-0.1-7.9c-4-0.4-8-0.8-12.3-1.2
		c0-1,0-1.9,0-2.8C3.9,77.1,4,75.1,4.2,73c0.3-3.5,0.5-7,0.9-10.5c0.3-2.1,0.8-2.4,2.9-2c4.2,0.9,8.4,0.9,12.6,1
		c4.1,0.1,8.3,0.4,12.4,0.7c1,0.1,2,0.2,3.3,0.2c2.3-18.6,4.6-37,7-55.5c0.1-0.1,0.5-0.1,0.7-0.3c1.9-1.9,4.2-1.5,6.5-1.2
		c7.1,1,14.2,2,21.3,2.9c2.6,0.3,5.2,0.1,7.9,0.1c6,0,12-0.1,18-0.2c4.7,0,9.4,0.1,14.1-0.1c9.3-0.4,18.7-1,28-1.3
		c3.8-0.1,7.7,0.1,11.5,0.2c6.1,0.1,12.3,0.3,18.4,0.1c5.7-0.2,11.5-0.8,17.2-1.1c4.4-0.2,8.8-0.3,13.2-0.3c11.5,0,23,0.1,34.5,0.1
		c3,0,6-0.4,9.1-0.7c5.3-0.4,10.7-1,16-1.1c6.7,0,13.4,0.5,20.1,0.7c5.4,0.1,10.9,0.1,16.3,0.1c7.7,0,15.5-0.2,23.2-0.2
		c6.9,0,13.7,0,20.6,0.2c7.3,0.2,14.5,0.6,21.8,1.1c8.2,0.6,16.4,1.7,24.6,2.1c7.8,0.4,15.7,0.4,23.5,0.5c1,0,2.1-0.2,3.1-0.5
		c5.2-1.2,10.4-1.3,15.7-1.5c1.8-0.1,3.6,0.2,5.5,0.3c0.2-1,0.4-2.1,0.6-3.5c0.9,0.4,1.6,0.7,2.4,1.1c-0.8,1.7-0.6,3.1-0.2,4.7
		c0.6,2,0.8,4.1,1.1,6.1c0.7,7,1.2,14,2,21c0.6,6,1.4,12.1,2.2,18.1c1.1,8,2.2,16,3.3,24c1.1,8.4,2.4,16.8,3.4,25.2
		c0.5,3.6,0.6,7.3,0.9,11c0.6,7.6,1.1,15.1,1.7,22.7c0.2,2.5,0.7,5.1,1,7.6c0.1,0.5,0.2,1,0.2,1.4c-1.3,7.3-1,14.6-1.3,22
		c-0.1,2.8-0.4,5.6-0.5,8.4c-0.1,1.6,0,3.2,0.1,4.7c0.2,2.3-0.8,3.4-3.1,3c-7.2-1.4-14.4-1.6-21.7-1.4c-4.1,0.1-8.1-0.4-12.2-0.7
		c-6.1-0.4-12.1-0.9-18.2-1.1c-7.7-0.3-15.5-0.4-23.2-0.7c-6.1-0.2-12.1-0.3-18.2-0.9c-10.5-1.1-21.1-0.9-31.6-0.8
		c-9.8,0.1-19.5,0.3-29.3,0.5c-8.9,0.2-17.7,0.7-26.6,0.9c-9.2,0.3-18.4,0.3-27.6,0.6c-6.5,0.2-12.9,0.6-19.4,0.8
		c-2.8,0.1-5.6-0.3-8.4-0.3c-9,0.1-18,0.2-27.1,0.3c-2.1,0-4.1-0.3-6.2-0.2c-2.6,0-5.3,0.3-7.9,0.4c-4.8,0.2-9.6,0.4-14.4,0.5
		c-3.9,0.1-7.8,0.3-11.7,0.3c-4.1,0-8.1-0.4-12.2-0.5c-8.6-0.2-17.1-0.3-25.7-0.3c-8.8,0-17.6,0.3-26.4,0.4c-3,0.1-5.9,0.3-8.9,0.2
		c-6.3-0.2-12.6-0.5-18.9-0.7c-5.1-0.2-10.2-0.3-15.3-0.5c-0.9,0-1.7,0.1-2.6,0.2c-3.9,0.5-5.5-0.8-5.8-4.7
		c-0.4-6.6-0.3-13.2-0.6-19.9c-0.2-4.6-0.6-9.2-0.8-13.8c0-0.5,0.1-0.9,0.2-1.4c0.4-3.1,0.8-6.2,1.2-9.3
		C28.8,131.3,28.8,130.4,28.8,129.4z M89.7,142.6c0.8,0.1,1.4,0.2,2,0.2c1.4,0,2.9,0,4.3,0c6.9,0.1,13.9,0.4,20.8,0.4
		c8.6,0.1,17.3,0,25.9-0.1c8.1-0.1,16.1-0.2,24.2-0.4c4.4-0.1,8.8-0.4,13.2-0.6c3.8-0.2,7.6-0.3,11.5-0.3c4.6,0,9.3,0.1,13.9,0.1
		c7.3,0,14.5,0.1,21.8,0.1c4.9,0,9.7-0.2,14.6-0.1c5.3,0.1,10.5,0.5,15.8,0.8c1.9,0.1,3.8,0.1,5.8,0.1c5.2,0.1,10.4,0.4,15.6,0.3
		c8.5-0.1,17.1-0.6,25.6-0.8c2.8-0.1,5.6,0,8.4,0c0.7,0,1.4-0.1,2.3-0.2c0-1.1,0-2.1,0-3c-0.2-7.3-0.3-14.5,0-21.8
		c0.5-10.7,1-21.4,1.2-32c0.2-10.3,0.2-20.6,0.2-30.9c0-1.9,0-3.8,0.1-5.7c0.2-4.1,0.6-8.3,0.8-12.4c0.1-1.8-0.4-3.7-0.2-5.5
		c0.6-7,0.2-14.1-0.2-21.1c-0.1-1-0.4-2-0.6-3.2c-1.3,0-2.4,0-3.5,0c-7.7,0.1-15.5,0.3-23.2,0.3c-6.5,0-13.1-0.2-19.6-0.4
		c-1.6,0-3.2,0-4.8-0.2c-6.2-0.7-12.3,0.1-18.4,0.3c-8.1,0.3-16.3,1-24.4,1.2c-7.3,0.1-14.5-0.5-21.8-0.3
		c-10.2,0.2-20.4,0.9-30.6,1.4c-4,0.2-8,0.3-12,0.3c-5.2,0-10.4-0.4-15.6-0.3c-9.1,0.2-18.2,0.6-27.3,0.9c-4.2,0.1-8.3,0.3-12.4,0.5
		c-0.5,0-1.1,0.1-1.8,0.2c-0.1,0.9-0.3,1.7-0.4,2.6c-0.1,1.4-0.2,2.9-0.3,4.3c-0.4,4.5-0.8,8.9-1.1,13.4
		c-0.8,13.1-1.4,26.2-2.4,39.2c-0.6,8.4-1.9,16.7-2.9,25c-0.8,7.1-1.5,14.3-2.4,21.4c-0.8,7.2-1.7,14.4-1.6,21.7
		c0,0.8-0.2,1.6-0.2,2.4C89.8,141,89.8,141.7,89.7,142.6z M91.9,180.3c0.7,0,1.3,0,1.8,0c7.7-0.2,15.3-0.5,23-0.4
		c10.5,0.1,20.9,0.5,31.4,0.6c6.1,0.1,12.3-0.1,18.4-0.5c5.8-0.4,11.6-0.7,17.5-0.4c2.8,0.1,5.6,0.1,8.4,0.1
		c6.2,0,12.5-0.1,18.7-0.1c5.4,0,10.8,0.2,16.3,0c9.3-0.2,18.7-0.6,28-0.9c2.8-0.1,5.6,0,8.4-0.1c6.8-0.1,13.6-0.3,20.4-0.4
		c1.7,0,3.4,0,5-0.1c3.7-0.2,7.5-0.7,11.2-0.8c8-0.1,16-0.1,24-0.1c1.8,0,3.5,0,5.3,0c4.3-0.1,8.6-0.4,12.9-0.2
		c6.7,0.3,13.4,0.9,20.1,1.3c1.8,0.1,3.7,0,5.5,0.1c6.6,0.2,13.2,0.5,19.8,0.7c0.9,0,1.9,0,3.1,0c0.4-11.6,0.8-22.9,1.3-33.9
		c-2.5,0-4.9,0-7.3,0c-7.4,0.1-14.9,0.4-22.3,0.2c-10.5-0.3-21-1.1-31.6-1.4c-7.1-0.2-14.2-0.1-21.3,0c-8.5,0.1-16.9,0.5-25.4,0.5
		c-9.6,0-19.2-0.3-28.7-0.5c-0.9,0-1.8,0-2.6-0.1c-6.4-0.3-12.8-0.7-19.1-0.8c-6.5-0.1-13.1,0.4-19.6,0.4
		c-8.8,0.1-17.5-0.1-26.3-0.1c-3.2,0-6.4,0.1-9.6,0.2c-8.5,0.3-17,0.7-25.6,1c-5.1,0.2-10.2,0.2-15.3,0.2c-4.4,0-8.8-0.2-13.1-0.2
		c-4.8,0-9.6,0.1-14.4,0.1c-5.3-0.1-10.5-0.3-15.8-0.4c-1.6,0-3.2,0.1-5,0.2C90.1,156.5,91,168.3,91.9,180.3z M318.6,6.5
		c0.1,1,0.1,1.6,0.2,2.2c0.2,4.2,0.7,8.5,0.6,12.7c-0.1,8.6-0.5,17.2-0.8,25.9c-0.2,7-0.4,14.1-0.5,21.1
		c-0.1,13.7,0.1,27.5-0.9,41.2c-0.7,10.4-0.7,20.8,0,31.1c0,0.4,0.1,0.9,0.2,1.5c1.3,0,2.5,0,3.7,0c5.1,0,10.2-0.1,15.3,0.1
		c7.2,0.3,14.3,1,21.5,1.1c10.4,0.2,20.8,0.1,31.1,0c1.2,0,2.3-0.3,3.5-0.4c0.1-0.6,0.1-1,0.1-1.4c-0.1-3.4-0.2-6.9-0.4-10.3
		c-0.1-3.6-0.3-7.2-0.4-10.8c-0.2-4.6-0.5-9.1-0.4-13.7c0.1-8.5,0.5-16.9,0.7-25.4c0.3-11.7,0.8-23.5,1-35.2
		c0.2-8.6,1.2-17.2,0.1-25.9c-0.4-3.3-0.7-6.6-1-10.1c-1.3-0.1-2.4-0.3-3.5-0.3c-2.3-0.2-4.6-0.3-6.9-0.5
		c-6.3-0.5-12.6-1.2-18.8-1.6c-3.9-0.3-7.9,0.1-11.7-0.3c-8.4-1-16.9-1.4-25.3-1.3C323.7,6.3,321.3,6.4,318.6,6.5z M450.1,144.9
		c-0.1-1.4-0.3-2.5-0.4-3.7c-0.6-8.2-1.1-16.4-1.8-24.6c-0.5-6.2-1-12.4-1.7-18.6c-0.5-4.3-1.3-8.5-1.9-12.8
		c-1.2-8.4-2.3-16.8-3.4-25.2c-0.9-6.7-1.7-13.5-2.4-20.2c-0.8-7.9-1.5-15.7-2.4-23.6c-0.2-1.9-0.5-3.8-1-5.7
		c-0.1-0.5-0.7-1.2-1.1-1.3c-2-0.4-4-0.8-5.9-0.7c-4.3,0.2-8.6,0.5-12.9,1.2c-5.4,0.9-10.8,0.9-16.2,0.6c-1.5-0.1-3.1-0.3-4.8,0.4
		c0.1,1.9,0.2,3.7,0.4,5.5c0.5,5.6,1.5,11.1,0.8,16.7c-0.2,1.3-0.1,2.7-0.2,4.1c-0.2,7-0.5,14.1-0.7,21.1c-0.1,4.1-0.4,8.1-0.5,12.2
		c-0.2,6.6-0.2,13.3-0.3,19.9c-0.1,7.7-0.5,15.3-0.4,23c0.2,9.5,0.9,19,1.4,28.5c0,0.4,0.1,0.8,0.2,1.1
		C413.5,143.6,431.6,144.2,450.1,144.9z M87.7,142.4c0.1-3.2,0.1-6.4,0.3-9.6c0.3-4,0.8-7.9,1.2-11.9c1.1-10,2.2-20,3.5-30
		c1.5-11.6,2.8-23.3,3.6-35c0.5-7.4,0.7-14.8,1.2-22.3c0.3-5.4,0.9-10.8,1.3-16.2c0.2-2.3,0-4.7,0-7.1c-9.5,0-18.8,0-28.2,0
		c0,2.7-0.1,5.4,0,8c0.3,9.8-0.8,19.5-2,29.1c-1.2,9.3-2.5,18.7-3.5,28c-1,8.9-1.6,17.8-2.5,26.7c-1,9.9-2.1,19.7-3.2,29.5
		c-0.4,3.6-0.6,7.1-0.8,10.7C68,142.4,77.6,142.4,87.7,142.4z M55.9,142.6c0.2-1.4,0.4-2.5,0.5-3.6c0.6-5.8,1.2-11.6,1.9-17.3
		c0.6-5.2,1.3-10.5,1.8-15.7c1.2-11.9,2.3-23.8,3.6-35.7c1-9.1,2.2-18.2,3.3-27.3c0.5-4,1-7.9,1.2-11.9c0.3-6.4,0.2-12.8,0.3-19.2
		c0-0.5-0.1-1.1-0.2-1.6c-0.5-0.2-1-0.4-1.5-0.5c-3.7-0.5-7.4-1-11.1-1.5c-2.5-0.3-5-0.8-7.6-1c-2.1-0.2-2.8,0.3-3.1,2.4
		c-0.5,3.2-0.8,6.5-1.2,9.7c-1.1,8.6-2.4,17.2-3.4,25.9c-0.6,5-1.1,10-1.6,15c-0.1,0.6-0.3,1.5,0,1.9c0.9,0.9,0.4,1.5-0.2,2.3
		c-0.3,0.4-0.4,1-0.4,1.6c-0.4,3.4-0.7,6.8-1.2,10.2c-0.6,4.7-1.3,9.3-2,14c-0.2,1.4-0.1,2.5,1.7,3.1c-0.9,0.7-1.5,1.1-2.1,1.6
		c0,0.3-0.1,0.5-0.1,0.7c-0.8,7.5-0.5,15-1.9,22.4c-1,5.6-1.6,11.2-2.3,16.8c-0.3,2.4-0.4,4.8-0.6,7c1.7,0.4,3.1,0.9,4.5,0.9
		c3.7,0.1,7.3-0.1,11-0.1C48.7,142.6,52.2,142.6,55.9,142.6z M393.3,158.6c0.2,0.1,0.3,0.1,0.5,0.2c1.7-1.8,3.8-2.5,6.2-2.7
		c0.4,0,0.8-0.2,1.2-0.3c2.4-0.8,4.7-0.3,6.9,0.9c0.6,0.3,1.1,0.8,1.7,1c2.3,0.7,3.1,2.3,3.1,4.5c0,2.3-1.4,4.1-3.5,4.9
		c-0.7,0.2-1.4,0.5-2.1,0.6c-4.2,0.8-8.4,1.8-12.5-0.6c-0.4-0.3-0.9-0.4-1.7-0.8c0,2.3,0,4.3,0,6.3c0,2-0.3,4.1,0,6.1
		c0.6,0.1,0.9,0.2,1.2,0.2c6.1,0.3,12.1,0.7,18.2,1c2.1,0.1,4.3,0.1,6.4,0.4c4.5,0.6,9.1,0.4,13.6,0.4c3.2,0,6.4,0.3,9.5,0.5
		c2,0.1,4,0.5,5.9,0.6c1.4,0.1,1.6-0.3,1.2-1.7c-0.2-0.6-0.4-1.2-0.3-1.8c0.1-2.6,0.3-5.2,0.5-7.8c0.3-5.1,0.5-10.2,0.8-15.3
		c0.1-2.6,0.3-5.2,0.5-7.8c-4.1-1.1-51.4-3.2-56.6-2.4C393.7,149.6,393.5,154.1,393.3,158.6z M58.3,144.1c0.8,12,1.6,23.9,2.4,35.7
		c4.8,1,9.6,0.6,14.3,0.6c4.8,0,9.7,0,14.7,0c-0.3-12.3-1.8-24.1-2.1-36.2C77.7,143.8,68.2,143.9,58.3,144.1z M31.2,178.9
		c9.1,0.3,17.9,0.7,26.7,1c0.8-2.5-0.9-33-2-35.8c-2.9,0-5.9,0-8.8,0c-2.9,0.1-5.7,0.2-8.6,0.3c-2.9,0.1-5.8,0.1-9,0.2
		C30,156.1,30.6,167.4,31.2,178.9z M7,62.8c-1.5,5.5-0.5,11.5-1.5,17.7c9.7,0.7,19,1.4,28.5,2c1.4-5.8,1.5-11.7,2.3-17.7
		c-0.9-0.2-1.6-0.5-2.3-0.5c-4.2-0.3-8.4-0.7-12.6-0.9C16.7,63.2,12,63,7,62.8z M13.9,113.4c-0.3,4.9-0.6,9.5-1,14.1
		c5.6,0,10.8,0,16.2,0c0.6-4.5,1.2-8.7,1.9-13C25.3,112.6,19.7,113.6,13.9,113.4z M18.4,92c4.8,0.2,9.6,0.4,14.4,0.6
		c0.3-2.7,0.6-5.2,0.9-8.1C28.5,84,23.6,83,18.4,83.2C18.4,86.1,18.4,88.8,18.4,92z M400.7,166.2
		C400.7,166.2,400.7,166.2,400.7,166.2c0.8-0.1,1.6-0.1,2.4-0.2c1.9-0.3,3.9-0.7,5.8-1.1c0.8-0.2,1.3-0.8,1.3-1.8
		c0-2.2-2.6-4.4-4.7-4c-0.7,0.1-1.4,0.1-2-0.1c-2.2-0.9-4.1-0.9-6.1,0.6c-1.8,1.3-2.3,2.4-1.7,4.5c0.5,1.5,1.5,2.2,3.5,2.2
		C399.8,166.2,400.3,166.2,400.7,166.2z"/>
	<path class="st0" d="M89.7,142.6c0.1-0.8,0.1-1.5,0.1-2.2c0.1-0.8,0.3-1.6,0.2-2.4c-0.1-7.3,0.7-14.5,1.6-21.7
		c0.8-7.1,1.6-14.3,2.4-21.4c1-8.3,2.3-16.6,2.9-25c1-13.1,1.6-26.1,2.4-39.2c0.3-4.5,0.7-8.9,1.1-13.4c0.1-1.4,0.2-2.9,0.3-4.3
		c0.1-0.9,0.3-1.7,0.4-2.6c0.7-0.1,1.2-0.2,1.8-0.2c4.1-0.2,8.3-0.4,12.4-0.5c9.1-0.3,18.2-0.7,27.3-0.9C147.8,8.6,153,9,158.2,9
		c4,0,8-0.1,12-0.3c10.2-0.4,20.4-1.1,30.6-1.4c7.3-0.2,14.5,0.4,21.8,0.3c8.1-0.2,16.3-0.9,24.4-1.2c6.1-0.2,12.3-1.1,18.4-0.3
		c1.6,0.2,3.2,0.1,4.8,0.2c6.5,0.1,13.1,0.4,19.6,0.4c7.7,0,15.5-0.2,23.2-0.3c1.1,0,2.2,0,3.5,0c0.2,1.2,0.6,2.2,0.6,3.2
		c0.5,7,0.8,14,0.2,21.1c-0.1,1.8,0.3,3.7,0.2,5.5c-0.2,4.1-0.5,8.3-0.8,12.4c-0.1,1.9-0.1,3.8-0.1,5.7c-0.1,10.3,0,20.6-0.2,30.9
		c-0.2,10.7-0.7,21.4-1.2,32c-0.3,7.3-0.2,14.5,0,21.8c0,0.9,0,1.9,0,3c-0.9,0.1-1.6,0.2-2.3,0.2c-2.8,0-5.6-0.1-8.4,0
		c-8.5,0.3-17.1,0.7-25.6,0.8c-5.2,0.1-10.4-0.2-15.6-0.3c-1.9,0-3.8,0-5.8-0.1c-5.3-0.2-10.5-0.6-15.8-0.8
		c-4.9-0.1-9.7,0.1-14.6,0.1c-7.3,0-14.5,0-21.8-0.1c-4.6,0-9.3-0.2-13.9-0.1c-3.8,0-7.6,0.2-11.5,0.3c-4.4,0.2-8.8,0.5-13.2,0.6
		c-8.1,0.2-16.1,0.3-24.2,0.4c-8.6,0.1-17.3,0.1-25.9,0.1c-6.9,0-13.9-0.3-20.8-0.4c-1.4,0-2.9,0-4.3,0
		C91.2,142.7,90.5,142.6,89.7,142.6z M163.4,24.2c-0.2,0.7-0.4,1.2-0.4,1.7c-0.1,2.7-0.1,5.4-0.1,8.1c-0.2,8.3-0.5,16.6-0.8,24.9
		c-0.3,8.4-0.6,16.7-0.9,25.1c-0.2,5.5-0.2,11-0.5,16.5c-0.3,4.7-0.9,9.4-1.3,14.1c-0.1,0.8-0.1,1.7,1,1.9c1.1,0.1,1.3-0.6,1.3-1.5
		c0.3-5,0.8-10,0.9-15.1c0.3-7.8,0.3-15.6,0.6-23.4c0.4-10.3,1.1-20.6,1.4-30.9c0.2-6.4,0-12.8,0-19.1
		C164.5,25.7,164.8,24.8,163.4,24.2z M176.4,24.2c-0.1,2.2-0.3,4.1-0.3,6.1c-0.3,7.8-0.5,15.7-0.7,23.5c-0.5,12.8-1,25.6-1.5,38.3
		c-0.2,5.7-0.4,11.5-0.7,17.2c-0.1,1.6-0.2,3.2-0.2,4.8c0,0.4,0.5,0.8,0.8,1.3c0.4-0.4,1-0.7,1.3-1.2c0.2-0.4,0.1-0.9,0.1-1.4
		c0.2-5.1,0.3-10.2,0.5-15.3c0.2-5,0.6-10,0.8-15.1c0.2-6.3,0.4-12.6,0.5-18.9c0.2-8.2,0.3-16.4,0.6-24.7c0.1-4.4,0.4-8.8,0.8-13.1
		C178.4,24.4,177.8,24.2,176.4,24.2z M260,93.5c0.2,0,0.4-0.1,0.6-0.1c0.1-0.6,0.4-1.3,0.4-1.9c0.1-3.9,0.2-7.8,0.1-11.7
		c0-6.7-0.2-13.4-0.2-20.1c0-5.2,0.3-10.4,0.5-15.6c0-1.3-0.1-1.4-1.8-1.3c-0.1,1.2-0.3,2.3-0.3,3.5c-0.1,7.8-0.2,15.7-0.3,23.5
		c-0.1,6-0.1,12-0.1,18c0,1.4,0.1,2.9,0.3,4.3C259.2,92.5,259.7,93,260,93.5z M253.4,68.3c-0.2,3.4-0.3,7.1-0.5,10.9
		c-0.2,3.7-0.4,7.3-0.6,11c0,0.6-0.3,1.4,0.6,1.5c1,0.2,1.2-0.5,1.3-1.3c0.1-0.6,0.1-1.1,0.1-1.7c0-1.5,0-3,0.1-4.5
		c0.3-5.7,0.6-11.3,0.9-17c0.3-7.3-0.5-14.7,0.5-22c0-0.3,0.1-0.7,0-0.9c-0.1-0.3-0.4-0.6-0.6-0.6c-0.4,0-0.8,0.2-1,0.4
		c-0.2,0.3-0.2,0.8-0.2,1.1c-0.2,3.3-0.4,6.7-0.5,10C253.3,59.5,253.4,63.7,253.4,68.3z M246.1,66.9
		C246.2,66.9,246.2,66.9,246.1,66.9c0.1,1.1,0.1,2.2,0.1,3.3c0,1.1,0,2.2,0,3.3c0,0.7,0.3,1.3,1.1,1.3c0.9,0.1,1.2-0.6,1.2-1.4
		c0-0.2,0-0.5,0-0.7c0-4.1-0.1-8.1-0.1-12.2c0-0.9-0.4-1.4-1.2-1.4c-1,0-1.1,0.7-1,1.5C246.2,62.8,246.1,64.8,246.1,66.9z
		 M243.1,67.5c0.1,0,0.1,0,0.2,0c0-1.9,0-3.8,0-5.7c0-0.8-0.3-1.5-1.2-1.5c-1,0-0.9,0.8-0.9,1.6c0.1,3.8,0.1,7.7,0.1,11.5
		c0,0.6,0,1.1,0.2,1.6c0.1,0.3,0.5,0.7,0.8,0.7c0.3,0,0.8-0.3,1-0.5c0.2-0.4,0.1-0.9,0.1-1.4C243.3,71.6,243.2,69.6,243.1,67.5z"/>
	<path class="st0" d="M91.9,180.3c-0.9-12-1.8-23.8-2.7-35.9c1.8-0.1,3.4-0.3,5-0.2c5.3,0.1,10.5,0.3,15.8,0.4
		c4.8,0.1,9.6-0.1,14.4-0.1c4.4,0,8.8,0.2,13.1,0.2c5.1,0,10.2,0,15.3-0.2c8.5-0.3,17.1-0.7,25.6-1c3.2-0.1,6.4-0.2,9.6-0.2
		c8.8,0,17.5,0.1,26.3,0.1c6.5,0,13.1-0.5,19.6-0.4c6.4,0.1,12.8,0.5,19.1,0.8c0.9,0,1.8,0.1,2.6,0.1c9.6,0.2,19.2,0.5,28.7,0.5
		c8.5,0,16.9-0.4,25.4-0.5c7.1-0.1,14.2-0.3,21.3,0c10.5,0.3,21,1.1,31.6,1.4c7.4,0.2,14.8-0.1,22.3-0.2c2.4,0,4.8,0,7.3,0
		c-0.4,11-0.8,22.3-1.3,33.9c-1.2,0-2.1,0-3.1,0c-6.6-0.2-13.2-0.5-19.8-0.7c-1.8-0.1-3.7,0-5.5-0.1c-6.7-0.4-13.4-1.1-20.1-1.3
		c-4.3-0.2-8.6,0.1-12.9,0.2c-1.8,0-3.5,0-5.3,0c-8,0-16-0.1-24,0.1c-3.7,0.1-7.5,0.6-11.2,0.8c-1.7,0.1-3.4,0.1-5,0.1
		c-6.8,0.1-13.6,0.3-20.4,0.4c-2.8,0.1-5.6,0-8.4,0.1c-9.3,0.3-18.7,0.7-28,0.9c-5.4,0.1-10.8,0-16.3,0c-6.2,0-12.5,0.1-18.7,0.1
		c-2.8,0-5.6,0.1-8.4-0.1c-5.8-0.3-11.6,0-17.5,0.4c-6.1,0.4-12.3,0.5-18.4,0.5c-10.5-0.1-20.9-0.5-31.4-0.6c-7.7,0-15.3,0.3-23,0.4
		C93.1,180.3,92.6,180.3,91.9,180.3z M309.7,153.6c1.2-1.1,2.6-2,3.7-3.3c1.6-1.8,1.1-3.8-1.1-4.8c-1.7-0.8-3.4-0.7-5.1-0.2
		c-3.6,1-3.6,1-3.5,4.6c0.1,2.6,0.1,5.1,0.1,7.7c0,1,0.2,1.9,1.8,2.1c0.1-1.9,0.1-3.6,0.2-5.6c3.3,1,5.9,3.1,9,5
		C314.6,155.2,311.3,155.1,309.7,153.6z M246.8,149.7c0.2,0.1,0.4,0.1,0.7,0.2c0.2,0.9,0.4,1.8,0.6,2.7c0.4,1.6,0.7,3.3,1.2,4.9
		c0.1,0.4,1,0.9,1.5,0.8c0.8-0.1,0.8-0.8,0.6-1.5c-0.5-2.1-0.9-4.2-1.5-6.3c-0.3-1.1-0.8-2.1-1.3-3.1c-0.8-1.4-1.8-1.4-2.8-0.1
		c-0.7,0.9-1.4,1.8-2.3,3c-0.5-1.3-0.9-2.2-1.3-3.2c-0.3-0.7-0.6-1.5-1.5-1.2c-0.5,0.1-1.1,0.7-1.3,1.2c-1.4,3.6-2.7,7.1-4.1,10.7
		c-0.1,0.3-0.2,0.7-0.1,0.9c0.2,0.4,0.5,0.9,0.8,1c0.3,0.1,0.9-0.3,1.1-0.6c0.3-0.4,0.3-0.9,0.4-1.4c0.8-2.7,1.9-5.3,3.3-8.3
		c0.6,1.2,0.9,2,1.4,2.7c0.8,1.3,1.6,1.4,2.6,0.2C245.5,151.5,246.1,150.6,246.8,149.7z M280.1,150.5c0,0.9-0.1,1.6,0,2.3
		c0.1,1.5,0.3,3,0.5,4.5c0.2,1.3,1,1.1,1.9,0.5c-0.1-2.5-1.3-4.9-0.6-7.2c1.4-1,3.1,0.5,4.6-1.2c-0.8-0.4-1.5-1-2.1-0.9
		c-1.8,0.1-3.5-0.5-5.3,0.1c-1.5,0.5-3.4,0.3-5.1,0c-2.9-0.6-5.6,0.6-8.5,0.6c-0.4,0-0.8,0.2-1.5,0.4c1.8,2.5,4,0.2,6,1.1
		c0,0.7,0.1,1.6,0.1,2.4c0.1,1.7,0.2,3.3,0.5,5c0.1,0.4,0.7,0.7,1,1c0.3-0.4,0.7-0.8,0.7-1.2c0.1-0.7-0.2-1.4-0.2-2.1
		c-0.1-1.8-0.2-3.6-0.2-5.3C274.8,150.5,277.3,150.5,280.1,150.5z M174.7,153c-1.2-1.4-2-2.6-3-3.6c-1.1-1.1-1.9-0.8-2.4,0.7
		c-0.5,1.4-0.9,2.7-1.2,4.1c-0.5,1.7-0.9,3.4-1.3,5.1c-0.3,1.2,0.2,1.6,1.5,1.4c0.8-3,1.7-6.1,2.5-9.1c0.2,0,0.3-0.1,0.5-0.1
		c0.5,0.9,1,1.9,1.6,2.8c1.1,1.8,2.2,1.8,3.4,0.1c0.6-0.8,0.8-1.9,2-2.4c0.5,3.1,0.5,6.2,1.7,9c1.8-0.5,1.8-0.6,1.5-2
		c-0.4-2.1-0.8-4.2-1.1-6.4c-0.1-0.9-0.1-1.8-0.4-2.6c-0.2-0.6-0.7-1.4-1.2-1.5c-0.5-0.1-1.2,0.5-1.6,1
		C176.3,150.5,175.5,151.8,174.7,153z M143.8,162.9c0.6,0.2,1.1,0.5,1.6,0.5c2.3,0,4.3-0.9,5.8-2.5c1.6-1.7,3.3-3.8,2.2-6.6
		c-1-2.7-2.9-4.6-5.9-4.8c-1.4-0.1-2.8-0.1-4.1-0.7c-0.1,0-0.3,0.1-0.5,0.2c-0.3,0.8-0.6,1.6-0.9,2.3
		C143.7,153.4,144.7,160,143.8,162.9z M139.9,163.1c0.2-0.1,0.4-0.2,0.6-0.3c-0.1-0.8-0.1-1.7-0.4-2.4c-1.2-2.9-2.5-5.8-3.9-8.7
		c-0.3-0.6-0.7-1.3-1.1-1.8c-0.9-1.1-1.7-1-2.5,0.2c-0.7,1-1.3,2-1.9,3c-1.4,2.4-2.4,4.8-2.7,7.6c0,0.4,0.4,0.9,0.6,1.3
		c0.4-0.3,0.9-0.4,1-0.8c0.4-0.8,0.7-1.7,0.9-2.3c2.2-0.4,4.1-0.7,5.9-1C137.9,159.3,137.6,162.1,139.9,163.1z M104.2,156.6
		c0.8-0.2,1.5-0.4,2.2-0.5c3.3-0.4,4.6,0.3,5.8,3.4c0.1,0.3,0.2,0.6,0.4,0.9c0.3,0.4,0.7,0.7,1,1c0.3-0.5,0.9-0.9,1-1.4
		c0.1-0.6-0.3-1.2-0.6-1.8c-0.6-1.4-1.3-2.7-1.9-4.1c-0.9-1.7-1.7-3.4-2.7-5c-1.1-1.7-1.7-1.7-3-0.1c-2.7,3.4-4,7.5-5.7,11.4
		c1.5,0.8,1.8,0.8,2.2-0.3C103.4,159.1,103.8,157.9,104.2,156.6z M264.6,159.1c-0.1-0.6-0.2-1.2-0.4-1.8c-1.4-3.2-2.8-6.4-4.3-9.6
		c-0.3-0.8-0.9-1.6-1.7-1.3c-0.6,0.2-1.2,1-1.4,1.7c-0.9,2.8-1.7,5.6-2.6,8.5c-0.1,0.4-0.3,0.8-0.2,1.1c0.1,0.4,0.4,0.9,0.8,1.1
		c0.3,0.1,0.9-0.2,1.1-0.6c0.3-0.4,0.4-1,0.6-1.4c1.7-0.5,3.2-0.9,4.8-1.3c0.4,0.9,0.7,1.8,1.1,2.7
		C262.7,159.1,263.3,159.9,264.6,159.1z M205.4,160.3c0.7,0.3,1.3,0.7,1.9,0.9c2.3,1,4.6,0.5,6.4-1.3c2-2,1.6-4.2-0.9-5.2
		c-1-0.4-2.1-0.7-3.2-1.1c-0.9-0.3-1.7-0.8-2.5-1.2c0.6-4,3.8-2.5,6.3-3c-0.5-0.6-0.8-1-1.1-1.2c-2.1-1.1-3.9-0.2-5.6,0.9
		c-2.2,1.4-2.1,4.2,0.2,5.4c1.4,0.7,3,1.2,4.4,1.8c0.5,0.2,1.3,0.7,1.3,1c0,0.6-0.4,1.4-0.9,1.8c-1.1,0.8-2.3,0.9-3.6,0.4
		C207.1,159.3,206.1,159,205.4,160.3z M290.9,155.6c1.5-0.3,2.8-0.5,4.3-0.7c-0.6-3-3.1-0.5-4.3-2c0-0.8,0-1.9,0-3.1
		c0.8-0.1,1.6-0.3,2.4-0.4c0.7-0.1,1.5-0.2,2.4-0.3c-1.5-1.6-5-1.6-6.9-0.5c0,2.9,0,5.7,0,8.5c0,2.6,0.3,2.9,2.8,2.9
		c1.4,0,2.9-0.1,4.3,0c0.9,0,2.2,0.7,2.3-0.7c0.1-1.2-1.3-1.1-2.2-1.2c-0.4,0-0.8,0-1.2,0c-1.3,0-2.5,0-3.8,0
		C290.9,157,290.9,156.3,290.9,155.6z M200.4,149.8c-1.1-1.3-1.2-1.4-1.8-1.3c-1.3,0.1-2.7,0.3-4,0.5c-1.7,0.2-2.7,1.4-3,3
		c-0.2,1.3-0.3,2.7-0.1,4c0.6,4.1,5.3,6.8,8.9,5.2c0.3-0.1,0.6-0.7,0.6-1.1c0-0.2-0.5-0.7-0.8-0.7c-0.6-0.1-1.3,0-1.9,0.1
		c-2.9,0.1-4.9-2.1-5-5.2c-0.1-3,1.3-4.3,4.6-4.4C198.6,149.9,199.4,149.8,200.4,149.8z M123.1,149.6c-2-1.4-2-1.4-4.5-0.8
		c-3.4,0.8-5,4.2-3.3,7.2c0.7,1.2,1.6,2.4,2.6,3.4c1.8,2,4.1,2.2,6.6,1.9c0.3,0,0.9-0.4,0.8-0.6c0-0.4-0.3-1-0.6-1.1
		c-0.6-0.2-1.3-0.2-1.9-0.1c-2.6,0.4-5.8-3-6.1-5.2c-0.4-2.4,0.9-3.8,3.4-3.9C120.9,150.5,121.8,150,123.1,149.6z M161.4,150.4
		c-0.4-1.4-1.1-1.5-1.8-1.4c-0.8,0.1-1.6,0.2-2.4,0.3c-1.1,0.1-1.7,0.6-1.6,1.9c0.1,2.8,0.1,5.6,0.2,8.4c0.1,1.7,0.8,2.4,2.5,2.5
		c1.4,0,2.9,0,4.3-0.1c0.4,0,0.8-0.3,1.5-0.6c-1.9-2-4.4-0.3-6.3-1.6c-0.1-0.6-0.1-1.4-0.1-1.8c0.6-1.2,2.2-0.5,2.1-2.1
		c-0.7-0.2-1.5-0.3-2.5-0.5c0.1-1.4,0.2-2.8,0.2-4.3C159,150.8,160.2,150.6,161.4,150.4z M188.3,160c-0.3-3.4-0.6-6.3-0.9-9.1
		c0-0.5-0.2-1-0.5-1.3c-0.2-0.3-0.8-0.7-1.1-0.6c-0.3,0.1-0.6,0.7-0.6,1.1c0.2,3.3,0.5,6.5,0.8,9.7c0.1,0.8,0,1.8,1.1,1.8
		c1.3,0,1-1.2,1.1-2C188.4,159.6,188.3,159.5,188.3,160z M113.6,169.1c0.1,1.3,0,2.3,0.2,3.2c0.1,0.4,0.6,0.8,0.9,0.8
		c0.3,0,0.9-0.5,0.9-0.8c0-1.8-0.1-3.7-0.3-5.5c0-0.2-0.5-0.6-0.8-0.6c-0.3,0-0.8,0.4-0.8,0.6C113.6,167.7,113.6,168.6,113.6,169.1z
		 M252.8,167.2c-1-0.6-1.5-1-2-1.2c-0.4-0.1-1.4,0.2-1.4,0.3c0.2,1.5,0.4,3.1,0.7,4.6c0,0.2,0.7,0.4,1,0.3c0.3-0.1,0.5-0.5,0.6-0.9
		c0.1-0.4,0-0.8-0.1-1.2C251.2,168.2,251.6,167.5,252.8,167.2z M310.7,170.3c0-2.3,0.1-4-0.1-5.6c0-0.3-0.7-0.8-1.1-0.9
		c-0.2-0.1-0.9,0.6-0.9,0.9c0,1.5,0.1,3,0.4,4.5C309.2,169.5,309.9,169.8,310.7,170.3z M183.1,175.1c0.2-2.4,0.3-4.2,0.4-6.1
		c0-0.3-0.4-0.8-0.7-0.8c-0.4,0-1,0.2-1.2,0.5C180.8,170.1,181.4,173.4,183.1,175.1z M259.8,170.5c-0.1-1.8-0.1-3-0.3-4.1
		c-0.1-0.4-0.8-0.7-1.3-1.1c-0.2,0.4-0.7,0.9-0.7,1.3c0,1.3,0.2,2.5,0.5,3.8c0.1,0.4,0.8,1,1.1,0.9
		C259.5,171.1,259.7,170.5,259.8,170.5z M282.3,166.3c0.1,1.6,0.1,3.1,0.3,4.6c0,0.4,0.7,0.7,1.1,1c0.3-0.4,0.8-0.8,0.8-1.2
		c0.1-1.1,0-2.2-0.1-3.4C284.3,165.9,283.4,165.9,282.3,166.3z M245.1,172.3c0-2,0-3.9,0-5.8c-1.9-0.3-1.9-0.3-1.9,1
		c0,1.1,0,2.2,0.1,3.3C243.5,171.5,243.6,172.4,245.1,172.3z M104.7,173.5c-0.2-1.9-0.2-3.4-0.5-4.9c-0.1-0.4-0.6-1-1-1
		c-0.7-0.1-0.8,0.5-0.8,1.1c0.1,1.2,0.1,2.4,0.2,3.5c0,0.5,0.2,1,0.4,1.3c0.2,0.3,0.8,0.6,1.1,0.5
		C104.5,174.1,104.7,173.5,104.7,173.5z M170,168.7c-0.3,1.7-0.3,3.4,0.3,5.1c0.1,0.2,0.7,0.2,1,0.3c0.8-1.5,0.7-3,0.5-4.5
		C171.6,168.5,171,168.4,170,168.7z M238,172c0.4-0.2,0.8-0.4,0.8-0.5c0-1.6,0.1-3.3-0.2-4.9c-0.1-0.8-1-0.8-1.9-0.1
		C237.3,168.2,236.7,170.3,238,172z M127.1,171C127.1,171,127.1,171,127.1,171c0-0.7,0.1-1.5-0.1-2.1c-0.1-0.4-0.8-0.8-1.2-0.8
		c-0.3,0-0.8,0.7-0.8,1.1c0,1.1,0.1,2.2,0.3,3.3c0.1,0.4,0.7,0.7,1,1.1c0.3-0.4,0.7-0.8,0.9-1.2C127.3,172,127.1,171.5,127.1,171z
		 M215.7,170.1c0,0,0.1,0,0.1,0c-0.1-0.8,0-1.6-0.2-2.4c-0.1-0.3-0.6-0.8-0.8-0.7c-0.4,0.1-0.9,0.5-0.9,0.7c-0.1,1.4,0,2.8,0.1,4.2
		c0,0.3,0.5,0.7,0.8,0.6c0.3,0,0.7-0.4,0.8-0.7C215.7,171.3,215.7,170.7,215.7,170.1z M291.9,171.8c0.9-1.3,1.1-4.4,0.3-5.2
		c-0.3-0.3-1-0.3-1.9-0.6C290.9,168.2,290,170.3,291.9,171.8z M195.1,171.1c-0.3-1-0.5-1.9-0.9-2.7c-0.1-0.3-0.8-0.6-1.1-0.5
		c-0.3,0.1-0.7,0.7-0.7,1.1c0,0.7,0.2,1.4,0.4,2.1c0.2,0.8-0.2,2.2,1.2,2.1C194.5,173.1,194.8,171.8,195.1,171.1z M223.2,168.7
		c0.2,0.9,0.3,1.9,0.5,2.8c0.1,0.3,0.5,0.7,0.8,0.7c0.3,0,0.8-0.4,0.8-0.6c0-1.4-0.2-2.8-0.4-4.2c0-0.2-0.5-0.5-0.7-0.5
		c-0.3,0.1-0.7,0.3-0.9,0.6C223.2,167.8,223.2,168.3,223.2,168.7z M133.2,172c-0.2-1.1-0.2-2.1-0.5-3c-0.1-0.3-0.6-0.6-0.9-0.5
		c-0.3,0-0.8,0.4-0.8,0.7c0,1.3,0.2,2.7,0.4,4c0,0.2,0.6,0.6,0.9,0.6c0.3,0,0.7-0.4,0.8-0.7C133.3,172.7,133.2,172.2,133.2,172z
		 M149.7,169.4c-0.2,0.1-0.4,0.2-0.6,0.3c0.2,1.6,0.3,3.1,0.5,4.7c0,0.3,0.5,0.7,0.8,0.7c0.3,0,0.8-0.4,0.8-0.6
		c-0.1-1.5-0.2-3-0.5-4.5C150.7,169.8,150,169.6,149.7,169.4z M156.7,173.6c-0.3-1.4-0.4-2.4-0.7-3.4c-0.1-0.4-0.8-0.6-1.2-0.9
		c-0.2,0.4-0.7,0.9-0.7,1.3c0,0.9,0.2,1.9,0.4,2.8c0.1,0.7,0.4,1.3,1.2,1.1C156.1,174.6,156.4,173.9,156.7,173.6z M188,173.6
		c0.7-0.2,1-0.2,1.2-0.3c0.6-0.8,0.7-4.1,0.1-4.8c-0.2-0.3-0.7-0.5-1-0.4c-0.3,0.1-0.7,0.5-0.7,0.8
		C187.7,170.4,187.9,171.9,188,173.6z M166.6,171.4c-0.1-0.7,0-1.3-0.2-1.8c-0.2-0.4-0.7-0.7-1-1c-0.3,0.4-0.8,0.7-0.9,1.2
		c-0.1,1,0,2.1,0.1,3.1c0.1,0.3,0.6,0.8,0.9,0.9c0.3,0,0.8-0.4,0.9-0.8C166.6,172.4,166.5,171.8,166.6,171.4z M288.4,171
		c-0.1-1.4-0.2-2.9-0.4-4.3c-0.1-0.3-0.5-0.6-0.8-0.9c-0.3,0.3-0.9,0.6-0.9,0.9c0,1.3,0.1,2.7,0.4,4
		C286.7,171.4,287.4,171.5,288.4,171z M107.5,169.9c0,0.9-0.1,1.5,0,2c0.1,0.4,0.6,0.8,0.9,0.9c0.3,0,0.9-0.5,0.9-0.8
		c0.1-1.1,0.1-2.2,0-3.3c0-0.3-0.7-0.7-1.2-0.8c-0.2,0-0.7,0.6-0.8,0.9C107.2,169.3,107.4,169.8,107.5,169.9z M175.2,173.3
		c1.4-0.1,1.4-1.1,1.3-2c-0.1-1-0.2-2-0.5-2.9c-0.2-0.5-1.5-0.2-1.5,0.4C174.7,170.3,174.1,171.9,175.2,173.3z M296.4,165.8
		c-0.1,0.6-0.4,1.3-0.4,1.9c0,1,0.1,2.1,0.3,3.1c0,0.2,0.6,0.5,0.8,0.4c0.3-0.1,0.8-0.4,0.8-0.7
		C298.2,168.8,298.4,167.2,296.4,165.8z M232.8,171.6c0.2-0.1,0.3-0.3,0.5-0.4c-0.2-1.4-0.4-2.8-0.7-4.1c-0.1-0.3-0.5-0.7-0.8-0.6
		c-0.3,0-0.8,0.4-0.8,0.7c0.1,1.3,0.2,2.6,0.4,3.9C231.6,171.2,232.4,171.3,232.8,171.6z M118.4,168.1c0,1.3,0,2.3,0,3.3
		c0,0.6,0.1,1.4,1,1.4c0.9,0,1.1-0.8,1.1-1.5c-0.1-1-0.2-2-0.3-3.1C119.6,168.1,119.1,168.1,118.4,168.1z M303.8,170
		c0.2-0.1,0.4-0.2,0.6-0.2c0.5-1.4,0.4-2.9-0.2-4.2c-0.1-0.3-0.6-0.6-0.9-0.6c-0.3,0-0.9,0.4-0.9,0.6c0,1,0.1,2,0.4,3
		C303,169.1,303.5,169.5,303.8,170z M266.7,168.1c0-0.6,0-1.3-0.1-1.9c-0.1-0.4-0.6-0.8-0.9-0.9c-0.3,0-0.9,0.5-0.9,0.8
		c-0.1,1,0,2.1,0.1,3.1c0.1,0.3,0.7,0.7,1,0.7c0.3,0,0.7-0.5,0.8-0.9C266.8,168.8,266.7,168.4,266.7,168.1z M161.3,172.2
		c0-0.5,0.1-1.2-0.2-1.6c-0.2-0.4-0.7-0.7-1.1-1c-0.3,0.3-0.7,0.7-0.8,1c-0.1,0.5-0.1,1.1,0,1.7c0,0.9-0.3,2.3,1,2.2
		C161.6,174.5,161.1,173.1,161.3,172.2z M218.1,173.4c1.6-1.8,1.1-3.4,1-4.8c0-0.2-0.4-0.5-0.7-0.6c-0.2,0-0.7,0.1-0.8,0.3
		c-0.2,0.8-0.4,1.7-0.4,2.5C217.4,171.5,217.7,172.2,218.1,173.4z"/>
	<path class="st0" d="M318.6,6.5c2.7-0.1,5.1-0.2,7.4-0.2c8.5,0,16.9,0.3,25.3,1.3c3.9,0.5,7.8,0.1,11.7,0.3
		c6.3,0.4,12.6,1.1,18.8,1.6c2.3,0.2,4.6,0.3,6.9,0.5c1.1,0.1,2.2,0.2,3.5,0.3c0.4,3.5,0.6,6.8,1,10.1c1.1,8.6,0.1,17.2-0.1,25.9
		c-0.2,11.7-0.6,23.5-1,35.2c-0.2,8.5-0.6,16.9-0.7,25.4c-0.1,4.5,0.2,9.1,0.4,13.7c0.1,3.6,0.3,7.2,0.4,10.8
		c0.1,3.4,0.3,6.9,0.4,10.3c0,0.4-0.1,0.8-0.1,1.4c-1.2,0.1-2.4,0.4-3.5,0.4c-10.4,0-20.8,0.2-31.1,0c-7.2-0.1-14.3-0.9-21.5-1.1
		c-5.1-0.2-10.2-0.1-15.3-0.1c-1.2,0-2.4,0-3.7,0c-0.1-0.6-0.2-1.1-0.2-1.5c-0.7-10.4-0.7-20.8,0-31.1c1-13.7,0.8-27.5,0.9-41.2
		c0.1-7,0.3-14.1,0.5-21.1c0.2-8.6,0.7-17.2,0.8-25.9c0.1-4.2-0.4-8.5-0.6-12.7C318.7,8.1,318.7,7.4,318.6,6.5z M387.7,104
		c-3,0.2-6,0.3-9,0.5c-1.4,0.1-2.8,0.5-4.3,0.6c-5.5,0.6-10.9,1.1-16.4,1.7c-3.9,0.5-7.9,1-11.8,1.6c-0.5,0.1-1,0.5-1.7,0.8
		c2.7,2.5,5.5,4.2,8.8,4.9c4.2,0.9,8.4,1.6,12.7,2.5c1.7,0.3,3.4,0.5,5.2,2c-1.4,0.5-2.6,1-3.8,1.4c-0.8,0.3-1.5,0.4-2.3,0.6
		c-4.3,1.2-8.5,2.5-12.9,3.7c-1.8,0.5-3.6,0.6-5.4,1c-0.4,0.1-0.8,0.6-1.2,0.9c0.4,0.3,0.7,0.8,1.1,1c1,0.3,2,0.4,3,0.6
		c7.4,1.5,14.8,3,22.4,4c4.9,0.6,9.7,1.9,14.5,2.9c0.8,0.2,1.2-0.1,1.4-1.2c-0.8-0.4-1.6-0.9-2.4-1.1c-3.8-0.7-7.7-1.4-11.5-2
		c-4.2-0.7-8.4-1.1-12.5-1.8c-2.4-0.4-4.8-1-7.3-1.5c-0.9-0.2-1.8-0.3-2.7-0.9c3.5-1,6.7-2,9.9-2.9c3.2-1,6.4-2,9.5-3
		c0.9-0.3,2-0.4,2-1.7c0-1.3-1.1-1.7-1.9-2.2c-0.6-0.3-1.2-0.5-1.8-0.7c-1.8-0.4-3.6-0.6-5.4-1c-4.2-0.9-8.4-1.9-12.6-3
		c-0.9-0.2-1.7-0.9-2.8-1.6c1.1-0.3,1.7-0.5,2.4-0.6c6.2-0.9,12.3-1.9,18.5-2.5c5.3-0.5,10.7-0.5,16-0.7c0.4,0,0.8-0.1,1.2-0.2
		C387.7,106,387.9,105.3,387.7,104z M367.3,26.3c-0.5-0.5-0.8-0.9-1.1-1.2c-2.2-2.2-4.7-3.8-7.7-4.6c-4-1.1-7.1,0.7-8.3,4.6
		c-0.4,1.2-0.7,2.5-1,3.7c-0.4,2-0.2,2.5,1.9,2.4c3.6-0.1,7.1-0.4,10.7-0.7c0.7,0,1.4-0.2,2.1-0.3c6.3,0,12.6,0,18.9,0
		c1.7,0,3.3-0.2,5-0.4c0.3,0,0.6-0.6,0.9-0.9c-0.4-0.2-0.7-0.7-1.1-0.7c-1.2,0.1-2.4,0.4-3.6,0.4c-4.8,0-9.6-0.2-14.4-0.3
		c-0.3,0-0.7-0.2-1.1-0.3c1.9-2.5,4.5-3.7,7-4.9c3.7-1.7,7.4-3.3,11.2-4.8c0.7-0.3,1.3-0.5,1-1.3c-0.3-1-1.1-0.7-1.8-0.4
		c-1.1,0.5-2.1,1.1-3.3,1.5C377.4,20.3,372.1,22.7,367.3,26.3z M388.5,85.8c0-0.2,0.1-0.4,0.1-0.6c-1.1-1.1-2.6-1.1-4.1-0.9
		c-4.5,0.5-9,1.1-13.5,1.7c-3.3,0.5-6.6,1-9.9,1.8c-4.9,1.2-9.7,2.6-14.5,3.9c-0.3,0.1-0.7,0.5-0.7,0.8c0,0.3,0.2,0.8,0.4,1
		c0.7,0.4,1.4,0.8,2.2,1c5.4,1.2,10.7,2.3,16.1,3.5c5.2,1.1,10.4,2.3,15.7,3.3c1.9,0.4,3.9,0.5,5.9,0.6c0.1,0,0.2-0.2,0.5-0.4
		c-0.2-0.3-0.4-0.9-0.8-1c-0.9-0.3-1.8-0.5-2.8-0.7c-3.6-0.6-7.2-1.3-11-1.9c0-3.6,0-6.9,0-10.4c2.7-0.4,5.4-0.9,8.1-1.1
		C383,86.1,385.8,86,388.5,85.8z M348.1,48.3c3.1-0.1,5.8-0.3,8.4-0.3c9-0.1,18,0.3,27,1c0.9,0.1,1.8,0.2,2.6,0.1
		c1.6-0.1,1.8-0.6,1.6-2.2c-0.2-1.8-0.5-3.6-0.5-5.4c-0.1-1.7,0.1-3.5,0.1-5.3c0-0.4-0.6-1-1-1c-0.4,0-0.9,0.5-1.2,0.9
		c-0.1,0.2,0.1,0.6,0.1,0.9c0,3.3,0,6.7,0,10c-11.9-0.3-23.6-0.5-35.7-0.8c0.1-3.1,0.3-6.3,0.4-9.4c0-0.4,0.3-0.8,0.2-1.2
		c-0.1-0.5-0.5-0.8-0.8-1.3c-0.4,0.3-0.9,0.6-1.2,1c-0.2,0.3-0.2,0.8-0.3,1.2c-0.2,3.3-0.3,6.5-0.4,9.8
		C347.6,47,347.9,47.7,348.1,48.3z M388.3,75c-6.7-0.1-13.1,1-19.6,1c-6.6,0-13.2-0.3-19.8-0.5c-0.2-0.8-0.4-1.4-0.4-2
		c0-1,0.2-1.9,0.2-2.9c0-0.3-0.4-0.9-0.6-0.9c-0.4,0-0.9,0.3-1.1,0.6c-0.2,0.4-0.2,0.9-0.2,1.4c0,1.8,0.1,3.7,0.1,5.5
		c0,1.5-0.1,3-0.1,4.5c0,0.7,0.1,1.5,1,1.6c1.1,0.1,1-0.8,1.1-1.5c0.1-1.3,0.1-2.5,0.2-3.8c1.4-0.9,2.8-0.8,4.2-0.8
		c6.2,0.1,12.4,0.6,18.6,0.1c4.8-0.4,9.7-0.4,14.6-0.6C387.4,76.8,388.1,76.7,388.3,75z M348.8,59.9c2.7,0,5.3-0.1,7.8-0.1
		c1,0,2.1,0.2,3.1,0.1c4.9-0.3,9.7-0.7,14.6-0.9c4.1-0.1,8.1-0.2,12.1-0.9c0.8-0.1,2.1,0.4,1.9-1c-0.2-1.3-1.5-0.6-2.2-0.5
		c-7.4,0.5-14.8,1.1-22.2,1.5c-3.9,0.2-7.8,0-11.7,0c-1.1,0-2.2,0-3.5,0c0-1.8,0-3.3,0-4.8c-1.4-0.2-1.8,0.3-1.9,1.4
		c0,1.4-0.1,2.9-0.2,4.3c-0.1,1.8-0.2,3.7-0.2,5.5c0,0.8,0.3,1.4,1.2,1.4c0.9,0,0.9-0.7,1-1.4C348.7,63,348.8,61.6,348.8,59.9z
		 M332.9,61.2c-1.5-0.8-2.7-1.5-4.3-2.4c3.9-1.3,7.6-0.3,11-0.7c0.2-1.5-0.5-1.8-1.5-1.8c-4.8,0.3-9.7,0.6-14.4,0.9
		c-0.6,1.5,0.4,1.8,1.2,2.1c1.5,0.7,3,1.3,4.6,2c-2.3,2-5.2,2.7-7,5.1c0.5,0.3,0.8,0.7,1.3,0.8c1.5,0.3,3.1,0.7,4.7,0.9
		c3.3,0.2,6.7-0.5,10,0.4c0.3,0.1,0.7-0.2,1.5-0.6c-0.8-0.5-1.2-1-1.7-1.1c-1.4-0.3-2.8-0.5-4.2-0.5c-2.1-0.1-4.2,0-6.2-0.1
		c-0.5,0-1-0.3-1.7-0.5C328.1,63.8,330.9,63.4,332.9,61.2z M321,95c1.4,0.8,2.8,0.6,4.2,0.4c3.9-0.5,7.7-1,11.6-1.3
		c1.8-0.2,2.7-0.9,2.4-2.7c-0.2-1.2-0.6-2.3-1.2-3.3c-0.4-0.6-1.2-1-1.9-1.1c-2.4-0.4-4.9-0.6-7.3-1c-2.1-0.3-3.9,0.4-5.7,1.4
		c-0.6,0.4-1,1.2-1.2,1.9C321.6,91.2,321.4,93,321,95z M338.8,135.7c-1.6-0.7-3.1-1.5-4.6-2.1c-1.9-0.6-3.6-1.2-3.2-3.8
		c0.1-0.5-0.3-1-0.5-1.6c-0.2-0.7-0.3-1.5-0.4-2.3c0.6-0.3,1.1-0.6,1.5-0.7c2.1-0.5,4.2-1,6.2-1.6c0.8-0.2,1.8-0.2,1.8-1.6
		c-0.9,0-1.8-0.1-2.6,0c-1.3,0.3-2.6,0.8-3.9,1.2c-1.4,0.4-2.7,1-3.7,0.2c-1.2,0.8-2.2,1.6-3.2,2.1c-1.6,0.8-3.2,1.3-4.8,2.1
		c-0.7,0.3-1.6,0.4-1.6,1.7c3.3,1.4,6.6,2.9,9.9,4.3c2.1,0.9,4.3,1.7,6.4,2.5C337,136.5,337.8,137.3,338.8,135.7z M322.1,73.8
		c-0.3,2.8-0.2,5.3,0.1,7.9c1.4,0,2.5,0,3.6,0c3.5,0.1,7,0.3,10.5,0.4c1.3,0,2.7,0,3.8-1.4c-1.3-2.7-2-5.5-1.8-8.5
		c0-0.7,0-1.4-0.9-1.4c-0.8,0-1,0.6-1,1.3c0.1,1.9,0.3,3.8,0.5,5.7c0.1,0.7,0.3,1.4,0.5,2.3c-1.6,0-2.9,0-4.2,0
		c-1.1-1.7,0.5-3.8-1-5.7c-1.4,2-0.9,4.2-1.7,6.5c-2.3-0.4-4.5-0.8-6.8-1.2c-0.1-1.2-0.1-2.1-0.2-3.1
		C323.3,75.7,324,74.5,322.1,73.8z M320.4,102.6c0.4,0.5,0.5,0.8,0.8,0.9c3.1,1.3,6.1,2.7,9.6,3c2.3,0.2,4.6,0.6,6.9,0.9
		c0.7,0.1,1.6,0.4,2-0.9c-2-1.6-4.8-0.8-6.9-2.1c0-1.5,0-2.8,0-4c2.1-1.8,5,0.7,7.1-1.5c-0.3-0.3-0.6-0.7-0.8-0.7
		c-1.6-0.1-3.2-0.3-4.7-0.1c-2.4,0.4-4.9,1-7.2,1.7C324.9,100.7,322.5,101,320.4,102.6z M341.1,30.7c1.4-0.5,1.4-0.5,1.6-1
		c1-2.7,0.3-4.9-1.9-6.8c-2.6-2.4-6.8-1.7-8.2,1.5c-0.4,0.9-0.6,2-1,2.9c-0.4,0.9-0.7,2.3-1.9,2.2c-0.9-0.1-1.7-1-2.4-1.7
		c-0.4-0.4-0.7-1.1-0.7-1.7c-0.1-1.2,0-2.5,0-3.7c-1.6-0.5-1.8-0.4-2.1,0.8c-0.7,2.5,0.6,5.7,2.9,7.4c2.2,1.6,4.3,1.1,5.5-1.3
		c0.6-1.2,1-2.5,1.5-3.8c0.7-1.7,2.3-2.4,3.9-1.9c1.5,0.5,2.8,2.4,2.8,4.1C341.1,28.7,341.1,29.7,341.1,30.7z M341.5,33.5
		c-0.3,0.7-0.6,1-0.7,1.5c-0.5,1.7-0.9,3.4-1.4,5.1c-0.4,1.6-1.5,2.7-3,3.1c-1.1,0.3-2.3,0.5-3.5,0.6c-2.2,0.1-3.9-1.1-5.5-2.5
		c-1.4-1.3-1.1-2.9-0.7-4.5c0-0.1-0.1-0.3-0.2-0.5c-0.8-0.3-1.4-0.2-1.9,0.7c-0.9,1.8-0.6,3.6,1,5.3c1.5,1.6,3.3,2.8,5.5,3.2
		c3.3,0.5,6.7,0.4,9-2.5c1.9-2.4,2.7-5.4,2-8.6C342.1,34.1,341.9,33.9,341.5,33.5z M323.4,113c-0.1-0.1-0.3-0.3-0.4-0.4
		c-0.4,0.2-1.1,0.3-1.3,0.6c-1.5,2.3,0.3,7.1,3,7.8c1.5,0.4,3.1,0.3,4.7,0.4c2.4,0.2,4.5-0.5,6.5-2c4.3-3.2,4.5-3.4,2.5-8.3
		c-0.1-0.3-0.5-0.5-1.1-1.1c0,1.1-0.2,1.8,0,2.3c1,3.1-0.5,4.9-3.1,6.2c-0.8,0.4-1.5,0.9-2.4,1c-1.6,0.2-3.2,0.3-4.8,0.3
		c-1.5,0-2.6-0.6-3.4-1.8C322.6,116.4,322.9,114.7,323.4,113z M340.7,49.7c-0.5-1.7-1.5-1.6-2.5-1.6c-4.1,0.1-8.1,0.2-12.2,0.3
		c-0.7,0-1.3,0-2.1,0c-0.1,1.7,0.8,1.9,1.8,1.9c4.3,0,8.6,0,13,0C339.4,50.3,340,50,340.7,49.7z M368.9,45.4
		c-0.2-2.5-0.3-4.7-0.5-6.8c0-0.3-0.1-0.7-0.2-0.9c-0.2-0.3-0.6-0.8-0.8-0.7c-0.4,0.1-0.8,0.4-1.1,0.7c-0.2,0.3-0.2,0.8-0.2,1.1
		c0.2,1.7,0.4,3.5,0.6,5.2c0.1,0.5,0,1,0.3,1.4c0.3,0.4,0.9,0.7,1.3,0.7C368.6,46.1,368.9,45.5,368.9,45.4z"/>
	<path class="st0" d="M450.1,144.9c-18.4-0.7-36.6-1.4-54.9-2.1c-0.1-0.3-0.2-0.7-0.2-1.1c-0.5-9.5-1.2-19-1.4-28.5
		c-0.2-7.7,0.2-15.3,0.4-23c0.1-6.6,0.2-13.3,0.3-19.9c0.1-4.1,0.3-8.1,0.5-12.2c0.2-7,0.5-14.1,0.7-21.1c0-1.4,0-2.7,0.2-4.1
		c0.7-5.6-0.3-11.2-0.8-16.7c-0.2-1.8-0.3-3.7-0.4-5.5c1.6-0.7,3.2-0.5,4.8-0.4c5.4,0.3,10.8,0.3,16.2-0.6c4.2-0.7,8.6-1,12.9-1.2
		c2-0.1,4,0.3,5.9,0.7c0.5,0.1,1,0.8,1.1,1.3c0.4,1.9,0.8,3.8,1,5.7c0.8,7.9,1.5,15.7,2.4,23.6c0.7,6.8,1.5,13.5,2.4,20.2
		c1.1,8.4,2.2,16.8,3.4,25.2c0.6,4.3,1.4,8.5,1.9,12.8c0.7,6.2,1.2,12.4,1.7,18.6c0.6,8.2,1.2,16.4,1.8,24.6
		C449.8,142.4,449.9,143.6,450.1,144.9z"/>
	<path class="st0" d="M87.7,142.4c-10.1,0-19.7,0-29.3,0c0.3-3.6,0.5-7.2,0.8-10.7c1-9.8,2.2-19.7,3.2-29.5
		c0.9-8.9,1.6-17.8,2.5-26.7c1-9.4,2.3-18.7,3.5-28c1.3-9.7,2.3-19.4,2-29.1c-0.1-2.6,0-5.2,0-8c9.4,0,18.8,0,28.2,0
		c0,2.4,0.1,4.8,0,7.1c-0.4,5.4-0.9,10.8-1.3,16.2c-0.5,7.4-0.6,14.8-1.2,22.3c-0.8,11.7-2,23.4-3.6,35c-1.3,10-2.3,20-3.5,30
		c-0.4,4-0.9,7.9-1.2,11.9C87.8,136,87.8,139.1,87.7,142.4z"/>
	<path class="st0" d="M55.9,142.6c-3.7,0-7.2,0-10.7,0c-3.7,0-7.3,0.2-11,0.1c-1.4,0-2.8-0.5-4.5-0.9c0.2-2.1,0.3-4.6,0.6-7
		c0.7-5.6,1.3-11.3,2.3-16.8c1.3-7.4,1.1-15,1.9-22.4c0-0.2,0.1-0.5,0.1-0.7c0.6-0.5,1.2-0.9,2.1-1.6c-1.7-0.6-1.9-1.7-1.7-3.1
		c0.7-4.7,1.4-9.3,2-14c0.5-3.4,0.8-6.8,1.2-10.2c0.1-0.5,0.1-1.2,0.4-1.6c0.6-0.8,1-1.3,0.2-2.3c-0.3-0.3-0.1-1.2,0-1.9
		c0.5-5,1-10,1.6-15c1.1-8.6,2.3-17.3,3.4-25.9c0.4-3.2,0.7-6.5,1.2-9.7c0.3-2,1-2.6,3.1-2.4c2.5,0.2,5.1,0.7,7.6,1
		c3.7,0.5,7.4,1,11.1,1.5c0.5,0.1,0.9,0.3,1.5,0.5c0.1,0.5,0.2,1.1,0.2,1.6c-0.1,6.4-0.1,12.8-0.3,19.2c-0.2,4-0.7,7.9-1.2,11.9
		C66,52,64.7,61.1,63.8,70.2c-1.3,11.9-2.4,23.8-3.6,35.7c-0.5,5.2-1.2,10.5-1.8,15.7c-0.7,5.8-1.3,11.6-1.9,17.3
		C56.3,140.1,56.1,141.2,55.9,142.6z"/>
	<path class="st0" d="M393.3,158.6c0.2-4.5,0.4-9,0.6-13.5c5.2-0.8,52.6,1.2,56.6,2.4c-0.2,2.6-0.3,5.2-0.5,7.8
		c-0.3,5.1-0.5,10.2-0.8,15.3c-0.1,2.6-0.3,5.2-0.5,7.8c0,0.6,0.2,1.2,0.3,1.8c0.4,1.4,0.2,1.8-1.2,1.7c-2-0.1-4-0.4-5.9-0.6
		c-3.2-0.2-6.4-0.5-9.5-0.5c-4.5,0-9.1,0.2-13.6-0.4c-2.1-0.3-4.3-0.3-6.4-0.4c-6.1-0.3-12.1-0.6-18.2-1c-0.3,0-0.6-0.1-1.2-0.2
		c-0.3-2,0-4.1,0-6.1c0-2,0-4,0-6.3c0.8,0.3,1.3,0.5,1.7,0.8c4.1,2.4,8.3,1.4,12.5,0.6c0.7-0.1,1.4-0.4,2.1-0.6
		c2.2-0.8,3.6-2.6,3.5-4.9c0-2.2-0.8-3.9-3.1-4.5c-0.6-0.2-1.1-0.6-1.7-1c-2.2-1.2-4.4-1.7-6.9-0.9c-0.4,0.1-0.8,0.3-1.2,0.3
		c-2.4,0.1-4.5,0.9-6.2,2.7C393.7,158.8,393.5,158.7,393.3,158.6z"/>
	<path class="st0" d="M58.3,144.1c9.9-0.3,19.4-0.4,29.3,0.1c0.3,12,1.8,23.9,2.1,36.2c-5.1,0-9.9,0-14.7,0c-4.8,0-9.6,0.4-14.3-0.6
		C59.9,168,59.1,156.2,58.3,144.1z"/>
	<path class="st0" d="M31.2,178.9c-0.6-11.5-1.1-22.8-1.7-34.3c3.2-0.1,6.1-0.1,9-0.2c2.9-0.1,5.7-0.3,8.6-0.3c3-0.1,5.9,0,8.8,0
		c1.1,2.8,2.8,33.3,2,35.8C49.1,179.5,40.3,179.2,31.2,178.9z"/>
	<path class="st0" d="M7,62.8c5,0.2,9.7,0.3,14.4,0.6c4.2,0.2,8.4,0.6,12.6,0.9c0.7,0.1,1.4,0.3,2.3,0.5c-0.8,6-0.8,11.9-2.3,17.7
		c-9.5-0.7-18.8-1.4-28.5-2C6.5,74.4,5.6,68.4,7,62.8z"/>
	<path class="st0" d="M13.9,113.4c5.8,0.2,11.4-0.8,17.1,1.1c-0.6,4.3-1.2,8.6-1.9,13c-5.4,0-10.6,0-16.2,0
		C13.3,122.9,13.6,118.2,13.9,113.4z"/>
	<path class="st0" d="M18.4,92c0-3.2,0-5.9,0-8.8c5.2-0.2,10.1,0.8,15.3,1.2c-0.3,2.8-0.6,5.4-0.9,8.1C27.9,92.3,23.2,92.2,18.4,92z
		"/>
	<path class="st0" d="M400.7,166.2c-0.5,0-1,0-1.4,0c-2.1,0-3-0.6-3.5-2.2c-0.6-2.1-0.1-3.1,1.7-4.5c2-1.5,3.9-1.5,6.1-0.6
		c0.6,0.2,1.4,0.2,2,0.1c2.1-0.3,4.7,1.9,4.7,4c0,0.9-0.5,1.6-1.3,1.8c-1.9,0.5-3.9,0.8-5.8,1.1
		C402.3,166.1,401.5,166.1,400.7,166.2C400.7,166.2,400.7,166.2,400.7,166.2z M403.2,164.6c0,0.1,0,0.2,0,0.3
		c1.1-0.1,2.2-0.2,3.3-0.5c0.7-0.2,1.4-0.6,2-1c-0.4-0.7-0.7-1.6-1.3-2.1c-0.5-0.5-1.3-0.8-1.9-0.8c-1.6,0-3.2,0.1-4.7,0.3
		c-0.7,0.1-1.5,0.6-2.1,1.1c-0.7,0.5-1.4,1.2-0.9,2.2c0.5,0.9,1.3,1.1,2.3,1C401,164.9,402.1,164.8,403.2,164.6z"/>
	<path d="M163.4,24.2c1.4,0.5,1.1,1.5,1.1,2.2c0,6.4,0.2,12.8,0,19.1c-0.3,10.3-1,20.6-1.4,30.9c-0.3,7.8-0.3,15.6-0.6,23.4
		c-0.2,5-0.6,10-0.9,15.1c-0.1,0.9-0.3,1.7-1.3,1.5c-1-0.1-1-1-1-1.9c0.4-4.7,1-9.4,1.3-14.1c0.3-5.5,0.3-11,0.5-16.5
		c0.3-8.4,0.6-16.7,0.9-25.1c0.3-8.3,0.5-16.6,0.8-24.9c0.1-2.7,0.1-5.4,0.1-8.1C163,25.4,163.2,24.9,163.4,24.2z"/>
	<path d="M176.4,24.2c1.4,0,2,0.3,1.9,1.5c-0.3,4.4-0.6,8.8-0.8,13.1c-0.3,8.2-0.4,16.4-0.6,24.7c-0.2,6.3-0.3,12.6-0.5,18.9
		c-0.2,5-0.6,10-0.8,15.1c-0.2,5.1-0.3,10.2-0.5,15.3c0,0.5,0.1,1-0.1,1.4c-0.3,0.5-0.8,0.8-1.3,1.2c-0.3-0.4-0.8-0.8-0.8-1.3
		c0-1.6,0.2-3.2,0.2-4.8c0.2-5.7,0.4-11.5,0.7-17.2c0.5-12.8,1-25.6,1.5-38.3c0.3-7.8,0.5-15.7,0.7-23.5
		C176.1,28.3,176.2,26.4,176.4,24.2z"/>
	<path d="M260,93.5c-0.3-0.5-0.8-0.9-0.9-1.4c-0.2-1.4-0.3-2.9-0.3-4.3c0-6,0.1-12,0.1-18c0.1-7.8,0.2-15.7,0.3-23.5
		c0-1.2,0.2-2.4,0.3-3.5c1.7-0.1,1.9,0,1.8,1.3c-0.2,5.2-0.4,10.4-0.5,15.6c0,6.7,0.2,13.4,0.2,20.1c0,3.9-0.1,7.8-0.1,11.7
		c0,0.6-0.3,1.3-0.4,1.9C260.4,93.4,260.2,93.4,260,93.5z"/>
	<path d="M253.4,68.3c0-4.6-0.1-8.8,0-13c0.1-3.3,0.3-6.7,0.5-10c0-0.4,0-0.9,0.2-1.1c0.2-0.3,0.7-0.4,1-0.4c0.2,0,0.5,0.3,0.6,0.6
		c0.1,0.3,0.1,0.6,0,0.9c-1,7.3-0.2,14.7-0.5,22c-0.2,5.7-0.6,11.3-0.9,17c-0.1,1.5-0.1,3-0.1,4.5c0,0.6,0,1.1-0.1,1.7
		c-0.1,0.8-0.4,1.5-1.3,1.3c-0.9-0.2-0.7-0.9-0.6-1.5c0.2-3.7,0.4-7.3,0.6-11C253,75.4,253.2,71.7,253.4,68.3z"/>
	<path d="M246.1,66.9c0-2.1,0-4.1,0-6.2c0-0.8,0.1-1.5,1-1.5c0.8,0,1.2,0.5,1.2,1.4c0,4.1,0.1,8.1,0.1,12.2c0,0.2,0,0.5,0,0.7
		c0,0.8-0.3,1.4-1.2,1.4c-0.8,0-1.1-0.6-1.1-1.3c0-1.1,0-2.2,0-3.3C246.2,69.1,246.2,68,246.1,66.9
		C246.2,66.9,246.2,66.9,246.1,66.9z"/>
	<path d="M243.1,67.5c0.1,2.1,0.2,4.1,0.3,6.2c0,0.5,0.1,1-0.1,1.4c-0.1,0.3-0.6,0.6-1,0.5c-0.3,0-0.7-0.4-0.8-0.7
		c-0.2-0.5-0.2-1.1-0.2-1.6c0-3.8,0-7.7-0.1-11.5c0-0.8,0-1.5,0.9-1.6c0.9,0,1.2,0.7,1.2,1.5c0,1.9,0,3.8,0,5.7
		C243.2,67.5,243.2,67.5,243.1,67.5z"/>
	<path d="M309.7,153.6c1.6,1.5,4.9,1.6,5.1,5.6c-3.2-1.9-5.7-4-9-5c-0.1,1.9-0.1,3.7-0.2,5.6c-1.6-0.2-1.8-1.1-1.8-2.1
		c0-2.6-0.1-5.1-0.1-7.7c-0.1-3.6-0.1-3.6,3.5-4.6c1.7-0.5,3.4-0.6,5.1,0.2c2.2,1,2.8,3,1.1,4.8
		C312.3,151.5,310.9,152.5,309.7,153.6z M305.8,148c0,1.2,0,2.4,0,3.5c2.5,0.3,4.6,0,6-2.1c0.9-1.3,0.5-2.3-1.1-2.5
		C309,146.7,307.4,146.9,305.8,148z"/>
	<path d="M246.8,149.7c-0.7,0.9-1.3,1.8-2,2.6c-1,1.2-1.8,1.1-2.6-0.2c-0.4-0.7-0.8-1.5-1.4-2.7c-1.4,3-2.4,5.6-3.3,8.3
		c-0.1,0.5-0.1,1-0.4,1.4c-0.2,0.3-0.8,0.7-1.1,0.6c-0.3-0.1-0.7-0.6-0.8-1c-0.1-0.2,0-0.6,0.1-0.9c1.3-3.6,2.7-7.2,4.1-10.7
		c0.2-0.5,0.8-1.1,1.3-1.2c0.9-0.2,1.2,0.5,1.5,1.2c0.3,1,0.8,1.9,1.3,3.2c0.9-1.2,1.6-2.1,2.3-3c1-1.3,2-1.3,2.8,0.1
		c0.5,1,1,2,1.3,3.1c0.6,2.1,1,4.2,1.5,6.3c0.2,0.7,0.2,1.4-0.6,1.5c-0.5,0-1.3-0.4-1.5-0.8c-0.5-1.6-0.8-3.2-1.2-4.9
		c-0.2-0.9-0.4-1.8-0.6-2.7C247.2,149.9,247,149.8,246.8,149.7z"/>
	<path d="M280.1,150.5c-2.8,0-5.3,0-8.1,0c0.1,1.7,0.1,3.5,0.2,5.3c0,0.7,0.3,1.4,0.2,2.1c0,0.4-0.5,0.8-0.7,1.2c-0.4-0.3-1-0.6-1-1
		c-0.3-1.6-0.4-3.3-0.5-5c-0.1-0.9-0.1-1.7-0.1-2.4c-2-0.8-4.2,1.5-6-1.1c0.7-0.2,1.1-0.4,1.5-0.4c2.8,0,5.6-1.3,8.5-0.6
		c1.6,0.3,3.6,0.5,5.1,0c1.9-0.6,3.6-0.1,5.3-0.1c0.6,0,1.3,0.5,2.1,0.9c-1.4,1.7-3.2,0.3-4.6,1.2c-0.7,2.4,0.5,4.7,0.6,7.2
		c-0.9,0.5-1.7,0.8-1.9-0.5c-0.3-1.5-0.4-3-0.5-4.5C280,152.1,280.1,151.4,280.1,150.5z"/>
	<path d="M174.7,153c0.9-1.3,1.6-2.5,2.5-3.6c0.4-0.5,1.2-1.1,1.6-1c0.5,0.1,1,0.9,1.2,1.5c0.3,0.8,0.3,1.7,0.4,2.6
		c0.4,2.1,0.7,4.2,1.1,6.4c0.3,1.4,0.2,1.5-1.5,2c-1.2-2.8-1.2-5.8-1.7-9c-1.2,0.5-1.4,1.6-2,2.4c-1.2,1.8-2.3,1.8-3.4-0.1
		c-0.5-0.9-1.1-1.9-1.6-2.8c-0.2,0-0.3,0.1-0.5,0.1c-0.8,3-1.7,6.1-2.5,9.1c-1.3,0.2-1.8-0.2-1.5-1.4c0.4-1.7,0.8-3.4,1.3-5.1
		c0.4-1.4,0.8-2.8,1.2-4.1c0.5-1.5,1.3-1.7,2.4-0.7C172.7,150.4,173.5,151.6,174.7,153z"/>
	<path d="M143.8,162.9c0.9-2.9-0.2-9.5-1.7-11.5c0.3-0.8,0.6-1.6,0.9-2.3c0.2-0.1,0.4-0.2,0.5-0.2c1.3,0.6,2.6,0.6,4.1,0.7
		c3,0.1,4.9,2,5.9,4.8c1.1,2.8-0.6,4.9-2.2,6.6c-1.4,1.5-3.5,2.5-5.8,2.5C145,163.4,144.5,163.1,143.8,162.9z M145,151.6
		c0.5,3.3,1.1,6.5,1.6,9.6c3.4-0.8,5.4-3.4,4.9-5.9C150.9,152.3,148.8,150.9,145,151.6z"/>
	<path d="M139.9,163.1c-2.3-1-2-3.7-3.4-5.3c-1.8,0.3-3.7,0.7-5.9,1c-0.2,0.6-0.5,1.5-0.9,2.3c-0.2,0.3-0.7,0.5-1,0.8
		c-0.2-0.4-0.6-0.9-0.6-1.3c0.3-2.7,1.3-5.2,2.7-7.6c0.6-1,1.3-2,1.9-3c0.8-1.2,1.5-1.3,2.5-0.2c0.5,0.5,0.8,1.2,1.1,1.8
		c1.3,2.9,2.6,5.8,3.9,8.7c0.3,0.7,0.3,1.6,0.4,2.4C140.3,162.9,140.1,163,139.9,163.1z M136,156.1c-0.8-1.7-1.3-2.9-2-4.5
		c-1,1.7-2.5,2.8-2.5,5C133,156.5,134.3,156.3,136,156.1z"/>
	<path d="M104.2,156.6c-0.5,1.3-0.8,2.4-1.3,3.5c-0.5,1.1-0.8,1.2-2.2,0.3c1.7-3.9,3-8,5.7-11.4c1.3-1.6,1.9-1.7,3,0.1
		c1,1.6,1.8,3.3,2.7,5c0.7,1.3,1.3,2.7,1.9,4.1c0.3,0.6,0.6,1.2,0.6,1.8c-0.1,0.5-0.6,0.9-1,1.4c-0.3-0.3-0.7-0.7-1-1
		c-0.2-0.2-0.3-0.6-0.4-0.9c-1.2-3-2.5-3.8-5.8-3.4C105.8,156.2,105.1,156.4,104.2,156.6z M110.1,154.3c-0.8-1.5-1.4-2.7-2.2-4.3
		c-0.9,1.6-1.5,2.7-2.3,4C107.2,154.2,108.4,154.2,110.1,154.3z"/>
	<path d="M264.6,159.1c-1.4,0.7-1.9,0-2.3-1c-0.4-0.9-0.7-1.7-1.1-2.7c-1.6,0.4-3.1,0.9-4.8,1.3c-0.2,0.4-0.2,1-0.6,1.4
		c-0.2,0.3-0.8,0.6-1.1,0.6c-0.3-0.1-0.7-0.6-0.8-1.1c-0.1-0.3,0.1-0.8,0.2-1.1c0.8-2.8,1.6-5.7,2.6-8.5c0.2-0.7,0.8-1.5,1.4-1.7
		c0.9-0.3,1.4,0.6,1.7,1.3c1.4,3.2,2.9,6.4,4.3,9.6C264.4,157.9,264.5,158.5,264.6,159.1z M258.3,149.9c-0.5,1.8-0.8,3.1-1.3,4.9
		c1.4-0.3,2.3-0.5,3.5-0.8C259.7,152.6,259.1,151.5,258.3,149.9z"/>
	<path d="M205.4,160.3c0.8-1.3,1.7-1,2.6-0.7c1.3,0.5,2.6,0.4,3.6-0.4c0.5-0.4,0.9-1.2,0.9-1.8c0-0.3-0.8-0.8-1.3-1
		c-1.5-0.6-3-1.1-4.4-1.8c-2.3-1.2-2.4-4-0.2-5.4c1.7-1.1,3.5-2,5.6-0.9c0.4,0.2,0.6,0.6,1.1,1.2c-2.5,0.5-5.7-1-6.3,3
		c0.8,0.4,1.7,0.9,2.5,1.2c1,0.4,2.1,0.6,3.2,1.1c2.6,1.1,2.9,3.2,0.9,5.2c-1.8,1.8-4,2.2-6.4,1.3
		C206.7,161,206.1,160.7,205.4,160.3z"/>
	<path d="M290.9,155.6c0,0.7,0,1.4,0,2.3c1.3,0,2.5,0,3.8,0c0.4,0,0.8,0,1.2,0c0.9,0.1,2.3,0,2.2,1.2c-0.1,1.4-1.4,0.7-2.3,0.7
		c-1.4,0-2.9,0-4.3,0c-2.5,0.1-2.8-0.3-2.8-2.9c0.1-2.8,0-5.6,0-8.5c1.9-1.1,5.4-1.1,6.9,0.5c-0.9,0.1-1.7,0.2-2.4,0.3
		c-0.8,0.1-1.5,0.2-2.4,0.4c0,1.3,0,2.3,0,3.1c1.2,1.5,3.7-0.9,4.3,2C293.7,155.1,292.4,155.4,290.9,155.6z"/>
	<path d="M200.4,149.8c-1,0-1.7,0.1-2.5,0.1c-3.3,0-4.7,1.3-4.6,4.4c0.1,3.1,2.1,5.3,5,5.2c0.6,0,1.3-0.1,1.9-0.1
		c0.3,0,0.8,0.5,0.8,0.7c0,0.4-0.3,1-0.6,1.1c-3.6,1.5-8.3-1.2-8.9-5.2c-0.2-1.3-0.1-2.7,0.1-4c0.3-1.6,1.2-2.8,3-3
		c1.3-0.2,2.7-0.4,4-0.5C199.2,148.4,199.2,148.4,200.4,149.8z"/>
	<path d="M123.1,149.6c-1.3,0.4-2.1,0.9-3,0.9c-2.5,0-3.8,1.4-3.4,3.9c0.4,2.2,3.5,5.6,6.1,5.2c0.6-0.1,1.3-0.1,1.9,0.1
		c0.3,0.1,0.6,0.7,0.6,1.1c0,0.2-0.5,0.6-0.8,0.6c-2.5,0.3-4.8,0-6.6-1.9c-1-1.1-1.9-2.2-2.6-3.4c-1.7-3-0.1-6.4,3.3-7.2
		C121.1,148.2,121.1,148.2,123.1,149.6z"/>
	<path d="M161.4,150.4c-1.3,0.2-2.4,0.4-3.8,0.6c-0.1,1.4-0.1,2.8-0.2,4.3c1,0.2,1.7,0.4,2.5,0.5c0.1,1.6-1.6,0.9-2.1,2.1
		c0,0.4,0.1,1.1,0.1,1.8c1.9,1.3,4.4-0.4,6.3,1.6c-0.7,0.3-1.1,0.6-1.5,0.6c-1.4,0.1-2.9,0.2-4.3,0.1c-1.7,0-2.5-0.8-2.5-2.5
		c-0.1-2.8,0-5.6-0.2-8.4c-0.1-1.3,0.4-1.7,1.6-1.9c0.8-0.1,1.6-0.3,2.4-0.3C160.4,148.9,161.1,149,161.4,150.4z"/>
	<path d="M188.3,160c0-0.5,0-0.4,0-0.3c-0.1,0.8,0.2,2-1.1,2c-1.1,0-1-1-1.1-1.8c-0.3-3.2-0.6-6.5-0.8-9.7c0-0.4,0.3-1,0.6-1.1
		c0.3-0.1,0.9,0.2,1.1,0.6c0.3,0.3,0.4,0.9,0.5,1.3C187.8,153.8,188,156.6,188.3,160z"/>
	<path d="M113.6,169.1c0-0.5,0-1.4,0.2-2.3c0-0.3,0.5-0.6,0.8-0.6c0.3,0,0.8,0.4,0.8,0.6c0.2,1.8,0.3,3.7,0.3,5.5
		c0,0.3-0.6,0.8-0.9,0.8c-0.3,0-0.9-0.5-0.9-0.8C113.6,171.4,113.6,170.4,113.6,169.1z"/>
	<path d="M252.8,167.2c-1.2,0.4-1.6,1-1.2,2c0.1,0.4,0.2,0.8,0.1,1.2c-0.1,0.3-0.3,0.8-0.6,0.9c-0.3,0.1-1-0.1-1-0.3
		c-0.3-1.5-0.5-3.1-0.7-4.6c0-0.1,0.9-0.4,1.4-0.3C251.3,166.1,251.8,166.6,252.8,167.2z"/>
	<path d="M310.7,170.3c-0.8-0.5-1.6-0.8-1.6-1.2c-0.3-1.5-0.4-3-0.4-4.5c0-0.3,0.6-0.9,0.9-0.9c0.4,0.1,1.1,0.5,1.1,0.9
		C310.8,166.3,310.7,168,310.7,170.3z"/>
	<path d="M183.1,175.1c-1.6-1.7-2.2-5.1-1.4-6.4c0.2-0.3,0.8-0.5,1.2-0.5c0.2,0,0.7,0.5,0.7,0.8
		C183.4,170.9,183.3,172.8,183.1,175.1z"/>
	<path d="M259.8,170.5c0,0.1-0.3,0.7-0.8,0.8c-0.3,0.1-1-0.5-1.1-0.9c-0.3-1.2-0.4-2.5-0.5-3.8c0-0.4,0.5-0.9,0.7-1.3
		c0.4,0.4,1.2,0.6,1.3,1.1C259.7,167.5,259.7,168.7,259.8,170.5z"/>
	<path d="M282.3,166.3c1.1-0.4,2-0.4,2.1,1c0.1,1.1,0.2,2.2,0.1,3.4c0,0.4-0.5,0.8-0.8,1.2c-0.4-0.3-1-0.6-1.1-1
		C282.4,169.4,282.4,167.9,282.3,166.3z"/>
	<path d="M245.1,172.3c-1.5,0.1-1.7-0.8-1.8-1.5c-0.1-1.1-0.2-2.2-0.1-3.3c0-1.3,0-1.3,1.9-1C245.1,168.3,245.1,170.3,245.1,172.3z"
		/>
	<path d="M104.7,173.5c0,0-0.2,0.6-0.5,0.6c-0.3,0.1-0.9-0.2-1.1-0.5c-0.3-0.3-0.4-0.9-0.4-1.3c-0.1-1.2-0.1-2.4-0.2-3.5
		c0-0.6,0.1-1.2,0.8-1.1c0.4,0.1,1,0.6,1,1C104.4,170.1,104.5,171.6,104.7,173.5z"/>
	<path d="M170,168.7c1-0.4,1.6-0.2,1.8,0.9c0.2,1.5,0.3,3-0.5,4.5c-0.4-0.1-0.9-0.1-1-0.3C169.7,172.2,169.7,170.5,170,168.7z"/>
	<path d="M238,172c-1.3-1.7-0.8-3.8-1.3-5.5c0.9-0.7,1.8-0.7,1.9,0.1c0.3,1.6,0.2,3.3,0.2,4.9C238.8,171.6,238.5,171.8,238,172z"/>
	<path d="M127.1,171c0,0.5,0.2,1,0,1.4c-0.1,0.4-0.6,0.8-0.9,1.2c-0.4-0.4-0.9-0.7-1-1.1c-0.2-1.1-0.4-2.2-0.3-3.3
		c0-0.4,0.5-1.1,0.8-1.1c0.4,0,1.1,0.4,1.2,0.8C127.2,169.5,127.1,170.3,127.1,171C127.1,171,127.1,171,127.1,171z"/>
	<path d="M215.7,170.1c0,0.6,0.1,1.3,0,1.9c-0.1,0.3-0.5,0.7-0.8,0.7c-0.3,0-0.8-0.4-0.8-0.6c-0.1-1.4-0.2-2.8-0.1-4.2
		c0-0.3,0.6-0.7,0.9-0.7c0.2,0,0.7,0.4,0.8,0.7c0.2,0.8,0.1,1.6,0.2,2.4C215.7,170.1,215.7,170.1,215.7,170.1z"/>
	<path d="M291.9,171.8c-1.9-1.5-1.1-3.6-1.6-5.8c0.9,0.3,1.6,0.3,1.9,0.6C293,167.4,292.8,170.5,291.9,171.8z"/>
	<path d="M195.1,171.1c-0.3,0.7-0.6,2-1,2c-1.4,0.1-1-1.2-1.2-2.1c-0.2-0.7-0.4-1.4-0.4-2.1c0-0.4,0.3-1,0.7-1.1
		c0.3-0.1,1,0.2,1.1,0.5C194.6,169.2,194.7,170,195.1,171.1z"/>
	<path d="M223.2,168.7c0.1-0.4,0-0.8,0.2-1.2c0.2-0.3,0.5-0.6,0.9-0.6c0.2,0,0.7,0.3,0.7,0.5c0.2,1.4,0.3,2.8,0.4,4.2
		c0,0.2-0.5,0.6-0.8,0.6c-0.3,0-0.7-0.4-0.8-0.7C223.5,170.6,223.4,169.6,223.2,168.7z"/>
	<path d="M133.2,172c0,0.2,0,0.7-0.1,1c-0.1,0.3-0.5,0.7-0.8,0.7c-0.3,0-0.8-0.3-0.9-0.6c-0.2-1.3-0.3-2.7-0.4-4
		c0-0.2,0.5-0.6,0.8-0.7c0.3,0,0.8,0.3,0.9,0.5C133,169.9,133.1,170.9,133.2,172z"/>
	<path d="M149.7,169.4c0.4,0.2,1,0.4,1.1,0.6c0.2,1.5,0.4,3,0.5,4.5c0,0.2-0.5,0.6-0.8,0.6c-0.3,0-0.8-0.4-0.8-0.7
		c-0.2-1.6-0.3-3.1-0.5-4.7C149.3,169.6,149.5,169.5,149.7,169.4z"/>
	<path d="M156.7,173.6c-0.3,0.3-0.6,0.9-1,1c-0.8,0.2-1.1-0.4-1.2-1.1c-0.1-0.9-0.4-1.9-0.4-2.8c0-0.4,0.4-0.9,0.7-1.3
		c0.4,0.3,1.1,0.5,1.2,0.9C156.3,171.2,156.4,172.3,156.7,173.6z"/>
	<path d="M188,173.6c-0.1-1.7-0.3-3.2-0.4-4.6c0-0.3,0.4-0.7,0.7-0.8c0.3-0.1,0.8,0.1,1,0.4c0.6,0.7,0.5,4-0.1,4.8
		C189,173.4,188.7,173.4,188,173.6z"/>
	<path d="M166.6,171.4c0,0.4,0,1-0.2,1.5c-0.1,0.3-0.6,0.8-0.9,0.8c-0.3,0-0.8-0.5-0.9-0.9c-0.2-1-0.2-2-0.1-3.1
		c0-0.4,0.6-0.8,0.9-1.2c0.4,0.3,0.9,0.6,1,1C166.6,170.1,166.5,170.7,166.6,171.4z"/>
	<path d="M288.4,171c-0.9,0.5-1.6,0.4-1.8-0.3c-0.3-1.3-0.3-2.7-0.4-4c0-0.3,0.6-0.6,0.9-0.9c0.3,0.3,0.8,0.6,0.8,0.9
		C288.1,168.1,288.2,169.6,288.4,171z"/>
	<path d="M107.5,169.9c0-0.1-0.2-0.6-0.1-1c0.1-0.4,0.6-1,0.8-0.9c0.4,0.1,1.1,0.5,1.2,0.8c0.1,1.1,0.1,2.2,0,3.3
		c0,0.3-0.6,0.8-0.9,0.8c-0.3,0-0.8-0.5-0.9-0.9C107.4,171.4,107.5,170.8,107.5,169.9z"/>
	<path d="M175.2,173.3c-1.1-1.3-0.5-3-0.7-4.5c-0.1-0.6,1.3-0.9,1.5-0.4c0.4,0.9,0.5,1.9,0.5,2.9
		C176.6,172.2,176.6,173.1,175.2,173.3z"/>
	<path d="M296.4,165.8c2,1.4,1.8,3.1,1.5,4.7c0,0.3-0.5,0.6-0.8,0.7c-0.2,0.1-0.7-0.2-0.8-0.4c-0.2-1-0.3-2-0.3-3.1
		C296,167,296.2,166.4,296.4,165.8z"/>
	<path d="M232.8,171.6c-0.5-0.2-1.2-0.3-1.3-0.6c-0.3-1.3-0.4-2.6-0.4-3.9c0-0.2,0.5-0.7,0.8-0.7c0.3,0,0.7,0.4,0.8,0.6
		c0.3,1.4,0.5,2.8,0.7,4.1C233.2,171.3,233,171.4,232.8,171.6z"/>
	<path d="M118.4,168.1c0.7,0,1.1,0,1.7,0c0.1,1.1,0.3,2.1,0.3,3.1c0,0.8-0.2,1.5-1.1,1.5c-0.9,0-0.9-0.7-1-1.4
		C118.4,170.4,118.4,169.4,118.4,168.1z"/>
	<path d="M303.8,170c-0.3-0.5-0.8-0.9-1-1.4c-0.3-1-0.4-2-0.4-3c0-0.2,0.5-0.6,0.9-0.6c0.3,0,0.8,0.3,0.9,0.6
		c0.6,1.4,0.7,2.8,0.2,4.2C304.2,169.8,304,169.9,303.8,170z"/>
	<path d="M266.7,168.1c0,0.3,0.2,0.7,0,0.9c-0.2,0.4-0.5,0.9-0.8,0.9c-0.3,0-0.9-0.4-1-0.7c-0.2-1-0.2-2-0.1-3.1
		c0-0.3,0.6-0.8,0.9-0.8c0.3,0,0.8,0.5,0.9,0.9C266.7,166.8,266.6,167.5,266.7,168.1z"/>
	<path d="M161.3,172.2c-0.2,0.9,0.3,2.3-1.1,2.3c-1.4,0-1-1.3-1-2.2c0-0.6-0.1-1.1,0-1.7c0.1-0.4,0.5-0.7,0.8-1
		c0.4,0.3,0.9,0.6,1.1,1C161.4,171.1,161.3,171.7,161.3,172.2z"/>
	<path d="M218.1,173.4c-0.4-1.2-0.7-1.8-0.8-2.5c0-0.8,0.2-1.7,0.4-2.5c0-0.2,0.5-0.4,0.8-0.3c0.3,0,0.6,0.3,0.7,0.6
		C219.2,170,219.7,171.5,218.1,173.4z"/>
	<path d="M387.7,104c0.2,1.3,0,2-1.1,2.2c-0.4,0.1-0.8,0.1-1.2,0.2c-5.3,0.2-10.7,0.2-16,0.7c-6.2,0.6-12.3,1.6-18.5,2.5
		c-0.6,0.1-1.2,0.3-2.4,0.6c1.2,0.7,1.9,1.4,2.8,1.6c4.2,1.1,8.4,2,12.6,3c1.8,0.4,3.6,0.6,5.4,1c0.6,0.1,1.2,0.4,1.8,0.7
		c0.9,0.5,2,0.9,1.9,2.2c0,1.3-1.1,1.4-2,1.7c-3.2,1-6.4,2-9.5,3c-3.2,1-6.4,1.9-9.9,2.9c1,0.7,1.9,0.7,2.7,0.9
		c2.4,0.5,4.8,1.1,7.3,1.5c4.2,0.7,8.4,1.2,12.5,1.8c3.9,0.6,7.7,1.3,11.5,2c0.9,0.2,1.7,0.7,2.4,1.1c-0.2,1.1-0.7,1.4-1.4,1.2
		c-4.8-1-9.6-2.2-14.5-2.9c-7.5-1-14.9-2.5-22.4-4c-1-0.2-2.1-0.3-3-0.6c-0.4-0.1-0.8-0.6-1.1-1c0.4-0.3,0.7-0.8,1.2-0.9
		c1.8-0.4,3.6-0.6,5.4-1c4.3-1.2,8.6-2.5,12.9-3.7c0.8-0.2,1.6-0.4,2.3-0.6c1.2-0.4,2.3-0.8,3.8-1.4c-1.8-1.5-3.5-1.7-5.2-2
		c-4.2-0.9-8.5-1.6-12.7-2.5c-3.3-0.7-6.1-2.3-8.8-4.9c0.7-0.3,1.2-0.7,1.7-0.8c3.9-0.6,7.9-1.2,11.8-1.6c5.5-0.6,10.9-1.2,16.4-1.7
		c1.4-0.2,2.8-0.5,4.3-0.6C381.6,104.3,384.6,104.2,387.7,104z"/>
	<path d="M367.3,26.3c4.8-3.6,10.1-6,15.6-8.1c1.1-0.4,2.2-1,3.3-1.5c0.7-0.3,1.5-0.6,1.8,0.4c0.2,0.8-0.4,1-1,1.3
		c-3.8,1.6-7.5,3.1-11.2,4.8c-2.5,1.2-5.1,2.4-7,4.9c0.5,0.1,0.8,0.3,1.1,0.3c4.8,0.1,9.6,0.3,14.4,0.3c1.2,0,2.4-0.4,3.6-0.4
		c0.3,0,0.7,0.4,1.1,0.7c-0.3,0.3-0.6,0.8-0.9,0.9c-1.7,0.2-3.3,0.4-5,0.4c-6.3,0.1-12.6,0-18.9,0c-0.7,0-1.4,0.2-2.1,0.3
		c-3.6,0.2-7.1,0.5-10.7,0.7c-2.1,0.1-2.4-0.4-1.9-2.4c0.3-1.2,0.6-2.5,1-3.7c1.2-3.9,4.3-5.7,8.3-4.6c3,0.8,5.5,2.4,7.7,4.6
		C366.5,25.4,366.8,25.8,367.3,26.3z M351.2,29.2c5.2,0.5,9.9-0.4,14.9-0.7c-1.9-3.5-4.7-5.1-7.9-6.2c-2.6-0.9-5.6,0.6-6.3,2.9
		C351.6,26.4,351.5,27.7,351.2,29.2z"/>
	<path d="M388.5,85.8c-2.7,0.2-5.5,0.3-8.2,0.6c-2.7,0.3-5.3,0.8-8.1,1.1c0,3.4,0,6.7,0,10.4c3.8,0.7,7.4,1.3,11,1.9
		c0.9,0.2,1.9,0.4,2.8,0.7c0.3,0.1,0.5,0.7,0.8,1c-0.3,0.2-0.4,0.4-0.5,0.4c-2-0.2-4-0.3-5.9-0.6c-5.2-1-10.4-2.2-15.7-3.3
		c-5.4-1.1-10.7-2.3-16.1-3.5c-0.8-0.2-1.5-0.6-2.2-1c-0.3-0.2-0.5-0.7-0.4-1c0-0.3,0.4-0.7,0.7-0.8c4.8-1.4,9.6-2.8,14.5-3.9
		c3.2-0.8,6.5-1.3,9.9-1.8c4.5-0.7,9-1.2,13.5-1.7c1.5-0.2,2.9-0.1,4.1,0.9C388.6,85.4,388.6,85.6,388.5,85.8z M351.2,92.7
		c8.1,2.9,16.9,4.8,18.9,4.5c0-3.1,0-6.2,0-9.4C363.2,88,357.3,90.6,351.2,92.7z"/>
	<path d="M348.1,48.3c-0.2-0.7-0.5-1.4-0.5-2c0.1-3.3,0.3-6.5,0.4-9.8c0-0.4,0-0.9,0.3-1.2c0.3-0.4,0.8-0.6,1.2-1
		c0.3,0.4,0.6,0.8,0.8,1.3c0.1,0.3-0.2,0.8-0.2,1.2c-0.2,3.2-0.3,6.3-0.4,9.4c12.1,0.3,23.8,0.5,35.7,0.8c0-3.3,0-6.7,0-10
		c0-0.3-0.2-0.7-0.1-0.9c0.3-0.4,0.8-0.9,1.2-0.9c0.3,0,0.9,0.6,1,1c0.1,1.8-0.2,3.5-0.1,5.3c0.1,1.8,0.3,3.6,0.5,5.4
		c0.2,1.6-0.1,2.1-1.6,2.2c-0.9,0-1.8-0.1-2.6-0.1c-9-0.7-18-1.1-27-1C353.8,48,351.1,48.2,348.1,48.3z"/>
	<path d="M388.3,75c-0.2,1.8-1,1.8-1.8,1.8c-4.9,0.2-9.7,0.2-14.6,0.6c-6.2,0.5-12.4,0-18.6-0.1c-1.4,0-2.9-0.1-4.2,0.8
		c-0.1,1.2-0.1,2.5-0.2,3.8c0,0.7,0,1.6-1.1,1.5c-0.9-0.1-1-0.9-1-1.6c0-1.5,0.1-3,0.1-4.5c0-1.8-0.1-3.7-0.1-5.5c0-0.5,0-1,0.2-1.4
		c0.2-0.3,0.7-0.5,1.1-0.6c0.2,0,0.6,0.5,0.6,0.9c0,1-0.2,1.9-0.2,2.9c0,0.6,0.2,1.2,0.4,2c6.6,0.2,13.2,0.5,19.8,0.5
		C375.2,75.9,381.7,74.9,388.3,75z"/>
	<path d="M348.8,59.9c-0.1,1.7-0.1,3.1-0.2,4.5c0,0.7-0.1,1.3-1,1.4c-1,0-1.2-0.6-1.2-1.4c0-1.8,0.1-3.7,0.2-5.5
		c0.1-1.4,0.2-2.9,0.2-4.3c0-1.1,0.5-1.6,1.9-1.4c0,1.5,0,3.1,0,4.8c1.3,0,2.4,0,3.5,0c3.9,0,7.8,0.2,11.7,0
		c7.4-0.4,14.8-1,22.2-1.5c0.8,0,2-0.7,2.2,0.5c0.2,1.4-1.2,0.9-1.9,1c-4,0.7-8.1,0.8-12.1,0.9c-4.9,0.1-9.7,0.6-14.6,0.9
		c-1,0.1-2.1-0.1-3.1-0.1C354.1,59.8,351.6,59.9,348.8,59.9z"/>
	<path d="M332.9,61.2c-1.9,2.2-4.7,2.7-6.9,4.5c0.8,0.2,1.2,0.5,1.7,0.5c2.1,0.1,4.2,0,6.2,0.1c1.4,0.1,2.9,0.3,4.2,0.5
		c0.5,0.1,0.9,0.6,1.7,1.1c-0.8,0.3-1.2,0.6-1.5,0.6c-3.3-0.9-6.7-0.2-10-0.4c-1.6-0.1-3.1-0.5-4.7-0.9c-0.4-0.1-0.8-0.5-1.3-0.8
		c1.8-2.4,4.7-3.1,7-5.1c-1.6-0.7-3.1-1.4-4.6-2c-0.8-0.4-1.7-0.6-1.2-2.1c4.7-0.3,9.5-0.6,14.4-0.9c1-0.1,1.7,0.3,1.5,1.8
		c-3.5,0.5-7.1-0.6-11,0.7C330.1,59.7,331.4,60.4,332.9,61.2z"/>
	<path d="M321,95c0.3-2.1,0.5-3.9,1-5.7c0.2-0.7,0.6-1.6,1.2-1.9c1.7-1,3.5-1.8,5.7-1.4c2.4,0.4,4.9,0.6,7.3,1
		c0.7,0.1,1.6,0.6,1.9,1.1c0.6,1,1.1,2.2,1.2,3.3c0.3,1.8-0.6,2.5-2.4,2.7c-3.9,0.4-7.8,0.8-11.6,1.3C323.8,95.6,322.5,95.9,321,95z
		 M336.4,89c-3-0.5-5.8-1-8.6-1.4c-1.5-0.2-3.5,0.7-3.9,1.8c-0.5,1.4-0.7,2.9-0.4,4.5c4.6-0.6,9.2-1.1,14-1.7
		C337.1,91.1,336.7,90,336.4,89z"/>
	<path d="M338.8,135.7c-1,1.6-1.9,0.8-2.6,0.5c-2.2-0.8-4.3-1.6-6.4-2.5c-3.3-1.4-6.6-2.9-9.9-4.3c0-1.2,0.9-1.4,1.6-1.7
		c1.6-0.7,3.3-1.3,4.8-2.1c1.1-0.5,2-1.3,3.2-2.1c1,0.8,2.3,0.2,3.7-0.2c1.3-0.4,2.6-0.9,3.9-1.2c0.8-0.2,1.7,0,2.6,0
		c0,1.5-1,1.4-1.8,1.6c-2.1,0.5-4.2,1-6.2,1.6c-0.4,0.1-0.9,0.4-1.5,0.7c0.1,0.8,0.3,1.5,0.4,2.3c0.1,0.5,0.5,1.1,0.5,1.6
		c-0.5,2.6,1.2,3.2,3.2,3.8C335.7,134.2,337.2,135,338.8,135.7z M323.3,128.6c0,0.2,0.1,0.4,0.1,0.6c2,0.9,4,1.8,6.6,2.9
		c-0.6-2.2-1-3.7-1.5-5.6C326.6,127.3,324.9,127.9,323.3,128.6z"/>
	<path d="M322.1,73.8c1.9,0.7,1.2,1.9,1.4,2.8c0.2,0.9,0.1,1.9,0.2,3.1c2.3,0.4,4.5,0.8,6.8,1.2c0.8-2.2,0.4-4.5,1.7-6.5
		c1.5,1.9-0.1,4,1,5.7c1.3,0,2.6,0,4.2,0c-0.2-0.9-0.4-1.6-0.5-2.3c-0.2-1.9-0.4-3.8-0.5-5.7c-0.1-0.7,0.2-1.4,1-1.3
		c0.9,0,0.9,0.7,0.9,1.4c-0.2,3,0.5,5.8,1.8,8.5c-1,1.4-2.4,1.4-3.8,1.4c-3.5-0.1-7-0.2-10.5-0.4c-1.1,0-2.2,0-3.6,0
		C321.9,79.1,321.8,76.6,322.1,73.8z"/>
	<path d="M320.4,102.6c2.1-1.7,4.4-2,6.6-2.7c2.3-0.8,4.8-1.4,7.2-1.7c1.5-0.2,3.1,0,4.7,0.1c0.2,0,0.4,0.4,0.8,0.7
		c-2.1,2.2-5-0.3-7.1,1.5c0,1.2,0,2.6,0,4c2.1,1.2,4.9,0.5,6.9,2.1c-0.3,1.2-1.2,0.9-2,0.9c-2.3-0.3-4.6-0.7-6.9-0.9
		c-3.4-0.3-6.5-1.7-9.6-3C320.9,103.5,320.8,103.1,320.4,102.6z M330.7,104.6c0.2-1.4,0.5-2.6,0.8-4.4c-2.6,0.8-4.8,1.5-6.9,2.2
		c0,0.2,0,0.4,0,0.6C326.3,103.9,328.2,104.6,330.7,104.6z"/>
	<path d="M341.1,30.7c0-1.1,0-2.1,0-3.1c0-1.7-1.3-3.5-2.8-4.1c-1.6-0.5-3.2,0.2-3.9,1.9c-0.5,1.2-0.9,2.6-1.5,3.8
		c-1.2,2.4-3.4,2.8-5.5,1.3c-2.3-1.6-3.6-4.9-2.9-7.4c0.3-1.2,0.5-1.2,2.1-0.8c0,1.2-0.1,2.5,0,3.7c0.1,0.6,0.3,1.3,0.7,1.7
		c0.7,0.7,1.6,1.6,2.4,1.7c1.2,0.1,1.5-1.3,1.9-2.2c0.4-0.9,0.6-2,1-2.9c1.4-3.2,5.6-3.9,8.2-1.5c2.2,2,2.9,4.1,1.9,6.8
		C342.5,30.3,342.5,30.3,341.1,30.7z"/>
	<path d="M341.5,33.5c0.4,0.5,0.7,0.6,0.7,0.8c0.6,3.2-0.1,6.1-2,8.6c-2.3,2.9-5.7,2.9-9,2.5c-2.2-0.3-4-1.6-5.5-3.2
		c-1.6-1.6-1.8-3.5-1-5.3c0.5-0.9,1.1-1,1.9-0.7c0.1,0.3,0.2,0.4,0.2,0.5c-0.4,1.6-0.7,3.2,0.7,4.5c1.5,1.5,3.2,2.7,5.5,2.5
		c1.2-0.1,2.4-0.3,3.5-0.6c1.6-0.4,2.6-1.5,3-3.1c0.5-1.7,0.9-3.4,1.4-5.1C340.9,34.5,341.1,34.1,341.5,33.5z"/>
	<path d="M323.4,113c-0.5,1.7-0.8,3.4,0.3,5.1c0.8,1.3,1.9,1.9,3.4,1.8c1.6-0.1,3.2-0.1,4.8-0.3c0.8-0.1,1.6-0.6,2.4-1
		c2.6-1.3,4.1-3.1,3.1-6.2c-0.2-0.5,0-1.2,0-2.3c0.7,0.6,1,0.8,1.1,1.1c1.9,5,1.8,5.1-2.5,8.3c-2,1.4-4,2.2-6.5,2
		c-1.6-0.1-3.2,0-4.7-0.4c-2.7-0.7-4.4-5.5-3-7.8c0.2-0.3,0.8-0.4,1.3-0.6C323.1,112.7,323.2,112.8,323.4,113z"/>
	<path d="M340.7,49.7c-0.7,0.2-1.4,0.6-2,0.6c-4.3,0-8.6,0-13,0c-1,0-1.9-0.2-1.8-1.9c0.7,0,1.4,0,2.1,0c4.1-0.1,8.1-0.2,12.2-0.3
		C339.2,48.1,340.2,48,340.7,49.7z"/>
	<path d="M368.9,45.4c0,0.1-0.3,0.7-0.6,0.7c-0.5,0-1-0.3-1.3-0.7c-0.3-0.3-0.2-0.9-0.3-1.4c-0.2-1.7-0.4-3.5-0.6-5.2
		c0-0.4,0-0.9,0.2-1.1c0.2-0.3,0.7-0.7,1.1-0.7c0.2,0,0.6,0.4,0.8,0.7c0.2,0.2,0.2,0.6,0.2,0.9C368.6,40.8,368.8,42.9,368.9,45.4z"
		/>
	<path d="M403.2,164.6c-1.1,0.2-2.2,0.4-3.3,0.5c-0.9,0.1-1.8,0-2.3-1c-0.5-1,0.2-1.7,0.9-2.2c0.6-0.5,1.3-1,2.1-1.1
		c1.6-0.2,3.1-0.3,4.7-0.3c0.7,0,1.5,0.3,1.9,0.8c0.6,0.6,0.9,1.4,1.3,2.1c-0.7,0.3-1.3,0.8-2,1c-1.1,0.3-2.2,0.3-3.3,0.5
		C403.2,164.8,403.2,164.7,403.2,164.6z M400.3,162.8c0,0.2,0.1,0.3,0.1,0.5c1.6-0.4,3.3,0.3,4.7-0.8
		C403.5,162.5,401.9,162.7,400.3,162.8z"/>
	<path class="st0" d="M305.8,148c1.6-1.1,3.2-1.3,4.9-1.1c1.6,0.2,2,1.2,1.1,2.5c-1.4,2.2-3.5,2.4-6,2.1
		C305.8,150.4,305.8,149.3,305.8,148z"/>
	<path class="st0" d="M145,151.6c3.7-0.7,5.9,0.7,6.5,3.7c0.5,2.6-1.5,5.1-4.9,5.9C146.1,158.1,145.6,154.9,145,151.6z"/>
	<path class="st0" d="M136,156.1c-1.7,0.2-3,0.4-4.5,0.6c0-2.2,1.5-3.3,2.5-5C134.7,153.2,135.3,154.4,136,156.1z"/>
	<path class="st0" d="M110.1,154.3c-1.6-0.1-2.9-0.2-4.5-0.3c0.8-1.3,1.4-2.4,2.3-4C108.7,151.7,109.3,152.8,110.1,154.3z"/>
	<path class="st0" d="M258.3,149.9c0.9,1.5,1.5,2.6,2.2,4c-1.2,0.3-2.2,0.5-3.5,0.8C257.4,153,257.8,151.7,258.3,149.9z"/>
	<path class="st0" d="M351.2,29.2c0.3-1.5,0.4-2.8,0.7-4c0.7-2.4,3.6-3.8,6.3-2.9c3.2,1.1,6.1,2.8,7.9,6.2
		C361.2,28.8,356.4,29.6,351.2,29.2z"/>
	<path class="st0" d="M351.2,92.7c6.1-2.1,12-4.7,18.9-4.9c0,3.2,0,6.3,0,9.4C368.1,97.5,359.3,95.5,351.2,92.7z"/>
	<path class="st0" d="M336.4,89c0.4,1.1,0.7,2.1,1.1,3.2c-4.8,0.6-9.4,1.1-14,1.7c-0.3-1.6,0-3.1,0.4-4.5c0.4-1.1,2.4-2,3.9-1.8
		C330.6,87.9,333.4,88.5,336.4,89z"/>
	<path class="st0" d="M323.3,128.6c1.7-0.7,3.3-1.3,5.2-2.1c0.5,1.8,0.9,3.4,1.5,5.6c-2.6-1.1-4.6-2-6.6-2.9
		C323.3,129,323.3,128.8,323.3,128.6z"/>
	<path class="st0" d="M330.7,104.6c-2.5,0-4.4-0.7-6.2-1.6c0-0.2,0-0.4,0-0.6c2.1-0.7,4.3-1.4,6.9-2.2
		C331.1,102,330.9,103.2,330.7,104.6z"/>
	<path class="st0" d="M400.3,162.8c1.6-0.1,3.2-0.3,4.8-0.4c-1.5,1.2-3.2,0.5-4.7,0.8C400.4,163.1,400.3,162.9,400.3,162.8z"/>
</g>
</svg>
