<?xml version="1.0" encoding="utf-8"?>
<!-- Generator: Adobe Illustrator 22.0.1, SVG Export Plug-In . SVG Version: 6.00 Build 0)  -->
<svg version="1.1" id="Layer_1" xmlns="http://www.w3.org/2000/svg" xmlns:xlink="http://www.w3.org/1999/xlink" x="0px" y="0px"
	 viewBox="0 0 27.1 7.7" style="enable-background:new 0 0 27.1 7.7;" xml:space="preserve">
<style type="text/css">
	.st0{fill:none;stroke:#E44F4E;stroke-linecap:round;stroke-linejoin:round;stroke-miterlimit:10;}
</style>
<g>
	<path class="st0" d="M203.3,113.8c0.9,0,0.9,1,1.8,1c0.9,0,0.9-1,1.8-1c0.9,0,0.9,1,1.8,1c0.9,0,0.9-1,1.8-1c0.9,0,0.9,1,1.8,1
		c0.9,0,0.9-1,1.8-1c0.9,0,0.9,1,1.8,1c0.9,0,0.9-1,1.8-1c0.9,0,0.9,1,1.8,1c0.9,0,0.9-1,1.8-1c0.9,0,0.9,1,1.8,1"/>
</g>
<g>
	<path class="st0" d="M26.5,134.7c0.8,0,0.8,1,1.7,1c0.8,0,0.8-1,1.7-1c0.8,0,0.8,1,1.7,1c0.8,0,0.8-1,1.7-1c0.8,0,0.8,1,1.7,1
		c0.8,0,0.8-1,1.7-1c0.8,0,0.8,1,1.7,1c0.8,0,0.8-1,1.7-1c0.8,0,0.8,1,1.7,1c0.8,0,0.8-1,1.7-1c0.8,0,0.8,1,1.7,1c0.8,0,0.8-1,1.7-1
		c0.8,0,0.8,1,1.7,1c0.8,0,0.8-1,1.7-1c0.8,0,0.8,1,1.7,1c0.8,0,0.8-1,1.7-1"/>
</g>
<g>
	<path class="st0" d="M256.7,156.9c0.9,0,0.9,1,1.8,1c0.9,0,0.9-1,1.8-1c0.9,0,0.9,1,1.8,1c0.9,0,0.9-1,1.8-1c0.9,0,0.9,1,1.8,1
		c0.9,0,0.9-1,1.8-1c0.9,0,0.9,1,1.8,1c0.9,0,0.9-1,1.8-1c0.9,0,0.9,1,1.8,1c0.9,0,0.9-1,1.8-1c0.9,0,0.9,1,1.8,1c0.9,0,0.9-1,1.8-1
		c0.9,0,0.9,1,1.8,1c0.9,0,0.9-1,1.8-1c0.9,0,0.9,1,1.8,1c0.9,0,0.9-1,1.8-1c0.9,0,0.9,1,1.8,1c0.9,0,0.9-1,1.8-1c0.9,0,0.9,1,1.8,1
		c0.9,0,0.9-1,1.8-1c0.9,0,0.9,1,1.8,1c0.9,0,0.9-1,1.8-1c0.9,0,0.9,1,1.8,1c0.9,0,0.9-1,1.8-1c0.9,0,0.9,1,1.8,1c0.9,0,0.9-1,1.8-1
		c0.9,0,0.9,1,1.8,1c0.9,0,0.9-1,1.8-1c0.9,0,0.9,1,1.8,1c0.9,0,0.9-1,1.9-1s0.9,1,1.9,1"/>
</g>
<g>
	<path class="st0" d="M206.7,157.1c0.9,0,0.9,0.7,1.9,0.7c0.9,0,0.9-0.7,1.9-0.7c0.9,0,0.9,0.7,1.9,0.7c0.9,0,0.9-0.7,1.9-0.7
		c0.9,0,0.9,0.7,1.9,0.7c0.9,0,0.9-0.7,1.9-0.7c0.9,0,0.9,0.7,1.9,0.7c0.9,0,0.9-0.7,1.9-0.7c0.9,0,0.9,0.7,1.9,0.7
		c0.9,0,0.9-0.7,1.9-0.7c1,0,1,0.7,1.9,0.7c0.9,0,0.9-0.7,1.9-0.7c1,0,1,0.7,1.9,0.7c1,0,1-0.7,1.9-0.7c0.9,0,0.9,0.7,1.9,0.7
		c0.9,0,0.9-0.7,1.9-0.7c1,0,1,0.7,1.9,0.7c0.9,0,0.9-0.7,1.9-0.7c1,0,1,0.7,1.9,0.7c1,0,1-0.7,1.9-0.7c1,0,1,0.7,1.9,0.7"/>
</g>
<g>
	<path class="st0" d="M175.9,156.9c0.9,0,0.9,1,1.8,1c0.9,0,0.9-1,1.8-1c0.9,0,0.9,1,1.8,1c0.9,0,0.9-1,1.8-1c0.9,0,0.9,1,1.8,1
		c0.9,0,0.9-1,1.8-1c0.9,0,0.9,1,1.8,1c0.9,0,0.9-1,1.8-1c0.9,0,0.9,1,1.8,1c0.9,0,0.9-1,1.8-1c0.9,0,0.9,1,1.8,1"/>
</g>
<g>
	<path class="st0" d="M3.9,3.4c0.9,0,0.9,1,1.8,1c0.9,0,0.9-1,1.8-1c0.9,0,0.9,1,1.8,1c0.9,0,0.9-1,1.8-1c0.9,0,0.9,1,1.8,1
		c0.9,0,0.9-1,1.8-1c0.9,0,0.9,1,1.8,1c0.9,0,0.9-1,1.8-1c0.9,0,0.9,1,1.8,1c0.9,0,0.9-1,1.8-1c0.9,0,0.9,1,1.8,1"/>
</g>
<g>
	<path class="st0" d="M72,91.7c0.9,0,0.9,0.7,1.9,0.7c0.9,0,0.9-0.7,1.9-0.7c0.9,0,0.9,0.7,1.9,0.7c0.9,0,0.9-0.7,1.9-0.7
		c0.9,0,0.9,0.7,1.9,0.7c0.9,0,0.9-0.7,1.9-0.7c0.9,0,0.9,0.7,1.9,0.7c0.9,0,0.9-0.7,1.9-0.7c0.9,0,0.9,0.7,1.9,0.7
		c0.9,0,0.9-0.7,1.9-0.7c1,0,1,0.7,1.9,0.7c0.9,0,0.9-0.7,1.9-0.7c1,0,1,0.7,1.9,0.7c1,0,1-0.7,1.9-0.7c0.9,0,0.9,0.7,1.9,0.7
		c0.9,0,0.9-0.7,1.9-0.7c1,0,1,0.7,1.9,0.7c0.9,0,0.9-0.7,1.9-0.7c1,0,1,0.7,1.9,0.7c1,0,1-0.7,1.9-0.7c1,0,1,0.7,1.9,0.7"/>
</g>
</svg>
