<?xml version="1.0" encoding="utf-8"?>
<!-- Generator: Adobe Illustrator 22.0.1, SVG Export Plug-In . SVG Version: 6.00 Build 0)  -->
<svg version="1.1" id="Layer_1" xmlns="http://www.w3.org/2000/svg" xmlns:xlink="http://www.w3.org/1999/xlink" x="0px" y="0px"
	 viewBox="0 0 373.5 231.6" style="enable-background:new 0 0 373.5 231.6;" xml:space="preserve">
<style type="text/css">
	.st0{fill:#E4E4E4;}
</style>
<g>
	<g>
		<path d="M10.9,170.6c-0.4-0.1-0.8-0.3-1.2-0.4c-0.6-0.3-1.2-0.6-1.8-1c-0.7-0.5-0.7-1-0.3-1.6c0.9-1.3,1.8-2.5,2.4-3.9
			c0.3-0.7,1.1-1.3,1.2-2.2c0-0.2,0.4-0.4,0.7-0.5c0.6-0.1,1.3-0.3,1.9-0.1c0.8,0.2,1.4,0,2-0.4c0.6-0.3,1.2-0.6,1.8-0.9
			c1.9-0.7,3.8-1.3,5.7-2.2c1.2-0.6,2.4-0.5,3.7-0.5c4.3,0.2,8.6,0.3,12.9,0.5c0.9,0,1.8-0.2,2.7-0.3c3.8-0.2,7.5-0.4,11.3-0.5
			c1.3,0,2.6,0.2,3.9,0.2c4,0.1,7.9,0.2,11.9,0.3c2.7,0,5.3,0,8,0c1.6,0,3.3,0.1,4.9,0.4c2.3,0.4,4.5,0.5,6.8,0.5c4,0,8,0.2,12,0.2
			c3,0,6.1-0.2,9.1-0.2c1.8,0,3.7,0.1,5.5,0.2c1.1,0,2.1,0.1,3.2,0c2-0.1,4-0.3,6.1-0.5c1.2-0.1,1.2-0.2,1.2-1.5
			c0.1-4-0.5-7.8-1.5-11.6c-0.9-3.4-1.7-6.9-2.8-10.2c-0.7-2.3-1.7-4.6-2.8-6.8c-2.8-5.4-5.4-10.8-7.7-16.4c-2-4.6-3.8-9.2-5.6-13.8
			c-0.5-1.2-0.7-2.5-0.9-3.8c-0.3-2.9-0.6-5.9-0.6-8.8c0-3.6,0.8-7.1,2.1-10.5c1.3-3.4,2.6-6.8,4.5-9.9c2.3-3.8,4.3-7.8,7.3-11.1
			c1.4-1.6,2.8-3.1,4.2-4.8c0.8-1,1.6-2,2.1-3.1c1.3-2.5,2.5-5,3.8-7.5c0.1-0.3,0.2-0.7,0.2-1c0-4.3,1-8.4,1.6-12.6
			c0.2-1.7,0.3-3.5,0.5-5.2c0.2-2.1,0.5-4.1,0.6-6.2c0.1-0.6,0-1.3-0.2-2c-0.2-0.9-0.5-1.8-0.7-2.6c-0.2-0.7,0.2-1.2,0.6-1.7
			c0.9-0.9,1.6-1.9,2.1-3.1c0.6-1.3,1.4-1.7,2.7-1.3c1.8,0.5,3.5,0.4,5.3,0.1c0.6-0.1,1.3-0.4,1.8-0.8c1.3-0.8,1.6-0.8,2.4,0.5
			c0.7,1.1,1.2,2.3,2.5,2.9c0.5,0.2,0.8,1.1,1,1.8c0.1,0.3-0.4,0.7-0.6,1.1c0.1,0.3,0.4,0.6,0.5,1c0.1,0.4-0.1,0.9-0.2,1.3
			c-0.3,1-0.6,2-0.8,3.1c-0.7,4.2-1.3,8.5-2,12.7c-0.3,2-0.7,4-1.1,6c-0.6,2.6-0.4,5.1,0,7.6c0.1,0.8,0.7,1.6,1.2,2.2
			c1.1,1.4,2.2,2.7,3.4,3.9c2.9,2.8,5.1,6.1,7.2,9.6c2.3,3.9,4.6,7.8,7.7,11.2c3.1,3.5,5.8,7.3,7.8,11.7c1.4,3.3,3,6.5,4.6,9.7
			c1.8,3.8,3.5,7.6,5.4,11.4c1.5,3,3.2,5.8,4.8,8.7c1.1,1.9,2.2,3.9,3.4,5.7c1.6,2.4,3.4,4.8,5.1,7.2c4,5.4,8.2,10.6,13,15.4
			c3.3,3.3,6.8,6.4,10.6,9.2c3.3,2.4,6.8,4.6,10.4,6.6c3.3,1.8,6.7,3.1,10.3,4.1c6,1.6,12,3.2,18.1,4.8c1.6,0.4,3.2,0.7,4.8,0.9
			c7.6,1.3,15.1,2.7,22.7,4c4.9,0.8,9.8,1.3,14.6,2c2.2,0.3,4.5,0.7,6.7,0.9c3,0.3,6,0.7,8.9,0.8c6.2,0.1,12.5,0,18.7,0
			c0.9,0,1.8,0.2,2.7,0.2c1,0,1.9,0,2.9-0.1c4-0.3,7.9,0,11.7,1.4c0.8,0.3,1.5,1,2.1,1.7c1.2,1.3,2.4,2.5,4.1,3.1
			c0.4,0.1,0.7,0.4,1,0.6c2.3,1.9,4.8,3.4,7.6,4.4c1,0.4,1.5,1.2,1.2,1.8c-0.4,0.9-1.7,1.4-2.6,1c-0.5-0.2-1.1-0.4-1.6-0.6
			c-0.5-0.2-0.9-0.2-1.4,0.1c-0.6,0.4-1.2,0.2-1.5-0.4c-0.5-0.9-1.3-1.1-2.2-1c-0.8,0.1-1.4,0-1.9-0.7c-0.2-0.3-0.7-0.5-1.1-0.4
			c-1.2,0.2-2.3-0.2-3.4-0.7c-4-2-8.3-2.9-12.8-3.3c-6-0.5-12.1-0.2-18.1-0.2c-4.1,0-8.1,0.2-12.2,0.2c-2,0-4-0.3-6.1-0.4
			c-2.5-0.1-4.9,0.2-7.3,0.7c-2.5,0.5-4.9,0.9-7.4,1.2c-2.5,0.3-5.1,0.6-7.6,0.8c-2,0.1-4,0.1-5.9,0c-4.8-0.3-9.4-1.4-14.1-2.4
			c-2.1-0.5-4.3-0.7-6.4-1.2c-3.5-0.8-6.9-1.7-10.4-2.6c-4-1-8-2.1-12-3.2c-4.9-1.3-9.8-2.6-14.7-4c-2.9-0.8-5.7-1.8-8.7-2.3
			c-2.7-0.5-5.3-1.3-8-1.9c-1.8-0.4-3.6-0.5-5.4-0.8c-1.3-0.3-2.5-0.7-3.9-1c1,1.2,2,2.5,3.1,3.7c3.2,3.4,6.7,6.4,10.6,8.9
			c0.8,0.5,1.5,1.1,2.2,1.7c2.7,2.1,5.6,3.7,8.7,5.1c1.8,0.8,3.6,1.7,5.4,2.5c2.6,1.2,5.2,2.3,7.8,3.4c2.9,1.3,6,1.8,9.1,2.2
			c3.7,0.5,7.4,0.8,11.1,1.1c2,0.2,4,0.3,6.1,0.4c5.6,0.3,11.3,0.5,16.9,1.3c3.4,0.5,6.6,1.5,9.7,2.9c2.8,1.2,4.9,3.2,7.1,5.2
			c3,2.8,5.3,6.1,7.7,9.4c2.8,3.7,5.5,7.3,8.6,10.7c1.4,1.6,2.9,3.1,4.4,4.6c0.9,1,0.8,1.9-0.3,2.6c-0.8,0.6-1.7,1.2-2.5,1.9
			c-0.2,0.2-0.3,0.6-0.4,0.9c-0.1,0.6-0.2,1.3-0.3,2c-0.2-0.1-0.5-0.2-0.5-0.3c-0.5-0.9-1.4-1.1-2.3-1.1c-4-0.1-8-0.8-12-0.6
			c-2.8,0.2-5.6,0.4-8.4,0.5c-4.5,0.2-8.9,0.8-13.4,0.6c-4-0.1-8,0-12-0.1c-3.3-0.1-6.5-0.5-9.8-0.7c-0.5,0-1.1-0.1-1.6,0
			c-4.8,0.2-9.4-0.8-14-2c-0.8-0.2-1.7-0.4-2.5-0.6c-3.9-0.8-7.7-1.8-11.4-3.3c-2.9-1.2-5.9-1.8-8.8-2.8c-5.1-1.7-10.1-3.5-15-5.7
			c-5.1-2.3-9.6-5.3-14-8.7c-5.2-4-9.4-9-13.3-14.2c-3.1-4.3-6.3-8.6-9.6-12.7c-1.8-2.2-3.8-4.3-5.7-6.4c-0.1-0.1-0.2-0.1-0.6-0.3
			c-0.4,0.5-1,0.9-1.3,1.4c-0.9,1.8-2.3,3-3.9,4c-2.5,1.8-5.2,3.4-7.8,5.1c-1.2,0.8-2.5,1.2-3.9,1.4c-1.7,0.2-3.1,0.9-4.6,1.7
			c-2.2,1.3-4.5,2.4-7.1,2.9c-0.4,0.1-0.8,0.3-1.2,0.4c-1.2,0.5-2.3,1.1-3.5,1.6c-0.8,0.4-1.7,0.7-2,1.7c-0.2,0.5-0.7,0.7-1.2,0.5
			c-0.6-0.2-1.2-0.3-1.6,0.4c-0.2,0.3-0.7,0.3-1,0.4c-0.6,0.2-1.3,0.3-1.7,0.7c-0.9,0.9-2.1,1-3.3,1.3c-1.5,0.4-3.1,0.3-4.5,1.1
			c-0.7,0.4-1.2,0.2-1.5-0.7c-0.4-1.1-0.5-1.2-1.7-0.8c-1.5,0.6-3.1,1.1-4.6,1.8c-2.3,1-4.6,1.8-7,2.2c-3.2,0.4-6.2,1.4-9.3,2.1
			c-3.6,0.8-7.3,1.4-11.1,1.1c-3.9-0.3-7.7-0.9-11.3-2.3c-2.2-0.8-4.3-1.7-6.5-2.4c-6.1-2.2-11.9-4.8-17.7-7.5
			c-2.5-1.2-4.7-2.8-7.1-4.3c-1.8-1.1-3.6-2.2-5.5-3.2c-0.7-0.4-1.4-0.8-2.3-0.8c-0.3,0-0.7-0.2-0.9-0.4c-0.8-1.1-2-1.3-3.1-1.7
			c-0.6-0.2-1.3-0.3-1.9-0.6c-1.7-0.6-3.4-1-5.2-1c-1.2,0.1-1.2-0.1-1.3-1.4c-0.2-1.7,0.4-3.2,1.2-4.7c0.3-0.5,0.6-0.8,1.2-0.9
			c1.3-0.1,2.6-0.2,3.9-0.3C10.9,170.7,10.9,170.7,10.9,170.6z M110.5,191.9c-1,0.1-1.9,0.7-3,0.3c-0.1-0.1-0.4,0.1-0.6,0.1
			c-1.3,0.5-2.6,0.9-3.9,1.4c-0.2,0.1-0.4,0.3-0.7,0.5c0.4,0,0.5,0.1,0.6,0.1c1.9-0.6,4-0.5,5.8-1.6
			C109.2,192.4,109.9,192.2,110.5,191.9c0.4-0.1,0.8-0.3,1.1-0.4c0-0.1-0.1-0.2-0.1-0.3C111.1,191.5,110.8,191.7,110.5,191.9z
			 M306.8,222c0-0.1-0.1-0.3-0.2-0.4c-1-1.1-1.9-2.3-3-3.4c-0.3-0.4-0.9-0.6-1.4-0.7c-1.8-0.1-2.6-1.4-3.5-2.7
			c-0.8-1.2-1.4-2.5-3.1-2.7c-0.3,0-0.8-0.6-0.8-0.7c0.4-0.9-0.3-1.4-0.7-2c-0.4-0.7-0.6-1.6-1.1-2.3c-0.3-0.5-0.8-1-1.3-1.1
			c-1.5-0.4-1.6-0.4-1.3-1.9c0.2-1-0.1-1.8-0.8-2.5c-0.3-0.3-0.6-0.6-0.6-0.9c0-0.9-0.6-1.4-1.1-1.9c-3.9-4.2-8.9-6.3-14.3-7.3
			c-4.4-0.8-9-1.1-13.5-1.5c-3.4-0.3-6.8-0.5-10.3-0.6c-4.3-0.2-8.6-0.7-12.8-1.2c-4.8-0.6-9.4-2.1-13.8-4.2
			c-3.2-1.5-6.4-3.1-9.6-4.7c-2.1-1.1-4.1-2.1-6-3.4c-2.3-1.6-4.5-3.3-6.7-5c-2.7-2.1-5.4-4.3-7.6-6.9c-1.7-2-3.3-4.2-4.9-6.3
			c-1.6-2.1-2.9-4.4-3.9-6.9c-1.8-4.7-3.1-9.6-4-14.7c-0.8-4.7-1.7-9.4-1.9-14.2c-0.1-1.2-0.3-2.4-0.3-3.6
			c-0.2-3.8-0.7-7.6-1.6-11.3c-0.5-2.4-1.4-4.8-2-7.3c-0.9-3.9-1.7-7.7-2.5-11.6c-0.4-2-0.9-4-2.7-5.3c-0.2-0.1-0.4-0.6-0.3-0.7
			c0.4-0.8,0.2-1.5,0-2.2c-0.1-0.2,0.2-0.7,0.4-0.8c0.2-0.1,0.7,0,0.9,0.2c0.4,0.5,0.6,1.1,0.9,1.7c0.7,1.7,1.4,3.3,2,5
			c0.4,1,0.7,2,0.9,3c0.4,1.8,0.7,3.6,1,5.4c0.1,0.6,0.1,1.4,1,1.6c0.2,0,0.3,0.4,0.4,0.7c0.4,0.7,0.7,1.5,1.2,2.1
			c0.9,1.2,1.5,2.6,1.7,4.1c0.1,0.5,0.4,1.1,0.6,1.6c0.6,1,1.4,2,1.4,3.3c0,0.5,0.4,1.1,0.8,1.5c1.3,1,2,2.5,2.9,3.7
			c0.6,0.7,1.3,1.4,1.5,2.3c0.5,2.2,2.3,3.7,2.6,5.9c0,0.2,0.2,0.4,0.3,0.4c0.8,0.5,1.1,1.3,1.5,2c0.6,1,1.3,1.9,1.9,2.8
			c0.1,0.1,0.2,0.2,0.3,0.3c0.5,0.5,1,1,1.4,1.6c0.3,0.3,0.4,0.7,0.8,0.8c0.7,0.4,1,1,1.4,1.6c0.6,0.9,1.3,1.6,2,2.4
			c1.7,0.3,2.6,1.6,3.4,2.9c0.2,0.3,0.4,0.7,0.7,0.7c0.9,0.1,1.1,0.8,1.6,1.4c0.2,0.3,0.5,0.6,0.8,0.9c1,0.9,2,1.8,3,2.7
			c1.8,1.5,3.6,2.9,5.4,4.4c1,0.8,2,1.5,2.7,2.6c0.6,1,1.4,1.7,2.5,2c0.5,0.2,0.9,0.5,1.4,0.8c0.5,0.4,1,0.9,1.6,1.2
			c2.3,1.3,4.7,2.6,7.3,3.4c1,0.3,2,0.6,3.1,0.3c0.3-0.1,0.6-0.1,0.9,0c1.7,0.7,3.4,1.4,5,2.2c1.6,0.8,3,2,4.8,2.2
			c0.3,0,0.6,0.2,0.8,0.3c0.6,0.4,1.2,0.6,1.9,0.5c0.4-0.1,0.9,0.1,1.3,0.2c1.6,0.3,3.4,0.1,4.9,1c0,0,0.1,0,0.1,0
			c1.6-0.4,3,0.4,4.2,1.1c2,1.1,4.4,1.2,6.4,2.3c0.3,0.1,0.7,0,1,0c0.9-0.2,1.8-0.2,2.7,0c0.9,0.2,1.9,0.1,2.7,0.6
			c0.1,0.1,0.4,0,0.6,0.1c1.5,0.1,3.1,0,4.5,0.4c1.6,0.4,3.1,0.3,4.7,0.5c0.9,0.1,1.9,0.3,2.9-0.1c0.5-0.2,1.1,0.3,1.7,0.3
			c1.3,0.1,2.5,0.4,3.5,1.2c0.3,0.2,0.7,0.3,0.9,0.3c1.3-0.3,2.4,0,3.5,0.5c0.3,0.1,0.7,0,1,0.1c0.4,0,0.9,0,1.3,0.1
			c1,0.1,2.1,0.1,3,0.7c0.1,0.1,0.4,0,0.6,0c0.7,0,1.4,0.1,2.1,0.1c0.3,0,0.7,0.1,1,0c3.1-0.6,6,0.3,9,0.8c1,0.1,1.9,0.7,2.8,0.6
			c3-0.4,6,0.7,8.9-0.3c0.1,0,0.2,0,0.3,0c2.4,0.1,4.9,0.1,7.3,0.1c0.9,0,1.6,0.2,2.3,0.6c0.4,0.3,1,0.6,1.5,0.5
			c1.8-0.2,3.6,0.1,5.5,0.5c0.1,0.4,0.2,0.8,0.3,1.2c0.4,0.1,0.8,0.2,1.2,0.2c3.3,0.2,6.5,0.6,9.7,1.6c0.8,0.3,1.6,0.6,2.5,0.9
			c0.9,0.3,1,0.2,1.4-0.7c0.3-0.6,0.5-1.2,0.9-1.9c-1.1-1.2-2.1-2.7-3.9-2.9c-0.6,0.6-1.1,1.3-1.7,1.8c-0.3,0.3-0.7,0.3-1.1,0.5
			c-0.1-0.3-0.3-0.7-0.3-1c-0.2-1.8-0.7-2.3-2.5-2.3c-0.4,0-0.9,0-1.3,0c-0.8,0-1.3,0.2-1.8,0.8c-0.9,1.2-2.1,1-2.9-0.2
			c-0.2-0.3-0.6-0.6-1-0.6c-1.3-0.2-2.6-0.3-3.9-0.3c-4.2,0-8.4,0-12.6,0c-3.6,0-7.2-0.1-10.9-0.4c-4.1-0.3-8.2-0.9-12.2-1.4
			c-4.2-0.6-8.4-1.2-12.6-1.9c-7-1.2-13.9-2.5-20.8-3.7c-4.6-0.8-9.1-1.8-13.6-3c-3.4-0.9-6.7-1.9-10.1-2.7
			c-3.5-0.9-6.9-2.1-10.2-3.7c-3.3-1.6-6.3-3.6-9.3-5.6c-0.2-0.1-0.3-0.1-0.5-0.2c-0.3,0.3-0.6,0.5-0.8,0.7
			c-0.9-0.6-1.7-1.2-2.6-1.8c0.1-0.3,0.2-0.6,0.3-0.9c-2.4-2.2-4.7-4.3-7.1-6.3c-3.4-2.9-6.3-6.2-9-9.6c-2.8-3.4-5.6-6.9-8.3-10.5
			c-1.7-2.2-3.1-4.5-4.6-6.9c-1-1.6-2-3.2-2.9-4.9c-1.5-2.7-3.2-5.3-4.5-8.1c-2.2-4.5-4.3-9.1-6.4-13.6c-1.5-3.2-2.8-6.5-4.6-9.5
			c-1.6-2.8-3.4-5.6-5.6-8.1c-3.5-4.1-6.5-8.5-9.3-13.1c-1.4-2.4-2.8-4.7-4.6-6.8c-0.9-1.1-1.9-2.1-3-3.3c-0.8,1.1-1.4,0.7-2.2,0.2
			c-0.4-0.3-0.9-0.4-1.3-0.6c-0.6-0.3-1.1-0.7-1.7-1c-0.7-0.4-1.4-0.8-2.1-1.2c-0.5-0.3-0.9-0.5-1.4-0.7c-0.3-0.1-0.6-0.2-1-0.4
			c0,1.1-0.5,1.4-1.5,1.3c-1-0.1-2-0.1-3,0.2c-1.2,0.3-2,0.1-2.9-0.7c-0.5-0.4-1-0.8-1.7-1.2c-0.7,1.5-1.2,2.7-1.8,4
			c-1.4,3.1-4,5.3-6.1,7.9c-1.6,1.9-3.2,3.8-4.5,5.8c-3.4,5.2-6.4,10.6-8.3,16.5c-0.6,1.8-1.1,3.6-1.4,5.5c-0.4,2-0.5,4-0.2,6.1
			c0.2,1.3,0.3,2.6,0.4,3.9c0.2,3.5,1.1,6.9,2.4,10.1c1.3,3.2,2.8,6.3,4.1,9.4c2.2,5.3,4.5,10.5,7.2,15.5c2.8,5.2,4.4,10.8,5.8,16.5
			c0.7,2.8,1.1,5.6,1.5,8.4c0.5,4.1,0.6,8.3,0.2,12.4c-0.4,3.4-0.9,6.9-1.7,10.2c-0.4,1.6-1,3.2-1.3,4.9c-0.3,2.1-1.5,3.5-2.7,5
			c-0.3,0.4-0.9,0.5-1.3,0.8c-0.4,0.2-0.8,0.4-1.2,0.7c-0.5,0.4-0.9,1-1.5,1.4c-1.1,0.9-2.2,1.7-3.3,2.5c2.1-0.2,4-0.8,5.3-2.4
			c0.8-1,1.4-1.5,2.7-1.1c1.2-1.8,2.3-3.6,3.6-5.3c0.8-1,0.9-2.2,1.1-3.4c0.1-0.5,0.1-1.1,0.4-1.5c0.6-1.1,1.2-2.2,1-3.5
			c-0.1-0.3,0.2-0.6,0.3-0.9c0.1-0.3,0.3-0.6,0.3-1c-0.1-2.1,0.9-4,1.3-6c0.2-1,0.2-2,0.2-3c0-1-0.3-1.9-0.4-2.9
			c-0.1-1.1-0.2-2.2-0.3-3.3c0-0.6,0-1.2,0-1.7c0.3-1.8,0.1-3.6-0.4-5.4c-0.6-1.9-0.8-3.9-2-5.6c-0.1-0.2-0.1-0.4-0.2-0.6
			c-0.3-1.5-0.6-3-0.8-4.5c-0.3-2-0.7-3.9-1.8-5.5c-0.2-0.3-0.3-0.7-0.2-1c0.2-0.8-0.3-1.2-0.8-1.7c-0.4-0.4-0.9-0.8-1.1-1.3
			c-0.3-0.7-0.5-1.5-0.7-2.2c-0.1-0.4-0.1-0.8,0-1.1c0.1-0.3,0.4-0.5,0.7-0.8c0.2,0.3,0.6,0.5,0.7,0.8c0.3,0.8,0.5,1.7,0.7,2.5
			c0.1,0.5,0.4,0.7,1,0.8c-0.6-2-1.1-3.9-1.7-5.8c-1.5,0.5-1.4,0.4-2.3-1c-0.5-0.9-1-1.7-0.9-2.8c0-0.3-0.3-0.6-0.4-0.9
			c-0.1-0.3-0.2-0.6-0.4-1c0.5-0.2,0.8-0.5,1.2-0.6c0.9-0.3,1.1-0.1,1.2,0.8c0.1,0.8,0.1,1.5,0.2,2.3c0,0.5,0.2,0.9,0.9,0.9
			c0-0.3,0.1-0.5,0.1-0.7c-0.3-2.5-0.7-5.1-1-7.6c-0.4-3.1-0.8-6.1-0.9-9.2c-0.1-3.6,0.1-7.2,0.2-10.9c0-1.1,0.1-2.1,0.2-3.2
			c0-0.3,0.4-0.6,0.6-0.8c0.3,0.2,0.7,0.4,0.8,0.7c0.2,0.3,0.1,0.8,0.1,1.1c-0.1,1.9-0.4,3.7-0.4,5.6c-0.1,3-0.2,6,0,9
			c0.2,2.9,0.6,5.9,1,8.8c0.5,3.9,0.7,7.8,1.9,11.6c1.9,5.9,3.7,11.8,6.4,17.4c1.4,2.9,2.7,5.8,4.4,8.5c2.4,3.7,5,7.2,7.6,10.7
			c2.2,2.9,4.5,5.7,6.8,8.5c0.5,0.6,1,1.2,1.5,1.8c1.9,2.1,3.9,4.2,5.7,6.4c3.8,4.5,7,9.3,10.6,14c2.2,2.8,4.5,5.6,6.9,8.2
			c1.4,1.5,3.1,2.7,4.7,4.1c3.5,3,7.3,5.7,11.4,7.8c6.3,3.2,12.8,5.6,19.5,7.7c2.9,0.9,5.8,1.8,8.7,2.8c2.4,0.9,4.9,1.6,7.4,2.2
			c2.6,0.6,5.2,1.2,7.8,1.7c2.5,0.5,4.9,1.1,7.4,1.4c2.6,0.3,5.3,0.3,7.9,0.5c2.5,0.1,4.9,0.3,7.4,0.4c3.2,0.1,6.4,0.1,9.5,0
			c3-0.1,6.1,0.3,9.1,0c1.6-0.2,3.3-0.2,4.9-0.4c4.4-0.5,8.8-0.7,13.2-0.5c2.2,0.1,4.3,0.2,6.5,0.3c0.8,0,1.4,0,1.7-0.9
			c0.1-0.4,0.6-0.7,0.9-1c0.4-0.4,0.9-0.7,1.3-1.1C305.7,223.4,306.1,222.8,306.8,222z M7.8,176.2c0.2,0.2,0.2,0.3,0.3,0.3
			c3.1,1,6.1,1.9,9.2,2.9c0.3,0.1,0.5,0.2,0.7,0.4c0.3,0.2,0.4,0.6,0.7,0.7c2.5,1.5,5,3,7.5,4.4c1.2,0.7,2.5,1.5,3.7,2.2
			c1.5,0.8,2.9,1.7,4.4,2.5c2,0.9,4,1.8,6,2.6c2.3,0.9,4.5,1.9,6.8,2.8c1.4,0.6,2.9,1,4.3,1.6c1.5,0.6,2.9,1.2,4.4,1.7
			c1.4,0.5,2.7,1,4.1,1.4c4,0.9,8,1.3,12.1,0.9c2.3-0.2,4.7-0.7,7-1.2c2.2-0.5,4.4-1.3,6.6-1.6c2.7-0.4,5.2-1,7.7-2.1
			c1.7-0.7,3.4-1.5,5.1-2.1c4-1.5,8.1-3,12.1-4.5c4.3-1.6,7.6-4.5,10.5-7.9c0.1-0.1,0.2-0.2,0.3-0.4c1.3-2.3,2.3-4.7,3-7.2
			c1.2-4.2,1.7-8.5,2.2-12.8c0.1-1,0-1.2-1-1.3c-0.3,0-0.7,0-1,0c-4.3,0.3-8.7,0.5-13,0c-0.2,0-0.5,0-0.7,0
			c-2.6,0.1-5.2,0.2-7.8,0.2c-5.1,0-10.2-0.1-15.4-0.3c-1.2,0-2.3-0.2-3.5-0.3c-2.5-0.2-5.1-0.5-7.6-0.6c-2.5-0.1-5,0-7.5,0
			c-3.9,0-7.7,0.2-11.6-0.3c-1.4-0.2-2.8-0.2-4.2-0.2c-1.1,0-2.1,0.2-3.2,0.2c-2.9,0.2-5.9,0.4-8.8,0.6c-1.8,0.1-3.7,0.1-5.5,0.1
			c-3.2-0.1-6.4-0.2-9.6-0.3c-0.6,0-1.3,0.1-1.8,0.3c-3.3,1.3-6.5,2.6-9.8,3.9c-0.7,0.3-1.1,0.8-1.4,1.5c-0.6,1.5-1.2,3.1-2.3,4.4
			c1.3,0.8,2.4,1.8,3.9,2.1c0.8,0.2,1.5,0.7,2.1,1.1c0.4,0.3,0.8,0.8,0.3,1.2c-0.2,0.2-0.8,0.2-1.1,0.3c-0.2,0-0.4-0.1-0.5-0.2
			c-1.9-0.8-3.9-0.8-5.8-0.8c-0.7,0-1.1,0.2-1.2,1C8.2,174.4,8,175.3,7.8,176.2z M330.9,174.8c-0.9-0.9-1.8-1.1-2.7-1.1
			c-3,0.1-6-0.3-8.9,0.4c-0.3,0.1-0.7,0-1-0.1c-1.7-0.1-3.5-0.4-5.2-0.2c-1.6,0.2-3.2-0.1-4.7-0.5c-1.7-0.5-3.5-0.6-5.3-0.8
			c-0.9-0.1-1.8,0.1-2.7,0.1c-1.4-0.1-2.7-0.3-4.1,0c-0.9-0.6-1.9-0.5-2.9-0.7c-1.5-0.2-3-0.2-4.3-0.9c-0.2-0.1-0.5,0-0.7,0
			c-1,0.1-1.8-0.1-2.6-0.6c-0.7-0.4-1.4-0.5-2.1-0.8c-1.2-0.4-2.5,0-3.7-0.2c-2.1-0.3-4.2,0-6.3-0.7c-0.3-0.1-0.6,0-0.9,0
			c-1.4-0.2-2.8-0.2-4.1-0.5c-1.6-0.4-3.1-0.7-4.7-0.4c-1,0.2-2-0.1-2.9-0.6c-0.5-0.2-1.1-0.4-1.6-0.5c-0.6-0.2-1.3-0.4-1.9-0.6
			c-2-0.6-3.6-2-5.8-1.9c-0.3,0-0.5-0.2-0.8-0.2c-0.9-0.2-1.8-0.3-2.7-0.5c-1.8-0.4-3.9,0.1-5.5-1.2c-0.2-0.1-0.5-0.2-0.7-0.2
			c-1.6-0.1-2.8-1.2-4.2-1.8c-1.6-0.8-3.2-1.5-4.8-2.2c-0.1,0-0.2-0.1-0.3,0c-1.1,0.3-2.2-0.1-3.3-0.4c-2.1-0.7-4.3-1.5-6.3-2.5
			c-1.6-0.8-3.2-1.5-4.5-2.8c-0.1-0.1-0.2-0.2-0.4-0.2c-1.8-0.5-3-1.9-4.1-3.3c-0.4-0.5-0.9-1.1-1.4-1.4c-1.4-0.7-2.3-1.8-3.4-2.9
			c-0.9-0.8-1.9-1.6-2.9-2.3c-0.5-0.4-1-0.8-1.4-1.2c-0.8-0.8-1.4-1.8-2.3-2.4c-1.1-0.7-1.8-1.5-2.2-2.6c-0.3-0.8-0.9-1.3-1.7-1.4
			c-0.8-0.2-1.3-0.7-1.8-1.3c-1.3-1.7-2.5-3.4-4-4.9c-1.4-1.4-2.4-3.1-3.6-4.5c-1-1.2-1.8-2.5-2.3-3.9c-0.4-0.9-1-1.8-1.4-2.7
			c-1-2.7-3-4.8-4.7-7.1c-0.1-0.1-0.1-0.1-0.2-0.2c-0.6-0.4-0.8-1.1-1-1.8c-0.2-0.8-0.6-1.6-0.9-2.4c-0.1-0.2-0.5-0.3-0.9-0.6
			c0.2,1.4,0.4,2.5,0.6,3.7c0.6,3.1,0.9,6.2,1.1,9.3c0.2,2.6,0.6,5.3,0.8,7.9c0.4,4.9,1.4,9.7,2.5,14.5c0.5,2,1.2,4,1.7,6
			c0.7,2.7,1.9,5.2,3.2,7.6c0.6,1.1,1.2,2.1,2.6,2.4c0.4,0.1,0.7,0.3,1,0.5c1.4,1.1,3,1.7,4.7,1.9c4.5,0.6,8.9,1.4,13.2,2.7
			c3,0.9,6.2,1.6,9.2,2.5c3,0.9,6,1.9,9,2.7c4.1,1,8.2,1.9,12.3,2.9c1.5,0.4,3,0.9,4.4,1.3c2.8,0.8,5.6,1.7,8.5,2.3
			c5.1,1.1,10.1,1.9,15.2,2.9c3.2,0.6,6.5,1,9.8,1.1c1.4,0,2.8-0.1,4.2-0.2c2.6-0.2,5.3-0.3,7.9-0.6c2.2-0.3,4.4-0.6,6.5-1.2
			c2.7-0.8,5.4-0.9,8.2-0.7c2.9,0.2,5.8,0.4,8.7,0.5c2.3,0,4.6-0.2,6.9-0.2c3,0,6.1,0,9.1,0C329.7,174.8,330.2,174.8,330.9,174.8z
			 M124.9,185.7c1.1-0.5,2.1-0.9,3-1.4c2-1.1,4-2.2,6.3-2.6c1.1-0.2,2.3-0.6,3.2-1.2c2.7-1.6,5.3-3.4,7.9-5.1c1.4-1,2.8-2,3.5-3.7
			c0.1-0.3,0.3-0.5,0.5-0.7c1.1-1,0.9-1.3,0-2.4c-1.6-2-3.2-3.9-4.7-5.9c-1.9-2.5-3.8-5-5.6-7.6c-1.1-1.5-2.2-3-3.2-4.5
			c-2.3-3.5-4.1-7.3-5.7-11.2c-0.1-0.4-0.4-0.7-0.6-1c-0.2,1-0.1,1.9,0,2.9c0,0.2,0.2,0.4,0.4,0.6c1,1,1.1,2.3,1.4,3.5
			c0.2,0.5,0.1,1.2,0.4,1.6c0.9,1.3,0.5,2.9,0.9,4.3c0.1,0.2-0.2,0.4-0.2,0.7c-0.1,0.5-0.3,1-0.3,1.6c0.1,1.4,0.2,2.8,0.3,4.2
			c0.1,2.3,1.1,4.6,0.1,6.9c0,0,0,0.1,0,0.1c-0.2,0.8-0.3,1.5-0.5,2.3c-0.2,0.8-0.2,1.7-0.5,2.5c-0.5,1.6-0.8,3.2-1,4.8
			c0,0.2-0.2,0.3-0.3,0.5c-0.3,0.8-0.8,1.6-0.9,2.4c-0.3,1.8-1.2,3.4-2.2,5C126.6,183.3,125.8,184.4,124.9,185.7z M134.3,11.1
			c-1-0.2-1,0.5-1,1c-0.4,2.9-1.2,5.7-1,8.6c0,0.3-0.1,0.6-0.1,0.9c-0.6,3.6-1.2,7.1-1.8,10.7c-0.2,1.3-0.3,2.7-0.4,4
			c-0.1,1.1,1,2.3,2.1,2.3c1,0.1,2-0.4,2.9,0.3c0.1,0.1,0.3,0,0.4-0.1c0.5-0.1,0.9-0.1,1.4-0.3c0.9-0.3,1.8-0.7,2.6-1.1
			c0.1-0.1,0.2-0.3,0.3-0.5c0.7-0.9,1.3-2,2.2-2.6c0.9-0.6,1.1-1.4,1.3-2.3c0.7-4.1,1.4-8.2,2-12.3c0.6-3.4,1-6.9,1.9-10.2
			c0.1-0.3,0-0.5,0.1-1.1c-0.7,0.2-1.3,0.3-1.9,0.5c-1,0.4-2.3,0.4-2.5,2c0,0.2-0.5,0.4-0.8,0.6c-1.4,1-3.3,0.7-4.8,1.4
			c-0.2,0.1-0.6,0-0.8-0.2c-0.4-0.3-0.7-0.3-1.2-0.1c-0.7,0.3-1.1,0-1.1-0.8C134.2,11.7,134.2,11.5,134.3,11.1z M146,5.9
			c-0.4-0.5-0.7-0.8-0.9-1c-0.8,0.3-1.5,0.6-2.2,0.7c-1,0.2-2.1,0.6-3.1,0.3c-1.1-0.2-2.1-0.2-3,0.4c-0.6,0.4-1.2,0.2-1.7-0.2
			c-0.3-0.2-0.5-0.4-0.8-0.6c-0.7,0.9-1.4,1.7-2,2.5c0.8,0.2,1.4,0.4,2,0.5c0.2,0,0.5,0,0.7-0.1c1.2-0.5,2.5-0.5,3.8-0.3
			c0.8,0.2,1.8,0.2,2.6,0c1.3-0.3,2.5-0.9,3.8-1.4C145.4,6.4,145.6,6.2,146,5.9z M177.6,104c0-1.5-0.3-2.3-1-3
			C176.9,102.1,177.2,102.9,177.6,104z M137.4,10.8c0,0.1,0,0.2,0,0.3c0.3,0,0.6-0.1,1-0.1c0-0.1,0-0.1,0-0.2
			C138,10.8,137.7,10.8,137.4,10.8z"/>
		<path d="M49.7,216.2c0,0.1,0,0.2,0,0.3c0,0.6-0.1,1.2-0.8,1.1c-0.8-0.1-0.5-0.7-0.4-1.2c0-0.1,0-0.2,0-0.3c0.1-0.5,0.1-1.1,0.7-1
			c0.3,0,0.4,0.7,0.6,1C49.9,216.2,49.8,216.2,49.7,216.2z"/>
		<path d="M-1.6,15.8c0.1,0,0.1,0.1,0.2,0.1C-1.5,16-1.5,16-1.6,16.1c0,0-0.1,0-0.1-0.1C-1.7,15.9-1.7,15.9-1.6,15.8z"/>
		<path d="M41.1,236.2c0.1,0.2,0.1,0.4,0.2,0.6c-0.1,0-0.1,0-0.2,0.1c-0.1-0.2-0.1-0.4-0.2-0.6C41,236.2,41.1,236.2,41.1,236.2z"/>
		<path class="st0" d="M306.8,222c-0.6,0.7-1.1,1.3-1.6,1.9c-0.4,0.4-0.9,0.7-1.3,1.1c-0.3,0.3-0.8,0.6-0.9,1c-0.3,0.9-1,1-1.7,0.9
			c-2.2-0.1-4.3-0.2-6.5-0.3c-4.4-0.2-8.8,0.1-13.2,0.5c-1.6,0.2-3.3,0.2-4.9,0.4c-3,0.3-6.1,0-9.1,0c-3.2,0.1-6.4,0.1-9.5,0
			c-2.5-0.1-4.9-0.3-7.4-0.4c-2.6-0.1-5.3-0.2-7.9-0.5c-2.5-0.3-4.9-0.9-7.4-1.4c-2.6-0.5-5.2-1.2-7.8-1.7c-2.5-0.5-4.9-1.3-7.4-2.2
			c-2.8-1.1-5.8-1.9-8.7-2.8c-6.7-2.1-13.3-4.5-19.5-7.7c-4.2-2.1-7.9-4.8-11.4-7.8c-1.6-1.3-3.3-2.6-4.7-4.1
			c-2.4-2.6-4.7-5.4-6.9-8.2c-3.5-4.7-6.8-9.5-10.6-14c-1.8-2.2-3.8-4.2-5.7-6.4c-0.5-0.6-1-1.2-1.5-1.8c-2.3-2.8-4.6-5.6-6.8-8.5
			c-2.6-3.5-5.3-7-7.6-10.7c-1.7-2.7-3-5.6-4.4-8.5c-2.6-5.6-4.5-11.5-6.4-17.4c-1.2-3.7-1.4-7.7-1.9-11.6c-0.4-2.9-0.8-5.8-1-8.8
			c-0.2-3-0.1-6,0-9c0-1.9,0.3-3.8,0.4-5.6c0-0.4,0-0.8-0.1-1.1c-0.1-0.3-0.5-0.5-0.8-0.7c-0.2,0.3-0.6,0.5-0.6,0.8
			c-0.1,1-0.2,2.1-0.2,3.2c-0.1,3.6-0.4,7.2-0.2,10.9c0.1,3.1,0.6,6.1,0.9,9.2c0.3,2.5,0.7,5.1,1,7.6c0,0.2,0,0.5-0.1,0.7
			c-0.7,0-0.9-0.4-0.9-0.9c-0.1-0.8-0.1-1.5-0.2-2.3c-0.1-1-0.3-1.1-1.2-0.8c-0.4,0.1-0.8,0.4-1.2,0.6c0.1,0.4,0.2,0.7,0.4,1
			c0.1,0.3,0.4,0.6,0.4,0.9c-0.1,1.1,0.4,1.9,0.9,2.8c0.9,1.4,0.8,1.5,2.3,1c0.5,1.9,1.1,3.8,1.7,5.8c-0.6-0.1-0.9-0.3-1-0.8
			c-0.2-0.8-0.4-1.7-0.7-2.5c-0.1-0.3-0.5-0.5-0.7-0.8c-0.2,0.3-0.6,0.5-0.7,0.8c-0.1,0.3-0.1,0.8,0,1.1c0.2,0.7,0.4,1.5,0.7,2.2
			c0.2,0.5,0.7,0.9,1.1,1.3c0.5,0.5,1,0.9,0.8,1.7c-0.1,0.3,0,0.7,0.2,1c1.1,1.7,1.6,3.6,1.8,5.5c0.2,1.5,0.5,3,0.8,4.5
			c0,0.2,0.1,0.4,0.2,0.6c1.1,1.7,1.4,3.7,2,5.6c0.6,1.8,0.7,3.6,0.4,5.4c-0.1,0.6-0.1,1.2,0,1.7c0.1,1.1,0.2,2.2,0.3,3.3
			c0.1,1,0.3,1.9,0.4,2.9c0,1,0,2-0.2,3c-0.4,2-1.4,3.9-1.3,6c0,0.3-0.2,0.6-0.3,1c-0.1,0.3-0.3,0.7-0.3,0.9c0.2,1.3-0.3,2.4-1,3.5
			c-0.3,0.4-0.3,1-0.4,1.5c-0.2,1.2-0.4,2.3-1.1,3.4c-1.2,1.7-2.4,3.5-3.6,5.3c-1.3-0.4-2,0.1-2.7,1.1c-1.3,1.6-3.2,2.3-5.3,2.4
			c1.1-0.8,2.2-1.6,3.3-2.5c0.5-0.4,1-1,1.5-1.4c0.4-0.3,0.8-0.5,1.2-0.7c0.4-0.3,1-0.4,1.3-0.8c1.2-1.5,2.4-2.9,2.7-5
			c0.2-1.7,0.9-3.2,1.3-4.9c0.8-3.4,1.3-6.8,1.7-10.2c0.4-4.2,0.4-8.3-0.2-12.4c-0.4-2.8-0.8-5.6-1.5-8.4c-1.4-5.7-3-11.3-5.8-16.5
			c-2.7-5-5-10.2-7.2-15.5c-1.3-3.2-2.8-6.3-4.1-9.4c-1.3-3.2-2.2-6.6-2.4-10.1c-0.1-1.3-0.1-2.6-0.4-3.9c-0.4-2-0.2-4.1,0.2-6.1
			c0.3-1.8,0.8-3.7,1.4-5.5c1.9-5.9,4.9-11.3,8.3-16.5c1.3-2.1,2.9-3.9,4.5-5.8c2.1-2.6,4.7-4.8,6.1-7.9c0.6-1.3,1.2-2.5,1.8-4
			c0.6,0.5,1.2,0.8,1.7,1.2c0.9,0.8,1.7,1,2.9,0.7c0.9-0.3,2-0.3,3-0.2c1,0.1,1.5-0.2,1.5-1.3c0.4,0.2,0.7,0.3,1,0.4
			c0.5,0.2,1,0.5,1.4,0.7c0.7,0.4,1.4,0.8,2.1,1.2c0.6,0.3,1.1,0.7,1.7,1c0.4,0.2,0.9,0.4,1.3,0.6c0.7,0.6,1.4,0.9,2.2-0.2
			c1.1,1.2,2.1,2.2,3,3.3c1.7,2.1,3.2,4.5,4.6,6.8c2.8,4.6,5.8,9,9.3,13.1c2.1,2.5,4,5.3,5.6,8.1c1.7,3.1,3.1,6.4,4.6,9.5
			c2.1,4.5,4.2,9.1,6.4,13.6c1.4,2.8,3,5.4,4.5,8.1c0.9,1.6,1.9,3.3,2.9,4.9c1.5,2.3,2.9,4.7,4.6,6.9c2.7,3.5,5.4,7,8.3,10.5
			c2.8,3.4,5.7,6.7,9,9.6c2.4,2,4.7,4.1,7.1,6.3c-0.1,0.2-0.2,0.6-0.3,0.9c0.9,0.6,1.7,1.2,2.6,1.8c0.2-0.2,0.5-0.5,0.8-0.7
			c0.1,0.1,0.3,0.1,0.5,0.2c3,2,6,4,9.3,5.6c3.3,1.6,6.7,2.8,10.2,3.7c3.4,0.8,6.7,1.8,10.1,2.7c4.5,1.2,9,2.3,13.6,3
			c7,1.2,13.9,2.5,20.8,3.7c4.2,0.7,8.4,1.3,12.6,1.9c4.1,0.5,8.1,1.1,12.2,1.4c3.6,0.3,7.2,0.3,10.9,0.4c4.2,0.1,8.4,0,12.6,0
			c1.3,0,2.6,0.1,3.9,0.3c0.4,0,0.8,0.3,1,0.6c0.9,1.2,2,1.3,2.9,0.2c0.5-0.7,1.1-0.9,1.8-0.8c0.4,0,0.9,0,1.3,0
			c1.8,0,2.3,0.6,2.5,2.3c0,0.3,0.2,0.7,0.3,1c0.4-0.1,0.8-0.2,1.1-0.5c0.6-0.5,1.1-1.2,1.7-1.8c1.9,0.2,2.8,1.7,3.9,2.9
			c-0.3,0.7-0.6,1.3-0.9,1.9c-0.4,0.9-0.5,1-1.4,0.7c-0.8-0.3-1.6-0.6-2.5-0.9c-3.1-1-6.4-1.5-9.7-1.6c-0.4,0-0.7-0.1-1.2-0.2
			c-0.1-0.5-0.2-0.9-0.3-1.2c-1.9-0.3-3.6-0.7-5.5-0.5c-0.5,0.1-1-0.3-1.5-0.5c-0.7-0.4-1.5-0.6-2.3-0.6c-2.4,0-4.9-0.1-7.3-0.1
			c-0.1,0-0.2,0-0.3,0c-2.9,1-5.9-0.1-8.9,0.3c-0.9,0.1-1.9-0.4-2.8-0.6c-3-0.4-5.9-1.4-9-0.8c-0.3,0.1-0.7,0-1,0
			c-0.7,0-1.4-0.1-2.1-0.1c-0.2,0-0.4,0.1-0.6,0c-0.9-0.6-2-0.5-3-0.7c-0.4-0.1-0.9-0.1-1.3-0.1c-0.3,0-0.7,0.1-1-0.1
			c-1.1-0.5-2.3-0.8-3.5-0.5c-0.3,0.1-0.7-0.1-0.9-0.3c-1.1-0.8-2.2-1.1-3.5-1.2c-0.6,0-1.2-0.5-1.7-0.3c-1,0.3-1.9,0.2-2.9,0.1
			c-1.6-0.2-3.1-0.1-4.7-0.5c-1.4-0.4-3-0.3-4.5-0.4c-0.2,0-0.4,0-0.6-0.1c-0.9-0.5-1.8-0.5-2.7-0.6c-0.9-0.2-1.8-0.2-2.7,0
			c-0.3,0.1-0.7,0.2-1,0c-2-1-4.4-1.2-6.4-2.3c-1.3-0.7-2.6-1.5-4.2-1.1c0,0-0.1,0-0.1,0c-1.5-0.9-3.3-0.6-4.9-1
			c-0.4-0.1-0.9-0.2-1.3-0.2c-0.7,0.1-1.3-0.1-1.9-0.5c-0.2-0.2-0.5-0.3-0.8-0.3c-1.8-0.2-3.2-1.4-4.8-2.2c-1.6-0.8-3.3-1.5-5-2.2
			c-0.2-0.1-0.6-0.1-0.9,0c-1.1,0.3-2.1,0-3.1-0.3c-2.6-0.8-4.9-2.1-7.3-3.4c-0.6-0.3-1-0.9-1.6-1.2c-0.4-0.3-0.9-0.6-1.4-0.8
			c-1.1-0.4-2-1-2.5-2c-0.6-1.1-1.7-1.8-2.7-2.6c-1.8-1.5-3.6-2.9-5.4-4.4c-1-0.9-2-1.8-3-2.7c-0.3-0.3-0.5-0.6-0.8-0.9
			c-0.4-0.6-0.7-1.3-1.6-1.4c-0.2,0-0.5-0.4-0.7-0.7c-0.8-1.4-1.6-2.7-3.4-2.9c-0.7-0.8-1.4-1.6-2-2.4c-0.4-0.6-0.7-1.2-1.4-1.6
			c-0.3-0.2-0.5-0.6-0.8-0.8c-0.5-0.5-1-1-1.4-1.6c-0.1-0.1-0.2-0.2-0.3-0.3c-0.7-0.9-1.4-1.8-1.9-2.8c-0.4-0.7-0.7-1.6-1.5-2
			c-0.2-0.1-0.3-0.3-0.3-0.4c-0.4-2.2-2.1-3.8-2.6-5.9c-0.2-0.8-1-1.5-1.5-2.3c-1-1.2-1.6-2.7-2.9-3.7c-0.4-0.3-0.8-0.9-0.8-1.5
			c-0.1-1.3-0.8-2.2-1.4-3.3c-0.3-0.5-0.5-1-0.6-1.6c-0.3-1.5-0.8-2.9-1.7-4.1c-0.5-0.6-0.8-1.4-1.2-2.1c-0.1-0.2-0.3-0.6-0.4-0.7
			c-0.9-0.2-0.9-0.9-1-1.6c-0.3-1.8-0.6-3.6-1-5.4c-0.2-1-0.5-2.1-0.9-3c-0.6-1.7-1.3-3.3-2-5c-0.2-0.6-0.5-1.2-0.9-1.7
			c-0.1-0.2-0.6-0.3-0.9-0.2c-0.2,0.1-0.4,0.6-0.4,0.8c0.2,0.8,0.4,1.5,0,2.2c-0.1,0.2,0.1,0.6,0.3,0.7c1.8,1.3,2.3,3.3,2.7,5.3
			c0.9,3.9,1.6,7.8,2.5,11.6c0.6,2.4,1.5,4.8,2,7.3c0.8,3.7,1.4,7.5,1.6,11.3c0.1,1.2,0.3,2.4,0.3,3.6c0.2,4.8,1.1,9.5,1.9,14.2
			c0.9,5,2.1,9.9,4,14.7c1,2.5,2.3,4.8,3.9,6.9c1.6,2.1,3.2,4.3,4.9,6.3c2.2,2.6,4.9,4.8,7.6,6.9c2.2,1.7,4.4,3.5,6.7,5
			c1.9,1.3,4,2.4,6,3.4c3.2,1.6,6.4,3.2,9.6,4.7c4.4,2.1,8.9,3.6,13.8,4.2c4.3,0.6,8.5,1,12.8,1.2c3.4,0.1,6.8,0.3,10.3,0.6
			c4.5,0.4,9.1,0.7,13.5,1.5c5.4,1,10.4,3.1,14.3,7.3c0.5,0.5,1.1,1,1.1,1.9c0,0.3,0.3,0.7,0.6,0.9c0.7,0.7,1,1.5,0.8,2.5
			c-0.3,1.5-0.1,1.5,1.3,1.9c0.5,0.1,1,0.7,1.3,1.1c0.5,0.7,0.7,1.6,1.1,2.3c0.4,0.6,1,1.1,0.7,2c0,0.1,0.5,0.6,0.8,0.7
			c1.7,0.2,2.3,1.5,3.1,2.7c0.9,1.3,1.7,2.6,3.5,2.7c0.5,0,1.1,0.3,1.4,0.7c1,1.1,2,2.2,3,3.4C306.7,221.7,306.7,221.9,306.8,222z
			 M186.5,190.5c-0.1-0.4-0.2-0.9-0.8-0.8c-0.2,0-0.4,0.3-0.5,0.4c0,0.6,0.5,0.6,0.9,0.7c0,0.1,0,0.2,0,0.3c0.2,0.2,0.4,0.4,0.6,0.6
			c0,0,0.3-0.2,0.3-0.2c-0.1-0.3-0.1-0.6-0.3-0.8C186.8,190.6,186.6,190.5,186.5,190.5z M143.2,86.1c-0.3,1.5,0.5,2.8,0.9,4.2
			c0.3,1.3,0.9,1.4,1.9,0.6c0.5,0.1,0.8,0.3,1.2,0.4c0.1-0.4,0.3-0.8,0.4-1.2c0,0,0-0.1,0-0.1c0-0.6-0.2-1-0.9-1.2
			c-0.7-0.1-0.7,0.5-1,1c-0.4-1-0.8-2-1-3C144.5,85.7,144.4,85.6,143.2,86.1c-0.7-0.9-1-1-1.6-0.6c-0.7,0.5-1,1.5-0.7,2.3
			c0.7,1.8,1.3,3.7,2,5.5c0.1,0.3,0.3,0.6,0.5,0.8c0.2,0.1,0.5,0.2,0.8,0.1c0.2-0.1,0.3-0.4,0.3-0.6c0-0.2-0.1-0.5-0.1-0.7
			c-0.6-1.7-1.1-3.4-1.7-5C142.4,87.2,142.5,86.6,143.2,86.1z M117.8,85.9c0.1,0.2,0.2,0.2,0.2,0.2c0.2,0.6,0.4,1.3,1.2,1.2
			c0.7-0.2,0.6-0.9,0.6-1.5c-0.1-2.7,0.1-5.4,0.8-8c0.6-2,0.9-4.1,1.8-6c0.9-2,1.5-4.2,2.2-6.3c0.3-0.9,0.4-1.8,0.6-2.7
			c0-0.2-0.3-0.7-0.5-0.7c-0.2-0.1-0.6,0.1-0.8,0.4c-0.2,0.2-0.2,0.6-0.3,0.9c-0.9,2.6-1.7,5.1-2.6,7.7c-0.8,2.4-1.8,4.8-2.1,7.4
			c-0.1,1.1-0.3,2.3-0.7,3.4c-0.4,1.1-1,2-1.6,3c-0.9,1.6-1.3,3.4-1.4,5.3c-0.1,1.9-0.3,3.8-0.4,5.8c-0.3,3.4,0,6.7,1.6,9.8
			c1.3,2.4,2.4,4.9,3.7,7.4c0.2,0.4,0.4,0.8,0.7,1c0.5,0.4,1.1,0.1,1.2-0.5c0.1-0.3,0-0.7-0.1-1c-1.2-2.4-2.4-4.7-3.7-7
			c-1.5-2.7-2.2-5.5-2-8.6c0.2-2.4,0.4-4.9,0.6-7.3C116.8,88.4,117,87.1,117.8,85.9z M126.9,116.2c0.4-0.8,0.9-1.4,0.9-1.9
			c-0.1-0.9,0.1-1.9-0.9-2.6c-0.3-0.2-0.3-0.8-0.4-1.2c-0.1-0.6-0.1-1.2-0.3-1.8c-0.1-0.2-0.4-0.4-0.7-0.4c-0.2,0-0.5,0.4-0.5,0.6
			c0,1.1,0,2.1,0.1,3.2c0,0.2,0.2,0.5,0.3,0.6c0.9,0.9,1.2,1.7,0.4,2.9c-0.3,0.5,0,1.4,0.1,2.1c0,0.2,0.4,0.4,0.9,0.7
			C126.9,117.3,126.9,116.6,126.9,116.2z M173.2,136.4c-0.6,0.2-0.6,0.5-0.5,0.9c0.4,1.3,0.7,2.7,1.2,4c0.4,1,0.8,2,1.3,3
			c0.5,0.9,1,1.2,1.4,0.9c0.6-0.6,0.2-1.2-0.2-1.7c-1.1-1.6-1.8-3.4-2.1-5.3c-0.1-0.5-0.2-0.9-0.4-1.4
			C173.7,136.7,173.3,136.5,173.2,136.4z M133.8,68.1c0.2,0.8,0.4,1.7,0.8,2.4c0.2,0.4,0.6,0.8,1,0.5c0.2-0.2,0.3-0.6,0.4-1
			c0-0.2-0.2-0.4-0.2-0.7c-0.1-0.7-0.2-1.4-0.2-2.1c0-0.3,0.1-0.6,0.1-0.9c0-0.2-0.2-0.5-0.4-0.6c-0.2-0.1-0.5,0-0.6,0.2
			C133.9,66.5,133.9,67.2,133.8,68.1z M174.2,145.4c0-0.2,0-0.3-0.1-0.4c-0.5-1.1-0.9-2.2-1.4-3.3c-0.1-0.2-0.6-0.4-0.7-0.3
			c-0.2,0.2-0.5,0.6-0.4,0.8c0.4,1.2,0.8,2.4,1.3,3.5c0.1,0.2,0.6,0.3,0.8,0.3C173.9,146,174.1,145.6,174.2,145.4z M172.7,147.8
			c0.1-0.2,0.4-0.5,0.3-0.7c-0.4-0.6-0.9-1.2-1.4-1.7c-0.4-0.3-0.9,0.1-0.9,0.6C170.6,146.6,171.9,147.8,172.7,147.8z M137.8,67.5
			c0-0.1,0.1-0.3,0-0.5c-0.2-0.3-0.4-0.6-0.6-0.8c-0.3,0.2-0.5,0.5-0.8,0.7c-0.1,0.1-0.1,0.4-0.1,0.6c0,0.6,0,1.2,0.7,1.4
			C137.5,68.9,137.8,68.4,137.8,67.5z M120.7,65.6c0.2,0.2,0.4,0.6,0.7,0.6c0.4,0.1,0.6-0.3,0.5-0.8c0-0.3,0.2-0.6,0.2-0.9
			c0-0.3,0-0.7-0.2-0.8c-0.4-0.3-0.7,0-0.9,0.4C120.9,64.5,120.8,64.9,120.7,65.6z M160.2,134.3c0.2-0.1,0.4-0.3,0.6-0.5
			c-0.2-0.2-0.4-0.5-0.6-0.6c-0.4-0.2-0.9-0.3-1.4-0.3c-0.3,0-0.6,0.2-0.8,0.3c0.2,0.2,0.3,0.6,0.5,0.7
			C159,134.1,159.5,134.1,160.2,134.3z M292.9,221.3c-0.7-0.7-1.2-1.2-1.8-1.6c-0.4-0.2-0.9,0.5-0.6,0.8c0.4,0.5,1,0.9,1.5,1.2
			C292.1,221.8,292.5,221.5,292.9,221.3z M298.8,225.1c0-0.8-1.5-1.7-2-1.3c-0.2,0.1-0.3,0.6-0.2,0.7c0.5,0.4,1.1,0.7,1.6,1
			C298.3,225.5,298.6,225.2,298.8,225.1z M255,200.3c-0.5-0.5-1-0.9-1.5-1.3c-0.1-0.1-0.5,0.1-0.6,0.2c-0.1,0.1,0,0.5,0.1,0.6
			c0.3,0.4,0.6,0.7,1,1c0.1,0.1,0.4,0.1,0.5,0.1C254.7,200.8,254.8,200.6,255,200.3z M153.4,89.4c0.5,0.3,0.7,0.6,0.9,0.6
			c0.3,0,0.7-0.2,1-0.3c0.1,0,0.1-0.5,0.1-0.5c-0.3-0.1-0.7-0.3-1-0.3C154.2,88.9,153.9,89.2,153.4,89.4z M124.4,58.3
			c-0.4-0.3-0.7-0.6-0.9-0.7c-0.4-0.1-0.8,0.3-0.7,0.7c0,0.3,0.4,0.6,0.6,0.6C123.7,58.9,123.9,58.6,124.4,58.3z M159.8,128.9
			c-0.3-0.3-0.5-0.6-0.7-0.6c-0.5,0-0.8,0.4-0.7,0.9c0,0.2,0.3,0.4,0.5,0.6C159.1,129.5,159.4,129.2,159.8,128.9z M120.3,63.3
			c0.3-0.4,0.5-0.6,0.8-0.9c-0.2-0.2-0.4-0.5-0.7-0.6c-0.4-0.1-0.8,0.2-0.7,0.6C119.7,62.7,120,62.9,120.3,63.3z M167.2,121.9
			c-0.5-0.4-0.7-0.7-1-0.8c-0.2,0-0.5,0.3-0.8,0.4c0.2,0.2,0.4,0.6,0.7,0.7C166.3,122.3,166.7,122.1,167.2,121.9z M292.8,216.2
			c-0.4-0.3-0.7-0.6-0.9-0.6c-0.2,0-0.4,0.4-0.6,0.6c0.2,0.2,0.4,0.6,0.6,0.6C292.1,216.8,292.3,216.5,292.8,216.2z M163.7,151.7
			c0.4-0.5,0.6-0.9,0.8-1.2c0,0-0.4-0.4-0.4-0.4c-0.3,0.2-0.7,0.5-0.9,0.8C163.1,150.9,163.4,151.3,163.7,151.7z M167.9,162.8
			c-0.7,0.5-1.1,0.9-0.8,1.7C168.3,164.2,168.3,164.1,167.9,162.8z M172.3,162.2c0.3-0.4,0.5-0.7,0.6-1c0-0.1-0.6-0.5-0.7-0.5
			c-0.3,0.2-0.5,0.5-0.6,0.8C171.5,161.6,171.9,161.9,172.3,162.2z M243.1,197.3c-0.4-0.3-0.6-0.5-0.9-0.7c-0.2,0.2-0.5,0.5-0.5,0.7
			c0,0.4,0.2,0.8,0.7,0.7C242.6,197.8,242.8,197.6,243.1,197.3z M129.8,84.2c0.3-0.4,0.6-0.7,0.5-0.8c-0.2-0.3-0.4-0.5-0.7-0.7
			c-0.1,0-0.6,0.4-0.6,0.4C129.2,83.5,129.4,83.8,129.8,84.2z M146.5,50.3c0.3-0.5,0.6-0.8,0.6-1.1c0-0.1-0.5-0.5-0.7-0.5
			c-0.2,0-0.5,0.4-0.6,0.6C145.8,49.6,146.1,49.9,146.5,50.3z M289,211.4c0.8,0.8,1.1,0.8,1.8,0C290.2,211,289.7,210.7,289,211.4z
			 M248.7,201.9c-0.3-0.3-0.5-0.5-0.7-0.7c-0.2,0.2-0.5,0.5-0.6,0.8c0,0.1,0.3,0.6,0.5,0.6C248.1,202.5,248.3,202.2,248.7,201.9z
			 M167.5,120.7c0.4,0.3,0.7,0.6,0.9,0.6c0.2,0,0.5-0.3,0.7-0.5c-0.2-0.2-0.4-0.6-0.6-0.7C168.3,120.1,168,120.5,167.5,120.7z
			 M136.7,95.6c-0.4-0.3-0.6-0.7-0.9-0.7c-0.2,0-0.5,0.3-0.7,0.5c0.2,0.2,0.4,0.6,0.6,0.6C136,96.1,136.3,95.8,136.7,95.6z
			 M249.7,199.3c0.3-0.4,0.5-0.7,0.6-1c0-0.1-0.5-0.5-0.5-0.5c-0.3,0.2-0.5,0.4-0.7,0.7C249,198.7,249.4,199,249.7,199.3z
			 M125.5,52.7c-0.3,0.5-0.6,0.8-0.6,1c0.2,0.3,0.5,0.5,0.8,0.6c0.1,0,0.5-0.4,0.5-0.5C126.1,53.4,125.8,53.1,125.5,52.7z
			 M164.1,157.1c0.3,0.3,0.6,0.5,0.7,0.5c0.3-0.2,0.5-0.4,0.8-0.6c-0.2-0.2-0.4-0.6-0.5-0.5C164.7,156.6,164.5,156.8,164.1,157.1z
			 M179.7,175.5c-0.5-0.2-0.8-0.5-1-0.5c-0.2,0.1-0.4,0.4-0.5,0.7c0,0.1,0.4,0.5,0.6,0.4C179.1,176.1,179.3,175.8,179.7,175.5z
			 M267,203c-0.5-0.3-0.8-0.6-1-0.5c-0.2,0.1-0.5,0.4-0.5,0.7c0,0.1,0.4,0.5,0.6,0.5C266.3,203.6,266.5,203.4,267,203z M183.6,189.5
			c-0.3,0.2-0.6,0.2-0.7,0.4c-0.2,0.3-0.2,0.6-0.2,0.9c0,0,0.3,0.2,0.3,0.2c0.3-0.2,0.6-0.3,0.7-0.6
			C183.8,190.2,183.7,189.8,183.6,189.5z M167.1,113.1c-0.3-0.2-0.6-0.5-0.7-0.5c-0.3,0.1-0.5,0.3-0.7,0.5c0.2,0.2,0.4,0.6,0.6,0.6
			C166.5,113.7,166.8,113.4,167.1,113.1z M143.4,146.2c-0.4-0.2-0.7-0.5-0.8-0.4c-0.3,0.2-0.5,0.5-0.6,0.8c0,0.1,0.5,0.5,0.5,0.4
			C142.9,146.8,143.1,146.5,143.4,146.2z M148.4,55.1c-0.4-0.2-0.6-0.5-0.7-0.5c-0.3,0.2-0.5,0.5-0.8,0.7c0.2,0.2,0.4,0.5,0.6,0.5
			C147.7,55.7,148,55.5,148.4,55.1z M154.9,85.2c-0.3-0.3-0.5-0.7-0.7-0.7c-0.2,0-0.5,0.3-0.7,0.4c0.2,0.2,0.4,0.5,0.6,0.6
			C154.3,85.7,154.5,85.4,154.9,85.2z M146.9,154.3c-0.3,0.4-0.6,0.7-0.5,0.8c0.2,0.2,0.4,0.5,0.7,0.5c0.2,0,0.4-0.3,0.6-0.4
			C147.4,154.9,147.2,154.7,146.9,154.3z M235.4,197.5c-0.4-0.4-0.6-0.7-0.9-0.7c-0.2,0-0.5,0.3-0.7,0.5c0.2,0.2,0.3,0.5,0.5,0.5
			C234.6,197.9,234.9,197.7,235.4,197.5z M170.6,116.5c-0.2,0.4-0.5,0.6-0.5,0.9c0,0.2,0.4,0.5,0.5,0.5c0.2-0.1,0.5-0.4,0.6-0.6
			C171.3,117.1,170.9,116.8,170.6,116.5z M167.1,160.2c-0.2,0.4-0.5,0.7-0.5,0.9c0,0.2,0.4,0.3,0.6,0.5c0.2-0.2,0.5-0.5,0.5-0.7
			C167.7,160.8,167.4,160.6,167.1,160.2z M132.1,129.9c0.3-0.3,0.6-0.6,0.6-0.7c0-0.3-0.3-0.5-0.5-0.7c-0.2,0.2-0.6,0.3-0.6,0.5
			C131.6,129.2,131.9,129.5,132.1,129.9z M177.1,186.8c-0.3,0.4-0.6,0.7-0.7,1c0,0.1,0.2,0.3,0.3,0.5c0.3-0.2,0.6-0.4,0.8-0.6
			C177.6,187.6,177.3,187.3,177.1,186.8z M237.7,194.5c-0.3-0.2-0.5-0.4-0.6-0.4c-0.5,0-0.7,0.3-0.6,0.7c0,0.2,0.5,0.5,0.6,0.4
			C237.3,195.2,237.5,194.9,237.7,194.5z M263.7,199.7c-0.4-0.3-0.6-0.6-0.8-0.5c-0.3,0.1-0.4,0.4-0.7,0.6c0.2,0.2,0.4,0.5,0.5,0.5
			C263.1,200.2,263.3,199.9,263.7,199.7z M294.4,213.2c-0.4-0.3-0.7-0.6-0.9-0.6c-0.2,0-0.5,0.3-0.7,0.5c0.2,0.2,0.4,0.6,0.6,0.6
			C293.7,213.7,294,213.5,294.4,213.2z M264.8,217.6c-0.3,0.3-0.5,0.5-0.7,0.6c0.2,0.2,0.4,0.5,0.7,0.6c0.2,0,0.4-0.3,0.6-0.4
			C265.2,218.2,265.1,218,264.8,217.6z M254.7,221c-0.4-0.3-0.6-0.6-0.8-0.5c-0.3,0.1-0.4,0.4-0.6,0.6c0.2,0.2,0.4,0.5,0.6,0.5
			C254.1,221.6,254.3,221.3,254.7,221z M269.7,223.3c-0.5-0.3-0.7-0.5-1-0.6c-0.2,0-0.4,0.2-0.7,0.4c0.2,0.2,0.4,0.6,0.6,0.6
			C268.9,223.8,269.2,223.5,269.7,223.3z M289.3,226.3c0.2-0.4,0.5-0.7,0.5-0.9c-0.1-0.2-0.4-0.4-0.7-0.5c-0.1,0-0.5,0.4-0.4,0.6
			C288.7,225.7,289,225.9,289.3,226.3z M134.3,85.7c-0.4-0.3-0.6-0.6-0.8-0.5c-0.2,0.1-0.5,0.4-0.6,0.6c0,0.1,0.4,0.5,0.5,0.5
			C133.7,86.2,133.9,85.9,134.3,85.7z M275,221.9c0.3-0.3,0.6-0.5,0.6-0.7c0-0.2-0.4-0.5-0.5-0.5c-0.2,0-0.5,0.3-0.6,0.5
			C274.5,221.4,274.8,221.6,275,221.9z M225.7,219.2c-0.4-0.2-0.6-0.5-0.8-0.5c-0.2,0-0.4,0.3-0.6,0.5c0.2,0.2,0.3,0.5,0.5,0.5
			C225,219.7,225.3,219.4,225.7,219.2z M126.3,56.8c-0.3,0.5-0.5,0.7-0.5,1c0,0.2,0.4,0.5,0.6,0.5c0.2,0,0.6-0.3,0.5-0.5
			C126.9,57.5,126.6,57.2,126.3,56.8z M152.6,61.1c-0.4-0.2-0.6-0.5-0.8-0.5c-0.2,0-0.4,0.3-0.6,0.5c0.2,0.2,0.3,0.5,0.5,0.5
			C152,61.6,152.2,61.4,152.6,61.1z M268.9,201.8c-0.3-0.3-0.5-0.7-0.6-0.6c-0.3,0.1-0.5,0.3-0.7,0.5c0.2,0.2,0.3,0.5,0.5,0.5
			C268.4,202.3,268.6,202,268.9,201.8z M163,136.1c-0.4-0.2-0.7-0.5-0.9-0.5c-0.1,0-0.4,0.4-0.4,0.6c0,0.2,0.4,0.5,0.6,0.5
			C162.4,136.7,162.7,136.4,163,136.1z M258.5,202.4c0.3-0.3,0.6-0.5,0.6-0.8c0-0.1-0.4-0.6-0.4-0.5c-0.3,0.1-0.5,0.3-0.7,0.6
			C258,201.7,258.3,202,258.5,202.4z M154.8,78c-0.2,0.4-0.5,0.7-0.4,0.8c0.1,0.2,0.4,0.4,0.7,0.5c0.1,0,0.5-0.4,0.4-0.5
			C155.4,78.5,155.1,78.3,154.8,78z M144.1,151.1c-0.4-0.2-0.7-0.5-1-0.5c-0.2,0-0.4,0.3-0.6,0.5c0.2,0.2,0.5,0.4,0.7,0.5
			C143.4,151.6,143.7,151.4,144.1,151.1z M135,141.2c0.3-0.3,0.6-0.4,0.6-0.6c0-0.2-0.3-0.6-0.4-0.6c-0.3,0.1-0.5,0.3-0.7,0.5
			C134.6,140.7,134.8,140.9,135,141.2z M142,96.5c-0.4-0.3-0.6-0.6-0.8-0.5c-0.3,0.1-0.5,0.4-0.7,0.6c0.2,0.2,0.4,0.5,0.5,0.5
			C141.4,97,141.6,96.7,142,96.5z M134.9,135.2c-0.2,0.4-0.5,0.6-0.5,0.8c0.1,0.2,0.4,0.5,0.6,0.5c0.1,0,0.5-0.4,0.5-0.5
			C135.4,135.8,135.2,135.6,134.9,135.2z M175.2,180.5c-0.2,0.3-0.5,0.5-0.5,0.7c0,0.2,0.3,0.5,0.5,0.5c0.2,0,0.5-0.3,0.5-0.5
			C175.8,181,175.5,180.8,175.2,180.5z M140.4,146.4c-0.2,0.4-0.5,0.6-0.5,0.9c0,0.1,0.3,0.3,0.4,0.5c0.2-0.2,0.4-0.4,0.6-0.7
			C140.9,146.9,140.6,146.7,140.4,146.4z M152.2,55c-0.3,0.3-0.6,0.4-0.6,0.6c0,0.2,0.3,0.5,0.5,0.5c0.2,0,0.5-0.2,0.6-0.4
			C152.7,55.6,152.4,55.3,152.2,55z M156.4,61.3c-0.4-0.2-0.7-0.4-0.9-0.4c-0.2,0-0.5,0.3-0.5,0.5c0,0.2,0.2,0.5,0.4,0.6
			C155.6,61.9,155.8,61.7,156.4,61.3z M287.2,221.1c-0.4-0.2-0.6-0.4-0.8-0.4c-0.2,0-0.4,0.3-0.5,0.5c0.2,0.2,0.4,0.4,0.6,0.4
			C286.6,221.7,286.8,221.4,287.2,221.1z M118.9,69.8c-0.4-0.2-0.6-0.5-0.8-0.4c-0.2,0-0.3,0.3-0.5,0.5c0.2,0.2,0.4,0.4,0.6,0.4
			C118.4,70.3,118.6,70.1,118.9,69.8z M288,217.5c-0.3,0.3-0.5,0.5-0.5,0.6c0.1,0.3,0.3,0.5,0.4,0.8c0.2-0.2,0.6-0.3,0.6-0.5
			C288.4,218.2,288.2,217.9,288,217.5z M171.8,167.6c-0.4-0.2-0.7-0.4-1-0.4c-0.1,0-0.4,0.4-0.4,0.4c0.2,0.2,0.4,0.5,0.6,0.6
			C171.2,168.2,171.5,167.9,171.8,167.6z M157.3,83.4c-0.4-0.2-0.6-0.4-0.8-0.4c-0.2,0-0.3,0.3-0.5,0.5c0.2,0.1,0.4,0.4,0.6,0.4
			C156.8,84,157,83.7,157.3,83.4z M249.8,223.8c-0.3-0.3-0.6-0.5-0.7-0.5c-0.3,0.1-0.5,0.4-0.7,0.6c0.2,0.2,0.3,0.5,0.5,0.4
			C249.1,224.3,249.4,224.1,249.8,223.8z M132.3,85.7c-0.3-0.2-0.6-0.5-0.7-0.4c-0.3,0.1-0.5,0.3-0.7,0.5c0.2,0.2,0.3,0.4,0.4,0.4
			C131.6,86.2,131.9,86,132.3,85.7z M158.3,88.6c-0.3,0.3-0.6,0.4-0.6,0.6c0,0.2,0.3,0.5,0.5,0.5c0.2,0,0.5-0.2,0.6-0.4
			C158.8,89.2,158.6,88.9,158.3,88.6z M252.6,196.9c-0.3-0.3-0.5-0.6-0.6-0.6c-0.3,0.1-0.5,0.3-0.8,0.4c0.1,0.2,0.3,0.5,0.4,0.5
			C251.9,197.3,252.1,197.1,252.6,196.9z M182.2,186.4c0.1-0.1,0.1-0.3,0.2-0.4c-0.2-0.1-0.5-0.3-0.6-0.2c-0.3,0.1-0.5,0.4-0.6,0.6
			c0,0.1,0.3,0.5,0.4,0.5C181.7,186.8,181.9,186.6,182.2,186.4z M167.4,149.6c-0.3-0.3-0.5-0.7-0.6-0.6c-0.3,0-0.5,0.3-0.7,0.5
			c0.2,0.2,0.3,0.5,0.5,0.5C166.8,150,167,149.7,167.4,149.6z M240.1,200.4c-0.2-0.3-0.4-0.5-0.5-0.5c-0.2,0-0.5,0.2-0.7,0.3
			c0.1,0.2,0.3,0.5,0.4,0.6C239.5,200.8,239.8,200.6,240.1,200.4z M150.4,53.1c0.2-0.3,0.5-0.5,0.5-0.6c-0.2-0.2-0.4-0.4-0.6-0.6
			c-0.1,0.2-0.4,0.4-0.4,0.5C149.9,52.7,150.1,52.8,150.4,53.1z M118.2,68.7c0.2-0.3,0.5-0.4,0.5-0.7c0-0.1-0.3-0.5-0.4-0.4
			c-0.2,0.1-0.4,0.4-0.7,0.5C117.8,68.3,118,68.5,118.2,68.7z M177.5,181.8c-0.2,0.3-0.5,0.5-0.5,0.7c0,0.2,0.3,0.3,0.5,0.5
			c0.2-0.2,0.4-0.4,0.4-0.6C178,182.3,177.7,182.1,177.5,181.8z M133.4,79.2c-0.3-0.3-0.5-0.5-0.7-0.6c-0.1,0-0.4,0.2-0.5,0.3
			c0.1,0.2,0.2,0.5,0.4,0.6C132.7,79.6,133,79.4,133.4,79.2z M173.4,172.1c0.2-0.3,0.5-0.5,0.4-0.7c0-0.2-0.4-0.5-0.5-0.4
			c-0.2,0-0.4,0.3-0.5,0.5C172.8,171.6,173.1,171.8,173.4,172.1z M172.1,172.1c-0.4-0.2-0.6-0.4-0.8-0.4c-0.1,0-0.3,0.3-0.4,0.4
			c0.2,0.2,0.4,0.5,0.6,0.5C171.6,172.7,171.8,172.4,172.1,172.1z M183.9,184.8c0.2-0.2,0.4-0.4,0.5-0.6c-0.2-0.2-0.4-0.4-0.6-0.6
			c-0.1,0.2-0.4,0.4-0.4,0.5C183.5,184.3,183.7,184.5,183.9,184.8z M261,201.1c-0.2,0.3-0.4,0.5-0.4,0.6c0.1,0.2,0.4,0.4,0.5,0.5
			c0.2-0.2,0.3-0.4,0.5-0.6C261.5,201.5,261.3,201.4,261,201.1z M136.6,80.5c-0.2,0.3-0.4,0.5-0.4,0.6c0.1,0.2,0.3,0.5,0.6,0.5
			c0.2,0,0.3-0.3,0.5-0.5C137,80.9,136.8,80.8,136.6,80.5z M239.3,195.9c-0.3-0.2-0.5-0.4-0.6-0.4c-0.2,0.1-0.4,0.3-0.6,0.4
			c0.2,0.2,0.4,0.5,0.5,0.5C238.8,196.4,239,196.2,239.3,195.9z M161.5,148.8c0.2-0.3,0.4-0.5,0.5-0.7c0-0.1-0.4-0.4-0.4-0.4
			c-0.2,0.1-0.4,0.4-0.6,0.6C161.1,148.5,161.3,148.6,161.5,148.8z M300.5,218.8c-0.3-0.2-0.5-0.4-0.7-0.4c-0.2,0.1-0.4,0.3-0.6,0.5
			c0.2,0.2,0.4,0.5,0.6,0.5C300,219.3,300.2,219.1,300.5,218.8z M151.8,155.6c-0.2,0.3-0.4,0.5-0.6,0.6c0.2,0.2,0.4,0.3,0.6,0.5
			c0.2-0.2,0.4-0.4,0.5-0.6C152.3,156,152,155.8,151.8,155.6z M227.9,216.1c0.3-0.3,0.6-0.5,0.6-0.7c0-0.2-0.3-0.4-0.5-0.5
			c-0.1,0-0.5,0.2-0.5,0.4C227.5,215.5,227.7,215.8,227.9,216.1z M257.5,222.6c-0.3-0.2-0.5-0.5-0.6-0.4c-0.2,0-0.4,0.3-0.6,0.4
			c0.2,0.2,0.3,0.5,0.5,0.5C257,223.1,257.2,222.9,257.5,222.6z M260.6,223c-0.2,0.3-0.5,0.6-0.5,0.8c0,0.2,0.4,0.5,0.6,0.5
			c0.2,0,0.5-0.4,0.5-0.6C261.2,223.5,260.9,223.3,260.6,223z M270.7,224.2c0.2-0.3,0.4-0.5,0.5-0.7c0-0.1-0.4-0.4-0.4-0.4
			c-0.2,0.2-0.4,0.4-0.6,0.6C270.3,223.8,270.5,224,270.7,224.2z M169,156.3c-0.3-0.2-0.5-0.5-0.6-0.4c-0.2,0.1-0.4,0.4-0.6,0.6
			c0.2,0.1,0.4,0.4,0.5,0.3C168.5,156.7,168.7,156.5,169,156.3z M244.9,193.5c-0.2,0.3-0.4,0.5-0.5,0.7c0,0.1,0.3,0.4,0.5,0.4
			c0.2,0,0.4-0.3,0.6-0.4C245.3,194,245.2,193.8,244.9,193.5z M258.4,196.9c0.2-0.3,0.4-0.5,0.5-0.7c-0.2-0.1-0.4-0.4-0.6-0.4
			c-0.2,0-0.4,0.3-0.4,0.6C257.9,196.5,258.2,196.7,258.4,196.9z M222,217.5c0.3-0.3,0.5-0.4,0.6-0.7c0-0.1-0.2-0.3-0.3-0.5
			c-0.2,0.2-0.5,0.3-0.6,0.6C221.6,216.9,221.9,217.2,222,217.5z M233.4,218.5c-0.2,0.3-0.5,0.5-0.5,0.7c0,0.1,0.3,0.5,0.4,0.4
			c0.2-0.1,0.5-0.3,0.6-0.5C233.8,219.1,233.6,218.8,233.4,218.5z M246,199.8c-0.3-0.2-0.5-0.4-0.6-0.4c-0.2,0.1-0.3,0.3-0.5,0.5
			c0.2,0.1,0.4,0.3,0.5,0.3C245.6,200.2,245.7,200,246,199.8z M138,86.9c-0.2,0.3-0.5,0.5-0.4,0.6c0.1,0.2,0.4,0.3,0.5,0.5
			c0.1-0.2,0.3-0.4,0.3-0.5C138.5,87.3,138.2,87.2,138,86.9z M138.6,96.3c0.2-0.3,0.5-0.5,0.5-0.7c0-0.1-0.3-0.5-0.4-0.4
			c-0.2,0.1-0.4,0.3-0.5,0.5C138.1,95.8,138.4,96,138.6,96.3z M267.4,198.4c-0.3-0.2-0.5-0.5-0.6-0.4c-0.2,0.1-0.4,0.3-0.6,0.5
			c0.2,0.1,0.4,0.3,0.6,0.3C266.9,198.8,267.1,198.6,267.4,198.4z M158.2,78c-0.3-0.2-0.5-0.4-0.7-0.5c-0.1,0-0.4,0.3-0.4,0.3
			c0.1,0.2,0.3,0.5,0.5,0.6C157.6,78.5,157.8,78.2,158.2,78z M137.6,91.7c-0.3-0.2-0.5-0.4-0.7-0.5c-0.1,0-0.4,0.4-0.4,0.4
			c0.1,0.2,0.3,0.4,0.5,0.5C137.1,92.2,137.3,92,137.6,91.7z M296.3,220.1c0.2-0.3,0.4-0.5,0.4-0.6c-0.1-0.2-0.4-0.3-0.6-0.4
			c-0.1,0.2-0.4,0.4-0.3,0.5C295.8,219.7,296,219.9,296.3,220.1z M238.9,221.3c0.1-0.1,0.2-0.2,0.2-0.4c-0.2-0.1-0.4-0.2-0.6-0.2
			c-0.2,0-0.5,0.2-0.5,0.3c0,0.1,0.2,0.5,0.2,0.5C238.4,221.6,238.6,221.4,238.9,221.3z M148,158.5c-0.2,0.3-0.5,0.5-0.5,0.7
			c0,0.1,0.4,0.4,0.4,0.4c0.2-0.1,0.4-0.3,0.6-0.5C148.5,159,148.2,158.8,148,158.5z M287.9,212c-0.4-0.2-0.6-0.4-0.8-0.4
			c-0.1,0-0.3,0.3-0.4,0.5c0.2,0.1,0.4,0.3,0.6,0.4C287.4,212.5,287.6,212.2,287.9,212z M177.1,173c-0.4-0.2-0.6-0.4-0.9-0.4
			c-0.1,0-0.4,0.3-0.4,0.5c0,0.2,0.3,0.4,0.4,0.4C176.6,173.4,176.8,173.2,177.1,173z M165.6,116.8c-0.2,0.3-0.4,0.5-0.4,0.6
			c0,0.1,0.3,0.4,0.4,0.4c0.2,0,0.4-0.3,0.4-0.4C166.1,117.3,165.8,117.1,165.6,116.8z M139.6,145.1c0.2-0.4,0.4-0.7,0.3-0.8
			c0-0.2-0.3-0.4-0.4-0.6c-0.1,0.2-0.4,0.3-0.4,0.5C139.1,144.3,139.3,144.5,139.6,145.1z M221.5,150.2c-0.3-0.2-0.5-0.5-0.6-0.4
			c-0.2,0.1-0.4,0.3-0.6,0.5c0.1,0.2,0.3,0.4,0.4,0.4C221,150.6,221.2,150.4,221.5,150.2z M161.8,140.4c0.2-0.3,0.4-0.5,0.4-0.7
			c0-0.1-0.4-0.4-0.5-0.3c-0.2,0.1-0.4,0.3-0.5,0.6C161.2,140,161.5,140.1,161.8,140.4z M140,138.7c-0.3-0.2-0.5-0.5-0.6-0.5
			c-0.2,0.1-0.4,0.3-0.6,0.4c0.1,0.2,0.3,0.5,0.4,0.4C139.4,139.1,139.6,138.9,140,138.7z M169.1,114.8c-0.3-0.2-0.5-0.4-0.7-0.4
			c-0.2,0-0.3,0.3-0.4,0.5c0.2,0.1,0.3,0.4,0.5,0.4C168.7,115.3,168.8,115.1,169.1,114.8z M132.6,135.7c-0.3-0.2-0.4-0.4-0.6-0.4
			c-0.2,0-0.3,0.3-0.5,0.4c0.1,0.2,0.3,0.4,0.4,0.4C132.2,136.1,132.3,135.9,132.6,135.7z M137.2,142c0.2-0.3,0.4-0.5,0.4-0.7
			c0-0.2-0.3-0.4-0.5-0.4c-0.1,0-0.4,0.3-0.4,0.5C136.8,141.6,137,141.8,137.2,142z M146.4,150.9c-0.4,0.4-0.6,0.6-0.6,0.8
			c0,0.1,0.3,0.4,0.4,0.4c0.2-0.1,0.5-0.3,0.5-0.5C146.8,151.5,146.6,151.3,146.4,150.9z M225.4,152.5c-0.3-0.2-0.4-0.5-0.6-0.5
			c-0.2,0-0.3,0.2-0.5,0.3c0.1,0.2,0.2,0.4,0.4,0.5C224.9,152.9,225.1,152.7,225.4,152.5z M176.9,177.1c-0.3-0.2-0.5-0.4-0.6-0.4
			c-0.2,0-0.3,0.3-0.4,0.4c0.2,0.1,0.3,0.4,0.5,0.4C176.5,177.5,176.7,177.3,176.9,177.1z M237.5,217.8c-0.3-0.2-0.4-0.4-0.6-0.4
			c-0.2,0-0.3,0.2-0.5,0.4c0.1,0.2,0.3,0.4,0.4,0.4C237,218.2,237.2,218,237.5,217.8z M231.4,219.5c-0.2-0.2-0.3-0.4-0.4-0.4
			c-0.2,0-0.4,0.2-0.6,0.3c0.1,0.2,0.2,0.5,0.3,0.5C230.9,219.9,231.1,219.7,231.4,219.5z M161.2,128.6c-0.3-0.2-0.5-0.3-0.8-0.4
			c0,0-0.3,0.3-0.2,0.4c0.1,0.2,0.3,0.3,0.5,0.4C160.8,128.9,160.9,128.7,161.2,128.6z M295.8,216.8c-0.2,0.2-0.4,0.4-0.4,0.5
			c0.1,0.2,0.2,0.4,0.4,0.5c0.1,0,0.4-0.2,0.4-0.3C296.1,217.3,295.9,217.1,295.8,216.8z"/>
		<path class="st0" d="M7.8,176.2c0.2-0.9,0.5-1.8,0.6-2.7c0.1-0.7,0.6-0.9,1.2-1c2,0,4,0,5.8,0.8c0.2,0.1,0.4,0.2,0.5,0.2
			c0.4,0,0.9,0,1.1-0.3c0.4-0.4,0.1-0.9-0.3-1.2c-0.7-0.4-1.4-0.9-2.1-1.1c-1.5-0.4-2.6-1.4-3.9-2.1c1.1-1.4,1.7-2.9,2.3-4.4
			c0.3-0.7,0.7-1.2,1.4-1.5c3.3-1.3,6.5-2.6,9.8-3.9c0.6-0.2,1.2-0.3,1.8-0.3c3.2,0.1,6.4,0.2,9.6,0.3c1.8,0,3.7,0,5.5-0.1
			c2.9-0.1,5.9-0.4,8.8-0.6c1.1-0.1,2.1-0.2,3.2-0.2c1.4,0,2.8,0.1,4.2,0.2c3.9,0.5,7.7,0.3,11.6,0.3c2.5,0,5-0.1,7.5,0
			c2.6,0.1,5.1,0.4,7.6,0.6c1.2,0.1,2.3,0.2,3.5,0.3c5.1,0.1,10.2,0.2,15.4,0.3c2.6,0,5.2-0.1,7.8-0.2c0.2,0,0.5,0,0.7,0
			c4.3,0.5,8.7,0.3,13,0c0.3,0,0.7,0,1,0c1,0.1,1.1,0.2,1,1.3c-0.5,4.3-1,8.6-2.2,12.8c-0.7,2.5-1.7,4.9-3,7.2
			c-0.1,0.1-0.2,0.2-0.3,0.4c-2.9,3.4-6.3,6.3-10.5,7.9c-4,1.5-8.1,3-12.1,4.5c-1.7,0.7-3.4,1.4-5.1,2.1c-2.5,1-5,1.7-7.7,2.1
			c-2.2,0.3-4.4,1.1-6.6,1.6c-2.3,0.5-4.6,1-7,1.2c-4.1,0.3-8.1,0-12.1-0.9c-1.4-0.3-2.8-0.9-4.1-1.4c-1.5-0.5-2.9-1.2-4.4-1.7
			c-1.4-0.5-2.9-1-4.3-1.6c-2.3-0.9-4.6-1.8-6.8-2.8c-2-0.8-4-1.7-6-2.6c-1.5-0.7-3-1.6-4.4-2.5c-1.3-0.7-2.5-1.5-3.7-2.2
			c-2.5-1.5-5-2.9-7.5-4.4c-0.3-0.2-0.4-0.5-0.7-0.7c-0.2-0.2-0.5-0.3-0.7-0.4c-3.1-1-6.1-1.9-9.2-2.9C8,176.5,8,176.4,7.8,176.2z
			 M98.3,179.2c-0.3,0-0.6,0-0.8,0.1c-0.2,0.1-0.2,0.4-0.4,0.7c0.3,0,0.7,0.2,0.8,0.1C98.2,179.9,98.2,179.5,98.3,179.2
			c0.3-0.1,0.6-0.2,1.1-0.3C98.5,178.4,98.5,178.4,98.3,179.2z M19.7,170.5c0.2-0.5,0.3-0.9,0.4-1.2c0.2-0.8-0.1-1.2-0.8-1.4
			c-1.3-0.3-2.6-0.5-3.6-1.3c-0.2-0.1-0.7,0.1-1,0.2c0.1,0.3,0.1,0.8,0.3,1c0.6,0.4,1.3,0.7,2,1c0.3,0.2,0.8,0.1,1.1,0.8
			c-0.6-0.1-1-0.2-1.4-0.3c-0.6-0.2-1.2-0.5-1.5,0.2c-0.2,0.7,0.5,0.9,1,1.1c0.9,0.4,1.8,0.9,2.7,1.3c1,0.4,2,0.7,3,1
			c0.5,0.1,0.9-0.1,1-0.6c0.1-0.5-0.2-0.8-0.7-0.9c-0.3-0.1-0.7-0.1-1-0.2C20.6,171,20.2,170.8,19.7,170.5z M18.3,166.5
			c0.3-0.1,0.9-0.2,1.1-0.5c0.4-0.5,0.7-1.3,0.9-1.9c0.1-0.3,0-0.7-0.2-0.9c-0.1-0.1-0.5-0.1-0.8-0.1c-1.4,0.3-2,1.4-2.5,2.5
			c-0.1,0.2,0.1,0.6,0.3,0.8C17.4,166.5,17.8,166.5,18.3,166.5z M62,175.5c0-0.7-0.6-1.1-1.5-1c-0.9,0.2-1.8,0.5-2.7,0.9
			c-0.3,0.1-0.7,0.5-0.6,0.6c0.2,0.4,0.4,0.8,0.8,1.1c0.1,0.1,0.8,0,0.8-0.2c0.5-1,1.2-0.9,2.1-0.6C61.6,176.6,62.1,176.2,62,175.5z
			 M20.6,175c0.3-0.2,0.9-0.4,1-0.7c0.2-0.6-0.3-0.8-0.8-0.9c-0.4-0.1-0.7-0.3-1.1-0.3c-0.2,0-0.6,0.2-0.7,0.4
			c-0.1,0.2,0,0.6,0.2,0.7C19.6,174.5,20,174.6,20.6,175z M51.6,176.2c-0.2-0.2-0.4-0.5-0.5-0.5c-0.7,0.2-1.4,0.5-2.1,0.8
			c-0.1,0-0.1,0.5,0,0.6c0,0.1,0.3,0.2,0.5,0.2c0.6-0.2,1.2-0.4,1.7-0.6C51.4,176.6,51.4,176.4,51.6,176.2z M73.9,179.2
			c-0.1,0.1-0.4,0.3-0.7,0.5c0.2,0.2,0.4,0.4,0.7,0.6c0.3,0.2,0.6,0.4,0.9,0.5c0.3,0,0.7-0.1,0.8-0.3c0.3-0.4,0.1-0.8-0.3-0.9
			C74.9,179.4,74.5,179.4,73.9,179.2z M122,176.4c-0.5,0.1-0.9,0.1-1.2,0.3c-0.3,0.2-0.6,0.5-0.6,0.8c0,0.4,0.5,0.5,0.9,0.4
			c0.4-0.1,0.7-0.3,1-0.5c0.2-0.1,0.3-0.4,0.3-0.7C122.5,176.6,122.1,176.5,122,176.4z M83.1,177.2c-0.7-0.5-1.4-0.1-2-0.1
			c-0.1,0-0.3,0.4-0.3,0.6c0,0.2,0.2,0.4,0.4,0.5C81.7,178.4,82.6,177.9,83.1,177.2z M66,180.9c0-0.1-0.1-0.3-0.1-0.4
			c-0.3,0-0.7-0.1-1,0c-0.5,0.2-0.9,0.6-1.3,0.9c-0.1,0,0,0.3,0,0.4c0.1,0.1,0.4,0.3,0.5,0.2C64.8,181.6,65.4,181.2,66,180.9z
			 M18.2,175.6c-0.3-0.1-0.6-0.3-0.9-0.4c-0.6,0-1.1,0.5-0.9,0.8c0.2,0.3,0.6,0.5,0.9,0.5C17.7,176.6,18.1,176.4,18.2,175.6z
			 M69.5,177.9c-0.1,0-0.3,0-0.4,0c-0.2,0.4-0.5,0.8-0.5,1.2c-0.1,0.4,0.2,0.8,0.7,0.7c0.6-0.1,0.7-0.6,0.6-1
			C69.8,178.5,69.6,178.2,69.5,177.9z M42.3,172c-0.4,0.6-0.6,0.9-0.7,1.2c0,0.5,0.3,0.9,0.8,0.8c0.2,0,0.5-0.5,0.5-0.8
			C42.9,172.9,42.6,172.6,42.3,172z M34.8,174.4c-0.3,0.6-0.6,1-0.6,1.3c0,0.1,0.5,0.5,0.7,0.5c0.3-0.1,0.6-0.4,0.7-0.7
			C35.5,175.2,35.2,175,34.8,174.4z M37.4,176.3c0.5,0.3,0.8,0.5,1.3,0.7c0.1,0,0.4-0.2,0.5-0.4c0.1-0.1,0-0.3,0-0.4
			C38.9,175.8,38.2,175.8,37.4,176.3z M41.3,173.8c-0.4-0.3-0.7-0.6-0.9-0.6c-0.2,0-0.6,0.4-0.6,0.6c0,0.2,0.4,0.6,0.6,0.6
			C40.7,174.4,40.9,174.1,41.3,173.8z M45.1,178.5c-0.4-0.3-0.6-0.6-0.8-0.6c-0.2,0-0.6,0.4-0.6,0.6c0,0.2,0.3,0.6,0.6,0.6
			C44.4,179.1,44.7,178.8,45.1,178.5z M25.3,173.4c-0.4-0.2-0.7-0.5-0.8-0.5c-0.3,0.1-0.5,0.4-0.8,0.7c0.2,0.2,0.5,0.5,0.7,0.5
			C24.7,174,24.9,173.7,25.3,173.4z M56.2,171.8c-0.4-0.3-0.7-0.5-0.9-0.5c-0.2,0-0.5,0.4-0.5,0.5c0.1,0.3,0.3,0.6,0.6,0.6
			C55.5,172.4,55.7,172.1,56.2,171.8z M68.3,181.7c-0.4-0.3-0.6-0.6-0.9-0.6c-0.2,0-0.6,0.3-0.5,0.5c0,0.3,0.3,0.6,0.5,0.7
			C67.6,182.3,67.9,182,68.3,181.7z M29.5,175.8c-0.4-0.3-0.7-0.6-0.8-0.5c-0.3,0.2-0.5,0.5-0.7,0.7c0.2,0.2,0.4,0.5,0.6,0.5
			C28.9,176.4,29.1,176.1,29.5,175.8z M25.9,172.2c0.3-0.4,0.5-0.6,0.5-0.9c0-0.1-0.4-0.5-0.6-0.4c-0.3,0.1-0.5,0.3-0.7,0.5
			C25.4,171.7,25.6,171.9,25.9,172.2z M36.6,174.1c0.3-0.3,0.4-0.5,0.6-0.8c-0.2-0.2-0.5-0.5-0.6-0.4c-0.3,0.1-0.5,0.4-0.7,0.5
			C36.1,173.6,36.3,173.8,36.6,174.1z M54.7,173.8c-0.1-0.1-0.1-0.3-0.2-0.4c-0.3-0.1-0.5-0.4-0.8-0.3c-0.2,0-0.3,0.4-0.5,0.6
			c0.2,0.2,0.5,0.4,0.7,0.5C54.1,174.1,54.4,173.9,54.7,173.8z M64.9,178.5c0.3-0.4,0.5-0.7,0.6-1c0-0.1-0.4-0.5-0.4-0.4
			c-0.3,0.2-0.6,0.4-0.8,0.7C64.3,177.7,64.6,178.1,64.9,178.5z M120.8,180.4c-0.4-0.2-0.7-0.5-0.9-0.5c-0.2,0-0.3,0.3-0.5,0.5
			c0.2,0.2,0.5,0.5,0.7,0.5C120.2,181,120.4,180.7,120.8,180.4z M82.8,180.4c-0.3,0.4-0.6,0.7-0.6,0.9c0,0.2,0.4,0.5,0.7,0.5
			c0.1,0,0.5-0.4,0.5-0.5C83.4,181,83.1,180.8,82.8,180.4z M34.3,173.9c-0.4-0.3-0.6-0.6-0.7-0.6c-0.3,0.1-0.6,0.4-0.8,0.6
			c0.2,0.2,0.4,0.4,0.6,0.5C33.6,174.3,33.9,174.1,34.3,173.9z M94.1,181.6c-0.4-0.2-0.6-0.5-0.8-0.5c-0.2,0.1-0.4,0.4-0.6,0.6
			c0.2,0.2,0.4,0.5,0.6,0.5C93.5,182.2,93.7,181.9,94.1,181.6z M31.4,172.1c-0.3,0.4-0.6,0.6-0.7,0.8c0,0.1,0.3,0.5,0.5,0.5
			c0.2,0,0.5-0.3,0.6-0.5C31.9,172.8,31.6,172.5,31.4,172.1z M114.4,183.7c-0.4-0.3-0.6-0.5-0.8-0.6c-0.2,0-0.6,0.4-0.5,0.5
			c0.1,0.3,0.3,0.5,0.6,0.6C113.8,184.3,114.1,184,114.4,183.7z M77.7,177.5c-0.3-0.3-0.5-0.5-0.7-0.5c-0.2,0-0.4,0.3-0.6,0.4
			c0.2,0.2,0.3,0.5,0.5,0.5C77.1,178,77.3,177.7,77.7,177.5z M118.7,182c-0.3-0.2-0.5-0.6-0.6-0.6c-0.2,0-0.5,0.4-0.5,0.5
			c0,0.2,0.3,0.4,0.5,0.5C118.2,182.5,118.5,182.3,118.7,182z M27.7,171.1c0.2-0.4,0.4-0.6,0.4-0.8c0-0.1-0.4-0.4-0.4-0.4
			c-0.2,0.1-0.5,0.3-0.5,0.5C27.1,170.6,27.4,170.8,27.7,171.1z M96.6,180.5c-0.3-0.3-0.5-0.6-0.7-0.6c-0.2,0-0.4,0.3-0.6,0.4
			c0.1,0.2,0.3,0.4,0.4,0.5C95.9,180.9,96.2,180.7,96.6,180.5z M49,173.4c-0.4-0.2-0.6-0.4-0.8-0.4c-0.1,0-0.3,0.3-0.4,0.4
			c0.2,0.2,0.4,0.4,0.6,0.4C48.5,173.9,48.7,173.6,49,173.4z M90.2,178.7c0.2-0.3,0.4-0.5,0.5-0.7c0-0.1-0.3-0.4-0.3-0.4
			c-0.2,0.1-0.5,0.2-0.6,0.4C89.7,178.1,90,178.4,90.2,178.7z M84.1,178.6c-0.2,0.3-0.5,0.4-0.4,0.6c0,0.2,0.3,0.4,0.4,0.4
			c0.1,0,0.4-0.2,0.4-0.4C84.6,179,84.3,178.8,84.1,178.6z M79.1,181.5c0.2-0.3,0.4-0.5,0.5-0.7c0-0.1-0.3-0.4-0.3-0.4
			c-0.2,0.1-0.5,0.2-0.6,0.4C78.7,181,78.9,181.2,79.1,181.5z M116.6,180.8c-0.2,0.3-0.4,0.4-0.5,0.7c0,0.1,0.3,0.4,0.3,0.4
			c0.2-0.1,0.4-0.3,0.6-0.5C117,181.3,116.8,181.1,116.6,180.8z M89.5,181.6c0.2-0.3,0.4-0.5,0.4-0.7c0-0.2-0.3-0.4-0.4-0.4
			c-0.1,0-0.5,0.3-0.4,0.4C89.1,181.1,89.3,181.3,89.5,181.6z M71,176.5c-0.2-0.2-0.4-0.5-0.5-0.4c-0.2,0.1-0.5,0.2-0.7,0.3
			c0.1,0.1,0.2,0.4,0.3,0.4C70.4,176.8,70.6,176.6,71,176.5z M87.8,182.4c0.2-0.2,0.5-0.3,0.4-0.4c0-0.2-0.2-0.4-0.3-0.5
			c-0.1,0-0.4,0.2-0.4,0.3C87.5,181.9,87.6,182.1,87.8,182.4z M86.5,179.5c-0.2-0.2-0.3-0.4-0.4-0.4c-0.1,0-0.3,0.2-0.3,0.3
			c0,0.1,0.2,0.4,0.3,0.4C86.1,179.9,86.3,179.7,86.5,179.5z"/>
		<path class="st0" d="M330.9,174.8c-0.7,0-1.2,0-1.6,0c-3,0-6.1,0-9.1,0c-2.3,0-4.6,0.3-6.9,0.2c-2.9-0.1-5.8-0.3-8.7-0.5
			c-2.8-0.2-5.5,0-8.2,0.7c-2.1,0.6-4.3,0.9-6.5,1.2c-2.6,0.3-5.3,0.4-7.9,0.6c-1.4,0.1-2.8,0.3-4.2,0.2c-3.3-0.1-6.5-0.5-9.8-1.1
			c-5.1-1-10.2-1.9-15.2-2.9c-2.9-0.6-5.7-1.5-8.5-2.3c-1.5-0.4-2.9-0.9-4.4-1.3c-4.1-1-8.2-1.8-12.3-2.9c-3-0.8-6-1.8-9-2.7
			c-3.1-0.9-6.2-1.6-9.2-2.5c-4.3-1.3-8.7-2.1-13.2-2.7c-1.7-0.2-3.3-0.8-4.7-1.9c-0.3-0.2-0.7-0.5-1-0.5c-1.4-0.3-2-1.3-2.6-2.4
			c-1.3-2.4-2.5-4.9-3.2-7.6c-0.5-2-1.3-4-1.7-6c-1.1-4.8-2.1-9.6-2.5-14.5c-0.2-2.6-0.6-5.3-0.8-7.9c-0.2-3.1-0.5-6.3-1.1-9.3
			c-0.2-1.1-0.4-2.3-0.6-3.7c0.5,0.3,0.8,0.4,0.9,0.6c0.4,0.8,0.7,1.6,0.9,2.4c0.2,0.7,0.4,1.4,1,1.8c0.1,0.1,0.2,0.1,0.2,0.2
			c1.6,2.3,3.7,4.3,4.7,7.1c0.3,0.9,1,1.8,1.4,2.7c0.6,1.4,1.3,2.7,2.3,3.9c1.2,1.5,2.2,3.1,3.6,4.5c1.5,1.5,2.7,3.2,4,4.9
			c0.5,0.7,0.9,1.2,1.8,1.3c0.8,0.1,1.4,0.6,1.7,1.4c0.5,1.1,1.2,1.9,2.2,2.6c0.9,0.6,1.5,1.6,2.3,2.4c0.4,0.4,0.9,0.8,1.4,1.2
			c1,0.8,2,1.5,2.9,2.3c1.1,1,2.1,2.1,3.4,2.9c0.6,0.3,1,0.9,1.4,1.4c1.1,1.4,2.2,2.8,4.1,3.3c0.1,0,0.3,0.1,0.4,0.2
			c1.2,1.4,2.9,2.1,4.5,2.8c2,1,4.1,1.8,6.3,2.5c1,0.3,2.1,0.8,3.3,0.4c0.1,0,0.2,0,0.3,0c1.6,0.7,3.2,1.5,4.8,2.2
			c1.4,0.6,2.6,1.7,4.2,1.8c0.2,0,0.5,0,0.7,0.2c1.6,1.4,3.7,0.9,5.5,1.2c0.9,0.2,1.8,0.3,2.7,0.5c0.3,0.1,0.6,0.3,0.8,0.2
			c2.2-0.2,3.9,1.3,5.8,1.9c0.6,0.2,1.3,0.4,1.9,0.6c0.5,0.2,1.1,0.3,1.6,0.5c0.9,0.5,1.9,0.8,2.9,0.6c1.6-0.3,3.1,0.1,4.7,0.4
			c1.3,0.3,2.8,0.4,4.1,0.5c0.3,0,0.6-0.1,0.9,0c2,0.7,4.2,0.4,6.3,0.7c1.2,0.2,2.5-0.2,3.7,0.2c0.7,0.2,1.5,0.4,2.1,0.8
			c0.8,0.5,1.7,0.7,2.6,0.6c0.2,0,0.5-0.1,0.7,0c1.4,0.7,2.9,0.7,4.3,0.9c1,0.1,2,0,2.9,0.7c1.4-0.3,2.7-0.1,4.1,0
			c0.9,0.1,1.8-0.2,2.7-0.1c1.8,0.2,3.5,0.3,5.3,0.8c1.5,0.4,3.1,0.6,4.7,0.5c1.7-0.2,3.5,0.1,5.2,0.2c0.3,0,0.7,0.1,1,0.1
			c2.9-0.7,5.9-0.4,8.9-0.4C329.1,173.7,330,173.9,330.9,174.8z M198.6,142.7c-0.2-0.3-0.5-0.6-0.9-0.9c-1.3-1.2-2.7-2.4-4-3.6
			c-0.2-0.2-0.4-0.4-0.6-0.6c-0.4-0.3-1-1-1.5-0.5c-0.6,0.5,0.1,1,0.4,1.4c0.8,0.9,1.7,1.8,2.6,2.5c1,0.8,2,1.5,3.1,2.2
			C198.1,143.5,198.5,143.4,198.6,142.7z M189.5,149.5c0.8,0.1,1.2-0.5,0.8-1c-0.7-1-1.5-1.9-2.3-2.8c-0.2-0.2-0.7-0.1-1-0.1
			c0,0.3-0.1,0.7,0.1,0.9c0.5,0.9,1.1,1.7,1.7,2.5C189,149.3,189.3,149.4,189.5,149.5z M188.9,130.4c-0.1,0.8,0.4,1.3,0.8,1.8
			c0.7,0.7,1.4,1.3,2.2,1.9c0.1,0.1,0.6-0.1,0.7-0.3c0.1-0.2,0.1-0.7,0-0.8c-1.1-0.9-2-2.2-3.5-2.7
			C189.1,130.3,189.1,130.3,188.9,130.4z M192,149.6c0.2-0.3,0.5-0.5,0.5-0.7c0-0.2-0.3-0.4-0.5-0.6c-0.2,0.2-0.5,0.4-0.5,0.6
			C191.5,149,191.8,149.2,192,149.6z"/>
		<path class="st0" d="M124.9,185.7c0.9-1.3,1.7-2.4,2.4-3.5c0.9-1.6,1.8-3.1,2.2-5c0.1-0.8,0.6-1.6,0.9-2.4
			c0.1-0.2,0.2-0.3,0.3-0.5c0.2-1.6,0.5-3.2,1-4.8c0.2-0.8,0.3-1.7,0.5-2.5c0.1-0.8,0.3-1.5,0.5-2.3c0,0,0-0.1,0-0.1
			c1-2.3,0-4.6-0.1-6.9c-0.1-1.4-0.2-2.8-0.3-4.2c0-0.5,0.2-1,0.3-1.6c0.1-0.2,0.3-0.5,0.2-0.7c-0.4-1.4,0-3-0.9-4.3
			c-0.3-0.4-0.3-1.1-0.4-1.6c-0.3-1.2-0.4-2.6-1.4-3.5c-0.2-0.2-0.4-0.4-0.4-0.6c-0.1-0.9-0.1-1.8,0-2.9c0.2,0.3,0.4,0.7,0.6,1
			c1.6,3.9,3.4,7.7,5.7,11.2c1,1.5,2.1,3,3.2,4.5c1.9,2.5,3.7,5.1,5.6,7.6c1.5,2,3.1,3.9,4.7,5.9c0.9,1.2,1.1,1.5,0,2.4
			c-0.2,0.2-0.4,0.4-0.5,0.7c-0.7,1.7-2.1,2.7-3.5,3.7c-2.6,1.8-5.2,3.5-7.9,5.1c-1,0.6-2.1,1-3.2,1.2c-2.3,0.4-4.3,1.5-6.3,2.6
			C126.9,184.8,126,185.2,124.9,185.7z M138.9,167.5c-0.5-0.2-1.1-0.4-1.4,0.2c-0.3,0.7-0.5,1.4-0.5,2.2c0,0.2,0.4,0.5,0.7,0.8
			c0.2-0.2,0.6-0.4,0.7-0.7C138.6,169.2,138.7,168.4,138.9,167.5c0.2-0.1,0.3-0.3,0.5-0.4c0,0-0.1-0.1-0.1-0.1
			C139.1,167.2,139,167.4,138.9,167.5z M135,165.2c-0.2,0.2-0.3,0.2-0.4,0.3c-0.1,0.3-0.1,0.6-0.1,0.8c-0.1,1.8-0.3,3.6-1.4,5.2
			c-0.1,0.1-0.1,0.2-0.1,0.3c0,0.3,0,0.7,0.1,0.9c0.4,0.3,0.8,0.1,0.9-0.3c0.4-1,0.9-2,1.2-3.1C135.6,167.9,135.6,166.6,135,165.2z
			 M140.7,171.2c0.6-0.2,0.9-0.5,0.7-1.2c0-0.1-0.3-0.3-0.4-0.2c-0.6,0.2-0.6,0.6-0.5,1.1C140.5,171,140.5,171,140.7,171.2z"/>
		<path class="st0" d="M134.3,11.1c0,0.3-0.1,0.6-0.1,0.8c0,0.8,0.3,1.1,1.1,0.8c0.5-0.2,0.8-0.2,1.2,0.1c0.2,0.2,0.6,0.3,0.8,0.2
			c1.5-0.7,3.4-0.4,4.8-1.4c0.3-0.2,0.7-0.4,0.8-0.6c0.2-1.5,1.5-1.6,2.5-2c0.6-0.2,1.2-0.3,1.9-0.5c0,0.5,0,0.8-0.1,1.1
			c-0.9,3.4-1.4,6.8-1.9,10.2c-0.7,4.1-1.3,8.2-2,12.3c-0.2,0.9-0.4,1.7-1.3,2.3c-0.9,0.7-1.5,1.7-2.2,2.6c-0.1,0.1-0.2,0.4-0.3,0.5
			c-0.9,0.4-1.7,0.7-2.6,1.1c-0.4,0.2-0.9,0.2-1.4,0.3c-0.1,0-0.3,0.1-0.4,0.1c-0.9-0.7-1.9-0.3-2.9-0.3c-1.1-0.1-2.2-1.3-2.1-2.3
			c0.1-1.3,0.2-2.7,0.4-4c0.6-3.6,1.2-7.1,1.8-10.7c0-0.3,0.1-0.6,0.1-0.9c-0.2-2.9,0.6-5.7,1-8.6C133.3,11.6,133.2,11,134.3,11.1z
			 M140.9,23.8C140.9,23.8,141,23.8,140.9,23.8c0-0.4,0-0.9-0.1-1.3c-0.1-0.2-0.5-0.5-0.7-0.5c-0.1,0-0.5,0.3-0.5,0.5
			c-0.1,1.7-0.2,3.4-0.2,5c0,0.3,0.4,0.8,0.7,0.9c0.6,0.1,0.6-0.5,0.7-0.9C140.8,26.3,140.8,25,140.9,23.8z"/>
		<path class="st0" d="M146,5.9c-0.4,0.3-0.6,0.5-0.9,0.6c-1.2,0.5-2.5,1.1-3.8,1.4c-0.8,0.2-1.7,0.2-2.6,0
			c-1.3-0.3-2.6-0.3-3.8,0.3c-0.2,0.1-0.5,0.1-0.7,0.1c-0.6-0.1-1.2-0.3-2-0.5c0.7-0.8,1.3-1.6,2-2.5c0.3,0.2,0.5,0.5,0.8,0.6
			c0.5,0.4,1.1,0.6,1.7,0.2c1-0.5,1.9-0.6,3-0.4c1,0.2,2.1-0.2,3.1-0.3c0.7-0.1,1.3-0.4,2.2-0.7C145.3,5.1,145.6,5.5,146,5.9z"/>
		<path class="st0" d="M110.5,192c-0.6,0.3-1.3,0.5-1.8,0.8c-1.8,1.1-3.9,0.9-5.8,1.6c-0.1,0-0.3,0-0.6-0.1c0.3-0.3,0.5-0.5,0.7-0.5
			c1.3-0.5,2.6-0.9,3.9-1.4c0.2-0.1,0.4-0.2,0.6-0.1C108.6,192.6,109.5,192.1,110.5,192L110.5,192z"/>
		<path class="st0" d="M177.6,104c-0.4-1.1-0.7-2-1-3C177.4,101.7,177.6,102.6,177.6,104z"/>
		<path class="st0" d="M137.4,10.8c0.3,0,0.6,0,0.9,0c0,0.1,0,0.1,0,0.2c-0.3,0-0.6,0.1-1,0.1C137.4,11,137.4,10.9,137.4,10.8z"/>
		<path class="st0" d="M110.5,191.9c0.3-0.2,0.7-0.4,1-0.7c0,0.1,0.1,0.2,0.1,0.3C111.2,191.7,110.9,191.8,110.5,191.9
			C110.5,192,110.5,191.9,110.5,191.9z"/>
		<path d="M117.8,85.9c-0.8,1.2-1,2.5-1.1,3.8c-0.2,2.4-0.4,4.9-0.6,7.3c-0.3,3.1,0.4,5.9,2,8.6c1.3,2.3,2.5,4.7,3.7,7
			c0.1,0.3,0.2,0.7,0.1,1c-0.1,0.6-0.7,0.9-1.2,0.5c-0.3-0.2-0.6-0.6-0.7-1c-1.2-2.5-2.4-4.9-3.7-7.4c-1.7-3.1-2-6.4-1.6-9.8
			c0.2-1.9,0.4-3.8,0.4-5.8c0.1-1.9,0.4-3.6,1.4-5.3c0.6-1,1.2-2,1.6-3c0.4-1.1,0.6-2.2,0.7-3.4c0.3-2.6,1.3-4.9,2.1-7.4
			c0.9-2.6,1.7-5.1,2.6-7.7c0.1-0.3,0.1-0.7,0.3-0.9c0.2-0.2,0.6-0.4,0.8-0.4c0.2,0.1,0.5,0.5,0.5,0.7c-0.1,0.9-0.3,1.8-0.6,2.7
			c-0.7,2.1-1.3,4.2-2.2,6.3c-0.8,1.9-1.2,4-1.8,6c-0.7,2.6-1,5.3-0.8,8c0,0.6,0.1,1.3-0.6,1.5c-0.8,0.2-1-0.6-1.2-1.2
			C118,86.1,117.9,86.1,117.8,85.9z"/>
		<path d="M143.2,86.1c-0.7,0.5-0.8,1-0.5,1.9c0.6,1.7,1.2,3.4,1.7,5c0.1,0.2,0.2,0.5,0.1,0.7c0,0.2-0.2,0.5-0.3,0.6
			c-0.2,0.1-0.6,0.1-0.8-0.1c-0.2-0.2-0.4-0.5-0.5-0.8c-0.7-1.8-1.4-3.7-2-5.5c-0.3-0.8,0-1.8,0.7-2.3
			C142.2,85.1,142.5,85.2,143.2,86.1L143.2,86.1z"/>
		<path d="M126.9,116.2c0,0.4,0,1.1,0,2.2c-0.5-0.4-0.9-0.5-0.9-0.7c-0.1-0.7-0.5-1.6-0.1-2.1c0.8-1.2,0.5-2-0.4-2.9
			c-0.2-0.2-0.3-0.4-0.3-0.6c-0.1-1.1-0.1-2.1-0.1-3.2c0-0.2,0.3-0.5,0.5-0.6c0.2,0,0.6,0.2,0.7,0.4c0.2,0.6,0.2,1.2,0.3,1.8
			c0.1,0.4,0.1,1,0.4,1.2c1,0.7,0.8,1.7,0.9,2.6C127.8,114.9,127.3,115.4,126.9,116.2z"/>
		<path d="M143.3,86.1c1.1-0.4,1.2-0.4,1.5,0.7c0.3,1,0.6,2,1,3c0.3-0.5,0.3-1.1,1-1c0.6,0.1,0.8,0.6,0.9,1.2c0,0,0,0.1,0,0.1
			c-0.1,0.4-0.3,0.8-0.4,1.2c-0.4-0.1-0.7-0.2-1.2-0.4c-1,0.8-1.6,0.6-1.9-0.6C143.8,88.9,143,87.6,143.3,86.1
			C143.2,86.1,143.3,86.1,143.3,86.1z"/>
		<path d="M173.2,136.4c0.2,0.1,0.5,0.3,0.6,0.5c0.2,0.4,0.4,0.9,0.4,1.4c0.3,1.9,1,3.7,2.1,5.3c0.4,0.5,0.8,1.1,0.2,1.7
			c-0.3,0.4-0.9,0.1-1.4-0.9c-0.5-1-1-2-1.3-3c-0.5-1.3-0.8-2.7-1.2-4C172.5,136.9,172.6,136.5,173.2,136.4z"/>
		<path d="M133.8,68.1c0.2-0.8,0.1-1.6,0.8-2.1c0.2-0.1,0.5-0.2,0.6-0.2c0.2,0.1,0.3,0.3,0.4,0.6c0,0.3-0.1,0.6-0.1,0.9
			c0,0.7,0.1,1.4,0.2,2.1c0,0.2,0.2,0.5,0.2,0.7c0,0.3-0.1,0.8-0.4,1c-0.4,0.3-0.9-0.1-1-0.5C134.2,69.7,134,68.9,133.8,68.1z"/>
		<path d="M174.2,145.4c-0.1,0.2-0.3,0.5-0.5,0.5c-0.3,0-0.7-0.1-0.8-0.3c-0.5-1.2-0.9-2.3-1.3-3.5c-0.1-0.2,0.2-0.6,0.4-0.8
			c0.1-0.1,0.6,0.2,0.7,0.3c0.5,1.1,1,2.2,1.4,3.3C174.2,145.1,174.2,145.2,174.2,145.4z"/>
		<path d="M172.7,147.8c-0.8,0-2-1.2-2.1-1.8c0-0.5,0.5-0.9,0.9-0.6c0.6,0.5,1,1.1,1.4,1.7C173,147.2,172.8,147.6,172.7,147.8z"/>
		<path d="M137.8,67.5c0,1-0.3,1.5-0.8,1.4c-0.7-0.2-0.7-0.8-0.7-1.4c0-0.2,0-0.4,0.1-0.6c0.2-0.3,0.5-0.5,0.8-0.7
			c0.2,0.3,0.5,0.5,0.6,0.8C137.8,67.1,137.8,67.4,137.8,67.5z"/>
		<path d="M120.7,65.6c0.1-0.7,0.2-1.1,0.3-1.5c0.1-0.4,0.5-0.7,0.9-0.4c0.2,0.1,0.2,0.5,0.2,0.8c0,0.3-0.2,0.6-0.2,0.9
			c0.1,0.5-0.1,0.8-0.5,0.8C121.1,66.2,120.9,65.8,120.7,65.6z"/>
		<path d="M160.2,134.3c-0.7-0.1-1.2-0.2-1.7-0.4c-0.2-0.1-0.3-0.5-0.5-0.7c0.3-0.1,0.6-0.3,0.8-0.3c0.5,0,0.9,0.1,1.4,0.3
			c0.3,0.1,0.4,0.4,0.6,0.6C160.6,134,160.3,134.1,160.2,134.3z"/>
		<path d="M292.9,221.3c-0.4,0.2-0.8,0.5-0.9,0.4c-0.5-0.4-1.1-0.8-1.5-1.2c-0.3-0.4,0.2-1,0.6-0.8
			C291.7,220.1,292.2,220.6,292.9,221.3z"/>
		<path d="M298.8,225.1c-0.2,0.1-0.4,0.4-0.6,0.4c-0.6-0.3-1.1-0.6-1.6-1c-0.1-0.1,0.1-0.6,0.2-0.7
			C297.3,223.4,298.8,224.3,298.8,225.1z"/>
		<path d="M255,200.3c-0.2,0.3-0.3,0.6-0.5,0.7c-0.1,0.1-0.4,0-0.5-0.1c-0.4-0.3-0.7-0.6-1-1c-0.1-0.2-0.2-0.5-0.1-0.6
			c0.1-0.2,0.5-0.3,0.6-0.2C254,199.4,254.5,199.8,255,200.3z"/>
		<path d="M153.4,89.4c0.5-0.3,0.7-0.5,1-0.5c0.3,0,0.7,0.1,1,0.3c0,0,0,0.4-0.1,0.5c-0.3,0.2-0.7,0.3-1,0.3
			C154.1,90,153.9,89.7,153.4,89.4z"/>
		<path d="M124.4,58.3c-0.5,0.3-0.7,0.6-1,0.7c-0.2,0-0.5-0.4-0.6-0.6c-0.1-0.4,0.2-0.8,0.7-0.7C123.7,57.6,123.9,57.9,124.4,58.3z"
			/>
		<path d="M159.8,128.9c-0.4,0.3-0.7,0.6-1,0.9c-0.2-0.2-0.5-0.4-0.5-0.6c0-0.5,0.2-0.9,0.7-0.9
			C159.3,128.3,159.5,128.6,159.8,128.9z"/>
		<path d="M120.3,63.3c-0.3-0.4-0.6-0.6-0.7-0.8c-0.1-0.5,0.3-0.7,0.7-0.6c0.3,0.1,0.5,0.4,0.7,0.6
			C120.8,62.7,120.6,62.9,120.3,63.3z"/>
		<path d="M167.2,121.9c-0.6,0.2-0.9,0.5-1.1,0.4c-0.3-0.1-0.5-0.5-0.7-0.7c0.3-0.2,0.5-0.5,0.8-0.4
			C166.5,121.2,166.7,121.5,167.2,121.9z"/>
		<path d="M292.8,216.2c-0.4,0.3-0.7,0.6-0.9,0.6c-0.2,0-0.4-0.4-0.6-0.6c0.2-0.2,0.4-0.6,0.6-0.6
			C292.1,215.6,292.4,215.9,292.8,216.2z"/>
		<path d="M163.7,151.7c-0.3-0.4-0.6-0.8-0.5-0.8c0.3-0.3,0.6-0.6,0.9-0.8c0.1,0,0.5,0.3,0.4,0.4
			C164.3,150.9,164.1,151.2,163.7,151.7z"/>
		<path d="M167.9,162.8c0.4,1.4,0.3,1.4-0.8,1.7C166.9,163.7,167.2,163.3,167.9,162.8z"/>
		<path d="M172.3,162.2c-0.3-0.3-0.7-0.6-0.7-0.7c0.1-0.3,0.3-0.6,0.6-0.8c0.1-0.1,0.7,0.3,0.7,0.5
			C172.8,161.5,172.5,161.8,172.3,162.2z"/>
		<path d="M243.1,197.3c-0.3,0.3-0.5,0.6-0.7,0.6c-0.5,0.1-0.7-0.3-0.7-0.7c0-0.2,0.3-0.5,0.5-0.7
			C242.4,196.7,242.7,197,243.1,197.3z"/>
		<path d="M129.8,84.2c-0.3-0.5-0.6-0.7-0.8-1.1c0-0.1,0.5-0.5,0.6-0.4c0.3,0.1,0.6,0.4,0.7,0.7C130.3,83.5,130,83.8,129.8,84.2z"/>
		<path d="M146.5,50.3c-0.3-0.4-0.6-0.7-0.6-0.9c0-0.2,0.3-0.6,0.6-0.6c0.2,0,0.7,0.3,0.7,0.5C147.1,49.6,146.8,49.8,146.5,50.3z"/>
		<path d="M289,211.4c0.6-0.6,1.2-0.4,1.8,0C290.2,212.2,289.9,212.2,289,211.4z"/>
		<path d="M248.7,201.9c-0.3,0.3-0.6,0.6-0.8,0.6c-0.2,0-0.6-0.4-0.5-0.6c0.1-0.3,0.4-0.5,0.6-0.8
			C248.2,201.4,248.4,201.6,248.7,201.9z"/>
		<path d="M167.5,120.7c0.5-0.3,0.7-0.6,0.9-0.5c0.2,0.1,0.4,0.4,0.6,0.7c-0.2,0.2-0.5,0.5-0.7,0.5
			C168.2,121.4,167.9,121.1,167.5,120.7z"/>
		<path d="M136.7,95.6c-0.4,0.2-0.7,0.5-0.9,0.5c-0.2-0.1-0.4-0.4-0.6-0.6c0.2-0.2,0.5-0.5,0.7-0.5C136.1,95,136.3,95.3,136.7,95.6z
			"/>
		<path d="M249.7,199.3c-0.3-0.4-0.7-0.6-0.6-0.7c0.2-0.3,0.4-0.6,0.7-0.7c0.1,0,0.6,0.4,0.5,0.5C250.2,198.7,250,198.9,249.7,199.3
			z"/>
		<path d="M125.5,52.7c0.4,0.5,0.6,0.7,0.7,1c0,0.1-0.4,0.6-0.5,0.5c-0.3-0.1-0.7-0.3-0.8-0.6C124.9,53.5,125.2,53.2,125.5,52.7z"/>
		<path d="M164.1,157.1c0.4-0.3,0.7-0.5,1-0.7c0.1,0,0.3,0.3,0.5,0.5c-0.3,0.2-0.5,0.5-0.8,0.6C164.6,157.7,164.4,157.4,164.1,157.1
			z"/>
		<path d="M179.7,175.5c-0.4,0.3-0.6,0.6-0.9,0.7c-0.2,0-0.6-0.3-0.6-0.4c0-0.3,0.2-0.6,0.5-0.7C178.9,175,179.2,175.2,179.7,175.5z
			"/>
		<path d="M267,203c-0.4,0.3-0.6,0.6-0.9,0.6c-0.2,0-0.6-0.3-0.6-0.5c0.1-0.3,0.3-0.6,0.5-0.7C266.2,202.5,266.5,202.8,267,203z"/>
		<path d="M183.6,189.5c0,0.4,0.2,0.7,0.1,0.9c-0.1,0.2-0.4,0.4-0.7,0.6c-0.1,0-0.3-0.1-0.3-0.2c0-0.3,0.1-0.6,0.2-0.9
			C183,189.7,183.3,189.6,183.6,189.5z"/>
		<path d="M167.1,113.1c-0.4,0.3-0.6,0.6-0.8,0.6c-0.2,0-0.4-0.4-0.6-0.6c0.2-0.2,0.4-0.5,0.7-0.5
			C166.6,112.6,166.8,112.9,167.1,113.1z"/>
		<path d="M143.4,146.2c-0.4,0.4-0.6,0.7-0.9,0.8c-0.1,0-0.6-0.4-0.5-0.4c0.1-0.3,0.3-0.6,0.6-0.8
			C142.7,145.7,143,145.9,143.4,146.2z"/>
		<path d="M148.4,55.1c-0.4,0.3-0.6,0.6-0.9,0.7c-0.1,0-0.4-0.3-0.6-0.5c0.3-0.2,0.5-0.5,0.8-0.7C147.7,54.6,148,54.9,148.4,55.1z"
			/>
		<path d="M154.9,85.2c-0.4,0.2-0.7,0.5-0.8,0.4c-0.3-0.1-0.4-0.4-0.6-0.6c0.2-0.2,0.5-0.5,0.7-0.4
			C154.4,84.5,154.6,84.9,154.9,85.2z"/>
		<path d="M146.9,154.3c0.3,0.4,0.5,0.6,0.8,0.8c-0.2,0.2-0.4,0.5-0.6,0.4c-0.3,0-0.5-0.3-0.7-0.5
			C146.3,155,146.6,154.7,146.9,154.3z"/>
		<path d="M235.4,197.5c-0.5,0.2-0.8,0.4-1,0.4c-0.2,0-0.4-0.4-0.5-0.5c0.2-0.2,0.4-0.5,0.7-0.5C234.7,196.8,235,197.1,235.4,197.5z
			"/>
		<path d="M170.6,116.5c0.3,0.3,0.6,0.6,0.6,0.7c-0.1,0.3-0.3,0.5-0.6,0.6c-0.1,0-0.6-0.3-0.5-0.5
			C170.1,117.1,170.4,116.9,170.6,116.5z"/>
		<path d="M167.1,160.2c0.3,0.3,0.6,0.6,0.6,0.7c-0.1,0.3-0.3,0.5-0.5,0.7c-0.2-0.2-0.6-0.3-0.6-0.5
			C166.6,160.9,166.8,160.6,167.1,160.2z"/>
		<path d="M132.1,129.9c-0.2-0.4-0.5-0.7-0.5-0.9c0-0.2,0.4-0.3,0.6-0.5c0.2,0.2,0.5,0.4,0.5,0.7
			C132.7,129.4,132.4,129.6,132.1,129.9z"/>
		<path d="M177.1,186.8c0.2,0.5,0.5,0.8,0.5,0.9c-0.2,0.3-0.5,0.4-0.8,0.6c-0.1-0.2-0.4-0.4-0.3-0.5
			C176.5,187.5,176.8,187.3,177.1,186.8z"/>
		<path d="M237.7,194.5c-0.3,0.3-0.4,0.6-0.7,0.7c-0.1,0.1-0.5-0.2-0.6-0.4c-0.1-0.4,0.2-0.8,0.6-0.7
			C237.3,194.1,237.4,194.3,237.7,194.5z"/>
		<path d="M263.7,199.7c-0.4,0.3-0.6,0.6-0.9,0.6c-0.1,0-0.4-0.3-0.5-0.5c0.2-0.2,0.4-0.5,0.7-0.6
			C263.1,199.1,263.3,199.4,263.7,199.7z"/>
		<path d="M294.4,213.2c-0.5,0.3-0.7,0.5-1,0.5c-0.2,0-0.4-0.4-0.6-0.6c0.2-0.2,0.4-0.5,0.7-0.5C293.8,212.6,294,212.9,294.4,213.2z
			"/>
		<path d="M264.8,217.6c0.3,0.3,0.4,0.6,0.6,0.8c-0.2,0.1-0.5,0.4-0.6,0.4c-0.3-0.1-0.5-0.4-0.7-0.6
			C264.3,218.1,264.5,217.9,264.8,217.6z"/>
		<path d="M254.7,221c-0.4,0.3-0.6,0.5-0.9,0.6c-0.2,0-0.4-0.3-0.6-0.5c0.2-0.2,0.4-0.5,0.6-0.6C254.1,220.5,254.3,220.8,254.7,221z
			"/>
		<path d="M269.7,223.3c-0.5,0.2-0.8,0.5-1.1,0.4c-0.2-0.1-0.4-0.4-0.6-0.6c0.2-0.1,0.4-0.4,0.7-0.4
			C269,222.8,269.3,223,269.7,223.3z"/>
		<path d="M289.3,226.3c-0.3-0.4-0.6-0.6-0.7-0.8c0-0.2,0.3-0.6,0.4-0.6c0.3,0,0.6,0.2,0.7,0.5C289.9,225.6,289.6,225.9,289.3,226.3
			z"/>
		<path d="M134.3,85.7c-0.4,0.3-0.6,0.6-0.8,0.6c-0.2,0-0.6-0.4-0.5-0.5c0.1-0.2,0.3-0.5,0.6-0.6C133.7,85.1,133.9,85.4,134.3,85.7z
			"/>
		<path d="M275,221.9c-0.2-0.3-0.6-0.5-0.5-0.7c0-0.2,0.3-0.5,0.6-0.5c0.2,0,0.5,0.3,0.5,0.5C275.6,221.4,275.3,221.6,275,221.9z"/>
		<path d="M225.7,219.2c-0.4,0.2-0.7,0.5-0.9,0.5c-0.2,0-0.3-0.3-0.5-0.5c0.2-0.2,0.4-0.4,0.6-0.5
			C225.1,218.7,225.3,218.9,225.7,219.2z"/>
		<path d="M126.3,56.8c0.3,0.5,0.5,0.7,0.6,0.9c0,0.2-0.3,0.5-0.5,0.5c-0.2,0-0.6-0.3-0.6-0.5C125.8,57.5,126.1,57.2,126.3,56.8z"/>
		<path d="M152.6,61.1c-0.4,0.2-0.7,0.5-0.9,0.5c-0.2,0-0.3-0.3-0.5-0.5c0.2-0.2,0.4-0.4,0.6-0.5C152,60.6,152.2,60.9,152.6,61.1z"
			/>
		<path d="M268.9,201.8c-0.3,0.2-0.5,0.5-0.7,0.4c-0.2,0-0.4-0.3-0.5-0.5c0.2-0.2,0.4-0.5,0.7-0.5
			C268.4,201.2,268.6,201.5,268.9,201.8z"/>
		<path d="M163,136.1c-0.4,0.3-0.6,0.6-0.8,0.6c-0.2,0-0.5-0.3-0.6-0.5c0-0.2,0.3-0.6,0.4-0.6C162.4,135.7,162.6,135.9,163,136.1z"
			/>
		<path d="M258.5,202.4c-0.2-0.4-0.5-0.6-0.4-0.8c0.1-0.2,0.4-0.5,0.7-0.6c0.1,0,0.5,0.4,0.4,0.5C259.1,201.8,258.8,202,258.5,202.4
			z"/>
		<path d="M154.8,78c0.3,0.3,0.6,0.5,0.7,0.8c0,0.1-0.3,0.6-0.4,0.5c-0.3-0.1-0.6-0.3-0.7-0.5C154.3,78.6,154.6,78.3,154.8,78z"/>
		<path d="M144.1,151.1c-0.4,0.3-0.6,0.5-0.8,0.5c-0.3,0-0.5-0.3-0.7-0.5c0.2-0.2,0.4-0.5,0.6-0.5
			C143.4,150.6,143.6,150.9,144.1,151.1z"/>
		<path d="M135,141.2c-0.2-0.3-0.4-0.5-0.6-0.7c0.2-0.2,0.5-0.4,0.7-0.5c0.1,0,0.4,0.4,0.4,0.6C135.6,140.7,135.3,140.9,135,141.2z"
			/>
		<path d="M142,96.5c-0.4,0.2-0.6,0.5-0.9,0.5c-0.2,0-0.4-0.3-0.5-0.5c0.2-0.2,0.4-0.5,0.7-0.6C141.4,95.9,141.6,96.2,142,96.5z"/>
		<path d="M134.9,135.2c0.3,0.3,0.6,0.5,0.6,0.8c0,0.2-0.4,0.6-0.5,0.5c-0.3-0.1-0.5-0.3-0.6-0.5
			C134.3,135.9,134.6,135.6,134.9,135.2z"/>
		<path d="M175.2,180.5c0.2,0.3,0.5,0.5,0.5,0.7c0,0.2-0.3,0.5-0.5,0.5c-0.2,0-0.5-0.3-0.5-0.5C174.7,181,175,180.8,175.2,180.5z"/>
		<path d="M140.4,146.4c0.2,0.3,0.5,0.6,0.5,0.7c-0.1,0.3-0.4,0.5-0.6,0.7c-0.1-0.2-0.4-0.3-0.4-0.5
			C139.9,147,140.2,146.7,140.4,146.4z"/>
		<path d="M152.2,55c0.2,0.3,0.5,0.5,0.5,0.7c0,0.2-0.4,0.4-0.6,0.4c-0.2,0-0.5-0.3-0.5-0.5C151.6,55.5,151.9,55.3,152.2,55z"/>
		<path d="M156.4,61.3c-0.6,0.4-0.8,0.7-1,0.6c-0.2,0-0.4-0.4-0.4-0.6c0-0.2,0.3-0.5,0.5-0.5C155.7,60.8,156,61,156.4,61.3z"/>
		<path d="M287.2,221.1c-0.3,0.3-0.5,0.6-0.7,0.6c-0.2,0-0.4-0.3-0.6-0.4c0.2-0.2,0.3-0.5,0.5-0.5
			C286.5,220.7,286.8,220.9,287.2,221.1z"/>
		<path d="M118.9,69.8c-0.3,0.2-0.5,0.5-0.7,0.5c-0.2,0-0.4-0.3-0.6-0.4c0.2-0.2,0.3-0.5,0.5-0.5C118.3,69.4,118.5,69.6,118.9,69.8z
			"/>
		<path d="M288,217.5c0.2,0.4,0.4,0.7,0.4,1c0,0.1-0.4,0.3-0.6,0.5c-0.1-0.3-0.3-0.5-0.4-0.8C287.5,218,287.7,217.8,288,217.5z"/>
		<path d="M171.8,167.6c-0.4,0.3-0.6,0.6-0.7,0.6c-0.3-0.1-0.5-0.4-0.6-0.6c0,0,0.3-0.5,0.4-0.4
			C171.1,167.2,171.4,167.4,171.8,167.6z"/>
		<path d="M157.3,83.4c-0.3,0.3-0.5,0.5-0.7,0.5c-0.2,0-0.4-0.3-0.6-0.4c0.2-0.2,0.3-0.5,0.5-0.5C156.7,83,156.9,83.2,157.3,83.4z"
			/>
		<path d="M249.8,223.8c-0.4,0.2-0.6,0.4-0.9,0.5c-0.1,0-0.3-0.3-0.5-0.4c0.2-0.2,0.4-0.4,0.7-0.6
			C249.2,223.3,249.4,223.6,249.8,223.8z"/>
		<path d="M132.3,85.7c-0.4,0.2-0.7,0.4-0.9,0.5c-0.1,0-0.3-0.3-0.4-0.4c0.2-0.2,0.4-0.4,0.7-0.5C131.7,85.3,131.9,85.5,132.3,85.7z
			"/>
		<path d="M158.3,88.6c0.2,0.3,0.5,0.5,0.4,0.7c0,0.2-0.4,0.4-0.6,0.4c-0.2,0-0.5-0.3-0.5-0.5C157.8,89.1,158.1,88.9,158.3,88.6z"/>
		<path d="M252.6,196.9c-0.4,0.2-0.7,0.4-1,0.4c-0.1,0-0.2-0.3-0.4-0.5c0.3-0.2,0.5-0.4,0.8-0.4
			C252.1,196.3,252.3,196.6,252.6,196.9z"/>
		<path d="M182.2,186.4c-0.2,0.2-0.5,0.4-0.7,0.4c-0.1,0-0.4-0.4-0.4-0.5c0.2-0.2,0.4-0.5,0.6-0.6c0.2-0.1,0.4,0.1,0.6,0.2
			C182.3,186.2,182.2,186.3,182.2,186.4z"/>
		<path d="M167.4,149.6c-0.3,0.2-0.6,0.4-0.8,0.4c-0.2,0-0.4-0.3-0.5-0.5c0.2-0.2,0.4-0.4,0.7-0.5
			C166.9,148.9,167.1,149.3,167.4,149.6z"/>
		<path d="M186.1,190.8c-0.4-0.1-0.9-0.1-0.9-0.7c0-0.2,0.3-0.4,0.5-0.4c0.6-0.1,0.7,0.3,0.8,0.8
			C186.4,190.6,186.3,190.7,186.1,190.8z"/>
		<path d="M240.1,200.4c-0.4,0.2-0.6,0.4-0.8,0.4c-0.2,0-0.3-0.4-0.4-0.6c0.2-0.1,0.5-0.3,0.7-0.3
			C239.7,199.9,239.9,200.1,240.1,200.4z"/>
		<path d="M150.4,53.1c-0.2-0.3-0.5-0.5-0.6-0.7c0-0.1,0.3-0.3,0.4-0.5c0.2,0.2,0.5,0.4,0.6,0.6C150.9,52.6,150.6,52.9,150.4,53.1z"
			/>
		<path d="M118.2,68.7c-0.2-0.2-0.4-0.4-0.5-0.6c0.2-0.2,0.4-0.4,0.7-0.5c0,0,0.4,0.3,0.4,0.4C118.7,68.3,118.4,68.5,118.2,68.7z"/>
		<path d="M177.5,181.8c0.2,0.3,0.5,0.5,0.4,0.6c0,0.2-0.3,0.4-0.4,0.6c-0.2-0.2-0.5-0.3-0.5-0.5C177,182.3,177.3,182.1,177.5,181.8
			z"/>
		<path d="M133.4,79.2c-0.4,0.2-0.7,0.4-0.8,0.3c-0.2-0.1-0.3-0.4-0.4-0.6c0.2-0.1,0.4-0.3,0.5-0.3C132.9,78.7,133.1,79,133.4,79.2z
			"/>
		<path d="M173.4,172.1c-0.3-0.3-0.6-0.5-0.6-0.6c0-0.2,0.3-0.5,0.5-0.5c0.2,0,0.5,0.3,0.5,0.4C173.8,171.5,173.6,171.8,173.4,172.1
			z"/>
		<path d="M172.1,172.1c-0.3,0.3-0.5,0.6-0.7,0.6c-0.2,0-0.4-0.3-0.6-0.5c0.1-0.2,0.3-0.4,0.4-0.4
			C171.5,171.7,171.7,171.9,172.1,172.1z"/>
		<path d="M183.9,184.8c-0.2-0.3-0.5-0.4-0.5-0.7c0-0.1,0.2-0.3,0.4-0.5c0.2,0.2,0.4,0.4,0.6,0.6
			C184.3,184.4,184.2,184.5,183.9,184.8z"/>
		<path d="M261,201.1c0.3,0.2,0.5,0.4,0.7,0.6c-0.2,0.2-0.3,0.4-0.5,0.6c-0.2-0.2-0.4-0.3-0.5-0.5
			C260.6,201.6,260.8,201.4,261,201.1z"/>
		<path d="M136.6,80.5c0.3,0.2,0.5,0.4,0.7,0.6c-0.2,0.2-0.3,0.5-0.5,0.5c-0.2,0-0.4-0.3-0.6-0.5C136.1,81,136.4,80.8,136.6,80.5z"
			/>
		<path d="M239.3,195.9c-0.3,0.2-0.5,0.5-0.7,0.5c-0.2,0-0.4-0.3-0.5-0.5c0.2-0.2,0.4-0.4,0.6-0.4
			C238.8,195.5,239,195.7,239.3,195.9z"/>
		<path d="M161.5,148.8c-0.3-0.2-0.4-0.4-0.6-0.5c0.2-0.2,0.4-0.5,0.6-0.6c0.1,0,0.5,0.3,0.4,0.4
			C161.9,148.4,161.7,148.5,161.5,148.8z"/>
		<path d="M300.5,218.8c-0.3,0.3-0.5,0.5-0.7,0.5c-0.2,0-0.4-0.3-0.6-0.5c0.2-0.2,0.4-0.4,0.6-0.5
			C299.9,218.4,300.1,218.6,300.5,218.8z"/>
		<path d="M151.8,155.6c0.2,0.3,0.5,0.5,0.5,0.6c-0.1,0.2-0.3,0.4-0.5,0.6c-0.2-0.2-0.4-0.3-0.6-0.5
			C151.4,156,151.6,155.8,151.8,155.6z"/>
		<path d="M227.9,216.1c-0.2-0.3-0.4-0.6-0.4-0.8c0-0.1,0.4-0.4,0.5-0.4c0.2,0.1,0.5,0.3,0.5,0.5
			C228.5,215.6,228.2,215.8,227.9,216.1z"/>
		<path d="M257.5,222.6c-0.3,0.2-0.5,0.5-0.7,0.5c-0.2,0-0.4-0.3-0.5-0.5c0.2-0.2,0.4-0.4,0.6-0.4
			C257.1,222.2,257.3,222.4,257.5,222.6z"/>
		<path d="M260.6,223c0.3,0.3,0.6,0.5,0.6,0.7c0,0.2-0.3,0.6-0.5,0.6c-0.2,0-0.5-0.3-0.6-0.5C260.1,223.6,260.4,223.3,260.6,223z"/>
		<path d="M270.7,224.2c-0.2-0.2-0.4-0.4-0.6-0.5c0.2-0.2,0.4-0.4,0.6-0.6c0,0,0.5,0.3,0.4,0.4C271.1,223.7,270.9,223.9,270.7,224.2
			z"/>
		<path d="M169,156.3c-0.3,0.2-0.5,0.4-0.7,0.5c-0.2,0-0.3-0.2-0.5-0.3c0.2-0.2,0.4-0.4,0.6-0.6C168.5,155.8,168.7,156.1,169,156.3z
			"/>
		<path d="M244.9,193.5c0.3,0.3,0.4,0.5,0.6,0.6c-0.2,0.1-0.4,0.4-0.6,0.4c-0.1,0-0.5-0.3-0.5-0.4
			C244.5,194,244.7,193.8,244.9,193.5z"/>
		<path d="M258.4,196.9c-0.2-0.2-0.5-0.4-0.5-0.5c0.1-0.2,0.2-0.5,0.4-0.6c0.2,0,0.4,0.2,0.6,0.4
			C258.8,196.4,258.7,196.6,258.4,196.9z"/>
		<path d="M222,217.5c-0.2-0.3-0.4-0.6-0.4-0.6c0.2-0.2,0.4-0.4,0.6-0.6c0.1,0.2,0.3,0.4,0.3,0.5C222.5,217,222.3,217.2,222,217.5z"
			/>
		<path d="M186.1,190.8c0.1-0.1,0.2-0.2,0.3-0.3c0.1,0.1,0.3,0.1,0.4,0.2c0.1,0.3,0.2,0.6,0.3,0.8c0,0.1-0.3,0.2-0.3,0.2
			c-0.2-0.2-0.4-0.4-0.6-0.6C186.1,191.1,186.1,190.9,186.1,190.8z"/>
		<path d="M233.4,218.5c0.2,0.3,0.5,0.5,0.4,0.6c-0.1,0.2-0.3,0.4-0.6,0.5c-0.1,0-0.4-0.3-0.4-0.4
			C232.9,219,233.1,218.8,233.4,218.5z"/>
		<path d="M246,199.8c-0.3,0.2-0.4,0.5-0.6,0.5c-0.2,0-0.4-0.2-0.5-0.3c0.2-0.2,0.3-0.4,0.5-0.5C245.5,199.3,245.7,199.6,246,199.8z
			"/>
		<path d="M138,86.9c0.2,0.2,0.5,0.4,0.5,0.5c0,0.2-0.2,0.3-0.3,0.5c-0.2-0.2-0.4-0.3-0.5-0.5C137.5,87.4,137.8,87.2,138,86.9z"/>
		<path d="M138.6,96.3c-0.2-0.3-0.5-0.5-0.4-0.6c0.1-0.2,0.3-0.4,0.5-0.5c0.1,0,0.4,0.3,0.4,0.4C139,95.9,138.8,96,138.6,96.3z"/>
		<path d="M267.4,198.4c-0.3,0.2-0.5,0.4-0.6,0.4c-0.2,0-0.4-0.2-0.6-0.3c0.2-0.2,0.3-0.4,0.6-0.5
			C266.9,197.9,267.1,198.2,267.4,198.4z"/>
		<path d="M158.2,78c-0.3,0.2-0.6,0.4-0.7,0.4c-0.2-0.1-0.3-0.4-0.5-0.6c0,0,0.3-0.3,0.4-0.3C157.7,77.6,157.8,77.8,158.2,78z"/>
		<path d="M137.6,91.7c-0.3,0.2-0.5,0.5-0.6,0.5c-0.2-0.1-0.4-0.3-0.5-0.5c0-0.1,0.3-0.5,0.4-0.4C137,91.3,137.2,91.5,137.6,91.7z"
			/>
		<path d="M296.3,220.1c-0.2-0.2-0.5-0.4-0.5-0.5c0-0.2,0.2-0.4,0.3-0.5c0.2,0.1,0.5,0.2,0.6,0.4
			C296.7,219.5,296.5,219.8,296.3,220.1z"/>
		<path d="M238.9,221.3c-0.2,0.1-0.4,0.3-0.7,0.3c-0.1,0-0.3-0.4-0.2-0.5c0.1-0.2,0.3-0.3,0.5-0.3c0.2,0,0.4,0.1,0.6,0.2
			C239,221.1,238.9,221.2,238.9,221.3z"/>
		<path d="M148,158.5c0.2,0.3,0.5,0.5,0.4,0.6c-0.1,0.2-0.3,0.4-0.6,0.5c-0.1,0-0.4-0.3-0.4-0.4C147.6,159,147.8,158.8,148,158.5z"
			/>
		<path d="M287.9,212c-0.3,0.2-0.4,0.5-0.6,0.5c-0.2,0-0.4-0.2-0.6-0.4c0.1-0.2,0.3-0.5,0.4-0.5C287.3,211.6,287.5,211.8,287.9,212z
			"/>
		<path d="M177.1,173c-0.4,0.3-0.6,0.5-0.8,0.5c-0.1,0-0.4-0.2-0.4-0.4c0-0.1,0.2-0.5,0.4-0.5C176.5,172.6,176.7,172.8,177.1,173z"
			/>
		<path d="M165.6,116.8c0.2,0.3,0.4,0.4,0.4,0.6c0,0.2-0.3,0.4-0.4,0.4c-0.1,0-0.4-0.2-0.4-0.4C165.2,117.3,165.4,117.1,165.6,116.8
			z"/>
		<path d="M139.6,145.1c-0.4-0.6-0.6-0.8-0.5-0.9c0-0.2,0.3-0.3,0.4-0.5c0.2,0.2,0.4,0.3,0.4,0.6C140,144.4,139.8,144.6,139.6,145.1
			z"/>
		<path d="M221.5,150.2c-0.3,0.2-0.5,0.4-0.7,0.5c-0.1,0-0.3-0.3-0.4-0.4c0.2-0.2,0.4-0.4,0.6-0.5
			C221,149.7,221.2,149.9,221.5,150.2z"/>
		<path d="M161.8,140.4c-0.2-0.2-0.6-0.4-0.5-0.5c0.1-0.2,0.3-0.5,0.5-0.6c0.1,0,0.5,0.2,0.5,0.3
			C162.1,139.9,161.9,140.1,161.8,140.4z"/>
		<path d="M140,138.7c-0.4,0.2-0.6,0.4-0.8,0.4c-0.1,0-0.3-0.3-0.4-0.4c0.2-0.1,0.4-0.4,0.6-0.4C139.5,138.2,139.7,138.5,140,138.7z
			"/>
		<path d="M169.1,114.8c-0.3,0.2-0.4,0.5-0.6,0.5c-0.2,0-0.3-0.2-0.5-0.4c0.1-0.2,0.2-0.4,0.4-0.5
			C168.6,114.4,168.8,114.6,169.1,114.8z"/>
		<path d="M132.6,135.7c-0.3,0.2-0.5,0.4-0.6,0.4c-0.2,0-0.3-0.3-0.4-0.4c0.2-0.1,0.3-0.4,0.5-0.4
			C132.2,135.2,132.4,135.5,132.6,135.7z"/>
		<path d="M137.2,142c-0.2-0.3-0.5-0.4-0.5-0.6c0-0.2,0.2-0.4,0.4-0.5c0.2,0,0.4,0.2,0.5,0.4C137.6,141.5,137.4,141.7,137.2,142z"/>
		<path d="M146.4,150.9c0.1,0.3,0.4,0.6,0.3,0.7c-0.1,0.2-0.3,0.4-0.5,0.5c-0.1,0-0.4-0.3-0.4-0.4
			C145.8,151.6,146,151.4,146.4,150.9z"/>
		<path d="M225.4,152.5c-0.3,0.2-0.5,0.4-0.7,0.3c-0.2,0-0.3-0.3-0.4-0.5c0.2-0.1,0.3-0.3,0.5-0.3
			C225,152.1,225.1,152.3,225.4,152.5z"/>
		<path d="M176.9,177.1c-0.3,0.2-0.4,0.4-0.6,0.4c-0.2,0-0.3-0.2-0.5-0.4c0.1-0.2,0.3-0.4,0.4-0.4
			C176.5,176.7,176.7,176.9,176.9,177.1z"/>
		<path d="M237.5,217.8c-0.3,0.2-0.5,0.4-0.6,0.4c-0.2,0-0.3-0.3-0.4-0.4c0.2-0.1,0.3-0.4,0.5-0.4
			C237.1,217.4,237.3,217.6,237.5,217.8z"/>
		<path d="M231.4,219.5c-0.3,0.2-0.5,0.4-0.6,0.3c-0.1,0-0.2-0.3-0.3-0.5c0.2-0.1,0.4-0.3,0.6-0.3
			C231.1,219.1,231.2,219.3,231.4,219.5z"/>
		<path d="M161.2,128.6c-0.3,0.2-0.4,0.4-0.5,0.4c-0.2-0.1-0.4-0.2-0.5-0.4c0-0.1,0.2-0.4,0.2-0.4
			C160.6,128.2,160.8,128.4,161.2,128.6z"/>
		<path d="M295.8,216.8c0.2,0.3,0.3,0.4,0.4,0.6c0,0.1-0.3,0.3-0.4,0.3c-0.2-0.1-0.3-0.3-0.4-0.5
			C295.3,217.2,295.6,217.1,295.8,216.8z"/>
		<path d="M19.7,170.5c0.5,0.2,1,0.4,1.5,0.6c0.3,0.1,0.7,0.1,1,0.2c0.5,0.1,0.8,0.4,0.7,0.9c-0.1,0.5-0.5,0.7-1,0.6
			c-1-0.3-2-0.6-3-1c-0.9-0.4-1.8-0.9-2.7-1.3c-0.5-0.2-1.3-0.5-1-1.1c0.3-0.7,0.9-0.4,1.5-0.2c0.4,0.1,0.8,0.2,1.4,0.3
			c-0.3-0.7-0.7-0.6-1.1-0.8c-0.7-0.3-1.4-0.6-2-1c-0.2-0.1-0.2-0.6-0.3-1c0.4-0.1,0.9-0.3,1-0.2c1.1,0.9,2.4,1,3.6,1.3
			c0.8,0.2,1,0.7,0.8,1.4C20,169.7,19.8,170,19.7,170.5z"/>
		<path d="M18.3,166.5c-0.6-0.1-0.9,0-1.1-0.2c-0.2-0.2-0.4-0.6-0.3-0.8c0.6-1.1,1.1-2.2,2.5-2.5c0.3-0.1,0.7-0.1,0.8,0.1
			c0.2,0.2,0.3,0.6,0.2,0.9c-0.2,0.7-0.5,1.4-0.9,1.9C19.2,166.3,18.6,166.4,18.3,166.5z"/>
		<path d="M62,175.5c0,0.7-0.4,1.1-1.1,0.8c-0.9-0.3-1.6-0.4-2.1,0.6c-0.1,0.2-0.7,0.3-0.8,0.2c-0.3-0.3-0.6-0.7-0.8-1.1
			c0-0.1,0.4-0.5,0.6-0.6c0.9-0.3,1.8-0.7,2.7-0.9C61.5,174.4,62,174.8,62,175.5z"/>
		<path d="M20.6,175c-0.6-0.3-1-0.5-1.4-0.8c-0.2-0.1-0.3-0.5-0.2-0.7c0.1-0.2,0.4-0.4,0.7-0.4c0.4,0,0.7,0.2,1.1,0.3
			c0.5,0.1,1.1,0.3,0.8,0.9C21.5,174.5,21,174.7,20.6,175z"/>
		<path d="M51.6,176.2c-0.2,0.2-0.2,0.4-0.4,0.5c-0.6,0.2-1.1,0.5-1.7,0.6c-0.1,0-0.4-0.1-0.5-0.2c-0.1-0.2-0.1-0.6,0-0.6
			c0.7-0.3,1.4-0.6,2.1-0.8C51.2,175.6,51.4,176,51.6,176.2z"/>
		<path d="M73.9,179.2c0.6,0.2,1,0.2,1.3,0.3c0.4,0.2,0.6,0.6,0.3,0.9c-0.1,0.2-0.6,0.3-0.8,0.3c-0.3,0-0.6-0.3-0.9-0.5
			c-0.2-0.2-0.4-0.4-0.7-0.6C73.5,179.5,73.7,179.3,73.9,179.2z"/>
		<path d="M122,176.4c0.1,0.1,0.5,0.2,0.5,0.3c0,0.2-0.1,0.5-0.3,0.7c-0.3,0.2-0.7,0.3-1,0.5c-0.4,0.2-0.8,0.1-0.9-0.4
			c0-0.3,0.3-0.6,0.6-0.8C121.1,176.5,121.5,176.5,122,176.4z"/>
		<path d="M83.1,177.2c-0.5,0.7-1.3,1.2-1.8,1c-0.2-0.1-0.4-0.3-0.4-0.5c0-0.2,0.2-0.5,0.3-0.6C81.7,177,82.4,176.7,83.1,177.2z"/>
		<path d="M66,180.9c-0.6,0.4-1.2,0.8-1.8,1.1c-0.1,0.1-0.4-0.1-0.5-0.2c-0.1-0.1-0.1-0.3,0-0.4c0.4-0.3,0.8-0.7,1.3-0.9
			c0.3-0.1,0.6,0,1,0C65.9,180.6,66,180.7,66,180.9z"/>
		<path d="M18.2,175.6c-0.1,0.8-0.5,1-0.9,0.9c-0.3,0-0.7-0.2-0.9-0.5c-0.2-0.3,0.4-0.9,0.9-0.8C17.6,175.2,17.9,175.5,18.2,175.6z"
			/>
		<path d="M69.5,177.9c0.1,0.3,0.4,0.6,0.4,0.9c0,0.4,0,0.9-0.6,1c-0.5,0.1-0.7-0.3-0.7-0.7c0.1-0.4,0.3-0.8,0.5-1.2
			C69.2,177.9,69.3,177.9,69.5,177.9z"/>
		<path d="M42.3,172c0.3,0.6,0.6,0.9,0.6,1.2c0,0.3-0.3,0.8-0.5,0.8c-0.5,0.1-0.8-0.3-0.8-0.8C41.7,172.9,41.9,172.6,42.3,172z"/>
		<path d="M34.8,174.4c0.4,0.6,0.7,0.8,0.7,1.1c0,0.3-0.4,0.6-0.7,0.7c-0.2,0.1-0.7-0.3-0.7-0.5C34.2,175.4,34.5,175,34.8,174.4z"/>
		<path d="M37.4,176.3c0.8-0.5,1.5-0.5,1.8-0.1c0.1,0.1,0.1,0.3,0,0.4c-0.1,0.2-0.4,0.4-0.5,0.4C38.2,176.8,37.9,176.5,37.4,176.3z"
			/>
		<path d="M41.3,173.8c-0.4,0.3-0.7,0.6-0.9,0.6c-0.2,0-0.6-0.4-0.6-0.6c0-0.2,0.4-0.6,0.6-0.6C40.7,173.2,40.9,173.5,41.3,173.8z"
			/>
		<path d="M45.1,178.5c-0.4,0.3-0.7,0.6-0.9,0.6c-0.2,0-0.6-0.4-0.6-0.6c0-0.2,0.4-0.6,0.6-0.6C44.4,177.8,44.7,178.2,45.1,178.5z"
			/>
		<path d="M25.3,173.4c-0.4,0.3-0.6,0.6-0.9,0.7c-0.2,0-0.4-0.3-0.7-0.5c0.3-0.2,0.5-0.5,0.8-0.7C24.6,172.9,24.9,173.2,25.3,173.4z
			"/>
		<path d="M56.2,171.8c-0.4,0.3-0.7,0.6-0.9,0.6c-0.2,0-0.5-0.4-0.6-0.6c0-0.1,0.3-0.5,0.5-0.5C55.5,171.2,55.7,171.5,56.2,171.8z"
			/>
		<path d="M68.3,181.7c-0.4,0.3-0.7,0.6-0.9,0.5c-0.2-0.1-0.5-0.4-0.5-0.7c0-0.1,0.4-0.5,0.5-0.5C67.7,181.1,67.9,181.4,68.3,181.7z
			"/>
		<path d="M29.5,175.8c-0.4,0.3-0.7,0.6-1,0.7c-0.1,0-0.4-0.3-0.6-0.5c0.2-0.2,0.4-0.5,0.7-0.7C28.8,175.2,29.1,175.5,29.5,175.8z"
			/>
		<path d="M25.9,172.2c-0.3-0.4-0.5-0.6-0.7-0.8c0.2-0.2,0.5-0.5,0.7-0.5c0.2,0,0.6,0.3,0.6,0.4C26.4,171.6,26.2,171.8,25.9,172.2z"
			/>
		<path d="M36.6,174.1c-0.3-0.3-0.5-0.5-0.7-0.7c0.2-0.2,0.4-0.5,0.7-0.5c0.2,0,0.4,0.3,0.6,0.4C37,173.6,36.8,173.8,36.6,174.1z"/>
		<path d="M54.7,173.8c-0.2,0.1-0.5,0.4-0.7,0.3c-0.3,0-0.5-0.3-0.7-0.5c0.2-0.2,0.3-0.6,0.5-0.6c0.3,0,0.5,0.2,0.8,0.3
			C54.5,173.5,54.6,173.6,54.7,173.8z"/>
		<path d="M64.9,178.5c-0.3-0.4-0.6-0.7-0.6-0.8c0.2-0.3,0.5-0.5,0.8-0.7c0,0,0.5,0.3,0.4,0.4C65.5,177.8,65.2,178,64.9,178.5z"/>
		<path d="M120.8,180.4c-0.3,0.3-0.6,0.6-0.7,0.6c-0.3-0.1-0.5-0.3-0.7-0.5c0.2-0.2,0.3-0.5,0.5-0.5
			C120.1,179.9,120.3,180.2,120.8,180.4z"/>
		<path d="M82.8,180.4c0.3,0.4,0.5,0.7,0.6,0.9c0,0.2-0.4,0.6-0.5,0.5c-0.3-0.1-0.6-0.3-0.7-0.5C82.2,181.1,82.5,180.8,82.8,180.4z"
			/>
		<path d="M34.3,173.9c-0.4,0.2-0.7,0.4-1,0.4c-0.2,0-0.4-0.3-0.6-0.5c0.3-0.2,0.5-0.5,0.8-0.6C33.7,173.2,34,173.6,34.3,173.9z"/>
		<path d="M94.1,181.6c-0.3,0.3-0.6,0.6-0.8,0.6c-0.2,0-0.4-0.3-0.6-0.5c0.2-0.2,0.4-0.5,0.6-0.6C93.4,181.1,93.7,181.4,94.1,181.6z
			"/>
		<path d="M31.4,172.1c0.2,0.4,0.5,0.6,0.4,0.8c-0.1,0.2-0.4,0.5-0.6,0.5c-0.2,0-0.6-0.4-0.5-0.5C30.8,172.7,31.1,172.5,31.4,172.1z
			"/>
		<path d="M114.4,183.7c-0.4,0.3-0.6,0.6-0.8,0.5c-0.2-0.1-0.5-0.4-0.6-0.6c0-0.1,0.4-0.5,0.5-0.5
			C113.9,183.2,114.1,183.5,114.4,183.7z"/>
		<path d="M77.7,177.5c-0.4,0.2-0.6,0.5-0.8,0.4c-0.2,0-0.3-0.3-0.5-0.5c0.2-0.2,0.4-0.4,0.6-0.4C77.2,177,77.4,177.2,77.7,177.5z"
			/>
		<path d="M118.7,182c-0.3,0.2-0.5,0.5-0.6,0.5c-0.2-0.1-0.5-0.3-0.5-0.5c0-0.1,0.3-0.5,0.5-0.5C118.3,181.5,118.4,181.8,118.7,182z
			"/>
		<path d="M27.7,171.1c-0.3-0.3-0.6-0.5-0.6-0.7c0-0.2,0.3-0.4,0.5-0.5c0.1,0,0.4,0.3,0.4,0.4C28.1,170.5,27.9,170.7,27.7,171.1z"/>
		<path d="M96.6,180.5c-0.4,0.2-0.6,0.3-0.8,0.3c-0.2,0-0.3-0.3-0.4-0.5c0.2-0.2,0.4-0.5,0.6-0.4C96.1,180,96.2,180.3,96.6,180.5z"
			/>
		<path d="M98.3,179.2c-0.1,0.3-0.1,0.7-0.4,0.9c-0.1,0.1-0.5-0.1-0.8-0.1c0.1-0.2,0.2-0.5,0.4-0.7C97.7,179.2,98,179.2,98.3,179.2
			L98.3,179.2z"/>
		<path d="M49,173.4c-0.3,0.2-0.5,0.5-0.6,0.5c-0.2,0-0.4-0.3-0.6-0.4c0.1-0.2,0.3-0.4,0.4-0.4C48.4,173,48.7,173.2,49,173.4z"/>
		<path d="M90.2,178.7c-0.2-0.3-0.4-0.6-0.4-0.6c0.1-0.2,0.4-0.3,0.6-0.4c0,0,0.3,0.3,0.3,0.4C90.6,178.2,90.4,178.4,90.2,178.7z"/>
		<path d="M84.1,178.6c0.2,0.3,0.4,0.5,0.4,0.6c0,0.2-0.3,0.4-0.4,0.4c-0.2,0-0.4-0.3-0.4-0.4C83.7,179,83.9,178.8,84.1,178.6z"/>
		<path d="M79.1,181.5c-0.2-0.3-0.4-0.6-0.4-0.6c0.1-0.2,0.4-0.3,0.6-0.4c0,0,0.3,0.3,0.3,0.4C79.5,181,79.3,181.2,79.1,181.5z"/>
		<path d="M116.6,180.8c0.2,0.3,0.4,0.5,0.4,0.5c-0.2,0.2-0.4,0.4-0.6,0.5c0,0-0.3-0.3-0.3-0.4C116.2,181.3,116.4,181.1,116.6,180.8
			z"/>
		<path d="M89.5,181.6c-0.2-0.3-0.4-0.5-0.5-0.7c0-0.1,0.3-0.4,0.4-0.4c0.2,0,0.4,0.3,0.4,0.4C89.9,181.1,89.7,181.3,89.5,181.6z"/>
		<path d="M71,176.5c-0.4,0.1-0.6,0.3-0.9,0.3c-0.1,0-0.2-0.3-0.3-0.4c0.2-0.1,0.4-0.3,0.7-0.3C70.6,176,70.7,176.3,71,176.5z"/>
		<path d="M87.8,182.4c-0.1-0.3-0.3-0.5-0.3-0.7c0-0.1,0.3-0.3,0.4-0.3c0.2,0.1,0.3,0.3,0.3,0.5C88.2,182,88,182.1,87.8,182.4z"/>
		<path d="M86.5,179.5c-0.2,0.2-0.4,0.4-0.5,0.3c-0.1,0-0.3-0.3-0.3-0.4c0-0.1,0.2-0.3,0.3-0.3C86.2,179.2,86.3,179.4,86.5,179.5z"
			/>
		<path d="M98.3,179.2c0.1-0.8,0.1-0.8,1.1-0.3C98.9,179,98.6,179.1,98.3,179.2C98.3,179.2,98.3,179.2,98.3,179.2z"/>
		<path d="M198.6,142.7c-0.1,0.7-0.5,0.8-0.9,0.6c-1-0.7-2.1-1.4-3.1-2.2c-0.9-0.8-1.7-1.7-2.6-2.5c-0.4-0.4-1-0.9-0.4-1.4
			c0.5-0.5,1,0.1,1.5,0.5c0.2,0.2,0.4,0.4,0.6,0.6c1.3,1.2,2.7,2.4,4,3.6C198.1,142.1,198.4,142.4,198.6,142.7z"/>
		<path d="M189.5,149.5c-0.2-0.1-0.5-0.3-0.7-0.5c-0.6-0.8-1.2-1.6-1.7-2.5c-0.1-0.2,0-0.6-0.1-0.9c0.3,0,0.8-0.1,1,0.1
			c0.8,0.9,1.6,1.8,2.3,2.8C190.7,149,190.2,149.6,189.5,149.5z"/>
		<path d="M188.9,130.4c0.2-0.1,0.2-0.1,0.3-0.1c1.4,0.5,2.3,1.8,3.5,2.7c0.1,0.1,0.1,0.6,0,0.8c-0.1,0.2-0.6,0.4-0.7,0.3
			c-0.8-0.6-1.5-1.2-2.2-1.9C189.3,131.7,188.8,131.2,188.9,130.4z"/>
		<path d="M192,149.6c-0.2-0.3-0.5-0.6-0.5-0.7c0-0.2,0.3-0.4,0.5-0.6c0.2,0.2,0.5,0.4,0.5,0.6C192.5,149,192.2,149.2,192,149.6z"/>
		<path d="M135,165.2c0.6,1.4,0.6,2.7,0.2,4c-0.3,1-0.8,2.1-1.2,3.1c-0.2,0.4-0.6,0.6-0.9,0.3c-0.2-0.1-0.1-0.6-0.1-0.9
			c0-0.1,0.1-0.2,0.1-0.3c1.1-1.6,1.3-3.4,1.4-5.2c0-0.3,0.1-0.6,0.1-0.8C134.6,165.4,134.7,165.3,135,165.2z"/>
		<path d="M139,167.6c-0.2,0.8-0.4,1.6-0.6,2.3c-0.1,0.3-0.5,0.5-0.7,0.7c-0.2-0.3-0.7-0.6-0.7-0.8c0.1-0.7,0.2-1.5,0.5-2.2
			C137.8,167.1,138.4,167.3,139,167.6L139,167.6z"/>
		<path d="M140.7,171.2c-0.2-0.2-0.2-0.2-0.2-0.3c-0.2-0.5-0.1-1,0.5-1.1c0.1,0,0.4,0.1,0.4,0.2
			C141.6,170.6,141.3,170.9,140.7,171.2z"/>
		<path d="M138.9,167.5c0.1-0.2,0.2-0.4,0.4-0.5c0,0,0.1,0.1,0.1,0.1C139.2,167.3,139.1,167.5,138.9,167.5
			C139,167.6,138.9,167.5,138.9,167.5z"/>
		<path d="M140.9,23.8c-0.1,1.3-0.1,2.5-0.2,3.8c0,0.4-0.1,1-0.7,0.9c-0.3-0.1-0.8-0.6-0.7-0.9c0-1.7,0.1-3.4,0.2-5
			c0-0.2,0.4-0.6,0.5-0.5c0.3,0.1,0.6,0.3,0.7,0.5C141,22.9,140.9,23.3,140.9,23.8C141,23.8,140.9,23.8,140.9,23.8z"/>
	</g>
</g>
</svg>
