<?xml version="1.0" encoding="utf-8"?>
<!-- Generator: Adobe Illustrator 22.0.1, SVG Export Plug-In . SVG Version: 6.00 Build 0)  -->
<svg version="1.1" id="Layer_1" xmlns="http://www.w3.org/2000/svg" xmlns:xlink="http://www.w3.org/1999/xlink" x="0px" y="0px"
	 viewBox="0 0 270.7 176.4" style="enable-background:new 0 0 270.7 176.4;" xml:space="preserve">
<g>
	<path d="M4.2,5c1.8,0.2,2,1.2,2.1,2.1c0.3,3.1,0.7,6.2,0.8,9.3c0.1,2.9,0.4,3.3,3.3,3.6c1.5,0.1,3,0,4.5-0.1
		c2.1-0.2,4.2-0.7,6.4-0.8c5.3-0.3,10.7-0.4,16-0.5c5.1-0.2,10.2-0.5,15.3-0.5c5.7-0.1,11.5,0,17.2,0c7.8,0,15.7-0.2,23.5,0.1
		c4.9,0.2,9.7,0.4,14.6,0.3c6.1-0.2,12.1-0.2,18.2-0.3c3.8,0,7.6,0.1,11.5,0.1c5.2-0.1,10.4-0.5,15.6-0.5c12.8,0,25.5-0.4,38.3,0.2
		c3.8,0.2,7.7-0.1,11.5-0.1c4.2,0,8.5,0,12.7,0.1c6.6,0,13.3,0.3,19.9,0.1c7.7-0.2,15.5-0.6,23.2-0.9c2.3-0.1,4.6-0.3,7-0.4
		c0-4,0-7.7,0-11.8c-1.2,0-2.3,0.1-3.4,0c-8.3-1.1-16.6-0.5-24.9,0c-4.3,0.3-8.6,0.1-13,0.2c-4.9,0.1-9.7,0.3-14.6,0.6
		C205,6,200,6.1,195,5.7c-3.1-0.3-6.2-0.2-9.3-0.2c-3.1-0.1-6.2,0-9.3-0.2c-10.8-0.7-21.7-0.7-32.5-0.6c-9.8,0.1-19.7,0-29.5-0.2
		c-7.7-0.1-15.3-0.6-23-0.8c-3.3-0.1-6.7,0.3-10.1,0.5c-2.8,0.1-5.6,0.2-8.4,0.3c-3.2,0.1-6.4,0.4-9.6,0.4c-3.4,0-6.7-0.2-10.1-0.3
		C45.8,4.3,38.3,4,30.9,4c-5.7,0-11.3,0.4-17,0.8C11.5,5,9.1,4.8,6.7,4c1.2-0.6,2.5-0.6,3.8-0.7c3.3-0.1,6.7-0.2,10-0.3
		c5.1-0.1,10.2-0.5,15.3-0.4C44,2.7,52.2,3.1,60.5,3.2c4.3,0.1,8.6-0.3,12.9-0.4c2-0.1,4,0,6-0.1C83.5,2.5,87.5,2,91.6,2
		c4.5,0,8.9,0.3,13.4,0.4c5.2,0.1,10.4,0.2,15.6,0.3c5.3,0.1,10.5,0.3,15.8,0.3c6.6,0,13.3,0,19.9-0.1c4.2-0.1,8.4-0.1,12.7,0.3
		c2.9,0.3,5.9,0.3,8.9,0.4c7.4,0.3,14.8,0.6,22.3,0.7c4.1,0.1,8.1-0.3,12.2-0.5c4.6-0.2,9.3-0.6,13.9-0.6c5.3,0.1,10.5-0.1,15.8-0.4
		c7.3-0.4,14.5-0.1,21.8,0c2.9,0,3.7,1.2,3.7,4.1c0,4.3,0.3,8.6,0.3,12.9c0.2,8.3,0.3,16.6,0.4,24.9c0.1,7.3,0.1,14.5-0.1,21.8
		c-0.3,10.9-0.8,21.9-1.3,32.8c-0.5,11.2-1.2,22.3-1.8,33.5c-0.3,6-0.9,11.9-0.9,17.9c0,6.2,0.1,12.4,1.2,18.6
		c0.4,2.1,0,2.5-2.1,2.7c-0.1,0-0.2,0-0.2,0c-7.8,0.1-15.5,0.3-23.3,0.2c-7-0.1-14.1-0.4-21.1-0.7c-5.8-0.2-11.6-0.7-17.5-0.9
		c-6.1-0.2-12.3-0.2-18.5-0.3c-6.1-0.1-12.3-0.2-18.4-0.3c-3.6,0-7.2,0.1-10.8-0.1c-8.8-0.5-17.6,0.1-26.3,0.2
		c-7.3,0.1-14.5,0.3-21.8,0.8c-5.9,0.4-11.8,1.2-17.6,1.9c-2,0.2-4,0.4-6,0.5c-4.7,0.2-9.4,0.3-14.1,0.5c-4.7,0.2-9.4,0.6-14.1,0.6
		c-4.3,0.1-8.6,0.1-12.9-0.2c-7.7-0.5-15.4-1.4-23.2-0.6c-2.8,0.3-5.6,0.1-8.4,0.2c-1.2,0-1.9-0.2-1.9-1.7
		c-0.1-3.6-0.5-7.1-0.7-10.7c-0.3-7.1-0.7-14.2-0.7-21.3c0-8.9,0.4-17.9,0.7-26.8c0.3-8.2,0.8-16.4,1-24.7
		c0.2-10.1,0.1-20.1-0.1-30.2C7,50.4,6.6,42.3,6.3,34.2C6.1,28.5,6,22.7,5.6,17c-0.2-3.3-0.8-6.6-1.2-10C4.3,6.4,4.3,5.8,4.2,5z
		 M258.2,147.1c1.4-0.1,2.8-0.4,4.5-0.6c0-1.6-0.1-3.2,0-4.8c0.4-6.9,0.9-13.9,1.3-20.8c0.5-8.9,1.1-17.7,1.5-26.6
		c0.5-10.8,1-21.6,1.2-32.3c0.2-5.9-0.1-11.8-0.2-17.7c-0.1-7.8-0.1-15.7-0.2-23.5c0-0.6-0.2-1.2-0.2-2c-0.7-0.1-1.3-0.2-2-0.2
		c-3.4,0.1-6.9,0.2-10.3,0.2c-10.9,0-21.9,0.8-32.8,0.6c-17.4-0.4-34.9-0.2-52.3-0.2c-7.6,0-15.2,0.1-22.8,0.2
		c-7,0.1-13.9,0.3-20.9,0.3c-2.2,0-4.5-0.2-6.7-0.2c-7.8,0-15.7,0.1-23.5,0.2c-1.8,0-3.7-0.1-5.5-0.1c-6.9,0-13.7,0-20.6,0
		c-3.6,0-7.2-0.2-10.8-0.2c-6.2,0.1-12.3,0.4-18.5,0.5c-3.4,0.1-6.9-0.2-10.3,0c-7.1,0.5-14.3,1.3-21.7,2c0,1.1,0,2.2,0,3.3
		c0.3,5.7,0.7,11.3,0.8,17c0.2,7,0.1,14,0.2,21c0.1,7.3,0.3,14.7,0.2,22C8.6,91.8,8.3,98.3,8,104.8c-0.3,7.4-0.6,14.8-0.8,22.3
		c-0.2,5.8-0.2,11.7-0.1,17.5c0,2.3,0.3,4.6,0.4,6.9c0.6,0.1,1,0.3,1.4,0.3c1.8-0.1,3.7-0.2,5.5-0.3c3.3-0.2,6.5-0.5,9.8-0.8
		c2.9-0.2,5.9-0.6,8.8-0.6c3.8-0.1,7.7,0,11.5,0c5.6,0.1,11.2,0.2,16.8,0.2c5.2,0,10.5,0.6,15.7,0.4c8.3-0.4,16.6-0.4,24.9-0.5
		c6.5-0.1,13.1,0,19.6-0.2c9.9-0.3,19.8-0.8,29.7-1.1c7.9-0.2,15.8-0.2,23.7-0.2 M192.7,165.4 M174,150.4c-7.5,0-15-0.1-22.5,0.1
		c-9.5,0.3-19,0.9-28.5,1.2c-4.3,0.1-8.6-0.3-12.9-0.2c-6.4,0.1-12.8,0.3-19.2,0.4c-5,0.1-9.9,0.4-14.9,0.4c-4.3,0-8.6-0.3-12.9-0.4
		c-6.9-0.2-13.9-0.3-20.8-0.4c-5.5,0-11,0.1-16.5,0.4c-3.9,0.2-7.8,0.7-11.7,1.1c-2.1,0.2-4.2,0.4-6.5,0.6c0.3,6.3,0.7,12.4,1,18.4
		c4.7,0,9.1,0,13.5,0c3.7,0,7.4-0.1,11,0.4c9.2,1.2,18.5,0.9,27.7,0.6c4.4-0.2,8.8-0.5,13.2-0.8c6.4-0.4,12.7-0.9,19.1-1.4
		c4.7-0.4,9.4-1.1,14.1-1.3c7.5-0.4,15-0.5,22.5-0.7c4.9-0.1,9.7-0.3,14.6-0.4c2.6,0,5.1,0.2,7.7,0.2c3.4,0,6.9-0.1,10.3,0
		c9.6,0.2,19.2,0.4,28.8,0.6c3.9,0.1,7.8,0,11.7,0.2c5.3,0.2,10.5,0.6,15.8,0.8c6.5,0.3,13.1,0.6,19.6,0.7c7.7,0.1,15.3-0.2,23-0.3
		c0.8,0,1.5-0.2,2.4-0.3c0.1-0.4,0.1-0.7,0.2-1c0-0.3,0.1-0.7,0-1c-1.3-3.9-0.9-7.9-1-11.9c-0.1-2.5,0-5,0-7.5"/>
	<g>
		<g>
			<path d="M62.9,157.3c-0.1,3.7-0.1,7.3-0.1,11c0,0.4,2.2,0.1,2.2-0.6c0.1-3.7,0.1-7.3,0.1-11C65.1,156.4,62.9,156.7,62.9,157.3
				L62.9,157.3z"/>
		</g>
	</g>
	<g>
		<g>
			<path d="M68,157.2c0,3.2,0,6.3-0.2,9.5c-0.1,1.2,2.2,0.9,2.2-0.2c0.1-3.2,0.2-6.3,0.2-9.5C70.2,155.9,68,156.2,68,157.2L68,157.2
				z"/>
		</g>
	</g>
	<g>
		<g>
			<path d="M33.1,156.4c-2,0-3.9-0.1-5.9-0.1c-1.1,0-2.9-0.4-3.9,0.3c-0.9,0.7-0.6,2.2-0.6,3.1c-0.1,2.2-0.1,4.3-0.2,6.5
				c0,0.4,0.3,0.6,0.7,0.6c2.9,0.3,6.4,0.5,9.2-0.3c1.2-0.3,1.2-0.8,1.3-1.9c0.1-2.5,0-5,0-7.6c0-1.1-2.2-0.7-2.2,0.2
				c0,1.4,0,2.8,0,4.1c0,1,0,1.9,0,2.9c0,0.3-0.1,0.7,0,1c0,0.1-0.1,0.7,0,0.5c0.4-0.2,0.8-0.4,1.1-0.6c-2.9,0.5-5.8,0.6-8.7,0.3
				c0.2,0.2,0.5,0.4,0.7,0.6c0-1.6,0.1-3.1,0.1-4.7c0-0.9-0.3-3.4,0.2-4.2c-0.3,0.2-0.6,0.4-0.8,0.6c1.2-0.3,2.7,0,3.9,0.1
				c1.4,0,2.8,0,4.2,0.1C33.3,157.9,34.6,156.5,33.1,156.4z"/>
		</g>
	</g>
	<g>
		<g>
			<path d="M47.1,167c2-2,4-4.1,6-6.1c0.2-0.2,0.3-0.6,0.1-0.8c-1.9-1.8-4.1-3.1-6.5-4.1c-0.5-0.2-1.7,0.1-1.7,0.8
				c0,3.3,0.1,6.7,0.1,10c0,1.1,2.2,0.7,2.2-0.2c0-3.3-0.1-6.7-0.1-10c-0.6,0.3-1.2,0.5-1.7,0.8c2.1,0.9,4.1,2.1,5.8,3.6
				c0-0.3,0.1-0.5,0.1-0.8c-2,2-4,4.1-6,6.1C44.3,167.3,46.4,167.6,47.1,167z"/>
		</g>
	</g>
</g>
</svg>
