<?xml version="1.0" encoding="utf-8"?>
<!-- Generator: Adobe Illustrator 22.0.1, SVG Export Plug-In . SVG Version: 6.00 Build 0)  -->
<svg version="1.1" id="Layer_1" xmlns="http://www.w3.org/2000/svg" xmlns:xlink="http://www.w3.org/1999/xlink" x="0px" y="0px"
	 viewBox="0 0 189.9 89.4" style="enable-background:new 0 0 189.9 89.4;" xml:space="preserve">
<style type="text/css">
	.st0{fill:#E4E4E4;}
</style>
<g>
	<g>
		<path class="st0" d="M184.5,26.5c-5.6-1.7-18.7-2-18.7-2c0.1,0.1-1.7-22.7-1.7-22.7C127.8,4.6,3.6,2.5,3.6,2.5
			C6.5,29.6,5.7,85,5.7,85c6.9,1.2,160.8,0.3,161,1.2c-0.1-6.6-0.2-13.2-0.4-19.7l18.7-1.7C185.1,52.2,184.5,26.5,184.5,26.5z"/>
		<g>
			<path d="M185.3,26.1c-4.8-1.3-10-1.6-15-1.9c-0.8,0-3.7-0.2-3.5-0.1c-0.3-0.4-0.1-2.1-0.2-2.6c-0.5-6.7-1-13.4-1.5-20.1
				c0-0.2-0.5-0.1-0.6-0.1c-23.4,1.8-47,1.5-70.4,1.5C69.4,2.9,44.7,2.6,20,2.3C14.7,2.2,9.5,2.2,4.3,2.1C4,2.1,2.4,2.3,2.5,2.8
				C5.3,30.1,5,57.9,4.6,85.3c0,0.1,0.1,0.1,0.2,0.1c5.8,0.9,12.2,0.4,18.1,0.5c12.8,0.1,25.6,0.2,38.4,0.2c28,0.1,56,0,84,0.2
				c4.8,0,9.6,0.1,14.5,0.1c1,0,5.4-0.4,6,0.2c0.3,0.3,2.1-0.2,2.1-0.7c-0.1-6.6-0.2-13.2-0.4-19.7c-0.5,0.2-1,0.5-1.6,0.7
				c6.2-0.6,12.5-1.1,18.7-1.7c0.3,0,1.6-0.2,1.6-0.7c0-12.8-0.3-25.5-0.7-38.3c0-0.3-2.2,0-2.2,0.6c0.3,12.8,0.6,25.5,0.7,38.3
				c0.5-0.2,1-0.5,1.6-0.7c-6.2,0.6-12.5,1.1-18.7,1.7c-0.3,0-1.6,0.2-1.6,0.7c0.1,6.6,0.2,13.2,0.4,19.7c0.7-0.2,1.4-0.4,2.1-0.7
				c-0.9-1-5.9-0.3-7.1-0.3c-6.3-0.1-12.6-0.1-18.9-0.1c-19.3-0.1-38.7-0.1-58-0.1c-18.8,0-37.6,0-56.4-0.2
				c-5.6-0.1-11.2-0.1-16.9-0.3c-0.7,0-3.3,0.3-3.8-0.2c-0.2-0.2,0.1-4,0.1-4.7c0.2-25.8,0.5-52-2.2-77.7C4,2.4,3.4,2.7,2.8,2.9
				c50.3,0.9,100.8,2.1,151-0.1c2.4-0.1,5.6-0.8,8-0.4c1.7,0.3,0.7-0.5,1.3,0.6c0.5,0.8,0.2,2.7,0.3,3.7c0.5,5.9,1.7,12.3,1.3,18.2
				c0,0.1,0.3,0.1,0.4,0.1c6.1,0.2,12.5,0.4,18.5,2C184,27,185.9,26.3,185.3,26.1z"/>
		</g>
	</g>
</g>
</svg>
