<?xml version="1.0" encoding="utf-8"?>
<!-- Generator: Adobe Illustrator 22.1.0, SVG Export Plug-In . SVG Version: 6.00 Build 0)  -->
<svg version="1.1" id="Layer_1" xmlns="http://www.w3.org/2000/svg" xmlns:xlink="http://www.w3.org/1999/xlink" x="0px" y="0px"
	 viewBox="0 0 116.3 67.9" style="enable-background:new 0 0 116.3 67.9;" xml:space="preserve">
<style type="text/css">
	.st0{fill:#232222;}
</style>
<g>
	<g>
		<path class="st0" d="M8.1,8.2c0.4,16.7,0.1,33.5-0.3,50.2c0,1.1,1.2,1.5,2.1,1.4c12.6-1.4,25.8-0.3,38.4-0.2
			c17,0.1,33.9,0.3,50.9,0.2c0.9,0,2.6-0.8,2.6-1.8c0.1-16.7,0.2-33.5,0.1-50.2c0-1.2-1.1-1.4-2.1-1.4c-29.7,0-59.4,0-89,0
			c-2.6,0-3.7,3.2-0.5,3.2c29.7,0,59.4,0,89,0c-0.7-0.5-1.4-0.9-2.1-1.4c0.1,16.7,0.1,33.5-0.1,50.2c0.9-0.6,1.7-1.2,2.6-1.8
			c-17.4,0.1-34.8-0.1-52.2-0.2c-12.2-0.1-25-1.1-37.1,0.2c0.7,0.5,1.4,0.9,2.1,1.4c0.4-16.7,0.7-33.5,0.3-50.2
			C12.8,5.5,8.1,6.3,8.1,8.2z"/>
	</g>
</g>
<g>
	<path class="st0" d="M99.6,22c1.7,0.1,6.8,0.2,7.1,0.5c0.3,0.3-0.4,18-0.6,23.8c-2,0.2-4.4,0-6.6,0.1"/>
	<g>
		<path class="st0" d="M98.1,23c1.5,0.1,5.7-0.2,6.3,0.5c0.7,1,0,5-0.1,6.1c-0.2,5.7-0.4,11.5-0.6,17.2c1.1-0.6,2.2-1.1,3.3-1.7
			c-2.2,0.1-4.4,0.1-6.6,0.1c-1.4,0-5.1,2.1-2,2.1c2.2,0,4.4,0,6.6-0.1c0.9-0.1,3.3-0.5,3.3-1.7c0.3-6.5,0.5-13,0.7-19.5
			c0-1,0.5-3.6-0.2-4.5c-1.1-1.2-6.3-0.6-7.8-0.7C100,20.9,95.8,22.9,98.1,23L98.1,23z"/>
	</g>
</g>
<g>
	<path class="st0" d="M16,14.6c0.3,12.1,1.2,25.7,0.6,37.8c1.9,0.3,7.9-0.1,9.8-0.1c0.5,0-1.7-26.1-1.2-38.1
		C21.1,14.6,16,14.6,16,14.6z"/>
	<g>
		<path class="st0" d="M14.4,15c0.3,12.6,1.1,25.2,0.6,37.8c0,0.2,0.5,0.3,0.6,0.3c2.5,0.2,5.1,0.1,7.6,0c1.1,0,3.3,0.3,4.2-0.5
			c1.4-1.2,0.7-3.7,0.6-5.4c-0.5-11.1-1.5-22.3-1.2-33.4c0-0.3-0.8-0.3-0.9-0.3c-2.9,0.3-5.9,0.4-8.8,0.4c-0.7,0-3.6,1.3-2,1.4
			c1.6,0,3.2,0,4.8-0.1c3.6-0.1,3.7-0.1,3.7,3.4c0,4.7,0.2,9.3,0.4,14c0.2,4.4,0.5,8.8,0.7,13.3c0.1,1.5,1,5.4,0.2,6.7
			c0.7-0.3,1.5-0.6,2.2-0.9c-1.9,0-6.3,1.1-7.9,0.2c-1.1,0.3-1.4-0.3-0.9-1.6c0-1.2,0.1-2.4,0.1-3.5c0-2.1,0-4.2,0-6.3
			c-0.1-8.8-0.6-17.5-0.8-26.2C17.6,13.5,14.4,14,14.4,15z"/>
	</g>
</g>
</svg>
