<?xml version="1.0" encoding="utf-8"?>
<!-- Generator: Adobe Illustrator 22.0.1, SVG Export Plug-In . SVG Version: 6.00 Build 0)  -->
<svg version="1.1" id="Layer_1" xmlns="http://www.w3.org/2000/svg" xmlns:xlink="http://www.w3.org/1999/xlink" x="0px" y="0px"
	 viewBox="0 0 39.6 67.4" style="enable-background:new 0 0 39.6 67.4;" xml:space="preserve">
<style type="text/css">
	.st0{fill:#FFFFFF;}
</style>
<g>
	<path class="st0" d="M35.6,63.2c-7.5-19.8-14.4-39.8-20.7-60L3.8,2.7c2.4,20.6,2.8,41.4,1.2,62L35.6,63.2z"/>
	<g>
		<path d="M36.7,62.9C29.3,43.1,22.4,23.1,16,2.9c0-0.1-0.3-0.2-0.4-0.2C11.9,2.5,8.2,2.4,4.5,2.2C4.1,2.2,2.6,2.4,2.7,3
			C5,23.6,5.4,44.3,3.9,65c0,0.2,0.5,0.2,0.6,0.2c10.2-0.5,20.4-1,30.7-1.5c0.6,0,2.4-1,0.9-1c-9.4,0.5-18.9,0.9-28.3,1.4
			c-3.6,0.2-1.6-0.8-1.4-4.5C6.8,53.4,7,47.3,7,41.1C7.1,28.2,6.3,15.3,4.9,2.4C4.3,2.7,3.7,2.9,3.1,3.2C6,3.3,9,3.4,11.9,3.6
			c2.8,0.1,2.3,0.8,3.1,3.6c1.1,4,2.6,8,3.9,11.9C23.8,34,29,48.8,34.6,63.5C34.8,64.1,36.9,63.4,36.7,62.9z"/>
	</g>
</g>
</svg>
