<?xml version="1.0" encoding="utf-8"?>
<!-- Generator: Adobe Illustrator 22.0.1, SVG Export Plug-In . SVG Version: 6.00 Build 0)  -->
<svg version="1.1" id="Layer_1" xmlns="http://www.w3.org/2000/svg" xmlns:xlink="http://www.w3.org/1999/xlink" x="0px" y="0px"
	 viewBox="0 0 249.2 141.7" style="enable-background:new 0 0 249.2 141.7;" xml:space="preserve">
<style type="text/css">
	.st0{fill:#E4E4E4;}
</style>
<g>
	<path class="st0" d="M121.4,87.2c0,0,0.3,8.3,1.4,9.3c1.1,1,0.6,3.2,8.1,5.5c7.5,2.3,16.1,4,16.1,4s6.8-0.9,8.1,0
		c1.2,0.9,8.8,12.8,8.8,12.8l6.2,6.1c0,0,0.2,1.5,1.7,2.2c1.5,0.6,8.1,5.2,8.1,5.2l2.2-1.1l-0.6-1.7l1.9-0.2l-0.4-1.7l1.8-0.6
		l-0.6-2l1.1,0.2l0.2-1.2l1.8-0.9l-0.4-1.1l0.9-0.3l-0.2-1.3l1.9-0.4v-1.1l1.2-0.7v-0.9l1.1-0.7v-0.9l1.4-0.8l-1-1.6l-10-5.4l-0.9-5
		l-1.1-1.5l-1.6,0.1l-1.5,1.6l-7.3-3.3l2.6-6.9l2-5.8l-35.5-8.5L121.4,87.2z"/>
	<path d="M225,35.2c-0.2-0.2-0.4-0.3-0.7-0.5c0.3-0.2,0.5-0.3,0.6-0.5c0.2-0.2,0.3-0.4,0.4-0.6c0.3-0.8,0.1-1.1-0.7-1.1
		c-1.6-0.1-3.2-0.3-4.8,0c-1.1,0.2-2.2,0.2-3.4,0.3c-1.1,0.1-2.2,0.2-3.3,0.3c-1.9,0.2-3.7,0.8-5.6,0.7c-0.6,0-1.2-0.1-1.8,0
		c-0.5,0-1.1,0.2-1.6,0.3c-0.8,0.2-1.5,0.5-2.3,0.6c-3.4,0.2-6.9,0.4-10.3,0.5c-1.1,0-2.2-0.3-3.2-0.9c-0.3-0.2-0.6-0.4-1-0.6
		c-1.7-0.5-3.4-1.1-5.2-1.5c-2.3-0.6-4.7-1-6.9-2c-2.9-1.2-5.8-2.4-8.9-3c-1.1-0.2-2.2-0.5-3.3-0.8c-1-0.2-2-0.4-3-0.6
		c-1-0.2-2.1-0.4-3.1-0.6c-0.2,0-0.5,0-0.7,0c-1,0.4-2,0.7-2.9,1.2c-2.2,1-4.3,2.1-6.5,3.3c-0.6,0.3-1.1,0.3-1.6,0.1
		c-1.6-0.6-3.3-1.1-5-1.3c-1.5-0.2-3.1-0.6-4.7-0.3c-0.5,0.1-1.1,0-1.5-0.2c-1.4-0.8-2.9-1-4.5-1.2c-1.4-0.2-2.7-0.7-3.7-1.6
		c-1.4-1.3-3.1-1.9-4.6-3.1c-0.2-0.1-0.4-0.2-0.6-0.3c-1.1-0.5-2.3-0.5-3.5-0.5c-1.4,0-2.8,0-4.2-0.2c-2.8-0.4-5.6-1.2-8.1-2.6
		c-1-0.5-2-1.1-3-1.6c-1.4-0.7-2.8-1.3-4.3-1.9c-0.3-0.1-0.7-0.2-1-0.1c-1.2,0.3-2.3,0.3-3.5,0c-1.3-0.3-2.6-0.4-3.9-0.2
		c-0.9,0.2-1.8,0.1-2.7,0.3c-1.4,0.2-2.9,0.4-4.3,0.7c-1.2,0.3-2.4,0.7-3.6,1.1c-1.2,0.4-2.5,0.7-3.7,1c-0.9,0.2-1.8,0.4-2.8,0.6
		c-0.6,0.1-0.9-0.1-1.3-0.6c-1-1.2-2-2.4-3-3.6c-0.3-0.4-0.8-0.6-1.3-0.5c-0.6,0.1-1.2,0.2-1.8,0.4c-0.7,0.3-1.2,0.1-1.8-0.3
		c-0.7-0.5-1.5-1.1-2.2-1.6c-1-0.6-2.1-1.1-3.3-0.4c-0.7,0.4-1.5,0.4-2.2-0.2c-1.1-0.9-2.4-1.4-3.7-2c-1.3-0.6-2.7-1.1-3.8-2.1
		c-1.7-1.4-3.5-2.7-5.2-4.1c-0.5-0.4-0.9-0.8-1.5-0.8c-0.7-0.1-0.8,0-0.7,0.7c0.1,0.5,0.3,1,0.1,1.6c-0.5,0.1-1,0.2-1.5,0.3
		c-0.6,0.1-0.7,0.3-0.5,0.9c0.1,0.2,0.1,0.4,0.2,0.7c-0.5,0.1-0.9,0.2-1.3,0.2c-0.6,0.1-0.7,0.3-0.6,0.9c0.1,0.3,0.2,0.6,0.2,1
		c-0.2,0-0.4,0.1-0.5,0.1c-1.1,0-1.1,0-1,1c0,0.3,0,0.6,0,1c-0.4,0-0.7,0-0.9,0c-0.8,0-0.9,0.1-0.9,0.9c0,0.6,0,1.1,0,1.8
		c-0.3,0-0.5,0-0.7,0c-0.9-0.1-1.1,0.1-1,1c0.1,0.4,0.1,0.8,0.1,1.2c-0.5,0-0.8,0-1.2,0.1c-0.8,0.1-1,0.3-0.8,1.1
		c0.1,0.4,0.4,0.8,0,1.3c-0.4,0-0.8,0-1.2,0c-0.6,0-0.8,0.2-0.6,0.8c0.1,0.5,0.3,0.9,0,1.4c-0.3,0-0.6,0-0.9,0.1
		c-1,0-1.1,0.2-0.9,1.1c0.1,0.3,0.1,0.7,0.2,1.1c-0.6,0.1-1,0.1-1.4,0.2c-0.6,0.1-0.7,0.2-0.6,0.9c0.1,0.3,0.2,0.7,0.2,1.1
		c-0.4,0-0.6,0.1-0.8,0.1c-1.1,0-1.1,0.1-1,1.2c0,0.3,0,0.6,0,1c-0.3,0-0.5,0.1-0.7,0.1c-0.2,0-0.4,0-0.6,0
		c-0.7,0.1-0.9,0.5-0.7,1.2c0.1,0.3,0.2,0.6,0.3,1c-0.6,0-1,0-1.4,0.1c-0.5,0.1-0.7,0.3-0.6,0.8c0,0.2,0.1,0.3,0.1,0.5
		c0.1,0.6,0,0.8-0.7,0.8c-0.1,0-0.3,0-0.4,0c-0.7,0.1-0.8,0.2-0.8,0.8c0,0.5,0,1,0,1.6c-0.4,0-0.8-0.1-1.2-0.1
		c-0.9-0.1-1.2,0.3-0.9,1.2c0.1,0.4,0.3,0.8,0.4,1.3c-0.6,0-1,0-1.4,0c-0.6,0-0.7,0.2-0.6,0.8c0.1,0.4,0.2,0.9,0.4,1.5
		c-0.6,0-1-0.1-1.4-0.1c-0.7-0.1-0.9,0.2-0.8,0.9c0.1,0.4,0.2,0.8,0.3,1.2c-0.8,0.4-1.9,0.2-2.4,1c0,0.5,0.8,0.6,0.4,1.2
		c-0.3,0-0.6-0.1-0.9-0.1c-0.9,0-1.1,0.3-0.8,1.1c0.1,0.4,0.2,0.8,0.4,1.3c-0.5,0.1-0.9,0.1-1.2,0.2c-0.9,0.1-1.1,0.4-0.9,1.3
		c0.1,0.3,0.2,0.7,0.4,1.2c-0.6,0.1-1,0.1-1.5,0.2c-1.2,0-1.3,0.1-1,1.3c0.1,0.5,0.2,0.9,0.4,1.5C4.8,51,4.4,51,4.1,51
		c-0.7,0.1-0.9,0.3-0.7,1c0.1,0.4,0.2,0.7,0.2,1.1c-0.4,0.3-0.8,0.3-1.3,0.2c-0.2,0-0.5,0.1-0.6,0.2c-0.1,0.1,0,0.5,0.1,0.6
		c0.4,0.5,0.8,1,1.3,1.4c1.4,1.3,3,2.5,4.4,3.8c1.4,1.4,3.1,2.6,4.2,4.3c0.2,0.2,0.4,0.4,0.7,0.5c0.6,0.2,1.2,0.4,1.8,0.5
		c1.4,0.2,2.9,0.4,4.3,0.6c0.3,0,0.7,0.1,1,0.2c2.1,0.5,4.2,1.1,6.3,1.6c1.8,0.5,3.6,1.2,5.3,2.1c1.3,0.7,2.6,1.4,3.8,2.1
		c0.3,0.2,0.8,0.2,1.2,0.3c1.1,0.2,2.2,0.3,3.3,0.8c0.8,0.4,1.6,0.7,2.4,1c2.9,1,5.7,2,8.6,2.9c3.9,1.3,7.8,2.7,11.7,3.9
		c2,0.6,3.9,1.5,5.9,1.8c1.6,0.2,3.2,0.5,4.8,0.9c3.3,0.8,6.6,1.7,9.9,2.6c0.7,0.2,1.3,0.3,2,0.5c1.2,0.3,2.4,0.8,3.6,1
		c0.9,0.2,1.7,0.4,2.4,0.9c0.6,0.4,1.2,0.9,2,0.4c0,0,0.1,0,0.2,0c1.1,0,2.2,0,3.2,0.1c1.4,0.1,2.7,0.2,4.1,0.3
		c6.1,0.1,12.2,0.1,18.3,0.2c0.9,0,1.8-0.2,2.7,0c0,0,0,0,0,0.1c0.3,2.2,0.7,6.7,1.9,8.7c0.4,0.6,0.8,1.1,1.4,1.4
		c2.4,1.3,5,2.2,7.7,3c1.2,0.4,2.4,0.8,3.6,1.1c1.9,0.6,3.8,1.2,5.7,1.7c3.2,0.7,6.4,0.9,9.6,1.1c0.9,0.1,1.9,0,2.8,0
		c0.5,0,0.9,0.1,1.2,0.5c1.6,2,3,4.2,4.5,6.3c1.8,2.7,3.7,5.2,5.9,7.5c1.4,1.5,2.8,2.9,4.2,4.4c0.2,0.2,0.4,0.5,0.4,0.8
		c0,0.6,0.2,1,0.8,1.2c0.2,0.1,0.5,0.3,0.7,0.4c1,0.7,2,1.5,3.1,2.1c1.3,0.8,2.8,1.3,4,2.4c0.4,0.3,0.8,0.7,1.2,0.9
		c0.3,0.2,0.7,0.3,1.1,0.3c0.4,0,0.9,0,1-0.5c0-0.2-0.3-0.5-0.5-0.8c0,0,0-0.1,0-0.2c0.3-0.1,0.6-0.2,0.8-0.3
		c0.5-0.2,0.6-0.5,0.3-0.9c-0.1-0.2-0.3-0.4-0.5-0.6c1.8-0.5,1.8-0.5,1.6-2c0.5-0.2,1-0.3,1.4-0.6c0.6-0.4-0.2-1,0-1.5
		c0.5-0.2,1.3-0.1,1.5-0.8c-0.1-0.3-0.3-0.6-0.4-0.9c1.5-0.7,1.5-0.7,1.4-1.7c0.3-0.2,0.8-0.4,0.9-0.7c0.1-0.3-0.1-0.7-0.2-1.2
		c0.3,0,0.6-0.1,0.8-0.1c1.2-0.2,1.2-0.2,0.8-1.3c0,0,0-0.1,0.1-0.2c0.5-0.2,0.9-0.4,1.4-0.5c0-0.4,0-0.7-0.1-0.9
		c1.3-0.6,1.3-0.6,1.1-1.7c0.4-0.3,0.7-0.6,1.2-0.9c0.5-0.4,0.6-0.6,0.1-1c-1.3-0.9-2.5-1.8-3.9-2.6c-2.3-1.3-4.7-2.5-7-3.7
		c0-0.1-0.1-0.2-0.1-0.3c-0.2-1.6-0.4-3.2-0.7-4.7c-0.1-0.6-0.3-1.3-0.7-1.6c-0.9-0.8-2.4-0.3-2.8,0.7c-0.6,0.4-1.2,0.7-1.7,1.1
		c-1.9-1-3.8-1.9-5.7-2.9c-0.5-0.2-0.5-0.6-0.4-1c0.4-1.4,0.8-2.9,1.3-4.3c0.5-1.4,1.2-2.8,1.9-4.2c0.2-0.5,0.3-0.9,1-0.8
		c0.2,0,0.4-0.2,0.6-0.4c1.1-1,2.1-2.1,3.3-3c2.6-2.1,5.2-4.2,7.6-6.7c1.5-1.5,3.1-2.9,5.1-3.6c1.1-0.4,2.2-0.7,3.3-1.1
		c0.5-0.2,1.2-0.2,1.4-1c0-0.1,0.4-0.2,0.6-0.4c1-0.5,2-0.9,2.9-1.6c1-0.7,2.1-1,3.2-1.2c0.8-0.1,1.2-0.5,1.5-1.3
		c0.1-0.5,0.4-1,0.5-1.5c0.4,0,0.8-0.1,1.1-0.1c2.4-0.2,4.8-0.6,7.2-0.7c2.3-0.1,4.5,0.2,6.8,0.3c1,0,2-0.1,2.9-0.3
		c0.9-0.2,1-0.7,0.4-1.4c-0.2-0.2-0.4-0.5-0.7-0.7c0.2-0.3,0.4-0.6,0.6-0.8c0.5-0.7,0.5-0.8-0.2-1.4c-0.2-0.2-0.4-0.4-0.6-0.6
		c0.3-0.4,0.6-0.6,0.8-0.9c0.5-0.6,0.4-0.9-0.1-1.4c-0.3-0.3-0.5-0.6-0.9-0.9c0.4-0.3,0.6-0.5,0.9-0.7c0.8-0.6,0.8-0.8,0.1-1.5
		c-0.2-0.3-0.5-0.5-0.8-0.8c0.6-0.5,1-0.8,1.5-1.2c0.4-0.3,0.4-0.7,0.1-1.1c-0.3-0.3-0.6-0.7-0.9-1.1c0.4-0.7,1.3-0.8,1.3-1.7
		c-0.5-0.5-1-1-1.6-1.5c0.5-0.5,1-0.9,1.5-1.4c-0.4-0.5-0.7-0.9-1.1-1.4c0.4-0.3,0.7-0.6,1-0.9c0.4-0.4,0.4-0.7,0-1.1
		c-0.3-0.3-0.6-0.6-1-0.9c0.4-0.3,0.8-0.5,1.1-0.8c0.8-0.6,0.8-0.9,0.1-1.5c-0.2-0.2-0.4-0.4-0.7-0.7c0.4-0.4,0.7-0.7,1-1
		c0.4-0.4,0.4-0.6,0-1c-0.3-0.3-0.6-0.5-0.9-0.9c0.5-0.4,0.9-0.8,1.3-1.1C225.5,35.9,225.5,35.6,225,35.2z M58.7,78.2
		c-1-0.3-1.8-0.5-2.7-0.8c-3.9-1.3-7.9-2.6-11.8-3.9c-1.1-0.4-2.2-0.9-3.3-1.4c-1.4-0.6-2.9-1.1-4.4-1.4c-1.2-0.2-2.4-0.9-3.6-1.4
		c-0.2-0.1-0.4-0.2-0.6-0.4c-1.5-1.3-3.3-1.7-5.1-2.3c-0.7-0.2-1.5-0.5-2.2-0.7c-2.5-0.8-5.1-1.3-7.7-1.7c-1.3-0.2-2.5-0.4-3.8-0.7
		c-0.4-0.1-0.9-0.3-1.1-0.6c-1.7-2.1-3.8-3.8-5.8-5.6c-1.1-1-2.2-2-3.5-3.2c0.5,0,0.8,0,1.1-0.1c0.7-0.1,0.8-0.3,0.6-0.9
		c-0.1-0.4-0.2-0.8-0.4-1.3c0.5,0,0.9-0.1,1.3-0.1c0.9-0.1,1-0.3,0.7-1.1c-0.2-0.5-0.3-1-0.5-1.5c0.9-0.8,2,0.1,2.8-0.7
		c-0.3-0.6-0.5-1.3-0.9-2c0.9-0.2,1.6-0.4,2.5-0.6c-0.2-0.7-0.4-1.2-0.6-1.8c0.7-0.4,1.5,0.1,2-0.7c-0.1-0.4-0.2-0.8-0.3-1.4
		c0.4-0.1,0.7-0.1,1-0.2c1.1-0.1,1.2-0.1,1-1.3c0-0.2-0.1-0.5-0.1-0.8c0.5,0.1,0.9,0.1,1.3,0.1c0.8,0.1,1-0.2,0.9-0.9
		c0-0.3-0.1-0.6-0.1-0.9c0-0.1,0-0.2,0.1-0.4c0.3,0,0.6,0,1,0c0.7,0,0.9-0.3,0.7-1c-0.1-0.4-0.2-0.9-0.4-1.5c0.6,0,0.9,0.1,1.3,0.1
		c0.7,0,0.8-0.1,0.8-0.8c0-0.5,0-1.1,0-1.7c0.4,0,0.8,0,1.2-0.1c0.8-0.1,0.9-0.2,0.8-1c0-0.3-0.1-0.6-0.2-1c0.4,0,0.7-0.1,1-0.1
		c0.8,0,1.1-0.4,0.9-1.2c-0.1-0.3-0.1-0.5-0.2-0.8c0,0,0-0.1,0-0.1c0.4-0.4,0.8-0.3,1.3-0.3c0.7,0,0.8-0.2,0.7-0.9
		c-0.1-0.4-0.1-0.8-0.2-1.3c0.4,0,0.7-0.1,1-0.1c0.9,0,1.1-0.2,1-1.1c0-0.2-0.1-0.3-0.1-0.5c0-0.1,0-0.3,0-0.5c0.4,0,0.7,0,1.1,0
		c0.7,0,0.9-0.2,0.8-0.9c-0.1-0.4-0.1-0.9-0.2-1.4c0.3,0,0.6-0.1,0.8-0.1c0.9-0.1,1-0.2,1.1-1.1c0-0.3,0-0.7,0-1.1
		c0.3,0,0.6,0.1,0.8,0.1c0.7,0.1,1-0.1,1-0.8c0-0.5-0.1-1.1-0.1-1.7c0.3,0,0.6-0.1,0.9-0.1c1-0.1,1.1-0.2,1-1.2c0-0.3-0.1-0.6-0.1-1
		c0.6-0.1,1.1-0.1,1.8-0.2c0-0.8-0.1-1.6-0.1-2.5c0.3,0,0.6-0.1,0.9-0.1c0.9,0,1-0.1,1-1c0-0.3,0-0.6,0-1c0.3,0,0.6-0.1,0.8-0.1
		c0.7-0.1,0.9-0.3,0.7-1c-0.1-0.3-0.1-0.6-0.2-0.9c0.4-0.1,0.6-0.2,0.9-0.3c0.9-0.2,0.9-0.2,0.8-1.2c0-0.1,0-0.3,0-0.5
		c0.4,0.1,0.6,0.1,0.9,0.2c0.9,0.3,1.1,0.2,1-0.8c0-0.3-0.1-0.7-0.1-1c0-0.1,0-0.3,0.1-0.6c1.3,1,2.5,1.8,3.7,2.8
		c1,0.7,1.9,1.6,2.8,2.3c0.6,0.4,1.3,0.6,2,1c1.8,1,3.7,1.9,5.5,2.9c0.5,0.3,1,0.4,1.5,0.1c0.2-0.1,0.5-0.1,0.8-0.3
		c0.7-0.4,1.4-0.3,2,0.1c1.1,0.5,2.1,1.1,2.9,1.9c-0.4,0.5-0.6,1-1,1.4c-0.4,0.4-0.7,0.8-1.2,1.1c-1.2,0.9-2.3,1.8-3.5,2.6
		c-0.3,0.2-0.5,0.4-0.3,0.8c0.3,0.4,0.6,0.2,0.9,0c0.2-0.1,0.3-0.3,0.5-0.4c0.8-0.6,1.6-1.2,2.4-1.8c0.6-0.5,1.3-1,1.8-1.6
		c0.4-0.5,0.8-0.9,1.4-1.1c0.9-0.3,1.7-0.5,2.6-0.7c0.3-0.1,0.7,0,1,0.2c1.1,1,2.2,2,3,3.5c-0.4,0.1-0.8,0.1-1.1,0.2
		C69.2,18.8,69,19,69,19.2c0,0.1,0.3,0.4,0.5,0.4c0.3,0,0.6-0.1,0.9-0.1c2.3-0.3,4.5-0.8,6.6-1.5c2.1-0.7,4.3-1.3,6.5-1.9
		c1-0.3,2-0.4,3-0.4c2.6-0.2,5.3-0.7,7.9,0.1c0.8,0.2,1.5,0.1,2.3,0c0.5-0.1,0.9,0,1.4,0.2c1.2,0.6,2.5,1.1,3.7,1.7
		c0.8,0.4,1.5,0.8,2.3,1.2c1.9,0.8,3.8,1.6,5.8,2.4c-0.4,0.7-0.9,1.4-1.4,2.1c-0.1,0.2-0.2,0.3-0.4,0.4c-1.5,0.8-2.7,2.1-4.3,2.8
		c-0.4,0.2-0.8,0.4-1.1,0.7c-1.9,1.3-3.8,2.7-5.8,3.9c-1.6,0.9-3.2,1.7-4.9,2.5c-1.6,0.7-2.9,1.7-4.1,2.8c-0.3,0.3-0.5,0.7-0.6,1.1
		c-0.5,1.6-1.5,2.8-2.7,3.9c-0.9,0.9-1.9,1.6-2.9,2.4c-0.2,0.1-0.3,0.2-0.5,0.4c-2.1,1.9-4.2,3.9-6.3,5.8c-0.8,0.7-1.6,1.3-2.5,2
		c-0.8,0.7-1.6,1.3-2.5,2c-1.7,1.3-2.7,3-3.7,4.9c-0.7,1.4-1.5,2.8-2.2,4.3c-0.3,0.7-0.6,1.4-0.9,2.2c-0.5,1.2-1,2.3-1.5,3.5
		c-1.1,2.8-2.5,5.5-2.8,8.5C58.9,77.5,58.7,77.8,58.7,78.2z M93.2,85.4c0.2-1.1,0.5-2.1,0.6-3.2c0.4-2.3,0.8-4.5,1.2-6.8
		c0.2-1.2,0.6-2.1,1.6-2.8c0.6-0.5,1.2-1,1.9-1.5c-0.7,1.2-1,2.6-1.3,3.9c-0.1,0.6-0.4,1.1-0.1,1.8c0.1,0.2-0.1,0.7-0.2,1
		c-0.8,1.9-1.7,3.7-2.5,5.6c-0.3,0.7-0.7,1.4-1,2.1C93.3,85.4,93.2,85.4,93.2,85.4z M100.9,74.6c0.1,0.2,0.4,0.3,0.5,0.5
		c0.4,0.4,0.8,0.8,1.2,1.1c-0.1,0.6-0.4,1.1-1.1,1.4c0.2-0.8,0.3-1.5-0.4-1.9c-0.5-0.3-1.2-0.4-1.7-0.6c-0.6,0.5-0.8,1.1-0.6,1.8
		c-0.3,0-0.6,0.1-0.8,0.1c0.2-0.5,0.7-1,0.1-1.6c-0.1-0.1-0.1-0.3,0-0.4c0.4-1.1,0.7-2.1,1.1-3.2c0.1-0.4,0.4-0.7,0.5-1.1
		c0.3-0.7,0.6-0.9,1.2-0.6c1.1,0.4,2.2,0.9,3.1,1.8c0.5,0.5,0.4,0.6,0,1.1c-0.5,0.6-1.1,0.8-1.8,0.7c-0.4,0-0.7-0.1-1.1,0
		c-0.2,0-0.4,0.1-0.5,0.3C100.7,74.2,100.8,74.4,100.9,74.6z M100.5,76.3c0,0.1,0,0.2,0,0.2c-0.1-0.1-0.3-0.1-0.4-0.2
		c0,0,0-0.1,0-0.1C100.2,76.3,100.3,76.3,100.5,76.3z M110.8,88.1c-3.1,0-6.2-0.1-9.3-0.1c-2.3,0-4.6-0.1-6.8-0.2
		c-0.3,0-0.7-0.1-1-0.2c0-0.3,0-0.5,0.1-0.6c0.8-1.9,1.7-3.8,2.6-5.7c0.5-1,0.8-2.1,1.3-3.1c0.2-0.4,0.3-0.7,0.5-1.1
		c0.1,0.3,0.2,0.7,0.4,0.8c1.3,0.6,2.6,1.2,4.1,0.4c0.9-0.4,1-1.2,1.1-2c0-0.3-0.3-0.6-0.4-0.9c-0.1-0.2-0.3-0.3-0.6-0.5
		c1,0.1,1.5-0.5,2.1-1c1-1,1-2-0.2-2.8c-1.1-0.7-2.2-1.3-3.4-1.9c-0.2-0.1-0.4-0.2-0.7-0.3c0.7-0.7,1.4-1.2,2.5-0.9
		c0.5,0.2,1.1,0.1,1.7,0.1c0.8,0.1,1.7,0.1,2.5,0.2c0.1,0,0.2,0,0.3,0c0.3,0,0.6,0,0.6-0.4c0-0.2-0.2-0.4-0.4-0.5
		c-0.5-0.1-1.1-0.2-1.6-0.3c-1.3-0.1-2.6-0.1-3.9-0.3c-1-0.1-1.6,0.5-2.2,1c-0.5,0.4-0.9,0.9-1.5,1.4c-0.3-0.8-0.6-1.5-0.9-2.4
		c0.8-0.4,1.7-1,2.6-1.2c0.9-0.2,1.9,0,2.8,0.1c0.3,0,0.7,0.1,1,0.2c0.9,0.2,1.6,0.1,2.4-0.4c0.9-0.5,1.9-0.9,2.8-1.4
		c0.3-0.2,0.6-0.3,0.5-0.7c-0.2-0.4-0.5-0.4-0.8-0.2c-0.8,0.4-1.7,0.7-2.5,1.2c-0.9,0.6-1.8,0.6-2.8,0.4c-1-0.2-2.1-0.3-3.1-0.4
		c-0.2,0-0.4,0-0.6,0.1c-1.4,0.7-2.7,1.4-4.1,2.1c-0.8,0.4-1.6,0.8-2.4,1.2c-0.5-0.6-0.9-1.2-1.2-1.7c0.5-0.8,0.5-0.9,1.4-0.6
		c0.5,0.1,0.8,0.1,1.1-0.3c0.4-0.7,0.4-0.9-0.3-1.4c-0.2-0.1-0.3-0.2-0.5-0.4c0-0.1,0.1-0.2,0.1-0.3c0.5-0.7,0.4-1.3-0.3-1.6
		c-0.2-0.1-0.6-0.1-0.7,0c-0.5,0.7-1.2,0.7-1.9,0.5c-0.1,0-0.1,0-0.2,0c-0.8,1.2-0.8,1.3-0.2,2.1c-0.4,0.7-1,1.4-0.6,2.4
		c0.4,0.9,1.1,1.4,2,1.7c-0.4,0.5-0.8,0.6-1.4,0.5c-2-0.2-4-0.4-6.1-0.5c-0.7-0.1-1.4-0.1-2-0.1c-0.2,0-0.4,0.2-0.6,0.3
		c0.2,0.2,0.3,0.4,0.5,0.5c0.2,0.1,0.4,0.1,0.6,0.1c2.6,0.1,5.3,0.2,7.9,0.8c0.5,0.1,1.1-0.2,1.6-0.3c0.6,0.5,1.2,1.1,1.9,1.6
		c0.9,0.7,1.5,0.3,1.6-0.8c0-0.1,0.1-0.3,0.1-0.4c0.5,0,1,0.1,1.5,0.2c-0.2,0.2-0.3,0.4-0.5,0.5c-0.9,0.8-1.8,1.5-2.7,2.3
		c-0.1,0.1-0.3,0.3-0.3,0.5c-0.3,2-0.6,4-0.9,5.9c-0.3,1.9-0.7,3.9-1,5.8c0,0.1-0.1,0.2-0.2,0.4c-0.3-0.9-0.5-1.6-0.7-2.4
		c-0.5-1.7-0.9-3.5-1.4-5.2c-0.5-1.7-1-3.4-1.4-5.1c-0.1-0.5-0.3-0.8-0.8-1.1c-0.7-0.3-1.3-0.7-2-1c-0.2-0.1-0.6,0-0.7,0.1
		c-0.2,0.3,0,0.6,0.3,0.7c0.4,0.2,0.8,0.5,1.3,0.6c0.8,0.2,1.1,0.8,1.3,1.4c0.5,1.6,0.9,3.1,1.3,4.7c0.7,2.6,1.3,5.3,2,7.9
		c0,0.1,0,0.3,0,0.6c-1.3-0.9-2.8-0.8-4-1.2c-3.5-1.2-7.1-1.7-10.6-2.7c-0.9-0.3-1.8-0.6-2.7-0.8c-2.2-0.5-4.5-0.9-6.7-1.5
		c-2.5-0.7-4.9-1.5-7.3-2.3c-0.1,0-0.2-0.2-0.3-0.2c0.3-2.2,0.8-4.3,1.7-6.3c0.6-1.4,1.2-2.7,1.8-4.1c0.1-0.2,0.2-0.4,0.2-0.6
		c0.7-2.9,2.3-5.5,3.7-8.1c0.3-0.6,0.7-1.2,1-1.9c0.8-1.7,2.4-2.8,3.8-3.9c1.8-1.4,3.5-3,5.2-4.5c1.9-1.7,3.9-3.2,5.8-4.8
		c1.6-1.3,3.1-2.8,4.3-4.5c0.4-0.6,0.6-1.3,0.9-1.9c0.2-0.3,0.3-0.7,0.6-0.9c1.1-0.8,2.2-1.7,3.4-2.2c3-1.3,5.8-3,8.5-4.9
		c1.4-1,2.9-1.8,4.3-2.7c1.4-0.9,2.7-1.8,4-2.8c0.2-0.1,0.4-0.4,0.5-0.6c0.3-0.4,0.5-0.9,0.8-1.3c0.6-0.9,1-1,2.1-0.7
		c1.4,0.4,2.8,0.6,4.2,0.4c2.5-0.3,4.6,0.5,6.6,2c1.1,0.8,2.2,1.6,3.4,2.4c1,0.6,2.1,1.1,3.2,1.1c1.5,0.1,2.8,0.5,4.1,1.1
		c0.7,0.4,1.4,0.5,2.2,0.4c1.9-0.3,3.8,0.1,5.7,0.5c0.9,0.2,1.8,0.5,2.8,0.7c0.2,0.1,0.4,0.1,0.7,0.2c-0.9,0.5-1.7,1-2.5,1.5
		c0.5,0.7,0.5,0.7,1,0.4c0.9-0.6,1.8-1.1,2.8-1.7c0.3-0.2,0.7-0.3,1.2-0.6c0.1,0.4,0.1,0.6,0.1,0.9c0,0.8-0.1,1.6-0.1,2.4
		c0,0.6-0.1,1.1-0.5,1.6c-0.6,0.8-1.2,1.6-1.8,2.5c-0.2,0.2-0.3,0.5-0.5,0.6c-1,0.7-2.1,1.4-3.1,2.1c-1,0.7-1.8,1.5-2.8,2.2
		c-0.9,0.7-1.8,1.4-2.7,2c-1.7,1.2-2.8,2.9-3.5,4.8c-0.9,2.2-1.5,4.4-2,6.7c-0.4,2.4-1,4.8-1.9,7.1c-0.5,1.3-0.9,2.6-1.3,4
		c-0.9,0-1.8,0-2.6,0c-1,0-2,0.1-2.9,0c-1-0.1-1.9-0.3-2.9-0.7c-0.9-0.3-1.6-0.2-2.5,0c-2.6,0.9-5.1,2-7.4,3.4
		c-0.2,0.1-0.3,0.2-0.5,0.4c-0.1,0.1-0.2,0.3-0.3,0.4c0.2,0.4,0.5,0.3,0.8,0.2c0.6-0.3,1.2-0.6,1.8-1c1.7-1,3.6-1.7,5.5-2.4
		c1.3-0.5,2.5,0,3.7,0.3c0.1,0.5-0.2,0.7-0.5,1c-1.5,1-2.9,2.1-4.4,3c-1.2,0.8-2.6,1.6-3.8,2.3c-0.3,0.2-0.7,0.4-1,0.7
		c-0.1,0.1-0.2,0.4-0.1,0.4c0.1,0.1,0.3,0.2,0.5,0.2c0.2,0,0.4-0.2,0.5-0.3c2.6-1.5,5.1-3.2,7.5-5c0.1-0.1,0.2-0.1,0.5-0.2
		c-0.7,1.6-1.5,2.9-2.8,3.8c-1.5,1-3.1,2-4.6,3c-0.2,0.1-0.6,0.1-0.7,0.2c-0.4-0.3-0.6-0.7-0.9-0.8c-0.8-0.2-1.1,0.1-1.2,1
		c0,0.6-0.2,1.2-0.3,1.8c0,0.4-0.1,0.7-0.1,1.1c0,0.4,0.3,0.6,0.7,0.6c1.5,0,1.5,0,1.9-1.4c0.8-0.3,1.5-0.8,2.4-0.7
		c0.3,0,0.5-0.4,0.3-0.7c-0.2-0.3-0.5-0.6-0.8-0.9c0.8-0.5,1.6-1,2.5-1.5c-0.3,2.3,0.1,4.4-0.4,6.6c-0.5,2.1-1.2,4.1-1.8,6.2
		C112.6,88.1,111.7,88.1,110.8,88.1z M97.2,69.2c-0.3,0-0.6,0.1-0.7,0c-0.8-0.5-1.4-0.1-2.1,0.4c-0.1,0.1-0.2,0.1-0.4,0.2
		c-0.1-0.2-0.2-0.4-0.4-0.8c1-0.5,2-0.9,2.9-1.3C97.3,68,97.2,68.6,97.2,69.2z M91.5,63.5c0.4,0.1,0.7,0.1,1.1,0.2
		c0.1,0.2,0.2,0.5,0.3,0.7c-0.2,0-0.3,0.1-0.3,0C92.2,64.1,91.9,63.8,91.5,63.5z M91.7,65.1c-0.1,0.1-0.2,0.3-0.3,0.4
		c0,0-0.1-0.1-0.1-0.1c0.1-0.1,0.2-0.3,0.3-0.4C91.6,65.1,91.6,65.1,91.7,65.1z M109.9,79.6c-0.3-0.5,0.1-0.9,0.2-1.4
		C110.6,79,110.6,79.1,109.9,79.6z M172.3,91.2c-1.2,2.5-2.1,5.1-2.7,7.8c-0.2,1-0.2,1,0.7,1.5c1.7,0.9,3.3,1.7,5,2.6
		c0.4,0.2,0.9,0.4,1.3,0.5c0.5,0.2,0.9,0.1,1.3-0.4c0.1-0.2,0.4-0.4,0.7-0.7c0.3,1.6,0.5,2.9-0.3,4c-0.4,0.1-0.8,0.1-1.1,0.1
		c-0.6,0-1.3,0.1-1.9-0.1c-0.6-0.2-1-0.1-1.4,0.2c-0.3,0.2-0.6,0.4-0.9,0.5c-2,0.7-4.1,0.6-6.1,0.6c-1.7-0.1-3.3-0.2-5-0.1
		c-0.8,0-1.5-0.1-2.2-0.5c-0.3-0.2-0.6-0.4-0.9-0.5c-0.4-0.2-0.8-0.1-1,0.5c0.8,0.6,1.7,1,2.6,1.4c0.4,0.1,0.8,0.1,1.2,0.1
		c1.5,0,3.1-0.2,4.6,0c1.6,0.1,3.3,0.2,4.9,0.1c0.6,0,1.2-0.2,1.8-0.4c0.7-0.2,1.3-0.6,1.9-0.9c1.1,0.4,2.2,0.4,3.4,0.3
		c-0.4,0.8-0.7,1.6-1.1,2.3c-1.2,2.5-2.2,5.2-4.4,7.1c-1.1,1-1.5,2.6-1.8,4c0,0.2,0.1,0.5,0.2,0.5c0.2,0,0.4-0.1,0.6-0.2
		c0.1-0.1,0.1-0.3,0.2-0.5c0.5-1.8,1.4-3.4,2.8-4.7c0.6-0.6,1.1-1.2,1.4-2c0.9-2.1,1.9-4.1,2.9-6.2c0.8-1.8,1.6-3.7,1-5.8
		c-0.1-0.3,0-0.7,0-1.1c0.9-0.2,1-0.1,1.2,0.5c0.1,0.2,0.1,0.5,0.1,0.7c0.2,1.7,0.5,3.4,0.7,4.9c0.7,0.4,1.2,0.8,1.7,1.1
		c1.9,1,3.8,2,5.7,3c1.1,0.6,2.2,1.2,3,2.1c-0.1,0.4-0.2,0.8-0.3,1.1c-0.2,0.1-0.5,0.3-0.8,0.4c0.1,0.3,0.2,0.6,0.3,0.9
		c-0.5,0.2-0.9,0.3-1.4,0.5c0.1,0.4,0.1,0.7,0.2,1c-0.6,0.1-1,0.2-1.6,0.3c0.2,0.5,0.3,0.8,0.4,1.2c-0.6,0.3-1.5-0.1-2,0.6
		c0.2,0.4,0.3,0.8,0.5,1.3c-0.4,0-0.7,0-1,0c-0.5,0.1-0.6,0.3-0.3,0.8c0.2,0.3,0.3,0.5,0.6,1c-0.6,0-1.1,0.1-1.5,0.1
		c-0.4,0.1-0.6,0.3-0.4,0.7c0.1,0.3,0.3,0.5,0.5,0.9c-0.5,0-0.9,0-1.2,0c-0.7,0-0.8,0.3-0.5,0.9c0.2,0.3,0.4,0.7,0.7,1.2
		c-0.7,0.1-1.2,0.1-1.7,0.1c-0.6,0.1-0.7,0.4-0.3,0.9c0.2,0.3,0.4,0.5,0.6,0.8c-0.2,0.1-0.3,0.3-0.4,0.3c-0.4,0-0.8,0-1.2,0.1
		c-0.6,0.1-0.8,0.4-0.4,0.9c0.2,0.3,0.4,0.6,0.6,0.9c-0.3,0.1-0.5,0.2-0.7,0.3c-0.7,0.4-1.3,0.3-2-0.2c-0.7-0.5-1.5-0.9-2.3-1.3
		c-1.4-0.7-2.8-1.5-4-2.6c0.9-1.5,1.7-3,2.7-4.4c1.4-2.1,2.8-4.2,4.2-6.2c0.7-1,1.5-2,2.2-3c0.2-0.3,0.6-0.6,0.3-1.2
		c-0.3,0.2-0.6,0.4-0.8,0.6c-0.4,0.4-0.7,0.8-1,1.3c-2.6,3.5-5.1,7.1-7.3,10.8c-0.3,0.5-0.7,1-1.1,1.4c-0.6-0.1-0.6-0.5-0.7-0.9
		c-0.2-0.6-0.4-1-1-1.4c-0.7-0.4-1.2-1.1-1.7-1.7c-0.5-0.6-0.9-1.2-1.4-1.7c-2-1.8-3.6-3.9-5.1-6.1c-2-2.8-4-5.7-5.9-8.6
		c-0.4-0.6-1-0.9-1.7-0.8c-0.6,0.1-1.1,0.2-1.7,0.2c-1.4,0-2.8,0-4.2,0c-1.3,0-2.5,0-3.7-0.3c-2.1-0.4-4.1-1-6.2-1.6
		c-1.7-0.5-3.3-1.2-4.9-1.6c-2.7-0.7-5.3-1.7-7.8-2.9c-0.8-0.4-1.5-1-1.9-1.9c-0.8-1.7-1.3-5.8-1.4-7.7c0.5-0.1,1-0.1,1.5-0.2
		c2.2,0,4.4,0,6.6,0c0.2,0,0.5,0,0.7,0c2.1-0.1,4.3-0.3,6.4-0.3c0.8,0,1.6,0.2,2.4,0.2c3.7-0.2,7.4,0.7,11.2,0.7c0.1,0,0.2,0,0.3,0
		c1.1,0.2,2.3,0.4,3.4,0.5c1.8,0.2,3.6,0.3,5.4,0.5c0.1,0,0.2,0,0.3,0c3.6,0.6,7.2,0.5,10.8-0.4c0.5-0.1,1-0.1,1.7-0.2
		C172.6,90.5,172.5,90.9,172.3,91.2z M202.4,69.6c-1.5,0.3-2.7,1-3.9,1.9c-0.9,0.6-1.9,1.1-2.9,1.4c-0.5,0.1-0.9,0.5-1.3,0.7
		c-0.3,0.2-0.6,0.4-1,0.5c-0.8,0.3-1.6,0.7-2.5,0.9c-2,0.6-3.5,2.1-5,3.5c-1.7,1.6-3.3,3.1-5,4.6c-1.4,1.3-2.9,2.5-4.3,3.7
		c-0.1,0.1-0.2,0.1-0.4,0.1c1.7-2.1,3.4-4.1,5.1-6.2c1.4-1.7,3-3.2,4.7-4.6c1.1-0.9,2-2,3.1-3c1.4-1.3,2.9-2.5,4.9-2.8
		c0.3-0.1,0.6-0.2,0.9-0.3c0.5-0.1,0.8-0.5,0.9-0.9c1-2.7,2.1-5.4,3.2-8.1c0.2-0.4,0.4-0.8,0.7-1.4c0.6,1.2,1.1,2.1,1.5,3.1
		c0.8,1.6,1.6,3.2,2.4,4.7C203.7,68.1,203.3,69.4,202.4,69.6z M205.3,55c0.1,3.3-0.3,6.6-0.7,9.9c-0.1,0.6-0.1,1.1-0.2,1.7
		c-0.1,0-0.2,0-0.3,0.1c-0.6-1.1-1.2-2.1-1.7-3.2c-0.7-1.4-1.4-2.8-2-4.2c-0.1-0.2-0.2-0.5-0.2-0.8c0-0.3-0.2-0.6-0.5-0.5
		c-0.2,0-0.5,0.2-0.6,0.4c-0.5,1-0.9,2-1.3,3.1c-0.9,2.2-1.8,4.5-2.6,6.8c-0.2,0.7-0.6,1-1.3,1.1c-0.7,0.2-1.3,0.4-1.9,0.6
		c-0.9,0.3-1.7,0.9-2.4,1.5c-2.3,2.1-4.6,4.2-6.9,6.4c-0.5,0.5-1,1.1-1.5,1.7c-2.1,2.5-4.3,5-6.4,7.5c-0.4,0.5-0.8,1.1-1.1,1.7
		c-0.2,0.4-0.5,0.5-0.9,0.5c-0.6,0-1.2,0.1-1.8,0.2c-2.3,0.6-4.7,0.7-7.1,0.6c-1.2-0.1-2.4-0.2-3.5-0.3c-1.7-0.2-3.3-0.3-5-0.5
		c-1.8-0.2-3.6-0.4-5.5-0.6c-2.5-0.2-5.1-0.3-7.6-0.5c-1.2-0.1-2.4-0.2-3.6-0.2c-1.3,0-2.6,0-4,0c-4.2,0.1-8.4,0.2-12.6,0.2
		c-2.4,0-4.8-0.1-7.4-0.1c0.3-1,0.5-2,0.8-2.9c0.8-2.5,1.4-5.1,1.2-7.8c-0.1-1.5,0.4-2.9,1.6-3.9c0.3-0.3,0.6-0.6,0.7-1
		c0.7-1.2,1.3-2.5,1.9-3.7c0.3-0.6,0.6-0.8,1.2-0.8c2.9,0.2,5.7,0.3,8.6,0.4c0.5,0,1,0.2,1.4,0.4c1.4,0.8,2.8,1.5,3.9,2.7
		c0.3,0.3,0.6,0.6,1,0.9c0.2,0.2,0.6,0.2,0.7-0.1c0.1-0.2,0.1-0.6-0.1-0.7c-1.5-1.3-3-2.7-4.8-3.6c-0.9-0.4-2-0.5-3-0.7
		c-0.3-0.1-0.7-0.1-1.1-0.1c0.1-0.4,0.1-0.8,0.2-1.2c0.3-1.1,0.6-2.2,1-3.3c0.9-2.4,1.4-4.9,1.9-7.4c0.5-2.7,1.3-5.4,2.8-7.7
		c0.6-0.9,1.4-1.7,2.2-2.4c1.8-1.4,3.6-2.8,5.4-4.2c0.8-0.6,1.7-1.3,2.6-1.8c0.9-0.5,1.5-1.3,2.1-2.1c0.5-0.7,1-1.4,1.5-2.1
		c0.3-0.4,0.4-0.7,0.3-1.2c-0.1-0.7,0-1.5,0-2.2c0-0.6,0.1-1.3,0.1-2.1c0.5-0.3,1.1-0.6,1.8-0.9c1.5-0.7,3.1-1.3,4.6-2
		c1.4-0.6,2.7-0.5,4.1-0.2c2.9,0.6,5.7,1,8.6,1.8c2.1,0.6,4.1,1.4,6.1,2.2c0.9,0.4,1.8,0.9,2.8,1.3c0.7,0.3,1.5,0.4,2.3,0.6
		c1.8,0.4,3.6,0.8,5.5,1.3c1,0.2,2,0.6,2.9,0.9c0.3,0.1,0.6,0.3,0.9,0.5c0.8,0.6,1.6,0.9,2.5,0.9c1.9-0.1,3.8-0.1,5.7-0.2
		c1,0,2,0,3,0c0,0,0.1,0,0.1,0c1.7-0.5,3.5-0.1,5.2-0.9c0.4-0.2,1-0.3,1.5-0.3c0.9,0,1,0.1,0.9,0.9c-0.1,1-0.3,2-0.5,3
		c-0.4,2.9-1,5.8-1.3,8.8C205.1,49.8,205.2,52.4,205.3,55z M223.8,35.7c0.1,0,0.1,0.1,0.2,0.2c-0.3,0.3-0.6,0.5-0.8,0.8
		c-0.7,0.6-0.7,0.8-0.1,1.5c0.2,0.2,0.4,0.5,0.8,0.9c-0.4,0.3-0.8,0.6-1.1,1c-0.4,0.4-0.4,0.6,0.1,1c0.3,0.2,0.5,0.5,0.9,0.8
		c-0.5,0.3-0.8,0.5-1.2,0.8c-0.7,0.5-0.7,0.8-0.1,1.3c0.3,0.2,0.5,0.5,0.8,0.7c0,0,0,0.1,0.1,0.3c-0.3,0.2-0.6,0.5-0.9,0.8
		c-0.6,0.5-0.6,0.7-0.1,1.2c0.2,0.2,0.4,0.5,0.7,0.8c-0.4,0.4-0.8,0.6-1.1,0.9c-0.4,0.4-0.4,0.6,0,1c0.4,0.4,0.8,0.7,1.2,1.1
		c-0.3,0.3-0.6,0.5-0.8,0.8c-0.5,0.5-0.6,0.7-0.1,1.3c0.1,0.2,0.3,0.3,0.4,0.5c0.1,0.2,0.2,0.3,0.4,0.5c-0.5,0.4-1,0.8-1.5,1.3
		c-0.6,0.5-0.5,0.7,0,1.2c0.3,0.3,0.5,0.5,0.7,0.8c-0.4,0.8-1.4,0.8-1.5,1.8c0.3,0.3,0.7,0.7,1.1,1c0.3,0.3,0.3,0.6,0,1
		c-0.2,0.2-0.3,0.3-0.5,0.5c-0.6,0.5-0.6,0.7,0,1.2c0.3,0.2,0.5,0.5,0.8,0.7c-0.3,0.4-0.5,0.8-0.7,1.1c-0.3,0.4-0.3,0.8,0.2,1.1
		c0.2,0.1,0.4,0.2,0.6,0.3c-0.1,0.1-0.1,0.2-0.2,0.3c-3.9-0.1-7.7-0.1-11.7-0.2c0-0.6,0-1.1,0-1.7c0-1.1,0-2.2,0-3.2
		c0-1.7-0.1-3.4-0.1-5.1c0-1,0-2,0-3.1c0.2-2.5,0.4-5.1,0.6-7.6c0.1-1.1,0.2-2.2,0.2-3.4c0-2,0.4-3.9,0.7-5.8
		c0.1-0.5,0.1-0.9-0.6-1.1c-0.1,0.4-0.3,0.8-0.4,1.2c-0.2,1.7-0.5,3.5-0.7,5.3c-0.3,3.4-0.6,6.8-0.8,10.2c-0.1,1.9-0.1,3.9-0.1,5.8
		c0,2.8,0,5.5,0,8.3c0,0.1,0,0.1,0,0.2c-0.6,0.4-1.3,0.3-1.9,0.4c-0.7,0.1-1.3,0.2-2.1,0.3c0-0.4,0-0.7,0-1
		c0.8-4.8,0.8-9.7,0.8-14.5c0-2.7,0.2-5.4,0.7-8.1c0.4-2.3,0.7-4.6,1.1-6.8c0-0.2,0.1-0.4,0.1-0.6c0.2-0.9,0.2-0.9,1.2-1.1
		c0.9-0.1,1.9-0.4,2.8-0.5c1.5-0.2,3.1-0.4,4.6-0.5c1.4-0.1,2.7-0.3,4.1-0.3c1.1-0.1,2.2,0,3.2,0c0,0.1,0.1,0.2,0.1,0.2
		c-0.2,0.2-0.4,0.4-0.6,0.6C222.6,34.8,222.6,35.1,223.8,35.7z"/>
	<path d="M176.1,127.9c-0.2-0.3-0.4-0.5-0.4-0.6c0.1-0.3,0.2-0.6,0.4-0.8c1.3-1.9,2.6-3.8,3.9-5.7c1.3-1.9,2.6-3.8,3.8-5.6
		c0.3-0.4,0.6-0.8,0.9-1.1c0.1-0.1,0.4-0.2,0.5-0.1c0.1,0.1,0.2,0.4,0.2,0.6c0,0.1-0.1,0.2-0.2,0.3c-1.6,2.4-3.3,4.7-4.9,7.1
		c-1.2,1.8-2.5,3.6-3.7,5.4C176.6,127.4,176.4,127.6,176.1,127.9z"/>
	<path d="M174,126.8c-0.5-0.3-0.2-0.7,0-1c0.7-1.2,1.4-2.3,2.2-3.4c1.7-2.5,3.5-4.9,5.2-7.3c0.4-0.6,0.8-1.3,1.3-1.9
		c0.3-0.5,0.4-0.4,1.1-0.3c-0.2,0.3-0.3,0.7-0.5,1c-1.1,1.6-2.3,3.1-3.4,4.7c-1.7,2.4-3.3,4.9-4.9,7.4
		C174.7,126.3,174.5,126.7,174,126.8z"/>
	<path d="M177.8,129.6c-0.5-0.1-0.6-0.4-0.5-0.7c0.3-0.7,0.5-1.4,0.9-2c1.2-1.8,2.4-3.5,3.7-5.3c1-1.5,2.1-3,3.1-4.5
		c0.2-0.3,0.5-0.9,0.9-0.6c0.5,0.3,0.1,0.7-0.1,1.1c-2.2,3.2-4.4,6.4-6.5,9.6c-0.4,0.6-0.7,1.3-1.1,2
		C178.1,129.3,177.9,129.5,177.8,129.6z"/>
	<path d="M231.6,92c-1-0.2-1.9-0.4-2.9-0.5c-0.6-0.1-1.1-0.2-1.7-0.3c-0.3-0.1-0.7-0.1-0.7-0.5c0-0.6-0.3-1-0.6-1.4
		c-0.3-0.5-0.2-0.7,0.2-1c0.8-0.6,1.8-0.9,2.8-1c0.4,0,0.9,0.1,1,0.5c0.1,0.5,0.4,0.6,0.8,0.9c0.8,0.5,1.6,1,2,2
		C233,91.7,232.9,92,231.6,92z M231.5,91.1c0.1-0.1,0.1-0.2,0.2-0.3c-0.3-0.4-0.5-0.8-0.9-1c-0.8-0.5-1.6-0.8-2.4-1.3
		c-0.6-0.4-1-0.2-1.5,0.1c-0.2,0.1-0.4,0.3-0.5,0.4c0.2,0.5,0.5,1,0.7,1.6C228.6,90.7,230.1,90.9,231.5,91.1z"/>
	<path d="M61.9,105.1c-0.1,0-0.3-0.1-0.4-0.1c-0.5,0.1-0.9,0-1-0.6c-0.2-0.6,0.1-1.3,0.5-1.5c1.5-1,3.3-0.9,4.7,0.3
		c0.3,0.3,0.5,0.6,0.5,1c0,0.4,0.1,0.8,0.2,1.2c0,0.4,0.1,0.7,0.1,1.1c-0.1,0.5-0.6,0.7-1.1,0.6c-0.5-0.1-1-0.2-1.6-0.3
		c-1.2-0.1-1.4-0.3-1.7-1.5C62,105.3,61.9,105.2,61.9,105.1z M61.1,104.3c0.9,0,1.5,0.3,1.8,1.1c0.2,0.7,0.4,0.8,1.1,0.9
		c0.5,0,1,0,1.6,0c-0.1-0.5-0.4-1-0.4-1.5c0-0.9-0.6-1.2-1.2-1.4c-0.8-0.3-1.6-0.1-2.4,0.2C61.5,103.6,61.4,103.9,61.1,104.3z"/>
	<path d="M64.9,95.8c-0.1,0.1-0.2,0.3-0.4,0.5c-0.1,0.1-0.3,0.2-0.4,0.3c-0.7,0.6-1.5,1-2.2,1.2c-0.4,0.1-0.7,0.1-1-0.2
		c-0.5-0.5-1-0.9-1.8-0.9c-0.4,0-0.6-0.3-0.7-0.6c-0.2-1,0.5-2.3,1.4-2.7c0.2-0.1,0.4-0.2,0.5-0.1c0.7,0.3,1.4,0.2,2.1,0.3
		c0.4,0,0.9,0.4,1.3,0.7C64.1,94.6,64.4,95.2,64.9,95.8z M59.3,95.7c0.7,0.4,1.3,0.7,1.8,1c0.2,0.1,0.5,0.3,0.7,0.2
		c0.8-0.1,1.5-0.4,1.8-1.2c-0.2-0.3-0.4-0.5-0.6-0.7c-0.3-0.6-0.8-0.9-1.5-0.8c-0.3,0-0.6,0-0.9-0.1c-0.6-0.2-0.9-0.1-1.1,0.4
		C59.4,94.9,59.4,95.3,59.3,95.7z"/>
	<path d="M117.7,119.6c-0.5,0.4-1,0.8-1.5,1.1c-0.5,0.4-1.1,0.2-1.6,0c-0.8-0.4-1.5-0.7-2.4-0.7c-0.5,0-0.8-0.3-0.9-0.9
		c-0.4-1.8-0.2-2.1,1.6-2.5c0.8-0.2,1.4,0,2.1,0.3c1.1,0.5,1.9,1.4,2.7,2.3C117.7,119.4,117.7,119.5,117.7,119.6z M116.4,119.3
		c-0.8-1.1-1.9-1.8-3-1.9c-0.3,0-0.7,0-1,0.2c-0.6,0.2-0.4,0.8-0.4,1.2c0,0.4,0.2,0.6,0.7,0.7c0.6,0.1,1.2,0.2,1.7,0.5
		C115.6,120.4,115.6,120.4,116.4,119.3z"/>
	<path d="M237.5,79.8c1.3-0.3,2.4-1,3.8-0.8c0.3,0,0.7,0.1,0.9,0.3c0.5,0.5,1,1.1,1.5,1.7c0.3,0.4-0.1,1.5-0.6,1.7
		c-1.1,0.5-2.6,0.2-3.3-0.8c-0.4-0.6-0.9-0.9-1.5-1.1C237.8,80.7,237.4,80.5,237.5,79.8z M239.1,80.2c0.5,0.5,0.8,1,1.3,1.3
		c0.4,0.3,1,0.6,1.5,0.8c0.3,0.1,0.7,0,0.9-0.4c0.2-0.4,0.1-0.7-0.2-0.9c-0.2-0.2-0.4-0.4-0.5-0.6c-0.3-0.6-0.8-0.7-1.3-0.6
		C240.1,79.9,239.7,80,239.1,80.2z"/>
	<path d="M204.1,129.2c-0.1,0-0.3,0-0.5-0.2c-0.6-0.5-1.4-0.6-2.1-0.7c-0.7-0.2-0.8-0.3-0.9-1.1c0-0.2-0.1-0.5-0.1-0.7
		c-0.3-0.7,0.2-1.2,0.6-1.7c0.1-0.1,0.5-0.2,0.7-0.1c0.7,0.2,1.3,0.3,2,0.2c0.3,0,0.6,0.2,0.8,0.4c0.5,0.5,1,1,1.5,1.5
		c0.4,0.4,0.4,0.6,0,1.1c-0.2,0.2-0.4,0.5-0.6,0.7C205.1,129,204.7,129.2,204.1,129.2z M205.3,127.1c-0.4-0.4-0.9-0.8-1.3-1.1
		c-0.1-0.1-0.3-0.2-0.5-0.3c-0.5-0.1-1-0.1-1.5-0.2c-0.5-0.1-0.9,0.2-0.9,0.6c0,0.5,0,1,0.3,1.4c0.1,0.2,0.6,0.3,1,0.4
		c0.2,0.1,0.5,0.1,0.7,0.2C204.6,128.9,204.4,128.6,205.3,127.1z"/>
	<path d="M221.6,91.9c0.3,0.5,0.5,0.9,0.7,1.4c0.4,0.9,0.1,1.3-0.9,1.3c-0.6,0-1.1-0.1-1.4-0.7c-0.2-0.2-0.4-0.4-0.6-0.6
		c-0.3-0.3-0.4-0.7-0.2-1c0.2-0.3,0.5-0.6,0.8-0.6C220.6,91.7,221.1,91.8,221.6,91.9z M220,92.6c0.4,0.6,0.8,1,1.7,1.3
		c-0.2-0.4-0.4-0.7-0.5-1C220.9,92.3,220.9,92.3,220,92.6z"/>
	<path d="M69.7,101.1c0.4-1.1,1.4-1.3,2.2-1.8c0.5,0.2,1,0.4,1.4,0.7c0.2,0.2-0.1,1-0.5,1.2c-0.8,0.3-1.7,0.6-2.6,0.2
		C70,101.3,69.9,101.2,69.7,101.1z M71.1,100.6c0,0.1,0,0.1,0.1,0.2c0.3-0.1,0.6-0.3,1.1-0.5C71.6,100,71.4,100.4,71.1,100.6z"/>
	<path d="M125.8,123.1c0,0.5-1.2,1.4-1.7,1.3c-0.5-0.1-0.9-0.3-1.3-0.5c-0.4-0.2-0.5-0.6-0.1-0.9c0.4-0.3,0.7-0.5,1.1-0.7
		c0.6-0.3,1.5,0,1.9,0.5C125.8,122.9,125.8,123,125.8,123.1z M123.6,123.2c0.5,0.4,0.7,0.3,1.1-0.2
		C124.2,123.1,124,123.1,123.6,123.2z"/>
	<path d="M71.3,108c0.1,0,0.3,0,0.6,0c0.6,0,0.8,0.3,0.8,0.7c0,0.5-0.5,1.1-0.9,1c-0.5-0.1-1-0.2-1.5-0.3c-0.2-0.1-0.5-0.3-0.6-0.5
		c-0.3-0.4,0-0.8,0.5-0.9C70.5,108,70.8,108,71.3,108z"/>
	<path d="M96.2,111.2c0.4-0.8,1.2-0.9,1.9-0.9c0.3,0,0.7,0.3,0.8,0.5c0.1,0.4,0.3,0.8-0.1,1.2c-0.7,0.7-1.5,0.6-2.1-0.2
		C96.5,111.7,96.3,111.5,96.2,111.2z M98.2,111.1c-0.4,0.1-0.6,0.1-0.8,0.1c0,0.1,0,0.3,0.1,0.4C97.8,111.8,98,111.7,98.2,111.1z"/>
	<path d="M106.5,124.5c0-0.5,0.7-1,1.3-1c0.4,0,1.2,0.9,1.2,1.4c0,0.4-0.6,0.8-1.2,0.8C107.1,125.6,106.5,125.1,106.5,124.5z"/>
	<path d="M126.3,112.7c-0.1,0.2-0.2,0.4-0.4,0.6c-0.9,1-1.5,1-2.1-0.2c-0.1-0.2-0.2-0.4-0.3-0.6
		C124.5,111.2,125.4,111.2,126.3,112.7z M124.4,112.4c0.2,0.4,0.1,0.8,0.7,0.6c0.1,0,0.1-0.2,0.2-0.3c-0.2-0.1-0.3-0.3-0.5-0.4
		C124.7,112.3,124.6,112.3,124.4,112.4z"/>
	<path d="M68.1,115.7c-0.5-0.1-0.9-0.2-1.2-0.3c-0.2-0.1-0.4-0.4-0.4-0.6c0-0.2,0.2-0.5,0.5-0.6c0.4-0.2,0.9-0.4,1.3-0.4
		c0.3,0,0.7,0.2,1,0.4c0.3,0.3,0.1,0.7-0.2,0.9C68.7,115.3,68.3,115.5,68.1,115.7z"/>
	<path d="M226.1,96.5c0.4,0.5,0.7,0.8,1,1.2c0.4,0.5,0.3,0.8-0.2,0.9c-0.6,0.1-1.9-0.4-2.3-0.9c-0.2-0.4-0.2-0.7,0.3-0.9
		C225.3,96.7,225.7,96.6,226.1,96.5z M225.7,97.7c0,0,0.1-0.1,0.1-0.1c-0.1-0.1-0.2-0.3-0.2-0.4c-0.1,0.1-0.1,0.1-0.2,0.2
		C225.5,97.4,225.6,97.5,225.7,97.7z"/>
	<path d="M234.1,95.5c-0.5-0.1-1-0.3-1.5-0.5c-0.3-0.1-0.6-0.4-0.4-0.8c0.1-0.4,0.4-0.6,0.7-0.6c0.7,0,1.4,0.1,1.9,0.7
		c0.1,0.2,0.3,0.5,0.2,0.7c0,0.1-0.4,0.2-0.6,0.3C234.3,95.4,234.2,95.4,234.1,95.5C234.1,95.4,234.1,95.5,234.1,95.5z M233.7,94.7
		c0-0.1,0.1-0.1,0.1-0.2c-0.2,0-0.3-0.1-0.5-0.1c0,0,0,0.1,0,0.1C233.4,94.6,233.6,94.7,233.7,94.7z"/>
	<path d="M57.2,107.7c-0.5,0-1.1-0.6-1.2-1.1c0-0.4,0.5-0.9,1-1c0.6-0.1,1.2,0.4,1.2,1C58.3,107.1,57.8,107.6,57.2,107.7z"/>
	<path d="M81.3,112.2c-0.2,0.2-0.4,0.4-0.5,0.4c-0.2,0-0.3-0.3-0.5-0.4c0.1-0.1,0.3-0.4,0.4-0.4C80.9,111.7,81,112,81.3,112.2z"/>
	<path d="M220.8,100.9c-0.2-0.3-0.3-0.5-0.4-0.7c0,0,0.3-0.3,0.4-0.2c0.2,0.1,0.4,0.2,0.5,0.4C221.2,100.4,221,100.6,220.8,100.9z"
		/>
	<path d="M214.9,85.5c-0.2,0.2-0.4,0.4-0.5,0.4c-0.1,0-0.4-0.2-0.4-0.3c0-0.2,0.2-0.4,0.3-0.4C214.5,85.2,214.6,85.4,214.9,85.5z"/>
	<path d="M216.5,99c-0.2,0.1-0.4,0.3-0.5,0.3c-0.1,0-0.3-0.2-0.4-0.4c0.2-0.1,0.3-0.3,0.5-0.4C216.1,98.5,216.3,98.8,216.5,99z"/>
	<path d="M123.8,118.4c-0.2,0.1-0.3,0.2-0.5,0.1c-0.2-0.1-0.4-0.3-0.6-0.5c0,0,0.3-0.4,0.3-0.4c0.2,0.1,0.4,0.3,0.6,0.4
		C123.7,118.2,123.7,118.3,123.8,118.4z"/>
	<path d="M201.8,130.1c-0.2,0.2-0.4,0.4-0.5,0.4c-0.1,0-0.3-0.2-0.4-0.3c0.1-0.1,0.2-0.3,0.4-0.4
		C201.4,129.7,201.6,129.9,201.8,130.1z"/>
	<path d="M198.8,137.5c-0.2,0.4-0.4,0.6-0.7,0.4c-0.1,0-0.2-0.3-0.1-0.3C198.2,137.3,198.5,137.3,198.8,137.5z"/>
	<path d="M242.8,89c0.2,0.2,0.4,0.4,0.4,0.5c0,0.1-0.2,0.3-0.3,0.4c-0.1-0.1-0.3-0.2-0.4-0.4C242.5,89.4,242.6,89.2,242.8,89z"/>
	<path d="M234.3,99.8c0.2,0.2,0.4,0.4,0.4,0.5c0,0.1-0.2,0.3-0.4,0.3c-0.1,0-0.3-0.2-0.3-0.3C234,100.2,234.2,100.1,234.3,99.8z"/>
	<path d="M132.8,124.5c-0.2,0.2-0.3,0.4-0.4,0.4c-0.2,0-0.3-0.2-0.4-0.3c0.1-0.1,0.2-0.3,0.3-0.3
		C132.4,124.2,132.6,124.3,132.8,124.5z"/>
	<path d="M237.1,90c-0.1-0.2-0.3-0.4-0.3-0.5c0.1-0.1,0.3-0.2,0.4-0.3c0.1,0,0.3,0.2,0.3,0.3C237.5,89.7,237.3,89.8,237.1,90z"/>
	<path d="M79.3,118.3c-0.3,0.1-0.5,0.3-0.6,0.3c-0.1,0-0.2-0.2-0.3-0.3c0.2-0.1,0.3-0.3,0.5-0.3C79,118,79.1,118.2,79.3,118.3z"/>
	<path d="M129.6,118.9c0.2,0.2,0.2,0.4,0.3,0.5c-0.1,0.1-0.3,0.3-0.4,0.3c-0.1,0-0.3-0.2-0.3-0.3
		C129.2,119.2,129.4,119.1,129.6,118.9z"/>
	<path d="M205,135.9c0.2,0.2,0.3,0.4,0.3,0.5c0,0.1-0.2,0.2-0.3,0.3c-0.1-0.1-0.3-0.2-0.4-0.4C204.6,136.3,204.8,136.1,205,135.9z"
		/>
	<path d="M114.4,110.5c0.3-0.3,0.6-0.3,0.8,0c0,0.1-0.1,0.3-0.2,0.4C114.6,111,114.5,110.8,114.4,110.5z"/>
	<path d="M195.2,132.6c-0.3,0.2-0.4,0.3-0.5,0.4c-0.1,0-0.2-0.2-0.3-0.3c0.1-0.1,0.2-0.3,0.4-0.3
		C194.8,132.4,194.9,132.5,195.2,132.6z"/>
	<path d="M210.2,130.6c-0.1,0.1-0.3,0.2-0.4,0.2c-0.1,0-0.2-0.2-0.3-0.3c0.1-0.1,0.3-0.3,0.4-0.3c0.1,0,0.3,0.1,0.4,0.2
		C210.3,130.4,210.2,130.5,210.2,130.6z"/>
	<path d="M246.1,90.3c-0.1-0.2-0.2-0.3-0.3-0.4c0.1-0.1,0.2-0.2,0.4-0.3c0.1,0,0.3,0.2,0.2,0.2C246.3,90,246.2,90.1,246.1,90.3z"/>
	<path d="M68.8,127.4c-0.2-0.2-0.3-0.3-0.3-0.4c0-0.1,0.2-0.3,0.3-0.3c0.1,0,0.3,0.1,0.3,0.2C69,127,68.9,127.2,68.8,127.4z"/>
	<path d="M64,129.9c-0.2,0.1-0.3,0.2-0.4,0.2c-0.1-0.1-0.2-0.2-0.3-0.3c0.1-0.1,0.2-0.2,0.3-0.2C63.7,129.6,63.8,129.7,64,129.9z"/>
	<path d="M70.6,133.9c0.1-0.2,0.2-0.3,0.2-0.5c0,0.1,0.1,0.2,0.1,0.3C70.9,133.8,70.8,133.8,70.6,133.9z"/>
	<path class="st0" d="M204.1,66.6c-0.6-1.1-1.2-2.1-1.7-3.2c-0.7-1.4-1.4-2.8-2-4.2c-0.1-0.2-0.2-0.5-0.2-0.8c0-0.3-0.2-0.6-0.5-0.5
		c-0.2,0-0.5,0.2-0.6,0.4c-0.5,1-0.9,2-1.3,3.1c-0.9,2.2-1.8,4.5-2.6,6.8c-0.2,0.7-0.6,1-1.3,1.1c-0.7,0.2-1.3,0.4-1.9,0.6
		c-0.9,0.3-1.7,0.9-2.4,1.5c-2.3,2.1-4.6,4.2-6.9,6.4c-0.5,0.5-1,1.1-1.5,1.7c-2.1,2.5-4.3,5-6.4,7.5c-0.4,0.5-0.8,1.1-1.1,1.7
		c-0.2,0.4-0.5,0.5-0.9,0.5c-0.6,0-1.2,0.1-1.8,0.2c-2.3,0.6-4.7,0.7-7.1,0.6c-1.2-0.1-2.4-0.2-3.5-0.3c-1.7-0.2-3.3-0.3-5-0.5
		c-1.8-0.2-3.6-0.4-5.5-0.6c-2.5-0.2-5.1-0.3-7.6-0.5c-1.2-0.1-2.4-0.2-3.6-0.2c-1.3,0-2.6,0-4,0c-4.2,0.1-8.4,0.2-12.6,0.2
		c-2.4,0-4.8-0.1-7.4-0.1c0.3-1,0.5-2,0.8-2.9c0.8-2.5,1.4-5.1,1.2-7.8c-0.1-1.5,0.4-2.9,1.6-3.9c0.3-0.3,0.6-0.6,0.7-1
		c0.7-1.2,1.3-2.5,1.9-3.7c0.3-0.6,0.6-0.8,1.2-0.8c2.9,0.2,5.7,0.3,8.6,0.4c0.5,0,1,0.2,1.4,0.4c1.4,0.8,2.8,1.5,3.9,2.7
		c0.3,0.3,0.6,0.6,1,0.9c0.2,0.2,0.6,0.2,0.7-0.1c0.1-0.2,0.1-0.6-0.1-0.7c-1.5-1.3-3-2.7-4.8-3.6c-0.9-0.4-2-0.5-3-0.7
		c-0.3-0.1-0.7-0.1-1.1-0.1c0.1-0.4,0.1-0.8,0.2-1.2c0.3-1.1,0.6-2.2,1-3.3c0.9-2.4,1.4-4.9,1.9-7.4c0.5-2.7,1.3-5.4,2.8-7.7
		c0.6-0.9,1.4-1.7,2.2-2.4c1.8-1.4,3.6-2.8,5.4-4.2c0.8-0.6,1.7-1.3,2.6-1.8c0.9-0.5,1.5-1.3,2.1-2.1c0.5-0.7,1-1.4,1.5-2.1
		c0.3-0.4,0.4-0.7,0.3-1.2c-0.1-0.7,0-1.5,0-2.2c0-0.6,0.1-1.3,0.1-2.1c0.5-0.3,1.1-0.6,1.8-0.9c1.5-0.7,3.1-1.3,4.6-2
		c1.4-0.6,2.7-0.5,4.1-0.2c2.9,0.6,5.7,1,8.6,1.8c2.1,0.6,4.1,1.4,6.1,2.2c0.9,0.4,1.8,0.9,2.8,1.3c0.7,0.3,1.5,0.4,2.3,0.6
		c1.8,0.4,3.6,0.8,5.5,1.3c1,0.2,2,0.6,2.9,0.9c0.3,0.1,0.6,0.3,0.9,0.5c0.8,0.6,1.6,0.9,2.5,0.9c1.9-0.1,3.8-0.1,5.7-0.2
		c1,0,2,0,3,0c0,0,0.1,0,0.1,0c1.7-0.5,3.5-0.1,5.2-0.9c0.4-0.2,1-0.3,1.5-0.3c0.9,0,1,0.1,0.9,0.9c-0.1,1-0.3,2-0.5,3
		c-0.4,2.9-1,5.8-1.3,8.8c-0.2,2.5-0.1,5.1-0.1,7.7c0.1,3.3-0.3,6.6-0.7,9.9c-0.1,0.6-0.1,1.1-0.2,1.7
		C204.3,66.5,204.2,66.5,204.1,66.6z M155.5,79c-0.1,0.1-0.4,0.2-0.5,0.4c-0.1,0.3,0.2,0.5,0.5,0.5c1.1,0.2,2.3,0.4,3.4,0.6
		c3.9,0.7,7.7,1.4,11.6,2.1c0.5,0.1,0.9,0.2,1.2,0.6c0.3,0.3,0.6,0.7,0.9,1c0.1,0.1,0.4,0,0.6,0c0-0.2,0.1-0.5,0-0.6
		c-0.4-0.5-0.8-1-1.3-1.5c-0.2-0.2-0.5-0.3-0.7-0.3c-0.8-0.1-1.6-0.2-2.4-0.4c-2.2-0.4-4.3-0.8-6.5-1.2
		C160.1,79.9,157.9,79.4,155.5,79z M170,69c1.2,2.2,2.5,4.4,3.6,6.6c0.7,1.3,1.4,2.7,2.1,4.1c0.2,0.4,0.3,0.8,1,0.6
		c0-0.2,0-0.5-0.1-0.7c-0.4-0.8-0.7-1.6-1.2-2.4c-1.4-2.7-2.9-5.4-4.4-8.2C170.8,68.6,170.5,68.6,170,69z M198.2,56.8
		c-0.1-0.2-0.3-0.5-0.4-0.7c-0.6-0.8-1.3-1.6-1.9-2.4c-1.1-1.4-2.2-2.8-3.3-4.3c-0.2-0.2-0.4-0.4-0.6-0.6c-0.1-0.1-0.4-0.1-0.5,0
		c-0.1,0.1-0.1,0.4-0.1,0.5c0,0.2,0.2,0.3,0.3,0.4c0.7,0.9,1.5,1.9,2.2,2.8c1.1,1.3,2.1,2.6,3.2,4C197.4,57,197.6,57.4,198.2,56.8z
		 M190.3,53.3c0.2,0.2,0.3,0.3,0.4,0.5c1.8,1.6,3.5,3.2,5.3,4.7c0.2,0.2,0.5,0.4,0.8,0.5c0.2,0.1,0.5,0,0.7-0.1
		c-0.1-0.2-0.1-0.5-0.3-0.7c-1.1-1-2.2-1.9-3.3-2.9c-0.7-0.6-1.5-1.3-2.2-1.9C191.3,53.1,190.9,52.8,190.3,53.3z M171.8,88.5
		c0.2-0.4,0.3-0.5,0.3-0.6c-0.1-0.5-0.2-0.9-0.3-1.4c-0.3-1-0.5-1.1-1.5-1.1c-0.8,0-1.7-0.1-2.5-0.2c-0.4,0-0.9-0.1-1.3-0.1
		c-0.2,0-0.3,0.3-0.5,0.4c0.1,0.1,0.2,0.4,0.4,0.4c1.1,0.2,2.1,0.3,3.2,0.4c1.3,0,1.4,0,1.9,1.2C171.4,87.7,171.6,88,171.8,88.5z"/>
	<path class="st0" d="M58.7,78.2c-1-0.3-1.8-0.5-2.7-0.8c-3.9-1.3-7.9-2.6-11.8-3.9c-1.1-0.4-2.2-0.9-3.3-1.4
		c-1.4-0.6-2.9-1.1-4.4-1.4c-1.2-0.2-2.4-0.9-3.6-1.4c-0.2-0.1-0.4-0.2-0.6-0.4c-1.5-1.3-3.3-1.7-5.1-2.3c-0.7-0.2-1.5-0.5-2.2-0.7
		c-2.5-0.8-5.1-1.3-7.7-1.7c-1.3-0.2-2.5-0.4-3.8-0.7c-0.4-0.1-0.9-0.3-1.1-0.6c-1.7-2.1-3.8-3.8-5.8-5.6c-1.1-1-2.2-2-3.5-3.2
		c0.5,0,0.8,0,1.1-0.1c0.7-0.1,0.8-0.3,0.6-0.9c-0.1-0.4-0.2-0.8-0.4-1.3c0.5,0,0.9-0.1,1.3-0.1c0.9-0.1,1-0.3,0.7-1.1
		c-0.2-0.5-0.3-1-0.5-1.5c0.9-0.8,2,0.1,2.8-0.7c-0.3-0.6-0.5-1.3-0.9-2c0.9-0.2,1.6-0.4,2.5-0.6c-0.2-0.7-0.4-1.2-0.6-1.8
		c0.7-0.4,1.5,0.1,2-0.7c-0.1-0.4-0.2-0.8-0.3-1.4c0.4-0.1,0.7-0.1,1-0.2c1.1-0.1,1.2-0.1,1-1.3c0-0.2-0.1-0.5-0.1-0.8
		c0.5,0.1,0.9,0.1,1.3,0.1c0.8,0.1,1-0.2,0.9-0.9c0-0.3-0.1-0.6-0.1-0.9c0-0.1,0-0.2,0.1-0.4c0.3,0,0.6,0,1,0c0.7,0,0.9-0.3,0.7-1
		c-0.1-0.4-0.2-0.9-0.4-1.5c0.6,0,0.9,0.1,1.3,0.1c0.7,0,0.8-0.1,0.8-0.8c0-0.5,0-1.1,0-1.7c0.4,0,0.8,0,1.2-0.1
		c0.8-0.1,0.9-0.2,0.8-1c0-0.3-0.1-0.6-0.2-1c0.4,0,0.7-0.1,1-0.1c0.8,0,1.1-0.4,0.9-1.2c-0.1-0.3-0.1-0.5-0.2-0.8c0,0,0-0.1,0-0.1
		c0.4-0.4,0.8-0.3,1.3-0.3c0.7,0,0.8-0.2,0.7-0.9c-0.1-0.4-0.1-0.8-0.2-1.3c0.4,0,0.7-0.1,1-0.1c0.9,0,1.1-0.2,1-1.1
		c0-0.2-0.1-0.3-0.1-0.5c0-0.1,0-0.3,0-0.5c0.4,0,0.7,0,1.1,0c0.7,0,0.9-0.2,0.8-0.9c-0.1-0.4-0.1-0.9-0.2-1.4
		c0.3,0,0.6-0.1,0.8-0.1c0.9-0.1,1-0.2,1.1-1.1c0-0.3,0-0.7,0-1.1c0.3,0,0.6,0.1,0.8,0.1c0.7,0.1,1-0.1,1-0.8c0-0.5-0.1-1.1-0.1-1.7
		c0.3,0,0.6-0.1,0.9-0.1c1-0.1,1.1-0.2,1-1.2c0-0.3-0.1-0.6-0.1-1c0.6-0.1,1.1-0.1,1.8-0.2c0-0.8-0.1-1.6-0.1-2.5
		c0.3,0,0.6-0.1,0.9-0.1c0.9,0,1-0.1,1-1c0-0.3,0-0.6,0-1c0.3,0,0.6-0.1,0.8-0.1c0.7-0.1,0.9-0.3,0.7-1c-0.1-0.3-0.1-0.6-0.2-0.9
		c0.4-0.1,0.6-0.2,0.9-0.3c0.9-0.2,0.9-0.2,0.8-1.2c0-0.1,0-0.3,0-0.5c0.4,0.1,0.6,0.1,0.9,0.2c0.9,0.3,1.1,0.2,1-0.8
		c0-0.3-0.1-0.7-0.1-1c0-0.1,0-0.3,0.1-0.6c1.3,1,2.5,1.8,3.7,2.8c1,0.7,1.9,1.6,2.8,2.3c0.6,0.4,1.3,0.6,2,1c1.8,1,3.7,1.9,5.5,2.9
		c0.5,0.3,1,0.4,1.5,0.1c0.2-0.1,0.5-0.1,0.8-0.3c0.7-0.4,1.4-0.3,2,0.1c1.1,0.5,2.1,1.1,2.9,1.9c-0.4,0.5-0.6,1-1,1.4
		c-0.4,0.4-0.7,0.8-1.2,1.1c-1.2,0.9-2.3,1.8-3.5,2.6c-0.3,0.2-0.5,0.4-0.3,0.8c0.3,0.4,0.6,0.2,0.9,0c0.2-0.1,0.3-0.3,0.5-0.4
		c0.8-0.6,1.6-1.2,2.4-1.8c0.6-0.5,1.3-1,1.8-1.6c0.4-0.5,0.8-0.9,1.4-1.1c0.9-0.3,1.7-0.5,2.6-0.7c0.3-0.1,0.7,0,1,0.2
		c1.1,1,2.2,2,3,3.5c-0.4,0.1-0.8,0.1-1.1,0.2C69.2,18.8,69,19,69,19.2c0,0.1,0.3,0.4,0.5,0.4c0.3,0,0.6-0.1,0.9-0.1
		c2.3-0.3,4.5-0.8,6.6-1.5c2.1-0.7,4.3-1.3,6.5-1.9c1-0.3,2-0.4,3-0.4c2.6-0.2,5.3-0.7,7.9,0.1c0.8,0.2,1.5,0.1,2.3,0
		c0.5-0.1,0.9,0,1.4,0.2c1.2,0.6,2.5,1.1,3.7,1.7c0.8,0.4,1.5,0.8,2.3,1.2c1.9,0.8,3.8,1.6,5.8,2.4c-0.4,0.7-0.9,1.4-1.4,2.1
		c-0.1,0.2-0.2,0.3-0.4,0.4c-1.5,0.8-2.7,2.1-4.3,2.8c-0.4,0.2-0.8,0.4-1.1,0.7c-1.9,1.3-3.8,2.7-5.8,3.9c-1.6,0.9-3.2,1.7-4.9,2.5
		c-1.6,0.7-2.9,1.7-4.1,2.8c-0.3,0.3-0.5,0.7-0.6,1.1c-0.5,1.6-1.5,2.8-2.7,3.9c-0.9,0.9-1.9,1.6-2.9,2.4c-0.2,0.1-0.3,0.2-0.5,0.4
		c-2.1,1.9-4.2,3.9-6.3,5.8c-0.8,0.7-1.6,1.3-2.5,2c-0.8,0.7-1.6,1.3-2.5,2c-1.7,1.3-2.7,3-3.7,4.9c-0.7,1.4-1.5,2.8-2.2,4.3
		c-0.3,0.7-0.6,1.4-0.9,2.2c-0.5,1.2-1,2.3-1.5,3.5c-1.1,2.8-2.5,5.5-2.8,8.5C58.9,77.5,58.7,77.8,58.7,78.2z M45.4,15
		c-0.3,0.3-0.7,0.5-0.9,0.8c-0.7,0.8-1.4,1.6-2,2.4c-1.9,2.2-3.9,4.5-5.8,6.7c-1.4,1.7-2.7,3.4-4.1,5.1c-2.7,3.4-5.5,6.8-8.2,10.3
		c-1.3,1.7-2.7,3.4-4,5c-1.4,1.7-2.8,3.3-4.1,5c-1.7,2.2-3.5,4.4-5.2,6.6c-0.5,0.6-1,1.2-1.4,1.9c-0.2,0.2-0.3,0.5,0,0.7
		c0.1,0.1,0.5-0.1,0.6-0.2c0.9-1.1,1.7-2.1,2.5-3.2c1.8-2.3,3.5-4.6,5.4-6.8c1.8-2.2,3.7-4.4,5.5-6.6c1.8-2.2,3.4-4.4,5.2-6.6
		c2.2-2.7,4.3-5.3,6.5-8c2.6-3.2,5.3-6.3,8-9.4c0.7-0.8,1.4-1.7,2.1-2.5C45.5,15.8,45.8,15.6,45.4,15z M42,12.4
		c-0.1,0.1-0.2,0.1-0.2,0.2c-1.5,2-3,4.1-4.6,6.1c-0.8,1-1.8,2-2.6,3c-3,3.6-6,7.2-9,10.8c-2.2,2.7-4.5,5.5-6.8,8.2
		c-2.9,3.4-5.5,6.9-8.2,10.4c-1.3,1.7-2.6,3.4-4,5c-0.1,0.1-0.2,0.3-0.3,0.4c0,0.1,0,0.4,0.1,0.4c0.1,0.1,0.3,0.1,0.4,0
		c0.1-0.1,0.2-0.2,0.3-0.4c0.7-0.9,1.4-1.8,2.1-2.8c2.2-2.9,4.5-5.9,6.7-8.8c1.4-1.8,2.8-3.5,4.3-5.2c2.2-2.7,4.5-5.4,6.7-8.1
		c2.1-2.5,4.1-5,6.2-7.5c2.4-2.9,5.1-5.7,7.3-8.8c0.5-0.7,1.1-1.5,1.6-2.3C42.4,12.9,42.5,12.6,42,12.4z M8.5,58.6
		c0.1-0.1,0.1-0.2,0.2-0.3c1.9-2.7,3.7-5.3,5.7-8c2-2.7,4-5.4,6.2-7.9c3.3-3.8,6.4-7.9,9.6-11.8c1.9-2.3,3.8-4.7,5.8-7
		c2.5-2.9,5-5.8,7.6-8.7c0.2-0.3,0.4-0.6,0.6-0.9c-0.5-0.4-0.7-0.2-1,0.1c-2.1,2.5-4.3,5-6.5,7.5c-1.6,1.9-3.1,3.8-4.7,5.7
		c-1.1,1.4-2.3,2.7-3.4,4.1c-1.7,2.1-3.4,4.3-5.1,6.4c-1.3,1.6-2.8,3.1-4.1,4.7c-2.1,2.6-4.1,5.3-6.1,7.9c-1.7,2.3-3.3,4.6-5,6.8
		c-0.1,0.2-0.3,0.4-0.4,0.6C7.9,58.2,8,58.5,8.5,58.6z M40.2,12.6c-0.2-0.1-0.5-0.3-0.6-0.2c-0.3,0.2-0.5,0.4-0.7,0.7
		c-0.7,0.9-1.4,1.8-2.1,2.8c-1.7,2.2-3.4,4.5-5.1,6.7c-1.5,1.9-3.1,3.8-4.7,5.7c-2.3,2.8-4.7,5.6-7,8.4c-1.8,2.2-3.5,4.4-5.3,6.6
		c-1.1,1.4-2.2,2.9-3.3,4.4c-1.9,2.5-3.9,5.1-5.8,7.6c-0.1,0.2-0.2,0.5-0.1,0.6c0.2,0.3,0.5,0.1,0.7-0.1c0.4-0.5,0.7-1,1.1-1.5
		c3-3.9,5.9-7.9,9-11.7c2.3-2.9,4.7-5.8,7.1-8.7c0.7-0.8,1.4-1.7,2.1-2.5c1.1-1.4,2.3-2.8,3.4-4.2c2.2-2.7,4.4-5.4,6.5-8.1
		c1.5-1.9,3-3.9,4.5-5.8C39.9,13,40,12.9,40.2,12.6z M39.3,57.2c0.1,0,0.2,0.1,0.2,0.1c-0.2,0.5-0.3,1-0.5,1.5
		c-0.2,0.6-0.1,0.9,0.5,1c0.8,0.2,1.6,0.2,2.4-0.1c-0.1-1.1-1.1-0.6-1.6-0.9c0.7-0.3,1.4,0.1,1.7-0.6c-0.4-0.4-1.1,0-1.4-0.6
		c0.5-0.5,1.4,0.5,1.8-0.5c-0.1-0.1-0.1-0.2-0.2-0.2c-0.6-0.2-1.2-0.6-1.9-0.7c-0.4-0.1-0.9,0.1-1.3-0.1c-0.1,0-0.3,0.3-0.4,0.4
		c-0.2,0.3-0.2,0.6-0.4,1.1c-0.1-0.5-0.2-0.8-0.2-1.1c0-0.3-0.2-0.6-0.6-0.6c-0.2,0-0.4,0.3-0.5,0.5c-0.4,0.8-0.8,1.6-1.2,2.5
		c0,0.1-0.1,0.2-0.1,0.3c0,0.2,0.1,0.4,0.2,0.5c0.1,0.1,0.4,0,0.4-0.1c0.2-0.2,0.3-0.5,0.5-0.7c0.1-0.2,0.3-0.4,0.5-0.7
		c0.1,0.5,0.1,0.9,0.3,1.2c0.1,0.2,0.3,0.4,0.5,0.5c0.1,0,0.4-0.2,0.5-0.4c0.2-0.4,0.3-0.8,0.5-1.2C39,57.8,39.2,57.5,39.3,57.2z
		 M33.4,45.1c0.1-0.4-0.4-0.7-0.8-0.5c-0.4,0.3-0.8,0.6-1.1,0.9c-1.2,1.5-2.4,2.9-3.6,4.4c-0.6,0.8-1.3,1.5-2.4,1.6
		c-0.7,0-1.1,0.5-1.4,1c-0.2,0.5-0.5,1-0.7,1.5c-0.4,0.8-0.9,1.7-1.3,2.5c-0.1,0.2,0,0.4,0.1,0.6c0.2,0,0.5,0,0.6-0.1
		c0.2-0.2,0.4-0.4,0.5-0.6c0.5-1,1-2,1.5-3c0.3-0.6,0.7-0.9,1.4-1c0.9-0.1,1.6-0.5,2.2-1.4c1.3-2.1,2.8-4,4.7-5.6
		C33.2,45.4,33.3,45.2,33.4,45.1z M42.8,6.4c-0.9,1.1-1.7,2.1-2.4,3.1C40,10.2,40.2,10.6,41,11c1.3,0.6,2.6,1.2,3.8,1.8
		c0.4,0.2,0.7,0.2,1-0.1c0.6-0.7,1.2-1.3,1.7-2c0.3-0.3,0.1-0.7-0.3-0.9c-1.3-0.6-2.2-1.6-3.3-2.6C43.6,7,43.3,6.7,42.8,6.4z
		 M60,31.8c0.3,0,0.5,0.1,0.7,0.1c1.1,0.2,2.3,0.2,3.4,0.5c2,0.6,3.9,1.3,5.9,1.9c0.7,0.2,1.4,0.4,2.2,0.6c0.3,0.1,0.6,0,0.7-0.4
		c0-0.3-0.2-0.5-0.5-0.5c-1.5-0.4-3.1-0.9-4.6-1.3c-0.8-0.2-1.6-0.5-2.4-0.8c-1.4-0.6-2.9-0.7-4.4-0.9C60.5,31,59.9,31,60,31.8z
		 M74.2,32.3c-0.2-0.1-0.4-0.3-0.6-0.4c-0.8-0.2-1.7-0.3-2.5-0.6c-2.5-0.9-5.1-1.9-7.6-2.8c-0.3-0.1-0.8-0.6-1,0.1
		c-0.2,0.5,0.4,0.6,0.8,0.7c2.3,0.9,4.7,1.8,7,2.7c1.1,0.4,2.2,0.7,3.3,1C74,33,74.3,32.7,74.2,32.3z M49.4,62.8
		c0.1,0.2,0.1,0.3,0.2,0.4c0.2,0.3,0.4,0.7,0.6,0.7c0.2,0,0.6-0.3,0.8-0.5c0.4-0.7,0.8-1.4,1.1-2.2c0.1-0.3,0.1-0.5-0.2-0.7
		c-0.3-0.2-0.6,0-0.8,0.3c-0.2,0.4-0.4,0.8-0.6,1.2c-0.5-0.3-1-0.5-1.5-0.7c0-0.5,0-1.1,0-1.7c0-0.2-0.2-0.3-0.4-0.5
		c-0.1,0.1-0.3,0.3-0.3,0.4c-0.1,0.9-0.2,1.8-0.2,2.7c0,0.6,0.1,0.7,0.8,0.7C49.1,62.9,49.2,62.9,49.4,62.8z M64.8,26.2
		c3.1,1.2,6.2,2.3,9.2,3.4c0.4-0.6,0-0.9-0.4-1c-2-0.8-4-1.6-6.1-2.3c-0.6-0.2-1.3-0.4-2-0.6C65.2,25.7,64.9,25.7,64.8,26.2z
		 M25.3,56.4c0.2,0.1,0.4,0.3,0.4,0.2c0.3-0.2,0.7-0.3,0.9-0.6c1-1.1,2.2-1.8,3.7-1.8c0.2,0,0.4,0,0.5,0c0.5-0.2,1-0.4,1.5-0.7
		c0.1-0.1,0.2-0.3,0.2-0.4C32.4,53.1,32.2,53,32,53c-0.2,0-0.5,0.1-0.7,0.1c-0.6,0.1-1.2,0.4-1.8,0.3c-0.9-0.1-1.5,0.2-2.2,0.8
		C26.6,54.9,25.9,55.5,25.3,56.4z M20.1,59.6c0.1,0,0.2,0,0.3-0.1c0.9-0.4,1.5,0,2.2,0.5c0.1,0.1,0.2,0.2,0.3,0.3
		c0.6,0.4,1.1,0.8,1.7,1.1c0.3,0.2,0.7,0.2,0.9-0.1c0.3-0.4-0.2-0.6-0.4-0.8c-0.8-0.5-1.5-1-2.3-1.5c-0.5-0.3-0.9-0.7-1.4-0.7
		c-0.6,0-1.2,0.2-1.8,0.4c-0.1,0-0.3,0.3-0.3,0.5c0,0.1,0.2,0.3,0.3,0.3C19.8,59.6,19.9,59.6,20.1,59.6z M53.5,61.8
		c-0.1,0.4-0.2,0.7-0.3,1.1c-0.1,0.3-0.2,0.6-0.3,1c-0.1,0.3,0.1,0.6,0.4,0.7c0.4,0.1,0.5-0.2,0.6-0.5c0.1-0.3,0.1-0.6,0.2-0.9
		c0.1-0.7,0.3-1.2,1.2-1.1c0.1,0,0.3-0.1,0.6-0.3c-0.9-0.6-1.8-1-2.8-1.2c-0.1,0-0.4,0.1-0.4,0.2c0,0.2,0,0.4,0.1,0.5
		C53,61.6,53.2,61.6,53.5,61.8z M45.6,58.5c-1.6-1.2-2.6-1.3-3.4-0.3c0.3,0.2,0.7,0.4,1,0.6c-0.1,0.5-0.2,0.9-0.3,1.4
		c-0.1,0.4,0,0.7,0.4,0.8c0.4,0.1,0.5-0.2,0.6-0.5c0.1-0.5,0.2-1,0.2-1.4C44.7,58.8,45.1,58.7,45.6,58.5z M59.3,64.6
		c0,0.4-0.1,0.7-0.1,1c0,0.2,0.2,0.4,0.3,0.4c0.1,0,0.4-0.1,0.5-0.3c0.2-0.6,0.4-1.2,0.5-1.8c0.1-0.5-0.3-0.9-0.7-0.7
		c-0.6,0.3-1.2,0.6-1.7,1c-0.1,0.1-0.1,0.4,0,0.6c0,0.1,0.4,0.1,0.5,0.1C58.8,65,59,64.8,59.3,64.6z M28.9,57.3
		c0.2,0.2,0.3,0.4,0.4,0.4c0.8-0.1,1.6-0.2,2.4-0.4c0.1,0,0.2-0.4,0.2-0.5c0-0.2-0.3-0.4-0.4-0.4C30.5,56.6,29.7,56.6,28.9,57.3z
		 M61.3,66.2c-0.2-0.2-0.3-0.4-0.5-0.4c-0.1,0-0.2,0.2-0.4,0.3c0.1,0.1,0.2,0.3,0.4,0.4C60.9,66.5,61.1,66.4,61.3,66.2z"/>
	<path class="st0" d="M98,77c0.1,0.3,0.2,0.8,0.4,0.9c1.3,0.6,2.6,1.2,4.1,0.4c0.9-0.4,1-1.2,1.1-2c0-0.3-0.3-0.6-0.4-0.9
		c-0.1-0.2-0.3-0.3-0.6-0.5c1,0.1,1.5-0.5,2.1-1c1-1,1-2-0.2-2.8c-1.1-0.7-2.2-1.3-3.4-1.9c-0.2-0.1-0.4-0.2-0.7-0.3
		c0.7-0.7,1.4-1.2,2.5-0.9c0.5,0.2,1.1,0.1,1.7,0.1c0.8,0.1,1.7,0.1,2.5,0.2c0.1,0,0.2,0,0.3,0c0.3,0,0.6,0,0.6-0.4
		c0-0.2-0.2-0.4-0.4-0.5c-0.5-0.1-1.1-0.2-1.6-0.3c-1.3-0.1-2.6-0.1-3.9-0.3c-1-0.1-1.6,0.5-2.2,1c-0.5,0.4-0.9,0.9-1.5,1.4
		c-0.3-0.8-0.6-1.5-0.9-2.4c0.8-0.4,1.7-1,2.6-1.2c0.9-0.2,1.9,0,2.8,0.1c0.3,0,0.7,0.1,1,0.2c0.9,0.2,1.6,0.1,2.4-0.4
		c0.9-0.5,1.9-0.9,2.8-1.4c0.3-0.2,0.6-0.3,0.5-0.7c-0.2-0.4-0.5-0.4-0.8-0.2c-0.8,0.4-1.7,0.7-2.5,1.2c-0.9,0.6-1.8,0.6-2.8,0.4
		c-1-0.2-2.1-0.3-3.1-0.4c-0.2,0-0.4,0-0.6,0.1c-1.4,0.7-2.7,1.4-4.1,2.1c-0.8,0.4-1.6,0.8-2.4,1.2c-0.5-0.6-0.9-1.2-1.2-1.7
		c0.5-0.8,0.5-0.9,1.4-0.6c0.5,0.1,0.8,0.1,1.1-0.3c0.4-0.7,0.4-0.9-0.3-1.4c-0.2-0.1-0.3-0.2-0.5-0.4c0-0.1,0.1-0.2,0.1-0.3
		c0.5-0.7,0.4-1.3-0.3-1.6c-0.2-0.1-0.6-0.1-0.7,0c-0.5,0.7-1.2,0.7-1.9,0.5c-0.1,0-0.1,0-0.2,0c-0.8,1.2-0.8,1.3-0.2,2.1
		c-0.4,0.7-1,1.4-0.6,2.4c0.4,0.9,1.1,1.4,2,1.7c-0.4,0.5-0.8,0.6-1.4,0.5c-2-0.2-4-0.4-6.1-0.5c-0.7-0.1-1.4-0.1-2-0.1
		c-0.2,0-0.4,0.2-0.6,0.3c0.2,0.2,0.3,0.4,0.5,0.5c0.2,0.1,0.4,0.1,0.6,0.1c2.6,0.1,5.3,0.2,7.9,0.8c0.5,0.1,1.1-0.2,1.6-0.3
		c0.6,0.5,1.2,1.1,1.9,1.6c0.9,0.7,1.5,0.3,1.6-0.8c0-0.1,0.1-0.3,0.1-0.4c0.5,0,1,0.1,1.5,0.2c-0.2,0.2-0.3,0.4-0.5,0.5
		c-0.9,0.8-1.8,1.5-2.7,2.3c-0.1,0.1-0.3,0.3-0.3,0.5c-0.3,2-0.6,4-0.9,5.9c-0.3,1.9-0.7,3.9-1,5.8c0,0.1-0.1,0.2-0.2,0.4
		c-0.3-0.9-0.5-1.6-0.7-2.4c-0.5-1.7-0.9-3.5-1.4-5.2c-0.5-1.7-1-3.4-1.4-5.1c-0.1-0.5-0.3-0.8-0.8-1.1c-0.7-0.3-1.3-0.7-2-1
		c-0.2-0.1-0.6,0-0.7,0.1c-0.2,0.3,0,0.6,0.3,0.7c0.4,0.2,0.8,0.5,1.3,0.6c0.8,0.2,1.1,0.8,1.3,1.4c0.5,1.6,0.9,3.1,1.3,4.7
		c0.7,2.6,1.3,5.3,2,7.9c0,0.1,0,0.3,0,0.6c-1.3-0.9-2.8-0.8-4-1.2c-3.5-1.2-7.1-1.7-10.6-2.7c-0.9-0.3-1.8-0.6-2.7-0.8
		c-2.2-0.5-4.5-0.9-6.7-1.5c-2.5-0.7-4.9-1.5-7.3-2.3c-0.1,0-0.2-0.2-0.3-0.2c0.3-2.2,0.8-4.3,1.7-6.3c0.6-1.4,1.2-2.7,1.8-4.1
		c0.1-0.2,0.2-0.4,0.2-0.6c0.7-2.9,2.3-5.5,3.7-8.1c0.3-0.6,0.7-1.2,1-1.9c0.8-1.7,2.4-2.8,3.8-3.9c1.8-1.4,3.5-3,5.2-4.5
		c1.9-1.7,3.9-3.2,5.8-4.8c1.6-1.3,3.1-2.8,4.3-4.5c0.4-0.6,0.6-1.3,0.9-1.9c0.2-0.3,0.3-0.7,0.6-0.9c1.1-0.8,2.2-1.7,3.4-2.2
		c3-1.3,5.8-3,8.5-4.9c1.4-1,2.9-1.8,4.3-2.7c1.4-0.9,2.7-1.8,4-2.8c0.2-0.1,0.4-0.4,0.5-0.6c0.3-0.4,0.5-0.9,0.8-1.3
		c0.6-0.9,1-1,2.1-0.7c1.4,0.4,2.8,0.6,4.2,0.4c2.5-0.3,4.6,0.5,6.6,2c1.1,0.8,2.2,1.6,3.4,2.4c1,0.6,2.1,1.1,3.2,1.1
		c1.5,0.1,2.8,0.5,4.1,1.1c0.7,0.4,1.4,0.5,2.2,0.4c1.9-0.3,3.8,0.1,5.7,0.5c0.9,0.2,1.8,0.5,2.8,0.7c0.2,0.1,0.4,0.1,0.7,0.2
		c-0.9,0.5-1.7,1-2.5,1.5c0.5,0.7,0.5,0.7,1,0.4c0.9-0.6,1.8-1.1,2.8-1.7c0.3-0.2,0.7-0.3,1.2-0.6c0.1,0.4,0.1,0.6,0.1,0.9
		c0,0.8-0.1,1.6-0.1,2.4c0,0.6-0.1,1.1-0.5,1.6c-0.6,0.8-1.2,1.6-1.8,2.5c-0.2,0.2-0.3,0.5-0.5,0.6c-1,0.7-2.1,1.4-3.1,2.1
		c-1,0.7-1.8,1.5-2.8,2.2c-0.9,0.7-1.8,1.4-2.7,2c-1.7,1.2-2.8,2.9-3.5,4.8c-0.9,2.2-1.5,4.4-2,6.7c-0.4,2.4-1,4.8-1.9,7.1
		c-0.5,1.3-0.9,2.6-1.3,4c-0.9,0-1.8,0-2.6,0c-1,0-2,0.1-2.9,0c-1-0.1-1.9-0.3-2.9-0.7c-0.9-0.3-1.6-0.2-2.5,0
		c-2.6,0.9-5.1,2-7.4,3.4c-0.2,0.1-0.3,0.2-0.5,0.4c-0.1,0.1-0.2,0.3-0.3,0.4c0.2,0.4,0.5,0.3,0.8,0.2c0.6-0.3,1.2-0.6,1.8-1
		c1.7-1,3.6-1.7,5.5-2.4c1.3-0.5,2.5,0,3.7,0.3c0.1,0.5-0.2,0.7-0.5,1c-1.5,1-2.9,2.1-4.4,3c-1.2,0.8-2.6,1.6-3.8,2.3
		c-0.3,0.2-0.7,0.4-1,0.7c-0.1,0.1-0.2,0.4-0.1,0.4c0.1,0.1,0.3,0.2,0.5,0.2c0.2,0,0.4-0.2,0.5-0.3c2.6-1.5,5.1-3.2,7.5-5
		c0.1-0.1,0.2-0.1,0.5-0.2c-0.7,1.6-1.5,2.9-2.8,3.8c-1.5,1-3.1,2-4.6,3c-0.2,0.1-0.6,0.1-0.7,0.2c-0.4-0.3-0.6-0.7-0.9-0.8
		c-0.8-0.2-1.1,0.1-1.2,1c0,0.6-0.2,1.2-0.3,1.8c0,0.4-0.1,0.7-0.1,1.1c0,0.4,0.3,0.6,0.7,0.6c1.5,0,1.5,0,1.9-1.4
		c0.8-0.3,1.5-0.8,2.4-0.7c0.3,0,0.5-0.4,0.3-0.7c-0.2-0.3-0.5-0.6-0.8-0.9c0.8-0.5,1.6-1,2.5-1.5c-0.3,2.3,0.1,4.4-0.4,6.6
		c-0.5,2.1-1.2,4.1-1.8,6.2c-1,0-1.9,0-2.8,0c-3.1,0-6.2-0.1-9.3-0.1c-2.3,0-4.6-0.1-6.8-0.2c-0.3,0-0.7-0.1-1-0.2
		c0-0.3,0-0.5,0.1-0.6c0.8-1.9,1.7-3.8,2.6-5.7c0.5-1,0.8-2.1,1.3-3.1C97.7,77.7,97.9,77.4,98,77L98,77z M102.1,44.9
		c0.5,0.2,0.8,0.4,1.1,0.5c1.6,0.6,3.3,0.9,5,1c1.8,0.2,3.5,0.9,5.2,1.2c0,0,0.1,0,0.1,0c0.7,0.3,1.5,0.6,2.2,0.8
		c1.1,0.3,2.4-0.1,2.9-0.9c0.9-1.7,2-3.3,2.6-5.1c0.5-1.3,1.1-2.3,2.2-3c0.1,0,0.1-0.1,0.1-0.1c0.7-0.6,0.8-0.6,1.6-0.2
		c0.4,0.2,0.8,0.4,1.2,0.2c1-0.4,1.9-0.6,2.9-1c1.4-0.6,2.7-1.3,4.1-1.9c1.3-0.6,2.7-1.1,4.1-1.5c0.6-0.2,1-0.3,0.8-0.7
		c-0.2-0.5-0.6-0.3-1-0.2c-1.6,0.6-3.3,1.1-4.8,1.9c-1.7,0.9-3.4,1.6-5.3,2.2c-0.7,0.2-1.4,0.3-2-0.1c-0.7-0.5-1.3-0.3-1.9,0.2
		c-0.4,0.4-0.8,0.7-1.1,0.9c-0.9-0.5-1.6-0.9-2.4-1.2c-0.7-0.3-1-0.8-1-1.5c-0.1-0.9-0.1-0.9-1-0.9c-1.2,0.1-2.3-0.2-3.4-0.4
		c-1.5-0.3-3-0.7-4.4-1.3c-0.4-0.2-0.8-0.2-1.4-0.3c-0.1-0.6-0.1-1.3-0.2-2c-0.1-1.3-0.2-2.6-0.3-3.9c0-0.5,0.1-0.9,0.6-1.1
		c0.5-0.2,0.9-0.5,1.4-0.7c0.6-0.3,1.3-0.6,1.9-0.9c0.3-0.1,0.5-0.4,0.3-0.6c-0.1-0.1-0.4-0.1-0.6-0.1c-0.4,0.1-0.7,0.3-1.1,0.5
		c-1,0.5-2,1.1-2.9,1.6c-0.4,0.2-0.6,0.6-0.5,1.1c0.1,0.6,0.2,1.3,0.2,1.9c0,0.3,0,0.7,0,1.1c-0.2-0.1-0.4-0.1-0.4-0.1
		c-0.8-1-1.6-0.5-2.4-0.1c-0.2,0.1-0.5,0.4-0.6,0.6c-0.6,1.7-1.1,3.4-2,5c-0.6,1-1,2.1-1.5,3.1c-0.4,0.8-0.8,1.7-1,2.5
		c-0.2,0.7,0.2,1.2,0.9,1c1-0.3,1.9,0.1,2.9,0.4C102.8,43.6,102.5,44.2,102.1,44.9z M85.7,57.8c1.3-0.1,2.4-0.4,3.2-1.1
		c1.3-1.1,1.8-2.5,0.3-3.8c-1.3-1.1-2.7-2.1-4-3.1c-0.5-0.4-1.2-0.6-1.8-0.8c-0.3-0.1-0.8-0.1-1,0.1c-0.7,0.5-1.5,1-2.1,1.6
		c-1.7,1.7-3.3,3.3-5.2,4.8c-0.4,0.4-0.8,0.8-1.5,0.8c-0.4,0-0.6,0.5-0.2,0.8c0.1,0.1,0.3,0.2,0.5,0.3c0.5,0.2,1,0.3,1.4,0.6
		c0.5,0.3,0.8,0.3,1.3,0c1-0.8,2.1-1.5,3.1-2.3c0.7-0.6,1.2-0.7,2-0.2c0.9,0.6,1.9,1.2,2.9,1.7C84.9,57.6,85.4,57.7,85.7,57.8z
		 M99.9,36.6c-0.4,0.5-0.8,1.1-1.2,1.6c-0.3,0.4-0.6,0.6-1.1,0.4c-0.5-0.1-1-0.2-1.5-0.4c-1.3-0.5-2.3-0.1-3.3,0.7
		c-1.6,1.4-3.2,2.9-4.7,4.4c-0.5,0.5-1,1.1-1.5,1.7c0.7,0.4,0.9,0.3,1.4-0.3c1.7-1.9,3.6-3.5,5.5-5.1c0.7-0.6,1.4-0.7,2.3-0.5
		c0.8,0.2,1.5,0.4,2.3,0.5c0.4,0.1,0.8,0.1,1.1-0.3c0.5-0.7,1.1-1.3,1.6-2c0.1-0.2,0.3-0.6,0.2-0.7c-0.5-0.8-0.7-1.5-0.1-2.3
		c0.2-0.3-0.3-0.8-0.6-0.5c-0.4,0.3-0.7,0.7-1,1.1c-0.1,0.2,0.1,0.6,0.2,0.8C99.5,36,99.7,36.3,99.9,36.6z M105.2,74.3
		c0.1,0.2,0.3,0.3,0.4,0.5c0.2,0.4,0.5,0.7,0.3,1.2c-0.2,0.5-0.6,0.3-1,0.4c-0.4,0.1-0.8,0.2-1,0.6c-0.4,0.9,0.1,1.6,1,1.7
		c0.7,0,1.4,0.1,2.1,0.2c0.3,0.1,0.6,0.2,0.9,0c0.4-0.3,0.6-0.7,0.4-1.1c-0.3-0.6-0.1-1.2,0.1-1.8c0.2-0.6,0.1-1.1-0.3-1.5
		C107.5,73.8,106.3,73.7,105.2,74.3z M85,60c0-0.8-0.4-1.4-1-1.8c-0.3-0.2-0.6-0.5-0.9-0.7c-0.4-0.4-0.8-0.4-1.1,0
		c-0.8,0.9-1.6,1.8-2.3,2.7c-0.1,0.2-0.1,0.7,0,0.8c0.4,0.3,1,0.7,1.5,0.8c0.5,0.1,0.5-0.5,0.8-0.8c0,0,0-0.1,0.1-0.1
		c0.5-0.8,0.8-0.8,1.6-0.4c0.1,0.1,0.2,0.2,0.3,0.2C84.5,61,84.9,60.8,85,60z M87.9,64.8c0.5,0,1,0,1.4-0.5c0.6-0.8,0.5-1.8-0.2-2.6
		c-0.3-0.3-0.5-0.5-0.8-0.8c-0.7-0.5-1.5-1-2.5,0c-0.2,0.2-0.4,0.3-0.5,0.5c-0.7,0.7-0.6,2.1,0.3,2.6C86.2,64.4,87,64.8,87.9,64.8z
		 M95.2,86.9c0.4-0.2,0.6-0.3,0.8-0.4c1.4-1,2.8-2,4.1-3c1.5-1.2,2.8-2.4,4.5-3.3c0.3-0.2,0.8-0.3,0.5-0.8c-0.3-0.5-0.7-0.1-1,0.1
		c-1.4,1-2.8,2-4.2,3.1c-1.4,1.1-2.9,2.1-4.3,3.2c-0.2,0.2-0.5,0.4-0.6,0.7C95,86.4,95.1,86.7,95.2,86.9z M99,87.1
		c0.3-0.2,0.5-0.3,0.6-0.4c0.7-0.5,1.4-1.1,2.1-1.6c1.3-1,2.6-1.9,4-2.8c0.3-0.2,0.8-0.3,0.6-0.9c-0.1-0.4-0.5-0.4-1.1,0.1
		c-2,1.5-4.1,3.1-6.1,4.6c-0.2,0.1-0.3,0.3-0.4,0.5C98.8,86.7,98.9,86.9,99,87.1z"/>
	<path class="st0" d="M223,47.6c-0.4,0.4-0.8,0.6-1.1,0.9c-0.4,0.4-0.4,0.6,0,1c0.4,0.4,0.8,0.7,1.2,1.1c-0.3,0.3-0.6,0.5-0.8,0.8
		c-0.5,0.5-0.6,0.7-0.1,1.3c0.1,0.2,0.3,0.3,0.4,0.5c0.1,0.2,0.2,0.3,0.4,0.5c-0.5,0.4-1,0.8-1.5,1.3c-0.6,0.5-0.5,0.7,0,1.2
		c0.3,0.3,0.5,0.5,0.7,0.8c-0.4,0.8-1.4,0.8-1.5,1.8c0.3,0.3,0.7,0.7,1.1,1c0.3,0.3,0.3,0.6,0,1c-0.2,0.2-0.3,0.3-0.5,0.5
		c-0.6,0.5-0.6,0.7,0,1.2c0.3,0.2,0.5,0.5,0.8,0.7c-0.3,0.4-0.5,0.8-0.7,1.1c-0.3,0.4-0.3,0.8,0.2,1.1c0.2,0.1,0.4,0.2,0.6,0.3
		c-0.1,0.1-0.1,0.2-0.2,0.3c-3.9-0.1-7.7-0.1-11.7-0.2c0-0.6,0-1.1,0-1.7c0-1.1,0-2.2,0-3.2c0-1.7-0.1-3.4-0.1-5.1c0-1,0-2,0-3.1
		c0.2-2.5,0.4-5.1,0.6-7.6c0.1-1.1,0.2-2.2,0.2-3.4c0-2,0.4-3.9,0.7-5.8c0.1-0.5,0.1-0.9-0.6-1.1c-0.1,0.4-0.3,0.8-0.4,1.2
		c-0.2,1.7-0.5,3.5-0.7,5.3c-0.3,3.4-0.6,6.8-0.8,10.2c-0.1,1.9-0.1,3.9-0.1,5.8c0,2.8,0,5.5,0,8.3c0,0.1,0,0.1,0,0.2
		c-0.6,0.4-1.3,0.3-1.9,0.4c-0.7,0.1-1.3,0.2-2.1,0.3c0-0.4,0-0.7,0-1c0.8-4.8,0.8-9.7,0.8-14.5c0-2.7,0.2-5.4,0.7-8.1
		c0.4-2.3,0.7-4.6,1.1-6.8c0-0.2,0.1-0.4,0.1-0.6c0.2-0.9,0.2-0.9,1.2-1.1c0.9-0.1,1.9-0.4,2.8-0.5c1.5-0.2,3.1-0.4,4.6-0.5
		c1.4-0.1,2.7-0.3,4.1-0.3c1.1-0.1,2.2,0,3.2,0c0,0.1,0.1,0.2,0.1,0.2c-0.2,0.2-0.4,0.4-0.6,0.6c-0.9,0.8-0.8,1.1,0.3,1.6
		c0.1,0,0.1,0.1,0.2,0.2c-0.3,0.3-0.6,0.5-0.8,0.8c-0.7,0.6-0.7,0.8-0.1,1.5c0.2,0.2,0.4,0.5,0.8,0.9c-0.4,0.3-0.8,0.6-1.1,1
		c-0.4,0.4-0.4,0.6,0.1,1c0.3,0.2,0.5,0.5,0.9,0.8c-0.5,0.3-0.8,0.5-1.2,0.8c-0.7,0.5-0.7,0.8-0.1,1.3c0.3,0.2,0.5,0.5,0.8,0.7
		c0,0,0,0.1,0.1,0.3c-0.3,0.2-0.6,0.5-0.9,0.8c-0.6,0.5-0.6,0.7-0.1,1.2C222.6,47.1,222.8,47.4,223,47.6z M212.8,65.3
		c0.4-0.2,0.5-0.5,0.5-0.9c0.2-1.8,0.3-3.5,0.2-5.3c-0.1-4.4-0.1-8.9,0-13.4c0-1.7,0.2-3.5,0.3-5.2c0.1-1.6,0.3-3.2,0.4-4.8
		c0-0.3,0.1-0.7-0.3-0.8c-0.5-0.1-0.5,0.4-0.5,0.7c0,0.1,0,0.2,0,0.3c-0.1,1-0.2,2-0.3,3c-0.2,2-0.4,4.1-0.4,6.1
		c-0.1,3.3,0,6.6,0,9.9c0,3.1-0.2,6.1-0.2,9.2C212.4,64.7,212.3,65.1,212.8,65.3z M216.1,36.2c0.1,0,0.2,0,0.2-0.1
		c-0.1-0.2-0.2-0.5-0.4-0.6c-0.4-0.1-0.4,0.2-0.5,0.5c-0.1,0.3-0.1,0.6-0.2,0.9c-0.1,1.2-0.2,2.4-0.2,3.7c-0.1,4.3-0.1,8.5-0.2,12.8
		c-0.1,3.7,0.2,7.4-0.4,11c0,0.3,0,0.6,0.1,0.8c0.1,0.1,0.3,0.3,0.4,0.3c0.1,0,0.3-0.2,0.4-0.3c0.1-0.1,0.1-0.3,0.1-0.4
		c0.1-1.3,0.2-2.5,0.2-3.8c0.1-4.5,0.1-8.9,0.1-13.4c0-0.6,0-1.3,0-1.9C215.9,42.6,216,39.4,216.1,36.2z M217.4,64.7
		c0.7-0.1,0.7-0.6,0.8-1c0.1-0.9,0.2-1.9,0.2-2.8c0.1-3.1,0.2-6.1,0.2-9.2c0-2.4-0.1-4.8-0.1-7.2c0-2.8,0.2-5.6,0.3-8.4
		c0-0.2,0.1-0.4,0-0.6c0-0.2-0.2-0.3-0.3-0.4c-0.1,0-0.3,0.1-0.4,0.3c-0.1,0.2-0.2,0.5-0.2,0.8c-0.1,3-0.2,6-0.2,9
		c0,5.3,0,10.7-0.3,16C217.3,62.2,217.2,63.4,217.4,64.7z M207.2,66.2c0.1,0,0.2,0,0.3,0c0.1-0.1,0.2-0.3,0.3-0.4
		c0.1-0.7,0.2-1.5,0.2-2.2c0-2.4,0-4.8,0-7.2c0-0.6,0-1.2,0.1-1.7c0.2-2.4,0.4-4.7,0.5-7.1c0.1-2.5,0.4-4.9,0.8-7.4
		c0.1-0.9,0.3-1.7,0.4-2.6c0.1-0.3,0.1-0.8-0.5-0.9c-0.1,0.4-0.3,0.8-0.3,1.1c-0.2,0.9-0.3,1.8-0.4,2.7c-0.2,1.9-0.5,3.8-0.7,5.7
		c-0.1,1.4-0.2,2.8-0.3,4.2c-0.2,2.1-0.4,4.1-0.4,6.2c-0.1,2.8-0.1,5.6-0.1,8.4C207,65.3,207.1,65.7,207.2,66.2z"/>
	<path class="st0" d="M199.5,59.5c0.6,1.2,1.1,2.1,1.5,3.1c0.8,1.6,1.6,3.2,2.4,4.7c0.4,0.8-0.1,2.1-0.9,2.3c-1.5,0.3-2.7,1-3.9,1.9
		c-0.9,0.6-1.9,1.1-2.9,1.4c-0.5,0.1-0.9,0.5-1.3,0.7c-0.3,0.2-0.6,0.4-1,0.5c-0.8,0.3-1.6,0.7-2.5,0.9c-2,0.6-3.5,2.1-5,3.5
		c-1.7,1.6-3.3,3.1-5,4.6c-1.4,1.3-2.9,2.5-4.3,3.7c-0.1,0.1-0.2,0.1-0.4,0.1c1.7-2.1,3.4-4.1,5.1-6.2c1.4-1.7,3-3.2,4.7-4.6
		c1.1-0.9,2-2,3.1-3c1.4-1.3,2.9-2.5,4.9-2.8c0.3-0.1,0.6-0.2,0.9-0.3c0.5-0.1,0.8-0.5,0.9-0.9c1-2.7,2.1-5.4,3.2-8.1
		C199,60.5,199.2,60.2,199.5,59.5z"/>
	<path class="st0" d="M93.2,85.4c0.2-1.1,0.5-2.1,0.6-3.2c0.4-2.3,0.8-4.5,1.2-6.8c0.2-1.2,0.6-2.1,1.6-2.8c0.6-0.5,1.2-1,1.9-1.5
		c-0.7,1.2-1,2.6-1.3,3.9c-0.1,0.6-0.4,1.1-0.1,1.8c0.1,0.2-0.1,0.7-0.2,1c-0.8,1.9-1.7,3.7-2.5,5.6c-0.3,0.7-0.7,1.4-1,2.1
		C93.3,85.4,93.2,85.4,93.2,85.4z"/>
	<path class="st0" d="M98,77c0.2-0.5,0.7-1,0.1-1.6c-0.1-0.1-0.1-0.3,0-0.4c0.4-1.1,0.7-2.1,1.1-3.2c0.1-0.4,0.4-0.7,0.5-1.1
		c0.3-0.7,0.6-0.9,1.2-0.6c1.1,0.4,2.2,0.9,3.1,1.8c0.5,0.5,0.4,0.6,0,1.1c-0.5,0.6-1.1,0.8-1.8,0.7c-0.4,0-0.7-0.1-1.1,0
		c-0.2,0-0.4,0.1-0.5,0.3c0,0.2,0,0.5,0.1,0.6c0.1,0.2,0.4,0.3,0.5,0.5c0.4,0.4,0.8,0.8,1.2,1.1c-0.1,0.6-0.4,1.1-1.1,1.4
		c0.2-0.8,0.3-1.5-0.4-1.9c-0.5-0.3-1.2-0.4-1.7-0.6c-0.6,0.5-0.8,1.1-0.6,1.8C98.6,76.9,98.3,77,98,77C98,77,98,77,98,77z
		 M101.1,71c-0.6,0-1.3,1.1-1,1.6c0.1,0.1,0.2,0.3,0.3,0.3c0.6,0.2,1.2,0.4,1.9,0.5c0.5,0.1,0.8-0.2,0.8-0.7
		C103.1,72,101.9,71,101.1,71z"/>
	<path class="st0" d="M96.5,67.7c0.8,0.3,0.7,0.8,0.7,1.5c-0.3,0-0.6,0.1-0.7,0c-0.8-0.5-1.4-0.1-2.1,0.4c-0.1,0.1-0.2,0.1-0.4,0.2
		c-0.1-0.2-0.2-0.4-0.4-0.8C94.6,68.6,95.5,68.2,96.5,67.7z"/>
	<path class="st0" d="M110.1,78.2c0.5,0.8,0.5,0.9-0.2,1.4C109.6,79.1,110,78.7,110.1,78.2z"/>
	<path class="st0" d="M91.5,63.5c0.4,0.1,0.7,0.1,1.1,0.2c0.1,0.2,0.2,0.5,0.3,0.7c-0.2,0-0.3,0.1-0.3,0
		C92.2,64.1,91.9,63.8,91.5,63.5z"/>
	<path class="st0" d="M91.2,65.5c0.1-0.1,0.2-0.3,0.3-0.4c0,0,0.1,0.1,0.1,0.1c-0.1,0.1-0.2,0.3-0.3,0.4
		C91.3,65.5,91.3,65.5,91.2,65.5z"/>
	<path class="st0" d="M100.5,76.5c-0.1-0.1-0.3-0.1-0.4-0.2c0,0,0-0.1,0-0.1c0.1,0,0.3,0,0.4,0C100.5,76.4,100.5,76.4,100.5,76.5z"
		/>
	<path class="st0" d="M231.5,91.1c-1.5-0.2-2.9-0.4-4.3-0.6c-0.3-0.6-0.5-1.1-0.7-1.6c0.2-0.1,0.3-0.3,0.5-0.4
		c0.5-0.3,0.9-0.5,1.5-0.1c0.7,0.5,1.6,0.8,2.4,1.3c0.4,0.2,0.6,0.7,0.9,1C231.7,90.9,231.6,91,231.5,91.1z"/>
	<path class="st0" d="M61.1,104.3c0.3-0.4,0.4-0.7,0.6-0.7c0.7-0.4,1.6-0.5,2.4-0.2c0.6,0.2,1.2,0.5,1.2,1.4c0,0.5,0.2,1,0.4,1.5
		c-0.6,0-1.1,0-1.6,0c-0.7,0-0.9-0.1-1.1-0.9C62.7,104.6,62.1,104.3,61.1,104.3z"/>
	<path class="st0" d="M59.3,95.7c0.1-0.3,0.1-0.7,0.3-1.1c0.2-0.5,0.5-0.6,1.1-0.4c0.3,0.1,0.6,0.1,0.9,0.1c0.7-0.1,1.2,0.2,1.5,0.8
		c0.2,0.3,0.4,0.5,0.6,0.7c-0.3,0.8-1,1.1-1.8,1.2c-0.2,0-0.5-0.1-0.7-0.2C60.6,96.4,60,96.1,59.3,95.7z"/>
	<path class="st0" d="M116.4,119.3c-0.8,1.1-0.8,1.1-2,0.6c-0.5-0.2-1.1-0.4-1.7-0.5c-0.4-0.1-0.7-0.3-0.7-0.7c0-0.4-0.3-1,0.4-1.2
		c0.3-0.1,0.7-0.2,1-0.2C114.5,117.5,115.6,118.2,116.4,119.3z"/>
	<path class="st0" d="M239.1,80.2c0.6-0.1,1-0.3,1.5-0.4c0.6-0.1,1.1,0,1.3,0.6c0.1,0.2,0.3,0.4,0.5,0.6c0.3,0.3,0.3,0.6,0.2,0.9
		c-0.2,0.4-0.6,0.5-0.9,0.4c-0.5-0.2-1-0.5-1.5-0.8C239.9,81.1,239.6,80.7,239.1,80.2z"/>
	<path class="st0" d="M205.3,127.1c-0.8,1.5-0.7,1.8-2.3,1c-0.2-0.1-0.5-0.1-0.7-0.2c-0.3-0.1-0.8-0.2-1-0.4
		c-0.2-0.4-0.3-0.9-0.3-1.4c0-0.4,0.4-0.7,0.9-0.6c0.5,0.1,1,0.1,1.5,0.2c0.2,0,0.4,0.1,0.5,0.3
		C204.4,126.3,204.9,126.7,205.3,127.1z"/>
	<path class="st0" d="M220,92.6c0.8-0.4,0.9-0.3,1.2,0.3c0.1,0.3,0.3,0.6,0.5,1C220.9,93.7,220.4,93.2,220,92.6z"/>
	<path class="st0" d="M71.1,100.6c0.3-0.2,0.5-0.6,1.2-0.3c-0.5,0.2-0.8,0.4-1.1,0.5C71.2,100.7,71.1,100.7,71.1,100.6z"/>
	<path class="st0" d="M123.6,123.2c0.4-0.1,0.6-0.1,1.1-0.2C124.3,123.5,124.1,123.6,123.6,123.2z"/>
	<path class="st0" d="M98.2,111.1c-0.2,0.6-0.4,0.6-0.7,0.5c-0.1,0-0.1-0.2-0.1-0.4C97.7,111.2,97.9,111.2,98.2,111.1z"/>
	<path class="st0" d="M124.4,112.4c0.2,0,0.3,0,0.4,0c0.2,0.1,0.3,0.2,0.5,0.4c-0.1,0.1-0.1,0.2-0.2,0.3
		C124.5,113.2,124.6,112.7,124.4,112.4z"/>
	<path class="st0" d="M225.7,97.7c-0.1-0.1-0.2-0.2-0.3-0.3c0.1-0.1,0.1-0.1,0.2-0.2c0.1,0.1,0.2,0.3,0.2,0.4
		C225.8,97.6,225.8,97.6,225.7,97.7z"/>
	<path class="st0" d="M233.7,94.7c-0.2-0.1-0.3-0.1-0.5-0.2c0,0,0-0.1,0-0.1c0.2,0,0.3,0.1,0.5,0.1
		C233.8,94.6,233.7,94.7,233.7,94.7z"/>
	<path d="M155.5,79c2.4,0.4,4.6,0.9,6.9,1.3c2.2,0.4,4.3,0.8,6.5,1.2c0.8,0.1,1.6,0.2,2.4,0.4c0.3,0,0.5,0.2,0.7,0.3
		c0.5,0.5,0.9,0.9,1.3,1.5c0.1,0.1,0,0.4,0,0.6c-0.2,0-0.5,0.1-0.6,0c-0.3-0.3-0.6-0.6-0.9-1c-0.3-0.4-0.7-0.6-1.2-0.6
		c-3.9-0.7-7.8-1.4-11.6-2.1c-1.1-0.2-2.3-0.4-3.4-0.6c-0.3-0.1-0.6-0.2-0.5-0.5C155.1,79.2,155.4,79.1,155.5,79z"/>
	<path d="M170,69c0.5-0.4,0.8-0.4,1,0.1c1.5,2.7,2.9,5.4,4.4,8.2c0.4,0.8,0.8,1.6,1.2,2.4c0.1,0.2,0.1,0.4,0.1,0.7
		c-0.6,0.1-0.8-0.3-1-0.6c-0.7-1.4-1.3-2.7-2.1-4.1C172.5,73.4,171.3,71.3,170,69z"/>
	<path d="M198.2,56.8c-0.6,0.6-0.8,0.2-1.1-0.1c-1.1-1.3-2.2-2.6-3.2-4c-0.7-0.9-1.5-1.9-2.2-2.8c-0.1-0.1-0.2-0.3-0.3-0.4
		c0-0.2,0-0.4,0.1-0.5c0.1-0.1,0.4-0.1,0.5,0c0.2,0.1,0.4,0.3,0.6,0.6c1.1,1.4,2.2,2.8,3.3,4.3c0.6,0.8,1.3,1.6,1.9,2.4
		C198,56.3,198.1,56.6,198.2,56.8z"/>
	<path d="M190.3,53.3c0.6-0.5,1-0.2,1.4,0.1c0.8,0.6,1.5,1.3,2.2,1.9c1.1,1,2.2,1.9,3.3,2.9c0.2,0.1,0.2,0.4,0.3,0.7
		c-0.2,0-0.5,0.1-0.7,0.1c-0.3-0.1-0.5-0.3-0.8-0.5c-1.8-1.6-3.5-3.1-5.3-4.7C190.6,53.6,190.5,53.5,190.3,53.3z"/>
	<path d="M171.8,88.5c-0.2-0.5-0.3-0.8-0.4-1.1c-0.5-1.2-0.6-1.2-1.9-1.2c-1.1,0-2.2-0.2-3.2-0.4c-0.1,0-0.2-0.3-0.4-0.4
		c0.2-0.1,0.3-0.4,0.5-0.4c0.4,0,0.9,0.1,1.3,0.1c0.8,0.1,1.7,0.2,2.5,0.2c1,0.1,1.2,0.2,1.5,1.1c0.1,0.4,0.2,0.9,0.3,1.4
		C172.1,88,171.9,88.1,171.8,88.5z"/>
	<path d="M45.4,15c0.5,0.6,0.2,0.8-0.1,1c-0.7,0.8-1.4,1.7-2.1,2.5c-2.7,3.1-5.4,6.2-8,9.4c-2.2,2.6-4.4,5.3-6.5,8
		c-1.7,2.2-3.4,4.4-5.2,6.6c-1.8,2.2-3.7,4.4-5.5,6.6c-1.8,2.2-3.6,4.5-5.4,6.8c-0.8,1.1-1.7,2.2-2.5,3.2c-0.1,0.1-0.4,0.3-0.6,0.2
		c-0.3-0.2-0.2-0.5,0-0.7c0.5-0.6,1-1.2,1.4-1.9c1.7-2.2,3.4-4.4,5.2-6.6c1.3-1.7,2.7-3.3,4.1-5c1.4-1.7,2.7-3.3,4-5
		c2.7-3.4,5.5-6.8,8.2-10.3c1.4-1.7,2.7-3.4,4.1-5.1c1.9-2.3,3.8-4.5,5.8-6.7c0.7-0.8,1.3-1.6,2-2.4C44.7,15.5,45,15.3,45.4,15z"/>
	<path d="M42,12.4c0.6,0.2,0.5,0.6,0.2,0.9c-0.5,0.8-1,1.5-1.6,2.3c-2.2,3.1-4.8,5.9-7.3,8.8c-2.1,2.5-4.1,5-6.2,7.5
		c-2.2,2.7-4.5,5.4-6.7,8.1c-1.4,1.7-2.9,3.4-4.3,5.2c-2.3,2.9-4.5,5.9-6.7,8.8c-0.7,0.9-1.4,1.8-2.1,2.8C7.3,56.8,7.2,56.9,7,57
		c-0.1,0.1-0.4,0.1-0.4,0c-0.1-0.1-0.2-0.3-0.1-0.4c0-0.2,0.2-0.3,0.3-0.4c1.3-1.7,2.7-3.3,4-5c2.7-3.5,5.3-7,8.2-10.4
		c2.3-2.7,4.5-5.4,6.8-8.2c3-3.6,6-7.2,9-10.8c0.8-1,1.8-1.9,2.6-3c1.6-2,3-4.1,4.6-6.1C41.8,12.5,41.9,12.5,42,12.4z"/>
	<path d="M8.5,58.6C8,58.5,7.9,58.2,8,57.9c0.1-0.2,0.2-0.4,0.4-0.6c1.7-2.3,3.3-4.6,5-6.8c2-2.7,4-5.3,6.1-7.9
		c1.3-1.6,2.7-3.1,4.1-4.7c1.7-2.1,3.4-4.3,5.1-6.4c1.1-1.4,2.3-2.7,3.4-4.1c1.6-1.9,3.1-3.9,4.7-5.7c2.1-2.5,4.3-5,6.5-7.5
		c0.2-0.3,0.5-0.5,1-0.1c-0.2,0.3-0.3,0.6-0.6,0.9c-2.5,2.9-5.1,5.8-7.6,8.7c-2,2.3-3.9,4.6-5.8,7c-3.2,3.9-6.3,7.9-9.6,11.8
		c-2.2,2.5-4.2,5.3-6.2,7.9c-2,2.6-3.8,5.3-5.7,8C8.6,58.4,8.6,58.5,8.5,58.6z"/>
	<path d="M40.2,12.6c-0.2,0.3-0.3,0.4-0.4,0.5c-1.5,1.9-2.9,3.9-4.5,5.8c-2.2,2.7-4.3,5.4-6.5,8.1c-1.1,1.4-2.3,2.8-3.4,4.2
		c-0.7,0.8-1.4,1.6-2.1,2.5c-2.4,2.9-4.8,5.8-7.1,8.7c-3,3.9-6,7.8-9,11.7c-0.4,0.5-0.7,1-1.1,1.5c-0.2,0.2-0.4,0.4-0.7,0.1
		c-0.1-0.1,0-0.5,0.1-0.6c1.9-2.5,3.9-5.1,5.8-7.6c1.1-1.5,2.2-2.9,3.3-4.4c1.7-2.2,3.5-4.4,5.3-6.6c2.3-2.8,4.6-5.6,7-8.4
		c1.6-1.9,3.2-3.7,4.7-5.7c1.7-2.2,3.4-4.5,5.1-6.7c0.7-0.9,1.4-1.9,2.1-2.8c0.2-0.3,0.5-0.5,0.7-0.7C39.7,12.3,39.9,12.5,40.2,12.6
		z"/>
	<path d="M39.3,57.2c-0.2,0.3-0.3,0.6-0.4,1c-0.2,0.4-0.3,0.8-0.5,1.2c-0.1,0.2-0.4,0.4-0.5,0.4c-0.2-0.1-0.4-0.3-0.5-0.5
		c-0.1-0.3-0.2-0.6-0.3-1.2c-0.2,0.3-0.3,0.5-0.5,0.7c-0.2,0.3-0.3,0.5-0.5,0.7c-0.1,0.1-0.4,0.1-0.4,0.1c-0.1-0.1-0.2-0.3-0.2-0.5
		c0-0.1,0.1-0.2,0.1-0.3c0.4-0.8,0.8-1.7,1.2-2.5c0.1-0.2,0.3-0.5,0.5-0.5c0.4-0.1,0.5,0.2,0.6,0.6c0,0.3,0.1,0.6,0.2,1.1
		c0.2-0.5,0.3-0.8,0.4-1.1c0.1-0.2,0.4-0.5,0.4-0.4c0.5,0.1,0.9,0,1.3,0.1c0.6,0.1,1.3,0.4,1.9,0.7c0.1,0,0.1,0.1,0.2,0.2
		c-0.4,0.9-1.3,0-1.8,0.5c0.3,0.6,1,0.2,1.4,0.6c-0.4,0.7-1.1,0.4-1.7,0.6c0.6,0.4,1.6-0.2,1.6,0.9c-0.8,0.3-1.6,0.3-2.4,0.1
		c-0.5-0.1-0.6-0.5-0.5-1c0.2-0.5,0.3-1,0.5-1.5C39.5,57.2,39.4,57.2,39.3,57.2z"/>
	<path d="M33.4,45.1c-0.1,0.1-0.2,0.3-0.3,0.4c-2,1.5-3.4,3.5-4.7,5.6c-0.5,0.8-1.2,1.3-2.2,1.4c-0.7,0.1-1.1,0.4-1.4,1
		c-0.5,1-1,2-1.5,3c-0.1,0.2-0.3,0.5-0.5,0.6c-0.2,0.1-0.4,0.1-0.6,0.1c0-0.2-0.1-0.5-0.1-0.6c0.4-0.9,0.9-1.7,1.3-2.5
		c0.3-0.5,0.5-1,0.7-1.5c0.3-0.6,0.7-1,1.4-1c1.1-0.1,1.7-0.8,2.4-1.6c1.2-1.5,2.4-3,3.6-4.4c0.3-0.4,0.7-0.7,1.1-0.9
		C33,44.4,33.5,44.7,33.4,45.1z"/>
	<path d="M42.8,6.4c0.5,0.4,0.8,0.6,1.1,0.9c1,0.9,1.9,2,3.3,2.6c0.4,0.2,0.6,0.6,0.3,0.9c-0.5,0.7-1.1,1.3-1.7,2
		c-0.3,0.3-0.6,0.3-1,0.1c-1.3-0.6-2.6-1.2-3.8-1.8c-0.8-0.4-1-0.9-0.5-1.5C41.2,8.5,41.9,7.5,42.8,6.4z M41.2,10.2
		c1.6,0.6,2.9,1.6,4.5,1.7c0.3-0.4,0.5-0.8,0.8-1.2c-1.2-1-2.2-2-3.4-3C42.3,8.5,41.7,9.2,41.2,10.2z"/>
	<path d="M60,31.8C59.9,31,60.5,31,60.9,31c1.5,0.2,3,0.3,4.4,0.9c0.8,0.3,1.6,0.5,2.4,0.8c1.5,0.5,3.1,0.9,4.6,1.3
		c0.3,0.1,0.5,0.2,0.5,0.5c0,0.4-0.4,0.5-0.7,0.4c-0.7-0.2-1.4-0.4-2.2-0.6C68,33.7,66,33,64,32.5c-1.1-0.3-2.3-0.4-3.4-0.5
		C60.5,31.9,60.3,31.9,60,31.8z"/>
	<path d="M74.2,32.3c0,0.5-0.3,0.7-0.6,0.6c-1.1-0.3-2.2-0.6-3.3-1c-2.4-0.9-4.7-1.8-7-2.7c-0.3-0.1-0.9-0.2-0.8-0.7
		c0.2-0.6,0.7-0.2,1-0.1c2.5,0.9,5.1,1.9,7.6,2.8c0.8,0.3,1.6,0.4,2.5,0.6C73.9,31.9,74.1,32.2,74.2,32.3z"/>
	<path d="M49.4,62.8c-0.2,0-0.3,0.1-0.4,0.1c-0.7,0.1-0.8-0.1-0.8-0.7c0-0.9,0.1-1.8,0.2-2.7c0-0.2,0.2-0.3,0.3-0.4
		c0.1,0.2,0.3,0.3,0.4,0.5c0,0.6,0,1.1,0,1.7c0.5,0.2,0.9,0.4,1.5,0.7c0.2-0.3,0.3-0.8,0.6-1.2c0.2-0.3,0.4-0.4,0.8-0.3
		c0.3,0.2,0.3,0.4,0.2,0.7c-0.4,0.7-0.7,1.5-1.1,2.2c-0.2,0.3-0.5,0.5-0.8,0.5c-0.2,0-0.4-0.5-0.6-0.7C49.5,63.1,49.5,63,49.4,62.8z
		"/>
	<path d="M64.8,26.2c0.1-0.5,0.4-0.6,0.8-0.5c0.7,0.2,1.3,0.3,2,0.6c2,0.8,4.1,1.5,6.1,2.3c0.4,0.2,0.7,0.4,0.4,1
		C70.9,28.5,67.9,27.4,64.8,26.2z"/>
	<path d="M25.3,56.4c0.6-0.9,1.3-1.6,2.1-2.2c0.6-0.6,1.3-0.9,2.2-0.8c0.6,0,1.2-0.2,1.8-0.3c0.2,0,0.5-0.1,0.7-0.1
		c0.2,0,0.4,0.1,0.5,0.3c0,0.1-0.1,0.4-0.2,0.4c-0.5,0.3-1,0.5-1.5,0.7c-0.1,0.1-0.3,0-0.5,0c-1.6-0.1-2.7,0.6-3.7,1.8
		c-0.2,0.3-0.6,0.4-0.9,0.6C25.6,56.7,25.5,56.6,25.3,56.4z"/>
	<path d="M20.1,59.6c-0.1,0-0.3,0-0.5-0.1c-0.1-0.1-0.3-0.2-0.3-0.3c0-0.2,0.1-0.4,0.3-0.5c0.6-0.2,1.2-0.5,1.8-0.4
		c0.5,0,0.9,0.5,1.4,0.7c0.8,0.5,1.5,1,2.3,1.5c0.3,0.2,0.7,0.3,0.4,0.8c-0.2,0.4-0.6,0.3-0.9,0.1c-0.6-0.3-1.1-0.7-1.7-1.1
		c-0.1-0.1-0.2-0.2-0.3-0.3c-0.6-0.6-1.3-1-2.2-0.5C20.3,59.6,20.2,59.6,20.1,59.6z"/>
	<path d="M53.5,61.8c-0.3-0.2-0.5-0.2-0.7-0.4c-0.1-0.1-0.2-0.4-0.1-0.5c0-0.1,0.3-0.3,0.4-0.2c1,0.1,1.8,0.5,2.8,1.2
		c-0.3,0.2-0.5,0.3-0.6,0.3c-0.8-0.1-1.1,0.4-1.2,1.1c0,0.3-0.1,0.6-0.2,0.9c-0.1,0.3-0.2,0.5-0.6,0.5c-0.4-0.1-0.5-0.3-0.4-0.7
		c0.1-0.3,0.2-0.7,0.3-1C53.3,62.5,53.4,62.2,53.5,61.8z"/>
	<path d="M45.6,58.5c-0.5,0.2-0.9,0.3-1.4,0.5c-0.1,0.4-0.2,0.9-0.2,1.4c-0.1,0.3-0.1,0.6-0.6,0.5c-0.4-0.1-0.5-0.4-0.4-0.8
		c0.1-0.5,0.2-0.9,0.3-1.4c-0.4-0.2-0.7-0.4-1-0.6C43,57.3,44,57.4,45.6,58.5z"/>
	<path d="M59.3,64.6C59,64.8,58.8,65,58.6,65c-0.2,0-0.5,0-0.5-0.1c-0.1-0.2-0.1-0.5,0-0.6c0.5-0.4,1.1-0.8,1.7-1
		c0.4-0.2,0.8,0.2,0.7,0.7c-0.1,0.6-0.3,1.2-0.5,1.8c0,0.1-0.3,0.3-0.5,0.3c-0.1,0-0.3-0.3-0.3-0.4C59.2,65.4,59.3,65.1,59.3,64.6z"
		/>
	<path d="M28.9,57.3c0.8-0.7,1.7-0.8,2.5-0.9c0.1,0,0.4,0.2,0.4,0.4c0,0.1-0.1,0.5-0.2,0.5c-0.8,0.2-1.6,0.3-2.4,0.4
		C29.2,57.7,29.1,57.5,28.9,57.3z"/>
	<path d="M61.3,66.2c-0.2,0.1-0.4,0.3-0.5,0.2c-0.2-0.1-0.3-0.2-0.4-0.4c0.1-0.1,0.3-0.3,0.4-0.3C61,65.9,61.1,66.1,61.3,66.2z"/>
	<path d="M102.1,44.9c0.4-0.7,0.7-1.2,1.1-1.8c-1-0.4-1.9-0.7-2.9-0.4c-0.7,0.2-1.1-0.3-0.9-1c0.3-0.9,0.7-1.7,1-2.5
		c0.5-1.1,0.9-2.1,1.5-3.1c0.9-1.6,1.4-3.3,2-5c0.1-0.2,0.4-0.5,0.6-0.6c0.8-0.4,1.7-0.9,2.4,0.1c0.1,0.1,0.2,0.1,0.4,0.1
		c0-0.4,0.1-0.7,0-1.1c-0.1-0.6-0.1-1.3-0.2-1.9c-0.1-0.5,0-0.9,0.5-1.1c1-0.5,2-1.1,2.9-1.6c0.4-0.2,0.7-0.4,1.1-0.5
		c0.2-0.1,0.5,0,0.6,0.1c0.2,0.3,0,0.5-0.3,0.6c-0.6,0.3-1.3,0.6-1.9,0.9c-0.5,0.2-0.9,0.5-1.4,0.7c-0.5,0.2-0.7,0.6-0.6,1.1
		c0.1,1.3,0.2,2.6,0.3,3.9c0.1,0.7,0.1,1.4,0.2,2c0.5,0.1,1,0.2,1.4,0.3c1.4,0.6,2.9,1,4.4,1.3c1.1,0.2,2.2,0.5,3.4,0.4
		c0.9,0,0.9,0,1,0.9c0.1,0.7,0.4,1.2,1,1.5c0.8,0.4,1.5,0.8,2.4,1.2c0.3-0.3,0.7-0.6,1.1-0.9c0.6-0.6,1.2-0.8,1.9-0.2
		c0.6,0.5,1.3,0.4,2,0.1c1.8-0.6,3.5-1.3,5.3-2.2c1.5-0.8,3.2-1.3,4.8-1.9c0.3-0.1,0.7-0.3,1,0.2c0.2,0.3-0.2,0.5-0.8,0.7
		c-1.4,0.5-2.8,1-4.1,1.5c-1.4,0.6-2.7,1.3-4.1,1.9c-0.9,0.4-1.9,0.7-2.9,1c-0.5,0.2-0.8,0-1.2-0.2c-0.8-0.5-0.9-0.4-1.6,0.2
		c-0.1,0-0.1,0.1-0.1,0.1c-1.1,0.7-1.8,1.7-2.2,3c-0.6,1.8-1.7,3.4-2.6,5.1c-0.5,0.8-1.8,1.3-2.9,0.9c-0.7-0.2-1.5-0.5-2.2-0.8
		c0,0-0.1,0-0.1,0c-1.8-0.3-3.4-1.1-5.2-1.2c-1.7-0.2-3.4-0.5-5-1C102.9,45.2,102.6,45.1,102.1,44.9z M103.3,44.5
		c0.8,0.2,1.4,0.5,2.1,0.6c2,0.4,4,0.4,5.9,1.1c0.5,0.2,1.1,0.2,1.7,0.3c0.9,0.2,1.8,0.5,2.6,0.8c1.5,0.5,2,0.3,2.8-1.1
		c0.7-1.3,1.4-2.7,2.1-4.1c0.1-0.1,0.1-0.3,0.2-0.7c-0.4,0.3-0.6,0.4-0.8,0.6c-1,0.8-2,1.5-3,2.3c-0.5,0.4-0.6,0.3-1-0.3
		c1.6-1.5,3.7-2.4,5.3-4.2c-0.9-0.6-1.7-1.1-2.6-1.3c-0.8-0.2-0.8-0.3-0.6-1c0.1-0.7,0-0.9-0.8-0.9c-0.7-0.1-1.4-0.1-2-0.2
		c-0.8-0.1-1.5-0.3-2.3-0.5c-0.8-0.2-1.6-0.4-2.4-0.6c0,0.8-0.2,1.6,0.2,2.3c0.4,0,0.7,0,1,0.1c0.2,0.1,0.3,0.3,0.5,0.4
		c-0.2,0.1-0.3,0.3-0.5,0.3c-0.7,0.1-1.5,0.1-2.2,0.2c-0.7,0.1-1.4,0.2-2,0.5C106,39.8,105,41,104,42c0.6,0.7,0.5,0.7,0,1.4
		C103.8,43.7,103.6,44,103.3,44.5z M102.9,41.9c0.1-0.2,0.2-0.3,0.3-0.4c0.7-0.7,1.4-1.3,2.1-1.9c0.3-0.3,0.4-0.6,0.5-1.1
		c0-0.5,0.2-1.1,0.4-1.5c0.3-0.6,0.9-1,1.6-1c0.2,0,0.3,0.2,0.5,0.3c-0.1,0.2-0.2,0.4-0.3,0.5c-0.1,0.1-0.4,0.2-0.5,0.3
		c-0.5,0.3-0.7,0.7-0.7,1.4c0.7-0.1,1.4-0.3,2-0.4c0.6-0.1,0.7-0.4,0.7-0.9c0.1-1.1-0.2-2-1.4-2.3c-0.1,0-0.2-0.1-0.3-0.2
		c-0.1-1-0.2-2-0.2-2.9c-0.6-0.2-1.1-0.4-1.6-0.6c-0.7-0.3-1.1-0.2-1.4,0.5c-0.1,0.2-0.2,0.4-0.2,0.6c-0.8,2.5-1.9,4.8-3.1,7.2
		c-0.2,0.4-0.4,0.8-0.5,1.2c-0.3,0.7-0.1,0.9,0.6,1.1C101.8,41.7,102.3,41.8,102.9,41.9z"/>
	<path d="M85.7,57.8c-0.3-0.1-0.8-0.2-1.3-0.5c-1-0.5-1.9-1.1-2.9-1.7c-0.7-0.5-1.3-0.4-2,0.2c-1,0.9-2.1,1.6-3.1,2.3
		c-0.4,0.3-0.8,0.4-1.3,0c-0.4-0.3-0.9-0.4-1.4-0.6c-0.2-0.1-0.4-0.2-0.5-0.3c-0.3-0.3-0.2-0.8,0.2-0.8c0.7,0,1-0.4,1.5-0.8
		c1.8-1.5,3.5-3.1,5.2-4.8c0.6-0.6,1.3-1.1,2.1-1.6c0.3-0.2,0.7-0.2,1-0.1c0.6,0.2,1.3,0.4,1.8,0.8c1.4,1,2.8,2,4,3.1
		c1.5,1.3,1,2.7-0.3,3.8C88.1,57.5,87,57.7,85.7,57.8z M74.9,56.8c0.5,0.4,0.9,0.5,1.3,0.2c1.1-0.8,2.2-1.5,3.2-2.3
		c0.7-0.6,1.1-0.7,1.9-0.3c1.2,0.7,2.3,1.4,3.5,2.1c1.3,0.8,3.1,0.3,3.9-0.9c0.5-0.6,0.5-1.3-0.1-1.9c-1.5-1.4-3-2.7-5-3.5
		c-0.5-0.2-0.9-0.2-1.3,0.2c-0.6,0.5-1.3,1.1-1.9,1.6c-1.2,1.1-2.4,2.2-3.7,3.3C76.1,55.8,75.5,56.3,74.9,56.8z"/>
	<path d="M99.9,36.6c-0.2-0.3-0.3-0.6-0.4-0.9c-0.1-0.3-0.3-0.6-0.2-0.8c0.2-0.4,0.6-0.8,1-1.1c0.3-0.2,0.8,0.2,0.6,0.5
		c-0.6,0.8-0.4,1.6,0.1,2.3c0.1,0.2,0,0.5-0.2,0.7c-0.5,0.7-1.1,1.3-1.6,2c-0.3,0.4-0.7,0.4-1.1,0.3c-0.8-0.1-1.5-0.3-2.3-0.5
		c-0.9-0.2-1.6-0.1-2.3,0.5c-1.9,1.6-3.9,3.2-5.5,5.1c-0.6,0.6-0.7,0.7-1.4,0.3c0.5-0.6,1-1.2,1.5-1.7c1.5-1.5,3.1-2.9,4.7-4.4
		c0.9-0.9,2-1.2,3.3-0.7c0.5,0.2,1,0.2,1.5,0.4c0.5,0.2,0.8,0,1.1-0.4C99,37.7,99.4,37.2,99.9,36.6z"/>
	<path d="M105.2,74.3c1.1-0.6,2.3-0.5,3,0.3c0.4,0.4,0.5,0.9,0.3,1.5c-0.2,0.6-0.4,1.1-0.1,1.8c0.2,0.4-0.1,0.8-0.4,1.1
		c-0.3,0.2-0.6,0.1-0.9,0c-0.7-0.2-1.4-0.2-2.1-0.2c-1-0.1-1.4-0.8-1-1.7c0.2-0.4,0.6-0.5,1-0.6c0.3-0.1,0.8,0.1,1-0.4
		c0.2-0.5-0.1-0.8-0.3-1.2C105.5,74.6,105.3,74.5,105.2,74.3z M107.3,77.4c-0.3,0-0.5-0.1-0.8-0.1c-0.5,0-1.1-0.3-1.7,0.4
		c1,0,1.8,0,2.6,0C107.4,77.6,107.3,77.5,107.3,77.4c0.1-0.5,0.3-1,0.5-1.5c0.1-0.4,0-0.7-0.4-0.8c-0.1,0.5-0.3,0.9-0.4,1.3
		C107.1,76.8,107.2,77.1,107.3,77.4z"/>
	<path d="M85,60c0,0.8-0.4,1.1-1.2,0.6c-0.1-0.1-0.2-0.2-0.3-0.2c-0.8-0.4-1.1-0.4-1.6,0.4c0,0,0,0.1-0.1,0.1
		c-0.2,0.3-0.3,0.9-0.8,0.8c-0.5-0.1-1-0.4-1.5-0.8c-0.1-0.1-0.2-0.6,0-0.8c0.7-0.9,1.5-1.8,2.3-2.7c0.4-0.4,0.7-0.4,1.1,0
		c0.3,0.3,0.6,0.5,0.9,0.7C84.6,58.6,84.9,59.2,85,60z M83.6,59.1c-0.4-0.2-0.8-0.4-1.2-0.6c-0.7,0.6-1.3,1.3-1.5,1.9
		C81.6,59.7,82.1,58.4,83.6,59.1z"/>
	<path d="M87.9,64.8c-0.9,0-1.7-0.3-2.4-0.8c-0.8-0.5-1-1.9-0.3-2.6c0.2-0.2,0.4-0.3,0.5-0.5c1-1,1.8-0.5,2.5,0
		c0.3,0.2,0.6,0.5,0.8,0.8c0.7,0.7,0.8,1.8,0.2,2.6C88.9,64.8,88.4,64.8,87.9,64.8z M87.7,63.8c0.8,0,1.2-0.6,0.9-1.2
		c-0.2-0.4-0.7-0.7-1.1-1c-0.3-0.3-0.7-0.3-1,0c-0.4,0.3-0.8,0.6-0.7,1.2c0.1,0.2,0.2,0.5,0.4,0.6C86.7,63.6,87.3,63.7,87.7,63.8z"
		/>
	<path d="M95.2,86.9c-0.1-0.3-0.2-0.5-0.2-0.6c0.1-0.3,0.4-0.5,0.6-0.7c1.4-1.1,2.9-2.1,4.3-3.2c1.4-1,2.8-2.1,4.2-3.1
		c0.3-0.2,0.6-0.6,1-0.1c0.3,0.5-0.2,0.7-0.5,0.8c-1.7,0.9-3,2.2-4.5,3.3c-1.3,1.1-2.7,2-4.1,3C95.8,86.6,95.6,86.7,95.2,86.9z"/>
	<path d="M99,87.1c-0.1-0.2-0.3-0.4-0.2-0.6c0-0.2,0.2-0.3,0.4-0.5c2-1.5,4.1-3.1,6.1-4.6c0.6-0.5,1-0.5,1.1-0.1
		c0.2,0.6-0.3,0.6-0.6,0.9c-1.3,0.9-2.7,1.9-4,2.8c-0.7,0.5-1.4,1.1-2.1,1.6C99.5,86.8,99.3,86.9,99,87.1z"/>
	<path d="M212.8,65.3c-0.5-0.2-0.4-0.7-0.4-1.1c0.1-3.1,0.2-6.1,0.2-9.2c0-3.3,0-6.6,0-9.9c0-2,0.3-4.1,0.4-6.1c0.1-1,0.2-2,0.3-3
		c0-0.1,0-0.2,0-0.3c0.1-0.3,0.1-0.8,0.5-0.7c0.4,0.1,0.3,0.5,0.3,0.8c-0.1,1.6-0.3,3.2-0.4,4.8c-0.1,1.7-0.3,3.5-0.3,5.2
		c0,4.5-0.1,8.9,0,13.4c0,1.8-0.1,3.5-0.2,5.3C213.3,64.8,213.3,65.2,212.8,65.3z"/>
	<path d="M216.1,36.2c-0.1,3.2-0.2,6.4-0.3,9.6c0,0.6,0,1.3,0,1.9c0,4.5-0.1,8.9-0.1,13.4c0,1.3-0.1,2.5-0.2,3.8
		c0,0.1,0,0.3-0.1,0.4c-0.1,0.1-0.3,0.3-0.4,0.3c-0.2,0-0.4-0.2-0.4-0.3c-0.1-0.2-0.1-0.5-0.1-0.8c0.5-3.7,0.3-7.3,0.4-11
		c0.1-4.3,0.1-8.5,0.2-12.8c0-1.2,0.1-2.4,0.2-3.7c0-0.3,0.1-0.6,0.2-0.9c0.1-0.3,0.1-0.6,0.5-0.5c0.2,0.1,0.3,0.4,0.4,0.6
		C216.3,36.2,216.2,36.2,216.1,36.2z"/>
	<path d="M217.4,64.7c-0.2-1.3-0.1-2.5,0-3.6c0.3-5.3,0.3-10.7,0.3-16c0-3,0.1-6,0.2-9c0-0.3,0.1-0.5,0.2-0.8
		c0.1-0.1,0.3-0.3,0.4-0.3c0.1,0.1,0.3,0.3,0.3,0.4c0,0.2,0,0.4,0,0.6c-0.1,2.8-0.3,5.6-0.3,8.4c0,2.4,0.1,4.8,0.1,7.2
		c0,3.1-0.1,6.1-0.2,9.2c0,1-0.1,1.9-0.2,2.8C218.1,64,218.1,64.5,217.4,64.7z"/>
	<path d="M207.2,66.2c-0.1-0.4-0.2-0.9-0.2-1.3c0-2.8,0-5.6,0.1-8.4c0.1-2.1,0.3-4.1,0.4-6.2c0.1-1.4,0.2-2.8,0.3-4.2
		c0.2-1.9,0.4-3.8,0.7-5.7c0.1-0.9,0.2-1.8,0.4-2.7c0.1-0.4,0.2-0.8,0.3-1.1c0.7,0.2,0.6,0.6,0.5,0.9c-0.1,0.9-0.3,1.7-0.4,2.6
		c-0.4,2.4-0.7,4.9-0.8,7.4c-0.1,2.4-0.3,4.7-0.5,7.1c0,0.6-0.1,1.2-0.1,1.7c0,2.4,0,4.8,0,7.2c0,0.7-0.1,1.5-0.2,2.2
		c0,0.1-0.2,0.3-0.3,0.4C207.4,66.2,207.3,66.2,207.2,66.2z"/>
	<path d="M101.1,71c0.8,0,1.9,1,1.9,1.8c0,0.5-0.3,0.8-0.8,0.7c-0.6-0.1-1.2-0.3-1.9-0.5c-0.1,0-0.3-0.2-0.3-0.3
		C99.8,72.1,100.5,71,101.1,71z M101.4,72c-0.1,0.1-0.1,0.2-0.2,0.2c0.2,0.1,0.4,0.2,0.6,0.3c0-0.1,0.1-0.1,0.1-0.2
		C101.8,72.2,101.6,72.1,101.4,72z"/>
	<path class="st0" d="M41.2,10.2c0.6-1,1.1-1.7,1.9-2.5c1.1,1,2.2,1.9,3.4,3c-0.2,0.4-0.5,0.8-0.8,1.2C44,11.8,42.8,10.8,41.2,10.2z
		"/>
	<path class="st0" d="M103.3,44.5c0.3-0.5,0.5-0.8,0.7-1.1c0.5-0.7,0.5-0.7,0-1.4c1-1,2-2.2,3.4-2.9c0.6-0.3,1.3-0.4,2-0.5
		c0.7-0.1,1.5-0.1,2.2-0.2c0.2,0,0.3-0.2,0.5-0.3c-0.2-0.1-0.3-0.4-0.5-0.4c-0.3-0.1-0.6-0.1-1-0.1c-0.4-0.7-0.3-1.5-0.2-2.3
		c0.8,0.2,1.6,0.4,2.4,0.6c0.8,0.2,1.5,0.4,2.3,0.5c0.7,0.1,1.3,0.2,2,0.2c0.8,0.1,0.9,0.2,0.8,0.9c-0.2,0.8-0.2,0.8,0.6,1
		c0.9,0.3,1.7,0.8,2.6,1.3c-1.6,1.7-3.7,2.7-5.3,4.2c0.4,0.6,0.4,0.7,1,0.3c1-0.7,2-1.5,3-2.3c0.2-0.2,0.4-0.3,0.8-0.6
		c-0.1,0.4-0.1,0.5-0.2,0.7c-0.7,1.4-1.4,2.7-2.1,4.1c-0.7,1.3-1.3,1.5-2.8,1.1c-0.9-0.3-1.7-0.6-2.6-0.8c-0.6-0.1-1.2-0.1-1.7-0.3
		c-1.9-0.8-3.9-0.7-5.9-1.1C104.7,44.9,104.1,44.7,103.3,44.5z M109.1,41.5c0.2,0,0.3,0,0.5,0c0.3,0,0.6,0,0.6-0.4
		c0-0.4-0.3-0.6-0.6-0.5c-0.7,0.2-1.2-0.1-1.7-0.6c-0.1-0.1-0.4,0-0.6,0c0,0.2,0,0.6,0.1,0.7C107.7,41.2,108.3,41.6,109.1,41.5z
		 M116.8,39.6c-0.3-0.5-0.4-0.6-0.8-0.4c-0.6,0.2-1.2,0.5-1.8,0.8c-0.1,0.1-0.3,0.4-0.2,0.5c0.1,0.2,0.3,0.3,0.5,0.3
		c0.1,0,0.2-0.1,0.4-0.1C115.5,40.3,116.1,40,116.8,39.6z M115.6,38.1c-0.4-0.2-0.6-0.3-0.7-0.3c-0.2,0-0.3,0.3-0.4,0.4
		c0.2,0.1,0.3,0.3,0.5,0.3C115.1,38.5,115.2,38.3,115.6,38.1z M116.1,41.8c-0.2-0.2-0.4-0.4-0.5-0.3c-0.1,0-0.3,0.2-0.4,0.3
		c0.1,0.1,0.2,0.3,0.3,0.3C115.7,42.1,115.9,42,116.1,41.8z"/>
	<path class="st0" d="M102.9,41.9c-0.6-0.1-1.1-0.2-1.7-0.3c-0.7-0.2-0.8-0.4-0.6-1.1c0.2-0.4,0.3-0.8,0.5-1.2
		c1.2-2.3,2.4-4.7,3.1-7.2c0.1-0.2,0.2-0.4,0.2-0.6c0.3-0.7,0.7-0.9,1.4-0.5c0.5,0.2,1,0.4,1.6,0.6c0.1,0.9,0.1,1.9,0.2,2.9
		c0.1,0.1,0.2,0.2,0.3,0.2c1.2,0.3,1.5,1.2,1.4,2.3c0,0.5-0.1,0.8-0.7,0.9c-0.6,0.1-1.3,0.2-2,0.4c0-0.7,0.3-1.1,0.7-1.4
		c0.2-0.1,0.4-0.1,0.5-0.3c0.1-0.1,0.2-0.3,0.3-0.5c-0.2-0.1-0.3-0.3-0.5-0.3c-0.7,0-1.3,0.4-1.6,1c-0.2,0.5-0.4,1-0.4,1.5
		c0,0.5-0.1,0.8-0.5,1.1c-0.7,0.6-1.4,1.3-2.1,1.9C103.1,41.6,103,41.8,102.9,41.9z"/>
	<path class="st0" d="M74.9,56.8c0.6-0.5,1.2-1,1.8-1.5c1.2-1.1,2.4-2.2,3.7-3.3c0.6-0.6,1.3-1.1,1.9-1.6c0.4-0.3,0.8-0.4,1.3-0.2
		c1.9,0.8,3.5,2.1,5,3.5c0.5,0.5,0.5,1.2,0.1,1.9c-0.8,1.2-2.6,1.7-3.9,0.9c-1.2-0.7-2.3-1.4-3.5-2.1c-0.8-0.5-1.2-0.3-1.9,0.3
		c-1,0.8-2.1,1.6-3.2,2.3C75.7,57.3,75.3,57.2,74.9,56.8z M86.8,54.5c-0.2-0.3-0.4-0.8-0.8-1.2c-0.4-0.4-1-0.7-1.5-1
		c-0.4-0.2-0.8-0.6-1.2-0.5c-0.4,0.1-0.7,0.6-1,0.9c-0.5,0.5-0.4,0.8,0.2,1c0.6,0.2,1.2,0.5,1.7,0.8c0.6,0.3,1.1,0.6,1.7,0.9
		C86.4,55.6,86.8,55.3,86.8,54.5z"/>
	<path class="st0" d="M107.2,77.4c0.1,0.1,0.1,0.2,0.2,0.3c-0.8,0-1.6,0-2.6,0c0.6-0.7,1.2-0.4,1.7-0.4
		C106.7,77.3,107,77.4,107.2,77.4L107.2,77.4z"/>
	<path class="st0" d="M107.3,77.4c-0.1-0.3-0.2-0.6-0.3-1c0.1-0.3,0.2-0.8,0.4-1.3c0.4,0.1,0.5,0.4,0.4,0.8
		C107.6,76.4,107.4,76.9,107.3,77.4C107.2,77.4,107.3,77.4,107.3,77.4z"/>
	<path class="st0" d="M83.6,59.1c-1.5-0.7-1.9,0.7-2.7,1.3c0.2-0.6,0.8-1.3,1.5-1.9C82.8,58.7,83.2,58.9,83.6,59.1z"/>
	<path class="st0" d="M87.7,63.8c-0.4-0.1-1-0.2-1.4-0.5c-0.2-0.1-0.4-0.4-0.4-0.6c-0.1-0.6,0.3-0.9,0.7-1.2c0.3-0.3,0.7-0.3,1,0
		c0.4,0.3,0.8,0.6,1.1,1C88.9,63.2,88.5,63.9,87.7,63.8z M88.2,62.9c0-0.6-0.5-1.2-1-1.1c-0.3,0-0.7,0.6-0.6,1
		c0,0.4,0.4,0.8,0.9,0.8C88,63.6,88.2,63.3,88.2,62.9z"/>
	<path class="st0" d="M101.4,72c0.2,0.1,0.4,0.3,0.6,0.4c0,0.1-0.1,0.1-0.1,0.2c-0.2-0.1-0.4-0.2-0.6-0.3
		C101.3,72.1,101.3,72,101.4,72z"/>
	<path d="M109.1,41.5c-0.7,0.1-1.3-0.3-1.8-0.8c-0.1-0.2-0.1-0.5-0.1-0.7c0.2,0,0.5-0.1,0.6,0c0.5,0.5,1,0.8,1.7,0.6
		c0.3-0.1,0.6,0.2,0.6,0.5c0,0.4-0.3,0.4-0.6,0.4C109.4,41.5,109.3,41.5,109.1,41.5z"/>
	<path d="M116.8,39.6c-0.7,0.4-1.4,0.7-2,1.1c-0.1,0.1-0.3,0.2-0.4,0.1c-0.2-0.1-0.4-0.2-0.5-0.3c-0.1-0.1,0.1-0.4,0.2-0.5
		c0.6-0.3,1.2-0.6,1.8-0.8C116.4,39.1,116.5,39.2,116.8,39.6z"/>
	<path d="M115.6,38.1c-0.3,0.2-0.5,0.5-0.6,0.5c-0.2,0-0.4-0.2-0.5-0.3c0.1-0.1,0.3-0.4,0.4-0.4C115,37.7,115.2,37.9,115.6,38.1z"/>
	<path d="M116.1,41.8c-0.3,0.1-0.4,0.3-0.6,0.3c-0.1,0-0.2-0.2-0.3-0.3c0.1-0.1,0.2-0.3,0.4-0.3C115.7,41.5,115.9,41.6,116.1,41.8z"
		/>
	<path d="M86.8,54.5c0,0.7-0.4,1.1-0.8,0.9c-0.6-0.2-1.1-0.6-1.7-0.9c-0.6-0.3-1.1-0.6-1.7-0.8c-0.6-0.2-0.7-0.5-0.2-1
		c0.3-0.3,0.6-0.8,1-0.9c0.3-0.1,0.8,0.3,1.2,0.5c0.5,0.3,1.1,0.6,1.5,1C86.3,53.7,86.6,54.2,86.8,54.5z M85.1,54
		c0,0,0.1-0.1,0.1-0.1c-0.2-0.1-0.3-0.2-0.5-0.3c0,0-0.1,0.1-0.1,0.1C84.7,53.8,84.9,53.9,85.1,54z"/>
	<path d="M88.2,62.9c0,0.4-0.2,0.7-0.7,0.7c-0.5,0-0.9-0.3-0.9-0.8c0-0.4,0.3-1,0.6-1C87.7,61.7,88.2,62.3,88.2,62.9z"/>
	<path class="st0" d="M85.1,54c-0.2-0.1-0.3-0.2-0.5-0.3c0,0,0.1-0.1,0.1-0.1c0.2,0.1,0.3,0.2,0.5,0.3C85.1,53.9,85.1,54,85.1,54z"
		/>
</g>
</svg>
