<?xml version="1.0" encoding="utf-8"?>
<!-- Generator: Adobe Illustrator 22.0.1, SVG Export Plug-In . SVG Version: 6.00 Build 0)  -->
<svg version="1.1" id="Layer_1" xmlns="http://www.w3.org/2000/svg" xmlns:xlink="http://www.w3.org/1999/xlink" x="0px" y="0px"
	 viewBox="0 0 235.4 129.2" style="enable-background:new 0 0 235.4 129.2;" xml:space="preserve">
<style type="text/css">
	.st0{fill:#E4E4E4;}
	.st1{fill:#FFFFFF;}
</style>
<g>
	<path class="st0" d="M122.3,101.2c0,0-4.1-0.4-7.1-0.6c-3.1-0.2-22-4.9-22-4.9s-6.9-2.2-8.3-1.9c-1.4,0.3-2.7-0.5-4-0.6
		c-1.3-0.1-14.1-7.5-14.1-7.5l-20.3-9.1l-11-3.2c0,0-4.5-2.8-9.8-3.2s-8.7-1.2-8.7-1.2l-4.4-1.3l-6.5-3.1l-2.2-2.6l3-1.8V56l3.1-2
		l0.7-3.1l2.6-1.7l0.7-3.5l2.4-1.2l0.4-3.6l4.3-2.1l-0.4-2.5l3.5-1.7v-3.2l2.6-0.9l0.6-4.1l3.2-0.8l0.5-2.8l3.9-1.1l0.5-3.1l3.9-1.3
		l-0.2-3.7l4.5-1L44,8.6l4-0.7l0.5-4.2l2.8-0.7l11.5,5.3c0,0,4.4,1.3,6.2,4.7s5.8,6.9,5.8,6.9l6.8,5.7l5.3,3.1c0,0,4.9-1.1,7.2,1.1
		c2.3,2.2,10.7,5.6,10.7,5.6s6.9,4,8.1,3.8c1.3-0.1,11,2.1,12.8,2.3c1.7,0.2,13.5,1.6,13.5,1.6l7,1.9L134,98.8L122.3,101.2z"/>
	<path d="M119.9,103.9c0-0.9-0.1-1.7-0.1-2.5c-0.1-1,0.2-1.5,1.2-1.7c0.8-0.2,1.7-0.3,2.6-0.4c-0.1-0.5-0.1-0.9-0.2-1.3
		c-0.1-0.6-0.3-1.1-0.4-1.7c-0.2-0.9,0.2-1.5,1-1.9c0.4-0.2,0.9-0.4,1.4-0.6c0.4-0.1,0.6-0.4,0.5-0.8c-0.4-3.6-0.7-7.2-1.1-10.8
		c0,0,0-0.1-0.1-0.2c-0.3,0.1-0.7,0.2-1,0.4c-0.8,0.4-1.6,0.8-2.3,1.3c-0.3,0.2-0.6,0.2-0.7-0.1c-0.1-0.2,0-0.6,0.2-0.7
		c0.2-0.2,0.5-0.3,0.7-0.4c0.8-0.4,1.5-0.7,2.3-1.1c1.3-0.7,1.3-0.9,0.9-2.4c-0.1,0-0.2,0-0.3,0c-1.8,1.4-3.9,2.2-6,3.3
		c-0.4,0.2-0.7,0.4-1.1,0.6c-0.4,0.2-0.7,0.2-0.9-0.2c-0.2-0.4,0.1-0.6,0.4-0.7c1.4-0.7,2.8-1.3,4.1-2c1.1-0.6,2.1-1.2,3.1-1.8
		c0.5-0.3,0.7-0.6,0.7-1.2c0-1.2,0.1-2.3,0-3.5c-0.1-2.6,0.4-5.2,1.1-7.7c0.8-3,2-5.9,3.4-8.7c1.4-2.8,3.2-5.3,5.4-7.5
		c1.1-1.1,2.4-1.8,3.6-2.6c1.3-0.8,2.5-1.7,3.7-2.8c-1.1-0.2-2.2-0.5-3.3-0.7c-2.5-0.4-5.1-0.8-7.7-1.2c-1.9-0.3-3.7-0.5-5.6-0.7
		c-0.3,0-0.6,0.2-0.8,0.4c-1.1,1.1-2.1,2.2-3.2,3.3c0,0.1-0.1,0.1-0.2,0.1c-2.1,1.6-4.2,3.2-6.3,4.8c-0.5,0.4-1.1,0.8-1.6,1.3
		c-0.4,0.4-0.9,0.4-1.4,0.3c-2.8-0.6-5.7-1.1-8.5-1.7c-0.7-0.2-1.4-0.5-2.1-0.8c-1.6-0.8-3.2-1.6-4.9-2c-0.7-0.2-1.3-0.3-2-0.4
		c-0.8-0.1-1.3-0.5-1.5-1.3c-0.1-0.8,0.2-1.4,0.9-1.8c1-0.6,2-1.1,3-1.6c0.1,0,0.1,0,0.2-0.1c1.6-0.9,3.3-1.7,5-2.6
		c0.8-0.4,1.5-1.1,2.3-1.7c0.6-0.4,1.1-0.8,1.8-1.2c-1.2-0.5-2.4-1.3-3.8-0.7c-0.7,0.3-1.3,0.8-1.9,1.2c-1.2,0.9-2.3,1.8-3.5,2.7
		c-1.3,0.9-2.8,1.3-4.3,1.7c-1.1,0.3-2.2,0.9-3.2,1.3c-0.7,0.3-1.4,0.7-2.1,1c-2.1,0.7-3.9,1.9-5.5,3.4c-1.3,1.2-2.6,2.2-3.6,3.6
		c-0.7,1-1.5,1.9-2.1,2.9c-1,1.7-1.3,3.6-1.3,5.5c0,1.8,0,3.6-0.3,5.4c-0.2,1.1-0.1,2.2-0.1,3.3c0,2.2-0.1,4.4-0.1,6.6
		c0.1,3,0.2,6,0.3,8.9c0.1,1.8,0.2,3.5,0.2,5.3c0,0.5,0.2,0.8,0.6,1.1c1.3,0.7,2.6,1.4,4,2.1c0.4,0.2,0.8,0.5,1.1,0.8
		c0.7,0.5,1.6,0.7,2.4,0.7c2.5-0.1,4.8,0.5,7.1,1.2c1.3,0.4,2.5,0.7,3.6,1c1.8-1.1,3.5-2.1,5.3-3c1.2-0.7,2.3-1.3,3.5-2
		c0.4-0.2,0.8-0.5,1.2-0.6c0.2-0.1,0.5,0.1,0.7,0.2c-0.1,0.2-0.2,0.6-0.4,0.7c-1.4,0.8-2.8,1.6-4.2,2.4c-1.4,0.8-2.8,1.6-4.2,2.4
		c-0.2,0.1-0.4,0.2-0.5,0.3c0.1,0.1,0.1,0.2,0.2,0.3c0.7,0.2,1.3,0.4,2,0.5c0.3,0,0.6-0.1,0.9-0.2c0.5-0.2,0.9-0.6,1.4-0.8
		c1.7-0.8,3.4-1.7,5.2-2.5c2.1-1,4.2-1.9,6.3-2.8c0.4-0.2,0.9-0.6,1.2,0.1c0.2,0.6-0.4,0.6-0.8,0.8c-3.8,1.8-7.6,3.6-11.4,5.3
		c-0.2,0.1-0.3,0.2-0.6,0.4c0.8,0.2,1.4,0.4,2.1,0.6c1,0.2,2,0.5,3,0.7c1.4,0.3,2.7,0.5,4.1,0.8c2.2,0.5,4.3,1,6.5,1.5
		c0.8,0.2,1.5,0.3,2.3,0.5c0.1,0,0.2,0,0.3,0c0.4,0.1,1,0.2,0.9,0.7c-0.1,0.6-0.6,0.4-1,0.3c-2.7-0.6-5.3-1.2-8-1.8
		c-1.1-0.2-2.2-0.4-3.2-0.6c-1.7-0.4-3.4-0.8-5.1-1.2c-1.4-0.3-2.9-0.5-4.3-0.8c-1-0.2-2.1-0.5-3.1-0.8c-3.3-1-6.5-2-9.9-2.4
		c-0.2,0-0.5,0-0.7,0c-1.7,0.2-3.2-0.3-4.5-1.5c-0.8-0.6-1.7-1.1-2.6-1.6c-2.3-1.1-4.7-2.2-7-3.3c-1.9-1-3.8-2.1-5.7-3
		c-2.2-1-4.4-1.9-6.6-2.8c-1.9-0.8-3.7-1.6-5.5-2.4c-1.2-0.5-2.3-1.1-3.5-1.6c-1.5-0.6-3-1.4-4.5-1.9c-1.8-0.6-3.6-1-5.4-1.5
		c-1.5-0.4-3-0.9-4.5-1.5c-2.3-1-4.7-1.7-7.1-2.4c-0.9-0.3-1.8-0.2-2.7-0.3c-1.1-0.1-2.1-0.4-3.1-0.5c-1.2-0.1-2.4-0.2-3.6-0.3
		c-0.9,0-1.3-0.4-0.8-1.2c0.3-0.6,0.8-1.1,1.3-1.6c0.1-0.1,0.6-0.2,0.6-0.1c0.1,0.2,0.2,0.6,0.1,0.7c-0.2,0.3-0.5,0.6-0.7,0.9
		c0.1,0.1,0.2,0.2,0.3,0.2c1.5,0,2.9,0.3,4.4,0.6c1.1,0.2,2.2,0.1,3.3,0.3c1.8,0.4,3.6,0.8,5.3,1.4c1.7,0.6,3.4,1.3,5.2,2
		c0.8,0.3,1.7,0.5,2.5,0.8c1.9,0.5,4,0.9,5.8,1.6c2.6,1,5.1,2.2,7.6,3.3c2.5,1.1,5,2.2,7.5,3.2c2.2,0.8,4.4,1.9,6.5,3
		c1.6,0.8,3.2,1.7,4.8,2.5c1,0.5,2.1,0.9,3.3,1.4c0.1-0.3,0.2-0.5,0.2-0.6c-0.1-2.1-0.2-4.2-0.3-6.4c0-0.7,0-1.5-0.1-2.2
		c-0.1-3.1-0.2-6.2,0-9.2c0-0.5,0-0.9,0-1.4c-0.1-2.2,0-4.4,0.3-6.6c0.1-0.8,0.1-1.6,0.1-2.4c-0.1-1.9,0.2-3.7,0.7-5.6
		c0.3-0.9,0.8-1.7,1.5-2.4c0.2-0.2,0.5-0.5,0.6-0.7c1.2-2.2,3.2-3.7,5-5.3c1.6-1.4,3.5-2.4,5.5-3.2c0.9-0.3,1.7-0.8,2.6-1.2
		c1.1-0.5,2.2-1.1,3.5-1.3c1.7-0.2,3.1-1.1,4.5-2.1c0.6-0.4,1.1-0.9,1.6-1.4c0.8-0.8,1.6-1.6,3-1.9c-1-0.4-1.8-0.8-2.5-1.1
		c-2.2-1-4.5-2-6.6-3.1c-1.7-0.9-3.5-1.3-5.4-1.4c-1,0-2,0.2-2.9,0.4c-0.2,0-0.4,0.2-0.6,0.1c-0.2,0-0.4-0.2-0.5-0.3
		c-0.1-0.1,0-0.5,0.2-0.5c0.4-0.2,0.8-0.4,1.4-0.6c-1.2-1-2.4-1.9-3.7-2.5c-1.3-0.7-2.6-1.4-3.9-2.1c-2.2-1.2-3.8-3.1-5.3-5
		c-1.4-1.8-2.8-3.7-4.1-5.5c-0.3-0.3-0.4-0.7-0.6-1.1c-0.4-0.8-1-1.4-1.9-1.8c-0.8-0.3-1.6-0.6-2.4-1c-0.4-0.2-0.7-0.2-1,0.2
		c-1.9,1.9-3.7,3.8-5.6,5.7c-2.6,2.7-5.1,5.4-7.7,8.1c-1.7,1.7-3.4,3.4-5,5.2c-2.6,2.9-5.2,5.8-7.8,8.8c-2.9,3.4-5.7,6.9-8.5,10.4
		c-0.2,0.2-0.4,0.4-0.6,0.6c-0.1,0.1-0.5,0.1-0.6,0c-0.1-0.2-0.2-0.5-0.1-0.6c0.3-0.4,0.6-0.8,0.9-1.2c2.3-2.8,4.5-5.5,6.8-8.3
		c2.7-3.3,5.4-6.5,8.4-9.6c2-2.2,4.2-4.2,6.2-6.4c1.4-1.4,2.7-2.9,4.1-4.4c1.3-1.4,2.7-2.8,4.1-4.2c1.4-1.5,2.9-2.9,4.3-4.4
		c0.2-0.2,0.3-0.4,0.5-0.7C61.4,8.1,61,8,60.5,7.7c-0.4,0.4-0.8,0.9-1.3,1.3c-2.9,3-5.9,6-8.8,9.1c-3.7,4-7.3,8.1-10.9,12.3
		c-2.1,2.5-4.1,5.1-6.2,7.6c-1.5,1.8-3,3.6-4.5,5.3c-0.7,0.8-1.5,1.6-2.2,2.4c-0.2,0.2-0.3,0.4-0.5,0.5c-0.2,0.1-0.4,0.1-0.5,0.1
		c-0.1-0.1-0.2-0.4-0.1-0.6c0.1-0.2,0.3-0.4,0.4-0.6c1.1-1.2,2.2-2.4,3.3-3.6c2-2.1,3.7-4.5,5.5-6.8c1.2-1.6,2.5-3.1,3.8-4.6
		c1.9-2.2,3.8-4.4,5.8-6.6c2.6-2.9,5.2-5.9,7.9-8.8c2.1-2.2,4.2-4.4,6.4-6.6C58.8,8,59,7.7,59.4,7.3c-0.5-0.3-1-0.6-1.4-0.8
		c-1.1,1.1-2.1,2.1-3.1,3.2c-5.2,5.8-10.5,11.6-15.6,17.5c-2.8,3.2-5.3,6.7-8.1,10c-2,2.4-4.1,4.8-6.2,7.1c-0.3,0.3-0.6,0.6-0.9,0.9
		c-0.2,0.2-0.5,0.3-0.7,0c-0.1-0.2-0.1-0.5,0-0.6c0.2-0.3,0.5-0.6,0.8-1c3.3-3.3,6.1-6.9,8.9-10.6c1.4-1.9,2.9-3.7,4.4-5.4
		c2.5-2.9,5-5.8,7.5-8.7c2.7-3.1,5.5-6.1,8.3-9.2c0.9-0.9,1.7-1.9,2.6-2.8c0.2-0.3,0.4-0.5,0.7-0.9c-0.3-0.2-0.5-0.4-0.8-0.6
		c-0.9-0.5-1-0.3-1.5,0.3c-0.7,0.9-1.4,1.8-2.2,2.7c-2.7,3.2-5.5,6.3-8.3,9.5c-2.2,2.5-4.5,5-6.7,7.6c-3.4,4.1-6.6,8.3-10,12.5
		c-1.3,1.7-2.7,3.3-4.1,4.9c-0.3,0.3-0.6,0.5-0.9,0.8c-0.6-0.3-0.4-0.6-0.2-0.9c0.6-0.7,1.2-1.5,1.8-2.2c1.8-2.3,3.6-4.5,5.5-6.8
		c2.6-3.2,5.1-6.4,7.7-9.5c2-2.4,4.2-4.7,6.3-7.1c2.8-3.2,5.5-6.5,8.3-9.7c0.7-0.8,1.4-1.6,2.1-2.4C54,5.1,54,4.9,54.2,4.7
		c-0.7-0.4-1.4-0.7-2.1-1.1c-0.2-0.1-0.4-0.1-0.6-0.1c-0.6,0.1-1.3,0.2-1.9,0.3c-0.5,0.1-0.8,0.4-0.8,0.9c0,0.9,0,1.8,0,2.7
		c0,1-0.2,1.1-1.2,1.2c-0.8,0-1.6,0.1-2.3,0.2c-0.9,0.1-0.9,0.1-0.9,1.1c0,0.6,0,1.2,0,1.8c0,1-0.1,1.1-1,1.4
		c-0.7,0.2-1.5,0.3-2.3,0.5c-0.2,0-0.4,0-0.6,0.1c-1.1,0.2-1.2,0.4-1.2,1.5c0,0.6,0,1.1,0,1.7c0,1.1-0.2,1.3-1.3,1.5
		c-0.4,0.1-0.8,0.1-1.3,0.1c-0.4,0.1-0.9,0.1-1.4,0.2c0,0.5,0,0.8,0,1.2c-0.1,0.5-0.1,1-0.3,1.4c-0.2,0.6-0.6,0.9-1.3,0.9
		c-0.6,0-1.1,0.1-1.7,0.3c-0.7,0.2-0.9,0.5-0.8,1.2c0.1,0.5,0.1,0.9,0.2,1.4c0.1,0.6-0.2,0.9-0.7,1c-0.8,0.2-1.6,0.4-2.4,0.5
		c-0.9,0.2-1,0.2-1,1.1c0,0.7,0,1.4,0,2.1c-0.1,1-0.2,1.1-1.1,1.4c-0.4,0.1-0.8,0.2-1.1,0.3c-0.6,0.1-0.8,0.4-0.7,1
		c0.1,0.5,0.2,0.9,0.3,1.4c0.2,1.1,0.1,1.3-0.9,1.7c-0.5,0.2-1.1,0.3-1.6,0.5c-1.1,0.3-1.2,0.6-1,1.7c0,0,0,0.1,0,0.1
		c0.3,1.4,0.2,1.6-1.1,2.1c-0.6,0.2-1.2,0.4-1.8,0.7c-1.1,0.5-1.2,0.7-1,1.9c0.1,0.5,0.1,0.9,0.2,1.4c0.1,0.6-0.1,1.1-0.8,1.3
		c-0.6,0.2-1.2,0.5-1.8,0.7c-0.5,0.2-0.7,0.5-0.7,1c0.1,0.4,0.1,0.8,0.2,1.2c0.1,0.8,0,1-0.7,1.3c-0.8,0.4-1.6,0.8-2.4,1.2
		c-0.6,0.3-0.8,0.6-0.6,1.3c0.1,0.6,0.1,1.1,0.1,1.7c0,0.7-0.4,1.1-1.1,1.3c-0.6,0.2-1.1,0.5-1.6,0.7c-0.7,0.3-0.8,0.8-0.7,1.5
		c0.1,0.7,0.2,1.3,0.2,2c0,0.7-0.2,1.3-1,1.6c-0.7,0.3-1.4,0.6-2.2,0.9c0.2,0.3,0.4,0.7,0.7,1c1,1.2,2.2,2,3.6,2.5
		c2.1,0.8,4.3,1.6,6.4,2.4c0.2,0.1,0.5,0.4,0.5,0.6c0,0.4-0.4,0.5-0.7,0.5c-0.4-0.1-0.8-0.2-1.2-0.4c-2.1-0.9-4.2-1.7-6.3-2.6
		c-1.9-0.7-3-2.3-4.2-3.8c-0.3-0.5-0.2-0.9,0.3-1.2c0.4-0.2,0.8-0.4,1.2-0.4c1.5-0.2,1.9-0.6,1.8-2.2c0-0.4-0.1-0.7-0.2-1
		c-0.1-0.5-0.1-0.9-0.2-1.5c1-0.5,1.9-1.1,2.8-1.5c0.5-0.3,0.8-0.6,0.7-1.2c-0.1-0.6-0.1-1.1-0.2-1.7c-0.1-0.5,0.1-0.8,0.5-1
		c0.8-0.4,1.6-0.9,2.5-1.3c0.8-0.4,0.9-0.5,0.7-1.4c-0.1-0.5-0.1-1-0.2-1.5c0-0.5,0.2-0.8,0.8-0.9c0.6-0.1,1.2-0.3,1.8-0.5
		c0.5-0.2,0.8-0.5,0.7-1.1C16,43,16,42.5,15.9,41.9c-0.2-0.8,0.2-1.4,0.9-1.7c0.8-0.4,1.6-0.7,2.3-1c0.3-0.1,0.6-0.3,1-0.4
		c-0.1-0.6-0.3-1.2-0.4-1.8c-0.2-0.8-0.2-1,0.6-1.3c0.9-0.3,1.7-0.7,2.6-1c0.5-0.2,0.7-0.5,0.6-1c-0.1-0.7-0.3-1.3-0.3-2
		c0-0.8,0.1-0.8,0.8-1c0.4-0.1,0.9-0.2,1.3-0.3c0.8-0.2,0.8-0.3,0.9-1.1c0-0.8,0.1-1.6,0.1-2.4c0.1-1,0.2-1,1.1-1.2
		c0.6-0.1,1.1-0.2,1.7-0.2c1-0.2,1.1-0.3,1.1-1.3c0-0.1,0-0.3,0-0.4c-0.2-1.6-0.4-1.4,1.2-2.1c0.5-0.2,1-0.3,1.5-0.4
		c1.2-0.2,1.3-0.4,1.3-1.6c0-0.4,0-0.8,0-1.2c0-0.2,0.1-0.4,0.1-0.7c0.6-0.1,1.2-0.2,1.9-0.3c0.4-0.1,0.8-0.1,1.3-0.2
		c0.5,0,0.7-0.3,0.7-0.8c0-0.6,0-1.1,0-1.7c0-1.4,0.2-1.7,1.5-2c0.9-0.2,1.8-0.4,2.7-0.6c0.8-0.2,0.9-0.2,0.9-1c0-0.3,0-0.6,0-1
		c0-0.5-0.1-0.9,0-1.4c0.1-0.7,0.2-0.8,0.9-0.9c0.8-0.1,1.6-0.2,2.4-0.3c1.1-0.1,1.1-0.1,1.1-1.2c0-0.7,0-1.3,0-2
		c0-1.3,0.1-1.3,1.4-1.5c0.2,0,0.5,0,0.7-0.1c0.2-0.1,0.6-0.1,0.7-0.2c0.4-0.6,0.9-0.4,1.4-0.2c2.4,1.2,4.9,2.5,7.3,3.7
		c2.4,1.2,4.9,2.3,7.3,3.4c0.8,0.3,1.3,0.8,1.8,1.5c2.1,3.1,4,6.3,6.6,9c1,1,2.1,2,3.3,2.7c2.1,1.2,4.3,2.4,6.4,3.6
		c0.7,0.4,1.2,0.9,1.9,1.4c0.3,0.3,0.7,0.3,1.2,0.4c2,0.2,4,0.3,5.8,1.4c1.4,0.8,3,1.5,4.5,2.1c1.6,0.7,3.2,1.3,4.7,2
		c2.7,1.3,5.4,2.7,8.1,4c1.5,0.7,3.1,1.5,4.7,1.9c1.8,0.5,3.7,0.6,5.6,0.8c3.1,0.3,6.1,0.6,9.2,0.9c1.5,0.2,2.9,0.6,4.4,0.8
		c2,0.3,4,0.5,6,0.9c1.8,0.4,3.5,0.7,5.4,0.7c0.6,0,1.1-0.1,1.7,0c1.4,0,2.8-0.2,4.2,0.2c0.3,0.1,0.5,0,0.9,0
		c-0.1-0.3-0.1-0.5-0.2-0.7c-0.1-0.4,0-0.7,0.4-0.9c0.8-0.4,1.6-0.8,2.4-1.2c0.5-0.2,1-0.3,1.5-0.4c0.3-0.1,0.6-0.2,0.9-0.3
		c1.6-0.5,3.2-0.9,4.8-1.5c2.8-1,5.5-2.2,8.3-3.3c1.3-0.5,2.7-0.9,4-1.3c1.9-0.7,3.9-1.3,5.8-2.1c1.1-0.4,2.2-0.7,3.3-0.3
		c0.7,0.2,1.2,0,1.6-0.5c0.4-0.6,0.9-1,1.7-0.8c0.3,0,0.7-0.2,0.8-0.5c0.4-0.8,1.1-1,1.8-0.7c0.9,0.3,1.5-0.1,2-0.7
		c0.8-1,0.8-0.9,2-0.6c0.6,0.2,1.1,0.3,1.8,0.5c0.2-0.2,0.4-0.4,0.6-0.7c0.4-0.8,1.1-1.2,2-0.9c1,0.3,1.7,0.1,2.2-0.9
		c0.4-0.7,0.7-0.7,1.5-0.5c0.6,0.2,1.3,0.4,2,0.6c0.4-0.5,0.7-0.9,1.1-1.4c0.5-0.7,0.7-0.8,1.5-0.5c1.1,0.4,2.1,0.8,3.3,0.5
		c0.2-0.3,0.4-0.7,0.7-1.2c0.4,0.5,0.6,0.9,0.8,1.2c0.2,0.3,0.5,0.7,0.8,1.1c-0.2,0.4-0.3,0.8-0.5,1.2c1.6,0,1.7,0,1.7,1.3
		c0.5,0.2,1.2,0.3,1.5,0.7c0.3,0.3,0.1,1,0.2,1.6c1.2,0.3,1,1.3,0.8,2.2c0.1,0.1,0.1,0.1,0.2,0.1c0.4,0,0.9-0.1,1.2,0.1
		c0.3,0.2,0.3,0.7,0.4,1.1c0.1,0.3,0.3,0.6,0.5,0.8c0.6,0.4,0.7,1,0.8,1.7c0.4,3.1,0.5,6.3-0.1,9.4c-0.2,0.9-0.2,1.8-0.3,2.7
		c-0.1,0.8-0.6,1.4-1.2,1.9c-0.9,0.9-1.8,1.8-2.7,2.7c-0.4,0.4-0.5,0.8-0.4,1.3c0.8,2.9,1,5.9,1,8.9c0,0.3,0.1,0.7,0.2,1
		c0.1,0.6-0.1,1.1-0.7,1.4c-1,0.5-1.6,1.2-1.9,2.3c-0.1,0.5-0.4,0.9-0.7,1.3c-1.5,2.2-2.6,4.7-3.8,7.1c-0.1,0.2-0.1,0.3-0.2,0.7
		c0.4,0.1,0.7,0.2,1,0.1c1-0.1,1.7,0.2,1.9,1.2c0,0.2,0.1,0.4,0.2,0.5c0.9,0.4,1,1.3,1.2,2.1c0,0.2,0.2,0.4,0.4,0.6
		c0.1,0.2,0.4,0.4,0.4,0.6c0,1.2,0.9,2,1.4,3c0.5,1.1,0.9,2.2,0.7,3.5c-0.1,0.8,0.3,1.4,1,1.8c0.6,0.3,1.2,0.8,1.7,1.2
		c0.5,0.4,1,0.8,1.7,0.6c0.8-0.1,1.5,0.1,2.2,0.5c0.3,0.2,0.7,0.3,1.1,0.4c1.1,0.3,1.9,1.1,1.9,2.3c0.1,0.8,0.4,1.1,1,1.3
		c0.2,0.1,0.5,0.2,0.7,0.2c1.3,0.3,2,1.2,2.2,2.4c0.1,0.5,0.3,0.7,0.7,0.7c0.2,0,0.4,0.2,0.6,0.1c1-0.1,1.3,0.5,1.6,1.3
		c0.2,0.5,0.4,0.9,0.6,1.3c0.8,1.3,0.7,2.3-0.4,3.3c-0.9,0.8-1.7,1.7-2.6,2.5c-1.3,1.2-2.5,2.4-3.8,3.6c-0.3,0.3-0.6,0.6-0.7,0.9
		c-0.2,0.9-0.9,1.4-1.5,2c-0.9,0.9-1.6,1.8-2.5,2.8c-0.3,0.3-0.6,0.7-0.9,1.1c-0.3,0.3-0.3,0.6-0.1,1c0.4,1.1,0.2,1.4-0.7,2
		c-1.3,0.8-2.6,1.7-4,2.4c-1.7,0.9-3.5,1.8-5.3,2.6c-0.5,0.2-1.2,0.2-1.8,0.1c-3.1-0.4-6.2-1.3-9.3-1.4c-0.5,0-1.1-0.1-1.6-0.3
		c-2-0.8-4.1-0.8-6.1-1.2c-0.5-0.1-1.1-0.2-1.6-0.3c-2.6-0.8-5.3-1.3-8-1.7c-0.7-0.1-1.5-0.1-2.2-0.1c-0.2,0-0.5,0.1-0.7,0.1
		c-1.8,0.7-3.5,1.5-5.3,2.2c-0.3,0.1-0.6,0.2-0.9,0.2c-1.7,0-3.4-0.1-5.1-0.2c-2.5-0.2-4.9,0-7.3,0.6c-1.1,0.3-2.4,0.3-3.6,0.5
		c-0.3,0-0.6,0-0.8,0.1c-2.5,0.4-5.1,0.5-7.6,0.6c-0.2,0-0.6,0-0.7-0.1c-0.5-0.6-1.1-0.4-1.8-0.3c-2.6,0.4-5.2,0.8-7.8,0.6
		c-2.2-0.2-4.4-0.4-6.6-1.1c-1.3-0.4-2.8-0.7-4.1-1c-0.6-0.1-1.1-0.2-1.7-0.4c-1.5-0.5-3-0.6-4.6-0.7c-1.9-0.2-3.6-0.6-5.2-1.7
		c-0.9-0.6-1.9-1-2.9-1.5c-1.2-0.5-2.2-1.2-2.8-2.4c-0.1-0.3-0.4-0.5-0.6-0.8c-0.6-0.7-0.3-1.5,0.6-1.6c0.4-0.1,0.8-0.2,1.2-0.3
		c0.5-0.2,0.8-0.5,0.8-1.1c0-0.5-0.1-1.1-0.2-1.6c-0.2-1.3-0.1-1.6,1.2-2.1c0.7-0.3,1.3-0.5,2-0.7c0.7-0.3,0.8-0.5,0.7-1.2
		c-0.1-0.8-0.2-1.5-0.3-2.3c-0.1-0.6,0.1-1.1,0.7-1.4c0.6-0.3,1.2-0.5,1.9-0.7C118.7,104.1,119.2,104,119.9,103.9z M208.8,63.9
		C208.8,64,208.7,64,208.8,63.9c0.1,0.2,0.2,0.4,0.3,0.5c0,0,0.1-0.1,0.1-0.1c-0.1-0.1-0.3-0.2-0.6-0.4
		C208.7,63.9,208.8,63.9,208.8,63.9c-0.2-0.4-0.5-0.7-0.8-1c0,0-0.1,0.1-0.1,0.1C208.1,63.3,208.4,63.6,208.8,63.9z M216.6,119.8
		c1.3-1.1,1.3-1.2,0.2-2.4c-0.1-0.1-0.2-0.2-0.3-0.3c-0.7-0.8-1.3-0.8-2.1-0.1c-0.5,0.5-0.8,1.2-0.8,1.9c0.1,0.7,0.2,1.4,0.3,2.2
		c1.5,0.5,1.9,0.3,2.5-1C216.5,120,216.6,119.9,216.6,119.8L216.6,119.8z M190.5,40.8c0,0-0.1-0.1-0.1-0.1c1-0.5,1.9-1.2,2.9-1.6
		c2.6-1.1,5.2-2.2,7.7-3.3c2-0.8,3.9-1.6,5.9-2.5c2.2-1,4.4-2.2,6.5-3.3c0.2-0.1,0.4-0.3,0.8-0.6c-0.7-0.1-1.3,0-1.6-0.2
		c-0.6-0.4-1.1-0.2-1.7,0.1c-1.9,0.9-3.7,1.9-5.7,2.7c-2.7,1.1-5.3,2.4-7.9,3.7c-2.9,1.4-5.8,2.8-8.6,4.1c-0.4,0.2-0.8,0.4-1.2,0.1
		c0.1-0.5,0.5-0.6,0.8-0.8c2.7-1.3,5.4-2.5,8.1-3.8c3.1-1.5,6.1-3,9.3-4.3c2.2-0.9,4.3-2,6.4-3c-0.5-0.2-1.1-0.4-1.7-0.6
		c0,0-0.1,0.1-0.3,0.1c-2.4,1.1-4.8,2.2-7.3,3.3c-3.1,1.3-6.2,2.6-9.3,3.8c-2.6,1-4.9,2.5-7.3,3.9c-0.4,0.2-0.5,0.5-0.3,1
		c0.2,0.3,0.3,0.7,0.4,1.1c0.4,1.6,0.7,3.2,1.1,4.8c0.5,0.1,1,0.2,1.4,0.3c0.8,0.2,1.6,0.3,2.4-0.1c0.3-0.2,0.8-0.2,1.1,0
		c0.9,0.4,1.7,0.9,2.6,1.4c0.2,0.1,0.5,0.4,0.5,0.6c0,0.9,0.5,1.5,0.7,2.3c0.4,1.1,0.7,2.2,1,3.3c0.2,0.8,0,1.5-0.5,2.2
		c-0.2,0.3-0.4,0.7-0.5,1c-0.1,0.6-0.6,0.9-1.1,1.1c-0.4,0.1-0.7,0.3-1.1,0.5c0.1,0.2,0.2,0.3,0.2,0.4c1.9,2.3,4.1,4.4,6.6,6.1
		c1.1,0.8,1.5,1.6,1.5,2.8c0,0.8,0.2,1.7,0.3,2.5c1.5,0.1,7.2-1.2,8.2-1.8c-0.3-0.5-0.6-1-1-1.5c-1.4-1.5-2.8-3-4.3-4.4
		c-0.2-0.2-0.4-0.4-0.5-0.6c-0.1-0.2-0.1-0.6,0-0.7c0.1-0.1,0.5-0.1,0.7,0c0.5,0.2,1,0.4,1.5,0.7c0.7,0.4,1.5,0.7,2,1.2
		c0.9,0.8,1.6,1.8,2.3,2.7c0.3,0.3,0.6,0.7,0.9,1c0.6-0.4,1.2-0.8,1.7-1.2c0.2-0.2,0.3-0.5,0.3-0.8c0-0.9-0.2-1.8-0.1-2.6
		c0.1-2.2-0.1-4.3-0.8-6.4c-0.1-0.3-0.2-0.5-0.2-0.8c-0.1-0.6,0.1-1.1,0.5-1.6c0.9-1,1.9-1.9,2.9-2.8c0.9-0.9,1.5-1.9,1.3-3.2
		c0-0.4-0.1-0.8,0.1-1.2c0.4-1,0.3-2,0.4-2.9c0.1-2.2,0.4-4.4-0.4-6.5c-0.3-0.3-0.7-0.5-0.9-0.9c-0.5-0.7-0.5-0.7-1.2-0.4
		c-1.4,0.6-2.8,1.2-4.2,1.9c-5,2.2-9.9,4.4-14.9,6.6c-0.4,0.2-0.8,0.2-1.3,0.4c0-0.3-0.1-0.4,0-0.5c6.6-3.6,13.7-6.2,20.5-9.4
		c-0.5-0.2-0.9-0.4-1.4-0.7c-3,1.4-5.9,2.8-8.9,4.2c-2.4,1.1-4.8,2.1-7.2,3.2c-1.8,0.8-3.7,1.7-5.5,2.6c-0.3,0.1-0.7,0.4-0.9-0.2
		c0.2-0.1,0.4-0.3,0.6-0.4c0.9-0.4,1.8-0.9,2.7-1.3c3.9-1.8,7.9-3.5,11.8-5.3c2.5-1.2,5-2.4,7.5-3.6c0.3-0.1,0.4-0.4,0.7-0.7
		c-1.6-0.8-1.6-0.9-3-0.2c-0.4,0.2-0.8,0.4-1.1,0.6c-2.8,1.6-5.7,2.8-8.7,4.1c-2.9,1.2-5.7,2.4-8.6,3.5
		C192.6,40.1,191.6,40.4,190.5,40.8z M156.5,41.5c-0.7,0.4-1.5,0.8-2.2,1.2c-0.4,0.2-0.5,0.5-0.4,0.9c0.3,1,0.5,1.9,0.8,2.9
		c0.3,0.8,0.2,1.1-0.5,1.5c-0.7,0.4-1.5,0.7-2.3,1c-0.7,0.3-0.8,0.4-0.7,1.2c0.1,0.9,0.3,1.9,0.5,2.8c0.1,0.9,0.1,1-0.7,1.4
		c-0.6,0.3-1.3,0.6-2,0.8c-0.5,0.2-0.7,0.6-0.5,1.1c0.2,0.7,0.3,1.4,0.5,2.2c0.1,0.6-0.1,1.1-0.7,1.4c-0.8,0.4-1.7,0.8-2.5,1.1
		c-0.5,0.2-0.6,0.5-0.5,1c0.1,0.5,0.2,1,0.3,1.6c0.2,1.4-0.1,2-1.5,2.5c-0.6,0.2-1.3,0.5-1.9,0.7c-0.5,0.2-0.6,0.5-0.5,1
		c0.2,0.5,0.3,1,0.5,1.5c0.3,1,0.1,1.5-0.9,2c-0.7,0.3-1.4,0.7-2.1,1c-0.5,0.2-0.7,0.6-0.6,1.1c0.1,0.8,0.3,1.5,0.4,2.3
		c0.2,1,0.1,1.2-0.8,1.6c-0.7,0.3-1.4,0.5-2.1,0.7c-1,0.3-1.1,0.5-1,1.5c0.1,0.7,0.2,1.3,0.4,2c0.2,0.9,0,1.2-0.8,1.6
		c-0.4,0.2-0.9,0.4-1.4,0.6c-0.7,0.3-0.8,0.6-0.7,1.3c0.1,0.4,0.2,0.8,0.3,1.1c0.3,1.2,0,1.8-1.1,2.2c-0.3,0.1-0.6,0.1-0.9,0.2
		c-0.6,0.1-1.2,0.2-1.8,0.4c-1.1,0.3-1.2,0.5-0.9,1.6c0.1,0.5,0.3,0.9,0.4,1.4c0.3,1,0,1.6-0.9,2.1c-0.5,0.3-1.1,0.5-1.7,0.6
		c-1.7,0.4-2.2,1-1.8,2.5c0.2,0.6,0.2,1.3,0.2,2c0,0.4-0.1,0.9-0.6,1c-0.7,0.2-1.4,0.4-2.1,0.5c-0.8,0.1-1,0.3-0.9,1.1
		c0,0.6,0.2,1.2,0.2,1.8c0,1-0.3,1.4-1.4,1.5c-0.4,0.1-0.8,0-1.2,0.1c-1.6,0.3-1.8,0.6-1.6,2.2c0.1,0.7,0.2,1.4,0.1,2.1
		c-0.1,0.8-0.5,1-1.3,1.2c-0.6,0.1-1.2,0.3-1.8,0.6c-0.9,0.3-0.9,0.4-0.8,1.4c0,0.5,0.1,1,0.2,1.5c0.1,1.2-0.4,1.9-1.6,2.2
		c-0.4,0.1-0.8,0.2-1.2,0.3c0.3,1.4,1.5,2.5,2.9,2.7c0-1.2,0.6-2.1,1.2-3.1c1.1-1.9,2.3-3.8,3.3-5.8c0.4-0.8,0.8-1.4,1.4-1.9
		c1.6-1.5,3.2-3.1,4.9-4.6c0.4-0.4,0.8-0.8,1.7-0.6c-0.3,0.4-0.5,0.8-0.8,1.1c-1.3,1.2-2.5,2.4-3.8,3.6c-0.7,0.7-1.4,1.3-1.9,2.1
		c-1.2,1.9-2.3,4-3.5,6c-0.8,1.2-1.2,2.5-1.2,4c0.9,0.6,0.9,0.6,1.4-0.2c0.3-0.5,0.6-1,0.9-1.6c1-2.1,2.1-4.1,2.9-6.3
		c0.5-1.4,1.2-2.6,2.4-3.5c1.4-1.1,2.7-2.3,4-3.5c0.3-0.3,0.7-0.7,1.2-0.3c0,0.6-0.4,0.8-0.7,1.1c-1.4,1.3-2.9,2.5-4.3,3.8
		c-0.6,0.5-1,1.2-1.3,1.9c-1.1,2.4-2.3,4.8-3.4,7.2c-0.4,0.8-0.8,1.6-1.2,2.4c0.4,0.2,0.7,0.4,1,0.6c0.1-0.2,0.2-0.4,0.3-0.5
		c0.6-1.1,1.1-2.2,1.7-3.3c0.9-1.7,1.8-3.4,2.7-5.2c0.3-0.7,0.3-1.6,0.7-2.2c0.4-0.6,1.2-0.9,1.9-1.4c1.3-1,2.7-1.9,4-2.9
		c0.3-0.2,0.5-0.3,0.8,0.1c-0.3,0.3-0.6,0.6-1,0.8c-1.4,1.1-2.8,2.2-4.2,3.3c-0.4,0.4-0.8,0.9-1,1.4c-0.6,1.1-1,2.2-1.6,3.3
		c-0.7,1.4-1.5,2.7-2.1,4c-0.4,0.9-0.7,1.9-1.1,2.9c0.3,0.1,0.6,0.2,0.9,0.3c0.1-0.1,0.2-0.2,0.2-0.3c0.7-1.4,1.3-2.8,2-4.2
		c0.7-1.5,1.4-3,2.3-4.5c0.3-0.6,0.6-1.1,0.4-1.7c1.6-1.2,3-2.5,4.5-3.6c0.4-0.3,0.9-0.6,1.4-0.8c0.1-0.1,0.4,0.1,0.6,0.1
		c0,0.2,0,0.4-0.1,0.5c-0.1,0.2-0.3,0.3-0.5,0.4c-0.8,0.6-1.6,1.1-2.3,1.7c-1.2,1-2.4,1.8-3,3.4c-1,2.6-2.4,5-3.7,7.4
		c-0.3,0.5-0.4,1.1-0.2,1.7c0.4-0.4,0.6-0.9,0.9-1.4c1-1.8,2-3.6,2.5-5.6c0.1-0.6,0.5-1.1,0.9-1.6c0.1-0.2,0.5-0.3,0.7-0.2
		c0.3,0.1,0.2,0.5,0.1,0.7c-0.3,0.5-0.6,0.9-0.8,1.4c-0.5,1.6-1.3,3.1-2.1,4.6c-0.3,0.6-0.6,1.3-0.9,2c2.1,0.5,4,0.9,5.9,1.4
		c0.7,0.2,1.4,0.2,2.1,0.4c2.2,0.7,4.4,1.1,6.6,1.4c2.8,0.3,5.6,0,8.4-0.4c1.8-0.2,1.7-0.4,2-2.2c0.2-1.5,0.6-3,0.9-4.5
		c0-0.1,0-0.2,0.1-0.2c0.1-0.1,0.3-0.2,0.5-0.2c0.1,0,0.4,0.2,0.4,0.3c0.1,0.3,0,0.6,0,0.8c-0.1,0.7-0.4,1.4-0.5,2.1
		c-0.2,1.3-0.4,2.6-0.2,4c1.3,0,2.5,0.1,3.7,0.1c1.6-0.1,3.2-0.4,4.8-0.5c1.3,0,2.5-0.2,3.8-0.5c1.7-0.4,3.4-0.7,5.2-0.6
		c1.9,0.1,3.9,0.2,5.8,0.2c0.3,0,0.7,0,1-0.1c1.7-0.6,3.3-1.3,4.9-2c0.3-0.1,0.6-0.4,0.9-0.6c-0.6-0.5-1.2-1-1.7-1.4
		c-0.9-0.8-0.9-0.8-0.4-1.9c0.1-0.1,0.1-0.3,0.2-0.4c0.6-1,1.2-2.1,1.9-3.1c1-1.5,2.2-3,3.3-4.5c-0.5-0.8-0.5-1.5,0-2.2
		c0.2-0.3,0.3-0.7,0.6-1c1.9-2.7,3.7-5.4,5.7-8c1.7-2.1,2.8-4.6,4.2-6.9c1-1.6,1.6-3.3,2.3-5c0.6-1.5,1.2-3.1,1.7-4.6
		c0.8-2.1,1.6-4.2,2.4-6.2c-0.2-1,0.5-1.7,0.9-2.6c0.5-1.1,0.8-2.3,1.2-3.4c0.1-0.4,0.1-0.9,0.1-1.3c0-0.6-0.2-1.1-0.2-1.7
		c0-0.7-0.2-1.3-0.9-1.7c-0.6-0.4-1.1-0.8-1.6-1.2c-1.7-1.6-3.4-3.3-5.1-5c-0.7-0.7-1.3-1.4-1.9-2.1c-0.1-0.2-0.1-0.5-0.1-0.8
		c0.3,0,0.5-0.1,0.8,0c0.2,0.1,0.4,0.3,0.6,0.4c0.2,0.1,0.5,0.2,0.8,0.1c1.2-0.2,1.6-1.3,2.1-2.2c0.2-0.4,0.4-0.8,0.5-1.1
		c0-0.1,0-0.2,0-0.3c-0.1-0.5-0.2-1-0.3-1.6c-0.3-1.1-0.8-2.1-1.5-3.1c-0.4,0.3-0.8,0.5-0.9,0.8c-0.5,0.8-1.2,0.9-2,1.1
		c-0.3,0.1-0.6,0-0.8-0.2c-0.1-0.1,0.1-0.5,0.1-0.7c0-0.1,0-0.2,0.1-0.3c-1.1-0.8-1.3-0.9-0.9-2.4c-0.2-0.1-0.4-0.1-0.7-0.2
		c-1.5-0.3-3-0.6-4.5-0.9c-0.6-0.1-1.3-0.1-1.7-0.5c-0.7-0.6-1.4-0.7-2.2-1.1c-0.5-0.3-1-0.3-1.5-0.1c-0.9,0.3-1.8,0.5-2.7,0.8
		c-0.2,0.1-0.4,0.3-0.5,0.5c-0.5,0.8-1,1.7-1.5,2.6c-0.8,1.2-1.7,2.4-2.5,3.7c-0.9,1.4-1.7,2.9-2.6,4.4c-0.4,0.6-0.8,1.2-1.3,1.8
		c-0.2,0.3-0.4,0.5-0.8,0.3c-0.4-0.3-0.3-0.6-0.1-0.9c1.7-2,2.7-4.4,4.1-6.6c0.6-0.9,0.9-1.9,1.8-2.4c0.2-0.1,0.2-0.3,0.3-0.5
		c0.6-1,1.2-2,1.7-3.1c0.2-0.4,0.4-0.8,0.9-0.7c0.7,0.1,1.4-0.2,2-0.4c0.6-0.2,1.3-0.3,2-0.4c0.3,0,0.7,0.1,1,0.2
		c0.4,0.1,0.8,0.3,1.3,0.5c0.1-0.7,0.1-1.2,0.2-1.7c0.1-0.5,0.1-1.1,0.4-1.4c0.7-0.8,1.1-1.8,2.1-2.4c0.5-0.3,1-0.5,1.5-0.8
		c2.5-1.5,5-2.9,7.6-4c2.1-0.9,4.3-1.7,6.4-2.6c2-0.8,4-1.5,5.9-2.4c1.5-0.6,2.9-1.4,4.4-2.1c0.1-0.1,0.2-0.2,0.3-0.5
		c-1.1-0.2-2,0.2-2.9,0.4c-0.6,0.2-1,0.1-1.2-0.4c-0.2-0.4-0.5-0.6-1-0.5c-0.3,0.3-0.6,0.7-0.9,1.1c-0.5,0.8-1.2,0.9-2,0.6
		c-0.5-0.2-1.1-0.5-1.6-0.4c-0.5,0.1-0.8,0.8-1.1,1.2c-0.3,0.4-0.7,0.7-1.2,0.4c-1.3-0.7-2.2-0.1-2.9,1c-0.6,0.9-0.7,0.8-1.6,0.3
		c-1.2-0.7-1.7-0.7-2.7,0.3c-0.5,0.6-1.1,0.8-1.8,0.5c-0.7-0.2-1.2-0.1-1.6,0.7c-0.2,0.5-0.6,0.8-1.2,0.7c-0.6-0.2-0.9,0.1-1.3,0.5
		c-0.2,0.3-0.5,0.5-0.8,0.7c-0.3,0.3-0.7,0.4-1.1,0.2c-1.2-0.5-2.4-0.4-3.6,0.1c-2.6,1-5.2,1.9-7.8,2.7c-2.3,0.7-4.5,1.7-6.7,2.6
		c-1.9,0.7-3.8,1.4-5.7,2.1c-0.6,0.2-1.2,0.4-1.9,0.6c1.4,0.4,2.7,0.7,3.9,1.2c1.2,0.4,2.5,0.6,3.8,0.4c0.9-0.1,1.9-0.1,2.8,0.1
		c1.4,0.2,2.7,0.5,4.1,0.4c0.3,0,0.6,0,0.8,0.1c0.2,0.1,0.4,0.4,0.5,0.5c-0.2,0.1-0.4,0.3-0.6,0.3c-1,0-2,0.1-3,0.1
		c-0.2,0-0.5,0-0.7-0.1c-1.2-0.6-2.4-0.6-3.6-0.4c-1.5,0.2-2.9,0-4.3-0.4c-1.3-0.4-2.6-0.7-3.9-1.1C157.5,43,157.4,43,156.5,41.5z
		 M199.9,76.1c-0.1,0.1-0.2,0.2-0.2,0.3c-0.6,1.4-1.2,2.9-1.8,4.3c-1.3,3.2-2.5,6.4-3.8,9.6c-1.3,3.1-3,5.9-5,8.5
		c-1.8,2.4-3.6,4.9-5.3,7.3c-0.2,0.3-0.3,0.6-0.6,1c1-0.2,1.5,0.3,2.1,0.7c0.8,0.5,0.8,0.5,0.7,1.4c-0.1,0.4-0.1,0.9,0.4,1.1
		c0.8,0.5,1.2,1.3,1.5,2.2c0.3,0.9,0.1,1.4-0.7,1.8c-1.2,0.5-2.5,1-3.7,1.5c-1,0.4-2.3-0.2-2.7-1.2c-0.1-0.3-0.3-0.5-0.5-1
		c-1.3,1.6-2.4,3.1-3,5c0.4,0.3,0.8,0.7,1.3,1c0.5,0.3,1,0.6,1.2,1.1c0.1,0.2,0.4,0.4,0.7,0.4c1.4,0.3,2.9,0.4,4.3,0.7
		c1.3,0.2,2.6,0.5,3.8,0.8c1,0.2,1.9,0.5,2.9,0.7c1.3,0.2,2.6,0.4,3.9,0.6c0.6,0.1,1.2,0.3,1.8,0.4c1.4,0.4,2.9,0.4,4.3,0.5
		c2,0.2,4,0.5,6,1c1.5,0.3,2.9,0,4.2-0.7c1.6-0.8,3.2-1.6,4.8-2.5c1-0.6,1.9-1.3,2.8-1.9c0-0.8-0.9-1.2-0.4-2
		c-0.6,0.6-1.1,1.3-1.6,1.9c-0.5,0.7-1.2,1.3-2,1.3c-1,0-2-0.4-3-0.6c-0.3-0.1-0.6-0.2-0.9-0.2c-1.2,0-1.8-0.7-2.2-1.7
		c-0.6-1.3-0.6-1.8,0.5-2.8c0.4-0.4,0.7-0.9,0.8-1.4c0.1-0.7,0.3-1.4,0.5-2.1c0.2-0.7,0.6-1.3,1.3-1.7c0.9-0.5,1.7-1.2,2.5-1.8
		c0.2-0.2,0.3-0.5,0.3-0.7c0-1.3,0.8-2.3,1.2-3.5c0.5-1.4,1.7-2,2.8-2.8c0.2-0.1,0.5-0.1,0.7-0.2c0.3-0.1,0.6-0.1,0.8-0.2
		c0.8-0.2,1-0.4,1-1.3c0-0.2,0-0.5,0-0.7c0.2-1,0.5-2,1.5-2.5c1.1-0.6,1.3-1.5,0.6-2.6c-0.7-0.1-0.9,0.4-1.2,0.9
		c-0.7,1.3-1.5,2.6-2.2,3.9c-0.5,0.9-1.3,1.2-2.2,1c-0.6-0.1-1.2,0-1.7,0.4c-0.4,0.4-0.8,1-1.1,1.5c-0.2,0.3-0.4,0.7-0.6,1
		c-0.8,0.9-1.6,1.8-1.6,3.1c0,0.9-0.5,1.3-1.3,1.5c-1.5,0.4-3.1,0.9-4.6,1.3c-0.3,0.1-0.6,0.2-0.8,0.4c-0.7,0.7-1.4,1.4-2,2.2
		c-0.8,1-1.1,0.9-2.5,0.6c-0.7-0.2-1.1-0.9-1.1-1.8c0-1.2-0.1-2.3-0.1-3.5c-0.1-1.4,0.2-1.9,1.6-2.3c1-0.3,1.4-0.7,1-1.7
		c-0.3-0.9-0.1-1.5,0.6-2.1c0.4-0.4,0.8-0.8,1.3-1.1c0.4-0.3,0.8-0.6,1.1-1c0.7-1,1.6-1.8,2.7-2.4c0.2-0.1,0.5-0.4,0.6-0.7
		c0.5-1.7,1.8-2.6,3.4-3c0.4-0.1,0.7-0.2,1.1-0.4c0.7-0.4,0.9-1,1.2-1.7c0.2-0.5-0.2-0.9-0.4-1.3c-0.3-0.5-0.3-1-0.2-1.5
		c0.1-0.4,0-0.8,0-1.5c-1,0.9-2.2,1.2-2.8,2.2c-0.4,0.6-0.8,1.1-1.1,1.7c-0.2,0.4-0.5,0.8-0.5,1.3c-0.3,1.9-1.6,3.1-2.8,4.4
		c-0.2,0.2-0.5,0.3-0.7,0.4c-0.9,0.3-1.6,0.9-2.2,1.6c-1.3,1.4-2.3,2.9-2.6,4.9c-0.2,1.1-0.8,1.9-1.9,2.4c-1,0.5-1.6,1.3-2.1,2.2
		c-1,1.9-1.5,4-2,6c-0.2,0.6-0.2,1.2-0.3,1.8c0,0.3-0.1,0.7-0.5,0.7c-0.5,0-0.5-0.4-0.4-0.8c0-0.4,0.1-0.8,0.2-1.2
		c0-0.3,0-0.7,0-1.1c-0.4,0-0.6-0.1-0.9-0.1c-0.4,0-0.7-0.1-0.8-0.5c-0.1-0.7-0.6-0.9-1.2-1c-0.3,0-0.6-0.1-0.8-0.2
		c-0.8-0.3-1-0.9-0.6-1.7c0.1-0.2,0.3-0.5,0.5-0.7c0.4-0.6,0.4-1.2,0.2-1.8c-0.2-0.6-0.4-1.3-0.5-1.9c-0.2-0.8-0.1-1.6,0.3-2.3
		c0.4-0.6,0.3-1.1,0.1-1.7c-0.1-0.4-0.4-0.6-0.8-0.4c-0.3,0.1-0.5,0.2-0.8,0.1c-0.2,0-0.5-0.2-0.5-0.3c0-0.2,0.2-0.5,0.4-0.6
		c0.5-0.2,1-0.3,1.6-0.3c0.5,0,0.9,0.2,1.1,0.7c0.1,0.3,0.2,0.6,0.3,1c0.8-1.3,1.3-2.7,1.9-4.1c0.5-1.2,0.8-2.4,0.7-3.6
		c0-0.8,0.3-1.2,1-1.5c0.5-0.2,1.1-0.5,1.4-1c0.4-0.7,0.9-1.5,0.9-2.4c0-0.8,0.4-1.3,1-1.4c0.8-0.2,1.2-0.7,1.4-1.4
		c0.1-0.3,0.2-0.5,0.4-0.8c0.5-1,0.3-2.1,0.5-3.1c-0.5-0.8-0.4-1.5-0.1-2.4c0.2-0.8,0.1-1.8,0-2.7C200.9,77.1,200.5,76.5,199.9,76.1
		z M134.2,82.1c-0.1-1.2-0.2-2.3-0.3-3.4c-0.1-0.7,0.2-1.2,0.9-1.5c0.4-0.1,0.7-0.3,1.1-0.4c0.4-0.1,0.8-0.2,1.2-0.3
		c0.5-0.1,0.7-0.5,0.6-1c-0.1-0.9-0.2-1.8-0.3-2.7c-0.1-0.6,0.2-1,0.7-1.2c0.6-0.2,1.2-0.5,1.8-0.8c1.2-0.6,1.2-0.7,0.8-2
		c-0.1-0.4-0.3-0.7-0.4-1.1c-0.2-0.9-0.1-1.2,0.7-1.5c0.7-0.3,1.4-0.6,2-0.9c1.1-0.4,1.3-0.7,1.1-1.9c-0.1-0.6-0.2-1.2-0.3-1.8
		c-0.1-0.8-0.1-0.9,0.6-1.2c0.8-0.4,1.7-0.8,2.5-1.2c0.8-0.4,0.8-0.5,0.5-1.4c-0.2-0.7-0.3-1.4-0.4-2.1c-0.1-0.5,0.1-0.9,0.6-1.1
		c0.6-0.3,1.2-0.6,1.8-0.9c1-0.4,1-0.5,0.8-1.6c-0.2-0.9-0.3-1.8-0.4-2.7c-0.1-0.8,0.1-1.1,0.9-1.3c0.6-0.2,1.3-0.4,1.9-0.7
		c0.5-0.2,0.7-0.5,0.6-1.1c-0.1-0.3-0.2-0.7-0.3-1c-0.1-0.2-0.2-0.4-0.4-0.4c-0.9-0.2-1.8-0.4-2.7-0.5c-1.8-0.1-3.6-0.1-5.4-0.2
		c-0.5,0-1,0-1.3,0.5c-0.1,0.1-0.2,0.2-0.4,0.3c-1.7,1.1-3.4,2.2-5.1,3.2c-1.5,0.9-2.8,2.1-3.9,3.4c-1.7,2.1-3.1,4.3-4.2,6.7
		c-0.9,2-1.7,4-2.5,6c-0.2,0.5-0.3,1.1-0.5,1.6c-0.6,2.4-0.9,4.8-1,7.2c-0.1,3.3,0.1,6.7,0.1,10c0,0.4,0,0.8,0.1,1.2
		c0.1,1.3,0.3,2.7,0.4,4c0.1,1.3,0.2,2.6,0.4,3.9c0,0.2,0.2,0.4,0.3,0.7c0.6-0.4,0.4-0.8,0.3-1.3c-0.2-0.7-0.4-1.5-0.6-2.3
		c-0.1-0.6,0.2-1.1,0.7-1.3c0.8-0.3,1.7-0.5,2.5-0.7c0.3-0.1,0.7-0.1,1-0.2c0.7-0.2,0.9-0.4,0.7-1.1c-0.1-0.4-0.2-0.7-0.3-1.1
		c-0.3-1.3-0.1-1.7,1.1-2.3C133,82.6,133.6,82.3,134.2,82.1z M123.5,41.5c-1.8-0.2-3.4-0.3-5-0.5c-1-0.1-2.1-0.1-3-0.4
		c-1.6-0.5-3.1-1.1-4.6-1.7c-1.2-0.5-2.3-1.1-3.3-1.7c-0.4,0.2-0.6,0.4-0.9,0.4c-0.8,0-1.4,0.5-2,1c-0.9,0.7-1.8,1.4-2.8,2
		c-1.1,0.7-2.3,1.2-3.5,1.8c-1.1,0.6-2.3,1.2-3.4,1.8c-0.5,0.3-1.1,0.6-0.9,1.3c0.1,0.7,0.8,0.6,1.3,0.7c1.8,0.2,3.5,0.9,5.1,1.6
		c1.5,0.7,3,1.5,4.7,1.5c0.3,0,0.6,0.1,0.8,0.2c1.9,0.4,3.7,0.8,5.6,1.2c0.5,0.1,1.1,0.1,1.5-0.3c1.4-1.3,3.2-2.1,4.5-3.5
		c1.2-1.3,3-2,4.1-3.5C122.3,42.6,122.9,42.1,123.5,41.5z M209.3,90.4c-0.8,0.3-1.4,0.1-1.8-0.6c-0.2-0.3-0.5-0.4-0.8-0.6
		c-0.7-0.5-0.9-1.1-0.5-1.9c0.1-0.2,0.3-0.3,0.4-0.5c-0.3-0.1-0.5-0.1-0.8-0.2c0,0.8-0.5,1.2-1.2,1.2c-0.4,0-0.8-0.2-1.2-0.4
		c-0.7-0.4-0.8-0.5-0.6-1.2c0.3-0.9,0.3-1.7,0.3-2.6c0-0.6,0.2-1.3,0.2-1.9c0-0.2,0.1-0.5,0.1-0.7c-0.9-0.2-1.6-0.1-1.9,0.8
		c0.1,0.4,0.5,0.9,0.4,1.3c-0.2,1.2-0.1,2.4-0.8,3.5c-0.2,0.4-0.4,0.8-0.3,1.3c0.3-0.1,0.5-0.1,0.7-0.1c1.6-0.5,3,0.5,3.7,1.6
		c0.4,0.8,0.4,1.2-0.3,1.9c-0.1,0.1-0.3,0.3-0.4,0.5c0.7-0.2,1.2-0.6,1.8-0.8c0.6-0.2,1.2,0.1,1.7,0.7c0,0.2-0.1,0.3-0.1,0.4
		c-0.5,1.5-0.9,1.6-2.4,1.1c-0.2-0.1-0.5,0-0.7,0c-0.8,0.1-0.8,0.1-1.2-0.6c-0.2-0.4-0.5-0.7-0.7-1c-0.2,0-0.3,0-0.4,0.1
		c-0.5,0.2-1,0.6-1.5,0.1c-0.3-0.4-0.6-0.9-0.7-1.4c-0.1-0.2,0-0.6,0-0.8c0-0.2-0.1-0.5-0.1-0.7c-1.4,0.2-1.4,0.3-1.6,1.4
		c0,0.1,0,0.2,0,0.3c-0.2,1.2-0.6,2.3-1.9,2.8c-0.1,0-0.3,0.1-0.4,0.2c-0.5,0.2-0.7,0.6-0.8,1.2c-0.1,1-0.3,2.1-0.7,3.1
		c-0.4,1.2-1,2.4-1.5,3.6c-0.3,0.8-0.7,1.5-1.4,2c-0.5,0.4-0.7,0.9-0.7,1.5c0,0.6,0.1,1.2,0.3,1.8c0.1,0.5,0.3,1.1,0.5,1.6
		c0.8-0.7,1-2,2.2-2.4c-0.3-0.4-0.6-0.7-0.8-1c-0.7-0.9-0.6-1.8,0.2-2.6c0.7-0.7,1.6-1.2,2.3-1.9c0.3-0.2,0.6-0.3,1-0.2
		c1.2,0.4,2,1.1,2.6,2.2c0.2,0.4,0.4,0.8,0.7,1.3c0.6-0.9,0.5-1.7,0.7-2.4c-0.1-0.1-0.1-0.1-0.1-0.1c-0.9-0.2-1.1-1-1.3-1.8
		c-0.2-0.6,0.6-0.7,0.9-1.1c0,0,0-0.1,0-0.1c-0.3-0.1-0.7-0.2-1.1-0.3c-0.7-0.3-0.9-0.7-0.8-1.2c0.2-0.7,0.6-1.1,1.4-1
		c0.2,0,0.4,0.1,0.7,0.1c0.3-0.5,0.5-1,0.8-1.5c0.4-0.6,0.8-0.6,1.2-0.1c0.8,0.9,1.6,1.7,1.3,3.2c0.6-0.3,1.1-0.6,1.7-0.9
		c1.4-0.7,2.2-1.9,2.7-3.3C209,92.4,209.1,91.5,209.3,90.4z M228.3,103.5c0.3-0.2,0.5-0.4,0.8-0.6c0.8-0.5,1.2-0.4,1.5,0.6
		c0.1,0.4,0,1,0.6,1.3c0.3-0.4,0.5-0.8,0.6-1c-0.3-0.8-0.6-1.5-0.9-2.1c-0.6-0.1-1.2-0.1-1.6-0.4c-0.7-0.4-1.2-0.6-2-0.1
		c-0.2,0.1-0.6,0-0.7-0.2c-0.3-0.3-0.1-0.6,0.2-0.8c0.4-0.3,0.7-0.6,1.1-0.9c-0.2-0.3-0.4-0.7-0.6-0.9c-0.7-0.3-1.4-0.6-2.1-0.8
		c-0.4,0.4-0.7,0.7-1.1,0.9c-1.1,0.6-1.5,1.5-1.5,2.7c0,1.3-0.4,1.8-1.7,2.2c-0.6,0.2-1.3,0.3-1.8,0.6c-1.8,1.1-2.5,2.9-2.9,4.8
		c-0.1,0.6-0.1,1.2-0.6,1.6c-0.6,0.5-1.2,1-1.9,1.4c-1.3,0.7-1.9,1.7-2.1,3.1c-0.1,0.3-0.1,0.6-0.2,0.9c-0.2,0.7-0.4,1.3-1.1,1.6
		c-0.5,0.3-0.6,0.7-0.4,1.2c0.2,0.6,0.3,1.4,1.1,1.5c0.6,0.1,1.3,0.2,2,0.4c-0.1-0.4-0.2-0.7-0.2-1c-0.3-1.3,0.1-2.5,1-3.4
		c0.4-0.4,0.6-0.8,0.6-1.4c0.1-1,0.7-1.4,1.7-1.2c0.6,0.1,1,1,0.8,1.7c0,0.2-0.1,0.3-0.2,0.4c0.4,0.6,0.8,1.1,1.2,1.6
		c0.2,0.2,0.5,0.4,0.6,0.4c0.3-0.1,0.6-0.3,0.8-0.6c0.2-0.4,0.2-0.9,0.3-1.3c-2.5-0.5-2.8-1.1-2.7-3.2c-0.2-0.3-0.5-0.6-0.7-1
		c-0.3-0.6-0.2-0.8,0.4-1.1c0.3-0.1,0.5-0.3,0.7-0.6c0.4-0.6,0.8-1.1,1.5-1.3c0.9-0.2,1.9-0.4,2.9-0.6c0.3-0.4,0.7-0.7,1.1-1.1
		c0.2-0.2,0.4-0.5,0.4-0.7c-0.3-0.8,0-1.4,0.5-2c-0.3-0.5-0.6-1-0.9-1.5c1-1.1,1.7-1,2.7,0.2c0.6-0.1,0.9-0.6,1.3-1
		c0.2-0.2,0.5-0.3,0.7-0.2c0.2,0.1,0.3,0.5,0.2,0.7C227.9,102.9,227.7,103.2,228.3,103.5z M211.1,69c-0.6,0.1-1,0.2-1.4,0.3
		c-2.2,0.5-4.4,1.1-6.6,1.6c-1.3-0.2-1.7,0.6-2.1,1.6c-0.1,0.2-0.1,0.5-0.3,0.7c-0.5,0.8-0.4,1.5,0.3,2.1c0.4,0,0.8,0,1.2,0.1
		c1.1,0.1,2,0.8,2.8,1.5c0.5,0.4,0.9,0.8,1.5,0.8C207.9,74.6,209.5,71.9,211.1,69z M209.5,78.3c-0.1,0.4-0.2,0.6-0.2,0.8
		c-0.3,1.5-1.5,2.3-2.2,3.6c-0.2,0.3-0.6,0.2-0.7-0.1c-0.1-0.2-0.1-0.5,0-0.7c0.2-0.4,0.5-0.8,0.8-1.2c0.5-0.6,1-1.3,1-2.2
		c-0.9,0.1-1.7,0.3-2.5,0.4c-0.3,1.1-1.2,1.8-1.3,2.9c0,0.8-0.2,1.7-0.1,2.5c0,0.5,0.4,1,1,1.1c0.6,0.1,1.2,0.4,1.7,0.5
		c0.3,0,0.8-0.1,0.9-0.3c0.5-0.7,1.1-1.3,1.4-2.1c0.4-1.1,0.8-2.2,1.6-3C210.6,79.7,210.1,79,209.5,78.3z M210.5,97.9
		c0.3,0,0.6,0,0.9,0c0.8,0,0.9,0.1,1,1c0,0.2,0.1,0.4,0.1,0.5c0.4,0.5,0.5,1.1,0.3,1.7c-0.1,0.1,0,0.4,0.1,0.5
		c0.4,0.5,0.7,1,1.1,1.6c0.1-0.2,0.2-0.3,0.3-0.4c0.8-1.7,2-2.8,4-2.6c0.8,0.1,1.2-0.5,1.6-1.2c-0.3-0.1-0.7-0.2-0.9-0.4
		c-0.3-0.2-0.5-0.4-0.7-0.6c-0.9,0.9-1.8,0.9-2.6,0c-0.3-0.3-0.6-0.5-1-0.5c-0.3,0-0.6,0-0.8-0.1c-1-0.2-1.1-0.3-1.3-1.4
		c-0.1-0.4-0.1-0.8-0.1-1.2C210.8,95.2,210.3,96,210.5,97.9z M180.9,113.1c0.3,0.4,0.5,0.8,0.7,1.2c0.5,0.9,0.9,1.2,1.9,0.8
		c1.1-0.4,2.1-0.9,3.1-1.4c0.3-0.2,0.4-0.4,0.3-0.8c-0.2-0.8-0.5-1.4-1.2-1.8c-0.6-0.4-0.8-0.9-0.7-1.5c0.1-0.7-0.5-1.5-1.2-1.6
		c-0.8-0.2-1.5,0.4-1.2,1c0.4,0.7,0.2,1.3-0.1,1.9c0.8,0.4,1.6,0.8,2.4,1.2c-0.1,0.6-0.4,0.8-0.9,0.6c-0.3-0.1-0.5-0.2-0.8-0.4
		C182.1,111.6,181.8,111.7,180.9,113.1z M209.5,103.1c-0.2-0.4-0.4-0.7-0.4-1c0-0.5-0.2-1.2,0.1-1.5c0.5-0.8,0.3-1.6,0.5-2.5
		c-1,0.4-1.9,0.8-2.4,1.6c-0.5,0.8-1.1,1.3-1.9,1.9c-0.4,0.3-0.7,0.6-1,0.9c-0.2,0.2-0.3,0.6-0.3,0.9c0,0.7,0.2,1.4,0.3,2.1
		c0.6,0.3,1.1,0.2,1.5-0.2c0.6-0.4,1.2-0.8,1.8-1.1C208.3,103.7,208.9,103.4,209.5,103.1z M223.5,112c-0.4-0.7-0.6-1.2-0.9-1.7
		c-0.1-0.2-0.3-0.5-0.5-0.6c-0.8-0.5-2.5-0.3-3.2,0.3c-0.3,0.3-0.5,0.6-0.2,1c0.6,0.8,0.3,1.5-0.2,2.2c-0.6,0.9-0.3,1.5,0.7,1.6
		c0.4,0.1,0.9,0,1.3,0.1c0.7,0.2,1.1-0.1,1.5-0.6C222.5,113.5,223,112.7,223.5,112z M206.4,106.2c0.4,0.6,0.8,0.5,1.3,0.2
		c0.7-0.4,1.4-0.7,2.1-1c0.4-0.2,0.8-0.2,1.1,0.5c-0.3,0.2-0.6,0.3-0.9,0.5c-0.6,0.3-1.2,0.6-1.8,0.9c-0.7,0.4-0.7,0.5-0.4,1.5
		c0.5-0.1,1.1-0.2,1.6-0.4c0.6-0.2,1.1-0.4,1.7-0.6c0.7-0.2,1.1-0.6,1-1.4c0-0.7,0.2-1.2,0.7-1.7c0.5-0.5,0.5-0.8,0.1-1.4
		c-0.2-0.3-0.4-0.5-0.6-0.7C210.5,103.4,207,105.5,206.4,106.2z M200,105c-0.5-0.7-0.8-1.3-1.2-1.9c-0.3-0.5-0.7-1-1.1-1.4
		c-0.6-0.5-0.9-0.5-1.5,0c-0.4,0.3-0.8,0.7-1.2,1c-0.8,0.7-0.7,1-0.2,1.9c0.4,0.7,0.7,1.4,1.1,2.2c0.2,0.5,0.5,0.9,1.1,1.1
		c0.3-0.5,0.6-1,0.9-1.5c-0.4-0.7-0.8-1.4-1.2-2c-0.1-0.2-0.3-0.4-0.4-0.6c0-0.2,0.1-0.5,0.2-0.6c0.1-0.1,0.5,0,0.6,0.1
		c0.2,0.2,0.4,0.6,0.6,0.9c0.3,0.5,0.7,1,1,1.6C199.2,105.4,199.6,105.2,200,105z M202.1,112.2c0.1,0,0.2,0,0.3-0.1
		c0-0.2,0.1-0.3,0.1-0.5c0.1-1,0.2-2,0.2-3c0-0.4,0.1-0.8,0.7-0.8c0.6,1.3-0.3,2.6,0.2,4c0.8-1.1,1.9-1.8,2.5-2.9
		c0.4-0.8,0.3-1.1-0.2-1.7c-1-1.1-2.2-1-3.4-0.7c-0.8,0.2-0.9,0.2-0.9,1.1c0,1.3,0.1,2.6,0.2,3.9C201.8,111.8,202,112,202.1,112.2z
		 M226.6,103.7c-0.7,0.4-1.3,0.8-1.9,1.3c-0.4,0.3-0.5,0.7-0.2,1.1c0.5,1,1.1,2,2.1,2.8C228.7,107.4,228.9,106.1,226.6,103.7z
		 M210.1,89.6c0.2-0.3,0.4-0.5,0.6-0.7c0.6-0.7,0.6-1.3,0.2-2.1c-0.4-0.7-0.7-1-1.4-0.6c-0.8,0.4-1.5,1-2.2,1.6
		c-0.1,0.1-0.1,0.6,0.1,0.7c0.7,0.5,1.2,1.3,2.3,1C209.8,89.5,209.9,89.5,210.1,89.6z M212.3,87.4c0.8-0.2,1.1-0.8,1.5-1.5
		c-0.3-0.4-0.5-0.9-0.8-1.2c-0.5-0.4-0.7-0.9-0.7-1.5c0-0.7-0.3-1.1-0.9-1.6c-0.5,1.2-1,2.2-1.5,3.4
		C211.6,84.9,211.6,86.5,212.3,87.4z M184.6,39.8c-1.2,1.1-1.5,2.3-1.4,3.6c0,0.3,0.1,0.6,0.3,0.7c0.7,0.5,1.4,0.8,2.4,0.7
		C185.4,43.2,185.4,41.5,184.6,39.8z M215,93.8c-1.3,0.2-1.5,0.9-1.5,1.6c0,0.4,0,0.9,0.5,1c0.7,0.2,1.2,0.1,1.6-0.4
		c0.4-0.5,0.8-0.9,1.3-1.4c0.3-0.3,0.5-0.7,0.2-1.1c-0.2-0.3-0.4-0.7-0.4-1.1c0-0.6-0.3-0.7-0.9-0.8c0,0.3-0.1,0.6-0.1,0.9
		c0,0.4,0.1,0.8,0.1,1.3c0,0.3,0,0.6-0.1,0.8c-0.1,0.2-0.3,0.3-0.5,0.3c-0.1,0-0.3-0.2-0.3-0.4C215.1,94.4,215,94.1,215,93.8z
		 M192.9,110.3c0.6,0.2,1.1,0.5,1.7,0.6c0.5,0.1,0.9-0.2,1.2-0.7c0.5-0.8,0.3-1.4-0.3-1.9c-0.3-0.3-0.6-0.6-0.7-0.8
		C193.1,107.7,193,108.9,192.9,110.3z M203.6,78.3c-0.1,0.8-0.6,0.6-1,0.8c-0.4,0.2-0.6,0.4-0.3,0.8c0.4,0,0.8,0,1.1-0.1
		c1-0.2,1.5-1.4,1-2.2c-0.4-0.6-1.5-1.1-2.4-1c0.1,0.5,0.1,1,0.2,1.5C202.6,78.2,203.1,78.2,203.6,78.3z M201.7,90.7
		c0.8,0,1.3,0.1,1.9,0c0.3,0,0.7-0.2,0.9-0.5c0.1-0.1-0.1-0.6-0.3-0.8c-0.3-0.6-0.9-0.8-1.5-0.9c-0.7-0.1-1.2,0.3-1.3,1
		C201.3,90.1,201.5,90.5,201.7,90.7z M226,109.9c-0.6-0.7-1.1-1.4-1.6-2c-0.1-0.2-0.4-0.3-0.6-0.2c-0.3,0.1-0.4,0.3-0.3,0.7
		c0.1,0.6,0.2,1.2,0.4,1.8c0.3,0.8,1.2,1,1.8,0.4C225.8,110.3,225.9,110.1,226,109.9z M193.7,47.6c-0.9-0.5-1.5-1.2-2.4-1.3
		c-0.2,0.4-0.5,0.7-0.7,1.1c-0.2,0.3-0.1,0.7,0.3,0.8c0.6,0.1,0.8,0.6,0.8,1.4C192.4,48.8,193,48.3,193.7,47.6z M218.5,94.3
		c1.3-0.1,2.4,0.2,3.5,0.9c0.2-0.3,0.3-0.6,0.4-0.8c-1.1-1.4-2.6-0.7-3.9-0.8C218.5,93.9,218.5,94,218.5,94.3z M218.9,95.5
		c0.4,0.8,0.1,1.7,0.8,2.3c0.6-0.1,0.8-0.4,0.9-0.8c0.1-0.3,0.2-0.6,0.2-0.9C220.7,95.5,220,95.3,218.9,95.5z M203.1,97.9
		c-0.3-0.8,0.4-1.9-0.7-2.6c-0.5,0.6-0.8,1.3-0.8,2.2C202.1,97.6,202.4,98.1,203.1,97.9z M216.9,97.6c0.9-0.5,0.7-1.3,0.9-2
		C216.6,95.7,216.4,96.3,216.9,97.6z M202.7,99.2c0-0.1-0.1-0.2-0.1-0.3c-0.5,0.1-0.9,0.1-1.4,0.3c-0.4,0.2-0.4,0.5-0.1,0.8
		c0.1,0.1,0.4,0.2,0.6,0.3C202.1,99.9,202.4,99.5,202.7,99.2z M229.6,103.9c-0.7,0.5-0.8,0.9-0.5,1.5c0.1,0.2,0.3,0.2,0.4,0.4
		c0.1-0.2,0.4-0.4,0.4-0.5C229.9,104.9,229.8,104.5,229.6,103.9z M211.7,100.8c0.4-0.6,0.4-0.6-0.6-2.1c-0.1,0.3-0.3,0.5-0.3,0.6
		C211.1,99.8,211.4,100.3,211.7,100.8z M192.8,111.4c-0.6-0.4-1.1-0.7-1.6-1c-0.2,0.3-0.3,0.6,0.2,0.7
		C191.8,111.3,192.3,111.3,192.8,111.4z M210,100.9c0.1,0.7,0,1.1,0.6,1.3c0.1,0,0.2-0.1,0.3-0.1C210.9,101.5,210.6,101.3,210,100.9
		z M194.8,112.3c-0.5-0.2-0.8-0.4-1.3-0.6c0.1,0.4,0.2,0.7,0.3,1C194.1,112.6,194.3,112.5,194.8,112.3z M204.8,86.5
		c-0.2-0.4-0.4-0.6-0.8-0.4c-0.1,0-0.1,0.2-0.1,0.3C204.2,86.8,204.4,86.7,204.8,86.5z M200.7,96.9c-0.2-0.1-0.4-0.3-0.5-0.3
		c0,0-0.2,0.2-0.2,0.3c0.1,0.2,0.3,0.3,0.5,0.4C200.4,97.1,200.5,97,200.7,96.9z M229.1,107.3c0.1,0.1,0.2,0.2,0.3,0.3
		c0.2-0.2,0.4-0.4,0.5-0.7c-0.1-0.1-0.2-0.2-0.3-0.2C229.5,106.9,229.3,107.1,229.1,107.3z M217.6,111.3c-0.1,0.1-0.2,0.1-0.2,0.2
		c0.2,0.1,0.3,0.3,0.5,0.4c0.1-0.1,0.1-0.1,0.2-0.2C217.9,111.7,217.8,111.5,217.6,111.3z M206.7,92.4c0.1-0.1,0.2-0.2,0.2-0.3
		c0-0.1-0.1-0.2-0.2-0.3c-0.1,0.1-0.1,0.2-0.1,0.2C206.5,92.2,206.6,92.3,206.7,92.4z M221.2,116.5c0,0-0.1-0.1-0.1-0.1
		c-0.2,0.2-0.3,0.3-0.5,0.5c0,0,0.1,0.1,0.1,0.1C220.9,116.8,221,116.7,221.2,116.5z M224.3,103.2c0,0.1,0,0.1,0,0.2
		c0.1,0,0.1,0,0.2,0c0,0,0-0.1,0-0.1C224.4,103.2,224.3,103.2,224.3,103.2z M215.6,114.8c0,0-0.1,0.1-0.1,0.1c0.1,0,0.1,0.1,0.2,0.1
		c0,0,0.1-0.1,0.1-0.1C215.8,114.8,215.7,114.8,215.6,114.8z"/>
	<path d="M66.8,34.7c-0.1,0.6-2.2,4.7-3.9,7.6c2.2,0,4.2,0.5,6.3,1c0.4,0.1,0.9,0.2,0.7,0.8c-0.2,0.5-0.7,0.4-1.1,0.3
		c-1.4-0.3-2.8-0.7-4.2-1c-0.3-0.1-0.7,0-1-0.1c-0.4,0-0.8-0.1-1.2-0.2c0-0.1,0-0.2-0.1-0.2c-0.3,0.4-0.7,0.7-1,1.1
		c-1,1.6-2.5,2.7-4.2,3.5c-1.2,0.6-2.5,1.2-3.8,1.7C50.2,50.4,47,52,44,53.8c-2,1.2-4,2.3-6,3.4c-0.7,0.4-1.3,0.9-2,1.3
		c-1.2,0.7-2.5,1.4-3.8,2c-2,0.9-4.1,1.7-6.1,2.5c-1,0.4-2,0.6-3,1.1c-0.8,0.4-1.6,0.9-2.4,1.3c-0.2,0.1-0.4,0.3-0.6,0.3
		c-0.1,0-0.4,0-0.5-0.1c-0.1-0.1-0.1-0.4-0.1-0.5c0.1-0.2,0.4-0.4,0.6-0.6c1.4-1,2.9-1.7,4.6-2.2c2.6-0.7,5.1-1.6,7.4-3
		c0.4-0.2,0.8-0.4,1.2-0.5c1.1-0.4,1.9-1.2,2.9-1.7c2.1-1.2,4.3-2.4,6.4-3.6c1.1-0.6,2.1-1.1,3.1-1.8c2.9-1.7,6-2.9,9.1-4.2
		c1.5-0.6,2.8-1.4,4.2-2.3c0.3-0.2,0.5-0.4,0.7-0.7c1.7-2.1,3.5-4.2,4.5-6.7c0.4-1,1-1.9,1.6-2.9C66.1,34.4,66.1,34.5,66.8,34.7z"/>
	<path d="M28.4,48.9c0.3-0.8,0.8-1.5,1.4-2.1c2.3-2.2,4.1-4.8,6.3-7.2c2-2.3,3.9-4.7,6-6.9c2.6-2.9,5.2-5.8,7.9-8.6
		c2.1-2.2,4.1-4.6,6.6-6.5c1.1-0.9,2-2,3-3c1.3-1.2,2.5-2.5,3.8-3.7c0.2-0.2,0.5-0.3,0.7-0.4c0.3-0.1,0.5,0.3,0.3,0.6
		c0,0.1-0.1,0.1-0.1,0.2c-1.2,1.2-2.4,2.3-3.6,3.5c-0.8,0.7-1.5,1.5-2.3,2.2c-1.4,1.3-2.8,2.6-4.2,4c-2.1,2.2-4.2,4.5-6.3,6.8
		c-2.4,2.6-4.7,5.2-7,7.8c-2.7,3.1-5.3,6.4-8,9.5c-1.1,1.3-2.2,2.5-3.3,3.7c-0.2,0.2-0.5,0.4-0.8,0.5C28.5,49.1,28.4,49,28.4,48.9z"
		/>
	<path d="M78.5,71c-1.9,0-1.8-0.5-1.6-2c0.3-2.8,0.6-5.6,1-8.3c0.1-0.6,0.2-1.1,0.3-1.7c0.2-0.8,0.4-1,1.2-0.9c0.3,0,0.6,0,1,0
		c1.7-0.1,3.4-0.2,5.1-0.2c1.3,0,2.6,0.3,3.7,1c1.7,1.1,2.3,3.4,1.2,5c-0.4,0.6-0.9,0.9-1.5,1c-2.2,0.6-4.4,0.9-6.7,0.9
		c-1.1,0-1.2,0-1.5,1.2c-0.3,0.9-0.5,1.9-0.7,2.9C79.6,71,79.5,71.1,78.5,71z M78.6,70.1c0.4-1.5,0.9-2.9,1.2-4.2
		C80,65.1,80,65,80.9,65c1,0,2.1,0,3.1,0c1.6-0.1,3.1-0.3,4.6-0.8c0.6-0.2,1-0.6,1.2-1.1c0.4-1.1,0.1-2.4-1-3.1
		c-0.8-0.5-1.7-0.9-2.5-1c-2.1-0.2-4.2-0.2-6.4,0.2c-0.4,0.1-0.6,0.3-0.7,0.7c-0.1,0.5-0.2,1-0.3,1.5c-0.2,1.6-0.4,3.3-0.6,4.9
		c-0.2,1.2-0.4,2.4-0.6,3.6C77.9,69.9,78.2,70,78.6,70.1z"/>
	<path d="M101.4,86.8c-0.6,0-0.8-0.4-0.7-0.9c0.4-2.1,0.3-4.3,1.4-6.2c0.2-0.4,0.3-0.9,0.4-1.3c0.1-0.3,0.2-0.6,0.6-0.6
		c0.8,0,1.6-0.1,2.4-0.1c1.1,0,2.2,0.1,3.3,0.3c1.5,0.3,2.3,1.5,2.3,3c0,0.8-0.3,1.4-0.9,1.8c-0.3,0.2-0.5,0.4-0.8,0.6
		c0.4,0.2,0.7,0.4,0.9,0.6c0.7,0.4,1.3,1,1.2,1.9c-0.1,0.9-0.8,1.4-1.6,1.7c-0.8,0.3-1.6,0.5-2.4,0.8c-0.4,0.1-0.9,0.2-1.3,0.1
		c-1.6-0.2-3.1-0.5-4.8-0.8C101.4,87.3,101.4,87,101.4,86.8c0.3,0,0.7,0,1,0c1.1,0.2,2.3,0.5,3.4,0.7c1.4,0.2,2.6-0.5,3.8-1
		c0.7-0.3,0.6-0.9,0.1-1.4c-0.3-0.3-0.7-0.4-1.1-0.7c-0.3-0.2-0.7-0.3-1-0.5c-0.5-0.4-0.4-0.9,0.2-1.1c0.4-0.2,0.9-0.3,1.3-0.5
		c0.8-0.4,1-0.9,0.9-1.8c-0.1-1-0.9-1.5-1.8-1.6c-1.3-0.2-2.6-0.2-3.9-0.3c-0.4,0-0.7,0.2-0.9,0.6c-1.1,2.1-1.6,4.3-1.7,6.6
		C101.7,86.2,101.5,86.5,101.4,86.8z"/>
	<path d="M45.1,62.2c-0.3,0.6-0.6,1.3-1,1.9c-0.2,0.4-0.4,0.8-0.9,0.7c-0.5-0.1-0.6-0.6-0.6-1c0-0.2,0-0.4-0.2-0.7
		c-0.1,0.2-0.2,0.5-0.3,0.7c-0.2,0.2-0.4,0.5-0.6,0.4c-0.4,0-0.3-0.4-0.2-0.7c0.3-1,0.6-2,1-3c0.1-0.2,0.4-0.4,0.6-0.4
		c0.2,0,0.5,0.3,0.6,0.5c0.2,0.6,0.2,1.2,0.4,1.8c0.2-0.5,0.5-1,0.7-1.5c0.2-0.4,0.4-0.7,0.9-0.5c0.4,0.1,0.5,0.5,0.2,0.9
		c1.3,0.3,2.4,0.5,3.6,0.8c0.2,0,0.4,0.2,0.6,0.4c0.2,0.3,0.3,0.6,0.4,0.8c0,0.1-0.1,0.2-0.1,0.2c-0.7,0.2-1,0.7-1.1,1.4
		c-0.1,0.4-0.1,0.8-0.3,1.1c-0.1,0.2-0.5,0.3-0.7,0.3c-0.1,0-0.3-0.4-0.2-0.6c0.1-0.6,0.3-1.1,0.4-1.6c0.2-1,0-1.3-0.9-1.5
		c-0.2,0-0.4-0.1-0.7-0.1c-0.1,0.2-0.2,0.5-0.3,0.8c0.4,0.2,0.7,0.3,1,0.5c-0.1,0.7-0.8,0.5-1.2,0.8c0.3,0.1,0.6,0.1,0.9,0.2
		c0.2,0.1,0.3,0.3,0.3,0.5c0,0.2-0.2,0.4-0.4,0.4c-0.5,0.1-1,0.1-1.5,0.1c-0.5,0-0.7-0.4-0.6-0.9c0.1-0.5,0.3-1.1,0.5-1.6
		c0.1-0.3,0.1-0.6,0.1-0.9C45.2,62.2,45.2,62.2,45.1,62.2z"/>
	<path d="M117.9,74.4c-0.4,0.4-0.5,1-0.5,1.5c0,0.9-0.3,1.1-1.1,1c-0.5-0.1-0.9-0.1-1.4-0.2c-0.3-0.5-0.2-1.1-0.1-1.6
		c0.2-1.1,0.6-2.2,0.9-3.3c0.1-0.4,0.6-0.6,1.2-0.3c0.7,0.4,1.4,0.5,2.1,0.6c0.8,0.1,1.5,1.1,1.5,2c-0.1,0.8-0.2,1.6-0.3,2.4
		c-0.1,0.6-1.5,1.1-2,0.7c-0.1-0.1-0.2-0.4-0.2-0.6c0-0.4,0.1-0.7,0.1-1.1c0-0.4,0.1-0.8,0.1-1.1C118.1,74.5,118,74.4,117.9,74.4z
		 M116.2,73.1c-0.1,0.9-0.2,1.7-0.3,2.5c0.5-0.7,0.9-1.5,1.3-2.3c0,0,0-0.1-0.1-0.1C116.9,73.2,116.7,73.2,116.2,73.1z M118.2,73
		c0.4,0.4,0.7,0.8,1,1.1C119.2,73.5,118.9,73.1,118.2,73z"/>
	<path d="M99.3,71.5c-0.9-0.6-1-0.8-0.7-1.6c0.1-0.4,0.4-0.6,0.8-0.6c0.6-0.1,0.9-0.5,1.1-1c0-0.1,0.1-0.2,0.1-0.3
		c0.4-1,0.7-1.1,1.7-0.7c0.7,0.3,0.9,0.5,0.7,1.3c0,0.2-0.1,0.4-0.2,0.6c0.1,0.1,0.1,0.2,0.2,0.3c0.4,0.3,0.8,0.5,0.6,1.1
		c-0.2,0.5-0.2,1.1-1,1.2c-0.4,0-0.8,0.1-0.8,0.7c0.3,0.1,0.7,0.2,0.9,0.4c0.2,0.3,0.5,0.7,0.5,1c0,0.2-0.4,0.5-0.6,0.6
		c-0.4,0.1-0.8,0.2-1.2,0.2c-1.7,0-2.5-0.9-2.1-2.6C99.2,71.9,99.2,71.7,99.3,71.5z M102.2,70.6c-0.9-0.5-0.9-0.5-0.6-1.4
		c0.1-0.2,0.2-0.4,0.2-0.6c0-0.2,0-0.3-0.1-0.6c-1.1,2.1-1.1,2.1-1.7,2.2c0.5,0.3,0.7,0.7,0.4,1.3c-0.1,0.2-0.1,0.3-0.2,0.5
		c-0.3,1.2,0,1.6,1.3,1.6c-0.5-0.2-1.2-0.4-1-1C100.8,71.8,100.9,70.8,102.2,70.6z"/>
	<path d="M64.3,33c-1.6-0.3-2.4-1.4-2.2-2.9c0.4-2.8,0.9-5.6,1.6-8.3c0.2-0.8,0.3-1.5,0.4-2.3c0.2-2,0.8-3.8,1.5-5.6
		c0.2-0.4,0.4-0.8,0.6-1.2c0.1,0,0.2,0.1,0.2,0.1c-0.1,0.7-0.3,1.5-0.4,2.2c-0.3,1.7-0.7,3.3-1,5c-0.3,1.5-0.6,2.9-0.9,4.4
		c-0.3,1.7-0.6,3.5-1,5.2c-0.2,0.9,0.1,1.7,0.8,2.3C64.2,32.1,64.7,32.4,64.3,33z"/>
	<path d="M17.9,64.3c0.6-1,1.2-2.1,1.7-3.1c0.4-0.7,0.8-1.4,1.2-2.1c0.2-0.4,0.5-0.9,0.8-1.3c0.3-0.5,0.7-0.7,1.3-0.7
		c0.9-0.1,0.9-0.2,0.9-1c0-0.4,0.2-0.7,0.5-0.8c0.6-0.2,0.7-0.7,0.6-1.2c-0.3-1.4,0.6-2.3,1.2-3.3c0.2-0.3,0.5-0.4,0.8-0.2
		c0.3,0.2,0.2,0.6,0,0.9c-0.1,0.2-0.2,0.4-0.4,0.6c-0.5,0.7-0.7,1.4-0.6,2.3c0.1,0.6-0.1,1.2-0.6,1.6c-0.3,0.2-0.4,0.5-0.4,0.9
		c0,0.9-0.1,1.1-0.9,1.1c-1.3,0-1.8,0.8-2.3,1.8c-0.8,1.5-1.7,2.9-2.6,4.4C18.8,64.7,18.7,64.7,17.9,64.3z"/>
	<path d="M108.7,73.9c0.3,1.3-0.1,1.8-1.4,1.8c-0.4,0-0.8-0.1-1.1-0.2c-1.3-0.4-1.7-0.9-1.7-2.3c0-0.5,0.1-1,0.3-1.4
		c0.3-0.8,0.8-1.2,1.7-1.3c0.4,0,0.8,0,1.2,0c0.9,0,1.5,0.5,1.8,1.2C109.7,72.6,109.5,73.2,108.7,73.9z M107.6,71.6
		c-1.2-0.3-1.8-0.2-1.8,0.9C106.8,73,106.9,71.7,107.6,71.6z M106.5,74.5c0,0.1,0,0.2,0,0.2c0.3,0,0.6,0,0.9,0c0-0.1,0-0.1,0-0.2
		C107.1,74.5,106.8,74.5,106.5,74.5z M108.5,72.4c0-0.1-0.1-0.1-0.1-0.2c0,0-0.1,0.1-0.1,0.1c0,0.1,0.1,0.2,0.1,0.2
		C108.4,72.5,108.5,72.4,108.5,72.4z"/>
	<path d="M88.8,67.1c0.8,0,1.5,0,2.2,0c0.5,0,0.9,0.3,1,0.9c0.2,0.8-0.1,1.1-1,1.2c-0.5,0-1,0.1-1.6,0.2c-0.1,0.6-0.3,1.1-0.3,1.6
		c-0.1,1.7-1.2,1.5-2.3,0.9c-0.3-0.1-0.5-0.3-0.7-0.5c-0.1-0.2-0.3-0.4-0.3-0.6c0.1-0.7,0.3-1.4,0.4-2.2c0.1-0.5,0.1-1.1,0.2-1.7
		C87.3,66.4,88.2,66.5,88.8,67.1z M87.1,67.8c-0.1,1-0.1,1.8-0.1,2.7c0,0.2,0.2,0.6,0.4,0.6c0.4,0.1,0.5-0.3,0.5-0.6
		c0.1-0.3,0.1-0.6,0.2-0.9c0.2-0.9,0.3-1,1.2-1.2c0.1,0,0.2,0,0.3,0c0.1,0,0.2-0.1,0.4-0.3C89,68.1,88.1,68.6,87.1,67.8z"/>
	<path d="M56.7,66c-0.4,0.7-0.7,1.3-1.1,1.8c-0.7,1.2-1.1,1.2-1.9,0.1c-0.1,0.1-0.3,0.2-0.4,0.3c-0.5,0.2-1-0.1-0.9-0.6
		c0.1-1.2,0.3-2.4,0.5-3.6c0-0.1,0.3-0.4,0.4-0.3c0.2,0.1,0.4,0.3,0.5,0.5c0.1,0.6,0,1.2,0,1.8c0.4,0.2,0.9,0.5,1.4,0.8
		c0.2-0.4,0.4-0.9,0.6-1.4c0.1-0.3,0.3-0.6,0.7-0.4c1,0.4,2,0.7,2.7,1.6c-0.1,0.1-0.1,0.3-0.2,0.4c-0.9,0.2-1.1,0.9-1.2,1.7
		c0,0.1,0,0.2-0.1,0.3c-0.1,0.3-0.3,0.6-0.7,0.5c-0.3-0.1-0.5-0.4-0.4-0.8c0.2-0.5,0.3-1.1,0.5-1.6C57.2,66.4,57.2,66.4,56.7,66z"/>
	<path d="M113.3,85.8c-0.2-0.2-0.4-0.3-0.5-0.4c-0.3-0.4-0.3-0.7,0.1-1c0.7-0.5,1.5-0.6,2.2-0.2c0.7,0.3,1.1,1.1,1,1.9
		c0,0.5,0.1,1,0.1,1.4c0,0.5,0,0.9-0.4,1.2c-0.4,0.3-0.8,0.1-1.1-0.1c-0.4-0.2-0.8-0.3-1.3-0.3c-0.4,0-0.9-0.1-1.2-0.3
		c-0.7-0.5-0.6-1.5,0.2-1.9C112.7,86,113,85.9,113.3,85.8z M115,87.1c-0.3-0.7-0.6-0.4-0.8-0.3c0,0,0,0.1,0,0.2
		C114.4,87.1,114.7,87.1,115,87.1z M115,85.3c-0.1,0-0.1,0-0.2,0.1c0.1,0.1,0.1,0.3,0.2,0.4c0,0,0.1,0,0.1-0.1
		C115.1,85.6,115,85.5,115,85.3z"/>
	<path d="M119,84.4c0.9,0.2,1.7,0.4,2.5,0.6c0.2,0.1,0.5,0.3,0.6,0.6c0.3,0.5,0.1,0.9-0.5,1c-0.4,0.1-1.1,0-1.3,0.2
		c-0.3,0.4-0.3,1-0.4,1.5c-0.2,1.3-0.8,1.7-2,1.1c-0.5-0.2-0.7-0.6-0.6-1.1c0.2-1.1,0.4-2.2,0.6-3.2C118.1,84.4,118.6,84.5,119,84.4
		z M119.3,86.1c-0.1,0-0.2,0-0.2-0.1c-0.3,0.4-0.4,0.8-0.1,1.3C119,87,119.1,86.6,119.3,86.1z"/>
	<path d="M94.8,67.9c0.7,0.1,2.7,1.5,2.9,2.1c0.1,0.3,0.1,0.6,0.1,0.8c-0.2,1.2-1.7,2.6-2.9,2.5c-1.3-0.1-2.8-1.4-2.9-2.7
		c0-0.7,0.2-1.4,0.8-1.8C93.4,68.4,94.1,68.2,94.8,67.9z M96.8,70.6c0-0.8-1.1-1.6-2.1-1.6c-0.8,0-1.6,0.8-1.6,1.5
		c0,1,0.9,1.8,2,1.8C96,72.2,96.8,71.4,96.8,70.6z"/>
	<path d="M18,54.5c0,0.1-0.1,0.2-0.1,0.2C15.9,56.9,14,59,12,61.2c-0.9,1-1.8,1.9-2.6,2.9c-0.1,0.1-0.2,0.3-0.4,0.4
		c-0.1,0.1-0.4,0.1-0.5,0c-0.1-0.1-0.2-0.4-0.1-0.5c0.3-0.5,0.7-0.9,1-1.3c0.8-0.9,1.7-1.7,2.5-2.6c1.5-1.7,3-3.5,4.5-5.2
		c0.2-0.3,0.6-0.6,0.9-0.7C17.6,53.8,18,54.1,18,54.5z"/>
	<path d="M7.6,63c-0.1-0.2-0.3-0.4-0.3-0.6c0-0.1,0.1-0.3,0.2-0.4c2-2.5,4-4.9,6-7.4c0.5-0.7,1-1.3,1.6-2c0.1-0.2,0.3-0.3,0.5-0.3
		c0.2,0,0.5,0.1,0.5,0.2c0.1,0.1,0,0.4-0.1,0.5c-1,1.3-2.1,2.5-3.1,3.8c-1.3,1.6-2.6,3.3-3.9,4.9c-0.3,0.3-0.5,0.7-0.8,1
		C8.1,62.8,7.9,62.8,7.6,63z"/>
	<path d="M19.3,55c0.4,0.4,0.2,0.7-0.1,1c-0.4,0.5-1,0.9-1.3,1.3c-1.3,1.6-2.5,3.2-3.8,4.8c-0.9,1.1-1.7,2.2-2.6,3.3
		c-0.2,0.2-0.4,0.5-0.7,0.2c-0.3-0.2-0.3-0.5,0-0.8c1.9-2.5,3.8-4.9,5.7-7.4c0.7-0.8,1.5-1.5,2.3-2.2C18.9,55.2,19.1,55.1,19.3,55z"
		/>
	<path d="M21.8,56.4c-0.4,0.5-0.5,0.9-0.8,1.1c-1.5,1.7-2.9,3.5-4.4,5.2c-0.9,1.1-1.9,2.2-2.8,3.3c-0.1,0.1-0.1,0.2-0.2,0.2
		c-0.2,0.1-0.4,0.1-0.6,0.1c0-0.2-0.1-0.4,0-0.6c0.3-0.5,0.6-0.9,1-1.4c1.8-2.2,3.6-4.4,5.5-6.6c0.4-0.5,0.9-0.9,1.4-1.3
		C21,56.4,21.3,56.5,21.8,56.4z"/>
	<path d="M76,33.6c-0.3,0.2-0.5,0.4-0.7,0.4c-0.3,0-0.6-0.2-0.9-0.3c-1.5-0.9-2.9-1.8-4.4-2.6c-1.3-0.7-2.7-1.3-4.1-2
		c-0.2-0.1-0.5-0.2-0.6-0.4c-0.1-0.2-0.2-0.4-0.1-0.6c0-0.1,0.3-0.1,0.5-0.2c0.1,0,0.2,0.1,0.3,0.1c3.1,1.5,6.2,3,9.2,4.9
		C75.5,33.1,75.7,33.3,76,33.6z"/>
	<path d="M75.5,35.9c-0.3,0.2-0.5,0.4-0.7,0.4c-0.3,0-0.5-0.1-0.8-0.2c-2.6-1.2-5.2-2.3-7.8-3.5c-0.3-0.1-0.5-0.2-0.7-0.4
		c-0.1-0.1-0.2-0.4-0.1-0.5c0.1-0.1,0.3-0.3,0.5-0.3c0.1,0,0.3,0.1,0.4,0.1c2.1,0.9,4.1,1.7,6.2,2.6c0.8,0.4,1.6,0.7,2.4,1.2
		C75,35.4,75.2,35.6,75.5,35.9z"/>
	<path d="M112.4,71.4c1,0,1.3,0.3,1.1,1.2c-0.1,1-0.4,1.9-0.6,2.9c-0.1,0.5-0.9,0.8-1.6,0.7c-0.5-0.1-0.8-0.5-0.8-1.1
		c0.2-1,0.4-1.9,0.6-2.9C111.3,71.5,111.6,71.4,112.4,71.4z M111.7,75c0.6-0.8,0.9-1.6,0.7-2.5c-0.1,0-0.2,0-0.3-0.1
		C112,73.3,111.9,74.1,111.7,75z"/>
	<path d="M70.5,72.3c-0.1,0.9-0.5,1.7-1.4,2.2c-0.7,0.4-1.3,0.1-1.4-0.7c-0.2-0.9-0.1-1.8,0.5-2.5c0.4-0.5,0.9-0.7,1.4-0.5
		C70,71.1,70.5,71.7,70.5,72.3z M68.6,73.5c0.1,0,0.2,0.1,0.4,0.1c0.2-0.4,0.4-0.8,0.5-1.2c0-0.1-0.1-0.4-0.2-0.4
		c-0.1,0-0.4,0.1-0.4,0.2C68.7,72.6,68.7,73,68.6,73.5z"/>
	<path d="M71.6,73.2c-0.3-0.4-0.6-0.7-1-1.1c0.6-0.5,1.1-0.2,1.4,0.1c0.3,0.2,0.5,0.6,0.8,0.9c0,0,0,0.1,0,0.1
		c-0.4,0.7-0.7,1.5-1.1,2.3c0.2,0.1,0.5,0.2,0.7,0.4c0.1,0.1,0.2,0.3,0.1,0.5c0,0.1-0.3,0.3-0.4,0.3c-0.6-0.1-1.2-0.3-1.8-0.5
		c-0.1,0-0.2-0.3-0.2-0.5c0-0.2,0.1-0.5,0-0.7c-0.1-0.4,0-0.7,0.5-0.8C71.2,74,71.3,73.6,71.6,73.2z"/>
	<path d="M72.3,41.8c-0.2,0.7-0.3,0.8-0.9,0.6c-0.5-0.1-1-0.4-1.5-0.5c-1.3-0.5-2.7-1-4-1.5c-0.2-0.1-0.4-0.1-0.5-0.2
		c-0.1-0.1-0.3-0.3-0.3-0.5c0-0.2,0.2-0.3,0.4-0.4c0.1-0.1,0.4,0,0.5,0c2,0.7,4,1.5,6.1,2.2C72.2,41.6,72.3,41.7,72.3,41.8z"/>
	<path d="M68,36.5c1.2,0.4,2.4,0.7,3.5,1.1c0.5,0.2,0.9,0.4,1.4,0.6c0.3,0.1,0.6,0.4,0.4,0.8c-0.2,0.4-0.5,0.3-0.8,0.2
		c-1.1-0.4-2.2-0.9-3.2-1.3c-0.4-0.2-0.8-0.3-1.2-0.4c-0.3-0.1-0.6-0.2-0.5-0.5C67.5,36.7,67.8,36.6,68,36.5z"/>
	<path d="M65.6,69.9c0.1-0.1,0.1-0.3,0.2-0.4c0.2-0.1,0.4-0.2,0.5-0.1c0.1,0.1,0.3,0.3,0.3,0.5c-0.2,1-0.5,1.9-0.8,2.8
		c0,0.1-0.3,0.2-0.4,0.2c-0.1,0-0.3-0.2-0.3-0.3c0-0.5,0.1-1,0.1-1.6c-0.2-0.1-0.4-0.2-0.6-0.4c-0.6-0.4-0.7-0.8-0.3-1.3
		c0.1-0.2,0.4-0.4,0.5-0.4c0.2,0,0.3,0.3,0.4,0.5c0.1,0.1,0.1,0.3,0.1,0.5C65.4,69.9,65.5,69.9,65.6,69.9z"/>
	<path d="M60.6,68.4c0.6-0.3,1.2-0.6,1.8-0.8c0.5-0.2,0.9,0.1,0.8,0.6c-0.2,0.9-0.4,1.7-0.7,2.6c0,0.1-0.4,0.3-0.5,0.3
		c-0.2-0.1-0.4-0.3-0.4-0.5c0-0.5,0.2-1,0.2-1.5C61.6,68.7,60.7,69.3,60.6,68.4z"/>
	<path d="M24.1,48.8c-0.6,1.2-1.1,2.4-1.7,3.5c0,0.1-0.5,0.1-0.5,0.1c-0.1-0.2-0.2-0.5-0.1-0.6c0.3-0.9,0.7-1.7,1.1-2.5
		c0.1-0.3,0.3-0.6,0.5-0.8c0.1-0.1,0.3-0.1,0.5,0C23.9,48.5,24,48.7,24.1,48.8z"/>
	<path d="M20.5,51.8c-0.6-0.2-0.6-0.6-0.5-1c0.3-1,0.7-1.9,1.1-2.9c0.1-0.1,0.4-0.3,0.5-0.2c0.2,0.1,0.4,0.4,0.4,0.5
		C21.5,49.4,21,50.6,20.5,51.8z"/>
	<path d="M112.5,71.1c-0.4,0-0.8,0-1-0.5c-0.1-0.3,0-0.7,0.1-1c0.2-0.4,0.6-0.4,1-0.2c0.8,0.2,1.2,0.6,1.1,1
		C113.8,70.8,113.2,71.1,112.5,71.1z"/>
	<path d="M25.2,49.9c0.5,0.3,0.5,0.6,0.2,0.9c-0.5,0.6-1,1.3-1.5,1.9c-0.1,0.1-0.2,0.1-0.3,0.1C23.3,51.9,23.9,50.8,25.2,49.9z"/>
	<path d="M19.4,47.9c-0.2,0.7-0.3,1.4-0.6,2.1c-0.1,0.2-0.3,0.3-0.5,0.5c-0.1-0.2-0.4-0.5-0.3-0.7c0-0.6,0.1-1.1,0.2-1.7
		C18.4,47.5,18.8,47.4,19.4,47.9z"/>
	<path d="M63.9,71.5c-0.3,0.2-0.5,0.4-0.6,0.4c-0.2-0.1-0.3-0.3-0.5-0.5c0.1-0.1,0.3-0.3,0.4-0.3C63.4,71.1,63.6,71.3,63.9,71.5z"/>
	<path class="st0" d="M156.5,41.5c0.9,1.4,1,1.5,1.9,0.4c1.3,0.3,2.6,0.7,3.9,1.1c1.4,0.4,2.8,0.6,4.3,0.4c1.2-0.1,2.5-0.2,3.6,0.4
		c0.2,0.1,0.5,0.1,0.7,0.1c1,0,2,0,3-0.1c0.2,0,0.4-0.2,0.6-0.3c-0.2-0.2-0.3-0.4-0.5-0.5c-0.2-0.1-0.6-0.1-0.8-0.1
		c-1.4,0.1-2.7-0.2-4.1-0.4c-0.9-0.2-1.9-0.2-2.8-0.1c-1.3,0.2-2.5,0-3.8-0.4c-1.2-0.4-2.5-0.8-3.9-1.2c0.7-0.2,1.3-0.4,1.9-0.6
		c1.9-0.7,3.8-1.3,5.7-2.1c2.3-0.9,4.4-1.9,6.7-2.6c2.6-0.8,5.3-1.6,7.8-2.7c1.2-0.5,2.4-0.6,3.6-0.1c0.4,0.2,0.8,0.1,1.1-0.2
		c0.3-0.2,0.6-0.4,0.8-0.7c0.3-0.4,0.7-0.7,1.3-0.5c0.6,0.2,1-0.2,1.2-0.7c0.3-0.7,0.8-0.9,1.6-0.7c0.7,0.2,1.3,0.1,1.8-0.5
		c0.9-1.1,1.4-1.1,2.7-0.3c0.9,0.6,1,0.6,1.6-0.3c0.8-1.1,1.6-1.7,2.9-1c0.5,0.3,0.9,0,1.2-0.4c0.3-0.4,0.7-1.1,1.1-1.2
		c0.5-0.1,1.1,0.2,1.6,0.4c0.8,0.3,1.5,0.2,2-0.6c0.2-0.4,0.6-0.7,0.9-1.1c0.5-0.1,0.8,0.1,1,0.5c0.3,0.6,0.6,0.6,1.2,0.4
		c0.9-0.2,1.8-0.6,2.9-0.4c-0.1,0.2-0.2,0.4-0.3,0.5c-1.5,0.7-2.9,1.5-4.4,2.1c-2,0.8-3.9,1.6-5.9,2.4c-2.1,0.9-4.3,1.7-6.4,2.6
		c-2.7,1.1-5.2,2.5-7.6,4c-0.5,0.3-1,0.5-1.5,0.8c-0.9,0.6-1.4,1.6-2.1,2.4c-0.3,0.3-0.3,0.9-0.4,1.4c-0.1,0.5-0.1,1-0.2,1.7
		c-0.5-0.2-0.9-0.4-1.3-0.5c-0.3-0.1-0.7-0.3-1-0.2c-0.7,0.1-1.3,0.2-2,0.4c-0.7,0.2-1.3,0.5-2,0.4c-0.5-0.1-0.7,0.3-0.9,0.7
		c-0.6,1-1.1,2-1.7,3.1c-0.1,0.2-0.2,0.4-0.3,0.5c-1,0.5-1.3,1.5-1.8,2.4c-1.4,2.2-2.4,4.6-4.1,6.6c-0.3,0.3-0.3,0.6,0.1,0.9
		c0.4,0.3,0.6,0,0.8-0.3c0.4-0.6,0.9-1.2,1.3-1.8c0.9-1.5,1.7-3,2.6-4.4c0.8-1.3,1.7-2.4,2.5-3.7c0.5-0.8,1-1.7,1.5-2.6
		c0.1-0.2,0.3-0.4,0.5-0.5c0.9-0.3,1.8-0.5,2.7-0.8c0.5-0.2,1-0.1,1.5,0.1c0.7,0.4,1.5,0.5,2.2,1.1c0.4,0.3,1.1,0.4,1.7,0.5
		c1.5,0.3,3,0.6,4.5,0.9c0.2,0,0.5,0.1,0.7,0.2c-0.4,1.5-0.1,1.6,0.9,2.4c0,0.1,0,0.2-0.1,0.3c0,0.3-0.2,0.7-0.1,0.7
		c0.2,0.2,0.6,0.3,0.8,0.2c0.7-0.2,1.5-0.3,2-1.1c0.2-0.3,0.6-0.5,0.9-0.8c0.7,1,1.2,2,1.5,3.1c0.1,0.5,0.2,1,0.3,1.6
		c0,0.1,0,0.2,0,0.3c-0.2,0.4-0.3,0.8-0.5,1.1c-0.5,0.9-0.9,2-2.1,2.2c-0.2,0-0.5,0-0.8-0.1c-0.2-0.1-0.4-0.4-0.6-0.4
		c-0.2-0.1-0.5,0-0.8,0c0,0.3,0,0.6,0.1,0.8c0.6,0.7,1.3,1.4,1.9,2.1c1.7,1.7,3.4,3.3,5.1,5c0.5,0.5,1,0.9,1.6,1.2
		c0.6,0.4,0.9,1,0.9,1.7c0,0.6,0.2,1.1,0.2,1.7c0,0.4,0,0.9-0.1,1.3c-0.4,1.2-0.7,2.3-1.2,3.4c-0.3,0.8-1,1.5-0.9,2.6
		c-0.8,2.1-1.6,4.2-2.4,6.2c-0.6,1.5-1.1,3.1-1.7,4.6c-0.7,1.7-1.3,3.5-2.3,5c-1.4,2.3-2.6,4.7-4.2,6.9c-2,2.6-3.8,5.3-5.7,8
		c-0.2,0.3-0.4,0.7-0.6,1c-0.5,0.7-0.5,1.5,0,2.2c-1.1,1.5-2.2,2.9-3.3,4.5c-0.7,1-1.3,2.1-1.9,3.1c-0.1,0.1-0.1,0.3-0.2,0.4
		c-0.5,1.1-0.5,1.1,0.4,1.9c0.5,0.4,1,0.9,1.7,1.4c-0.3,0.2-0.6,0.5-0.9,0.6c-1.6,0.7-3.3,1.4-4.9,2c-0.3,0.1-0.7,0.1-1,0.1
		c-2-0.1-3.9-0.1-5.8-0.2c-1.8-0.1-3.5,0.2-5.2,0.6c-1.2,0.3-2.5,0.5-3.8,0.5c-1.6,0.1-3.2,0.4-4.8,0.5c-1.2,0.1-2.5,0-3.7-0.1
		c-0.2-1.5,0-2.7,0.2-4c0.1-0.7,0.3-1.4,0.5-2.1c0.1-0.3,0.1-0.6,0-0.8c0-0.1-0.2-0.3-0.4-0.3c-0.1,0-0.3,0.1-0.5,0.2
		c0,0-0.1,0.1-0.1,0.2c-0.3,1.5-0.7,3-0.9,4.5c-0.2,1.8-0.2,1.9-2,2.2c-2.8,0.4-5.5,0.8-8.4,0.4c-2.3-0.3-4.5-0.7-6.6-1.4
		c-0.7-0.2-1.4-0.3-2.1-0.4c-1.9-0.4-3.9-0.9-5.9-1.4c0.3-0.7,0.5-1.4,0.9-2c0.8-1.5,1.6-3,2.1-4.6c0.2-0.5,0.5-0.9,0.8-1.4
		c0.1-0.3,0.3-0.6-0.1-0.7c-0.2-0.1-0.6,0-0.7,0.2c-0.4,0.5-0.7,1-0.9,1.6c-0.5,2-1.6,3.8-2.5,5.6c-0.3,0.5-0.5,0.9-0.9,1.4
		c-0.2-0.6,0-1.2,0.2-1.7c1.2-2.5,2.6-4.9,3.7-7.4c0.6-1.6,1.8-2.4,3-3.4c0.7-0.6,1.5-1.1,2.3-1.7c0.2-0.1,0.4-0.2,0.5-0.4
		c0.1-0.1,0.1-0.3,0.1-0.5c-0.2,0-0.4-0.2-0.6-0.1c-0.5,0.2-1,0.5-1.4,0.8c-1.5,1.2-3,2.4-4.5,3.6c0.2,0.6-0.1,1.1-0.4,1.7
		c-0.8,1.5-1.5,3-2.3,4.5c-0.7,1.4-1.3,2.8-2,4.2c0,0.1-0.1,0.2-0.2,0.3c-0.3-0.1-0.6-0.2-0.9-0.3c0.4-1,0.7-2,1.1-2.9
		c0.7-1.4,1.4-2.7,2.1-4c0.5-1.1,1-2.2,1.6-3.3c0.3-0.5,0.6-1.1,1-1.4c1.4-1.1,2.8-2.2,4.2-3.3c0.3-0.3,0.6-0.5,1-0.8
		c-0.3-0.4-0.5-0.3-0.8-0.1c-1.3,1-2.7,2-4,2.9c-0.6,0.5-1.4,0.8-1.9,1.4c-0.4,0.6-0.4,1.5-0.7,2.2c-0.8,1.8-1.8,3.5-2.7,5.2
		c-0.6,1.1-1.1,2.2-1.7,3.3c-0.1,0.2-0.2,0.3-0.3,0.5c-0.3-0.2-0.6-0.4-1-0.6c0.4-0.8,0.8-1.6,1.2-2.4c1.1-2.4,2.3-4.8,3.4-7.2
		c0.3-0.7,0.7-1.4,1.3-1.9c1.5-1.2,2.9-2.5,4.3-3.8c0.3-0.3,0.8-0.5,0.7-1.1c-0.5-0.4-0.9,0-1.2,0.3c-1.3,1.2-2.6,2.4-4,3.5
		c-1.2,0.9-1.8,2.1-2.4,3.5c-0.8,2.1-1.9,4.2-2.9,6.3c-0.3,0.5-0.6,1.1-0.9,1.6c-0.5,0.8-0.5,0.8-1.4,0.2c0-1.4,0.4-2.7,1.2-4
		c1.2-1.9,2.3-4,3.5-6c0.5-0.8,1.2-1.5,1.9-2.1c1.2-1.2,2.5-2.4,3.8-3.6c0.3-0.3,0.5-0.6,0.8-1.1c-0.8-0.2-1.3,0.2-1.7,0.6
		c-1.6,1.5-3.2,3.1-4.9,4.6c-0.6,0.6-1,1.2-1.4,1.9c-1,2-2.1,3.9-3.3,5.8c-0.6,1-1.2,1.9-1.2,3.1c-1.5-0.2-2.7-1.3-2.9-2.7
		c0.4-0.1,0.8-0.2,1.2-0.3c1.1-0.3,1.6-1,1.6-2.2c0-0.5-0.1-1-0.2-1.5c-0.1-0.9,0-1,0.8-1.4c0.6-0.2,1.2-0.4,1.8-0.6
		c0.8-0.2,1.2-0.4,1.3-1.2c0.1-0.7,0-1.4-0.1-2.1c-0.2-1.6,0-1.9,1.6-2.2c0.4-0.1,0.8,0,1.2-0.1c1-0.1,1.4-0.5,1.4-1.5
		c0-0.6-0.1-1.2-0.2-1.8c0-0.8,0.1-1,0.9-1.1c0.7-0.1,1.4-0.3,2.1-0.5c0.5-0.1,0.6-0.6,0.6-1c0-0.7,0-1.4-0.2-2
		c-0.5-1.5,0.1-2.1,1.8-2.5c0.6-0.1,1.2-0.3,1.7-0.6c0.9-0.5,1.1-1.1,0.9-2.1c-0.1-0.5-0.3-0.9-0.4-1.4c-0.3-1.1-0.2-1.3,0.9-1.6
		c0.6-0.2,1.2-0.3,1.8-0.4c0.3-0.1,0.6-0.1,0.9-0.2c1.1-0.4,1.5-1,1.1-2.2c-0.1-0.4-0.2-0.8-0.3-1.1c-0.1-0.7,0-1,0.7-1.3
		c0.5-0.2,0.9-0.3,1.4-0.6c0.8-0.4,1-0.7,0.8-1.6c-0.1-0.7-0.3-1.3-0.4-2c-0.2-1.1,0-1.2,1-1.5c0.7-0.2,1.4-0.4,2.1-0.7
		c0.9-0.4,1-0.6,0.8-1.6c-0.1-0.8-0.2-1.5-0.4-2.3c-0.1-0.5,0.1-0.9,0.6-1.1c0.7-0.3,1.4-0.7,2.1-1c1-0.5,1.2-0.9,0.9-2
		c-0.2-0.5-0.3-1-0.5-1.5c-0.2-0.5,0-0.8,0.5-1c0.6-0.2,1.3-0.5,1.9-0.7c1.3-0.5,1.7-1.1,1.5-2.5c-0.1-0.5-0.2-1-0.3-1.6
		c-0.1-0.5,0.1-0.8,0.5-1c0.8-0.4,1.7-0.8,2.5-1.1c0.6-0.3,0.8-0.7,0.7-1.4c-0.1-0.7-0.3-1.5-0.5-2.2c-0.1-0.5,0-0.9,0.5-1.1
		c0.7-0.3,1.3-0.5,2-0.8c0.8-0.4,0.9-0.5,0.7-1.4c-0.2-0.9-0.3-1.9-0.5-2.8c-0.1-0.8,0-0.9,0.7-1.2c0.8-0.3,1.6-0.6,2.3-1
		c0.8-0.4,0.8-0.6,0.5-1.5c-0.3-0.9-0.5-1.9-0.8-2.9c-0.1-0.4,0-0.7,0.4-0.9C155,42.3,155.8,41.9,156.5,41.5z M162.2,48.1
		c-0.3,0.5-0.4,0.8-0.5,1.2c-0.3,0.7-0.5,1.4-0.8,2.1c-0.2,0.5-0.4,0.9-0.6,1.3c-2.1,4.6-4.2,9.2-6.8,13.6c-2.1,3.5-4.3,7-6.3,10.5
		c-2.1,3.6-4.1,7.3-6.2,10.9c-0.4,0.8-0.7,1.6-1.1,2.4c-0.1,0.3-0.1,0.6,0.2,0.7c0.2,0,0.4-0.1,0.6-0.3c0.1-0.1,0.1-0.2,0.2-0.4
		c0.6-1.3,1.2-2.7,1.9-4c1.6-2.9,3.2-5.7,4.8-8.5c2.6-4.4,5.3-8.8,8-13.2c2.4-4,4.1-8.3,6.2-12.5c0.2-0.4,0.5-0.9,0.6-1.3
		C162.6,49.8,162.8,49.1,162.2,48.1z M159.3,49c-0.2,0.2-0.4,0.4-0.4,0.5c-0.6,1.1-1.2,2.3-1.7,3.4c-1.5,3.6-3.2,7-5,10.3
		c-2.4,4.2-4.7,8.3-7.1,12.5c-2.5,4.3-5,8.6-7.5,12.9c-0.1,0.2-0.1,0.5,0,0.6c0.1,0.1,0.5,0.1,0.6,0c0.3-0.2,0.5-0.5,0.7-0.8
		c0.5-0.9,0.9-1.8,1.4-2.6c1.5-2.7,3.1-5.3,4.6-8c2.2-3.9,4.4-7.8,6.6-11.7c1-1.7,2-3.3,2.9-5.1c1.4-2.8,2.7-5.7,4-8.6
		c0.3-0.7,0.7-1.4,1.1-2.1C159.7,50.1,160,49.6,159.3,49z M156.5,49.4c-0.7,0.4-0.9,1.1-1.2,1.7c-0.9,1.8-1.7,3.7-2.6,5.6
		c-0.9,1.9-2,3.7-2.9,5.5c-1,1.9-1.9,3.9-2.9,5.8c-0.7,1.4-1.5,2.8-2.3,4.2c-1.5,2.6-2.9,5.3-4.4,7.9c-1.2,2.2-2.5,4.3-3.8,6.4
		c-0.3,0.5-0.5,0.9-0.7,1.4c-0.1,0.1,0,0.4,0.2,0.5c0.1,0.1,0.3,0,0.5-0.1c0.2-0.1,0.3-0.3,0.4-0.5c0.5-0.8,1-1.7,1.4-2.5
		c1.5-2.6,3-5.2,4.5-7.9c1.7-3,3.5-6,5.1-9.1c2.2-4.1,4.3-8.3,6.5-12.5c0.9-1.7,1.7-3.5,2.5-5.3C156.9,50.4,157.2,49.9,156.5,49.4z
		 M166.2,49.2c-0.1,0-0.2-0.1-0.2-0.1c-0.7,0.4-1.3,0.8-1.6,1.6c-2,4.5-4.5,8.8-7,13.1c-2.3,3.9-4.7,7.8-7,11.7
		c-0.7,1.2-1.3,2.3-2,3.5c-2,3.6-4.1,7.1-6.1,10.7c-0.3,0.6-0.6,1.2-0.4,1.9c0.6,0.1,0.7-0.4,0.9-0.8c1-2,2-4,3.1-5.9
		c1.4-2.4,2.8-4.8,4.2-7.3c1.7-3,3.5-5.9,5.2-8.9c2.2-3.8,4.5-7.6,6.7-11.5c1.4-2.4,2.7-4.9,4-7.4C166.1,49.7,166.1,49.4,166.2,49.2
		z M183.6,80.5c-0.1-0.6-0.4-1.2-0.8-1.9c-0.9-1.2-1.7-2.4-2.6-3.5c-0.5-0.7-1.2-1.3-1.9-1.9c-0.3-0.2-0.6-0.3-0.8,0.1
		c-0.2,0.3,0.1,0.5,0.3,0.7c0.5,0.5,1,1,1.5,1.5c0.8,1.1,1.5,2.3,2.4,3.4c0.7,0.8,0.9,1.6,0.7,2.7c-0.1,0.2-0.1,0.5-0.1,0.7
		c-0.2,2-1,3.7-2.3,5.1c-1.2,1.3-2.5,2.6-3.9,3.8c-1.2,1-2.5,2-4,2.6c-2.1,0.9-4,2.2-6,3.4c-0.2,0.1-0.2,0.4-0.3,0.6
		c0.2,0.1,0.5,0.3,0.6,0.2c0.4-0.1,0.7-0.3,1-0.5c1.3-0.7,2.4-1.6,3.8-2.2c3-1.3,5.6-3.3,7.9-5.5c0.7-0.7,1.5-1.4,2.1-2.1
		C182.8,85.7,183.4,83.2,183.6,80.5z M157.1,81.1c0.7,0.3,0.9,0.4,1.2,0c0.2-0.3,0.4-0.6,0.6-0.9c1.7-2.7,3.6-5.4,5.8-7.7
		c1.3-1.3,2.6-2.7,3.8-4.1c1.9-2.3,4-4.4,6.3-6.3c1.3-1.1,2.7-2,4.5-2c0.2,0,0.4-0.2,0.6-0.3c-0.1-0.2-0.2-0.5-0.4-0.7
		c-0.2-0.1-0.6-0.2-0.8-0.2c-1.2,0.3-2.4,0.6-3.5,1.4c-1.9,1.4-3.5,3-5.1,4.7c-2.4,2.5-4.6,5.2-7,7.7
		C160.7,75.3,159.1,78.3,157.1,81.1z M154.9,97.9c0.2-0.1,0.4-0.3,0.6-0.4c0.5-0.4,1.1-0.8,1.6-1.1c0.6-0.4,1.2-0.7,1.7-1.1
		c1.8-1.7,3.7-3.2,5.6-4.7c2.3-1.9,4.6-3.7,6.9-5.6c1-0.9,2.1-1.7,3.1-2.6c0.1-0.1,0.2-0.6,0.1-0.6c-0.2-0.1-0.5-0.2-0.7-0.2
		c-0.2,0-0.3,0.2-0.5,0.4c-0.7,0.6-1.4,1.3-2.1,1.9c-4.2,3.4-8.3,6.8-12.5,10.1c-1,0.8-2.1,1.3-3.1,2c-0.4,0.3-0.8,0.6-1.2,1
		c-0.1,0.1-0.2,0.4-0.1,0.6C154.4,97.7,154.7,97.8,154.9,97.9z M157.4,93.5c0.3-0.3,0.5-0.4,0.6-0.5c0.3-0.4,0.5-0.8,0.8-1.2
		c1.4-2,2.7-4.1,4.1-6.1c1.2-1.7,2.4-3.3,3.7-5c0.8-1,1.5-2.1,2.3-3.1c0.2-0.2,0.4-0.4,0.5-0.7c0.1-0.2,0-0.4-0.1-0.6
		c-0.1-0.1-0.4,0-0.5,0.1c-0.4,0.4-0.9,0.8-1.2,1.3c-0.6,0.8-1.2,1.7-1.8,2.5c-1.8,2.4-3.6,4.8-5.3,7.3c-1.1,1.5-2,3.1-3,4.6
		c-0.1,0.2-0.2,0.5-0.2,0.8C157.2,93.2,157.3,93.3,157.4,93.5z M149.9,98.6c0.2-0.2,0.6-0.4,0.6-0.4c-0.1-0.3-0.3-0.6-0.5-0.7
		c-1.1-0.6-2.3-1.1-3.5-1.6c-0.7-0.3-1.5-0.7-2.2-1c-3-1.2-6.2-2.2-8.9-4.1c-0.4-0.3-1-0.4-1.5-0.6c-0.2,0-0.4,0.2-0.6,0.2
		c0.1,0.2,0.2,0.5,0.3,0.6c0.5,0.3,1,0.5,1.5,0.8c1.7,1.3,3.7,2,5.6,2.7c1.5,0.6,3.1,1.2,4.5,1.8c1.2,0.5,2.3,1.2,3.5,1.8
		C149.1,98.3,149.5,98.4,149.9,98.6z M138.6,102.5c-1-0.4-1.8-0.3-2.5-0.2c-1.4,0.3-2.8,0.6-4.2,1c-1.9,0.5-3.2-0.3-4.2-1.8
		c-0.4-0.6-0.7-1.2-1.1-1.8c-0.3-0.4-0.7-0.6-1.2-0.2c0.5,1.1,1.1,2.2,1.8,3.1c1.1,1.5,2.6,2.1,4.4,1.8c1-0.2,2-0.5,3-0.7
		c0.7-0.1,1.3-0.2,2-0.4c0.4-0.1,0.9-0.1,1.2-0.2C138,103.1,138.2,102.9,138.6,102.5z M169.6,57.6c0,0.1,0,0.2-0.1,0.4
		c0.2,0.1,0.4,0.3,0.7,0.3c1.2,0,2.5,0,3.7-0.1c1.7-0.1,3.3-0.3,5-0.4c1.5-0.1,3,0.1,4.6,0.1c0.4,0,0.9,0.1,1-0.4
		c0.1-0.6-0.5-0.6-0.9-0.6c-2-0.1-4-0.2-5.9-0.1c-2.3,0.1-4.6,0.3-6.9,0.5C170.3,57.4,170,57.5,169.6,57.6z M185.2,54.3
		c-0.2-0.5-0.7-0.4-1-0.4c-0.4,0-0.8,0.1-1.3,0.2c-1.8,0.3-3.7,0.6-5.5,1c-1.8,0.4-3.7,0.9-5.6,0.7c-0.2,0-0.4,0-0.6,0.1
		c-0.1,0-0.3,0.2-0.3,0.3c0,0.1,0.1,0.4,0.2,0.4c0.2,0.1,0.5,0.2,0.7,0.2c1,0,2.1,0,3.1-0.2c3.1-0.5,6.2-1,9.3-1.6
		C184.7,55,185.1,54.8,185.2,54.3z M154.2,99c-0.1-0.1-0.3-0.3-0.5-0.3c-0.6,0-1.1,0-1.7,0.1c-0.9,0.2-1.8,0.5-2.6,0.9
		c-2.2,0.9-4.5,1.7-6.9,1.8c-0.9,0.1-1.8,0.4-2.7,0.7c-0.3,0.1-0.7,0.3-0.5,0.8c0.2,0.4,0.5,0.5,0.9,0.3c0.2-0.1,0.3-0.2,0.5-0.2
		c0.7-0.2,1.5-0.4,2.2-0.6c1.5-0.4,3-0.6,4.4-1.1c1.4-0.4,2.7-1,4-1.4c0.7-0.2,1.5-0.3,2.2-0.3C153.9,99.5,154.2,99.5,154.2,99z
		 M183,66.3c0.8,1.5,1.9,2.8,3.2,3.9c1,0.9,2.2,1.7,3.6,1.8c1.9,0.1,3.8,0.1,5.6,0.1c0.2,0,0.4-0.1,0.6-0.2c0.1-0.1,0.2-0.3,0.2-0.5
		c0-0.1-0.2-0.3-0.4-0.3c-0.2,0-0.3,0-0.5,0c-1.3,0-2.7,0-4,0c-1.8,0-3.4-0.6-4.6-1.9c-0.9-0.9-1.7-2-2.5-3
		C183.6,65.8,183.6,65.8,183,66.3z M165.3,113.4c-0.5-0.6-1-0.4-1.5-0.3c-1.5,0.4-3.1,0.8-4.6,1.2c-2,0.6-4,1.3-5.9,2
		c-0.5,0.2-1,0.2-1.4,0.4c-0.3,0.1-0.6,0.2-0.5,0.5c0.1,0.2,0.4,0.4,0.7,0.4c0.4,0,0.8-0.1,1.1-0.3c2.1-0.7,4.2-1.4,6.4-2
		c1.5-0.4,3.1-0.8,4.6-1.2C164.6,114,165.1,113.9,165.3,113.4z M137.6,109c0,0.2,0,0.2,0,0.2c0.3,1.5,0.7,3,1,4.5
		c0,0.1,0,0.1,0.1,0.2c0.1,0.1,0.3,0.3,0.4,0.2c0.2,0,0.4-0.2,0.5-0.4c0.1-0.2,0-0.4,0-0.6c-0.2-0.9-0.3-1.9-0.6-2.8
		c-0.2-0.8-0.2-1.5,0.5-2c0.5-0.4,0.6-0.9,0.3-1.5c-0.1-0.2-0.2-0.5-0.2-0.8c0-0.3,0-0.6,0-1c0-0.4-0.2-0.6-0.6-0.6
		c-0.4,0-0.4,0.3-0.4,0.6c0,0.4,0,0.9,0.1,1.3c0.1,0.8,0,1.5-0.6,2C137.8,108.6,137.7,108.9,137.6,109z M133.3,116.2
		C133.3,116.2,133.3,116.2,133.3,116.2c1.2,0,2.5,0,3.7,0c0.3,0,0.6,0,0.8-0.1c0.3-0.1,0.6-0.3,0.5-0.7c-0.1-0.2-0.4-0.4-0.6-0.5
		c-0.3-0.1-0.6,0-0.9,0c-0.3,0-0.6,0.1-0.9,0.1c-2,0.1-4,0.1-5.9,0.2c-0.6,0-1.2,0.1-1.8,0.3c-0.2,0-0.3,0.3-0.4,0.5
		c0.2,0.1,0.4,0.3,0.6,0.3c0.6,0,1.1-0.2,1.7-0.2C131.1,116.2,132.2,116.2,133.3,116.2z M165,111.1c-0.2-2.1-0.3-3.9-0.5-5.8
		c0-0.3-0.2-0.6-0.5-0.8c-0.7-0.6-1.4-1.2-2.1-1.7c-0.1-0.1-0.2-0.2-0.3-0.2c-0.2,0-0.5,0-0.6,0.2c-0.1,0.1,0,0.5,0.1,0.6
		c0.5,0.5,1,0.9,1.5,1.3c0.7,0.5,0.9,1.2,1,2c0.1,1,0.2,2,0.3,3.1c0,0.4,0,0.9,0.1,1.3c0.1,0.2,0.4,0.4,0.6,0.4
		C164.8,111.5,164.9,111.2,165,111.1z M157.4,46.3c0,0.8,0.3,0.9,0.9,0.9c1-0.1,2.1-0.1,3.1-0.3c1.6-0.3,3.1-0.7,4.7-0.6
		c0.2,0,0.6-0.2,0.6-0.3c0.1-0.4-0.3-0.5-0.6-0.6c-0.1,0-0.2,0-0.3,0c-1.4,0.1-2.7,0.3-4.1,0.5c-0.8,0.1-1.5,0.2-2.3,0.3
		C158.7,46.1,158.1,46.2,157.4,46.3z M162.7,99.9c-0.2-0.1-0.2-0.2-0.3-0.3c-2.2-0.8-4.5-1.1-6.8-1.4c-0.3,0-0.6,0.1-0.9,0.2
		c-0.3,0.2-0.3,0.6,0.1,0.7c0.2,0.1,0.3,0.1,0.5,0.1c2.2,0.1,4.3,0.4,6.3,1.1C162.1,100.7,162.5,100.5,162.7,99.9z M128.3,98.8
		c0.1,0.2,0.2,0.4,0.4,0.4c0.2,0,0.4,0,0.6-0.1c0.4-0.3,0.6-0.8,1-1.1c1.1-1.1,2.2-2.2,3.2-3.4c0.1-0.1,0.2-0.6,0.1-0.6
		c-0.2-0.1-0.5-0.2-0.7-0.2c-0.1,0-0.3,0.2-0.4,0.3c-0.8,0.9-1.6,1.7-2.4,2.6c-0.5,0.5-0.9,1-1.4,1.5
		C128.6,98.3,128.5,98.5,128.3,98.8z M129.9,100c0.5,0.7,0.6,0.7,1.1,0.2c1.1-1.1,2.1-2.2,3.1-3.4c0.2-0.3,0.5-0.5,0.7-0.8
		c0.2-0.3,0.6-0.6,0.2-1c-0.4-0.3-0.6,0-0.9,0.3C132.7,96.9,131.3,98.5,129.9,100z M150.7,118.8c-0.2,0.2-0.4,0.3-0.6,0.5
		c0.2,0.2,0.3,0.5,0.5,0.6c1.2,0.6,2.4,1.1,3.6,1.6c0.4,0.2,0.8,0.3,1.2,0.3c0.2,0,0.6-0.2,0.7-0.4c0.2-0.3-0.2-0.4-0.5-0.6
		c-0.9-0.4-1.7-0.7-2.6-1.1C152.2,119.4,151.5,119.1,150.7,118.8z M137.1,96.4c-0.2-0.1-0.4-0.3-0.5-0.2c-0.2,0.1-0.4,0.2-0.6,0.4
		c-1,1.2-2.1,2.3-3.1,3.5c-0.2,0.2-0.3,0.4-0.4,0.6c-0.1,0.2,0,0.5,0,0.8c0.2-0.1,0.6-0.1,0.7-0.2c1.2-1.4,2.4-2.9,3.6-4.3
		C137,96.8,137,96.6,137.1,96.4z M159.9,75.4c0.1-0.2,0.3-0.3,0.3-0.4c0-0.1-0.2-0.2-0.2-0.3c-0.1,0.1-0.2,0.2-0.2,0.3
		C159.7,75.2,159.8,75.3,159.9,75.4z"/>
	<path class="st0" d="M190.5,40.8c1.1-0.4,2.2-0.7,3.2-1.1c2.9-1.2,5.7-2.4,8.6-3.5c3-1.2,5.9-2.5,8.7-4.1c0.4-0.2,0.8-0.4,1.1-0.6
		c1.4-0.7,1.4-0.7,3,0.2c-0.3,0.3-0.4,0.6-0.7,0.7c-2.5,1.2-5,2.4-7.5,3.6c-3.9,1.8-7.9,3.5-11.8,5.3c-0.9,0.4-1.8,0.9-2.7,1.3
		c-0.2,0.1-0.4,0.3-0.6,0.4c0.3,0.6,0.6,0.3,0.9,0.2c1.8-0.9,3.7-1.7,5.5-2.6c2.4-1.1,4.8-2.1,7.2-3.2c3-1.4,6-2.8,8.9-4.2
		c0.5,0.2,1,0.5,1.4,0.7c-6.7,3.2-13.8,5.8-20.5,9.4c0,0,0,0.2,0,0.5c0.5-0.1,0.9-0.2,1.3-0.4c5-2.2,9.9-4.4,14.9-6.6
		c1.4-0.6,2.8-1.2,4.2-1.9c0.7-0.3,0.7-0.3,1.2,0.4c0.2,0.3,0.6,0.6,0.9,0.9c0.7,2.1,0.5,4.3,0.4,6.5c0,1,0,2-0.4,2.9
		c-0.1,0.3-0.1,0.8-0.1,1.2c0.2,1.3-0.4,2.3-1.3,3.2c-1,0.9-2,1.8-2.9,2.8c-0.4,0.4-0.6,1-0.5,1.6c0.1,0.3,0.1,0.6,0.2,0.8
		c0.8,2.1,0.9,4.2,0.8,6.4c0,0.9,0.1,1.8,0.1,2.6c0,0.3-0.1,0.7-0.3,0.8c-0.5,0.4-1.1,0.8-1.7,1.2c-0.3-0.3-0.6-0.7-0.9-1
		c-0.8-0.9-1.5-1.9-2.3-2.7c-0.5-0.5-1.3-0.8-2-1.2c-0.5-0.3-1-0.5-1.5-0.7c-0.2-0.1-0.6-0.1-0.7,0c-0.1,0.1-0.1,0.5,0,0.7
		c0.1,0.2,0.3,0.4,0.5,0.6c1.4,1.5,2.9,2.9,4.3,4.4c0.4,0.4,0.6,1,1,1.5c-1,0.7-6.7,2-8.2,1.8c-0.1-0.8-0.3-1.6-0.3-2.5
		c-0.1-1.2-0.4-2.1-1.5-2.8c-2.5-1.7-4.7-3.8-6.6-6.1c-0.1-0.1-0.1-0.2-0.2-0.4c0.4-0.2,0.8-0.3,1.1-0.5c0.6-0.2,1-0.5,1.1-1.1
		c0.1-0.4,0.3-0.7,0.5-1c0.5-0.7,0.7-1.4,0.5-2.2c-0.3-1.1-0.6-2.2-1-3.3c-0.3-0.8-0.8-1.4-0.7-2.3c0-0.2-0.3-0.5-0.5-0.6
		c-0.8-0.5-1.7-1-2.6-1.4c-0.3-0.1-0.8-0.1-1.1,0c-0.8,0.4-1.6,0.3-2.4,0.1c-0.4-0.1-0.9-0.2-1.4-0.3c-0.4-1.6-0.7-3.2-1.1-4.8
		c-0.1-0.4-0.2-0.7-0.4-1.1c-0.2-0.5-0.1-0.7,0.3-1c2.4-1.3,4.7-2.8,7.3-3.9c3.1-1.2,6.2-2.5,9.3-3.8c2.4-1,4.9-2.2,7.3-3.3
		c0.1-0.1,0.3-0.1,0.3-0.1c0.6,0.2,1.1,0.4,1.7,0.6c-2.1,1-4.2,2.1-6.4,3c-3.2,1.3-6.2,2.8-9.3,4.3c-2.7,1.3-5.4,2.6-8.1,3.8
		c-0.3,0.2-0.7,0.3-0.8,0.8c0.5,0.3,0.9,0.1,1.2-0.1c2.9-1.4,5.8-2.7,8.6-4.1c2.6-1.3,5.2-2.6,7.9-3.7c1.9-0.8,3.8-1.8,5.7-2.7
		c0.5-0.3,1-0.5,1.7-0.1c0.3,0.2,0.9,0.1,1.6,0.2c-0.4,0.3-0.6,0.5-0.8,0.6c-2.2,1.1-4.3,2.3-6.5,3.3c-1.9,0.9-3.9,1.7-5.9,2.5
		c-2.6,1.1-5.2,2.1-7.7,3.3c-1,0.4-1.9,1.1-2.9,1.6c-0.3,0.1-0.6,0.2-0.9,0.3C189.9,41.3,190.3,41.2,190.5,40.8z M200.5,63.3
		c0.3,0.2,0.7,0.4,1,0.5c1.7,0.9,3.4,1.8,5.1,2.6c0.4,0.2,0.8,0.5,1.2,0.7c0.2,0.1,0.6,0,0.6-0.1c0.1-0.2,0-0.5-0.1-0.8
		c0-0.1-0.2-0.2-0.3-0.2c-2.1-1.4-4.4-2.3-6.6-3.4C200.8,62.5,200.6,62.7,200.5,63.3z"/>
	<path class="st1" d="M199.9,76.1c0.6,0.4,1,1,1,1.6c0.1,0.9,0.2,1.9,0,2.7c-0.3,0.9-0.4,1.6,0.1,2.4c-0.2,1,0,2.1-0.5,3.1
		c-0.1,0.2-0.3,0.5-0.4,0.8c-0.2,0.7-0.6,1.2-1.4,1.4c-0.7,0.1-1.1,0.6-1,1.4c0,0.9-0.4,1.7-0.9,2.4c-0.3,0.4-0.9,0.7-1.4,1
		c-0.7,0.3-1,0.7-1,1.5c0.1,1.2-0.2,2.5-0.7,3.6c-0.6,1.3-1.2,2.7-1.9,4.1c-0.1-0.3-0.2-0.6-0.3-1c-0.2-0.5-0.6-0.8-1.1-0.7
		c-0.5,0-1.1,0.1-1.6,0.3c-0.2,0.1-0.3,0.3-0.4,0.6c0,0.1,0.3,0.3,0.5,0.3c0.3,0,0.6,0,0.8-0.1c0.4-0.2,0.7,0,0.8,0.4
		c0.2,0.6,0.3,1.1-0.1,1.7c-0.5,0.7-0.5,1.5-0.3,2.3c0.2,0.6,0.3,1.3,0.5,1.9c0.3,0.7,0.2,1.2-0.2,1.8c-0.2,0.2-0.3,0.5-0.5,0.7
		c-0.4,0.8-0.2,1.3,0.6,1.7c0.3,0.1,0.5,0.2,0.8,0.2c0.6,0.1,1.1,0.3,1.2,1c0.1,0.4,0.4,0.5,0.8,0.5c0.3,0,0.6,0,0.9,0.1
		c0,0.4,0,0.7,0,1.1c0,0.4-0.1,0.8-0.2,1.2c0,0.4,0,0.8,0.4,0.8c0.4,0,0.5-0.3,0.5-0.7c0.1-0.6,0.1-1.2,0.3-1.8c0.6-2.1,1-4.1,2-6
		c0.5-0.9,1.1-1.7,2.1-2.2c1-0.5,1.7-1.3,1.9-2.4c0.3-2,1.3-3.5,2.6-4.9c0.6-0.7,1.3-1.3,2.2-1.6c0.3-0.1,0.6-0.2,0.7-0.4
		c1.2-1.3,2.5-2.5,2.8-4.4c0.1-0.4,0.3-0.9,0.5-1.3c0.3-0.6,0.7-1.1,1.1-1.7c0.6-1,1.8-1.3,2.8-2.2c0,0.7,0.1,1.1,0,1.5
		c-0.1,0.6,0,1,0.2,1.5c0.2,0.4,0.6,0.7,0.4,1.3c-0.3,0.7-0.5,1.3-1.2,1.7c-0.3,0.2-0.7,0.3-1.1,0.4c-1.6,0.5-2.9,1.3-3.4,3
		c-0.1,0.3-0.3,0.6-0.6,0.7c-1.1,0.6-2,1.3-2.7,2.4c-0.3,0.4-0.7,0.7-1.1,1c-0.4,0.4-0.8,0.8-1.3,1.1c-0.6,0.6-0.9,1.2-0.6,2.1
		c0.4,1,0,1.4-1,1.7c-1.4,0.4-1.7,0.9-1.6,2.3c0.1,1.2,0.1,2.3,0.1,3.5c0,0.9,0.4,1.6,1.1,1.8c1.5,0.3,1.7,0.5,2.5-0.6
		c0.6-0.8,1.3-1.5,2-2.2c0.2-0.2,0.5-0.3,0.8-0.4c1.5-0.5,3.1-0.9,4.6-1.3c0.8-0.2,1.3-0.6,1.3-1.5c0-1.3,0.8-2.2,1.6-3.1
		c0.2-0.3,0.4-0.7,0.6-1c0.4-0.5,0.7-1.1,1.1-1.5c0.4-0.4,1.1-0.5,1.7-0.4c1,0.1,1.7-0.1,2.2-1c0.7-1.3,1.5-2.6,2.2-3.9
		c0.3-0.5,0.5-0.9,1.2-0.9c0.7,1.2,0.5,2-0.6,2.6c-1,0.5-1.3,1.5-1.5,2.5c0,0.2,0,0.5,0,0.7c0,0.8-0.2,1-1,1.3
		c-0.3,0.1-0.6,0.1-0.8,0.2c-0.2,0.1-0.5,0.1-0.7,0.2c-1.1,0.8-2.3,1.5-2.8,2.8c-0.4,1.1-1.2,2.2-1.2,3.5c0,0.3-0.2,0.6-0.3,0.7
		c-0.8,0.6-1.6,1.3-2.5,1.8c-0.7,0.4-1.1,1-1.3,1.7c-0.2,0.7-0.4,1.4-0.5,2.1c-0.1,0.6-0.3,1-0.8,1.4c-1.1,1-1.1,1.5-0.5,2.8
		c0.5,1,1.1,1.7,2.2,1.7c0.3,0,0.6,0.2,0.9,0.2c1,0.2,2,0.6,3,0.6c0.8,0,1.5-0.6,2-1.3c0.5-0.6,1-1.3,1.6-1.9
		c-0.5,0.8,0.4,1.2,0.4,2c-0.9,0.6-1.8,1.3-2.8,1.9c-1.6,0.9-3.2,1.7-4.8,2.5c-1.3,0.7-2.7,1-4.2,0.7c-2-0.4-4-0.7-6-1
		c-1.4-0.2-2.9-0.1-4.3-0.5c-0.6-0.2-1.2-0.3-1.8-0.4c-1.3-0.2-2.6-0.4-3.9-0.6c-1-0.2-1.9-0.5-2.9-0.7c-1.3-0.3-2.6-0.6-3.8-0.8
		c-1.4-0.3-2.9-0.4-4.3-0.7c-0.2,0-0.6-0.2-0.7-0.4c-0.3-0.5-0.8-0.8-1.2-1.1c-0.5-0.3-0.9-0.7-1.3-1c0.5-2,1.7-3.4,3-5
		c0.2,0.4,0.4,0.7,0.5,1c0.4,1,1.6,1.6,2.7,1.2c1.3-0.5,2.5-1,3.7-1.5c0.8-0.4,1-0.9,0.7-1.8c-0.3-0.9-0.6-1.7-1.5-2.2
		c-0.4-0.3-0.4-0.7-0.4-1.1c0.1-0.9,0.1-0.9-0.7-1.4c-0.6-0.4-1.1-0.9-2.1-0.7c0.2-0.4,0.4-0.7,0.6-1c1.8-2.4,3.5-4.9,5.3-7.3
		c2-2.6,3.7-5.4,5-8.5c1.3-3.2,2.5-6.4,3.8-9.6c0.6-1.5,1.2-2.9,1.8-4.3C199.7,76.3,199.8,76.2,199.9,76.1z M212.8,91.9
		c0,0.3,0.1,0.6,0.5,0.5c0.5-0.2,0.7-0.6,0.5-1.1c-0.3,0.1-0.5,0.1-0.7,0.2c0-0.1,0.1-0.1,0-0.2c-0.1-0.2-0.2-0.4-0.3-0.6
		c-0.2,0.1-0.4,0.2-0.5,0.3c-0.2,0.3-0.3,0.7-0.5,1.2C212.3,92,212.6,92,212.8,91.9z M209.9,112.8c-1.6-0.1-1.6-0.1-1.6,1.4
		c0,0.1-0.1,0.2,0,0.3c0.1,0.2,0.1,0.4,0.3,0.5c0.1,0.1,0.4-0.1,0.5-0.2c0.2-0.1,0.3-0.4,0.5-0.5
		C210.1,113.9,210.1,113.4,209.9,112.8z"/>
	<path class="st0" d="M134.2,82.1c-0.6,0.3-1.2,0.5-1.7,0.8c-1.2,0.6-1.4,1-1.1,2.3c0.1,0.4,0.3,0.7,0.3,1.1
		c0.2,0.7,0.1,0.9-0.7,1.1c-0.3,0.1-0.7,0.1-1,0.2c-0.9,0.2-1.7,0.4-2.5,0.7c-0.5,0.2-0.8,0.7-0.7,1.3c0.2,0.8,0.4,1.5,0.6,2.3
		c0.1,0.4,0.3,0.9-0.3,1.3c-0.1-0.3-0.2-0.5-0.3-0.7c-0.1-1.3-0.3-2.6-0.4-3.9c-0.1-1.3-0.3-2.7-0.4-4c0-0.4-0.1-0.8-0.1-1.2
		c0-3.3-0.2-6.7-0.1-10c0.1-2.5,0.4-4.9,1-7.2c0.1-0.5,0.3-1.1,0.5-1.6c0.8-2,1.6-4,2.5-6c1.1-2.4,2.6-4.6,4.2-6.7
		c1.1-1.4,2.4-2.5,3.9-3.4c1.7-1,3.4-2.1,5.1-3.2c0.1-0.1,0.3-0.2,0.4-0.3c0.3-0.5,0.8-0.5,1.3-0.5c1.8,0.1,3.6,0.1,5.4,0.2
		c0.9,0.1,1.8,0.3,2.7,0.5c0.2,0,0.3,0.3,0.4,0.4c0.1,0.3,0.2,0.7,0.3,1c0.1,0.5-0.1,0.9-0.6,1.1c-0.6,0.2-1.3,0.5-1.9,0.7
		c-0.8,0.3-1,0.5-0.9,1.3c0.1,0.9,0.2,1.8,0.4,2.7c0.2,1.1,0.1,1.2-0.8,1.6c-0.6,0.3-1.2,0.6-1.8,0.9c-0.5,0.2-0.7,0.6-0.6,1.1
		c0.1,0.7,0.3,1.4,0.4,2.1c0.2,0.8,0.2,1-0.5,1.4c-0.8,0.4-1.7,0.8-2.5,1.2c-0.7,0.4-0.8,0.4-0.6,1.2c0.1,0.6,0.2,1.2,0.3,1.8
		c0.2,1.2,0,1.5-1.1,1.9c-0.7,0.3-1.4,0.5-2,0.9c-0.8,0.4-0.9,0.7-0.7,1.5c0.1,0.4,0.2,0.7,0.4,1.1c0.4,1.2,0.4,1.4-0.8,2
		c-0.6,0.3-1.2,0.5-1.8,0.8c-0.6,0.2-0.8,0.6-0.7,1.2c0.1,0.9,0.2,1.8,0.3,2.7c0.1,0.6-0.1,0.9-0.6,1c-0.4,0.1-0.8,0.2-1.2,0.3
		c-0.4,0.1-0.7,0.2-1.1,0.4c-0.7,0.2-1,0.7-0.9,1.5C134,79.8,134.1,80.8,134.2,82.1z"/>
	<path class="st0" d="M123.5,41.5c-0.7,0.7-1.2,1.2-1.7,1.7c-1.1,1.4-2.9,2.1-4.1,3.5c-1.3,1.4-3.1,2.2-4.5,3.5
		c-0.4,0.4-1,0.4-1.5,0.3c-1.9-0.4-3.7-0.8-5.6-1.2c-0.3-0.1-0.6-0.2-0.8-0.2c-1.7,0-3.2-0.8-4.7-1.5c-1.6-0.7-3.3-1.4-5.1-1.6
		c-0.5-0.1-1.2,0-1.3-0.7c-0.1-0.7,0.4-1,0.9-1.3c1.1-0.6,2.3-1.2,3.4-1.8c1.2-0.6,2.4-1.1,3.5-1.8c1-0.6,1.9-1.3,2.8-2
		c0.6-0.5,1.1-0.9,2-1c0.3,0,0.6-0.2,0.9-0.4c1.1,0.5,2.2,1.2,3.3,1.7c1.5,0.6,3,1.3,4.6,1.7c1,0.3,2,0.3,3,0.4
		C120.1,41.2,121.7,41.3,123.5,41.5z M106.4,45c0.1,0,0.2,0,0.3,0c1.4-0.4,2.5-1.4,3.4-2.4c0.2-0.2,0.1-0.7,0-0.9
		c-1.2-2.1-4.1-3.1-5.8-0.6c-0.5,0.8-0.8,1.5-0.3,2.4C104.6,44.5,105.4,44.9,106.4,45z M110.1,45.3c0.2,0.4,0.5,0.7,0.7,1
		c0.3,0.4,0.7,0.6,1.2,0.3c0.2-0.1,0.4-0.2,0.5-0.3c1-0.6,2-1.3,3.1-1.8c0.9-0.5,1.1-0.8,0.7-1.7c-0.2-0.5-0.5-0.7-1-0.5
		c-0.9,0.4-1.8,0.8-2.7,1.3C111.8,44.1,111,44.7,110.1,45.3z M109.2,48.5c-0.5-0.4-1-0.6-1.5-0.8c-1.4-0.5-2.9-0.9-4.3-1.4
		c-0.8-0.2-1.6-0.4-2.4-0.6c-0.1,0-0.3-0.1-0.4-0.1c-0.2,0.1-0.4,0.2-0.6,0.3c0.1,0.2,0.2,0.4,0.3,0.5c0.3,0.2,0.7,0.3,1.1,0.4
		c2,0.7,4,1.3,5.9,2C108,49.1,108.6,49.2,109.2,48.5z M99.5,44.2c0,0.1-0.1,0.2-0.1,0.3c0.2,0.1,0.4,0.3,0.7,0.4
		c1.5,0.5,3.1,1.1,4.6,1.6c0.6,0.2,1.1,0.4,1.7,0.5c0.2,0.1,0.4,0.1,0.6,0c0.2-0.1,0.4-0.3,0.5-0.5c0-0.1-0.1-0.4-0.3-0.5
		c-0.2-0.1-0.4-0.1-0.6-0.2c-0.6-0.2-1.3-0.3-1.9-0.5c-1.1-0.3-2.2-0.7-3.3-1.1C100.8,44,100.1,44,99.5,44.2z M114.8,45.6
		c-0.6,0-1.1,0.6-1.1,1.2c0,0.5,0.4,0.8,0.9,0.8c0.6,0,1.2-0.6,1.1-1.2C115.7,46,115.2,45.6,114.8,45.6z M113.9,41.9
		c-0.4-0.3-0.7-0.5-1-0.6c-0.3-0.1-0.7,0.4-0.7,0.8c0,0.4,0.4,0.7,0.7,0.6C113.2,42.5,113.4,42.2,113.9,41.9z"/>
	<path class="st0" d="M209.3,90.4c-0.3,1-0.4,2-0.7,2.8c-0.6,1.4-1.3,2.6-2.7,3.3c-0.5,0.3-1,0.5-1.7,0.9c0.2-1.5-0.6-2.4-1.3-3.2
		c-0.4-0.5-0.8-0.4-1.2,0.1c-0.3,0.5-0.6,1-0.8,1.5c-0.2,0-0.4-0.1-0.7-0.1c-0.8,0-1.2,0.3-1.4,1c-0.1,0.6,0,0.9,0.8,1.2
		c0.3,0.2,0.7,0.2,1.1,0.3c0,0.1,0,0.1,0,0.1c-0.3,0.4-1,0.5-0.9,1.1c0.2,0.7,0.4,1.5,1.3,1.8c0,0,0,0.1,0.1,0.1
		c-0.2,0.7-0.2,1.6-0.7,2.4c-0.3-0.5-0.5-0.9-0.7-1.3c-0.5-1.1-1.4-1.8-2.6-2.2c-0.4-0.1-0.7-0.1-1,0.2c-0.8,0.6-1.6,1.2-2.3,1.9
		c-0.9,0.7-0.9,1.7-0.2,2.6c0.2,0.3,0.5,0.6,0.8,1c-1.2,0.4-1.4,1.7-2.2,2.4c-0.2-0.6-0.4-1.1-0.5-1.6c-0.1-0.6-0.2-1.2-0.3-1.8
		c0-0.6,0.2-1.1,0.7-1.5c0.7-0.5,1.1-1.2,1.4-2c0.5-1.2,1.1-2.4,1.5-3.6c0.3-1,0.5-2.1,0.7-3.1c0.1-0.6,0.2-0.9,0.8-1.2
		c0.1-0.1,0.3-0.1,0.4-0.2c1.3-0.5,1.7-1.6,1.9-2.8c0-0.1,0-0.2,0-0.3c0.2-1.1,0.3-1.2,1.6-1.4c0,0.2,0.1,0.5,0.1,0.7
		c0,0.3-0.1,0.6,0,0.8c0.2,0.5,0.4,1,0.7,1.4c0.5,0.5,1,0.1,1.5-0.1c0.1,0,0.2,0,0.4-0.1c0.2,0.3,0.5,0.6,0.7,1
		c0.4,0.7,0.4,0.7,1.2,0.6c0.2,0,0.5-0.1,0.7,0c1.5,0.5,1.8,0.3,2.4-1.1c0-0.1,0.1-0.3,0.1-0.4c-0.4-0.6-1-0.9-1.7-0.7
		c-0.6,0.2-1.1,0.6-1.8,0.8c0.1-0.2,0.2-0.3,0.4-0.5c0.7-0.6,0.8-1,0.3-1.9c-0.6-1.2-2-2.1-3.7-1.6c-0.2,0.1-0.4,0.1-0.7,0.1
		c-0.1-0.5,0.1-0.9,0.3-1.3c0.6-1.1,0.6-2.3,0.8-3.5c0.1-0.4-0.3-0.9-0.4-1.3c0.3-0.9,1-1,1.9-0.8c0,0.2-0.1,0.5-0.1,0.7
		c-0.1,0.6-0.3,1.3-0.2,1.9c0,0.9,0,1.7-0.3,2.6c-0.2,0.7-0.1,0.9,0.6,1.2c0.4,0.2,0.8,0.4,1.2,0.4c0.7,0,1.2-0.4,1.2-1.2
		c0.3,0.1,0.5,0.1,0.8,0.2c-0.2,0.2-0.3,0.4-0.4,0.5c-0.4,0.8-0.3,1.4,0.5,1.9c0.3,0.2,0.6,0.4,0.8,0.6
		C208,90.5,208.5,90.7,209.3,90.4z"/>
	<path class="st0" d="M228.3,103.5c-0.6-0.3-0.4-0.7-0.4-1.1c0-0.2-0.1-0.6-0.2-0.7c-0.2-0.1-0.6,0-0.7,0.2c-0.4,0.4-0.7,0.9-1.3,1
		c-1-1.2-1.7-1.3-2.7-0.2c0.3,0.5,0.5,0.9,0.9,1.5c-0.5,0.6-0.8,1.2-0.5,2c0.1,0.2-0.2,0.5-0.4,0.7c-0.4,0.4-0.7,0.8-1.1,1.1
		c-0.9,0.2-1.9,0.3-2.9,0.6c-0.7,0.2-1.1,0.7-1.5,1.3c-0.2,0.2-0.4,0.4-0.7,0.6c-0.6,0.3-0.7,0.5-0.4,1.1c0.2,0.3,0.4,0.6,0.7,1
		c-0.2,2.1,0.2,2.7,2.7,3.2c-0.1,0.4-0.1,0.9-0.3,1.3c-0.1,0.3-0.5,0.5-0.8,0.6c-0.2,0-0.5-0.2-0.6-0.4c-0.4-0.5-0.8-1-1.2-1.6
		c0-0.1,0.1-0.2,0.2-0.4c0.2-0.7-0.2-1.6-0.8-1.7c-1-0.2-1.7,0.2-1.7,1.2c0,0.6-0.2,0.9-0.6,1.4c-0.9,0.9-1.3,2.1-1,3.4
		c0.1,0.3,0.2,0.7,0.2,1c-0.7-0.1-1.4-0.2-2-0.4c-0.8-0.2-0.9-0.9-1.1-1.5c-0.2-0.5,0-0.9,0.4-1.2c0.7-0.4,0.9-1,1.1-1.6
		c0.1-0.3,0.1-0.6,0.2-0.9c0.2-1.4,0.9-2.4,2.1-3.1c0.7-0.4,1.3-0.9,1.9-1.4c0.5-0.4,0.5-1,0.6-1.6c0.4-2,1.1-3.8,2.9-4.8
		c0.5-0.3,1.2-0.4,1.8-0.6c1.3-0.4,1.8-0.8,1.7-2.2c0-1.2,0.3-2.1,1.5-2.7c0.4-0.2,0.7-0.5,1.1-0.9c0.7,0.2,1.4,0.5,2.1,0.8
		c0.3,0.1,0.4,0.5,0.6,0.9c-0.4,0.3-0.8,0.6-1.1,0.9c-0.3,0.2-0.5,0.5-0.2,0.8c0.2,0.2,0.6,0.3,0.7,0.2c0.7-0.4,1.3-0.3,2,0.1
		c0.5,0.3,1.1,0.3,1.6,0.4c0.3,0.7,0.6,1.3,0.9,2.1c-0.1,0.2-0.4,0.6-0.6,1c-0.5-0.3-0.4-0.8-0.6-1.3c-0.3-1-0.7-1.1-1.5-0.6
		C228.8,103.2,228.6,103.4,228.3,103.5z"/>
	<path class="st0" d="M211.1,69c-1.6,2.9-3.3,5.6-4.5,8.6c-0.6,0-1.1-0.4-1.5-0.8c-0.8-0.7-1.6-1.4-2.8-1.5c-0.4,0-0.8,0-1.2-0.1
		c-0.7-0.6-0.8-1.3-0.3-2.1c0.1-0.2,0.2-0.5,0.3-0.7c0.4-1,0.8-1.8,2.1-1.6c2.2-0.5,4.4-1.1,6.6-1.6C210.1,69.2,210.5,69.1,211.1,69
		z"/>
	<path class="st0" d="M209.5,78.3c0.6,0.7,1.1,1.4,1.6,2c-0.9,0.8-1.2,1.9-1.6,3c-0.3,0.8-0.9,1.5-1.4,2.1c-0.2,0.2-0.6,0.3-0.9,0.3
		c-0.6-0.1-1.2-0.3-1.7-0.5c-0.6-0.1-1-0.6-1-1.1c0-0.8,0.1-1.7,0.1-2.5c0.1-1.1,0.9-1.9,1.3-2.9c0.8-0.1,1.6-0.2,2.5-0.4
		c0,0.9-0.5,1.6-1,2.2c-0.3,0.4-0.6,0.8-0.8,1.2c-0.1,0.2-0.1,0.5,0,0.7c0.1,0.3,0.5,0.4,0.7,0.1c0.7-1.2,1.9-2.1,2.2-3.6
		C209.4,78.9,209.4,78.7,209.5,78.3z"/>
	<path class="st0" d="M210.5,97.9c-0.2-1.9,0.3-2.8,1.9-3.1c0,0.4,0.1,0.8,0.1,1.2c0.1,1.1,0.2,1.2,1.3,1.4c0.3,0.1,0.6,0.1,0.8,0.1
		c0.4,0,0.7,0.1,1,0.5c0.8,0.9,1.7,0.8,2.6,0c0.2,0.2,0.4,0.4,0.7,0.6c0.3,0.2,0.6,0.2,0.9,0.4c-0.3,0.7-0.7,1.3-1.6,1.2
		c-2-0.1-3.2,0.9-4,2.6c-0.1,0.1-0.1,0.2-0.3,0.4c-0.4-0.6-0.8-1.1-1.1-1.6c-0.1-0.1-0.1-0.4-0.1-0.5c0.2-0.6,0.1-1.2-0.3-1.7
		c-0.1-0.1-0.1-0.3-0.1-0.5c-0.1-0.8-0.2-0.9-1-1C211.1,97.9,210.9,97.9,210.5,97.9z"/>
	<path class="st0" d="M180.9,113.1c0.9-1.4,1.2-1.4,2.4-0.8c0.2,0.1,0.5,0.3,0.8,0.4c0.5,0.2,0.7-0.1,0.9-0.6
		c-0.8-0.4-1.6-0.8-2.4-1.2c0.3-0.6,0.5-1.2,0.1-1.9c-0.4-0.6,0.3-1.2,1.2-1c0.7,0.1,1.3,0.9,1.2,1.6c-0.1,0.7,0.2,1.2,0.7,1.5
		c0.7,0.4,1,1.1,1.2,1.8c0.1,0.4,0,0.6-0.3,0.8c-1,0.5-2.1,1-3.1,1.4c-1,0.3-1.4,0.1-1.9-0.8C181.4,113.9,181.1,113.5,180.9,113.1z"
		/>
	<path class="st0" d="M209.5,103.1c-0.7,0.3-1.2,0.6-1.8,0.9c-0.6,0.4-1.2,0.7-1.8,1.1c-0.5,0.3-0.9,0.5-1.5,0.2
		c-0.1-0.7-0.2-1.4-0.3-2.1c0-0.3,0.1-0.6,0.3-0.9c0.3-0.4,0.6-0.7,1-0.9c0.7-0.5,1.4-1.1,1.9-1.9c0.5-0.8,1.4-1.2,2.4-1.6
		c-0.2,0.9,0,1.7-0.5,2.5c-0.2,0.4-0.1,1-0.1,1.5C209.1,102.4,209.3,102.6,209.5,103.1z"/>
	<path class="st0" d="M223.5,112c-0.5,0.7-1,1.5-1.6,2.3c-0.3,0.5-0.8,0.8-1.5,0.6c-0.4-0.1-0.8,0-1.3-0.1c-1-0.2-1.2-0.8-0.7-1.6
		c0.5-0.7,0.8-1.4,0.2-2.2c-0.3-0.4-0.1-0.7,0.2-1c0.7-0.6,2.4-0.7,3.2-0.3c0.2,0.1,0.4,0.4,0.5,0.6
		C222.9,110.7,223.1,111.2,223.5,112z"/>
	<path class="st0" d="M206.4,106.2c0.6-0.7,4.2-2.8,6-3.6c0.2,0.2,0.4,0.4,0.6,0.7c0.4,0.6,0.4,0.9-0.1,1.4c-0.5,0.5-0.7,1-0.7,1.7
		c0,0.7-0.3,1.2-1,1.4c-0.6,0.2-1.1,0.4-1.7,0.6c-0.5,0.2-1.1,0.3-1.6,0.4c-0.3-1-0.3-1.1,0.4-1.5c0.6-0.3,1.2-0.6,1.8-0.9
		c0.3-0.1,0.6-0.3,0.9-0.5c-0.3-0.7-0.7-0.7-1.1-0.5c-0.7,0.3-1.4,0.6-2.1,1C207.2,106.8,206.8,106.8,206.4,106.2z"/>
	<path class="st0" d="M200,105c-0.4,0.2-0.8,0.5-1.3,0.8c-0.4-0.6-0.7-1.1-1-1.6c-0.2-0.3-0.4-0.6-0.6-0.9c-0.1-0.1-0.5-0.2-0.6-0.1
		c-0.1,0.1-0.2,0.4-0.2,0.6c0,0.2,0.2,0.4,0.4,0.6c0.4,0.7,0.8,1.3,1.2,2c-0.3,0.5-0.6,0.9-0.9,1.5c-0.6-0.2-0.8-0.6-1.1-1.1
		c-0.3-0.7-0.7-1.5-1.1-2.2c-0.6-0.9-0.6-1.2,0.2-1.9c0.4-0.4,0.8-0.7,1.2-1c0.6-0.4,1-0.5,1.5,0c0.4,0.4,0.8,0.9,1.1,1.4
		C199.1,103.6,199.5,104.2,200,105z"/>
	<path class="st0" d="M202.1,112.2c-0.1-0.2-0.3-0.5-0.3-0.7c-0.1-1.3-0.2-2.6-0.2-3.9c0-0.8,0.1-0.9,0.9-1.1
		c1.3-0.3,2.5-0.4,3.4,0.7c0.6,0.6,0.6,0.9,0.2,1.7c-0.6,1.1-1.7,1.9-2.5,2.9c-0.4-1.4,0.4-2.8-0.2-4c-0.7,0-0.7,0.4-0.7,0.8
		c-0.1,1-0.1,2-0.2,3c0,0.2-0.1,0.3-0.1,0.5C202.3,112.2,202.2,112.2,202.1,112.2z"/>
	<path class="st0" d="M226.6,103.7c2.3,2.4,2,3.7-0.1,5.2c-0.9-0.7-1.5-1.7-2.1-2.8c-0.2-0.4-0.1-0.9,0.2-1.1
		C225.3,104.5,226,104.1,226.6,103.7z"/>
	<path class="st0" d="M216.7,119.8c0,0.1-0.1,0.2-0.1,0.3c-0.6,1.3-1,1.4-2.5,1c-0.1-0.7-0.3-1.4-0.3-2.2c-0.1-0.7,0.3-1.4,0.8-1.9
		c0.7-0.7,1.3-0.7,2.1,0.1c0.1,0.1,0.2,0.2,0.3,0.3C217.9,118.6,217.9,118.7,216.7,119.8c-0.3-0.6-0.6-1.1-1-1.7
		c-0.2-0.3-0.5-0.5-0.9-0.2c-0.4,0.3-0.1,0.6,0.1,0.8c0.2,0.3,0.5,0.5,0.7,0.8C215.8,119.9,216.2,120,216.7,119.8z"/>
	<path class="st0" d="M210.1,89.6c-0.2,0-0.4-0.1-0.5-0.1c-1,0.3-1.6-0.5-2.3-1c-0.1-0.1-0.2-0.6-0.1-0.7c0.7-0.6,1.4-1.2,2.2-1.6
		c0.7-0.4,1-0.2,1.4,0.6c0.4,0.8,0.4,1.4-0.2,2.1C210.5,89,210.3,89.3,210.1,89.6z"/>
	<path class="st0" d="M212.3,87.4c-0.7-0.9-0.7-2.5-2.4-2.4c0.5-1.1,1-2.2,1.5-3.4c0.5,0.4,0.9,0.9,0.9,1.6c0,0.6,0.2,1.1,0.7,1.5
		c0.4,0.3,0.5,0.8,0.8,1.2C213.4,86.6,213.1,87.1,212.3,87.4z"/>
	<path class="st0" d="M184.6,39.8c0.8,1.6,0.8,3.4,1.4,5c-1,0.1-1.8-0.2-2.4-0.7c-0.2-0.1-0.3-0.5-0.3-0.7
		C183.1,42.1,183.4,40.9,184.6,39.8z"/>
	<path class="st0" d="M215,93.8c0,0.3,0.1,0.6,0.1,0.9c0,0.1,0.2,0.4,0.3,0.4c0.2,0,0.4-0.2,0.5-0.3c0.1-0.3,0.1-0.6,0.1-0.8
		c0-0.4-0.1-0.8-0.1-1.3c0-0.3,0.1-0.6,0.1-0.9c0.6,0,0.9,0.2,0.9,0.8c0,0.4,0.2,0.7,0.4,1.1c0.2,0.5,0.1,0.8-0.2,1.1
		c-0.4,0.4-0.9,0.9-1.3,1.4c-0.4,0.5-0.9,0.6-1.6,0.4c-0.5-0.2-0.5-0.6-0.5-1C213.5,94.7,213.7,94.1,215,93.8z"/>
	<path class="st0" d="M192.9,110.3c0.1-1.4,0.2-2.5,1.8-2.8c0.2,0.2,0.4,0.5,0.7,0.8c0.6,0.6,0.8,1.2,0.3,1.9
		c-0.3,0.5-0.7,0.8-1.2,0.7C194,110.7,193.5,110.5,192.9,110.3z"/>
	<path class="st0" d="M203.6,78.3c-0.5-0.1-0.9-0.1-1.5-0.2c-0.1-0.5-0.1-1-0.2-1.5c0.9-0.1,2.1,0.4,2.4,1c0.5,0.9,0,2-1,2.2
		c-0.4,0.1-0.8,0.1-1.1,0.1c-0.3-0.5-0.1-0.7,0.3-0.8C202.9,78.9,203.5,79.1,203.6,78.3z"/>
	<path class="st0" d="M201.7,90.7c-0.3-0.2-0.4-0.6-0.4-1.1c0.1-0.7,0.6-1.1,1.3-1c0.6,0.1,1.2,0.3,1.5,0.9c0.1,0.3,0.4,0.7,0.3,0.8
		c-0.2,0.2-0.5,0.4-0.9,0.5C203.1,90.8,202.5,90.7,201.7,90.7z"/>
	<path class="st0" d="M226,109.9c-0.1,0.1-0.2,0.4-0.4,0.6c-0.6,0.7-1.6,0.5-1.8-0.4c-0.2-0.6-0.3-1.2-0.4-1.8
		c-0.1-0.3,0-0.6,0.3-0.7c0.2,0,0.5,0.1,0.6,0.2C224.9,108.6,225.4,109.2,226,109.9z"/>
	<path class="st0" d="M193.7,47.6c-0.7,0.6-1.3,1.2-2,1.8c0-0.7-0.2-1.2-0.8-1.4c-0.4-0.1-0.4-0.5-0.3-0.8c0.2-0.4,0.5-0.7,0.7-1.1
		C192.2,46.4,192.8,47.1,193.7,47.6z"/>
	<path class="st0" d="M218.5,94.3c0-0.3,0-0.5,0-0.7c1.3,0.1,2.8-0.5,3.9,0.8c-0.1,0.2-0.3,0.5-0.4,0.8
		C220.9,94.6,219.8,94.2,218.5,94.3z"/>
	<path class="st0" d="M218.9,95.5c1.1-0.2,1.8,0,1.9,0.5c0,0.3-0.1,0.6-0.2,0.9c-0.1,0.4-0.4,0.8-0.9,0.8
		C219,97.2,219.3,96.3,218.9,95.5z"/>
	<path class="st0" d="M203.1,97.9c-0.7,0.2-1-0.3-1.5-0.5c0.1-0.8,0.3-1.5,0.8-2.2C203.5,96,202.7,97,203.1,97.9z"/>
	<path class="st0" d="M216.9,97.6c-0.5-1.3-0.3-1.9,0.9-2C217.6,96.3,217.9,97.1,216.9,97.6z"/>
	<path class="st0" d="M202.7,99.2c-0.3,0.4-0.6,0.7-0.9,1.2c-0.2-0.1-0.4-0.1-0.6-0.3c-0.3-0.3-0.3-0.7,0.1-0.8
		c0.4-0.2,0.9-0.2,1.4-0.3C202.7,99,202.7,99.1,202.7,99.2z"/>
	<path class="st0" d="M229.6,103.9c0.1,0.5,0.3,0.9,0.3,1.3c0,0.2-0.2,0.4-0.4,0.5c-0.2-0.1-0.4-0.2-0.4-0.4
		C228.8,104.8,228.9,104.5,229.6,103.9z"/>
	<path class="st0" d="M211.7,100.8c-0.3-0.5-0.6-1-0.8-1.5c-0.1-0.1,0.1-0.3,0.3-0.6C212.1,100.2,212.1,100.2,211.7,100.8z"/>
	<path class="st0" d="M192.8,111.4c-0.5-0.1-1-0.1-1.4-0.3c-0.5-0.2-0.4-0.5-0.2-0.7C191.8,110.8,192.3,111.1,192.8,111.4z"/>
	<path class="st0" d="M210,100.9c0.6,0.4,1,0.6,0.8,1.2c0,0.1-0.2,0.2-0.3,0.1C210,102,210,101.6,210,100.9z"/>
	<path class="st0" d="M194.8,112.3c-0.4,0.2-0.7,0.3-0.9,0.4c-0.1-0.3-0.2-0.5-0.3-1C194,111.9,194.3,112.1,194.8,112.3z"/>
	<path class="st0" d="M204.8,86.5c-0.4,0.2-0.7,0.3-0.9-0.1c0-0.1,0-0.2,0.1-0.3C204.4,86,204.6,86.1,204.8,86.5z"/>
	<path class="st0" d="M200.7,96.9c-0.1,0.2-0.2,0.3-0.3,0.3c-0.2-0.1-0.3-0.3-0.5-0.4c0,0,0.2-0.3,0.2-0.3
		C200.3,96.6,200.4,96.7,200.7,96.9z"/>
	<path class="st0" d="M229.1,107.3c0.2-0.2,0.4-0.4,0.6-0.6c0.1,0.1,0.2,0.2,0.3,0.2c-0.2,0.2-0.4,0.4-0.5,0.7
		C229.4,107.5,229.3,107.4,229.1,107.3z"/>
	<path class="st0" d="M217.6,111.3c0.1,0.2,0.3,0.3,0.4,0.5c-0.1,0.1-0.1,0.1-0.2,0.2c-0.2-0.1-0.3-0.3-0.5-0.4
		C217.5,111.5,217.6,111.4,217.6,111.3z"/>
	<path class="st0" d="M208.6,63.9c-0.3-0.3-0.5-0.6-0.8-0.9c0,0,0.1-0.1,0.1-0.1c0.3,0.3,0.5,0.7,0.8,1
		C208.8,63.9,208.7,63.9,208.6,63.9z"/>
	<path class="st0" d="M206.7,92.4c-0.1-0.1-0.1-0.2-0.1-0.3c0-0.1,0.1-0.2,0.1-0.2c0.1,0.1,0.2,0.2,0.2,0.3
		C206.9,92.2,206.8,92.3,206.7,92.4z"/>
	<path class="st0" d="M221.2,116.5c-0.2,0.2-0.3,0.3-0.5,0.5c0,0-0.1-0.1-0.1-0.1c0.2-0.2,0.3-0.3,0.5-0.5
		C221.1,116.4,221.1,116.5,221.2,116.5z"/>
	<path class="st0" d="M224.3,103.2c0,0,0.1,0.1,0.1,0.1c0,0,0,0.1,0,0.1c-0.1,0-0.1,0-0.2,0C224.3,103.3,224.3,103.2,224.3,103.2z"
		/>
	<path class="st0" d="M215.6,114.8c0.1,0,0.1,0,0.2,0.1c0,0-0.1,0.1-0.1,0.1c-0.1,0-0.1,0-0.2-0.1
		C215.6,114.9,215.6,114.8,215.6,114.8z"/>
	<path class="st0" d="M208.8,63.9c0.1,0.1,0.3,0.2,0.4,0.4c0,0-0.1,0.1-0.1,0.1C209,64.3,208.8,64.2,208.8,63.9
		C208.7,64,208.8,64,208.8,63.9z"/>
	<path class="st0" d="M78.6,70.1c-0.4-0.1-0.7-0.2-1-0.3c0.2-1.3,0.4-2.4,0.6-3.6c0.2-1.6,0.4-3.3,0.6-4.9c0.1-0.5,0.2-1,0.3-1.5
		c0.1-0.4,0.3-0.6,0.7-0.7c2.1-0.3,4.2-0.4,6.4-0.2c0.9,0.1,1.8,0.5,2.5,1c1.1,0.6,1.4,1.9,1,3.1c-0.2,0.6-0.6,0.9-1.2,1.1
		c-1.5,0.5-3,0.7-4.6,0.8c-1,0.1-2.1,0-3.1,0c-0.9,0-0.9,0.1-1.1,0.9C79.4,67.3,79,68.6,78.6,70.1z M83.7,63.7
		c1.3-0.3,2.8-0.5,4.2-0.8c0.9-0.2,1.1-0.8,0.5-1.5c-0.4-0.4-0.9-0.8-1.4-0.9c-1.6-0.2-3.2-0.3-4.7-0.4c-0.6,0-1,0.4-1.1,0.9
		c-0.1,0.4-0.3,0.9-0.4,1.3c-0.1,0.5,0,0.8,0.5,0.9C82.1,63.5,82.8,63.6,83.7,63.7z"/>
	<path class="st0" d="M101.4,86.8c0.1-0.3,0.3-0.6,0.3-0.8c0.1-2.3,0.6-4.6,1.7-6.6c0.2-0.4,0.5-0.6,0.9-0.6
		c1.3,0.1,2.6,0.1,3.9,0.3c0.8,0.1,1.6,0.5,1.8,1.6c0.1,0.8-0.1,1.4-0.9,1.8c-0.4,0.2-0.9,0.3-1.3,0.5c-0.6,0.2-0.7,0.8-0.2,1.1
		c0.3,0.2,0.7,0.3,1,0.5c0.4,0.2,0.8,0.4,1.1,0.7c0.6,0.5,0.6,1.1-0.1,1.4c-1.2,0.5-2.4,1.2-3.8,1c-1.2-0.2-2.3-0.5-3.4-0.7
		C102.1,86.8,101.7,86.8,101.4,86.8C101.4,86.8,101.4,86.8,101.4,86.8z M106.6,87c0.9,0.1,1.3-0.2,1.4-1c0.2-1.2-0.3-1.8-1.5-1.8
		c-0.8,0-1.7-0.1-2.5-0.1c-0.4,0-0.7,0.2-0.9,0.5c-0.1,0.2-0.2,0.5-0.3,0.7c-0.3,0.7-0.1,1.2,0.7,1.3
		C104.5,86.8,105.6,86.9,106.6,87z M103.8,82c0.9,0.1,1.7,0.1,2.5,0.2c0.5,0,0.9-0.1,1.4-0.2c0.8-0.2,1.4-0.9,1.4-1.5
		c0-0.5-0.6-1.1-1.5-1.2c-0.8-0.1-1.7-0.1-2.5-0.1c-0.2,0-0.6,0.1-0.7,0.3C104,80.3,103.7,81.1,103.8,82z"/>
	<path class="st0" d="M116.2,73.1c0.4,0,0.7,0.1,0.9,0.1c0,0.1,0.1,0.1,0.1,0.1c-0.4,0.8-0.7,1.5-1.3,2.3
		C116,74.8,116.1,74,116.2,73.1z"/>
	<path class="st0" d="M118.2,73c0.7,0.1,1,0.4,1,1.1C118.9,73.8,118.6,73.4,118.2,73z"/>
	<path class="st0" d="M102.2,70.6c-1.2,0.2-1.4,1.2-1.6,2c-0.2,0.7,0.5,0.8,1,1c-1.2,0-1.5-0.4-1.3-1.6c0-0.2,0.1-0.3,0.2-0.5
		c0.2-0.5,0.1-1-0.4-1.3c0.6-0.2,0.6-0.2,1.7-2.2c0,0.3,0.1,0.5,0.1,0.6c0,0.2-0.2,0.4-0.2,0.6C101.2,70.1,101.2,70.1,102.2,70.6z"
		/>
	<path class="st0" d="M107.6,71.6c-0.7,0.1-0.8,1.4-1.8,0.9C105.8,71.5,106.4,71.3,107.6,71.6z"/>
	<path class="st0" d="M106.5,74.5c0.3,0,0.6,0.1,1,0.1c0,0.1,0,0.1,0,0.2c-0.3,0-0.6,0-0.9,0C106.5,74.6,106.5,74.5,106.5,74.5z"/>
	<path class="st0" d="M108.5,72.4c-0.1,0.1-0.1,0.1-0.1,0.1c0-0.1-0.1-0.2-0.1-0.2c0,0,0.1-0.1,0.1-0.1
		C108.4,72.2,108.5,72.3,108.5,72.4z"/>
	<path class="st0" d="M87.1,67.8c1,0.8,1.9,0.3,3,0.3c-0.3,0.2-0.3,0.2-0.4,0.3c-0.1,0-0.2,0-0.3,0c-0.9,0.2-1,0.2-1.2,1.2
		c-0.1,0.3-0.2,0.6-0.2,0.9c-0.1,0.3-0.1,0.7-0.5,0.6c-0.2-0.1-0.4-0.4-0.4-0.6C86.9,69.6,87,68.8,87.1,67.8z"/>
	<path class="st0" d="M115,87.1c-0.4,0-0.6,0-0.8,0c0-0.1,0-0.2,0-0.2C114.5,86.8,114.8,86.5,115,87.1z"/>
	<path class="st0" d="M115,85.3c0.1,0.1,0.1,0.3,0.2,0.4c0,0-0.1,0-0.1,0.1c-0.1-0.1-0.1-0.3-0.2-0.4
		C114.9,85.3,114.9,85.3,115,85.3z"/>
	<path class="st0" d="M119.3,86.1c-0.1,0.4-0.2,0.8-0.3,1.2c-0.3-0.5-0.2-0.9,0.1-1.3C119.1,86.1,119.2,86.1,119.3,86.1z"/>
	<path class="st0" d="M96.8,70.6c0,0.8-0.9,1.7-1.7,1.7c-1.1,0-2-0.8-2-1.8c0-0.8,0.8-1.5,1.6-1.5C95.7,68.9,96.8,69.8,96.8,70.6z
		 M94.9,71.9c0.6,0,1.3-0.5,1.3-1c0-0.6-0.7-1.2-1.3-1.2c-0.6,0-1.1,0.4-1.1,1.1C93.7,71.4,94.2,71.9,94.9,71.9z"/>
	<path class="st0" d="M111.7,75c0.2-0.9,0.3-1.7,0.5-2.6c0.1,0,0.2,0,0.3,0.1C112.6,73.4,112.3,74.2,111.7,75z"/>
	<path class="st0" d="M68.6,73.5c0.1-0.4,0.2-0.9,0.3-1.3c0-0.1,0.3-0.2,0.4-0.2c0.1,0,0.2,0.3,0.2,0.4c-0.1,0.4-0.3,0.8-0.5,1.2
		C68.8,73.6,68.7,73.5,68.6,73.5z"/>
	<path d="M162.2,48.1c0.6,1,0.4,1.7,0.1,2.4c-0.2,0.5-0.4,0.9-0.6,1.3c-2.1,4.2-3.8,8.5-6.2,12.5c-2.6,4.4-5.3,8.8-8,13.2
		c-1.7,2.8-3.3,5.7-4.8,8.5c-0.7,1.3-1.3,2.7-1.9,4c-0.1,0.1-0.1,0.3-0.2,0.4c-0.2,0.1-0.4,0.3-0.6,0.3c-0.3-0.1-0.4-0.4-0.2-0.7
		c0.4-0.8,0.7-1.6,1.1-2.4c2-3.7,4.1-7.3,6.2-10.9c2.1-3.5,4.2-7,6.3-10.5c2.6-4.3,4.7-9,6.8-13.6c0.2-0.5,0.4-0.9,0.6-1.3
		c0.3-0.7,0.5-1.4,0.8-2.1C161.8,48.9,162,48.6,162.2,48.1z"/>
	<path d="M159.3,49c0.7,0.5,0.4,1,0.2,1.5c-0.3,0.7-0.7,1.4-1.1,2.1c-1.3,2.9-2.6,5.7-4,8.6c-0.9,1.7-1.9,3.4-2.9,5.1
		c-2.2,3.9-4.4,7.8-6.6,11.7c-1.5,2.7-3.1,5.3-4.6,8c-0.5,0.9-0.9,1.8-1.4,2.6c-0.2,0.3-0.4,0.6-0.7,0.8c-0.1,0.1-0.5,0.1-0.6,0
		c-0.1-0.1-0.1-0.5,0-0.6c2.5-4.3,5-8.6,7.5-12.9c2.4-4.1,4.7-8.3,7.1-12.5c1.9-3.3,3.6-6.8,5-10.3c0.5-1.2,1.1-2.3,1.7-3.4
		C158.9,49.4,159.1,49.3,159.3,49z"/>
	<path d="M156.5,49.4c0.6,0.4,0.3,0.9,0.1,1.3c-0.8,1.8-1.6,3.5-2.5,5.3c-2.1,4.2-4.3,8.3-6.5,12.5c-1.6,3.1-3.4,6.1-5.1,9.1
		c-1.5,2.6-3,5.2-4.5,7.9c-0.5,0.8-0.9,1.7-1.4,2.5c-0.1,0.2-0.2,0.4-0.4,0.5c-0.1,0.1-0.4,0.1-0.5,0.1c-0.1-0.1-0.2-0.4-0.2-0.5
		c0.2-0.5,0.4-1,0.7-1.4c1.2-2.1,2.5-4.3,3.8-6.4c1.5-2.6,3-5.2,4.4-7.9c0.8-1.4,1.6-2.8,2.3-4.2c1-1.9,1.9-3.9,2.9-5.8
		c1-1.9,2-3.7,2.9-5.5c0.9-1.8,1.7-3.7,2.6-5.6C155.6,50.5,155.9,49.8,156.5,49.4z"/>
	<path d="M166.2,49.2c-0.1,0.2-0.1,0.5-0.2,0.6c-1.3,2.5-2.6,5-4,7.4c-2.2,3.8-4.5,7.7-6.7,11.5c-1.7,3-3.5,5.9-5.2,8.9
		c-1.4,2.4-2.9,4.8-4.2,7.3c-1.1,1.9-2.1,3.9-3.1,5.9c-0.2,0.4-0.3,0.8-0.9,0.8c-0.2-0.7,0.1-1.4,0.4-1.9c2-3.6,4.1-7.2,6.1-10.7
		c0.7-1.2,1.3-2.4,2-3.5c2.3-3.9,4.8-7.7,7-11.7c2.5-4.3,5-8.6,7-13.1c0.3-0.8,0.9-1.2,1.6-1.6C166,49.1,166.1,49.2,166.2,49.2z"/>
	<path d="M183.6,80.5c-0.3,2.7-0.8,5.1-2.4,7.2c-0.6,0.8-1.3,1.5-2.1,2.1c-2.4,2.2-4.9,4.2-7.9,5.5c-1.3,0.6-2.5,1.5-3.8,2.2
		c-0.3,0.2-0.7,0.4-1,0.5c-0.2,0-0.4-0.1-0.6-0.2c0.1-0.2,0.1-0.5,0.3-0.6c2-1.1,3.9-2.5,6-3.4c1.4-0.6,2.8-1.6,4-2.6
		c1.4-1.1,2.7-2.4,3.9-3.8c1.3-1.4,2.1-3.2,2.3-5.1c0-0.2,0.1-0.5,0.1-0.7c0.2-1,0-1.8-0.7-2.7c-0.9-1.1-1.6-2.3-2.4-3.4
		c-0.4-0.6-1-1-1.5-1.5c-0.2-0.2-0.5-0.3-0.3-0.7c0.2-0.4,0.6-0.3,0.8-0.1c0.6,0.6,1.3,1.2,1.9,1.9c0.9,1.1,1.7,2.4,2.6,3.5
		C183.3,79.3,183.6,79.9,183.6,80.5z"/>
	<path d="M157.1,81.1c2-2.8,3.7-5.8,6.1-8.3c2.4-2.5,4.6-5.2,7-7.7c1.6-1.7,3.2-3.3,5.1-4.7c1.1-0.8,2.3-1.1,3.5-1.4
		c0.2-0.1,0.6,0,0.8,0.2c0.2,0.1,0.3,0.4,0.4,0.7c-0.2,0.1-0.4,0.3-0.6,0.3c-1.8,0-3.2,0.9-4.5,2c-2.3,1.9-4.4,4-6.3,6.3
		c-1.2,1.4-2.5,2.8-3.8,4.1c-2.3,2.3-4.1,5-5.8,7.7c-0.2,0.3-0.4,0.6-0.6,0.9C157.9,81.5,157.8,81.5,157.1,81.1z"/>
	<path d="M154.9,97.9c-0.2-0.1-0.5-0.2-0.6-0.4c-0.1-0.1,0-0.4,0.1-0.6c0.4-0.4,0.8-0.7,1.2-1c1-0.7,2.1-1.3,3.1-2
		c4.2-3.3,8.3-6.7,12.5-10.1c0.7-0.6,1.4-1.3,2.1-1.9c0.2-0.1,0.3-0.4,0.5-0.4c0.2,0,0.5,0.1,0.7,0.2c0.1,0.1,0,0.5-0.1,0.6
		c-1,0.9-2,1.8-3.1,2.6c-2.3,1.9-4.6,3.8-6.9,5.6c-1.9,1.5-3.9,3-5.6,4.7c-0.5,0.5-1.1,0.7-1.7,1.1c-0.6,0.4-1.1,0.8-1.6,1.1
		C155.3,97.6,155.1,97.7,154.9,97.9z"/>
	<path d="M157.4,93.5c-0.1-0.2-0.2-0.3-0.2-0.5c0-0.3,0-0.6,0.2-0.8c1-1.6,1.9-3.1,3-4.6c1.7-2.5,3.6-4.9,5.3-7.3
		c0.6-0.8,1.1-1.7,1.8-2.5c0.4-0.5,0.8-0.9,1.2-1.3c0.1-0.1,0.4-0.1,0.5-0.1c0.1,0.1,0.2,0.4,0.1,0.6c-0.1,0.3-0.3,0.5-0.5,0.7
		c-0.8,1-1.5,2.1-2.3,3.1c-1.2,1.7-2.5,3.3-3.7,5c-1.4,2-2.7,4.1-4.1,6.1c-0.3,0.4-0.5,0.8-0.8,1.2
		C157.9,93.2,157.7,93.2,157.4,93.5z"/>
	<path d="M149.9,98.6c-0.4-0.2-0.8-0.3-1.2-0.5c-1.2-0.6-2.3-1.3-3.5-1.8c-1.5-0.7-3-1.2-4.5-1.8c-1.9-0.8-3.9-1.5-5.6-2.7
		c-0.4-0.3-1-0.5-1.5-0.8c-0.2-0.1-0.2-0.4-0.3-0.6c0.2-0.1,0.5-0.3,0.6-0.2c0.5,0.1,1.1,0.3,1.5,0.6c2.7,2,5.9,2.9,8.9,4.1
		c0.8,0.3,1.5,0.7,2.2,1c1.2,0.5,2.3,1,3.5,1.6c0.2,0.1,0.4,0.4,0.5,0.7C150.5,98.3,150.1,98.5,149.9,98.6z"/>
	<path d="M138.6,102.5c-0.4,0.3-0.6,0.6-0.8,0.6c-0.4,0.1-0.8,0.2-1.2,0.2c-0.7,0.1-1.3,0.2-2,0.4c-1,0.2-2,0.5-3,0.7
		c-1.8,0.3-3.3-0.3-4.4-1.8c-0.7-1-1.3-2-1.8-3.1c0.5-0.4,0.9-0.3,1.2,0.2c0.4,0.6,0.8,1.2,1.1,1.8c1,1.6,2.3,2.3,4.2,1.8
		c1.4-0.4,2.8-0.7,4.2-1C136.9,102.2,137.6,102.1,138.6,102.5z"/>
	<path d="M169.6,57.6c0.4-0.1,0.7-0.2,1.1-0.3c2.3-0.2,4.6-0.4,6.9-0.5c2-0.1,4,0,5.9,0.1c0.4,0,1,0,0.9,0.6c0,0.5-0.6,0.4-1,0.4
		c-1.5,0-3.1-0.1-4.6-0.1c-1.7,0.1-3.3,0.3-5,0.4c-1.2,0.1-2.5,0.1-3.7,0.1c-0.2,0-0.4-0.2-0.7-0.3
		C169.6,57.9,169.6,57.7,169.6,57.6z"/>
	<path d="M185.2,54.3c-0.1,0.5-0.5,0.7-1,0.8c-3.1,0.5-6.2,1.1-9.3,1.6c-1,0.2-2,0.1-3.1,0.2c-0.2,0-0.5-0.1-0.7-0.2
		c-0.1-0.1-0.3-0.3-0.2-0.4c0-0.1,0.2-0.3,0.3-0.3c0.2-0.1,0.4-0.1,0.6-0.1c1.9,0.1,3.7-0.4,5.6-0.7c1.8-0.4,3.7-0.7,5.5-1
		c0.4-0.1,0.8-0.1,1.3-0.2C184.5,53.9,184.9,53.8,185.2,54.3z"/>
	<path d="M154.2,99c0,0.5-0.3,0.6-0.7,0.6c-0.7,0.1-1.5,0.1-2.2,0.3c-1.4,0.4-2.7,1-4,1.4c-1.5,0.4-3,0.7-4.4,1.1
		c-0.8,0.2-1.5,0.4-2.2,0.6c-0.2,0-0.3,0.1-0.5,0.2c-0.4,0.1-0.7,0.1-0.9-0.3c-0.2-0.5,0.2-0.7,0.5-0.8c0.9-0.3,1.8-0.6,2.7-0.7
		c2.5-0.1,4.7-0.9,6.9-1.8c0.8-0.4,1.7-0.7,2.6-0.9c0.5-0.1,1.1-0.1,1.7-0.1C153.9,98.7,154.1,98.9,154.2,99z"/>
	<path d="M183,66.3c0.7-0.5,0.7-0.5,1.1,0c0.8,1,1.6,2,2.5,3c1.2,1.3,2.8,1.9,4.6,1.9c1.3,0,2.7,0,4,0c0.2,0,0.4-0.1,0.5,0
		c0.1,0,0.3,0.2,0.4,0.3c0,0.1,0,0.4-0.2,0.5c-0.1,0.1-0.4,0.2-0.6,0.2c-1.9,0-3.8,0-5.6-0.1c-1.4-0.1-2.6-0.9-3.6-1.8
		C184.9,69.1,183.8,67.8,183,66.3z"/>
	<path d="M165.3,113.4c-0.2,0.6-0.7,0.7-1.1,0.8c-1.5,0.4-3.1,0.7-4.6,1.2c-2.1,0.6-4.3,1.3-6.4,2c-0.4,0.1-0.7,0.3-1.1,0.3
		c-0.2,0-0.6-0.2-0.7-0.4c-0.2-0.4,0.2-0.5,0.5-0.5c0.5-0.1,1-0.2,1.4-0.4c2-0.6,3.9-1.4,5.9-2c1.5-0.5,3.1-0.8,4.6-1.2
		C164.4,112.9,164.9,112.8,165.3,113.4z"/>
	<path d="M137.6,109c0.1-0.1,0.2-0.4,0.4-0.6c0.6-0.6,0.7-1.2,0.6-2c-0.1-0.4,0-0.8-0.1-1.3c0-0.3,0.1-0.6,0.4-0.6
		c0.4,0,0.6,0.2,0.6,0.6c0,0.3,0,0.6,0,1c0,0.3,0.1,0.6,0.2,0.8c0.3,0.6,0.2,1.1-0.3,1.5c-0.6,0.6-0.7,1.3-0.5,2
		c0.2,0.9,0.4,1.9,0.6,2.8c0,0.2,0.1,0.4,0,0.6c-0.1,0.2-0.3,0.3-0.5,0.4c-0.1,0-0.3-0.1-0.4-0.2c-0.1,0-0.1-0.1-0.1-0.2
		c-0.3-1.5-0.7-3-1-4.5C137.6,109.2,137.6,109.2,137.6,109z"/>
	<path d="M133.3,116.2c-1.1,0-2.2,0-3.3,0c-0.6,0-1.1,0.2-1.7,0.2c-0.2,0-0.4-0.2-0.6-0.3c0.1-0.2,0.2-0.5,0.4-0.5
		c0.6-0.1,1.2-0.2,1.8-0.3c2-0.1,4-0.1,5.9-0.2c0.3,0,0.6-0.1,0.9-0.1c0.3,0,0.7-0.1,0.9,0c0.2,0.1,0.5,0.3,0.6,0.5
		c0.1,0.4-0.2,0.6-0.5,0.7c-0.3,0.1-0.6,0.1-0.8,0.1C135.8,116.2,134.5,116.2,133.3,116.2C133.3,116.2,133.3,116.2,133.3,116.2z"/>
	<path d="M165,111.1c0,0-0.2,0.3-0.3,0.3c-0.2,0-0.6-0.2-0.6-0.4c-0.1-0.4-0.1-0.8-0.1-1.3c-0.1-1-0.2-2-0.3-3.1
		c-0.1-0.8-0.3-1.5-1-2c-0.5-0.4-1-0.8-1.5-1.3c-0.1-0.1-0.2-0.5-0.1-0.6c0.1-0.1,0.4-0.1,0.6-0.2c0.1,0,0.2,0.1,0.3,0.2
		c0.7,0.6,1.4,1.1,2.1,1.7c0.2,0.2,0.4,0.5,0.5,0.8C164.7,107.2,164.8,109.1,165,111.1z"/>
	<path d="M157.4,46.3c0.7-0.1,1.3-0.1,2-0.2c0.8-0.1,1.5-0.2,2.3-0.3c1.4-0.2,2.7-0.3,4.1-0.5c0.1,0,0.2,0,0.3,0
		c0.3,0.1,0.7,0.2,0.6,0.6c0,0.2-0.4,0.3-0.6,0.3c-1.6-0.1-3.2,0.3-4.7,0.6c-1,0.2-2,0.2-3.1,0.3C157.7,47.2,157.3,47.1,157.4,46.3z
		"/>
	<path d="M162.7,99.9c-0.2,0.6-0.6,0.7-1.1,0.6c-2.1-0.7-4.2-1-6.3-1.1c-0.2,0-0.4,0-0.5-0.1c-0.4-0.2-0.4-0.6-0.1-0.7
		c0.3-0.1,0.6-0.3,0.9-0.2c2.3,0.2,4.6,0.6,6.8,1.4C162.5,99.7,162.5,99.8,162.7,99.9z"/>
	<path d="M128.3,98.8c0.1-0.2,0.2-0.5,0.4-0.6c0.4-0.5,0.9-1,1.4-1.5c0.8-0.9,1.6-1.7,2.4-2.6c0.1-0.1,0.3-0.3,0.4-0.3
		c0.2,0,0.5,0,0.7,0.2c0.1,0.1,0,0.5-0.1,0.6c-1.1,1.1-2.1,2.3-3.2,3.4c-0.3,0.4-0.6,0.8-1,1.1c-0.1,0.1-0.4,0.2-0.6,0.1
		C128.6,99.1,128.5,98.9,128.3,98.8z"/>
	<path d="M129.9,100c1.4-1.5,2.8-3.1,4.2-4.6c0.2-0.3,0.5-0.6,0.9-0.3c0.4,0.4,0,0.7-0.2,1c-0.2,0.3-0.5,0.5-0.7,0.8
		c-1,1.1-2,2.3-3.1,3.4C130.5,100.7,130.4,100.7,129.9,100z"/>
	<path d="M150.7,118.8c0.8,0.3,1.5,0.6,2.2,0.9c0.9,0.4,1.7,0.8,2.6,1.1c0.3,0.1,0.6,0.2,0.5,0.6c-0.1,0.2-0.4,0.4-0.7,0.4
		c-0.4,0-0.8-0.1-1.2-0.3c-1.2-0.5-2.4-1-3.6-1.6c-0.2-0.1-0.3-0.4-0.5-0.6C150.2,119.1,150.4,118.9,150.7,118.8z"/>
	<path d="M137.1,96.4c-0.1,0.2-0.2,0.4-0.3,0.5c-1.2,1.4-2.4,2.9-3.6,4.3c-0.1,0.2-0.5,0.1-0.7,0.2c0-0.3-0.1-0.5,0-0.8
		c0.1-0.2,0.2-0.4,0.4-0.6c1-1.2,2-2.3,3.1-3.5c0.2-0.2,0.4-0.3,0.6-0.4C136.7,96.1,136.9,96.3,137.1,96.4z"/>
	<path d="M159.9,75.4c-0.1-0.2-0.3-0.3-0.2-0.4c0-0.1,0.2-0.2,0.2-0.3c0.1,0.1,0.2,0.2,0.2,0.3C160.2,75.2,160,75.3,159.9,75.4z"/>
	<path d="M200.5,63.3c0.1-0.6,0.4-0.8,0.9-0.6c2.2,1.1,4.5,2,6.6,3.4c0.1,0.1,0.3,0.1,0.3,0.2c0.1,0.2,0.1,0.5,0.1,0.8
		c0,0.1-0.5,0.2-0.6,0.1c-0.4-0.2-0.8-0.5-1.2-0.7c-1.7-0.9-3.4-1.8-5.1-2.6C201.1,63.7,200.8,63.5,200.5,63.3z"/>
	<path d="M190.5,40.8c-0.2,0.4-0.5,0.5-1,0.2c0.3-0.1,0.6-0.2,0.9-0.3C190.4,40.7,190.5,40.8,190.5,40.8z"/>
	<path d="M209.9,112.8c0.2,0.6,0.3,1.1-0.4,1.5c-0.2,0.1-0.3,0.4-0.5,0.5c-0.1,0.1-0.4,0.2-0.5,0.2c-0.1-0.1-0.2-0.3-0.3-0.5
		c0-0.1,0-0.2,0-0.3C208.3,112.7,208.3,112.7,209.9,112.8z"/>
	<path d="M212.8,91.9c-0.2,0.1-0.5,0.1-1,0.3c0.2-0.6,0.3-0.9,0.5-1.2c0.1-0.1,0.3-0.2,0.5-0.3c0.1,0.2,0.2,0.4,0.3,0.6
		c0,0.1,0,0.1,0,0.2C213,91.6,212.9,91.7,212.8,91.9z"/>
	<path d="M212.8,91.9c0.1-0.2,0.2-0.3,0.2-0.5c0.2-0.1,0.4-0.1,0.7-0.2c0.2,0.6,0,1-0.5,1.1C212.9,92.5,212.8,92.2,212.8,91.9z"/>
	<path d="M106.4,45c-1-0.1-1.8-0.6-2.3-1.5c-0.5-0.9-0.2-1.6,0.3-2.4c1.6-2.5,4.6-1.5,5.8,0.6c0.1,0.2,0.1,0.7,0,0.9
		c-1,1-2,2-3.4,2.4C106.6,45,106.5,45,106.4,45z M106.8,40.6c-1-0.1-1.3,0.7-1.7,1.3c-0.4,0.6-0.3,1.2,0.2,1.6
		c0.5,0.5,1.1,0.6,1.7,0.3c0.6-0.4,1.2-0.9,1.8-1.3c0.4-0.3,0.3-0.6,0-0.9C108.3,40.9,107.7,40.5,106.8,40.6z"/>
	<path d="M110.1,45.3c0.9-0.6,1.7-1.2,2.5-1.7c0.9-0.5,1.8-0.9,2.7-1.3c0.5-0.2,0.8,0,1,0.5c0.4,0.9,0.2,1.2-0.7,1.7
		c-1.1,0.6-2.1,1.2-3.1,1.8c-0.2,0.1-0.4,0.2-0.5,0.3c-0.5,0.3-0.9,0.2-1.2-0.3C110.6,46,110.4,45.7,110.1,45.3z M112.4,45.3
		c0.7-0.5,1.4-0.9,2.2-1.4c0-0.1-0.1-0.1-0.1-0.2C113.6,44,113,44.7,112.4,45.3z"/>
	<path d="M109.2,48.5c-0.6,0.7-1.2,0.6-1.9,0.4c-2-0.7-3.9-1.4-5.9-2c-0.4-0.1-0.8-0.2-1.1-0.4c-0.2-0.1-0.2-0.3-0.3-0.5
		c0.2-0.1,0.4-0.2,0.6-0.3c0.1,0,0.3,0,0.4,0.1c0.8,0.2,1.6,0.4,2.4,0.6c1.5,0.4,2.9,0.9,4.3,1.4C108.2,47.9,108.7,48.1,109.2,48.5z
		"/>
	<path d="M99.5,44.2c0.6-0.2,1.2-0.2,1.8,0c1.1,0.3,2.2,0.7,3.3,1.1c0.6,0.2,1.3,0.4,1.9,0.5c0.2,0.1,0.4,0.1,0.6,0.2
		c0.2,0.1,0.3,0.4,0.3,0.5c-0.1,0.2-0.3,0.4-0.5,0.5c-0.2,0.1-0.4,0-0.6,0c-0.6-0.1-1.2-0.3-1.7-0.5c-1.5-0.5-3.1-1-4.6-1.6
		c-0.2-0.1-0.5-0.2-0.7-0.4C99.5,44.4,99.5,44.3,99.5,44.2z"/>
	<path d="M114.8,45.6c0.5,0,0.9,0.4,1,0.8c0,0.5-0.5,1.1-1.1,1.2c-0.5,0-0.9-0.3-0.9-0.8C113.6,46.3,114.2,45.7,114.8,45.6z"/>
	<path d="M113.9,41.9c-0.4,0.3-0.7,0.6-1,0.8c-0.3,0.1-0.7-0.2-0.7-0.6c0-0.3,0.4-0.9,0.7-0.8C113.2,41.3,113.4,41.6,113.9,41.9z"/>
	<path d="M216.7,119.8c-0.4,0.2-0.8,0.2-1.1-0.3c-0.2-0.3-0.4-0.5-0.7-0.8c-0.2-0.2-0.5-0.5-0.1-0.8c0.4-0.3,0.7-0.1,0.9,0.2
		C216,118.6,216.3,119.2,216.7,119.8C216.6,119.8,216.7,119.8,216.7,119.8z"/>
	<path d="M83.7,63.7c-0.9-0.1-1.6-0.2-2.3-0.4c-0.5-0.1-0.7-0.4-0.5-0.9c0.1-0.4,0.2-0.9,0.4-1.3c0.2-0.6,0.5-1,1.1-0.9
		c1.6,0.1,3.2,0.2,4.7,0.4c0.5,0.1,1,0.5,1.4,0.9c0.6,0.7,0.4,1.2-0.5,1.5C86.5,63.2,85,63.5,83.7,63.7z M87.5,62.1
		c0-0.1,0-0.2,0-0.2c-0.2-0.1-0.5-0.3-0.7-0.3c-1.1-0.2-2.2-0.3-3.4-0.4c-1.2-0.1-1.3,0-1.4,1.5C83.9,63,85.7,62.6,87.5,62.1z"/>
	<path d="M106.6,87c-1-0.1-2.1-0.2-3.1-0.4c-0.8-0.1-1-0.6-0.7-1.3c0.1-0.2,0.2-0.5,0.3-0.7c0.2-0.4,0.5-0.6,0.9-0.5
		c0.8,0.1,1.7,0.1,2.5,0.1c1.3,0,1.7,0.6,1.5,1.8C107.9,86.8,107.5,87.1,106.6,87z M106.7,85.9c-0.5-0.8-2.1-1-2.8-0.4
		C104.9,85.7,105.8,85.8,106.7,85.9z"/>
	<path d="M103.8,82c-0.1-0.9,0.2-1.7,0.6-2.5c0.1-0.2,0.5-0.3,0.7-0.3c0.8,0,1.7,0,2.5,0.1c0.8,0.1,1.4,0.6,1.5,1.2
		c0,0.6-0.6,1.3-1.4,1.5c-0.4,0.1-0.9,0.2-1.4,0.2C105.5,82.1,104.7,82,103.8,82z M108,80.6c-0.4-0.1-0.7-0.3-0.9-0.3
		c-0.6-0.1-1.2-0.1-1.8,0c-0.1,0-0.2,0.4-0.3,0.6C106.7,81.3,107,81.3,108,80.6z"/>
	<path d="M94.9,71.9c-0.7,0-1.2-0.5-1.2-1.1c0-0.7,0.5-1.1,1.1-1.1c0.7,0,1.4,0.7,1.3,1.2C96.2,71.4,95.6,71.9,94.9,71.9z"/>
	<path class="st0" d="M106.8,40.6c0.9-0.1,1.5,0.3,2,1c0.2,0.3,0.3,0.6,0,0.9c-0.6,0.5-1.2,0.9-1.8,1.3c-0.6,0.4-1.2,0.3-1.7-0.3
		c-0.5-0.5-0.6-1-0.2-1.6C105.5,41.3,105.8,40.5,106.8,40.6z M106.7,41.3c-0.4,0-0.8,0.4-0.8,0.8c0,0.5,0.6,1,1.2,1
		c0.5,0,0.9-0.3,0.9-0.7C107.9,41.9,107.2,41.3,106.7,41.3z"/>
	<path class="st0" d="M112.4,45.3c0.6-0.7,1.2-1.3,2-1.6c0,0.1,0.1,0.1,0.1,0.2C113.8,44.4,113.1,44.9,112.4,45.3z"/>
	<path class="st0" d="M87.5,62.1c-1.8,0.5-3.6,1-5.5,0.5c0.1-1.4,0.3-1.6,1.4-1.5c1.1,0.1,2.2,0.3,3.4,0.4c0.3,0,0.5,0.2,0.7,0.3
		C87.5,61.9,87.5,62,87.5,62.1z"/>
	<path class="st0" d="M106.7,85.9c-0.9-0.1-1.8-0.2-2.8-0.4C104.6,84.9,106.3,85.1,106.7,85.9z"/>
	<path class="st0" d="M108,80.6c-1,0.7-1.3,0.8-3,0.3c0.1-0.2,0.2-0.6,0.3-0.6c0.6,0,1.2,0,1.8,0C107.3,80.3,107.6,80.4,108,80.6z"
		/>
	<path d="M106.7,41.3c0.5,0,1.2,0.6,1.3,1.1c0,0.4-0.3,0.7-0.9,0.7c-0.6,0-1.2-0.5-1.2-1C105.9,41.8,106.3,41.3,106.7,41.3z"/>
</g>
</svg>
