<?xml version="1.0" encoding="utf-8"?>
<!-- Generator: Adobe Illustrator 22.0.1, SVG Export Plug-In . SVG Version: 6.00 Build 0)  -->
<svg version="1.1" id="Layer_1" xmlns="http://www.w3.org/2000/svg" xmlns:xlink="http://www.w3.org/1999/xlink" x="0px" y="0px"
	 viewBox="0 0 149.6 226.2" style="enable-background:new 0 0 149.6 226.2;" xml:space="preserve">
<style type="text/css">
	.st0{fill:#E4E4E4;}
	.st1{fill:#FFFFFF;}
</style>
<g>
	<path d="M142.4,25.5c3,1.6,3.9,4.1,4.2,7c0.2,2,0,3.8-0.7,5.7c-0.5,1.2-0.3,2.5,0,3.7c0.3,1.7,0.7,3.5,1,5.2c0.4,2.2-0.9,3.2-3,2.4
		c-0.1,0.2-0.3,0.5-0.3,0.7c-0.7,5.9-1.3,11.8-2,17.7c-0.7,7-1.5,13.9-2.2,20.9c-0.4,4.6-0.8,9.1-1.2,13.7c-0.4,4.5-0.9,9-1.4,13.5
		c-0.4,3.6-0.8,7.2-1.2,10.8c-0.5,4.3-1,8.5-1.4,12.8c-0.3,3.1-0.6,6.1-0.9,9.2c-0.4,4.1-0.7,8.2-1.1,12.4c-0.3,3.2-0.5,6.4-0.9,9.6
		c-0.4,4.2-0.8,8.3-1.4,12.5c-0.7,4.6-1.5,9.2-2.3,13.9c-0.3,1.8-0.9,3.5-1.2,5.3c-0.2,0.8-0.6,1.3-1.3,1.6c-0.9,0.4-1.7,0.7-2.6,1
		c-0.8,0.2-1.3,0.6-1.4,1.4c-0.4,1.6-1,3.1-0.9,4.8c0.1,1.7-0.9,3.2-2.3,4.2c-0.9,0.6-1.8,1.1-2.8,1.4c-4.1,1.3-8.2,2.7-12.4,3.7
		c-5.9,1.5-11.9,2.2-18,2.1c-3.1-0.1-6.2,0.4-9.2,0.5c-1.6,0.1-3.2,0-4.8-0.1c-1.5,0-3.1,0-4.6-0.1c-5.7-0.3-11.4-1.3-16.9-2.8
		c-3.3-0.9-6.7-1.3-10.1-1.9c-2.4-0.4-4.8-1-6.8-2.5c-1-0.7-1.9-1.6-2.9-2.4c-0.2-0.2-0.3-0.6-0.4-0.9c-0.3-2.6-0.6-5.1-0.8-7.7
		c-0.1-0.8-0.4-1.2-1.2-1.4c-0.4-0.1-0.8-0.2-1.1-0.3c-1.4-0.6-2.6-1.4-2.9-3.1c-0.4-2.5-0.9-5-1.1-7.5c-0.4-3.5-0.5-7-0.9-10.5
		c-0.9-6.8-2-13.6-2.9-20.4c-0.5-3.3-0.7-6.7-1.1-10c-0.7-6.9-1.4-13.8-2.1-20.7c-0.3-3.1-0.8-6.2-1.1-9.4c-0.5-4.3-0.9-8.7-1.5-13
		c-0.8-6.4-1.6-12.8-2.4-19.2c-0.7-5.5-1.3-10.9-2-16.4c-0.5-3.6-1.2-7.2-1.7-10.8c-0.3-2-0.6-3.9-0.9-5.9c-0.2-1.4-0.4-2.8-0.6-4.2
		c-0.1-1-0.5-1.8-1.4-2.3C2.2,49,1.8,48,2.3,46.6c0.2-0.6,0.4-1.2,0.5-1.7c0.4-1.4,0.6-2.8,0.6-4.4c0-2.2,0.5-4.5,0.8-6.7
		c0.1-0.4,0.3-0.8,0.5-1C6,32.2,6.5,31,7.3,30c0.2-0.3,0.5-0.7,0.8-0.8c1.1-0.5,1.2-1.3,1.1-2.3c-0.1-2.5-0.2-5.1-0.1-7.6
		c0-0.5,0.3-1.1,0.6-1.6c0.1-0.3,0.5-0.5,0.6-0.8c0.3-0.9,1-1.1,1.8-1.3c0.6-0.1,1.3-0.3,1.9-0.4c1.4-0.3,2.6-0.7,3.2-2.2
		c0.2-0.5,0.9-0.9,1.5-1.2c3-1.2,5.9-2.5,8.9-3.5c2.9-1,5.9-1.7,8.9-2.4c2.2-0.5,4.4-0.9,6.6-1.3c3.1-0.5,6.3-1.1,9.5-1.5
		c2-0.3,4-0.2,5.9-0.3c2.4-0.1,4.7-0.2,7.1-0.3c1.3,0,2.6,0,4,0c0.8,0,1.6,0,2.5-0.1c3.9-0.1,7.8-0.3,11.7-0.4c5.5,0,10.9,0,16.4,0
		c2.1,0,4.3,0,6.4-0.1c5.8-0.1,11.4,1,16.8,3.1c2.5,1,5,2,7.5,3c0.4,0.1,0.7,0.3,1,0.5c4.3,2.7,7.6,6.2,9.6,11
		C142.4,21.8,142.8,23.5,142.4,25.5z M13.2,99.5c0,0.7-0.1,1.3,0,1.9c0.1,1.4,0.3,2.8,0.5,4.3c0.5,4.4,1,8.8,1.5,13.1
		c0.5,4.6,1,9.2,1.5,13.8c0.5,4.8,1,9.6,1.6,14.5c0.4,3.3,0.7,6.6,1.1,9.9c0.5,3.7,1.1,7.4,1.6,11.1c0.1,0.8,0.5,1.3,1.3,1.5
		c2.1,0.6,4.1,1.4,6.2,1.9c5.1,1.1,10.3,2.1,15.4,3.1c3.1,0.6,6.3,1.2,9.4,1.6c4.1,0.5,8.2,0.7,12.4,1c1.3,0.1,2.6,0.2,4,0.2
		c6.2-0.3,12.3-0.6,18.5-0.8c1.5-0.1,3.1,0.1,4.6-0.1c3.6-0.4,7.2-0.8,10.8-1.4c3.6-0.6,7.1-1.5,10.6-2.4c2.8-0.7,5.6-1.6,8.4-2.4
		c2-0.6,4-1.3,6-2c0.8-0.3,1.4-0.6,1.4-1.6c0.2-2,0.4-4.1,0.6-6.1c0.4-4.4,0.7-8.8,1.1-13.2c0.7-7.4,1.5-14.8,2.3-22.2
		c0.8-7.2,1.7-14.5,2.5-21.7c0.2-1.5,0.2-3,0.4-4.8c-0.7,0.2-1.3,0.3-1.8,0.4c-2.4,0.7-4.8,1.5-7.3,2.1c-5.5,1.3-11.1,2.6-16.6,3.7
		c-3.5,0.7-7,1.7-10.6,1.7c-1.4,0-2.8,0.1-4.1,0.4c-5.5,1-11.1,1.8-16.7,1.9c-4.7,0.1-9.5,0.2-14.2,0.1c-3.9-0.1-7.8-0.6-11.7-0.9
		c-3.1-0.2-6.3-0.4-9.4-0.8c-3.6-0.5-7.2-1.1-10.7-1.8c-3.4-0.7-6.8-1.4-10.1-2.5c-3.3-1-6.4-2.3-9.6-3.5
		C13.6,99.4,13.5,99.5,13.2,99.5z M141.6,50.5c-0.6,0.2-0.9,0.2-1.2,0.4c-3.7,1.3-7.4,2.7-11.1,3.8c-3.5,1-7,1.9-10.6,2.7
		c-2.6,0.6-5.2,0.8-7.8,1.2c-5.4,0.8-10.8,1.9-16.2,2.5c-4.9,0.6-9.9,0.8-14.8,1c-5.3,0.2-10.6,0.2-15.9,0.2
		c-6.4,0.1-12.6-0.8-18.9-1.7c-2.9-0.4-5.9-0.9-8.8-1.4c-5.7-0.9-11.5-1.7-17-3.5c-3.9-1.3-7.8-2.9-11.6-4.3C7.4,51.2,7,51.1,6.5,51
		c0.4,2.8,0.7,5.4,1.1,8c0.8,5.5,1.5,11,2.3,16.5c0.7,5.1,1.3,10.3,2,15.4c0.3,2.1,0.7,4.1,1,6.2c1.8,0.7,3.6,1.4,5.3,2.1
		c4.1,1.6,8.2,3.1,12.5,3.8c1.2,0.2,2.5,0.6,3.7,0.8c3.9,0.6,7.7,1.3,11.6,1.8c3.3,0.4,6.7,0.6,10,0.8c4.9,0.3,9.9,0.7,14.8,0.8
		c3.3,0.1,6.6-0.1,9.9-0.3c2.9-0.2,5.8-0.5,8.7-0.8c3.2-0.4,6.4-1.2,9.7-1.3c3.7-0.1,7.3-0.9,10.9-1.6c2.7-0.6,5.4-1.2,8.1-1.7
		c6-1.2,12-2.4,17.7-4.7c0.9-0.4,1.3-0.9,1.3-1.8c0.5-4.8,1-9.5,1.4-14.3c0.4-4.1,0.8-8.2,1.2-12.3c0.6-5.4,1.2-10.7,1.8-16.1
		C141.7,51.7,141.6,51.2,141.6,50.5z M21.4,171.3c0,0.6,0,1.1,0.1,1.5c0.3,1.3,0.7,2.6,0.8,3.9c0.5,4.9,0.9,9.8,1.4,14.7
		c0.3,2.7,0.7,5.3,1.1,8c0,0.3,0.1,0.7,0.4,0.9c0.9,0.9,1.7,2.1,3.3,1.7c0.1,0,0.4,0,0.4,0.1c0.7,0.9,1.8,0.8,2.7,1.1
		c4.2,1.4,8.4,2.9,12.8,3.8c7.5,1.6,15.1,2.9,22.7,3.3c5,0.3,10.1-0.1,15.2-0.2c1.2,0,2.4-0.2,3.6-0.3c3-0.3,5.9-0.4,8.9-0.9
		c6.1-1,12.3-2.1,18.4-3.2c1.8-0.3,3.7-0.8,5.5-1.2c0.5-0.1,1.1-0.3,1.3-0.6c0.4-1,0.9-1.6,2.1-1.5c0.4-1,1.3-0.9,2.2-1.1
		c0.2,0,0.5-0.4,0.6-0.7c0.5-1.7,1.1-3.4,1.4-5.1c0.6-3.2,1.1-6.5,1.6-9.8c0.6-4.3,1.2-8.5,1.7-12.8c0.1-1,0.1-1.9,0.2-3
		c-0.4,0.1-0.7,0.1-0.9,0.2c-3.6,1.1-7.1,2.3-10.7,3.3c-3.7,1-7.4,1.8-11.1,2.7c-4.2,1-8.5,1.8-12.9,2c-3,0.1-5.9,0.1-8.9,0.3
		c-3,0.1-5.9,0.4-8.9,0.6c-2.4,0.1-4.7,0.4-7.1,0.3c-3.7-0.2-7.5-0.6-11.2-0.8c-4.2-0.3-8.3-0.7-12.5-1.6c-3.8-0.8-7.6-1.3-11.4-2.2
		C29.9,173.7,25.7,173.1,21.4,171.3z M62.9,39.9c3.9-0.1,7.9,0.1,11.9-0.2c4.5-0.4,9-1,13.5-0.9c1.4,0,2.8-0.2,4.5-0.4
		c-0.4-0.7-0.5-1.1-0.8-1.5c-1.3-1.7-2.6-3.4-3.9-5.1c-2.3-2.9-4.5-5.7-6.8-8.6c-0.1-0.2-0.3-0.3-0.5-0.4c-0.7,2.1-1.5,4.1-2.1,6.1
		c-0.1,0.5,0,1.2,0.3,1.7c0.8,1.3,1.7,2.5,2.6,3.6c0.7,0.8,0.9,1.5,0.4,1.7c-0.8,0.4-1.2-0.2-1.6-0.7c-0.9-1.1-1.8-2.3-2.5-3.5
		c-0.7-1.1-1.7-1.5-2.9-1.4c-2.4,0.2-4.7,0.4-7.1,0.6c-1.2,0.1-2.4,0.1-3.3-0.6c-1.8-1.4-3.5-2.8-5.2-4.3c-0.1-0.1-0.1-0.3-0.1-0.4
		c0.9-0.6,0.9-0.7,1.7-0.1c1.4,1.1,2.8,2.3,4.2,3.4c0.5,0.5,1.1,0.6,1.8,0.5c3-0.3,6-0.6,9-0.9c1.4-0.1,1.5-0.1,1.8-1.6
		c0.4-1.6,0.7-3.1,1.2-4.6c0.3-0.8,0.7-1.7,1.4-2.2c0.6-0.5,1-1,1.2-1.7c0.6-2.1,1.2-4.2,1.9-6.4c0.2-0.6,0.6-1.2,1-1.7
		c0.2-0.2,0.8-0.3,1-0.1c0.2,0.1,0.3,0.7,0.2,1c-0.8,2.6-1.7,5.2-2.6,7.8c-0.2,0.5-0.3,1-0.4,1.6c0.8,0.2,1.3,0.4,1.9,0.4
		c2.9,0.2,5.8,0.5,8.7,0.7c4.3,0.3,8.6-0.3,12.8,0.8c1.7,0.4,2.9-0.1,4.1-1.1c1.6-1.4,3.2-2.9,4.7-4.4c1.5-1.4,2.9-2.9,4.3-4.3
		c0.4-0.4,1-0.6,1.4,0c0.4,0.5,0.1,0.9-0.3,1.3c-1,1-2.1,2-3.1,3c-2.5,2.5-4.8,5.2-7.9,7c-0.1,0.1-0.2,0.2-0.4,0.5
		c1.1,1,2.2,1.9,3.4,2.9c0.2,0.2,0.6,0.2,0.9,0.1c2-0.4,4-0.9,5.9-1.4c0.7-0.2,1.5-0.4,2.2-0.5c0.3-0.1,0.9,0,1.1,0.2
		c0.6,0.8,1.3,0.5,1.9,0.2c0.9-0.3,1.9-0.6,2.8-1c1-0.4,1.9-0.9,3-1.4c-0.5-0.7-0.8-1.2-1.1-1.7c-2.1-3.2-4.3-6.3-6.4-9.5
		c-0.4-0.6-0.9-0.9-1.6-1c-3.5-0.5-7.1-1.2-10.6-1.7C103.6,8.8,96.6,8,89.7,7.2c-0.8-0.1-1.7-0.1-2.5,0.1c-1.8,0.6-3.6,0.5-5.4,0.6
		c-3.5,0.1-7.1,0-10.6,0.3c-5.8,0.6-11.6,0.9-17.5,1.2c-4.6,0.2-9.1,0.5-13.7,0.8c-0.7,0-1.4,0.4-2,0.7c-3.2,1.8-6.4,3.6-9.6,5.5
		c-0.6,0.4-1.3,0.8-2.1,1.3c0.8,0.7,1.3,1.4,1.9,1.9c0.9,0.6,1.9,1,2.9,1.6c0.2-1.2,1.2-1.6,2.3-1.9c0.7-0.2,1.4-0.2,2.1-0.4
		c1.7-0.4,1.9-0.6,1.9-2.3c0-0.8,0-1.7,0-2.5c0-0.4,0.1-0.9,0.3-1.3c0.2-0.3,0.6-0.5,0.9-0.5c0.2,0,0.5,0.5,0.5,0.7
		c0.1,0.7,0.1,1.3,0,2c-0.3,1.8,0.5,3,1.9,4.1c2.3,1.7,4.4,3.6,6.4,5.7c2.7,2.7,5.6,5.1,8.4,7.7c1.4,1.3,2.8,2.7,4.2,3.9
		C61.2,37.3,62.3,38.3,62.9,39.9z M9.4,30.8c-0.1,0-0.3,0-0.4-0.1c-0.7,0.9-1.3,1.9-2,2.8c-1.2,1.7-1.7,3.5-1.9,5.6
		C5,41.3,5.8,43,7.9,43.9c0.6,0.3,1.1,0.6,1.6,0.8c3.1,1.3,6.2,2.6,9.3,3.8c5.8,2.2,11.6,4.1,17.7,5.3c5.2,1,10.5,2,15.9,2.2
		c2.5,0.1,5.1,0.3,7.6,0.4c6.7,0.4,13.4,0.5,20.2-0.2c4.9-0.5,9.9-1,14.8-1.6c4.9-0.6,9.8-0.9,14.6-1.9c2.5-0.6,5.1-0.7,7.6-1.4
		c5.8-1.5,11.6-3.2,17.3-5c2.1-0.7,4-1.8,6-2.8c0.5-0.2,0.9-0.6,1.2-1.1c0.6-1,0.9-2.1,1.5-3.1c0.5-0.9,0.7-1.7,0.4-2.7
		c-0.1-0.5-0.2-1-0.3-1.5c-0.2-1-0.5-1.9,0.4-2.8c0.1-0.1,0-0.5,0-0.8c0-0.4-0.1-0.8,0-1.1c0.3-1.2,0.1-1.8-1.3-2.6
		c-0.3,1-0.4,1.9-0.3,2.9c0,0.7,0,1.6-0.3,2.2c-1,1.9-2.5,3.4-4.3,4.7c-1.7,1.2-3.7,1.7-5.6,2.4c-8,2.9-16.3,4.6-24.7,6.3
		c-2.6,0.5-5.3,1.1-8,1.4c-4.8,0.7-9.6,1.2-14.4,1.7c-2.9,0.3-5.8,0.4-8.7,0.5c-3.1,0.2-6.2,0.4-9.3,0.4c-3.7,0-7.5-0.2-11.2-0.2
		c-7-0.1-13.9-1.3-20.7-3.1c-6.1-1.6-11.9-4.3-17.8-6.7c-1.6-0.7-3.1-1.4-4.5-2.3c-1.8-1.2-3.4-2.7-3-5.3
		C9.7,32.1,9.5,31.4,9.4,30.8z M119.2,206.2c-1.8,0.3-3.3,0.5-4.7,0.8c-2.8,0.5-5.6,1.1-8.4,1.7c-1.9,0.4-3.9,0.6-5.9,1
		c-2.5,0.4-5,0.9-7.5,1.2c-3.6,0.4-7.1,0.7-10.7,1c-7.1,0.6-14.2,0.3-21.3-0.5c-6.4-0.7-12.6-2-18.9-3.3c-1-0.2-1.9-0.4-2.9-0.8
		c-2.2-0.7-4.4-1.5-6.6-2.2c-0.9-0.3-1.9-0.5-3.1-0.9c0.6,2.8,1,5.3,1.7,7.7c0.3,1.2,1.2,2.2,2.3,2.7c1.6,0.8,3.3,1.6,5.1,1.9
		c4.5,0.9,9.1,1.5,13.6,2.7c1.4,0.4,2.8,0.8,4.2,1c3.6,0.5,7.2,1,10.8,1.3c3,0.2,6.1,0.1,9.1,0c3-0.1,5.9-0.5,8.9-0.5
		c3,0,5.9,0,8.9-0.5c1.4-0.2,2.8-0.7,4.2-0.8c2.8-0.2,5.4-1,8-1.8c2.4-0.8,4.9-1.4,7.3-2.2c2.3-0.7,4.2-1.9,4.7-4.6
		c0.2-1.1,0.7-2.2,1-3.3C119.1,207.4,119.1,207,119.2,206.2z M140.1,22.2c-0.1,0.2-0.1,0.4-0.2,0.6c-1,2-1.8,4.2-3,6
		c-2.5,3.7-6.5,5.5-10.6,6.9c-2.8,0.9-5.6,1.5-8.5,2.1c-6,1.3-12,2.4-18.1,3.1c-2.5,0.3-5,0.7-7.5,1c-5.2,0.5-10.3,0.9-15.5,1.6
		c-4.8,0.6-9.6,1-14.5,1c-4.4,0-8.8-0.3-13.2-1.1c-2.9-0.5-5.9-1-8.8-1.7c-1.9-0.4-3.7-1.1-5.6-1.6c-1.2-0.3-2.4-0.6-3.5-0.9
		c-1.2-0.3-2.2-1.1-2.8-2.2c-1.1-1.9-1.7-4.1-2.2-6.2c-0.3-1.3-0.9-1.8-2.1-2.2c-2-0.6-3.9-1.5-5.6-2.8C16,23.9,13.7,22,11.2,20
		c0,0.4-0.1,0.9-0.1,1.3c-0.1,3.9,0.3,7.7,0.5,11.6c0.1,1.8,0.9,2.9,2.2,3.8c0.7,0.5,1.4,0.9,2.1,1.2c5.4,2.2,10.8,4.4,16.3,6.4
		c9.8,3.5,20,4.2,30.3,4.3c1.8,0,3.6,0.1,5.4,0c4-0.2,7.9-0.4,11.9-0.6c3.3-0.2,6.6-0.3,9.9-0.7c5.9-0.8,11.8-1.7,17.6-2.8
		c4.5-0.8,8.9-2,13.4-3c4.5-1,8.9-2.3,13.1-4c1.6-0.7,3.1-1.5,4.2-2.8c0.3-0.3,0.6-0.9,0.5-1.3c-0.2-0.8,0.1-1.4,0.4-2.1
		C140.3,28.3,140.7,25.3,140.1,22.2z M101.8,38.6c1.1,0,1.8,0.1,2.5,0c2.6-0.4,5.1-0.9,7.6-1.5c3.4-0.8,6.8-1.8,10.3-2.4
		c3.2-0.6,6.2-1.8,9.1-3.5c2.7-1.6,4.6-3.7,5.3-6.8c0.1-0.6,0.3-1.3,0.7-1.7c1.9-2,1.2-4.3,0.4-6.1c-1.1-2.6-3.5-4.3-5.9-5.8
		c-1.8-1.1-3.8-1.9-5.8-2.8c-4.9-2.2-10-3.9-15.4-3.9c-1.2,0-2.3-0.2-3.5-0.2c-2,0-4,0.2-5.9,0.2c-2.5,0-5.1-0.3-7.6-0.2
		c-5.4,0-10.8,0.2-16.2,0.3c-4.6,0.1-9.1,0.2-13.7,0.3C58,4.5,52.4,4.6,46.8,5.8C43.1,6.5,39.3,7.2,35.5,8c-1.9,0.4-3.9,0.8-5.8,1.4
		c-3.3,1.1-6.5,2.5-9.7,3.8c-0.3,0.1-0.5,0.3-0.8,0.5c0.2,0.1,0.3,0.2,0.4,0.2c1.9-0.2,3.6,0,5,1.5c0.2,0.2,0.7,0.2,1,0.1
		c0.6-0.2,1.1-0.4,1.7-0.7c1.9-1.1,3.9-2.1,5.8-3.3c1.7-1,3.3-2.1,5-3.1c0.3-0.2,0.7-0.4,1-0.3c1.9,0.4,3.8,0,5.7,0
		c2.6-0.1,5.3-0.4,7.9-0.5C56.8,7.4,60.9,7.2,65,7c2.4-0.2,4.7-0.5,7.1-0.7c3.7-0.2,7.4-0.2,11.1-0.4c0.5,0,1.1-0.1,1.6-0.4
		c0.6-0.4,1.2-0.4,1.9-0.3c4.3,0.5,8.7,0.9,13,1.4c4,0.5,8,1,12,1.6c3,0.4,6,1,9,1.2c1.7,0.1,2.5,0.8,3.3,1.9
		c2.5,3.6,5.1,7.2,7.7,10.8c0.4,0.6,0.8,1.2,1,1.9c0.4,1,0.1,1.5-1,1.3c-0.8-0.2-1.5,0-2.2,0.3c-3.2,1.3-6.4,2.5-9.5,3.9
		c-5.7,2.6-11.4,5.3-17,8C102.5,37.7,102.3,38.1,101.8,38.6z M144.1,43.3c-0.5,0.3-0.9,0.6-1.2,0.9c-0.6,0.4-1.1,0.9-1.8,1.2
		c-3.9,2-8.1,3.5-12.3,4.7c-5.5,1.6-11,3.1-16.7,3.9c-2.1,0.3-4.1,0.8-6.2,1.1c-2.3,0.3-4.7,0.6-7.1,0.9c-3.3,0.4-6.6,0.8-9.8,1.2
		c-2.8,0.3-5.6,0.4-8.4,0.7c-4.1,0.5-8.1,0.7-12.2,0.6c-5.1-0.2-10.2-0.3-15.4-0.7c-3.8-0.3-7.6-0.6-11.3-1.2
		c-5.6-0.9-11-2.2-16.4-4c-4.3-1.4-8.6-3.2-12.9-4.8c-2.6-1-5.1-2.2-7.7-3.7c-0.2,1-0.5,2-0.6,2.9c-0.1,0.8,0.3,1.3,1.1,1.6
		c2.9,1.1,5.8,2,8.7,3.2c6,2.6,12.4,4,18.8,5c5.1,0.8,10.1,1.4,15.2,2.2c6.2,1,12.4,1.4,18.6,1.4c1.5,0,3.1-0.3,4.6-0.3
		c6.7,0,13.3,0,20-0.7c3.8-0.4,7.6-0.7,11.3-1.2c2.8-0.4,5.6-1,8.5-1.4c4.9-0.8,9.9-1.5,14.7-3c5-1.5,10.1-2.9,14.8-5.1
		c0.5-0.3,1-0.7,1.6-1.2c1,0.3,2.3,0,2.6-0.8C145.2,45.7,144.8,44.5,144.1,43.3z M83.1,22.4c-0.1,0.1-0.1,0.2-0.2,0.3
		c1.3,1.6,2.5,3.1,3.8,4.7c2.2,2.7,4.7,5.1,6.5,8.1c0.5,0.8,1,1.9,1.8,2.2c0.9,0.4,2.1,0.1,3.1-0.1c0.5-0.1,1-0.4,1.5-0.6
		c0.3-0.2,0.6-0.5,0.9-0.6c1.8-0.9,3.6-1.9,5.5-2.5c2.6-0.8,3.3-3.1,4.7-5.1c-1-1-1.9-2-2.9-2.9c-1.4-1.2-2.9-2.2-5-2.2
		c-3.4,0-6.8-0.2-10.2-0.4c-1.8-0.1-3.6-0.3-5.4-0.5C85.8,22.7,84.4,22.5,83.1,22.4z M60.4,39.7c0.1-0.1,0.1-0.2,0.2-0.3
		c-1-1-2.1-1.9-3.1-2.9c-1.2-1.1-2.2-2.3-3.4-3.4c-2.7-2.5-5.5-4.9-8.1-7.6c-1.8-1.9-3.8-3.5-5.8-5.1c-0.6-0.5-1.1-0.8-2-0.5
		c-1.1,0.3-2.2,0.6-3.4,0.7c-1.4,0.1-2.4,0.6-2.9,1.6c0.2,0.9,0.7,1.7,0.6,2.5c-0.1,0.7-0.1,1.2,0.3,1.7c0.7,1,1.3,2.1,2,3
		c0.5,0.7,0.8,1.4,0.9,2.2c0.4,2.2,1.2,4,3.3,5.2c1.6,1,3.4,1.1,5.2,1.4c0.9,0.2,1.9,0.2,2.8,0.3c0-0.1,0.1-0.2,0.1-0.3
		c-0.5-0.5-0.9-1.1-1.4-1.6c-1.3-1.2-2.6-2.4-3.8-3.7c-1.6-1.6-3.3-3.3-4.8-5c-0.9-0.9-1.7-1.9-2.4-2.9c-0.2-0.2-0.1-0.7-0.1-1
		c0.4,0,0.8-0.1,1.2,0c0.3,0.1,0.5,0.4,0.7,0.7c0.6,0.6,1.2,1.3,1.8,1.9c1.1,1.1,2.3,2.3,3.4,3.4c2.4,2.3,4.9,4.6,7.2,7.1
		c1.3,1.5,2.7,2,4.5,2C55.7,39.3,58.1,39.5,60.4,39.7z M39.1,39.5c0,0.1-0.1,0.1-0.1,0.2c2,0.4,3.9,1,5.9,1.3c4.3,0.6,8.6,1,13,1.6
		c4.5,0.5,9,0.2,13.5-0.2c4.5-0.4,9.1-1.1,13.6-1.7c-2.4,0.1-4.8,0.3-7.2,0.5c-2.3,0.2-4.6,0.6-6.9,0.5c-6.9-0.2-13.8-0.5-20.7-0.7
		c-0.4,0-0.9-0.1-1.3-0.1C45.7,40.3,42.4,39.9,39.1,39.5z M27.2,27.7c0.5-0.5,1-0.9,1.4-1.3c1-1,1-1.2,0.2-2.4
		c-0.6-1-1.3-1.9-2.1-2.8c-0.3-0.4-0.7-0.7-1.2-0.8c-1.2-0.4-2.5-0.6-3.7-0.9c0.4,0.6,0.9,0.9,1.4,1.3c0.7,0.7,1.5,1.4,2,2.2
		c1,1.7,0.9,1.9-0.5,3.4c-0.1,0.1-0.1,0.2-0.1,0.4C25.4,27,26.2,27.3,27.2,27.7z M30.8,26.9c-0.9,0.7-1.7,1.3-2.5,1.9
		c-0.2,0.2-0.5,0.5-0.5,0.8c0.2,1.3,0.3,2.6,1.1,3.8c1.5-0.7,2.9-1.3,4.5-2C32.5,29.8,31.6,28.4,30.8,26.9z M33.8,33.5
		c-1.6,0.3-3.2,0.8-4.4,2.2c1.5,1.7,5.4,2.9,7.4,2.5C35.8,36.7,34.8,35.2,33.8,33.5z M12.6,17.8c1.1,2.2,2.8,3.4,4.6,4.5
		c0.2-0.8,0.4-1.4,0.6-2c0.2-0.6,0.8-1,0.7-1.8C16.6,18.1,14.8,17.5,12.6,17.8z M23.8,18c-1.3-2.1-2.8-2.5-5.6-1.4
		C20.1,17,21.8,17.5,23.8,18z M111.6,31.4c1.6-0.8,3.3-1.6,4.9-2.4c-1.1-0.1-2.1,0.2-3.1,0.4C112.3,29.5,111.7,30.2,111.6,31.4z
		 M23.8,24.2c-0.1,0-0.2-0.1-0.2-0.1c-0.1,0-0.1,0.1-0.2,0.2c0.1,0.1,0.2,0.1,0.3,0.2C23.7,24.3,23.7,24.2,23.8,24.2z"/>
	<path class="st0" d="M13.2,99.5c0.3,0,0.4,0,0.6,0c3.2,1.2,6.4,2.5,9.6,3.5c3.3,1,6.7,1.8,10.1,2.5c3.6,0.7,7.1,1.4,10.7,1.8
		c3.1,0.4,6.3,0.5,9.4,0.8c3.9,0.3,7.8,0.8,11.7,0.9c4.7,0.1,9.5,0,14.2-0.1c5.6-0.1,11.2-1,16.7-1.9c1.4-0.2,2.7-0.4,4.1-0.4
		c3.6,0,7.1-1,10.6-1.7c5.6-1.1,11.1-2.4,16.6-3.7c2.5-0.6,4.9-1.4,7.3-2.1c0.5-0.1,1-0.2,1.8-0.4c-0.1,1.7-0.2,3.3-0.4,4.8
		c-0.8,7.2-1.7,14.5-2.5,21.7c-0.8,7.4-1.6,14.8-2.3,22.2c-0.4,4.4-0.7,8.8-1.1,13.2c-0.2,2-0.4,4.1-0.6,6.1c-0.1,1-0.7,1.3-1.4,1.6
		c-2,0.7-4,1.4-6,2c-2.8,0.9-5.6,1.7-8.4,2.4c-3.5,0.9-7.1,1.8-10.6,2.4c-3.6,0.6-7.2,1-10.8,1.4c-1.5,0.2-3.1,0-4.6,0.1
		c-6.2,0.3-12.3,0.6-18.5,0.8c-1.3,0.1-2.6-0.1-4-0.2c-4.1-0.3-8.3-0.5-12.4-1c-3.2-0.4-6.3-1-9.4-1.6c-5.1-1-10.3-1.9-15.4-3.1
		c-2.1-0.5-4.1-1.3-6.2-1.9c-0.8-0.2-1.2-0.7-1.3-1.5c-0.5-3.7-1.1-7.4-1.6-11.1c-0.4-3.3-0.7-6.6-1.1-9.9c-0.5-4.8-1-9.6-1.6-14.5
		c-0.5-4.6-1-9.2-1.5-13.8c-0.5-4.4-1-8.8-1.5-13.1c-0.2-1.4-0.4-2.8-0.5-4.3C13.1,100.8,13.2,100.1,13.2,99.5z"/>
	<path class="st0" d="M141.6,50.5c0,0.7,0,1.2,0,1.7c-0.6,5.4-1.3,10.7-1.8,16.1c-0.4,4.1-0.8,8.2-1.2,12.3c-0.5,4.8-1,9.5-1.4,14.3
		c-0.1,0.9-0.4,1.5-1.3,1.8c-5.7,2.2-11.7,3.5-17.7,4.7c-2.7,0.5-5.4,1.2-8.1,1.7c-3.6,0.8-7.2,1.5-10.9,1.6
		c-3.2,0.1-6.4,0.9-9.7,1.3c-2.9,0.4-5.8,0.6-8.7,0.8c-3.3,0.2-6.6,0.4-9.9,0.3c-5-0.1-9.9-0.5-14.8-0.8c-3.4-0.2-6.7-0.4-10-0.8
		c-3.9-0.5-7.7-1.2-11.6-1.8c-1.2-0.2-2.5-0.6-3.7-0.8c-4.3-0.7-8.4-2.2-12.5-3.8c-1.7-0.7-3.5-1.4-5.3-2.1c-0.4-2.1-0.8-4.1-1-6.2
		c-0.7-5.1-1.3-10.3-2-15.4C9.1,70,8.3,64.5,7.5,59c-0.4-2.6-0.7-5.2-1.1-8c0.5,0.1,0.9,0.2,1.2,0.3c3.9,1.4,7.7,3,11.6,4.3
		c5.5,1.8,11.2,2.7,17,3.5c2.9,0.4,5.9,1,8.8,1.4c6.3,0.9,12.6,1.7,18.9,1.7c5.3,0,10.6,0,15.9-0.2c5-0.2,9.9-0.4,14.8-1
		c5.4-0.6,10.8-1.6,16.2-2.5c2.6-0.4,5.3-0.7,7.8-1.2c3.6-0.8,7.1-1.6,10.6-2.7c3.7-1.1,7.4-2.5,11.1-3.8
		C140.7,50.8,141,50.7,141.6,50.5z"/>
	<path class="st0" d="M21.4,171.3c4.3,1.9,8.5,2.4,12.7,3.4c3.8,0.8,7.6,1.4,11.4,2.2c4.1,0.8,8.3,1.3,12.5,1.6
		c3.7,0.3,7.5,0.7,11.2,0.8c2.4,0.1,4.7-0.1,7.1-0.3c3-0.2,5.9-0.4,8.9-0.6c3-0.1,5.9-0.2,8.9-0.3c4.4-0.2,8.7-1,12.9-2
		c3.7-0.9,7.4-1.7,11.1-2.7c3.6-1,7.2-2.2,10.7-3.3c0.2-0.1,0.4-0.1,0.9-0.2c-0.1,1.1-0.1,2.1-0.2,3c-0.5,4.3-1.1,8.5-1.7,12.8
		c-0.5,3.3-1,6.5-1.6,9.8c-0.3,1.7-0.9,3.4-1.4,5.1c-0.1,0.3-0.4,0.7-0.6,0.7c-0.8,0.2-1.8,0-2.2,1.1c-1.1-0.1-1.6,0.5-2.1,1.5
		c-0.1,0.3-0.8,0.5-1.3,0.6c-1.8,0.4-3.7,0.8-5.5,1.2c-6.1,1.1-12.2,2.2-18.4,3.2c-2.9,0.5-5.9,0.6-8.9,0.9
		c-1.2,0.1-2.4,0.3-3.6,0.3c-5.1,0.1-10.2,0.5-15.2,0.2c-7.6-0.4-15.2-1.8-22.7-3.3c-4.4-0.9-8.6-2.4-12.8-3.8
		c-0.9-0.3-2-0.2-2.7-1.1c-0.1-0.1-0.3-0.1-0.4-0.1c-1.6,0.4-2.4-0.8-3.3-1.7c-0.2-0.2-0.3-0.6-0.4-0.9c-0.4-2.7-0.8-5.3-1.1-8
		c-0.5-4.9-0.9-9.8-1.4-14.7c-0.1-1.3-0.6-2.6-0.8-3.9C21.4,172.3,21.4,171.9,21.4,171.3z"/>
	<path class="st1" d="M62.9,39.9c-0.6-1.6-1.7-2.5-2.7-3.5c-1.5-1.3-2.8-2.6-4.2-3.9c-2.8-2.6-5.7-5-8.4-7.7c-2-2.1-4.1-4-6.4-5.7
		c-1.4-1-2.2-2.3-1.9-4.1c0.1-0.6,0.1-1.3,0-2c0-0.3-0.3-0.7-0.5-0.7c-0.3,0-0.7,0.2-0.9,0.5c-0.2,0.4-0.3,0.8-0.3,1.3
		c-0.1,0.8,0,1.7,0,2.5c0,1.7-0.3,2-1.9,2.3c-0.7,0.1-1.4,0.2-2.1,0.4c-1.1,0.3-2.1,0.7-2.3,1.9c-1-0.5-2-1-2.9-1.6
		c-0.6-0.4-1.2-1.1-1.9-1.9c0.9-0.5,1.5-0.9,2.1-1.3c3.2-1.8,6.4-3.7,9.6-5.5c0.6-0.3,1.3-0.6,2-0.7c4.6-0.3,9.1-0.6,13.7-0.8
		c5.8-0.3,11.7-0.6,17.5-1.2c3.5-0.3,7-0.3,10.6-0.3c1.8,0,3.6,0,5.4-0.6c0.8-0.2,1.6-0.2,2.5-0.1c6.9,0.8,13.9,1.6,20.8,2.6
		c3.5,0.5,7.1,1.2,10.6,1.7c0.7,0.1,1.2,0.4,1.6,1c2.1,3.2,4.3,6.3,6.4,9.5c0.3,0.5,0.6,1,1.1,1.7c-1.1,0.5-2,1-3,1.4
		c-0.9,0.4-1.9,0.7-2.8,1c-0.7,0.2-1.3,0.6-1.9-0.2c-0.2-0.2-0.7-0.3-1.1-0.2c-0.8,0.1-1.5,0.3-2.2,0.5c-2,0.5-3.9,1-5.9,1.4
		c-0.3,0.1-0.7,0.1-0.9-0.1c-1.1-0.9-2.2-1.9-3.4-2.9c0.2-0.3,0.3-0.5,0.4-0.5c3-1.9,5.4-4.5,7.9-7c1-1,2-2,3.1-3
		c0.4-0.4,0.7-0.8,0.3-1.3c-0.5-0.6-1-0.4-1.4,0c-1.5,1.4-2.8,2.9-4.3,4.3c-1.5,1.5-3.1,3-4.7,4.4c-1.1,1-2.4,1.5-4.1,1.1
		c-4.2-1.1-8.6-0.5-12.8-0.8c-2.9-0.2-5.8-0.4-8.7-0.7c-0.6-0.1-1.2-0.2-1.9-0.4c0.1-0.6,0.2-1.1,0.4-1.6c0.9-2.6,1.8-5.2,2.6-7.8
		c0.1-0.3,0-0.9-0.2-1c-0.3-0.1-0.8-0.1-1,0.1c-0.4,0.5-0.8,1.1-1,1.7c-0.7,2.1-1.2,4.2-1.9,6.4c-0.2,0.7-0.5,1.2-1.2,1.7
		c-0.6,0.5-1.1,1.4-1.4,2.2c-0.5,1.5-0.8,3.1-1.2,4.6c-0.3,1.4-0.4,1.5-1.8,1.6c-3,0.2-6,0.5-9,0.9c-0.7,0.1-1.3-0.1-1.8-0.5
		c-1.4-1.2-2.8-2.3-4.2-3.4c-0.7-0.6-0.8-0.5-1.7,0.1c0,0.1,0,0.4,0.1,0.4c1.7,1.4,3.5,2.9,5.2,4.3c1,0.7,2.1,0.7,3.3,0.6
		c2.4-0.3,4.7-0.4,7.1-0.6c1.3-0.1,2.2,0.2,2.9,1.4c0.7,1.2,1.6,2.4,2.5,3.5c0.4,0.5,0.8,1.1,1.6,0.7c0.5-0.2,0.2-0.9-0.4-1.7
		c-0.9-1.2-1.8-2.4-2.6-3.6c-0.3-0.5-0.5-1.2-0.3-1.7c0.6-2,1.4-4,2.1-6.1c0.2,0.2,0.4,0.3,0.5,0.4c2.3,2.8,4.5,5.7,6.8,8.6
		c1.3,1.7,2.6,3.4,3.9,5.1c0.3,0.4,0.5,0.8,0.8,1.5c-1.7,0.2-3.1,0.4-4.5,0.4c-4.5-0.1-9,0.6-13.5,0.9
		C70.8,39.9,66.8,39.8,62.9,39.9z M79.2,19.8c-0.5-0.1-0.9-0.3-1.3-0.3c-2.7-0.1-5.5-0.2-8.2-0.3c-3.4-0.1-6.8-0.3-10.2-0.3
		c-1.3,0-2.5,0.1-3.8,0.3c-0.3,0-0.6,0.6-0.8,0.8c0.3,0.2,0.7,0.6,1,0.6c2.5,0.1,5.1,0.2,7.6,0.3c4.7,0.1,9.4,0.2,14,0.3
		C78.3,21.3,79,21.1,79.2,19.8z"/>
	<path class="st1" d="M9.4,30.8c0.1,0.6,0.3,1.3,0.2,1.9c-0.4,2.6,1.2,4,3,5.3c1.4,0.9,3,1.7,4.5,2.3c5.8,2.5,11.6,5.1,17.8,6.7
		c6.8,1.8,13.7,3,20.7,3.1c3.7,0.1,7.5,0.3,11.2,0.2c3.1,0,6.2-0.2,9.3-0.4c2.9-0.1,5.8-0.2,8.7-0.5c4.8-0.5,9.6-1.1,14.4-1.7
		c2.7-0.4,5.3-0.9,8-1.4c8.3-1.7,16.6-3.4,24.7-6.3c1.9-0.7,3.9-1.2,5.6-2.4c1.8-1.2,3.3-2.7,4.3-4.7c0.3-0.6,0.3-1.5,0.3-2.2
		c-0.1-1,0-1.9,0.3-2.9c1.4,0.8,1.6,1.4,1.3,2.6c-0.1,0.3,0,0.7,0,1.1c0,0.3,0.1,0.6,0,0.8c-0.9,0.8-0.5,1.8-0.4,2.8
		c0.1,0.5,0.2,1,0.3,1.5c0.2,1,0,1.8-0.4,2.7c-0.6,1-0.9,2.1-1.5,3.1c-0.3,0.4-0.7,0.9-1.2,1.1c-2,1-3.9,2.1-6,2.8
		c-5.7,1.8-11.5,3.5-17.3,5c-2.5,0.7-5.1,0.8-7.6,1.4c-4.8,1.1-9.7,1.3-14.6,1.9c-4.9,0.7-9.8,1.1-14.8,1.6
		c-6.7,0.7-13.4,0.6-20.2,0.2c-2.5-0.1-5.1-0.3-7.6-0.4c-5.4-0.2-10.6-1.2-15.9-2.2c-6.1-1.2-12-3-17.7-5.3
		c-3.1-1.2-6.2-2.5-9.3-3.8c-0.6-0.2-1.1-0.6-1.6-0.8C5.8,43,5,41.3,5.2,39.1c0.1-2,0.7-3.9,1.9-5.6c0.7-0.9,1.3-1.9,2-2.8
		C9.1,30.7,9.3,30.8,9.4,30.8z"/>
	<path class="st1" d="M119.2,206.2c-0.1,0.7-0.1,1.2-0.2,1.7c-0.3,1.1-0.8,2.2-1,3.3c-0.5,2.6-2.3,3.9-4.7,4.6
		c-2.4,0.7-4.9,1.4-7.3,2.2c-2.6,0.8-5.3,1.6-8,1.8c-1.4,0.1-2.8,0.6-4.2,0.8c-2.9,0.4-5.9,0.5-8.9,0.5c-3,0-5.9,0.4-8.9,0.5
		c-3,0.1-6.1,0.2-9.1,0c-3.6-0.2-7.2-0.8-10.8-1.3c-1.4-0.2-2.8-0.6-4.2-1c-4.5-1.2-9.1-1.9-13.6-2.7c-1.7-0.3-3.4-1.2-5.1-1.9
		c-1.1-0.5-2-1.5-2.3-2.7c-0.6-2.4-1.1-4.9-1.7-7.7c1.3,0.4,2.2,0.6,3.1,0.9c2.2,0.7,4.4,1.5,6.6,2.2c0.9,0.3,1.9,0.5,2.9,0.8
		c6.3,1.3,12.5,2.6,18.9,3.3c7.1,0.8,14.2,1.1,21.3,0.5c3.6-0.3,7.1-0.6,10.7-1c2.5-0.3,5-0.8,7.5-1.2c2-0.3,3.9-0.6,5.9-1
		c2.8-0.5,5.6-1.1,8.4-1.7C116,206.8,117.4,206.6,119.2,206.2z"/>
	<path class="st1" d="M140.1,22.2c0.6,3.1,0.2,6.2-1,9c-0.3,0.7-0.6,1.3-0.4,2.1c0.1,0.4-0.2,0.9-0.5,1.3c-1.1,1.4-2.6,2.2-4.2,2.8
		c-4.2,1.7-8.6,3-13.1,4c-4.5,1-8.9,2.2-13.4,3c-5.8,1.1-11.7,2-17.6,2.8c-3.3,0.4-6.6,0.5-9.9,0.7c-4,0.2-7.9,0.4-11.9,0.6
		c-1.8,0.1-3.6,0-5.4,0c-10.3-0.1-20.5-0.9-30.3-4.3c-5.5-2-10.9-4.2-16.3-6.4c-0.8-0.3-1.5-0.8-2.1-1.2c-1.3-0.9-2.1-2-2.2-3.8
		c-0.3-3.9-0.7-7.7-0.5-11.6c0-0.4,0.1-0.8,0.1-1.3c2.5,2,4.8,3.9,7.2,5.8c1.7,1.3,3.6,2.2,5.6,2.8c1.2,0.3,1.8,0.9,2.1,2.2
		c0.5,2.1,1.1,4.2,2.2,6.2c0.6,1.1,1.5,1.9,2.8,2.2c1.2,0.3,2.4,0.5,3.5,0.9c1.9,0.5,3.7,1.2,5.6,1.6c2.9,0.6,5.8,1.2,8.8,1.7
		c4.4,0.8,8.8,1.1,13.2,1.1c4.9,0,9.7-0.4,14.5-1c5.1-0.6,10.3-1,15.5-1.6c2.5-0.3,5-0.7,7.5-1c6.1-0.7,12.1-1.8,18.1-3.1
		c2.9-0.6,5.7-1.2,8.5-2.1c4.1-1.4,8.1-3.1,10.6-6.9c1.3-1.8,2-4,3-6C140,22.6,140,22.4,140.1,22.2z"/>
	<path class="st1" d="M101.8,38.6c0.5-0.6,0.7-1,1-1.1c5.7-2.7,11.3-5.4,17-8c3.1-1.4,6.3-2.6,9.5-3.9c0.7-0.3,1.4-0.5,2.2-0.3
		c1.1,0.2,1.5-0.3,1-1.3c-0.3-0.7-0.6-1.3-1-1.9c-2.5-3.6-5.1-7.2-7.7-10.8c-0.8-1.2-1.7-1.9-3.3-1.9c-3-0.1-6-0.7-9-1.2
		c-4-0.5-8-1.1-12-1.6c-4.3-0.5-8.7-0.9-13-1.4c-0.7-0.1-1.3-0.1-1.9,0.3c-0.4,0.3-1,0.4-1.6,0.4c-3.7,0.1-7.4,0.2-11.1,0.4
		C69.7,6.4,67.3,6.8,65,7c-4.1,0.3-8.1,0.4-12.2,0.7c-2.6,0.2-5.3,0.4-7.9,0.5c-1.9,0.1-3.8,0.5-5.7,0c-0.3-0.1-0.7,0.1-1,0.3
		c-1.7,1-3.3,2.1-5,3.1c-1.9,1.1-3.8,2.2-5.8,3.3c-0.5,0.3-1.1,0.6-1.7,0.7c-0.3,0.1-0.9,0.1-1-0.1c-1.4-1.5-3.1-1.7-5-1.5
		c-0.1,0-0.2-0.1-0.4-0.2c0.3-0.2,0.5-0.4,0.8-0.5c3.2-1.3,6.4-2.6,9.7-3.8c1.9-0.7,3.8-1,5.8-1.4c3.8-0.8,7.6-1.5,11.3-2.3
		C52.4,4.6,58,4.5,63.6,4.4c4.6-0.1,9.1-0.2,13.7-0.3C82.7,4,88.1,3.9,93.5,3.8c2.5,0,5.1,0.2,7.6,0.2c2,0,4-0.2,5.9-0.2
		c1.2,0,2.3,0.2,3.5,0.2c5.5,0.1,10.5,1.8,15.4,3.9c2,0.9,4,1.7,5.8,2.8c2.4,1.5,4.8,3.2,5.9,5.8c0.8,1.9,1.5,4.2-0.4,6.1
		c-0.4,0.4-0.6,1.1-0.7,1.7c-0.7,3.1-2.6,5.3-5.3,6.8c-2.8,1.6-5.8,2.8-9.1,3.5c-3.5,0.7-6.9,1.7-10.3,2.4c-2.5,0.6-5.1,1-7.6,1.5
		C103.6,38.7,102.9,38.6,101.8,38.6z"/>
	<path class="st1" d="M144.1,43.3c0.6,1.2,1,2.4,0.5,3.6c-0.4,0.8-1.6,1.1-2.6,0.8c-0.6,0.4-1,0.9-1.6,1.2
		c-4.7,2.3-9.8,3.6-14.8,5.1c-4.8,1.5-9.8,2.2-14.7,3c-2.8,0.5-5.6,1-8.5,1.4c-3.8,0.5-7.6,0.8-11.3,1.2c-6.6,0.7-13.3,0.7-20,0.7
		c-1.5,0-3.1,0.3-4.6,0.3c-6.2,0-12.4-0.5-18.6-1.4c-5.1-0.8-10.1-1.4-15.2-2.2c-6.4-1-12.8-2.5-18.8-5c-2.8-1.2-5.8-2.2-8.7-3.2
		c-0.8-0.3-1.2-0.8-1.1-1.6c0.1-1,0.4-1.9,0.6-2.9c2.6,1.5,5.1,2.8,7.7,3.7c4.3,1.6,8.5,3.3,12.9,4.8c5.3,1.8,10.8,3.1,16.4,4
		c3.8,0.6,7.5,1,11.3,1.2c5.1,0.3,10.2,0.5,15.4,0.7c4.1,0.1,8.2-0.1,12.2-0.6c2.8-0.4,5.6-0.4,8.4-0.7c3.3-0.3,6.6-0.8,9.8-1.2
		c2.4-0.3,4.7-0.5,7.1-0.9c2.1-0.3,4.1-0.8,6.2-1.1c5.7-0.8,11.2-2.3,16.7-3.9c4.2-1.3,8.4-2.7,12.3-4.7c0.6-0.3,1.2-0.8,1.8-1.2
		C143.3,43.9,143.7,43.6,144.1,43.3z"/>
	<path class="st1" d="M83.1,22.4c1.3,0.1,2.7,0.3,4,0.4c1.8,0.2,3.6,0.4,5.4,0.5c3.4,0.2,6.8,0.4,10.2,0.4c2,0,3.5,1,5,2.2
		c1,0.8,1.9,1.8,2.9,2.9c-1.4,2-2.1,4.3-4.7,5.1c-1.9,0.6-3.7,1.6-5.5,2.5c-0.3,0.2-0.6,0.5-0.9,0.6c-0.5,0.3-1,0.6-1.5,0.6
		c-1,0.1-2.2,0.4-3.1,0.1c-0.8-0.3-1.3-1.4-1.8-2.2c-1.7-3-4.3-5.4-6.5-8.1c-1.3-1.6-2.5-3.1-3.8-4.7C82.9,22.6,83,22.5,83.1,22.4z"
		/>
	<path class="st1" d="M60.4,39.7c-2.4-0.2-4.7-0.4-7.1-0.4c-1.8-0.1-3.2-0.5-4.5-2c-2.2-2.5-4.8-4.7-7.2-7.1
		c-1.1-1.1-2.3-2.2-3.4-3.4c-0.6-0.6-1.2-1.3-1.8-1.9c-0.2-0.2-0.4-0.6-0.7-0.7c-0.4-0.1-0.8,0-1.2,0c0,0.3-0.1,0.8,0.1,1
		c0.8,1,1.6,2,2.4,2.9c1.6,1.7,3.2,3.3,4.8,5c1.2,1.2,2.5,2.4,3.8,3.7c0.5,0.5,0.9,1,1.4,1.6c0,0.1-0.1,0.2-0.1,0.3
		c-0.9-0.1-1.9-0.1-2.8-0.3c-1.8-0.3-3.5-0.4-5.2-1.4c-2-1.3-2.9-3.1-3.3-5.2c-0.1-0.9-0.4-1.5-0.9-2.2c-0.7-1-1.3-2-2-3
		c-0.3-0.5-0.4-1-0.3-1.7c0.1-0.7-0.3-1.5-0.6-2.5c0.5-1.1,1.5-1.5,2.9-1.6c1.1-0.1,2.3-0.4,3.4-0.7c0.8-0.2,1.4,0.1,2,0.5
		c2,1.6,4,3.2,5.8,5.1c2.6,2.6,5.4,5,8.1,7.6c1.2,1.1,2.3,2.3,3.4,3.4c1,1,2.1,1.9,3.1,2.9C60.6,39.5,60.5,39.6,60.4,39.7z"/>
	<path class="st1" d="M39.1,39.5c3.3,0.4,6.5,0.8,9.8,1.3c0.4,0.1,0.9,0.1,1.3,0.1c6.9,0.3,13.8,0.6,20.7,0.7
		c2.3,0.1,4.6-0.3,6.9-0.5c2.4-0.2,4.8-0.4,7.2-0.5c-4.5,0.6-9,1.3-13.6,1.7c-4.5,0.4-9,0.7-13.5,0.2c-4.3-0.5-8.7-1-13-1.6
		c-2-0.3-4-0.8-5.9-1.3C39.1,39.6,39.1,39.5,39.1,39.5z"/>
	<path class="st1" d="M27.2,27.7c-0.9-0.3-1.7-0.6-2.5-0.9c0.1-0.2,0.1-0.3,0.1-0.4c1.4-1.5,1.5-1.7,0.5-3.4c-0.5-0.8-1.3-1.5-2-2.2
		c-0.4-0.4-0.9-0.7-1.4-1.3c1.2,0.3,2.5,0.5,3.7,0.9c0.4,0.1,0.9,0.5,1.2,0.8c0.7,0.9,1.4,1.8,2.1,2.8c0.8,1.2,0.7,1.4-0.2,2.4
		C28.2,26.8,27.7,27.2,27.2,27.7z"/>
	<path class="st1" d="M30.8,26.9c0.9,1.5,1.7,2.9,2.7,4.5c-1.5,0.7-3,1.3-4.5,2c-0.8-1.2-1-2.5-1.1-3.8c0-0.2,0.2-0.6,0.5-0.8
		C29.1,28.2,29.9,27.6,30.8,26.9z"/>
	<path class="st1" d="M33.8,33.5c1.1,1.6,2,3.2,3,4.6c-2,0.4-5.9-0.8-7.4-2.5C30.6,34.4,32.1,33.8,33.8,33.5z"/>
	<path class="st1" d="M12.6,17.8c2.2-0.3,4,0.3,6,0.7c0.1,0.8-0.5,1.2-0.7,1.8c-0.2,0.6-0.4,1.2-0.6,2C15.4,21.2,13.7,20,12.6,17.8z
		"/>
	<path class="st1" d="M23.8,18c-2-0.5-3.7-0.9-5.6-1.4C21,15.5,22.5,15.8,23.8,18z"/>
	<path class="st1" d="M111.6,31.4c0.1-1.2,0.7-1.9,1.8-2.1c1-0.2,2-0.4,3.1-0.4C114.9,29.7,113.2,30.6,111.6,31.4z"/>
	<path class="st1" d="M23.8,24.2c0,0.1-0.1,0.2-0.1,0.3c-0.1-0.1-0.2-0.1-0.3-0.2c0.1-0.1,0.1-0.2,0.2-0.2
		C23.6,24,23.7,24.1,23.8,24.2z"/>
	<path d="M79.2,19.8c-0.2,1.3-0.9,1.5-1.8,1.4c-4.7-0.1-9.4-0.2-14-0.3c-2.5-0.1-5.1-0.2-7.6-0.3c-0.4,0-0.7-0.4-1-0.6
		c0.3-0.3,0.5-0.8,0.8-0.8c1.2-0.2,2.5-0.3,3.8-0.3c3.4,0.1,6.8,0.2,10.2,0.3c2.7,0.1,5.5,0.2,8.2,0.3
		C78.3,19.5,78.7,19.7,79.2,19.8z"/>
</g>
</svg>
