<?xml version="1.0" encoding="utf-8"?>
<!-- Generator: Adobe Illustrator 22.0.1, SVG Export Plug-In . SVG Version: 6.00 Build 0)  -->
<svg version="1.1" id="Layer_1" xmlns="http://www.w3.org/2000/svg" xmlns:xlink="http://www.w3.org/1999/xlink" x="0px" y="0px"
	 viewBox="0 0 125.6 396.8" style="enable-background:new 0 0 125.6 396.8;" xml:space="preserve">
<style type="text/css">
	.st0{fill:#E4E4E4;}
	.st1{fill:#FFFFFF;}
</style>
<g>
	<path class="st0" d="M51.7,40.5c0,0-0.2,0.2-0.4,0.6c-1.6,2.1-7.3,9.3-12.7,13.8c-6.2,5.2-17.2,13.3-26.7,28.9s-7.7,29-7.4,37.6
		s0.8,41.3,0.3,49c-0.5,7.7-0.5,32.1-0.5,32.1v7.1c0,0-1.5,4.7-1.5,6.4c0,1.8,1,16.9,2.1,20.2s5,28.7,5,28.7l3.5,25.7
		c0,0,2.7,11.7,0,18.3c-2.7,6.6-5.1,17.3-5.1,17.3s-0.3,3.2-1.8,7.3s-3,9.2-3.1,13.3s-2.2,17-0.7,21.6c1.5,4.7,6.4,19.1,16.3,20.3
		c9.8,1.3,30-4.8,30-4.8s2.1,8.1,8.2,8.3c6.1,0.3,14.9-0.5,14.9-0.5l5.3-6.6l23.3,5c0,0,7.8,2.1,10.9-3.5s8.2-39.4,8.2-39.4
		L108.6,299l5.1-36.2c0,0,0-14,0.8-15.5c0.8-1.5,5.4-29.2,5.4-29.2s3.4-3.6,2.4-6c-1-2.4-4.7-4.4-4.2-6.9c0.5-2.6,1.8-52.8,1.8-52.8
		l1.8-43.3l-2.5-11.3c0,0-4.7-16.5-7.3-20.6c-2.7-4-21.2-24.7-21.2-24.7L75.9,39.5L51.7,40.5z"/>
	<g>
		<path d="M83.2,31.8c1.5,1.5,1.4,2.4-0.2,3.4c-0.5,0.3-1,0.5-1.6,0.8c0,1.6-0.3,3.3-1.4,4.6c-0.5,0.6-0.2,1.2,0.4,1.6
			c1.1,0.7,2.1,1.4,3.1,2.3c4,3.7,8,7.5,11.9,11.2c0.9,0.8,1.6,1.9,2.4,2.8c1.5,1.6,2.9,3.3,4.4,4.8c3,2.8,5.6,5.9,7.8,9.3
			c3.7,5.8,7.2,11.9,8.3,18.9c0.2,1.5,0.4,3.2,1.9,4.2c0.2,0.1,0.3,0.6,0.2,0.9c0,2.7,0.7,5.3,1.3,8c0.5,2.4,1.5,4.8,1.2,7.4
			c-0.3,2.5-0.2,5.1-0.5,7.7c-0.8,6.9-1,13.8-1.2,20.7c-0.1,3.4-0.4,6.8-0.4,10.2c-0.1,5.5-0.1,10.9-0.2,16.4c-0.1,3-0.4,6-0.6,9
			c0,0.4-0.1,0.8-0.1,1.2c-0.2,8.1-0.3,16.3-0.5,24.4c0,1,0,1.9,0.1,2.9c0.1,1.1,0.1,2.3,1.5,2.8c0.3,0.1,0.6,0.7,0.7,1.1
			c0.4,2.7,1,5.4,0.4,8.2c-0.1,0.4-0.1,0.8-0.3,1.1c-1.8,3.2-1.7,6.9-2.4,10.4c-1,4.9-2.1,9.8-3.1,14.7c-0.9,4.2-1.6,8.4-1.5,12.8
			c0.1,2.2-0.2,4.5-0.2,6.7c0,0.8,0.1,1.6,0.1,2.4c-0.2,0.8-0.6,1.6-0.8,2.5c-0.7,4-1.4,8-2,11.9c-0.4,2.3-0.9,4.5-1.2,6.8
			c-0.2,1.3-0.1,2.7-0.2,4c-0.1,1.7-0.4,3.3-0.5,5c-0.1,1.5-0.3,3.1,0,4.6c1.2,5.8,2.5,11.7,3.8,17.5c0.7,3,1.5,6,2.2,9
			c0.3,1.2,0.5,2.5,0.7,3.8c0.3,1.7,0.7,3.4,1.6,4.9c1.2,2,1,4.2,1.4,6.3c0.1,0.7,0.5,1.3,0.6,1.9c0.2,1.3,0.5,2.7,0.4,4
			c-0.5,4.3-1.1,8.5-1.8,12.8c-0.8,4.6-1.7,9.2-2.6,13.8c-0.5,2.7-1.1,5.4-1.8,8.1c-0.9,3.6-2.9,6.6-5.8,8.8
			c-1.6,1.2-3.5,1.6-5.5,1.3c-1.8-0.3-3.6-0.4-5.3-0.7c-4-0.7-8.1-1.5-12.1-2.3c-1.2-0.2-2.4-0.4-3.6-0.8c-1.4-0.4-2.7-1.1-4.2-1.7
			c-0.5,0.8-1,1.6-1.5,2.4c-1.5,2.8-3.8,4.1-7.1,4.1c-2.5-0.1-5.1,0.4-7.7,0.5c-2.9,0.1-5.8-0.3-8.4-1.8c-1.4-0.8-2.4-1.8-3.1-3.3
			c-0.4-1-0.8-2.2-1.6-2.8c-0.7-0.5-1.9-0.2-2.9-0.1c-3,0.5-6.1,1.1-9.1,1.6c-2.7,0.4-5.3,0.8-8,1.1c-1.4,0.2-2.8,0.4-4.2,0.6
			c-1.8,0.3-3.6,0.8-5.3,0.7c-1.3,0-2.7-0.8-4-1.1c-4.6-1.1-6.9-4.7-9-8.4c-1.7-3.1-3-6.4-3.6-9.9c-0.3-1.5-0.5-3-0.5-4.6
			c-0.2-4.7-0.4-9.4-0.4-14c0-2.1,0.4-4.2,0.6-6.3c0-0.3,0.2-0.6,0.1-1c-0.4-3.5,1.3-6.1,3.2-8.8c1.1-1.5,1.3-3.4,1.3-5.1
			c0.1-3.2,0.8-6.2,1.9-9.2c1.4-3.7,2.6-7.5,3.5-11.4c0.8-3.2,1.6-6.5,1.3-9.9c-0.3-3.1-0.7-6.2-1.1-9.4c-0.6-4.7-1.3-9.4-2-14.1
			c-0.7-4.9-1.4-9.8-2.1-14.7c-0.5-3-1.3-6-1.7-9c-0.6-4-1.1-8-1.6-12c-0.1-0.9-0.3-1.8-0.6-2.6c-1-3.6-1.8-7.2-1.8-11
			c0-2.6-0.4-5.1-0.5-7.7c-0.1-2.5-0.1-5,0-7.5c0-0.6,0.3-1.3,0.7-1.7c0.8-0.7,0.9-1.5,0.8-2.4c-0.1-3.9-0.2-7.8-0.3-11.7
			c-0.1-6.2-0.2-12.4,0-18.7c0.1-3.8,0.6-7.7,0.9-11.5c0.1-0.8,0.1-1.5,0.1-2.3c0-4.3,0-8.6,0-12.9C4.2,143,4,135.6,3.9,128.1
			c0-2.7,0-5.4-0.1-8.1c-0.2-3.4-0.4-6.9-0.7-10.3c-0.1-1.1,0.1-1.7,1.1-2.3c1.4-0.8,2.7-0.9,4.2-0.5c0.8,0.3,1.7,0.3,2.4,0.5
			c0.5,0.2,1,0.5,1.5,1c-2.3,0.9-4.6-0.5-6.9,0.8c0,0.6-0.1,1.4-0.1,2.1c0.1,5.6,0.3,11.3,0.4,16.9c0.2,10.7,0.3,21.4,0.3,32.1
			c0,4.8-0.5,9.6-0.6,14.4c-0.1,2.4-0.1,4.9-0.1,7.3c0,5.3,0,10.5,0,15.8c0,3.4,0.2,6.8,0.3,10.2c0,1.1,0,2.1-1.2,2.8
			c-0.4,0.3-0.7,1.1-0.7,1.6c0.1,4.2,0.3,8.3,0.5,12.5c0,0.8,0.2,1.5,0.2,2.3c0,3.1,0.6,6.1,1.5,9.1c0.4,1.4,0.6,2.9,0.8,4.3
			c0.3,1.8,0.5,3.6,0.7,5.3c0.5,3.9,1.4,7.7,2.2,11.5c0.8,3.9,1.2,8,1.7,12c0.2,1.5,0.3,1.6,1.8,1.6c0.7,0,1.4-0.1,2.1-0.3
			c3.3-0.8,6.6-1.5,9.9-2.6c2.9-0.9,5.6-2.2,8.4-3.4c0.9-0.4,1.9-0.8,2.8-1.2c0.3-0.1,0.8,0.1,1.3,0.1c-1.4,1.7-7.8,4.8-12.3,6
			c-4.4,1.1-8.8,2.2-13.4,3.4c0.3,2.4,0.6,4.8,0.9,7.2c0.5,3.9,1.1,7.9,1.6,11.8c0.3,2.4,0.6,4.7,0.9,7.1c0.2,1.8,0.5,2,2.4,2
			c2,0,3.9-0.9,5.7-1.5c4.7-1.5,9.4-3.1,14-4.7c1-0.3,2-0.8,3.2-0.9c-0.1,0.3-0.2,0.7-0.5,0.8c-1,0.6-2,1.3-3,1.7
			c-2.3,0.8-4.6,1.5-6.9,2.3c-1.7,0.6-3.4,1.2-5.1,1.8c-3.2,1.2-6.4,2.6-10.1,2.2c-0.2,0.8-0.5,1.4-0.5,2
			c-0.3,5.6-2.3,10.8-4.3,15.9c-0.9,2.4-1.3,4.9-1.6,7.5c-0.1,1.3,0.2,1.7,1.5,2c0.8,0.2,1.7,0.1,2.5,0.3c0.3,0,0.5,0.3,0.8,0.4
			c-0.4,0.9-1.1,0.8-1.7,0.8c-0.6,0-1.3-0.1-1.9,0c-0.6,0.1-1.4,0.5-1.5,0.9c-0.6,1.9-1.8,3.6-2.8,5.2c-0.2,0.3-0.2,0.6-0.3,0.9
			c1.8,1,1.8,1,5.8-0.1c-0.2,1.3-1,1.9-2.1,2.2c-0.9,0.2-1.9,0.2-2.8,0.1c-1.9-0.1-2,0-2.1,1.8c-0.1,0.8-0.3,1.6-0.5,2.4
			c-0.1,0.4-0.2,0.7-0.2,1.1C3.2,354.8,3.2,363,4.9,371c0.9,4.4,3,8.3,5.8,11.8c0.8,1,2,1.8,3.1,2.5c1.2,0.8,2.6,1.4,4,1.9
			c0.5,0.2,1.1,0.2,1.7,0.2c1.9-0.3,3.8-0.6,5.7-0.9c1.4-0.2,2.9-0.3,4.4-0.4c1-0.1,1.9-0.1,2.9-0.3c4.8-0.9,9.6-1.7,14.4-2.6
			c0.3-0.1,0.6-0.2,1.2-0.3c-0.3-1.4-0.6-2.7-1-4.1c-1.4-4.8-2.7-9.6-4.1-14.4c-0.8-2.6-1.6-5.3-2.4-7.9c-0.1-0.4-0.2-0.7-0.3-1.1
			c1.3-0.4,1.5-0.4,1.9,0.7c0.8,2.1,1.5,4.2,2.2,6.4c1.8,6.1,3.4,12.3,5.2,18.3c0.8,2.5,1.9,4.9,3.2,7.2c1,1.9,3.1,2.4,5,2.8
			c2.7,0.6,5.4,0.3,8,0c1.5-0.2,2.9-0.3,4.4-0.3c1.9,0,3.3-0.7,4.4-2.3c1.6-2.4,2.4-5.1,3.1-7.8c0.9-3.5,1.8-7.1,3-10.5
			c1-3,1.9-6,2.5-9.1c0.3-1.6,0.8-3,2-4c0.2-0.2,0.7-0.2,1-0.2c0.1,0,0.3,0.6,0.2,0.8c-0.9,3.3-1.8,6.7-2.7,10c-0.3,1-0.7,1.9-1,2.9
			c-0.8,2.6-1.7,5.3-2.4,7.9c-0.5,1.8-0.9,3.7-1.3,5.6c1.7,1.6,3.7,2.2,5.9,2.7c4.9,1.2,9.8,1.9,14.8,2.6c1.3,0.2,2.7,0.4,4,0.5
			c1.2,0.1,2.3,0.1,3.2-0.8c0.3-0.4,0.9-0.5,1.3-0.8c2.4-1.2,3.6-3.2,4.4-5.6c1.5-4.6,2.5-9.3,3-14.1c0.3-2.2,0.8-4.3,1.2-6.4
			c1.2-5,1.6-10.1,2-15.2c0-0.1,0-0.3,0-0.4c-1.2-4-0.7-8.3-2.8-12.1c-0.7-1.3-0.8-2.8-1.1-4.3c-0.8-3.6-1.7-7.2-2.5-10.9
			c-1.4-6.1-3.3-12.1-4.2-18.4c-0.3-1.9-0.4-3.8-0.2-5.7c0.4-2.7,0.5-5.5,0.8-8.2c0.1-0.7,0.2-1.4,0.3-2.1c0.3-2,0.6-3.9,0.9-5.9
			c0.2-1.3,0.5-2.6,0.8-4c0.2-0.8,0.5-1.6,0.6-2.4c0.3-2.1,0.5-4.2,0.7-6.2c-0.2-0.2-0.4-0.3-0.5-0.3c-2.5,0.5-5.1,0.7-7.5,1.5
			c-2,0.6-3.9,1.7-5.8,2.6c-1.3,0.7-2.6,1.5-3.8,2.2c-0.6,0.3-1.2,0.7-2,0.1c0.4-1.2,1.5-1.7,2.4-2.3c4.9-3.1,10.3-5.2,16.2-5.7
			c1.2-0.1,1.5-0.4,1.6-1.7c0.2-2.4,0.4-4.9,0.3-7.3c-0.2-4.2,0.6-8.3,1.5-12.4c0.5-2.2,1.1-4.4,1.5-6.6c1.1-6.2,2.1-12.4,3.2-18.6
			c0.1-0.7,0.2-1.4,0.6-2c0.9-1.5,0.6-3.1,0.2-4.7c-0.2-0.8-0.8-1-1.4-1.2c-0.8-0.2-1.2-0.7-1.2-1.5c-0.1-2.4-0.2-4.9-0.2-7.3
			c0-3.9,0.1-7.8,0.2-11.7c0-1.5,0.2-2.9,0.2-4.4c0.2-4.4,0.5-8.8,0.7-13.3c0.1-3,0-6,0.1-9.1c0.2-6.6,0.5-13.2,0.7-19.8
			c0.1-2.5,0-5,0.1-7.5c0.4-6.7,1-13.3,1.4-20c0.1-2.4,0-4.8,0-7.6c-0.7,0.3-1.3,0.5-1.9,0.7c-2.7,1.4-5.5,0.9-8.3,0.3
			c-0.3-0.1-0.8-0.6-0.8-0.9c0-0.6,0.6-0.7,1.2-0.6c0.8,0.1,1.6,0.2,2.5,0.4c1.9,0.4,3.7-0.3,5.4-1.1c1.2-0.6,1.2-1,0.6-3.1
			c-0.3,0.6-0.5,1.2-0.8,1.6c-0.2,0.3-0.8,0.5-1.1,0.4c-0.3-0.1-0.7-0.7-0.6-1c1-3.2-0.2-6.4-0.3-9.5c-0.3-5.5-2-10.5-4.5-15.2
			c-1.9-3.5-3.8-7.1-6.6-10.1c-2.5-2.6-5-5.2-7.4-7.8c-1.9-2-3.6-4.2-5.5-6.2c-1.8-1.9-3.9-3.6-5.8-5.4c-1.5-1.4-2.9-2.9-4.4-4.3
			c-0.5-0.5-1.1-0.9-1.6-1.4c-1.3-1.4-2.9-1.4-4.6-1.3c-3,0.2-6,0.4-9,0.6c-1.5,0.1-2.9,0.4-4.4,0.5c-2.3,0.2-4.6,0.3-6.9,0.3
			c-1.6,0-3.2,0-4.8,0c-3.3,0-4.2-0.8-4.7-4.1c-0.1-0.4-0.1-0.8-0.1-1.2c0.1-1-0.5-1.5-1.4-1.7c-0.4-0.1-0.9-0.1-1.3-0.3
			c-1.5-0.5-1.9-1.2-1.7-2.7c0.4-2.9,0.8-5.7,1.9-8.4c0.2-0.4,0.2-0.9,0.2-1.3c-0.8-5.5,0-10.9,0.5-16.3C44.5,8.1,45,7.3,45.5,7
			c1.3-0.8,2.7-1.5,4.2-1.9c4.3-1.2,8.7-1.5,13.1-1.7c5.1-0.3,9.9,0.8,14.8,1.8c0.2,0,0.4,0.1,0.6,0.2c3.5,1,4.5,2.1,4.4,5.7
			c0,3.7,0,7.3-0.2,11c-0.1,2.1,0.2,4.1,0.8,6.1C83.8,29.8,83.8,30.5,83.2,31.8z M80.7,26.7c-5,1.1-9.7,1-14.5,0.7
			c-2.6-0.1-5.1-0.5-7.7-0.6c-3.9,0-7.8,0.2-11.7,0.3c-0.5,0-0.9,0.2-1.5,0.4c0.1,2,0.3,3.9,0.4,5.9c0.4,0,0.8,0,1.2,0
			c1.5,0,2.1,0.6,2,2.1c0,0.4-0.1,0.8-0.3,1.1c-0.6,1.5-0.6,3,0,4.5c0.5,1.4,0.6,1.6,2.1,1.6c2.7,0,5.4,0.2,8.1,0
			c4.7-0.3,9.4-0.8,14.1-1.3c1.1-0.1,2.3-0.1,3.4-0.3c0.4-0.1,1.1-0.4,1.2-0.8c0.5-2.4,1.6-4.7,0.2-7.2c-1.4,0.8-2.8,1.1-4.4,1
			c-4.2-0.3-8.5-0.4-12.7,0.3c-1.1,0.2-2.1,0.5-3.2,0.7c-2.2,0.6-4.3,0.1-6.5-0.1c-0.3,0-0.7-0.6-1-1c0.4-0.3,0.7-0.7,1.1-0.8
			c0.5-0.1,1.1,0.1,1.7,0c2-0.1,4.1-0.2,6.1-0.4c2-0.2,4.1-0.6,6.1-0.7c3.3-0.1,6.7,0,10,0c0.6,0,1.4,0.1,1.7-0.2
			c1.2-1.2,2.4-0.9,3.8-0.6c0.3,0.1,0.7,0,1.1-0.1C81.4,29.9,81.1,28.4,80.7,26.7z M51.3,25.5C51.8,25.1,52,25,52,25
			c0.1-4.9,0.3-9.7,0.4-14.6c0-1.5,0.4-2.2,1.1-2.1c1.3,0.2,0.8,1.3,0.8,2c-0.1,3.9-0.3,7.8-0.4,11.7c0,0.9,0.1,1.8,0.1,2.6
			c0.1,0,0.3,0,0.4,0c0.2-5.5,0.4-11.1,0.6-16.6c0.9-0.4,1.3-0.1,1.5,0.6c0.1,0.6,0.2,1.3,0.2,1.9c0,4.1-0.1,8.2-0.2,12.3
			c0,0.6,0.1,1.2,0.1,1.8c0.4-0.2,0.6-0.4,0.6-0.6c0.1-3,0.2-6,0.2-9c0.1-1.8,0.1-3.6,0.2-5.4c0-0.3,0.5-0.6,0.8-0.9
			c0.2,0.3,0.6,0.6,0.7,1c0.1,0.3,0,0.8,0,1.1c0,4,0,8.1,0,12.1c0,0.7,0.1,1.3,0.2,2.1c1.2-0.2,1-0.9,1-1.5c0-4.2,0-8.5-0.1-12.7
			c0-0.5,0.1-1,0.2-1.5c0.1-0.2,0.4-0.5,0.7-0.6C61.6,8.7,62,9,62,9.2c0.2,0.8,0.4,1.7,0.3,2.5c-0.6,4.1,0,8.2,0.1,12.3
			c0,0.3,0,0.6,0.1,0.8c0.1,0.2,0.4,0.5,0.7,0.5c0.1,0,0.5-0.2,0.5-0.4c0.1-0.4,0.2-0.9,0.2-1.3c0-1.5,0-3,0-4.4c0-3,0-6,0-9.1
			c0-1,0-2,1.5-2.3c0.1,0.5,0.4,1.1,0.4,1.6c0.1,5.1,0.1,10.1,0.2,15.2c0,0.4,0.2,0.7,0.3,1.1c0.3-0.4,0.3-0.7,0.3-1
			c0-4.5,0-9-0.1-13.5c0-0.5,0-1,0.1-1.5c0.1-0.2,0.4-0.5,0.7-0.5c0.2,0,0.6,0.2,0.7,0.5c0.2,0.3,0.2,0.7,0.2,1.1
			c0.1,3.1,0.1,6.2,0.2,9.2c0,1,0.1,1.9,0.1,2.9c0,1,0,2,0,2.9c1.2,0.3,1.8,0,1.8-1c0-0.8,0-1.5,0-2.3c0-4,0-8-0.1-11.9
			c0-0.6,0-1.3,0.7-1.3c0.9-0.1,1,0.7,1,1.3c0,0.1,0,0.3,0,0.4c0,4.4,0.1,8.7,0.1,13.1c0,0.6-0.1,1.3,0.8,2.2
			c0.1-1.1,0.1-1.7,0.1-2.4c0.1-4.3,0.2-8.6,0.4-12.9c0-1.3,0.5-1.8,1.1-1.6c1,0.3,0.6,1.1,0.6,1.8c-0.1,3.7-0.3,7.4-0.4,11.1
			c0,1.1,0.2,2.3,0.4,3.4c0.1,0,0.3,0,0.4,0c0.1-0.4,0.1-0.8,0.1-1.3c0.1-3.8,0.1-7.6,0.1-11.4c0-0.6-0.1-1.2,0.1-1.7
			c0.1-0.4,0.5-0.8,0.8-1.2c0.3,0.3,0.8,0.7,0.8,1.1c0.2,1.1,0.2,2.3,0.2,3.4c-0.1,3.1-0.2,6.2-0.3,9.2c0,0.6,0.1,1.2,0.1,1.8
			c0.4-0.3,0.5-0.5,0.5-0.8c0.2-4.2,0.5-8.5,0.7-12.7c0.1-1.4-0.1-2.8,1.3-3.8c-0.5-0.3-0.8-0.5-1.1-0.6C78.2,7.2,77.6,7,77,6.9
			c-6.2-1.8-12.6-2.2-19.1-1.5c-2.9,0.3-5.7,1-8.5,1.7c-2.5,0.6-3,1.4-3.2,3.9c-0.1,1.1-0.3,2.2-0.3,3.3c-0.1,3.3-0.1,6.5-0.1,9.8
			c0,0.4,0.3,1.1,0.6,1.3c1.4,0.7,2.6,0,2.7-1.6c0.1-3.7,0.3-7.3,0.4-11c0-1.1,0.1-2.2,0.3-3.2c0.1-0.3,0.6-0.8,0.9-0.8
			c0.3,0,0.7,0.5,0.8,0.8c0.1,0.5,0,1.1,0,1.7c-0.1,4-0.2,8-0.3,11.9C51.2,23.9,51.3,24.5,51.3,25.5z M79.9,24.7c0.1,0,0.2,0,0.3,0
			c0.2-4.5,0.3-9.1,0.5-13.6c-0.1,0-0.2,0-0.4,0C80.2,15.6,80,20.1,79.9,24.7z M46.7,35.8c-1.3-0.4-1.3-0.4-2.3-0.1
			c0.7,0.1,1.2,0.2,1.6,0.2C46.2,35.9,46.4,35.8,46.7,35.8z"/>
		<path d="M18.4,138c3.3,10.2,4.9,20.5,7.6,30.8c0.4-0.6,0.6-1,0.7-1.3c1.2-3.2,2.3-6.4,3.5-9.6c0.3-0.7,0.4-1.8,1.5-1.8
			c1.1,0,1.2,1.1,1.4,1.8c0.9,3,1.8,6,2.7,9c0.1,0.3,0.2,0.6,0.6,0.9c0.2-0.6,0.4-1.2,0.6-1.9c1.5-4.8,3-9.7,4.4-14.5
			c1.1-3.6,2.1-7.3,3.1-10.9c0.1-0.4,0.2-0.8,0.4-1c0.2-0.2,0.7-0.4,1-0.3c0.3,0.1,0.6,0.5,0.6,0.8c0.1,0.5,0,1-0.2,1.5
			c-2.3,7.4-4.6,14.7-6.8,22.1c-0.5,1.5-0.8,3.1-1.2,4.6c-0.4,1.1-0.8,2.2-1.4,3.1c-0.7,1.1-1.7,0.9-2.1-0.3
			c-0.5-1.3-0.8-2.7-1.1-4.1c-0.6-2.3-1.3-4.6-2-7.1c-0.8,0.9-1,1.7-1.3,2.5c-0.8,2.2-1.6,4.5-2.4,6.7c-0.3,0.7-0.7,1.4-1.2,2
			c-0.4,0.4-1.1,0.8-1.6,0.7c-0.3,0-0.8-0.8-0.9-1.3c-0.5-1.8-0.9-3.6-1.3-5.4c-1.8-8-3.5-16-5.3-24.1
			C17.6,140.2,17.2,139.2,18.4,138z"/>
		<path d="M92.2,156.8c1.5,1.5,3,3.1,4.6,4.6c2.8,2.7,5.3,5.8,7.4,9.1c0.4,0.7,0.8,1.3-0.1,1.8c-0.8,0.5-1.3-0.1-1.7-0.7
			c-0.8-1.2-1.6-2.3-2.4-3.5c-2.5-3.6-5.9-6.4-8.9-9.5c-0.2-0.2-0.5-0.4-1.1-0.7c-0.1,0.7-0.2,1.3-0.2,1.8c0,3.5,0,6.9,0,10.4
			c0,0.5,0,1-0.1,1.5c-0.1,0.3-0.5,0.7-0.8,0.7c-0.3,0-0.7-0.3-0.9-0.6c-0.2-0.4-0.3-1-0.3-1.5c0-3.3,0.1-6.5,0.1-9.8
			c-0.1-4.8-0.2-9.6-0.4-14.4c-0.1-2.1-0.2-4.2-0.3-6.3c0-1.1,0.3-1.4,1.5-1.4c0.6,0,1.1-0.2,1.7-0.3c3.1-0.6,5.7,0.2,7.9,2.3
			c1.3,1.3,2.1,2.9,2,4.8c-0.1,1.7,0,3.3-0.1,5c0,1.7-0.5,3.3-1.6,4.6c-1.2,1.4-2.6,2.1-4.4,1.8c-0.6-0.1-1.1-0.1-1.7-0.1
			C92.3,156.5,92.3,156.7,92.2,156.8z M98.2,147.3c-0.1,0-0.1,0-0.2,0c0-0.6,0-1.3,0-1.9c0.2-2.3-0.6-3.8-3.5-5.1
			c-1.4-0.6-2.9-1.1-4.4-0.3c-0.8,0.4-1.2,0.9-1.1,1.8c0.1,1.1,0.2,2.3,0.2,3.4c0.1,2.4,0.1,4.7,0.3,7.1c0.2,2.3,0.2,2.3,2.5,2.4
			c0.6,0,1.3,0.1,1.9,0.1c2,0.1,3-0.4,3.6-2.4C97.9,150.7,98,149,98.2,147.3z"/>
		<path d="M2.9,103.5c0.1-0.5,0.2-1,0.4-1.5C4.6,98.3,6,94.7,7.2,91c1.9-6.1,5.7-11,9.5-15.9c2.4-3,4.7-5.9,7.2-8.7
			c3.7-4.1,7.7-8.1,12-11.6c2.3-1.9,4.8-3.6,7.1-5.6c1.3-1.1,2.2-2.5,3.4-3.7c0.5-0.5,0.9-1.4,1.7-0.8c0.8,0.6,0.1,1.2-0.3,1.8
			c-2.2,3.1-5.2,5.5-8.3,7.7c-6,4.3-11.1,9.5-15.8,15.1c-3.4,4.1-6.7,8.5-9.9,12.7c-1.7,2.3-2.8,4.8-4,7.4c-1.6,3.7-3,7.5-4.1,11.4
			c-0.4,1.3-0.9,2.5-0.3,3.9c0.1,0.2,0,0.7-0.2,0.8c-0.2,0.2-0.6,0.2-0.9,0.1C3.4,105.2,3,104.5,2.9,103.5z"/>
		<path d="M54.6,172.5c-0.8-0.5-1-1.4-1.3-2.3c-0.3-1.1-0.6-2.2-0.9-3.3c-0.2-0.8-0.7-1.3-1.6-1.3c-1,0-2-0.1-3.1-0.1
			c-1,0-1.7,0.4-1.9,1.5c-0.1,0.9-0.3,1.8-0.5,2.6c-0.1,0.6-0.1,1.2-0.4,1.7c-0.2,0.3-0.8,0.5-1.2,0.7c-0.2-0.4-0.5-0.8-0.5-1.1
			c0.1-1.1,0.3-2.3,0.5-3.4c1.2-5.3,2.4-10.5,3.6-15.8c0.2-0.7,0.1-1.7,1.1-1.8c1.1-0.1,1.4,0.8,1.6,1.6c0.4,1.3,0.8,2.6,1.1,3.9
			c1.4,4.9,2.7,9.9,4.1,14.8C55.9,171.7,55.9,171.7,54.6,172.5z M49.2,154.5c-0.2,0-0.4,0-0.6,0c-0.7,3-1.3,5.9-2,8.9
			c1.6,0.6,2.9,0,4.2-0.1c0.2,0,0.5-0.7,0.5-1.1C50.6,159.7,49.9,157.1,49.2,154.5z"/>
		<path d="M83.8,151.6c-0.8,0-1.5,0.1-2.2,0.1c-1.3,0-2.6,0-3.8,0c-1.2,0.1-1.5,0.4-1.4,1.5c0.1,2,0.2,4.1,0.3,6.1
			c0,0.9,0.5,1.3,1.3,1.3c1,0,1.9,0,2.9,0.1c0.5,0,1,0.1,1.5,0.2c0.6,0.2,1.1,0.6,0.9,1.2c-0.1,0.3-0.8,0.7-1.2,0.7
			c-0.8,0.1-1.7-0.1-2.5-0.2c-0.6-0.1-1.1-0.2-1.7-0.2c-0.8,0-1.2,0.3-1.2,1.1c0,1.7,0,3.3,0,5c0,0.8,0.5,1.3,1.3,1.3
			c1.2,0,2.4-0.1,3.6-0.2c0.8,0,1.7-0.1,2.5,0c0.3,0,0.8,0.5,0.9,0.8c0,0.3-0.4,0.7-0.6,1c-0.1,0.1-0.2,0.1-0.4,0.1
			c-2.5-0.1-5,0.7-7.5,0c-1.6-0.4-2-0.8-2-2.3c0-5.8,0-11.7,0-17.5c0-1.2,0.4-1.8,1.7-1.9c2-0.2,4-0.3,5.9-0.3
			C83.3,149.7,83.6,150.1,83.8,151.6z"/>
		<path d="M62.5,151.3c-1.2,0-2,0-2.8,0c-0.5,0-1.1-0.1-1.5-0.3c-0.3-0.2-0.7-0.7-0.7-1c0-0.3,0.6-0.7,0.9-0.7
			c2.9-0.1,5.9-0.1,8.8-0.1c0.6,0,1.2,0.1,1.7,0.3c0.7,0.3,0.7,1.1,0,1.5c-0.5,0.2-1.1,0.2-1.7,0.2c-0.5,0-1-0.2-1.5-0.2
			c-0.6,0-1,0.2-1.1,0.9c-0.1,1-0.3,1.9-0.3,2.9c0.1,4.9,0.2,9.9,0.2,14.8c0,0.8,0.2,1.8-0.9,2c-0.7,0.1-1.1-0.5-1.1-2.1
			c0-5.3-0.1-10.5-0.1-15.8C62.5,153,62.5,152.4,62.5,151.3z"/>
		<path d="M115.8,233.1c-0.3,0.2-0.6,0.4-0.8,0.4c-6.8-0.1-12.9,2.6-18.9,5.3c-2.1,0.9-4.1,2.1-6.1,3.2c-0.4,0.2-0.9,0.3-1.5,0.6
			c-0.2-1,0.5-1.4,1-1.7c4.1-2.7,8.5-4.8,13.1-6.3c1.8-0.6,3.6-1.4,5.4-1.8c1.7-0.4,3.5-0.5,5.3-0.6
			C114.1,232.1,115.1,232.2,115.8,233.1z"/>
		<path d="M117.1,342.6c-0.5,0.2-0.8,0.5-1.2,0.6c-3.5,0.3-7,1.2-10.5,0.8c-0.6-0.1-1.3-0.2-1.9-0.4c-0.2-0.1-0.4-0.5-0.4-0.8
			c0-0.2,0.4-0.4,0.7-0.6c0.2-0.1,0.5,0,0.8-0.1c3.5-0.2,7-0.3,10.5-0.5C115.7,341.8,116.5,341.5,117.1,342.6z"/>
		<path d="M87.6,194.3c0-1.4,0.8-2.3,2.2-2.3c1.2,0,1.9,0.7,1.9,1.9c0,1.3-0.9,2.4-2,2.4C88.6,196.3,87.6,195.4,87.6,194.3z
			 M89.8,193.8c-0.1-0.1-0.2-0.1-0.3-0.2c0,0.1-0.1,0.2-0.1,0.3c0,0.1,0.2,0.1,0.2,0.2C89.8,193.9,89.8,193.9,89.8,193.8z"/>
		<path d="M111.8,335.4c-0.7,0.5-1,0.8-1.4,0.9c-1.7,0.4-3.5,0.9-5.2,1.1c-0.7,0.1-1.5-0.2-2.2-0.4c-0.2-0.1-0.3-0.5-0.3-0.8
			c0-0.2,0.3-0.4,0.5-0.5c2.5-0.2,4.9-0.4,7.4-0.6C110.8,335,111,335.2,111.8,335.4z"/>
		<path d="M87.2,186.2c1.1,0,1.7,0.5,1.8,1.8c0,1.3-0.7,2.3-1.8,2.3c-1.1,0-2-1.1-2.1-2.3C85,187,86,186.2,87.2,186.2z"/>
		<path d="M13.8,92.9c0,1.2-1,2.3-2.1,2.3c-1,0-1.6-0.8-1.5-1.8c0.1-1.1,1.2-2.3,2.2-2.3C13.2,91,13.8,91.7,13.8,92.9z"/>
		<path d="M111.7,320c0,1.1-0.8,1.9-1.8,1.8c-0.9-0.1-1.7-0.9-1.6-1.8c0.1-1,1-2.3,1.6-2.3C110.9,317.7,111.7,318.8,111.7,320z"/>
		<path d="M22.4,89.1c0,1.3-1,2.6-2.1,2.5c-0.8,0-1.6-0.7-1.6-1.6c-0.1-1,1.3-2.4,2.3-2.4C21.8,87.6,22.3,88.2,22.4,89.1z"/>
		<path d="M10.6,236.7c1.2,0,2,0.7,2,1.6c0,0.9-1,1.8-1.9,1.8c-1.1,0-2.2-1-2.2-2C8.5,237.1,9.2,236.7,10.6,236.7z"/>
		<path d="M17.6,241.1c0,1.2-0.8,2.2-1.9,2.3c-0.9,0-1.7-0.7-1.8-1.6c-0.1-1,1.1-2.2,2.2-2.3C16.9,239.4,17.6,240.1,17.6,241.1z"/>
		<path d="M92.6,187.8c1,0,1.7,0.6,1.7,1.4c0,1-0.9,2-1.9,2.1c-1.1,0.1-2.1-0.8-2-1.8C90.4,188.7,91.5,187.9,92.6,187.8z"/>
		<path d="M94.8,66.8c0.1-1.3,1-2.3,2-2.1c0.9,0.1,1.5,1,1.5,1.9c-0.1,1.2-1.1,2-2.2,1.9C95.2,68.4,94.7,67.8,94.8,66.8z"/>
		<path d="M88.5,201.2c0,1.1-0.7,2-1.6,2c-0.9,0-1.7-0.9-1.7-1.9c0-1,0.8-1.9,1.7-1.9C87.9,199.4,88.5,200.2,88.5,201.2z"/>
		<path d="M14.8,99.1c0,0.8-1.2,1.9-2.1,1.9c-0.9,0-1.8-0.8-1.7-1.7c0.1-0.7,1.4-1.6,2.3-1.7C14.1,97.7,14.8,98.4,14.8,99.1z"/>
		<path d="M15.3,249.7c-0.9,0-1.8-0.9-1.9-2.1c0-0.8,0.7-1.6,1.6-1.6c0.8,0,1.7,0.9,1.8,1.7C16.8,248.8,16.1,249.7,15.3,249.7z"/>
		<path d="M10,241.6c1,0,1.6,0.8,1.5,1.8c-0.1,1.1-0.9,1.9-1.8,1.9c-0.8-0.1-1.4-1.1-1.4-2.2C8.4,242.2,9,241.6,10,241.6z"/>
		<path d="M94.7,203.5c-0.1,1-0.7,1.7-1.5,1.6c-1-0.1-1.9-1.4-1.8-2.6c0.1-0.8,0.4-1.1,1.3-1C94.1,201.6,94.8,202.3,94.7,203.5z"/>
		<path d="M100.6,72c1.2,0,1.8,0.4,1.8,1.2c0.1,1-0.9,2.1-1.8,2.1c-0.8,0-1.6-0.9-1.6-1.8C99,72.6,99.6,72,100.6,72z"/>
		<path d="M105.2,327.1c0.6-0.4,1.1-0.6,1.9-1.1c-0.9-0.1-1.5-0.2-2.2-0.2c0-1.2,0.8-1.4,1.7-1.5c0.9-0.1,1.8,0.4,2,1.2
			c0.2,0.9-0.3,1.6-1,2.1C106.9,328.1,106.4,328,105.2,327.1z"/>
		<path d="M10.3,99.2c-0.1,0.2-0.2,0.7-0.3,1.1c-0.4,0.8-1.2,1.2-1.9,0.8c-0.8-0.4-0.8-1.1-0.6-1.8c0.1-0.2,0.2-0.5,0.3-0.7
			c0.2-0.8,0.6-1.5,1.6-1.2C10.2,97.5,10.3,98.3,10.3,99.2z"/>
		<path d="M102.1,68.6c0,0.9-0.5,1.5-1.3,1.6c-0.9,0-2-0.9-2-1.7c0-0.7,1-1.6,1.9-1.6C101.4,66.9,102,67.6,102.1,68.6z"/>
		<path d="M106.6,321.8c0,0.9-0.7,1.6-1.5,1.6c-0.9,0-1.6-0.9-1.6-1.8c0-1,0.6-1.6,1.5-1.5C106,320.1,106.7,320.9,106.6,321.8z"/>
		<path d="M15.6,95.2c0-0.7,0.7-1.3,1.4-1.3c0.7,0.1,1.2,0.4,1.3,1.2c0.1,0.7-0.6,1.4-1.3,1.4C16.3,96.6,15.6,95.9,15.6,95.2z"/>
		<path d="M75.3,54c-0.2,1.2-0.4,2.1-0.5,3.1C73.6,55.8,73.7,54.8,75.3,54z"/>
		<path d="M84.3,355.4c-0.4,0.3-0.6,0.5-0.8,0.6c-0.2,0-0.4-0.2-0.6-0.3c0.1-0.2,0.3-0.6,0.5-0.6C83.5,354.9,83.8,355.2,84.3,355.4z
			"/>
		<path class="st1" d="M80.7,26.7c0.4,1.7,0.7,3.1,1.1,4.8c-0.4,0-0.8,0.2-1.1,0.1c-1.3-0.3-2.6-0.6-3.8,0.6
			c-0.3,0.3-1.1,0.2-1.7,0.2c-3.3,0-6.7-0.1-10,0c-2,0.1-4.1,0.5-6.1,0.7c-2,0.2-4.1,0.3-6.1,0.4c-0.6,0-1.2-0.1-1.7,0
			c-0.4,0.1-0.8,0.5-1.1,0.8c0.3,0.3,0.6,0.9,1,1c2.2,0.1,4.3,0.6,6.5,0.1c1.1-0.3,2.1-0.5,3.2-0.7c4.2-0.7,8.5-0.6,12.7-0.3
			c1.6,0.1,3-0.2,4.4-1c1.4,2.5,0.3,4.8-0.2,7.2c-0.1,0.3-0.7,0.7-1.2,0.8c-1.1,0.2-2.3,0.2-3.4,0.3c-4.7,0.4-9.4,1-14.1,1.3
			c-2.7,0.2-5.4,0-8.1,0c-1.6,0-1.6-0.2-2.1-1.6c-0.5-1.5-0.6-3,0-4.5c0.2-0.3,0.3-0.7,0.3-1.1c0.1-1.4-0.6-2.1-2-2.1
			c-0.4,0-0.7,0-1.2,0c-0.1-2-0.3-3.9-0.4-5.9c0.5-0.1,1-0.3,1.5-0.4c3.9-0.1,7.8-0.3,11.7-0.3c2.6,0,5.1,0.4,7.7,0.6
			C71,27.7,75.8,27.8,80.7,26.7z"/>
		<path class="st1" d="M51.3,25.5c-0.1-1-0.2-1.7-0.2-2.4c0.1-4,0.2-8,0.3-11.9c0-0.6,0.1-1.2,0-1.7c-0.1-0.3-0.5-0.8-0.8-0.8
			c-0.3,0-0.8,0.5-0.9,0.8c-0.2,1.1-0.3,2.2-0.3,3.2c-0.2,3.7-0.3,7.3-0.4,11c-0.1,1.6-1.3,2.4-2.7,1.6c-0.3-0.2-0.6-0.8-0.6-1.3
			c0-3.3,0-6.5,0.1-9.8c0-1.1,0.2-2.2,0.3-3.3c0.2-2.4,0.8-3.3,3.2-3.9c2.8-0.7,5.6-1.4,8.5-1.7C64.3,4.6,70.7,5.1,77,6.9
			c0.6,0.2,1.2,0.4,1.8,0.6c0.3,0.1,0.7,0.4,1.1,0.6c-1.3,1-1.2,2.4-1.3,3.8c-0.2,4.2-0.4,8.5-0.7,12.7c0,0.3-0.1,0.5-0.5,0.8
			c0-0.6-0.1-1.2-0.1-1.8c0.1-3.1,0.2-6.2,0.3-9.2c0-1.1-0.1-2.3-0.2-3.4c-0.1-0.4-0.6-0.7-0.8-1.1c-0.3,0.4-0.7,0.7-0.8,1.2
			c-0.1,0.5,0,1.1-0.1,1.7c0,3.8-0.1,7.6-0.1,11.4c0,0.4-0.1,0.8-0.1,1.3c-0.1,0-0.3,0-0.4,0c-0.1-1.1-0.4-2.3-0.4-3.4
			c0.1-3.7,0.3-7.4,0.4-11.1c0-0.7,0.4-1.5-0.6-1.8c-0.6-0.2-1.1,0.4-1.1,1.6c-0.2,4.3-0.3,8.6-0.4,12.9c0,0.7-0.1,1.4-0.1,2.4
			c-0.9-0.8-0.8-1.5-0.8-2.2c-0.1-4.4-0.1-8.7-0.1-13.1c0-0.1,0-0.3,0-0.4c-0.1-0.7-0.2-1.4-1-1.3c-0.8,0.1-0.7,0.7-0.7,1.3
			c0,4,0.1,8,0.1,11.9c0,0.8,0,1.5,0,2.3c0,1-0.6,1.3-1.8,1c0-0.9,0-1.9,0-2.9c0-1-0.1-1.9-0.1-2.9c-0.1-3.1-0.1-6.2-0.2-9.2
			c0-0.4,0-0.8-0.2-1.1c-0.1-0.2-0.5-0.5-0.7-0.5c-0.2,0-0.6,0.3-0.7,0.5c-0.1,0.5-0.1,1-0.1,1.5c0,4.5,0,9,0.1,13.5
			c0,0.3,0,0.6-0.3,1c-0.1-0.4-0.3-0.7-0.3-1.1c-0.1-5.1-0.1-10.1-0.2-15.2c0-0.5-0.2-1-0.4-1.6c-1.5,0.4-1.5,1.4-1.5,2.3
			c0,3,0,6,0,9.1c0,1.5,0,3,0,4.4c0,0.4,0,0.9-0.2,1.3c-0.1,0.2-0.4,0.5-0.5,0.4c-0.3-0.1-0.5-0.3-0.7-0.5c-0.1-0.2-0.1-0.5-0.1-0.8
			c-0.1-4.1-0.7-8.2-0.1-12.3c0.1-0.8-0.1-1.6-0.3-2.5c0-0.2-0.5-0.5-0.7-0.5c-0.2,0-0.6,0.3-0.7,0.6c-0.2,0.5-0.2,1-0.2,1.5
			c0,4.2,0,8.5,0.1,12.7c0,0.6,0.2,1.3-1,1.5c-0.1-0.7-0.2-1.4-0.2-2.1c0-4,0-8.1,0-12.1c0-0.4,0.1-0.8,0-1.1
			c-0.1-0.4-0.5-0.7-0.7-1c-0.3,0.3-0.8,0.6-0.8,0.9c-0.1,1.8-0.2,3.6-0.2,5.4c-0.1,3-0.2,6-0.2,9c0,0.2-0.2,0.4-0.6,0.6
			c0-0.6-0.1-1.2-0.1-1.8c0.1-4.1,0.1-8.2,0.2-12.3c0-0.6-0.1-1.3-0.2-1.9c-0.2-0.7-0.6-0.9-1.5-0.6c-0.2,5.5-0.4,11-0.6,16.6
			c-0.1,0-0.3,0-0.4,0c-0.1-0.9-0.2-1.8-0.1-2.6c0.1-3.9,0.3-7.8,0.4-11.7c0-0.8,0.5-1.8-0.8-2c-0.7-0.1-1.1,0.6-1.1,2.1
			c-0.1,4.9-0.3,9.7-0.4,14.6C52,25,51.8,25.1,51.3,25.5z M46.4,19.7c0.1,0,0.1,0,0.2,0c0,1.5,0,2.9,0,4.4c0,0.3,0.5,0.8,0.8,0.9
			c0.3,0,0.7-0.4,0.9-0.8c0.2-0.4,0.1-0.9,0.2-1.3c0.1-4,0.2-7.9,0.3-11.9c0-0.4,0-0.9-0.1-1.3C48.7,9.4,48.3,9,48.1,9
			c-0.3,0-0.8,0.2-0.9,0.5C47,10,47,10.5,47,11C46.8,13.9,46.6,16.8,46.4,19.7z"/>
		<path class="st1" d="M79.9,24.7c0.2-4.5,0.3-9.1,0.5-13.6c0.1,0,0.2,0,0.4,0c-0.2,4.5-0.3,9.1-0.5,13.6
			C80.1,24.7,80,24.7,79.9,24.7z"/>
		<path class="st1" d="M46.7,35.8c-0.2,0-0.5,0.1-0.7,0.1c-0.5,0-1-0.1-1.6-0.2C45.4,35.3,45.4,35.3,46.7,35.8z"/>
		<path class="st0" d="M98.2,147.3c-0.2,1.7-0.3,3.4-0.8,5.1c-0.5,2-1.5,2.5-3.6,2.4c-0.6,0-1.3-0.1-1.9-0.1
			c-2.2-0.1-2.3-0.1-2.5-2.4c-0.2-2.4-0.2-4.7-0.3-7.1c0-1.1-0.1-2.3-0.2-3.4c-0.1-0.9,0.3-1.4,1.1-1.8c1.6-0.8,3-0.3,4.4,0.3
			c2.9,1.3,3.7,2.8,3.5,5.1c-0.1,0.6,0,1.3,0,1.9C98.1,147.3,98.2,147.3,98.2,147.3z"/>
		<path class="st0" d="M49.2,154.5c0.7,2.6,1.4,5.2,2.1,7.8c0.1,0.3-0.3,1-0.5,1.1c-1.3,0.1-2.6,0.7-4.2,0.1c0.7-3,1.3-6,2-8.9
			C48.8,154.6,49,154.5,49.2,154.5z"/>
		<path class="st1" d="M89.8,193.8c0,0.1-0.1,0.2-0.1,0.3c-0.1-0.1-0.2-0.1-0.2-0.2c0-0.1,0.1-0.2,0.1-0.3
			C89.7,193.6,89.8,193.7,89.8,193.8z"/>
		<path d="M46.4,19.7c0.2-2.9,0.3-5.7,0.5-8.6c0-0.5,0.1-1,0.3-1.5c0.1-0.3,0.6-0.5,0.9-0.5c0.2,0,0.5,0.3,0.6,0.6
			c0.1,0.4,0.1,0.9,0.1,1.3c-0.1,4-0.2,7.9-0.3,11.9c0,0.4,0,0.9-0.2,1.3c-0.2,0.3-0.6,0.8-0.9,0.8c-0.3,0-0.8-0.5-0.8-0.9
			c-0.1-1.5,0-2.9,0-4.4C46.6,19.7,46.5,19.7,46.4,19.7z"/>
	</g>
</g>
</svg>
