<?xml version="1.0" encoding="utf-8"?>
<!-- Generator: Adobe Illustrator 22.0.1, SVG Export Plug-In . SVG Version: 6.00 Build 0)  -->
<svg version="1.1" id="Layer_1" xmlns="http://www.w3.org/2000/svg" xmlns:xlink="http://www.w3.org/1999/xlink" x="0px" y="0px"
	 viewBox="0 0 653 512.4" style="enable-background:new 0 0 653 512.4;" xml:space="preserve">
<style type="text/css">
	.st0{fill:#171717;}
</style>
<g>
	<path class="st0" d="M576.3,457.8c0,0-103.7-39-136.6-69.8c0,0-9.2-10.3-19.5-10.3c0,0-22.6-2.1-22.6-63.7c0,0,11.3-8.2,11.3-25.7
		l3.1-26.7c0,0,13.4,0,13.4-15.4c0,0,1-8,6.2-19.9c0,0,26.7-34.5,9.2-39.6c0,0-9.2,2.1-11.3,6.2c0,0-4.1-17.5,5.1-43.1
		c0,0,3.1-12.9-4.1-30.8c0,0,26.7-42.1-5.1-56.5c0,0,0-35.9-46.2-40.1c0,0-20.5-27.7-53.4-11c-32.9-16.7-53.4,11-53.4,11
		c-46.2,4.1-46.2,40.1-46.2,40.1c-31.8,14.4-5.1,56.5-5.1,56.5c-7.2,17.9-4.1,30.8-4.1,30.8c9.2,25.7,5.1,43.1,5.1,43.1
		c-2.1-4.1-11.3-6.2-11.3-6.2c-17.5,5.1,9.2,39.6,9.2,39.6c5.1,11.9,6.2,19.9,6.2,19.9c0,15.4,13.4,15.4,13.4,15.4l3.1,26.7
		c0,17.5,11.3,25.7,11.3,25.7c0,61.6-22.6,63.7-22.6,63.7c-10.3,0-19.5,10.3-19.5,10.3c-32.9,30.8-136.6,69.8-136.6,69.8
		c-37.9,9.4-58.6,28.9-69.9,46.7h640.9C634.9,486.7,614.3,467.2,576.3,457.8z"/>
</g>
</svg>
