<?xml version="1.0" encoding="utf-8"?>
<!-- Generator: Adobe Illustrator 22.0.1, SVG Export Plug-In . SVG Version: 6.00 Build 0)  -->
<svg version="1.1" id="Layer_1" xmlns="http://www.w3.org/2000/svg" xmlns:xlink="http://www.w3.org/1999/xlink" x="0px" y="0px"
	 viewBox="0 0 555.5 217.2" style="enable-background:new 0 0 555.5 217.2;" xml:space="preserve">
<style type="text/css">
	.st0{fill:#FFFFFF;}
</style>
<g>
	<path d="M494.7,36.6c0.7,0.1,1.4,0,1.7,0.9c-0.4,0.1-0.8,0.1-1.4,0.2c0.3,0.8,0.6,1.5,0.9,2.3c0.9,2.3,1.8,4.7,2.7,7
		c1.4,4,2.8,8,4.2,12c1.2,3.3,2.4,6.7,3.6,10c1.3,3.5,2.9,6.8,4.9,10c0.5,0.8,0.8,1.8,1.2,2.7c0.8,1.6,1.6,3.2,2.3,4.8
		c0.7,1.6,1.4,3.2,2.1,4.9c0.8,2.1,1.7,4.1,2.4,6.2c1.1,3.4,2,6.9,3.1,10.3c1,3.2,2.2,6.5,3.3,9.7c0.2,0.6,0.3,1.3,0.6,1.9
		c0.9,2.1,1.8,4.2,2.7,6.3c0.6,1.4,0.9,2.9,1.4,4.3c0.7,2.2,1.4,4.3,2,6.5c0.8,2.6,1.4,5.3,2.2,7.9c0.7,2.3,1.5,4.7,2.3,7
		c0.6,1.8,1.1,3.5,1.7,5.3c0.4,1,0.9,2,1.2,3.1c0.6,2,1,4,1.6,6c0.4,1.6,1,3.2,1.4,4.9c0.6,2.6,1.1,5.2,1.8,7.8
		c0.4,1.6,0.3,3.2,0,4.8c-0.3,1.6-1,3.1-1.5,4.6c-0.2,0.5-0.3,1.1-0.5,1.6c0,0.1-0.1,0.3-0.1,0.4c-1.1,1.2-2.2,2.6-3.5,3.7
		c-1,0.8-2.1,1.6-3.7,1.6c-2.1,0.1-4.2,0.5-6.3,0.8c-1.3,0.2-2.6,0.2-3.9,0.4c-4.6,0.8-9.3,1-14,1c-4,0-8.1-0.3-12.1-0.5
		c-4.3-0.1-8.7-0.3-13-0.2c-3.8,0-7.6,0.2-11.4,0.4c-1.3,0.1-2.6,0.4-4,0.6c-0.4,0.1-0.8,0-1.2,0c-2.9,0.3-5.9,0.6-8.8,0.9
		c-0.4,0-0.8,0.4-1.2,0.7c-0.4,0.4-0.8,0.5-1.4,0.4c-1.2-0.2-2.4-0.1-3.7-0.1c-0.8,0-1.7,0-2.5,0c-3.1-0.1-6.3-0.2-9.4-0.2
		c-4.3-0.1-8.5-0.2-12.8-0.4c-1.9-0.1-3.8-0.1-5.7-0.2c-3.6-0.1-7.2-0.3-10.8-0.3c-4.2,0-8.4,0.2-12.5,0.2c-2.5,0-5-0.1-7.5-0.1
		c-3.4,0-6.9,0.2-10.3,0.1c-3,0-5.9-0.4-8.9-0.5c-2.2-0.1-4.4-0.1-6.5,0c-1.7,0-3.4,0.2-5.2,0.3c-2.4,0.2-4.8,0.4-7.2,0.5
		c-2.7,0.1-5.4,0-8.2,0c-0.7,0-1.5,0.2-2.2,0.2c-2.8,0-5.6,0-8.5,0c-1.4,0-2.8-0.1-4.2-0.2c-0.5,0-0.8,0.1-0.9,0.6
		c-0.1,0.2-0.3,0.5-0.5,0.5c-0.1,0-0.3-0.3-0.5-0.4c-0.4-0.2-0.7-0.5-1.1-0.5c-2.8-0.2-5.2-1.3-7.4-3c-1.8-1.4-3.8-2.6-5.9-3.5
		c-1.1-0.5-2.6-0.4-3.9-0.4c-2.7,0.1-5.4,0.3-8.1,0.4c-2.7,0.1-5.4,0.3-8.1,0.4c-2.3,0.1-4.6,0.1-6.9,0.1c-1.7,0-3.4-0.1-5.1-0.2
		c-2.1-0.1-4.3-0.1-6.4-0.2c-4.2-0.1-8.3-0.3-12.5-0.3c-5.6,0-11.1,0.1-16.7,0.2c-2.7,0-5.5,0.1-8.2,0.2c-0.6,0-1.3,0.4-1.9,0.8
		c-0.7,0.5-1.4,1-2,1.7c-2,2-4.6,2.8-7.1,3.9c-0.9,0.4-2.1,0.2-3.2,0.2c-3.5,0.2-7,0.4-10.5,0.5c-1.3,0-2.7-0.1-4-0.1
		c-2.3,0.1-4.5,0.2-6.8,0.3c-0.8,0-1.7-0.2-2.5-0.3c-1.9-0.1-3.7-0.3-5.6-0.3c-1.5-0.1-3.1,0-4.6-0.1c-4.3-0.2-8.5-0.4-12.8-0.6
		c-2.4-0.1-4.8-0.4-7.2-0.5c-2.2-0.1-4.4,0.1-6.6,0.1c-2,0-4.1-0.1-6.1-0.1c-2,0-4.1,0.1-6.1,0c-4.5,0-9,0-13.4-0.1
		c-3-0.1-5.9-0.6-8.9-0.7c-3.5-0.1-7-0.1-10.5-0.1c-2.6,0-5.3-0.1-7.9-0.1c-2.5,0-5,0.2-7.5,0.1c-4.2-0.2-8.5-0.5-12.7-0.7
		c-2.3-0.1-4.7,0-7,0.1c-3.4,0.1-6.7,0.3-10.1,0.3c-2,0-4-0.2-6-0.4c-1.4-0.1-2.7-0.3-4.1-0.4c-3.1-0.2-6.3-0.3-9.4-0.4
		c-1.8,0-3.6,0.2-5.5,0.3c-3.2,0.2-6.4,0.2-9.6-0.2c-3.1-0.4-6.1-0.6-9.2-0.9c-0.4,0-0.8-0.2-1.2-0.2c-1.3-0.1-2.6-0.1-3.9-0.3
		c-2.8-0.3-5.5-1.1-7.8-2.8c-1.6-1.2-3-2.6-4.3-4.1c-1.6-1.9-3-4-3.7-6.5c-0.4-1.6-0.4-3.3-0.5-5c-0.1-1.4,0.3-2.5,0.7-3.7
		c0.8-2.8,1.2-5.8,1.7-8.7c0.3-1.3,0.6-2.5,0.9-3.8c0.3-1,0.6-2.1,0.8-3.1c0.4-1.8,0.7-3.6,1-5.4c0.1-0.6,0.4-1.1,0.7-1.6
		c0.2-0.4,0.4-0.7,0.5-1.1c0.4-2,0.8-4,1.3-6c0.4-1.5,0.9-3,1.3-4.5c0.5-2,0.9-4,1.4-6c0.2-0.8,0.5-1.5,0.7-2.2
		c0.7-2.7,1.5-5.3,2.2-8c1.2-4.3,2.4-8.7,3.6-13c0.3-1.1,0.8-2.1,1.1-3.2c0.6-2,1.1-3.9,1.7-5.9c0.8-3,1.8-6,2.5-9.1
		c0.8-3.4,1.5-6.8,2.3-10.2c0.8-3.1,1.6-6.2,2.4-9.3c0.7-2.7,1.5-5.4,2.3-8.1c0.7-2.3,1.7-4.4,2.2-6.7c0.4-2.2,1.3-4.1,1.9-6.2
		c0.6-2.3,1.8-4.4,2.6-6.6c0.6-1.6,1.1-3.3,1.6-5c0.7-2.2,1.5-4.4,2.2-6.6c0.5-1.8,0.9-3.7,1.4-5.5c0.8-2.7,1.4-5.4,2.6-7.9
		c1.2-2.6,2.9-5.1,6.1-5.8c1.6-0.3,3.2-0.3,4.8-0.5c2-0.2,4-0.5,6-0.6c1.6-0.1,3.3-0.1,4.9-0.2c1.8-0.1,3.6-0.3,5.3-0.6
		c3.1-0.4,6.1-1,9.2-1.2c3.3-0.2,6.7,0.1,10,0.1c1.4,0,2.8-0.1,4.3-0.1c2.4,0,4.8,0.1,7.1,0.1c2.6,0.1,5.2,0,7.7,0.2
		c3,0.3,5.8-0.2,8.7-0.4c2.5-0.2,5-0.3,7.6-0.4c1.8-0.1,3.7-0.2,5.5-0.2c2.7,0,5.5,0.2,8.2,0.2c2.3,0,4.7-0.1,7-0.1
		c2.3,0,4.7,0.2,7,0.3c2.7,0,5.5,0,8.2-0.1c2.2-0.1,4.5-0.2,6.7-0.2c2.2,0,4.3,0.1,6.5,0.2c2.7,0,5.4,0,8.1,0.1
		c2.2,0,4.5,0.1,6.7,0.2c1,0,1.9-0.2,2.9-0.2c4.7-0.1,9.4-0.1,14.1-0.2c3.4-0.1,6.7-0.5,10.1-0.7c2.7-0.1,5.3,0,8-0.1
		c1.7,0,3.3-0.1,5-0.2c2.9-0.1,5.8-0.2,8.7-0.3c4-0.1,8.1-0.3,12.1-0.4c3.7-0.1,7.3-0.1,11-0.1c3.4-0.1,6.9-0.3,10.3-0.3
		c3.2,0,6.3,0.1,9.5,0.1c4.2,0,8.3-0.1,12.5-0.2c2.9,0,5.8,0,8.8,0c3.5-0.1,7-0.3,10.5-0.3c4,0,7.9,0.2,11.9,0.2
		c2.6,0,5.1-0.3,7.7-0.3c1.9,0,3.9,0,5.8,0.1c2.5,0.1,5.1,0.2,7.6,0.3c2.6,0.1,5.3,0.1,7.9,0.2c1.9,0,3.8-0.1,5.8-0.1
		c1.6,0,3.2,0.2,4.8,0.3c1.6,0.1,3.2,0,4.8,0.1c2.3,0,4.7,0.1,7,0c4-0.2,8-0.6,12-0.8c4.1-0.2,8.1-0.4,12.2-0.6c3-0.2,6-0.4,9.1-0.6
		c2.8-0.1,5.5-0.2,8.3-0.1c3.5,0,7,0.2,10.5,0.3c2.8,0.1,5.5,0.1,8.3,0.2c3.2,0.1,6.4,0.4,9.6,0.5c3.2,0.1,6.4,0.1,9.6,0.2
		c3,0.1,6,0.3,8.9,0.5c1,0.1,2.2-0.2,3.1,0.2c2.3,0.8,4.8,0.8,6.7,2.7c1.1,1.1,2,2.4,2.6,3.8c1.6,4,3.2,7.9,4.7,12
		c1.2,3.2,2.1,6.4,3.2,9.6C494.4,36.1,494.6,36.3,494.7,36.6z M293.9,191c1.1,0.1,2.3,0.2,3.4,0.2c0-0.1,0-0.2,0-0.2
		C296.1,191.1,295,191.1,293.9,191c-0.7,0-1.4-0.1-2.2-0.1c0,0.2,0,0.3,0,0.5C292.4,191.3,293.1,191.2,293.9,191z M478.3,195.2
		c-0.5-0.2-1-0.4-1.5-0.6c-0.1,0-0.3,0.3-0.4,0.4c0.2,0.1,0.4,0.3,0.5,0.3C477.4,195.3,477.9,195.2,478.3,195.2
		c0.8,0,1.6-0.1,2.4-0.1c0-0.1,0-0.2,0-0.3C479.9,194.7,479,194.2,478.3,195.2z M530.5,190.3c-1,0-1.9,0-2.9,0c0,0.2,0,0.4,0,0.5
		c1-0.1,1.9-0.1,2.9-0.2c0.8-0.1,1.5-0.2,2.3-0.4c0-0.1,0-0.2-0.1-0.4C532,190,531.3,190.2,530.5,190.3z M505.4,192.2
		c-0.3-0.1-0.7-0.3-1-0.3c-3.1,0-6.3,0-9.4,0c-0.2,0-0.4,0.1-0.6,0.1c0,0.1,0,0.2,0,0.3c1.8,0,3.6,0,5.5,0c1.1,0,2.3,0.1,3.4,0.1
		C504,192.4,504.7,192.3,505.4,192.2c0.6,0.5,1.2,0.3,1.8,0.1C506.6,192,506,191.5,505.4,192.2z M48.8,194.8c1.2,0,2.5,0,3.7,0
		c0-0.1,0-0.3,0-0.4c-1.2-0.1-2.3-0.4-3.5,0.2c-0.3-0.2-0.6-0.4-0.9-0.5c-1.1-0.2-2.2-0.5-3.3-0.6c-2.9-0.3-5.9-0.6-8.8-0.7
		c-2.1-0.1-4.3,0.4-6.4,0c-0.3-0.1-0.6-0.2-1-0.2c-1.3-0.2-2.6-0.3-3.9-0.6c-1.8-0.5-3.5-1.3-5.2-1.9c-0.3-0.1-0.7-0.1-1.1-0.2
		c0,0.1,0,0.2-0.1,0.4c1.3,0.7,2.5,1.5,3.8,1.9c2.3,0.6,4.7,1,7,1.4c1.4,0.2,2.8,0.2,4.1,0.3c2.7,0.3,5.4,0.8,8.2,1
		C43.9,194.9,46.3,194.8,48.8,194.8z M506,194.9c0.1,0.1,0.3,0.3,0.4,0.3c1.2,0.2,2.4,0.4,3.6,0.4c1.9,0,3.7-0.2,5.6-0.3
		c2.1-0.1,4.2-0.2,6.2-0.3c0.6,0,1.3,0,1.9-0.2c3.5-0.9,7.1-1.2,10.7-1.3c1.4,0,2.2-1.1,3.5-1.8c-0.4-0.1-0.5-0.2-0.6-0.2
		c-2.4,0.3-4.7,0.7-7.1,0.9c-3.6,0.3-7.3,0.3-10.9,0.6c-2.3,0.1-4.7,0.3-7,0.6c-2.2,0.3-4.4,0.7-6.5,1.1c-4-0.7-8.1-0.6-12.2-0.5
		c-4.1,0.1-8.2,0-12.3,0.7c1,0.2,2,0.2,3,0.2c2.9-0.1,5.9-0.3,8.8-0.2c3.3,0.1,6.6,0.4,9.8,0.6c0.7,0,1.5,0.1,2.2,0
		C505.5,195.4,505.7,195.1,506,194.9z M364,196.3c-1.6,0-3.1-0.1-4.7-0.1c-2.3,0-4.6,0.1-6.9,0.1c-1.7,0-3.5-0.4-5.2-0.3
		c-3.4,0-6.7,0.3-10.1,0.4c-1.5,0-3-0.1-4.4-0.2c-1.6,0-3.1,0-4.7,0c-0.9,0-1.8,0-2.8,0c0,0.1,0,0.2,0,0.3c1.2,0.3,2.4,0.8,3.6,0.9
		c1.8,0.1,3.6,0,5.4,0c1,0,1.9,0.2,2.9,0.2c1.4,0,2.7,0,4.1,0c2.9-0.1,5.8-0.2,8.8-0.3c1.5,0,3,0.2,4.5,0.1c2.9-0.1,5.8-0.4,8.7-0.6
		C363.5,196.8,363.8,196.5,364,196.3c0.1,0.2,0.2,0.5,0.3,0.5c1.3,0,2.7-0.1,4-0.1c1.8,0,3.6-0.1,5.4-0.1c2.6,0.1,5.2,0.4,7.8,0.4
		c3,0,6.1-0.1,9.1-0.1c3.2,0,6.4,0,9.5,0c3.2,0,6.4-0.1,9.6-0.1c2.6,0,5.2,0.1,7.8,0.1c2.8,0.1,5.6,0.1,8.4,0.2c2,0.1,4,0.3,6,0.4
		c1.9,0,3.8-0.1,5.6-0.1c2.7,0,5.3,0.2,8,0.3c2.7,0.1,5.4,0.2,8.2,0.2c1.2,0,2.4,0,3.5-0.2c1.8-0.4,3.5-0.9,5.3-0.9
		c0.3,0,0.7-0.2,1-0.4c0-0.1-0.1-0.2-0.1-0.3c-0.9,0.1-1.8,0.3-2.8,0.3c-1.3,0-2.7-0.1-4-0.1c-2.4,0-4.9,0.2-7.3,0.1
		c-3.6-0.2-7.1-0.7-10.6-1c-1.6-0.1-3.3-0.2-5-0.2c-2.4,0.1-4.7,0.3-7.1,0.4c-2.8,0.1-5.5,0.2-8.3,0.2c-0.7,0-1.3-0.1-2-0.1
		c-1.5,0.1-3,0.3-4.5,0.3c-1.9,0-3.8-0.1-5.6-0.1c-3,0-6,0.1-8.9,0.1c-3.6,0-7.2-0.1-10.8-0.2c-1.7,0-3.4-0.2-5-0.2
		c-1.8,0-3.6-0.1-5.4-0.1c-2.3,0.1-4.6,0.2-6.8,0.4C367.5,196,365.8,196.2,364,196.3z M80.1,194.8c0.5,0.8,1.4,0.5,2.1,0.5
		c4.6,0.3,9.2-0.4,13.9,0.2c2,0.3,4.1,0.1,6.1,0.2c2.5,0.1,4.9,0.3,7.4,0.3c5.2,0,10.3-0.2,15.5,0.1c2.6,0.2,5.2,0.1,7.8,0.2
		c2.1,0.1,4.2,0.3,6.3,0.4c1.2,0.1,2.4,0.2,3.6,0.2c1,0,2.1-0.1,3.1,0c2.3,0,4.5,0.1,6.8,0.1c1,0,2,0.1,3,0c1.9-0.1,3.8-0.2,5.8-0.2
		c2.8,0,5.5,0.1,8.3,0.2c0.7,0,1.4,0.1,2.1,0.1c2.2,0,4.4,0,6.6,0.2c4.1,0.2,8.1,0.6,12.2,0.9c2.1,0.1,4.2,0.1,6.3,0.2
		c2.5,0.1,4.9,0.3,7.4,0.3c3.6,0,7.3-0.2,10.9-0.3c1.9-0.1,3.9-0.2,5.8-0.4c1.7-0.1,3.4-0.4,5-0.4c1.7,0.1,3.2-0.4,4.7-1.2
		c-2,0-4,0-5.9,0c-1.3,0-2.5,0.1-3.8,0.1c-2.5,0-4.9-0.1-7.4-0.1c-1.9,0-3.9,0-5.8-0.1c-1.9-0.1-3.8-0.2-5.7-0.3
		c-1.9-0.1-3.9,0-5.8-0.1c-1.5,0-3-0.1-4.5-0.1c-2,0-4.1,0-6.1,0c-2.7,0.1-5.4,0.1-8.2,0.2c-1.3,0.1-2.7,0.4-4,0.4
		c-1.5,0-3.1-0.2-4.6-0.4c-2.5-0.2-5-0.3-7.5-0.6c-2-0.2-4-0.4-6-0.6c-1-0.1-2,0-3-0.1c-3.6-0.3-7.2-0.9-10.8-0.7
		c-4.8,0.3-9.7,0.5-14.5,0.9c-3.4,0.3-6.8,0-10.1-0.4c-1.7-0.2-3.4-0.1-5.1-0.2c-1.1,0-2.2-0.2-3.3-0.2c-1,0-2.1,0.1-3.1,0.1
		c-2.4-0.1-4.7-0.3-7.1-0.3c-3.7,0-7.3,0.3-11,0.4c-1.5,0.1-3,0.1-4.5,0.1C82,194.7,81.1,194.7,80.1,194.8c-0.6-0.1-1.1-0.3-1.7-0.4
		c-1.6-0.1-3.2-0.2-4.7-0.3c-2.6-0.1-5.2-0.2-7.8-0.2c-0.5,0-1,0-1.4,0.1c-1.5,0.1-2.9,0.2-4.4,0.4c0.2,0.3,0.4,0.4,0.5,0.4
		c0.9,0,1.8,0,2.7,0.1c2.2,0.2,4.4,0.5,6.5,0.8c0.6,0.1,1.2,0.2,1.8,0.1c2.5-0.1,4.9-0.2,7.4-0.4C79.5,195.2,79.8,194.9,80.1,194.8z
		 M526.7,188.1c0,0.1,0,0.2,0,0.3c3.6-0.2,7.2-0.4,10.7-1.3c1.8-0.5,3.1-1.4,4.4-2.7c0.7-0.7,1.2-1.5,1.1-2.4
		c-0.2-1.9-0.3-3.8-0.7-5.7c-0.4-2.1-1-4.2-1.5-6.2c-0.8-3-1.5-6.1-2.4-9.1c-0.8-2.7-1.7-5.3-2.6-7.9c-1-3-2-6-3-9
		c-1.4-4.6-2.7-9.3-4.2-14c-0.7-2.1-1.5-4.1-2.3-6.2c-0.9-2.4-1.9-4.8-2.7-7.2c-0.7-1.9-1.2-3.9-1.9-5.8c-0.9-2.6-1.8-5.2-2.7-7.7
		c-1.1-3.4-2.2-6.7-3.4-10.1c-0.8-2.2-1.9-4.2-2.8-6.3c-0.8-1.9-1.6-3.8-2.4-5.7c-0.9-1.9-2.3-3.4-3-5.4c-1.1-3.2-2.5-6.4-3.8-9.6
		c-0.9-2.3-1.7-4.6-2.5-6.8c-0.5-1.5-1.2-2.9-1.6-4.4c-1.3-4.5-2.8-8.9-4.7-13.2c-0.6-1.2-0.9-2.5-1.3-3.8c-0.5-1.5-1.1-3.1-1.6-4.6
		c-0.7-2.1-1.4-4.2-2.1-6.3c-0.3-1-0.6-2-1-3c-0.3-0.7-0.9-1.4-1.3-2.1c-0.2-0.3-0.1-0.8-0.3-1.1c-0.7-1.7-1.3-3.3-2-5
		c-0.8-1.9-1.6-3.7-3.5-4.6c-1-0.5-2.1-1.1-3.1-1.2c-3.2-0.2-6.4-0.5-9.6,0.3c-0.5,0.1-1-0.1-1.5-0.3c-0.5-0.1-0.9-0.5-1.3-0.6
		c-0.8-0.1-1.7-0.1-2.5-0.1c-2.3-0.1-4.6,0-6.9-0.2c-3.4-0.2-6.7-0.5-10.1-0.7c-2.3-0.1-4.7-0.1-7,0c-3.4,0.1-6.8,0.2-10.2,0.2
		c-2.3,0-4.6,0-6.8,0c-1.7,0-3.4-0.1-5.2,0c-2,0.1-4,0.4-5.9,0.4c-2.4,0.1-4.8,0-7.2-0.1c-0.6,0-1.2-0.2-1.7-0.2
		c-1.6,0-3.3,0-4.9,0.1c-3.1,0.3-6.1,0.6-9.1,0.9c-1.2,0.1-2.5,0.2-3.7,0.1c-1.7,0-3.3-0.2-5-0.2c-2.3,0-4.7,0.1-7,0
		c-4.1-0.1-8.2-0.4-12.3-0.4c-3.9-0.1-7.8,0.1-11.7,0.1c-3.1,0-6.1-0.1-9.2-0.1c-3.9,0-7.9,0-11.8,0c-3.1,0-6.3-0.1-9.4-0.1
		c-4.3,0-8.7,0-13,0.1c-3,0.1-6.1,0.3-9.1,0.4c-3,0-5.9-0.1-8.9-0.1c-2.2,0-4.4-0.2-6.5-0.1c-2.4,0-4.8,0.1-7.2,0.2
		c-3,0.1-5.9,0.2-8.9,0.3c-4.4,0.2-8.7,0.4-13.1,0.5c-2.9,0.1-5.8-0.1-8.7-0.1c-3.1,0.1-6.2,0.3-9.3,0.5c-1.8,0.1-3.6,0.2-5.4,0.3
		c-1.8,0.1-3.6,0.3-5.4,0.5c-1.8,0.1-3.6,0.1-5.4,0.3c-4,0.4-8,0.3-12,0.2c-3.7,0-7.4-0.5-11.2-0.1c-1.1,0.1-2.2-0.1-3.3,0.1
		c-3.3,0.6-6.6,0.9-10,0.6c-2.9-0.2-5.8-0.3-8.7-0.4c-3.3-0.2-6.6-0.4-9.9-0.5c-3.1-0.1-6.2-0.2-9.3-0.2c-3.1,0-6.2,0-9.3,0.1
		c-2.6,0.1-5.1,0.2-7.7,0.3c-2.1,0.1-4.2,0.3-6.2,0.4c-2.1,0.1-4.2,0.3-6.3,0.3c-2.9-0.1-5.8-0.5-8.8-0.4c-4.4,0.1-8.7,0.5-13.1,0.6
		c-3.3,0.1-6.7,0.1-10,0.3c-2.8,0.1-5.7,0.2-8.5,0.4c-3.2,0.2-6.5,0.6-9.7,0.9c-2.7,0.2-5.3,0.2-8,0.4c-1.8,0.1-3.6,0.1-5.4,0.4
		c-0.9,0.1-1.8,0.7-2.5,1.2c-2.2,1.8-3.1,4.5-4,7.1c-0.1,0.4-0.2,0.9-0.4,1.3c-0.2,0.5-0.7,1-0.8,1.5c-0.8,2.6-1.5,5.2-2.3,7.8
		c-1.1,3.6-2.2,7.2-3.4,10.8c-1,2.9-2.3,5.7-3.3,8.6c-0.9,2.5-1.6,5.2-2.4,7.7c-0.8,2.5-1.5,5-2.3,7.6c-0.7,2.5-1.5,4.9-2.2,7.4
		C35.1,81,34,86,32.7,90.9c-0.9,3.6-1.9,7.2-2.9,10.8c-1.7,5.9-3.4,11.8-5.1,17.7c-1.6,5.5-3.2,11-4.6,16.5
		c-1.2,4.3-2.2,8.7-3.3,13.1c-1,4-2,8.1-2.9,12.1c-0.8,3.7-1.5,7.5-2.3,11.2c-0.1,0.5-0.2,1.4,0.1,1.7c0.7,0.6,0.4,1,0.1,1.7
		c-0.4,0.8-1.2,1.6-0.3,2.6c0.6,0.6,1.2,1.2,1,2.2c0,0.1,0,0.1,0.1,0.2c1.1,1.3,2.2,2.7,3.8,3.5c1.5,0.8,3,1.3,4.7,1.4
		c1.9,0.2,3.8,0.9,5.7,1.3c1.8,0.4,3.7,0.6,5.5,0.9c3.7,0.7,7.5,1.5,11.3,1.2c1.5-0.1,3-0.4,4.5-0.6c1.2-0.2,2.3-0.5,3.5-0.2
		c1.2,0.3,2.5,0.3,3.8,0.2c1.7-0.1,3.4-0.5,5-0.6c1.7-0.1,3.4,0.1,5,0.1c1.1,0,2.1-0.1,3.2-0.1c1.9,0,3.8,0.1,5.8,0.1
		c0.9,0,1.8,0,2.7,0c1.3,0.1,2.6,0.4,3.9,0.5c3.3,0.2,6.7,0.3,10,0.4c3.3,0.1,6.6,0.2,9.8,0.2c2.5,0,5-0.1,7.4-0.1
		c2.1,0,4.2,0.1,6.3,0c2,0,4-0.2,6-0.2c3.3,0,6.7,0.1,10,0.2c2.3,0,4.6-0.1,6.9-0.1c4,0.1,8,0.2,12,0.3c4.4,0.1,8.8,0.2,13.2,0.4
		c2.9,0.1,5.9,0.4,8.8,0.5c4.5,0.3,9.1,0.6,13.6,0.8c4.5,0.2,9,0.2,13.5,0.3c3.1,0.1,6.2,0.1,9.2,0.1c2.7,0,5.5-0.1,8.2,0
		c3.5,0,7,0.1,10.4,0.1c3.3,0,6.6,0,9.9-0.1c1,0,2.1-0.4,2.8-1c1.1-0.9,2.3-1.4,3.6-1.5c1.5-0.1,3.1,0,4.7-0.1c1.6,0,3.3-0.1,4.9,0
		c1.9,0.2,3.7,0.5,5.6,0.4c2-0.2,4.1,0,6.1,0c2.9,0,5.8,0,8.6,0c0.5,0,1.1,0,1.6,0c2,0.1,4,0.2,5.9,0.2c1.3,0,2.6-0.1,3.9-0.1
		c1.6,0,3.1,0.1,4.7,0.1c1.7,0,3.5-0.2,5.2-0.1c3.3,0.2,6.6,0.5,9.9,0.7c3.4,0.2,6.7,0.3,10.1,0.3c2.8,0,5.5-0.1,8.3-0.2
		c2.1-0.1,4.2-0.2,6.2-0.3c1.5,0,2.9,0,4.4-0.1c4-0.1,8-0.3,12.1-0.4c2.2,0,4.5-0.1,6.7,0c2.6,0.1,5.3,0.3,7.9,0.5
		c2.4,0.2,4.9,0.5,7.3,0.5c3.2,0,6.4-0.2,9.6-0.2c3.1,0,6.3,0.1,9.4,0.2c2.7,0.1,5.5,0.1,8.2,0.2c2.1,0.1,4.1,0.1,6.2,0.2
		c1.7,0,3.4,0.1,5.1,0.1c2.2,0,4.5-0.1,6.7-0.2c1.3,0,2.6,0,3.9-0.1c2.1-0.2,4.3-0.5,6.4-0.6c3-0.1,6,0.1,9.1,0.2
		c3.8,0.1,7.6,0.1,11.4,0.2c4.4,0.1,8.7,0.2,13.1,0.2c2.2,0,4.5-0.1,6.7,0c1,0,2.1,0.3,3.1,0.3c2.1,0,4.1-0.1,6.2,0
		c1.9,0,3.7,0.2,5.6,0.2c1.4,0,2.7-0.1,4.1-0.2c2.2-0.1,4.4-0.1,6.6-0.2c2.5-0.2,4.9-0.6,7.4-0.6c3.7-0.1,7.3,0.1,11,0.2
		c1.9,0,3.9,0.3,5.8,0.1c1.8-0.2,3.5-0.9,5.3-1.1C520.8,188.6,523.8,188.4,526.7,188.1z M235.4,193.2c0-0.1-0.1-0.1-0.1-0.2
		c-1.4,0-2.8,0-4.2,0c-4,0-8,0-12,0c-2.4,0-4.7-0.2-7.1-0.2c-2.9,0-5.9,0.1-8.8,0.1c-2,0-4-0.1-6-0.1c-2.7,0-5.4,0-8-0.1
		c-2.9,0-5.8-0.1-8.8-0.2c-1.8-0.1-3.6-0.3-5.3-0.4c-5-0.3-10.1-0.6-15.1-0.9c-1.3-0.1-2.7-0.1-4-0.1c-1.9-0.1-3.9-0.2-5.8-0.3
		c-3.2-0.1-6.4-0.1-9.7-0.2c-1,0-2.1-0.2-3.1-0.2c-2.8,0-5.5,0.1-8.3,0.2c-1.7,0-3.4,0.1-5.2,0c-2.3,0-4.5-0.2-6.8-0.2
		c-3.8,0.1-7.6,0.3-11.3,0.3c-4.2,0-8.3-0.1-12.5-0.2c-4.9-0.2-9.7-0.5-14.5-0.8c-0.9,0-1.8-0.2-2.6-0.2c-1.7,0-3.4-0.1-5.1,0
		c-1.6,0-3.3,0.1-4.9,0.1c-1.4,0-2.9-0.1-4.3-0.1c-1.2,0-2.3,0.1-3.5,0.2c-1.9,0.1-3.9,0.7-5.8,0.4c-2.3-0.4-4.4-0.1-6.5,0.2
		c-1.9,0.3-3.8,1-5.9,0.3c-0.6-0.2-1.4,0-2.1,0.1c0.1,0.2,0.2,0.3,0.3,0.3c1.6,0.1,3.2,0.3,4.8,0.4c2.6,0.3,5.3,0.7,7.9,0.9
		c2.3,0.2,4.7,0.2,7.1,0.2c2.5-0.1,5-0.4,7.5-0.5c1.8-0.1,3.5-0.1,5.3-0.1c3.1,0.1,6.3,0.5,9.4,0.6c3.8,0.1,7.6-0.1,11.4-0.2
		c1.4,0,2.9,0,4.3-0.1c1.5-0.1,3-0.3,4.6-0.3c2.1,0,4.2,0.2,6.3,0.3c1.8,0.1,3.5,0.1,5.3,0.1c1.5,0,3.1,0,4.6,0.1
		c1.2,0.1,2.4,0.5,3.6,0.5c4-0.1,8.1-0.2,12.1-0.4c3.4-0.2,6.9-0.7,10.3-0.6c4.3,0.1,8.5,0.6,12.8,0.9c3.3,0.2,6.6,0.4,9.8,0.7
		c2.3,0.2,4.6,0.5,6.9,0.5c3.2,0,6.4-0.4,9.5-0.5c1.9-0.1,3.8,0.1,5.7,0.2c5.1,0.1,10.2,0.1,15.3,0.1c1.7,0,3.4-0.1,5.1,0
		c1.7,0,3.3,0.3,5,0.3c1.4,0.1,2.8,0,4.2,0c2.8,0,5.6,0,8.3-0.1c2.1,0,4.2-0.2,6.2,0c1.4,0.1,2.6,0.3,3.4-1
		C235.2,193.3,235.3,193.3,235.4,193.2z M469.3,193.1c0-0.1,0-0.2,0-0.3c-0.1-0.1-0.3-0.2-0.4-0.2c-1.3-0.1-2.5-0.2-3.8-0.3
		c-2.5-0.1-5-0.2-7.5-0.2c-1.7-0.1-3.4-0.1-5.1-0.1c-2,0-4,0.2-5.9,0.2c-4.7,0-9.5-0.1-14.2-0.2c-5.5-0.2-11.1-0.2-16.6,0.3
		c-1.6,0.1-3.3,0.2-5,0.3c-1.6,0.1-3.1,0.2-4.7,0.2c-3.2,0-6.4-0.2-9.5-0.3c-4.6-0.1-9.3-0.1-13.9-0.1c-2.8,0-5.6-0.2-8.5-0.2
		c-2.1,0-4.1,0.1-6.2,0.1c-1.5,0-3,0.1-4.5-0.1c-2.6-0.2-5.3-0.6-7.9-0.8c-3.3-0.2-6.6-0.2-10-0.2c-2.9,0-5.8,0-8.7,0
		c-2,0-4,0.3-6,0.4c-3.7,0.2-7.5,0.3-11.2,0.4c-0.3,0-0.6,0.1-1.1,0.2c0.4,0.3,0.7,0.5,0.8,0.6c1.5,1.3,3.3,2.1,5.4,2
		c2-0.1,4-0.1,6-0.1c3.9,0,7.9,0.1,11.8,0.1c3.6,0,7.3-0.1,10.9-0.1c0.8,0,1.6,0.3,2.3,0.3c2.4-0.1,4.8-0.4,7.1-0.6
		c1.3-0.1,2.5-0.1,3.8-0.1c1.6,0,3.1,0,4.7,0c2.8-0.1,5.5-0.4,8.3-0.3c5.3,0,10.6,0.3,15.9,0.3c3.7,0,7.3-0.1,11-0.1
		c2.5,0,4.9,0.1,7.4,0.1c2.5,0,5-0.2,7.5-0.3c4.4-0.1,8.9-0.2,13.3-0.2c3,0,6,0,8.9,0.5c3.2,0.5,6.3,0.5,9.4,0.6
		c3.9,0.1,7.7-0.2,11.6-0.8C466.5,193.6,467.9,193.3,469.3,193.1z M37.6,190.9c0-0.1,0-0.2,0-0.3c-6.4-1.2-12.9-2.5-19.3-3.7
		c0,0.1-0.1,0.2-0.1,0.4c1.8,1.4,3.9,2,6.1,2.5c0.4,0.1,0.9,0.2,1.3,0.4c1,0.3,2,0.9,3.1,1c2.2,0.1,4.4,0,6.6,0
		C36,191.1,36.8,191,37.6,190.9z M255.8,191c0-0.1,0-0.2,0-0.3c-0.1,0-0.3-0.1-0.4-0.1c-3-0.3-6-0.6-9-0.7c-1.2-0.1-2.5,0-3.7,0.2
		c-0.8,0.1-1.6,0.5-2.4,0.8c0,0.1,0,0.1,0.1,0.2C245.6,191,250.7,191,255.8,191z M475.8,195.2c0-0.1,0-0.2,0-0.3
		c-1.6-0.7-9.8,0.3-11,1.5C468.6,195.9,472.2,195.6,475.8,195.2z M526.9,190.9c-0.7-0.8-3.6-0.7-4.8,0.2
		C523.8,191.3,525.3,190.9,526.9,190.9z M290.7,191.2c0-0.1,0-0.2,0-0.3c-2.5,0-5,0-7.6,0c0,0.1,0,0.2,0,0.3
		C285.7,191.2,288.2,191.2,290.7,191.2z M540.4,188.5c0-0.1-0.1-0.2-0.1-0.3c-0.9,0.3-1.8,0.6-2.7,1c0,0.1,0.1,0.2,0.1,0.2
		C538.7,189.4,539.7,189.3,540.4,188.5z M266.8,190.9c0-0.1,0-0.2,0-0.4c-0.9,0-1.9,0.1-2.8,0.1c0,0.1,0,0.2,0,0.2
		C264.9,190.9,265.8,190.9,266.8,190.9z M493.8,192.3c0-0.1,0-0.2,0-0.4c-0.9,0.1-1.8,0.2-2.7,0.3c0,0.1,0,0.2,0,0.3
		C492.1,192.4,492.9,192.3,493.8,192.3z M275.4,191c0-0.1,0-0.1,0-0.2c-0.9,0-1.8,0-2.8,0c0,0.1,0,0.1,0,0.2
		C273.5,191,274.4,191,275.4,191z M269.6,190.9c0-0.1,0-0.1,0-0.2c-0.7,0-1.4,0-2.2,0c0,0.1,0,0.1,0,0.2
		C268.1,190.9,268.9,190.9,269.6,190.9z"/>
	<path d="M511.7,211.1c-0.7,0.2-1,0.1-1.2-0.6c-0.2-0.8-0.6-1.5-0.9-2.3c0.1-0.1,0.2-0.1,0.3-0.2C510.4,209,511,210,511.7,211.1z"/>
	<path d="M507.6,204c-0.1-0.4-0.2-0.9-0.3-1.5C508.2,202.9,508.4,203.3,507.6,204z"/>
	<path class="st0" d="M526.7,188.1c-2.9,0.3-5.8,0.5-8.7,1c-1.8,0.3-3.5,1-5.3,1.1c-1.9,0.2-3.9,0-5.8-0.1c-3.7-0.1-7.4-0.2-11-0.2
		c-2.5,0-4.9,0.5-7.4,0.6c-2.2,0.1-4.4,0.1-6.6,0.2c-1.4,0.1-2.7,0.2-4.1,0.2c-1.9,0-3.7-0.1-5.6-0.2c-2.1,0-4.1,0.1-6.2,0
		c-1,0-2.1-0.3-3.1-0.3c-2.2,0-4.5,0-6.7,0c-4.4-0.1-8.7-0.2-13.1-0.2c-3.8-0.1-7.6-0.1-11.4-0.2c-3-0.1-6.1-0.2-9.1-0.2
		c-2.1,0-4.3,0.4-6.4,0.6c-1.3,0.1-2.6,0.1-3.9,0.1c-2.2,0.1-4.5,0.2-6.7,0.2c-1.7,0-3.4,0-5.1-0.1c-2.1-0.1-4.1-0.1-6.2-0.2
		c-2.7-0.1-5.5-0.1-8.2-0.2c-3.1-0.1-6.3-0.2-9.4-0.2c-3.2,0-6.4,0.3-9.6,0.2c-2.4,0-4.9-0.3-7.3-0.5c-2.6-0.2-5.3-0.4-7.9-0.5
		c-2.2-0.1-4.5-0.1-6.7,0c-4,0.1-8,0.2-12.1,0.4c-1.5,0-2.9,0-4.4,0.1c-2.1,0.1-4.2,0.2-6.2,0.3c-2.8,0.1-5.5,0.2-8.3,0.2
		c-3.4,0-6.7-0.1-10.1-0.3c-3.3-0.2-6.6-0.5-9.9-0.7c-1.7-0.1-3.5,0.1-5.2,0.1c-1.6,0-3.1-0.1-4.7-0.1c-1.3,0-2.6,0.1-3.9,0.1
		c-2,0-4-0.1-5.9-0.2c-0.5,0-1.1,0-1.6,0c-2.9,0-5.8,0-8.6,0c-2,0-4.1-0.2-6.1,0c-1.9,0.2-3.7-0.2-5.6-0.4c-1.6-0.2-3.2,0-4.9,0
		c-1.6,0-3.1-0.1-4.7,0.1c-1.3,0.1-2.5,0.6-3.6,1.5c-0.7,0.6-1.9,1-2.8,1c-3.3,0.1-6.6,0.1-9.9,0.1c-3.5,0-7-0.1-10.4-0.1
		c-2.7,0-5.5,0.1-8.2,0c-3.1,0-6.2-0.1-9.2-0.1c-4.5-0.1-9-0.1-13.5-0.3c-4.5-0.2-9.1-0.5-13.6-0.8c-2.9-0.2-5.9-0.4-8.8-0.5
		c-4.4-0.2-8.8-0.3-13.2-0.4c-4-0.1-8-0.2-12-0.3c-2.3,0-4.6,0.1-6.9,0.1c-3.3,0-6.7-0.2-10-0.2c-2,0-4,0.2-6,0.2
		c-2.1,0-4.2,0-6.3,0c-2.5,0-5,0.2-7.4,0.1c-3.3,0-6.6-0.1-9.8-0.2c-3.3-0.1-6.7-0.2-10-0.4c-1.3-0.1-2.6-0.4-3.9-0.5
		c-0.9-0.1-1.8,0-2.7,0c-1.9,0-3.8-0.1-5.8-0.1c-1.1,0-2.1,0.1-3.2,0.1c-1.7,0-3.4-0.2-5-0.1c-1.7,0.1-3.4,0.5-5,0.6
		c-1.2,0.1-2.5,0-3.8-0.2c-1.2-0.3-2.3,0-3.5,0.2c-1.5,0.2-3,0.5-4.5,0.6c-3.8,0.2-7.5-0.5-11.3-1.2c-1.8-0.3-3.7-0.5-5.5-0.9
		c-1.9-0.4-3.8-1.1-5.7-1.3c-1.7-0.2-3.2-0.7-4.7-1.4c-1.6-0.9-2.7-2.2-3.8-3.5c0,0-0.1-0.1-0.1-0.2c0.2-1-0.4-1.5-1-2.2
		c-0.9-0.9-0.1-1.8,0.3-2.6c0.3-0.7,0.6-1-0.1-1.7c-0.3-0.3-0.2-1.1-0.1-1.7c0.7-3.7,1.4-7.5,2.3-11.2c0.9-4.1,1.9-8.1,2.9-12.1
		c1.1-4.4,2.1-8.7,3.3-13.1c1.5-5.5,3.1-11,4.6-16.5c1.7-5.9,3.4-11.8,5.1-17.7c1-3.6,2-7.2,2.9-10.8C34,86,35.1,81,36.3,76.1
		c0.6-2.5,1.4-4.9,2.2-7.4c0.7-2.5,1.5-5,2.3-7.6c0.8-2.6,1.5-5.2,2.4-7.7c1-2.9,2.3-5.7,3.3-8.6c1.2-3.6,2.3-7.2,3.4-10.8
		c0.8-2.6,1.5-5.2,2.3-7.8c0.2-0.5,0.6-1,0.8-1.5c0.2-0.4,0.2-0.9,0.4-1.3c0.9-2.6,1.7-5.3,4-7.1c0.7-0.6,1.6-1.1,2.5-1.2
		c1.8-0.3,3.6-0.3,5.4-0.4c2.7-0.1,5.3-0.2,8-0.4c3.2-0.2,6.5-0.6,9.7-0.9c2.8-0.2,5.7-0.3,8.5-0.4c3.3-0.1,6.7-0.1,10-0.3
		c4.4-0.2,8.7-0.6,13.1-0.6c2.9-0.1,5.8,0.4,8.8,0.4c2.1,0,4.2-0.2,6.3-0.3c2.1-0.1,4.1-0.3,6.2-0.4c2.6-0.1,5.1-0.2,7.7-0.3
		c3.1-0.1,6.2-0.1,9.3-0.1c3.1,0,6.2,0.1,9.3,0.2c3.3,0.1,6.6,0.3,9.9,0.5c2.9,0.1,5.8,0.2,8.7,0.4c3.4,0.2,6.7-0.1,10-0.6
		c1.1-0.2,2.2,0,3.3-0.1c3.7-0.4,7.4,0,11.2,0.1c4,0,8,0.2,12-0.2c1.8-0.2,3.6-0.1,5.4-0.3c1.8-0.1,3.6-0.3,5.4-0.5
		c1.8-0.1,3.6-0.2,5.4-0.3c3.1-0.2,6.2-0.4,9.3-0.5c2.9-0.1,5.8,0.1,8.7,0.1c4.4-0.1,8.7-0.4,13.1-0.5c3-0.1,5.9-0.2,8.9-0.3
		c2.4-0.1,4.8-0.2,7.2-0.2c2.2,0,4.4,0.1,6.5,0.1c3,0.1,5.9,0.2,8.9,0.1c3,0,6.1-0.3,9.1-0.4c4.3-0.1,8.7-0.1,13-0.1
		c3.1,0,6.3,0.1,9.4,0.1c3.9,0,7.9,0,11.8,0c3.1,0,6.1,0.1,9.2,0.1c3.9,0,7.8-0.1,11.7-0.1c4.1,0.1,8.2,0.3,12.3,0.4
		c2.3,0.1,4.7-0.1,7,0c1.7,0,3.3,0.2,5,0.2c1.2,0,2.5,0,3.7-0.1c3-0.3,6.1-0.6,9.1-0.9c1.6-0.1,3.3-0.1,4.9-0.1
		c0.6,0,1.2,0.1,1.7,0.2c2.4,0.1,4.8,0.1,7.2,0.1c2,0,3.9-0.3,5.9-0.4c1.7-0.1,3.4,0,5.2,0c2.3,0,4.6,0,6.8,0
		c3.4-0.1,6.8-0.2,10.2-0.2c2.3,0,4.7-0.1,7,0c3.4,0.2,6.7,0.5,10.1,0.7c2.3,0.1,4.6,0.1,6.9,0.2c0.8,0,1.7,0,2.5,0.1
		c0.5,0.1,0.9,0.4,1.3,0.6c0.5,0.2,1.1,0.4,1.5,0.3c3.2-0.8,6.4-0.5,9.6-0.3c1.1,0.1,2.1,0.7,3.1,1.2c1.9,0.9,2.8,2.7,3.5,4.6
		c0.7,1.7,1.4,3.3,2,5c0.1,0.4,0.1,0.8,0.3,1.1c0.4,0.7,1,1.4,1.3,2.1c0.4,1,0.7,2,1,3c0.7,2.1,1.4,4.2,2.1,6.3
		c0.5,1.5,1.1,3.1,1.6,4.6c0.4,1.3,0.8,2.6,1.3,3.8c2,4.3,3.4,8.7,4.7,13.2c0.4,1.5,1.1,2.9,1.6,4.4c0.8,2.3,1.7,4.6,2.5,6.8
		c1.2,3.2,2.7,6.3,3.8,9.6c0.7,2,2.1,3.5,3,5.4c0.9,1.9,1.6,3.8,2.4,5.7c0.9,2.1,2,4.2,2.8,6.3c1.2,3.3,2.3,6.7,3.4,10.1
		c0.9,2.6,1.8,5.2,2.7,7.7c0.7,1.9,1.2,3.9,1.9,5.8c0.9,2.4,1.8,4.8,2.7,7.2c0.8,2.1,1.7,4.1,2.3,6.2c1.4,4.6,2.7,9.3,4.2,14
		c0.9,3,2,6,3,9c0.9,2.6,1.8,5.2,2.6,7.9c0.9,3,1.6,6.1,2.4,9.1c0.5,2.1,1.1,4.1,1.5,6.2c0.4,1.9,0.5,3.8,0.7,5.7
		c0.1,0.9-0.4,1.7-1.1,2.4c-1.3,1.3-2.6,2.3-4.4,2.7c-3.5,0.9-7.1,1.1-10.7,1.3C526.7,188.2,526.7,188.2,526.7,188.1z M327.9,83.8
		c-0.1-0.8-0.1-1.7-0.2-2.5c-0.2-1.3-0.7-2.4-1.6-3.4c-1.5-1.6-2.8-3.3-4.4-4.6c-1.9-1.5-4.2-2.8-6.3-4c-2.7-1.4-5.4-2.9-8.2-4
		c-2.9-1.1-6-1.9-9.1-2.3c-3.2-0.4-6.4-0.2-9.6-0.3c-2.4,0-4.9,0.1-7.3-0.1c-4-0.4-8-0.3-12,0.1c-3.9,0.4-7.8,0.6-11.7,1
		c-1.8,0.2-3.7,0.3-5.5,0.6c-1.9,0.3-3.8,0.7-5.6,1.6c-2.2,1.2-4.5,2.2-6.8,3.2c-1.7,0.8-3.2,1.9-4.3,3.4c-1.2,1.8-1.8,3.8-2.4,5.8
		c-0.8,2.7-0.7,5.4,0.4,7.9c1.2,2.9,2.2,6,4.7,8.2c1.8,1.6,3.5,3.2,5.5,4.4c2.7,1.6,5.7,2.7,8.7,4c2.6,1.1,5.2,2,8,2.3
		c1.5,0.2,3,0.2,4.4,0.7c3.3,1.1,6.6,1.3,10,1.4c4.2,0,8.5-0.2,12.7-0.4c2.3-0.1,4.6-0.2,7-0.5c3.1-0.3,6.2-0.8,9.3-1.2
		c0.3,0,0.5-0.2,0.8-0.3c0.3-0.2,0.6-0.4,1-0.5c3.4-0.8,6.7-1.6,9.7-3.6c1.8-1.2,3.6-2.2,5.1-3.8c1-1,2.4-1.7,3.4-2.7
		c1-0.9,2-1.8,2.7-3C327.5,89.1,327.9,86.5,327.9,83.8z M431.2,47.8c-0.5,0.9,0.2,1,0.9,1.1c1,0.1,0.7-0.8,0.7-1.2
		c-0.1-0.5-0.6-1.2-0.9-1.2C431.4,46.5,430.9,47.1,431.2,47.8z"/>
	<path class="st0" d="M235.4,193.2c-0.1,0-0.2,0-0.3,0.1c-0.9,1.3-2.1,1.1-3.4,1c-2.1-0.2-4.1,0-6.2,0c-2.8,0-5.6,0.1-8.3,0.1
		c-1.4,0-2.8,0-4.2,0c-1.7-0.1-3.3-0.3-5-0.3c-1.7,0-3.4,0.1-5.1,0c-5.1,0-10.2-0.1-15.3-0.1c-1.9,0-3.8-0.2-5.7-0.2
		c-3.2,0.1-6.4,0.5-9.5,0.5c-2.3,0-4.6-0.3-6.9-0.5c-3.3-0.2-6.6-0.4-9.8-0.7c-4.3-0.3-8.5-0.8-12.8-0.9c-3.4-0.1-6.9,0.4-10.3,0.6
		c-4,0.2-8.1,0.3-12.1,0.4c-1.2,0-2.4-0.4-3.6-0.5c-1.5-0.1-3.1-0.1-4.6-0.1c-1.8,0-3.5,0-5.3-0.1c-2.1-0.1-4.2-0.3-6.3-0.3
		c-1.5,0-3,0.2-4.6,0.3c-1.4,0.1-2.9,0-4.3,0.1c-3.8,0.1-7.6,0.3-11.4,0.2c-3.1-0.1-6.3-0.4-9.4-0.6c-1.8-0.1-3.5,0-5.3,0.1
		c-2.5,0.1-5,0.4-7.5,0.5c-2.4,0.1-4.7,0-7.1-0.2c-2.6-0.2-5.3-0.6-7.9-0.9c-1.6-0.2-3.2-0.3-4.8-0.4c-0.1,0-0.2-0.1-0.3-0.3
		c0.7,0,1.5-0.3,2.1-0.1c2,0.7,3.9-0.1,5.9-0.3c2.2-0.3,4.3-0.6,6.5-0.2c1.9,0.3,3.9-0.2,5.8-0.4c1.2-0.1,2.3-0.2,3.5-0.2
		c1.4,0,2.9,0.1,4.3,0.1c1.6,0,3.3-0.1,4.9-0.1c1.7,0,3.4,0,5.1,0c0.9,0,1.8,0.1,2.6,0.2c4.8,0.3,9.7,0.6,14.5,0.8
		c4.2,0.2,8.3,0.2,12.5,0.2c3.8,0,7.6-0.3,11.3-0.3c2.3,0,4.5,0.1,6.8,0.2c1.7,0,3.4,0,5.2,0c2.8-0.1,5.5-0.1,8.3-0.2
		c1,0,2.1,0.1,3.1,0.2c3.2,0.1,6.4,0.1,9.7,0.2c1.9,0.1,3.9,0.2,5.8,0.3c1.3,0.1,2.7,0.1,4,0.1c5,0.3,10.1,0.6,15.1,0.9
		c1.8,0.1,3.6,0.3,5.3,0.4c2.9,0.1,5.8,0.2,8.8,0.2c2.7,0,5.4,0,8,0.1c2,0,4,0.1,6,0.1c2.9,0,5.9-0.1,8.8-0.1c2.4,0,4.7,0.2,7.1,0.2
		c4,0,8,0,12,0c1.4,0,2.8,0,4.2,0C235.3,193.1,235.4,193.2,235.4,193.2z"/>
	<path class="st0" d="M469.3,193.1c-1.4,0.2-2.9,0.5-4.3,0.7c-3.8,0.6-7.7,0.9-11.6,0.8c-3.1-0.1-6.3,0-9.4-0.6
		c-2.9-0.5-5.9-0.5-8.9-0.5c-4.4,0-8.9,0.1-13.3,0.2c-2.5,0.1-5,0.2-7.5,0.3c-2.5,0-4.9-0.1-7.4-0.1c-3.7,0-7.3,0.2-11,0.1
		c-5.3-0.1-10.6-0.3-15.9-0.3c-2.8,0-5.5,0.3-8.3,0.3c-1.5,0.1-3.1,0-4.7,0c-1.3,0-2.5,0-3.8,0.1c-2.4,0.2-4.8,0.5-7.1,0.6
		c-0.8,0-1.5-0.3-2.3-0.3c-3.6,0-7.3,0.1-10.9,0.1c-3.9,0-7.9-0.1-11.8-0.1c-2,0-4,0-6,0.1c-2.1,0.1-3.8-0.7-5.4-2
		c-0.2-0.2-0.4-0.3-0.8-0.6c0.5-0.1,0.8-0.1,1.1-0.2c3.7-0.1,7.5-0.2,11.2-0.4c2-0.1,4-0.3,6-0.4c2.9-0.1,5.8-0.1,8.7,0
		c3.3,0,6.6,0.1,10,0.2c2.6,0.1,5.3,0.6,7.9,0.8c1.5,0.1,3,0.1,4.5,0.1c2.1,0,4.1-0.1,6.2-0.1c2.8,0,5.6,0.1,8.5,0.2
		c4.6,0.1,9.3,0.1,13.9,0.1c3.2,0.1,6.4,0.2,9.5,0.3c1.6,0,3.1-0.1,4.7-0.2c1.7-0.1,3.3-0.1,5-0.3c5.5-0.5,11.1-0.4,16.6-0.3
		c4.7,0.1,9.5,0.2,14.2,0.2c2,0,4-0.1,5.9-0.2c1.7,0,3.4,0.1,5.1,0.1c2.5,0.1,5,0.1,7.5,0.2c1.3,0.1,2.5,0.2,3.8,0.3
		c0.1,0,0.3,0.1,0.4,0.2C469.3,192.9,469.3,193,469.3,193.1z"/>
	<path class="st0" d="M80.2,194.8c0.9,0,1.8-0.1,2.8-0.1c1.5-0.1,3-0.1,4.5-0.1c3.7-0.1,7.3-0.4,11-0.4c2.4,0,4.7,0.2,7.1,0.3
		c1,0,2.1-0.1,3.1-0.1c1.1,0,2.2,0.1,3.3,0.2c1.7,0.1,3.4-0.1,5.1,0.2c3.4,0.4,6.7,0.7,10.1,0.4c4.8-0.4,9.7-0.6,14.5-0.9
		c3.6-0.3,7.2,0.3,10.8,0.7c1,0.1,2,0,3,0.1c2,0.2,4,0.4,6,0.6c2.5,0.2,5,0.4,7.5,0.6c1.5,0.1,3.1,0.3,4.6,0.4c1.3,0,2.7-0.3,4-0.4
		c2.7-0.1,5.4-0.2,8.2-0.2c2,0,4.1-0.1,6.1,0c1.5,0,3,0.1,4.5,0.1c1.9,0,3.9,0,5.8,0.1c1.9,0.1,3.8,0.2,5.7,0.3
		c1.9,0.1,3.9,0.1,5.8,0.1c2.5,0,4.9,0.1,7.4,0.1c1.3,0,2.5-0.1,3.8-0.1c2,0,3.9,0,5.9,0c-1.5,0.8-3,1.3-4.7,1.2
		c-1.7-0.1-3.3,0.2-5,0.4c-1.9,0.1-3.9,0.3-5.8,0.4c-3.6,0.1-7.3,0.3-10.9,0.3c-2.5,0-4.9-0.2-7.4-0.3c-2.1-0.1-4.2-0.1-6.3-0.2
		c-4.1-0.3-8.1-0.6-12.2-0.9c-2.2-0.1-4.4-0.1-6.6-0.2c-0.7,0-1.4-0.1-2.1-0.1c-2.8-0.1-5.5-0.2-8.3-0.2c-1.9,0-3.8,0.2-5.8,0.2
		c-1,0-2,0-3,0c-2.3,0-4.5-0.1-6.8-0.1c-1,0-2.1,0.1-3.1,0c-1.2,0-2.4-0.1-3.6-0.2c-2.1-0.1-4.2-0.3-6.3-0.4c-2.6-0.1-5.2,0-7.8-0.2
		c-5.2-0.3-10.3-0.1-15.5-0.1c-2.5,0-4.9-0.2-7.4-0.3c-2-0.1-4.1,0.1-6.1-0.2c-4.6-0.6-9.2,0.1-13.9-0.2
		C81.5,195.2,80.7,195.6,80.2,194.8L80.2,194.8z"/>
	<path class="st0" d="M364,196.3c1.7-0.2,3.5-0.4,5.2-0.5c2.3-0.2,4.6-0.3,6.8-0.4c1.8-0.1,3.6,0,5.4,0.1c1.7,0,3.4,0.2,5,0.2
		c3.6,0.1,7.2,0.2,10.8,0.2c3,0,6-0.1,8.9-0.1c1.9,0,3.8,0.2,5.6,0.1c1.5,0,3-0.2,4.5-0.3c0.7,0,1.3,0.1,2,0.1
		c2.8-0.1,5.5-0.1,8.3-0.2c2.4-0.1,4.7-0.3,7.1-0.4c1.7,0,3.3,0.1,5,0.2c3.6,0.3,7.1,0.8,10.6,1c2.4,0.2,4.8-0.1,7.3-0.1
		c1.3,0,2.7,0.1,4,0.1c0.9,0,1.9-0.2,2.8-0.3c0,0.1,0.1,0.2,0.1,0.3c-0.3,0.1-0.7,0.4-1,0.4c-1.8,0-3.6,0.5-5.3,0.9
		c-1.1,0.2-2.3,0.2-3.5,0.2c-2.7,0-5.4-0.1-8.2-0.2c-2.7-0.1-5.3-0.2-8-0.3c-1.9,0-3.8,0.2-5.6,0.1c-2,0-4-0.3-6-0.4
		c-2.8-0.1-5.6-0.1-8.4-0.2c-2.6-0.1-5.2-0.1-7.8-0.1c-3.2,0-6.4,0.1-9.6,0.1c-3.2,0-6.4,0-9.5,0c-3,0-6.1,0.2-9.1,0.1
		c-2.6,0-5.2-0.3-7.8-0.4c-1.8-0.1-3.6,0-5.4,0.1c-1.3,0-2.7,0.1-4,0.1C364.2,196.8,364.1,196.5,364,196.3
		C364.1,196.3,364,196.3,364,196.3z"/>
	<path class="st0" d="M505.8,194.6c2.2-0.4,4.3-0.8,6.5-1.1c2.3-0.3,4.7-0.4,7-0.6c3.6-0.2,7.3-0.3,10.9-0.6
		c2.4-0.2,4.8-0.6,7.1-0.9c0.1,0,0.2,0.1,0.6,0.2c-1.3,0.7-2.1,1.8-3.5,1.8c-3.6,0.1-7.2,0.4-10.7,1.3c-0.6,0.2-1.3,0.1-1.9,0.2
		c-2.1,0.1-4.2,0.2-6.2,0.3c-1.9,0.1-3.7,0.3-5.6,0.3c-1.2,0-2.4-0.2-3.6-0.4c-0.2,0-0.3-0.2-0.4-0.3
		C505.9,194.8,505.8,194.7,505.8,194.6z"/>
	<path class="st0" d="M364.1,196.3c-0.3,0.2-0.5,0.4-0.8,0.5c-2.9,0.2-5.8,0.5-8.7,0.6c-1.5,0.1-3-0.1-4.5-0.1
		c-2.9,0.1-5.8,0.2-8.8,0.3c-1.4,0-2.7,0.1-4.1,0c-1,0-1.9-0.2-2.9-0.2c-1.8,0-3.6,0.1-5.4,0c-1.2-0.1-2.4-0.6-3.6-0.9
		c0-0.1,0-0.2,0-0.3c0.9,0,1.8,0,2.8,0c1.6,0,3.1,0,4.7,0c1.5,0,3,0.2,4.4,0.2c3.4-0.1,6.7-0.3,10.1-0.4c1.7,0,3.5,0.3,5.2,0.3
		c2.3,0,4.6-0.1,6.9-0.1C360.9,196.3,362.5,196.3,364.1,196.3C364,196.3,364.1,196.3,364.1,196.3z"/>
	<path class="st0" d="M48.8,194.8c-2.4,0-4.8,0.1-7.3,0c-2.7-0.2-5.5-0.7-8.2-1c-1.4-0.2-2.8-0.1-4.1-0.3c-2.4-0.4-4.7-0.7-7-1.4
		c-1.3-0.4-2.5-1.3-3.8-1.9c0-0.1,0-0.2,0.1-0.4c0.4,0,0.8,0,1.1,0.2c1.7,0.6,3.4,1.4,5.2,1.9c1.3,0.4,2.6,0.4,3.9,0.6
		c0.3,0.1,0.6,0.2,1,0.2c2.2,0.4,4.3-0.1,6.4,0c2.9,0.1,5.9,0.5,8.8,0.7c1.1,0.1,2.2,0.3,3.3,0.6c0.3,0.1,0.6,0.3,0.9,0.5
		C48.9,194.6,48.8,194.7,48.8,194.8z"/>
	<path class="st0" d="M37.6,190.9c-0.8,0.1-1.6,0.2-2.4,0.2c-2.2,0-4.4,0.1-6.6,0c-1-0.1-2-0.6-3.1-1c-0.4-0.1-0.9-0.3-1.3-0.4
		c-2.2-0.5-4.3-1.1-6.1-2.5c0-0.1,0.1-0.2,0.1-0.4c6.4,1.2,12.9,2.5,19.3,3.7C37.6,190.7,37.6,190.8,37.6,190.9z"/>
	<path class="st0" d="M80.1,194.8c-0.3,0.2-0.6,0.5-0.9,0.5c-2.5,0.2-4.9,0.3-7.4,0.4c-0.6,0-1.2-0.1-1.8-0.1
		c-2.2-0.3-4.4-0.5-6.5-0.8c-0.9-0.1-1.8,0-2.7-0.1c-0.2,0-0.4-0.1-0.5-0.4c1.5-0.1,2.9-0.2,4.4-0.4c0.5,0,1-0.1,1.4-0.1
		c2.6,0.1,5.2,0.1,7.8,0.2c1.6,0.1,3.2,0.2,4.7,0.3C79,194.5,79.6,194.7,80.1,194.8C80.2,194.8,80.1,194.8,80.1,194.8z"/>
	<path class="st0" d="M505.8,194.6c0.1,0.1,0.1,0.2,0.2,0.3c-0.2,0.2-0.5,0.5-0.7,0.5c-0.7,0.1-1.5,0-2.2,0
		c-3.3-0.2-6.6-0.5-9.8-0.6c-2.9-0.1-5.9,0.1-8.8,0.2c-1,0-2,0-3-0.2c4.1-0.7,8.2-0.6,12.3-0.7C497.6,194,501.7,194,505.8,194.6z"/>
	<path class="st0" d="M255.8,191c-5.1,0-10.3,0-15.4,0c0-0.1,0-0.1-0.1-0.2c0.8-0.3,1.6-0.7,2.4-0.8c1.2-0.2,2.5-0.3,3.7-0.2
		c3,0.2,6,0.5,9,0.7c0.1,0,0.3,0.1,0.4,0.1C255.9,190.8,255.8,190.9,255.8,191z"/>
	<path class="st0" d="M475.8,195.2c-3.6,0.4-7.3,0.7-11.1,1.1c1.2-1.2,9.5-2.2,11-1.5C475.8,195,475.8,195.1,475.8,195.2z"/>
	<path class="st0" d="M505.4,192.2c-0.7,0.1-1.4,0.2-2.1,0.2c-1.1,0-2.3-0.1-3.4-0.1c-1.8,0-3.6,0-5.5,0c0-0.1,0-0.2,0-0.3
		c0.2,0,0.4-0.1,0.6-0.1c3.1,0,6.3,0,9.4,0C504.8,191.9,505.1,192.1,505.4,192.2L505.4,192.2z"/>
	<path class="st0" d="M526.9,190.9c-1.6,0-3.1,0.4-4.8,0.2C523.3,190.1,526.1,190.1,526.9,190.9z"/>
	<path class="st0" d="M290.7,191.2c-2.5,0-5.1,0-7.6,0c0-0.1,0-0.2,0-0.3c2.5,0,5,0,7.6,0C290.7,191,290.7,191.1,290.7,191.2z"/>
	<path class="st0" d="M48.8,194.8c0.1-0.1,0.1-0.1,0.2-0.2c1.2-0.6,2.3-0.4,3.5-0.2c0,0.1,0,0.3,0,0.4
		C51.2,194.8,50,194.8,48.8,194.8z"/>
	<path class="st0" d="M540.4,188.5c-0.7,0.9-1.7,0.9-2.7,1c0-0.1-0.1-0.2-0.1-0.2c0.9-0.3,1.8-0.6,2.7-1
		C540.3,188.3,540.4,188.4,540.4,188.5z"/>
	<path class="st0" d="M530.5,190.6c-1,0.1-1.9,0.1-2.9,0.2c0-0.2,0-0.4,0-0.5c1,0,1.9,0,2.9,0C530.5,190.4,530.5,190.5,530.5,190.6z
		"/>
	<path class="st0" d="M266.8,190.9c-0.9,0-1.9,0-2.8,0c0-0.1,0-0.2,0-0.2c0.9,0,1.9-0.1,2.8-0.1
		C266.8,190.7,266.8,190.8,266.8,190.9z"/>
	<path class="st0" d="M478.3,195.2c0.7-0.9,1.6-0.5,2.4-0.4c0,0.1,0,0.2,0,0.3C480,195.1,479.2,195.1,478.3,195.2L478.3,195.2z"/>
	<path class="st0" d="M493.8,192.3c-0.9,0.1-1.8,0.1-2.7,0.2c0-0.1,0-0.2,0-0.3c0.9-0.1,1.8-0.2,2.7-0.3
		C493.8,192,493.8,192.2,493.8,192.3z"/>
	<path class="st0" d="M478.4,195.2c-0.5,0-0.9,0.1-1.4,0.1c-0.2,0-0.4-0.2-0.5-0.3c0.1-0.2,0.3-0.5,0.4-0.4
		C477.3,194.7,477.8,195,478.4,195.2C478.3,195.2,478.4,195.2,478.4,195.2z"/>
	<path class="st0" d="M530.5,190.6c0-0.1,0-0.2,0-0.3c0.7-0.1,1.5-0.3,2.2-0.4c0,0.1,0,0.2,0.1,0.4
		C532.1,190.4,531.3,190.5,530.5,190.6z"/>
	<path class="st0" d="M505.4,192.2c0.6-0.7,1.2-0.2,1.8,0.1C506.6,192.6,506,192.7,505.4,192.2L505.4,192.2z"/>
	<path class="st0" d="M293.9,191c-0.7,0.1-1.4,0.2-2.1,0.4c0-0.2,0-0.3,0-0.5C292.4,191,293.1,191,293.9,191L293.9,191z"/>
	<path class="st0" d="M293.8,191.1c1.1,0,2.3,0,3.4,0c0,0.1,0,0.2,0,0.2C296.1,191.2,295,191.1,293.8,191.1
		C293.9,191,293.8,191.1,293.8,191.1z"/>
	<path class="st0" d="M275.4,191c-0.9,0-1.8,0-2.8,0c0-0.1,0-0.1,0-0.2c0.9,0,1.8,0,2.8,0C275.4,190.9,275.4,190.9,275.4,191z"/>
	<path class="st0" d="M269.6,190.9c-0.7,0-1.4,0-2.2,0c0-0.1,0-0.1,0-0.2c0.7,0,1.4,0,2.2,0C269.6,190.8,269.6,190.9,269.6,190.9z"
		/>
	<path d="M327.9,83.8c-0.1,2.7-0.4,5.3-1.8,7.6c-0.7,1.1-1.7,2.1-2.7,3c-1.1,1-2.4,1.7-3.4,2.7c-1.5,1.6-3.3,2.6-5.1,3.8
		c-3,2-6.3,2.8-9.7,3.6c-0.3,0.1-0.7,0.3-1,0.5c-0.3,0.1-0.5,0.3-0.8,0.3c-3.1,0.4-6.2,0.9-9.3,1.2c-2.3,0.2-4.6,0.4-7,0.5
		c-4.2,0.2-8.5,0.5-12.7,0.4c-3.4,0-6.8-0.2-10-1.4c-1.4-0.5-2.9-0.5-4.4-0.7c-2.8-0.3-5.4-1.2-8-2.3c-2.9-1.3-5.9-2.4-8.7-4
		c-2-1.2-3.8-2.8-5.5-4.4c-2.5-2.2-3.5-5.3-4.7-8.2c-1.1-2.5-1.2-5.2-0.4-7.9c0.6-2.1,1.2-4.1,2.4-5.8c1-1.6,2.5-2.7,4.3-3.4
		c2.3-1,4.6-2.1,6.8-3.2c1.8-0.9,3.7-1.3,5.6-1.6c1.8-0.3,3.7-0.5,5.5-0.6c3.9-0.3,7.8-0.5,11.7-1c4-0.5,8-0.5,12-0.1
		c2.4,0.2,4.9,0.1,7.3,0.1c3.2,0.1,6.5-0.1,9.6,0.3c3.1,0.4,6.2,1.2,9.1,2.3c2.9,1,5.6,2.5,8.2,4c2.2,1.2,4.4,2.4,6.3,4
		c1.7,1.3,3,3.1,4.4,4.6c0.9,1,1.4,2.1,1.6,3.4C327.9,82.1,327.9,83,327.9,83.8z M274.2,105.8c2.3-0.2,4.4-0.4,6.5-0.5
		c3.5-0.2,7-0.2,10.6-0.4c1.8-0.1,3.5-0.7,5.3-1c3-0.5,6-1,8.9-1.5c4.1-0.8,7.9-2.6,11.2-5c1.9-1.3,3.6-2.9,5.4-4.4
		c1.4-1.2,2.5-2.5,3.2-4.3c0.7-2.1,0.8-4.1,0.8-6.2c0-1.2-0.5-2.2-1.2-3.2c-0.9-1.3-2.1-2.3-3.3-3.4c-1.5-1.5-3-2.9-5-3.8
		c-0.4-0.2-0.9-0.4-1.3-0.7c-1.9-1.1-3.8-2.3-5.8-3.2c-2.4-1.1-5-1.9-7.5-2.7c-1.5-0.5-3.1-0.8-4.7-0.9c-2.5-0.1-4.9,0-7.4,0
		c-1.5,0-2.9-0.1-4.4-0.2c-2.8-0.1-5.6,0.1-8.3-0.3c-2.1-0.3-4,0.1-6,0.1c-2.7,0-5.4,0.4-8.1,0.7c-3.9,0.5-7.9-0.1-11.8,1.1
		c-1.3,0.4-2.7,0.7-3.9,1.3c-2.2,1-4.3,2.1-6.5,3.2c-1.1,0.5-2.3,1-3.1,1.7c-2.7,2.3-3.6,5.5-3.8,8.9c-0.2,3.4,1.6,6.3,3.1,9.2
		c1.8,3.5,5,5.7,8.3,7.7c1.5,0.9,3.1,1.5,4.7,2.2c3.3,1.4,6.7,2.6,10.2,3.1c1.7,0.2,3.4,0.4,5,0.9
		C268.2,105.4,271.3,105.4,274.2,105.8z"/>
	<path d="M431.2,47.8c-0.3-0.8,0.2-1.3,0.7-1.3c0.3,0,0.8,0.7,0.9,1.2c0.1,0.3,0.4,1.2-0.7,1.2C431.4,48.9,430.7,48.8,431.2,47.8z"
		/>
	<path class="st0" d="M274.2,105.8c-2.9-0.4-6-0.4-9.1-1.4c-1.6-0.5-3.3-0.7-5-0.9c-3.6-0.5-6.9-1.7-10.2-3.1
		c-1.6-0.7-3.2-1.3-4.7-2.2c-3.3-2-6.4-4.2-8.3-7.7c-1.5-2.9-3.3-5.8-3.1-9.2c0.2-3.4,1.1-6.6,3.8-8.9c0.9-0.8,2.1-1.2,3.1-1.7
		c2.1-1.1,4.3-2.2,6.5-3.2c1.3-0.6,2.6-0.9,3.9-1.3c3.9-1.2,7.9-0.7,11.8-1.1c2.7-0.3,5.4-0.7,8.1-0.7c2,0,3.9-0.5,6-0.1
		c2.7,0.4,5.5,0.2,8.3,0.3c1.5,0,2.9,0.2,4.4,0.2c2.5,0,4.9-0.2,7.4,0c1.6,0.1,3.2,0.4,4.7,0.9c2.5,0.8,5.1,1.6,7.5,2.7
		c2,0.9,3.9,2.1,5.8,3.2c0.4,0.2,0.9,0.5,1.3,0.7c1.9,0.9,3.4,2.4,5,3.8c1.1,1.1,2.3,2.1,3.3,3.4c0.7,1,1.2,2,1.2,3.2
		c0,2.1,0,4.2-0.8,6.2c-0.6,1.8-1.8,3.1-3.2,4.3c-1.7,1.5-3.5,3-5.4,4.4c-3.4,2.4-7.1,4.2-11.2,5c-3,0.6-6,1-8.9,1.5
		c-1.8,0.3-3.5,0.9-5.3,1c-3.5,0.2-7,0.2-10.6,0.4C278.7,105.4,276.5,105.6,274.2,105.8z M244.5,74.8c0.1-0.1,0.1-0.1,0.2-0.2
		c0-0.4,0-0.8-0.1-1.1c-0.1-0.2-0.6-0.3-0.9-0.2c-3.2,1.4-5.4,5.2-5,8.3c0.1,0.5,0.1,1.1,0.2,1.6c0.4,1.9,0.9,3.7,2.2,5.1
		c1.6,1.6,3.3,3.2,5.1,4.6c1.8,1.3,3.7,2.6,5.7,3.5c3.5,1.6,7.3,2,11.1,2.2c2.9,0.2,5.8,0.3,8.8,0.5c1.8,0.1,3.7,0.4,5.5,0.6
		c3.7,0.4,7.5-0.1,11.2-0.3c2.9-0.2,5.7-0.5,8.5-0.8c2.2-0.2,4.5-0.5,6.6-1.4c0.9-0.4,1.8-0.8,2.8-1.1c0.6-0.2,0.8-0.5,0.6-1
		c-0.1-0.4-0.5-0.9-0.8-1c-1.6-0.4-3.2-0.7-4.7-1.1c-3.5-1-6.9-2-10.3-3.1c-2.5-0.8-4.9-1.7-7.4-2.5c-1.1-0.4-2.3-0.8-3.4-1.1
		c-2.4-0.7-4.8-1.4-7.2-2.2c-1.5-0.5-3.1-0.8-4.6-1.3c-3.5-1.2-7-2.5-10.5-3.7c-2.1-0.7-4.2-1.2-6.3-1.8c-2.2-0.7-4.5-1.4-6.7-2
		C245,75.1,244.8,74.9,244.5,74.8z M263.6,68.5C263.6,68.5,263.6,68.5,263.6,68.5c-0.4,0.1-0.7,0.1-1.1,0.2
		c-1.7,0.1-3.5,0.2-5.1,0.5c-1.8,0.3-3.6,0.9-5.4,1.4c-0.4,0.1-1,0.2-1.2,0.4c-0.4,0.5-0.7,1.2-0.7,1.8c0,0.7,0.7,0.4,1.2,0.5
		c0.9,0.2,1.8,0.3,2.7,0.6c2.8,0.8,5.7,1.7,8.5,2.5c1.6,0.5,3.3,0.8,4.9,1.2c1.9,0.6,3.8,1.3,5.7,1.9c2.9,0.8,5.8,1.5,8.7,2.3
		c3.2,0.9,6.3,2,9.5,3c1.2,0.4,2.5,0.7,3.7,1.1c2.6,0.9,5.2,1.9,7.8,2.6c3,0.8,5.8,2.1,9,2.2c0.3,0,0.6,0.3,0.8,0.5
		c0.6,0.6,1.6,0.8,2,0.1c0.6-0.9,1.7-1.5,1.7-2.7c0-0.3,0.2-0.7,0.3-1c0.9-2,1.2-4.2,0.8-6.2c-0.4-1.8-1.4-3.7-2.5-5.1
		c-2.4-2.9-5.7-4.8-9.3-5.9c-2.3-0.7-4.6-1.4-7-1.5c-1.7-0.1-3.4-0.2-5.2-0.3c-1.9-0.1-3.9-0.4-5.8-0.4c-5.6,0-11.2,0.1-16.8,0.1
		C268.4,68.5,266,68.5,263.6,68.5z M275.7,104.2c-0.2,0.1-0.3,0.2-0.5,0.3c0.2,0.3,0.3,0.6,0.5,0.9c0.2-0.1,0.5-0.3,0.5-0.4
		C276.1,104.8,275.9,104.5,275.7,104.2z"/>
	<path d="M244.5,74.8c0.3,0.1,0.5,0.3,0.8,0.4c2.2,0.7,4.5,1.4,6.7,2c2.1,0.6,4.2,1.1,6.3,1.8c3.5,1.2,7,2.5,10.5,3.7
		c1.5,0.5,3.1,0.9,4.6,1.3c2.4,0.7,4.8,1.4,7.2,2.2c1.1,0.4,2.3,0.8,3.4,1.1c2.5,0.8,4.9,1.7,7.4,2.5c3.4,1.1,6.9,2.1,10.3,3.1
		c1.6,0.4,3.2,0.7,4.7,1.1c0.3,0.1,0.7,0.6,0.8,1c0.1,0.4,0,0.8-0.6,1c-1,0.2-1.9,0.7-2.8,1.1c-2.1,0.9-4.4,1.1-6.6,1.4
		c-2.8,0.3-5.7,0.6-8.5,0.8c-3.7,0.3-7.4,0.8-11.2,0.3c-1.8-0.2-3.7-0.5-5.5-0.6c-2.9-0.2-5.8-0.3-8.8-0.5
		c-3.8-0.2-7.6-0.6-11.1-2.2c-2-0.9-3.9-2.2-5.7-3.5c-1.8-1.4-3.6-2.9-5.1-4.6c-1.3-1.4-1.9-3.3-2.2-5.1c-0.1-0.5-0.2-1.1-0.2-1.6
		c-0.4-3.1,1.9-6.9,5-8.3c0.2-0.1,0.8,0,0.9,0.2c0.2,0.3,0.1,0.7,0.1,1.1C244.7,74.7,244.6,74.8,244.5,74.8z M303.1,95.6
		c0-0.1,0-0.3,0-0.4c-1-0.3-2.1-0.6-3.1-1c-1.8-0.6-3.6-1.2-5.4-1.8c-4.2-1.3-8.4-2.6-12.5-3.9c-2.6-0.8-5.2-1.7-7.8-2.5
		c-3-1-6.1-1.9-9.1-2.9c-2.8-0.9-5.6-1.9-8.5-2.8c-2.2-0.7-4.5-1.4-6.7-2.1c-2.1-0.6-4.2-1.2-6.3-1.7c-0.5-0.1-1.4-0.2-1.6,0.1
		c-0.7,1-1.5,2.1-1.6,3.3c-0.2,3.2,0.6,6.2,3.3,8.4c0.8,0.6,1.5,1.4,2.3,2c1.2,1,2.5,2.1,3.8,3c3,1.9,6.2,3,9.8,3.2
		c2.9,0.2,5.9,0.5,8.8,0.8c3.5,0.3,7,0.7,10.5,0.7c3.6,0,7.2-0.2,10.8-0.4c2.3-0.2,4.5-0.5,6.8-0.8C298.7,96.4,300.9,96,303.1,95.6z
		"/>
	<path d="M263.6,68.5c2.4,0,4.7,0,7.1,0c5.6,0,11.2-0.1,16.8-0.1c1.9,0,3.9,0.2,5.8,0.4c1.7,0.1,3.4,0.3,5.2,0.3
		c2.4,0.1,4.7,0.8,7,1.5c3.7,1.1,6.9,2.9,9.3,5.9c1.2,1.4,2.1,3.3,2.5,5.1c0.4,2,0.1,4.2-0.8,6.2c-0.2,0.3-0.3,0.7-0.3,1
		c-0.1,1.2-1.2,1.8-1.7,2.7c-0.4,0.7-1.4,0.5-2-0.1c-0.2-0.2-0.5-0.5-0.8-0.5c-3.1-0.2-6-1.4-9-2.2c-2.6-0.8-5.2-1.8-7.8-2.6
		c-1.2-0.4-2.5-0.7-3.7-1.1c-3.2-1-6.3-2.1-9.5-3c-2.9-0.8-5.8-1.5-8.7-2.3c-1.9-0.5-3.8-1.3-5.7-1.9c-1.6-0.5-3.3-0.8-4.9-1.2
		c-2.8-0.8-5.7-1.7-8.5-2.5c-0.9-0.3-1.8-0.4-2.7-0.6c-0.4-0.1-1.2,0.2-1.2-0.5c0-0.6,0.3-1.3,0.7-1.8c0.2-0.3,0.8-0.3,1.2-0.4
		c1.8-0.5,3.5-1.1,5.4-1.4c1.7-0.3,3.4-0.3,5.1-0.5C262.9,68.6,263.3,68.6,263.6,68.5C263.6,68.5,263.6,68.5,263.6,68.5z
		 M313.6,89.3c1.6-2.1,2.1-4.5,2.1-6.9c0-0.6,0-1.2-0.2-1.7c-1.1-3-3.4-5.2-6-6.8c-3.1-1.9-6.7-2.9-10.3-3.3
		c-1.2-0.1-2.5-0.2-3.7-0.2c-3.1-0.2-6.2-0.4-9.3-0.5c-2.4-0.1-4.7,0-7.1,0c-1.5,0-2.9,0-4.4,0c-3,0.1-6,0.3-9,0.3
		c-3.7,0.1-7.4,0.3-11.1,1.3c-0.4,0.1-0.7,0.2-1,0.4c0.5,0.4,1,0.5,1.5,0.6c2.5,0.7,5,1.5,7.5,2.2c1.8,0.5,3.7,0.9,5.6,1.5
		c1.3,0.4,2.5,0.9,3.8,1.3c2.7,0.7,5.4,1.3,8.1,2.1c2.9,0.8,5.8,1.7,8.6,2.6c3.1,1,6.2,2,9.4,3c3.1,1,6.2,2,9.3,2.9
		C309.4,88.6,311.6,88.9,313.6,89.3z"/>
	<path d="M275.7,104.2c0.2,0.3,0.4,0.6,0.5,0.9c0,0-0.3,0.2-0.5,0.4c-0.2-0.3-0.3-0.6-0.5-0.9C275.4,104.4,275.6,104.3,275.7,104.2z
		"/>
	<path class="st0" d="M303.1,95.6c-2.2,0.3-4.4,0.7-6.6,1c-2.2,0.3-4.5,0.7-6.8,0.8c-3.6,0.2-7.2,0.5-10.8,0.4
		c-3.5,0-7-0.4-10.5-0.7c-2.9-0.2-5.9-0.6-8.8-0.8c-3.6-0.2-6.8-1.3-9.8-3.2c-1.4-0.9-2.6-2-3.8-3c-0.8-0.6-1.5-1.3-2.3-2
		c-2.6-2.2-3.5-5.1-3.3-8.4c0.1-1.1,0.9-2.3,1.6-3.3c0.2-0.3,1.1-0.2,1.6-0.1c2.1,0.5,4.2,1.1,6.3,1.7c2.2,0.7,4.5,1.3,6.7,2.1
		c2.8,0.9,5.6,1.9,8.5,2.8c3,1,6.1,1.9,9.1,2.9c2.6,0.8,5.2,1.7,7.8,2.5c4.2,1.3,8.4,2.6,12.5,3.9c1.8,0.6,3.6,1.2,5.4,1.8
		c1,0.3,2.1,0.6,3.1,1C303.1,95.4,303.1,95.5,303.1,95.6z"/>
	<path class="st0" d="M313.6,89.3c-2.1-0.4-4.2-0.7-6.2-1.3c-3.1-0.9-6.2-1.9-9.3-2.9c-3.1-1-6.2-2-9.4-3c-2.9-0.9-5.7-1.8-8.6-2.6
		c-2.7-0.8-5.4-1.4-8.1-2.1c-1.3-0.3-2.5-0.9-3.8-1.3c-1.8-0.5-3.7-0.9-5.6-1.5c-2.5-0.7-5-1.5-7.5-2.2c-0.5-0.1-1-0.3-1.5-0.6
		c0.3-0.1,0.7-0.3,1-0.4c3.6-1,7.3-1.2,11.1-1.3c3-0.1,6-0.2,9-0.3c1.5,0,2.9,0,4.4,0c2.4,0,4.7-0.1,7.1,0c3.1,0.1,6.2,0.3,9.3,0.5
		c1.2,0.1,2.5,0.1,3.7,0.2c3.6,0.4,7.2,1.4,10.3,3.3c2.7,1.6,4.9,3.7,6,6.8c0.2,0.5,0.2,1.1,0.2,1.7
		C315.7,84.9,315.2,87.2,313.6,89.3z"/>
</g>
</svg>
